G04 #@! TF.GenerationSoftware,KiCad,Pcbnew,8.0.4-rc2-202407082205~7740c66479~ubuntu22.04.1*
G04 #@! TF.CreationDate,2024-07-18T15:38:00+01:00*
G04 #@! TF.ProjectId,LIS2DH_array,4c495332-4448-45f6-9172-7261792e6b69,rev?*
G04 #@! TF.SameCoordinates,Original*
G04 #@! TF.FileFunction,Other,ECO1*
%FSLAX46Y46*%
G04 Gerber Fmt 4.6, Leading zero omitted, Abs format (unit mm)*
G04 Created by KiCad (PCBNEW 8.0.4-rc2-202407082205~7740c66479~ubuntu22.04.1) date 2024-07-18 15:38:00*
%MOMM*%
%LPD*%
G01*
G04 APERTURE LIST*
G04 APERTURE END LIST*
G36*
X148343039Y-57519685D02*
G01*
X148388794Y-57572489D01*
X148400000Y-57624000D01*
X148400000Y-60648799D01*
X148399976Y-60651228D01*
X148397858Y-60759338D01*
X148396355Y-60776308D01*
X148362338Y-60991072D01*
X148357796Y-61009991D01*
X148290980Y-61215631D01*
X148283534Y-61233608D01*
X148185370Y-61426266D01*
X148175203Y-61442857D01*
X148048107Y-61617788D01*
X148035470Y-61632583D01*
X147882583Y-61785470D01*
X147867788Y-61798107D01*
X147692857Y-61925203D01*
X147676266Y-61935370D01*
X147483608Y-62033534D01*
X147465631Y-62040980D01*
X147259991Y-62107796D01*
X147241072Y-62112338D01*
X147026307Y-62146355D01*
X147009340Y-62147858D01*
X146901227Y-62149979D01*
X146898795Y-62150003D01*
X146650000Y-62150003D01*
X146541915Y-62152649D01*
X146541910Y-62152649D01*
X146323935Y-62196009D01*
X146323860Y-62195635D01*
X146294443Y-62200000D01*
X143705589Y-62200000D01*
X143676140Y-62195631D01*
X143676067Y-62196000D01*
X143458093Y-62152641D01*
X143458087Y-62152640D01*
X143350000Y-62149991D01*
X143101167Y-62149991D01*
X143098867Y-62149970D01*
X142990716Y-62147964D01*
X142973618Y-62146458D01*
X142758902Y-62112450D01*
X142739982Y-62107908D01*
X142534323Y-62041086D01*
X142516346Y-62033640D01*
X142323671Y-61935466D01*
X142307080Y-61925299D01*
X142132137Y-61798195D01*
X142117341Y-61785558D01*
X141964432Y-61632648D01*
X141951796Y-61617852D01*
X141824695Y-61442911D01*
X141814528Y-61426320D01*
X141716357Y-61233647D01*
X141708911Y-61215671D01*
X141642088Y-61010009D01*
X141637545Y-60991088D01*
X141603539Y-60776371D01*
X141602034Y-60759278D01*
X141600024Y-60651120D01*
X141600003Y-60648816D01*
X141600003Y-57624000D01*
X141619688Y-57556961D01*
X141672492Y-57511206D01*
X141724003Y-57500000D01*
X148276000Y-57500000D01*
X148343039Y-57519685D01*
G37*
G36*
X133343039Y-57519685D02*
G01*
X133388794Y-57572489D01*
X133400000Y-57624000D01*
X133400000Y-60648799D01*
X133399976Y-60651228D01*
X133397858Y-60759338D01*
X133396355Y-60776308D01*
X133362338Y-60991072D01*
X133357796Y-61009991D01*
X133290980Y-61215631D01*
X133283534Y-61233608D01*
X133185370Y-61426266D01*
X133175203Y-61442857D01*
X133048107Y-61617788D01*
X133035470Y-61632583D01*
X132882583Y-61785470D01*
X132867788Y-61798107D01*
X132692857Y-61925203D01*
X132676266Y-61935370D01*
X132483608Y-62033534D01*
X132465631Y-62040980D01*
X132259991Y-62107796D01*
X132241072Y-62112338D01*
X132026307Y-62146355D01*
X132009340Y-62147858D01*
X131901227Y-62149979D01*
X131898795Y-62150003D01*
X131650000Y-62150003D01*
X131541915Y-62152649D01*
X131541910Y-62152649D01*
X131323935Y-62196009D01*
X131323860Y-62195635D01*
X131294443Y-62200000D01*
X128705589Y-62200000D01*
X128676140Y-62195631D01*
X128676067Y-62196000D01*
X128458093Y-62152641D01*
X128458087Y-62152640D01*
X128350000Y-62149991D01*
X128101167Y-62149991D01*
X128098867Y-62149970D01*
X127990716Y-62147964D01*
X127973618Y-62146458D01*
X127758902Y-62112450D01*
X127739982Y-62107908D01*
X127534323Y-62041086D01*
X127516346Y-62033640D01*
X127323671Y-61935466D01*
X127307080Y-61925299D01*
X127132137Y-61798195D01*
X127117341Y-61785558D01*
X126964432Y-61632648D01*
X126951796Y-61617852D01*
X126824695Y-61442911D01*
X126814528Y-61426320D01*
X126716357Y-61233647D01*
X126708911Y-61215671D01*
X126642088Y-61010009D01*
X126637545Y-60991088D01*
X126603539Y-60776371D01*
X126602034Y-60759278D01*
X126600024Y-60651120D01*
X126600003Y-60648816D01*
X126600003Y-57624000D01*
X126619688Y-57556961D01*
X126672492Y-57511206D01*
X126724003Y-57500000D01*
X133276000Y-57500000D01*
X133343039Y-57519685D01*
G37*
G36*
X118343039Y-57519685D02*
G01*
X118388794Y-57572489D01*
X118400000Y-57624000D01*
X118400000Y-60648799D01*
X118399976Y-60651228D01*
X118397858Y-60759338D01*
X118396355Y-60776308D01*
X118362338Y-60991072D01*
X118357796Y-61009991D01*
X118290980Y-61215631D01*
X118283534Y-61233608D01*
X118185370Y-61426266D01*
X118175203Y-61442857D01*
X118048107Y-61617788D01*
X118035470Y-61632583D01*
X117882583Y-61785470D01*
X117867788Y-61798107D01*
X117692857Y-61925203D01*
X117676266Y-61935370D01*
X117483608Y-62033534D01*
X117465631Y-62040980D01*
X117259991Y-62107796D01*
X117241072Y-62112338D01*
X117026307Y-62146355D01*
X117009340Y-62147858D01*
X116901227Y-62149979D01*
X116898795Y-62150003D01*
X116650000Y-62150003D01*
X116541915Y-62152649D01*
X116541910Y-62152649D01*
X116323935Y-62196009D01*
X116323860Y-62195635D01*
X116294443Y-62200000D01*
X113705589Y-62200000D01*
X113676140Y-62195631D01*
X113676067Y-62196000D01*
X113458093Y-62152641D01*
X113458087Y-62152640D01*
X113350000Y-62149991D01*
X113101167Y-62149991D01*
X113098867Y-62149970D01*
X112990716Y-62147964D01*
X112973618Y-62146458D01*
X112758902Y-62112450D01*
X112739982Y-62107908D01*
X112534323Y-62041086D01*
X112516346Y-62033640D01*
X112323671Y-61935466D01*
X112307080Y-61925299D01*
X112132137Y-61798195D01*
X112117341Y-61785558D01*
X111964432Y-61632648D01*
X111951796Y-61617852D01*
X111824695Y-61442911D01*
X111814528Y-61426320D01*
X111716357Y-61233647D01*
X111708911Y-61215671D01*
X111642088Y-61010009D01*
X111637545Y-60991088D01*
X111603539Y-60776371D01*
X111602034Y-60759278D01*
X111600024Y-60651120D01*
X111600003Y-60648816D01*
X111600003Y-57624000D01*
X111619688Y-57556961D01*
X111672492Y-57511206D01*
X111724003Y-57500000D01*
X118276000Y-57500000D01*
X118343039Y-57519685D01*
G37*
G36*
X103343039Y-57519685D02*
G01*
X103388794Y-57572489D01*
X103400000Y-57624000D01*
X103400000Y-60648799D01*
X103399976Y-60651228D01*
X103397858Y-60759338D01*
X103396355Y-60776308D01*
X103362338Y-60991072D01*
X103357796Y-61009991D01*
X103290980Y-61215631D01*
X103283534Y-61233608D01*
X103185370Y-61426266D01*
X103175203Y-61442857D01*
X103048107Y-61617788D01*
X103035470Y-61632583D01*
X102882583Y-61785470D01*
X102867788Y-61798107D01*
X102692857Y-61925203D01*
X102676266Y-61935370D01*
X102483608Y-62033534D01*
X102465631Y-62040980D01*
X102259991Y-62107796D01*
X102241072Y-62112338D01*
X102026307Y-62146355D01*
X102009340Y-62147858D01*
X101901227Y-62149979D01*
X101898795Y-62150003D01*
X101650000Y-62150003D01*
X101541915Y-62152649D01*
X101541910Y-62152649D01*
X101323935Y-62196009D01*
X101323860Y-62195635D01*
X101294443Y-62200000D01*
X98705589Y-62200000D01*
X98676140Y-62195631D01*
X98676067Y-62196000D01*
X98458093Y-62152641D01*
X98458087Y-62152640D01*
X98350000Y-62149991D01*
X98101167Y-62149991D01*
X98098867Y-62149970D01*
X97990716Y-62147964D01*
X97973618Y-62146458D01*
X97758902Y-62112450D01*
X97739982Y-62107908D01*
X97534323Y-62041086D01*
X97516346Y-62033640D01*
X97323671Y-61935466D01*
X97307080Y-61925299D01*
X97132137Y-61798195D01*
X97117341Y-61785558D01*
X96964432Y-61632648D01*
X96951796Y-61617852D01*
X96824695Y-61442911D01*
X96814528Y-61426320D01*
X96716357Y-61233647D01*
X96708911Y-61215671D01*
X96642088Y-61010009D01*
X96637545Y-60991088D01*
X96603539Y-60776371D01*
X96602034Y-60759278D01*
X96600024Y-60651120D01*
X96600003Y-60648816D01*
X96600003Y-57624000D01*
X96619688Y-57556961D01*
X96672492Y-57511206D01*
X96724003Y-57500000D01*
X103276000Y-57500000D01*
X103343039Y-57519685D01*
G37*
G36*
X80651227Y-76600024D02*
G01*
X80759337Y-76602141D01*
X80776308Y-76603644D01*
X80991072Y-76637661D01*
X81009991Y-76642203D01*
X81215631Y-76709019D01*
X81233608Y-76716465D01*
X81426266Y-76814629D01*
X81442857Y-76824796D01*
X81617788Y-76951892D01*
X81632583Y-76964529D01*
X81785470Y-77117416D01*
X81798107Y-77132211D01*
X81925203Y-77307142D01*
X81935370Y-77323733D01*
X82033534Y-77516391D01*
X82040980Y-77534368D01*
X82107796Y-77740008D01*
X82112338Y-77758927D01*
X82146355Y-77973692D01*
X82147858Y-77990659D01*
X82149979Y-78098773D01*
X82150003Y-78101205D01*
X82150003Y-78350000D01*
X82152649Y-78458084D01*
X82152649Y-78458089D01*
X82196009Y-78676065D01*
X82195634Y-78676139D01*
X82200000Y-78705556D01*
X82200000Y-81294410D01*
X82195631Y-81323859D01*
X82196000Y-81323933D01*
X82152641Y-81541906D01*
X82152640Y-81541912D01*
X82149991Y-81650000D01*
X82149991Y-81898833D01*
X82149970Y-81901133D01*
X82147964Y-82009283D01*
X82146458Y-82026381D01*
X82112450Y-82241097D01*
X82107908Y-82260017D01*
X82041086Y-82465676D01*
X82033640Y-82483653D01*
X81935466Y-82676328D01*
X81925299Y-82692919D01*
X81798195Y-82867862D01*
X81785558Y-82882658D01*
X81632648Y-83035567D01*
X81617852Y-83048203D01*
X81442911Y-83175304D01*
X81426320Y-83185471D01*
X81233647Y-83283642D01*
X81215671Y-83291088D01*
X81010009Y-83357911D01*
X80991088Y-83362454D01*
X80776371Y-83396460D01*
X80759279Y-83397965D01*
X80651122Y-83399976D01*
X80648817Y-83399997D01*
X77624000Y-83399997D01*
X77556961Y-83380312D01*
X77511206Y-83327508D01*
X77500000Y-83275997D01*
X77500000Y-76724000D01*
X77519685Y-76656961D01*
X77572489Y-76611206D01*
X77624000Y-76600000D01*
X80648799Y-76600000D01*
X80651227Y-76600024D01*
G37*
G36*
X167443039Y-76619688D02*
G01*
X167488794Y-76672492D01*
X167500000Y-76724003D01*
X167500000Y-83276000D01*
X167480315Y-83343039D01*
X167427511Y-83388794D01*
X167376000Y-83400000D01*
X164351201Y-83400000D01*
X164348772Y-83399976D01*
X164240661Y-83397858D01*
X164223691Y-83396355D01*
X164008927Y-83362338D01*
X163990008Y-83357796D01*
X163784368Y-83290980D01*
X163766391Y-83283534D01*
X163573733Y-83185370D01*
X163557142Y-83175203D01*
X163382211Y-83048107D01*
X163367416Y-83035470D01*
X163214529Y-82882583D01*
X163201892Y-82867788D01*
X163074796Y-82692857D01*
X163064629Y-82676266D01*
X162966465Y-82483608D01*
X162959019Y-82465631D01*
X162892203Y-82259991D01*
X162887661Y-82241072D01*
X162853644Y-82026307D01*
X162852141Y-82009339D01*
X162850021Y-81901225D01*
X162849997Y-81898794D01*
X162849997Y-81649999D01*
X162847350Y-81541915D01*
X162847350Y-81541910D01*
X162803991Y-81323936D01*
X162804362Y-81323862D01*
X162800000Y-81294442D01*
X162800000Y-78705589D01*
X162804369Y-78676141D01*
X162804000Y-78676068D01*
X162847358Y-78458093D01*
X162847359Y-78458087D01*
X162850009Y-78349999D01*
X162850009Y-78101166D01*
X162850030Y-78098868D01*
X162852035Y-77990718D01*
X162853541Y-77973618D01*
X162887549Y-77758902D01*
X162892091Y-77739982D01*
X162958913Y-77534323D01*
X162966359Y-77516346D01*
X163064533Y-77323671D01*
X163074700Y-77307080D01*
X163201804Y-77132137D01*
X163214441Y-77117341D01*
X163367351Y-76964432D01*
X163382147Y-76951796D01*
X163557088Y-76824695D01*
X163573679Y-76814528D01*
X163766352Y-76716357D01*
X163784328Y-76708911D01*
X163989990Y-76642088D01*
X164008911Y-76637545D01*
X164223628Y-76603539D01*
X164240721Y-76602034D01*
X164348879Y-76600024D01*
X164351183Y-76600003D01*
X167376000Y-76600003D01*
X167443039Y-76619688D01*
G37*
G36*
X80651227Y-91600024D02*
G01*
X80759337Y-91602141D01*
X80776308Y-91603644D01*
X80991072Y-91637661D01*
X81009991Y-91642203D01*
X81215631Y-91709019D01*
X81233608Y-91716465D01*
X81426266Y-91814629D01*
X81442857Y-91824796D01*
X81617788Y-91951892D01*
X81632583Y-91964529D01*
X81785470Y-92117416D01*
X81798107Y-92132211D01*
X81925203Y-92307142D01*
X81935370Y-92323733D01*
X82033534Y-92516391D01*
X82040980Y-92534368D01*
X82107796Y-92740008D01*
X82112338Y-92758927D01*
X82146355Y-92973692D01*
X82147858Y-92990659D01*
X82149979Y-93098773D01*
X82150003Y-93101205D01*
X82150003Y-93350000D01*
X82152649Y-93458084D01*
X82152649Y-93458089D01*
X82196009Y-93676065D01*
X82195634Y-93676139D01*
X82200000Y-93705556D01*
X82200000Y-96294410D01*
X82195631Y-96323859D01*
X82196000Y-96323933D01*
X82152641Y-96541906D01*
X82152640Y-96541912D01*
X82149991Y-96650000D01*
X82149991Y-96898833D01*
X82149970Y-96901133D01*
X82147964Y-97009283D01*
X82146458Y-97026381D01*
X82112450Y-97241097D01*
X82107908Y-97260017D01*
X82041086Y-97465676D01*
X82033640Y-97483653D01*
X81935466Y-97676328D01*
X81925299Y-97692919D01*
X81798195Y-97867862D01*
X81785558Y-97882658D01*
X81632648Y-98035567D01*
X81617852Y-98048203D01*
X81442911Y-98175304D01*
X81426320Y-98185471D01*
X81233647Y-98283642D01*
X81215671Y-98291088D01*
X81010009Y-98357911D01*
X80991088Y-98362454D01*
X80776371Y-98396460D01*
X80759279Y-98397965D01*
X80651122Y-98399976D01*
X80648817Y-98399997D01*
X77624000Y-98399997D01*
X77556961Y-98380312D01*
X77511206Y-98327508D01*
X77500000Y-98275997D01*
X77500000Y-91724000D01*
X77519685Y-91656961D01*
X77572489Y-91611206D01*
X77624000Y-91600000D01*
X80648799Y-91600000D01*
X80651227Y-91600024D01*
G37*
G36*
X167443039Y-91619688D02*
G01*
X167488794Y-91672492D01*
X167500000Y-91724003D01*
X167500000Y-98276000D01*
X167480315Y-98343039D01*
X167427511Y-98388794D01*
X167376000Y-98400000D01*
X164351201Y-98400000D01*
X164348772Y-98399976D01*
X164240661Y-98397858D01*
X164223691Y-98396355D01*
X164008927Y-98362338D01*
X163990008Y-98357796D01*
X163784368Y-98290980D01*
X163766391Y-98283534D01*
X163573733Y-98185370D01*
X163557142Y-98175203D01*
X163382211Y-98048107D01*
X163367416Y-98035470D01*
X163214529Y-97882583D01*
X163201892Y-97867788D01*
X163074796Y-97692857D01*
X163064629Y-97676266D01*
X162966465Y-97483608D01*
X162959019Y-97465631D01*
X162892203Y-97259991D01*
X162887661Y-97241072D01*
X162853644Y-97026307D01*
X162852141Y-97009339D01*
X162850021Y-96901225D01*
X162849997Y-96898794D01*
X162849997Y-96649999D01*
X162847350Y-96541915D01*
X162847350Y-96541910D01*
X162803991Y-96323936D01*
X162804362Y-96323862D01*
X162800000Y-96294442D01*
X162800000Y-93705589D01*
X162804369Y-93676141D01*
X162804000Y-93676068D01*
X162847358Y-93458093D01*
X162847359Y-93458087D01*
X162850009Y-93349999D01*
X162850009Y-93101166D01*
X162850030Y-93098868D01*
X162852035Y-92990718D01*
X162853541Y-92973618D01*
X162887549Y-92758902D01*
X162892091Y-92739982D01*
X162958913Y-92534323D01*
X162966359Y-92516346D01*
X163064533Y-92323671D01*
X163074700Y-92307080D01*
X163201804Y-92132137D01*
X163214441Y-92117341D01*
X163367351Y-91964432D01*
X163382147Y-91951796D01*
X163557088Y-91824695D01*
X163573679Y-91814528D01*
X163766352Y-91716357D01*
X163784328Y-91708911D01*
X163989990Y-91642088D01*
X164008911Y-91637545D01*
X164223628Y-91603539D01*
X164240721Y-91602034D01*
X164348879Y-91600024D01*
X164351183Y-91600003D01*
X167376000Y-91600003D01*
X167443039Y-91619688D01*
G37*
G36*
X167443039Y-106619688D02*
G01*
X167488794Y-106672492D01*
X167500000Y-106724003D01*
X167500000Y-113276000D01*
X167480315Y-113343039D01*
X167427511Y-113388794D01*
X167376000Y-113400000D01*
X164351201Y-113400000D01*
X164348772Y-113399976D01*
X164240661Y-113397858D01*
X164223691Y-113396355D01*
X164008927Y-113362338D01*
X163990008Y-113357796D01*
X163784368Y-113290980D01*
X163766391Y-113283534D01*
X163573733Y-113185370D01*
X163557142Y-113175203D01*
X163382211Y-113048107D01*
X163367416Y-113035470D01*
X163214529Y-112882583D01*
X163201892Y-112867788D01*
X163074796Y-112692857D01*
X163064629Y-112676266D01*
X162966465Y-112483608D01*
X162959019Y-112465631D01*
X162892203Y-112259991D01*
X162887661Y-112241072D01*
X162853644Y-112026307D01*
X162852141Y-112009339D01*
X162850021Y-111901225D01*
X162849997Y-111898794D01*
X162849997Y-111649999D01*
X162847350Y-111541915D01*
X162847350Y-111541910D01*
X162803991Y-111323936D01*
X162804362Y-111323862D01*
X162800000Y-111294442D01*
X162800000Y-108705589D01*
X162804369Y-108676141D01*
X162804000Y-108676068D01*
X162847358Y-108458093D01*
X162847359Y-108458087D01*
X162850009Y-108349999D01*
X162850009Y-108101166D01*
X162850030Y-108098868D01*
X162852035Y-107990718D01*
X162853541Y-107973618D01*
X162887549Y-107758902D01*
X162892091Y-107739982D01*
X162958913Y-107534323D01*
X162966359Y-107516346D01*
X163064533Y-107323671D01*
X163074700Y-107307080D01*
X163201804Y-107132137D01*
X163214441Y-107117341D01*
X163367351Y-106964432D01*
X163382147Y-106951796D01*
X163557088Y-106824695D01*
X163573679Y-106814528D01*
X163766352Y-106716357D01*
X163784328Y-106708911D01*
X163989990Y-106642088D01*
X164008911Y-106637545D01*
X164223628Y-106603539D01*
X164240721Y-106602034D01*
X164348879Y-106600024D01*
X164351183Y-106600003D01*
X167376000Y-106600003D01*
X167443039Y-106619688D01*
G37*
G36*
X80651202Y-106600029D02*
G01*
X80759346Y-106602130D01*
X80776335Y-106603634D01*
X80991086Y-106637648D01*
X81010007Y-106642190D01*
X81215653Y-106709011D01*
X81233630Y-106716458D01*
X81426282Y-106814622D01*
X81442872Y-106824788D01*
X81617805Y-106951886D01*
X81632601Y-106964524D01*
X81785491Y-107117417D01*
X81798127Y-107132212D01*
X81925220Y-107307142D01*
X81935387Y-107323733D01*
X82033550Y-107516391D01*
X82040996Y-107534367D01*
X82107814Y-107740012D01*
X82112356Y-107758933D01*
X82146370Y-107973698D01*
X82147873Y-107990664D01*
X82149993Y-108098776D01*
X82150017Y-108101214D01*
X82150003Y-108349999D01*
X82152649Y-108458084D01*
X82152649Y-108458089D01*
X82196009Y-108676065D01*
X82195634Y-108676139D01*
X82200000Y-108705556D01*
X82200000Y-111294463D01*
X82195640Y-111323865D01*
X82196014Y-111323940D01*
X82152656Y-111541908D01*
X82152655Y-111541921D01*
X82150006Y-111650006D01*
X82150006Y-111898791D01*
X82149982Y-111901228D01*
X82147857Y-112009346D01*
X82146354Y-112026307D01*
X82112339Y-112241071D01*
X82107797Y-112259992D01*
X82040978Y-112465636D01*
X82033532Y-112483612D01*
X81935367Y-112676270D01*
X81925200Y-112692860D01*
X81798110Y-112867785D01*
X81785473Y-112882581D01*
X81632581Y-113035473D01*
X81617785Y-113048110D01*
X81442860Y-113175200D01*
X81426270Y-113185367D01*
X81233612Y-113283532D01*
X81215636Y-113290978D01*
X81009992Y-113357797D01*
X80991071Y-113362339D01*
X80776308Y-113396354D01*
X80759343Y-113397857D01*
X80651229Y-113399979D01*
X80648796Y-113400003D01*
X77624000Y-113400003D01*
X77556961Y-113380318D01*
X77511206Y-113327514D01*
X77500000Y-113276003D01*
X77500000Y-106724006D01*
X77519685Y-106656967D01*
X77572489Y-106611212D01*
X77624000Y-106600006D01*
X80648793Y-106600006D01*
X80651202Y-106600029D01*
G37*
G36*
X80651227Y-121600024D02*
G01*
X80759337Y-121602141D01*
X80776308Y-121603644D01*
X80991072Y-121637661D01*
X81009991Y-121642203D01*
X81215631Y-121709019D01*
X81233608Y-121716465D01*
X81426266Y-121814629D01*
X81442857Y-121824796D01*
X81617788Y-121951892D01*
X81632583Y-121964529D01*
X81785470Y-122117416D01*
X81798107Y-122132211D01*
X81925203Y-122307142D01*
X81935370Y-122323733D01*
X82033534Y-122516391D01*
X82040980Y-122534368D01*
X82107796Y-122740008D01*
X82112338Y-122758927D01*
X82146355Y-122973692D01*
X82147858Y-122990659D01*
X82149979Y-123098773D01*
X82150003Y-123101205D01*
X82150003Y-123350000D01*
X82152649Y-123458084D01*
X82152649Y-123458089D01*
X82196009Y-123676065D01*
X82195634Y-123676139D01*
X82200000Y-123705556D01*
X82200000Y-126294410D01*
X82195631Y-126323859D01*
X82196000Y-126323933D01*
X82152641Y-126541906D01*
X82152640Y-126541912D01*
X82149991Y-126650000D01*
X82149991Y-126898833D01*
X82149970Y-126901133D01*
X82147964Y-127009283D01*
X82146458Y-127026381D01*
X82112450Y-127241097D01*
X82107908Y-127260017D01*
X82041086Y-127465676D01*
X82033640Y-127483653D01*
X81935466Y-127676328D01*
X81925299Y-127692919D01*
X81798195Y-127867862D01*
X81785558Y-127882658D01*
X81632648Y-128035567D01*
X81617852Y-128048203D01*
X81442911Y-128175304D01*
X81426320Y-128185471D01*
X81233647Y-128283642D01*
X81215671Y-128291088D01*
X81010009Y-128357911D01*
X80991088Y-128362454D01*
X80776371Y-128396460D01*
X80759279Y-128397965D01*
X80651122Y-128399976D01*
X80648817Y-128399997D01*
X77624000Y-128399997D01*
X77556961Y-128380312D01*
X77511206Y-128327508D01*
X77500000Y-128275997D01*
X77500000Y-121724000D01*
X77519685Y-121656961D01*
X77572489Y-121611206D01*
X77624000Y-121600000D01*
X80648799Y-121600000D01*
X80651227Y-121600024D01*
G37*
G36*
X167443039Y-121619688D02*
G01*
X167488794Y-121672492D01*
X167500000Y-121724003D01*
X167500000Y-128276000D01*
X167480315Y-128343039D01*
X167427511Y-128388794D01*
X167376000Y-128400000D01*
X164351201Y-128400000D01*
X164348772Y-128399976D01*
X164240661Y-128397858D01*
X164223691Y-128396355D01*
X164008927Y-128362338D01*
X163990008Y-128357796D01*
X163784368Y-128290980D01*
X163766391Y-128283534D01*
X163573733Y-128185370D01*
X163557142Y-128175203D01*
X163382211Y-128048107D01*
X163367416Y-128035470D01*
X163214529Y-127882583D01*
X163201892Y-127867788D01*
X163074796Y-127692857D01*
X163064629Y-127676266D01*
X162966465Y-127483608D01*
X162959019Y-127465631D01*
X162892203Y-127259991D01*
X162887661Y-127241072D01*
X162853644Y-127026307D01*
X162852141Y-127009339D01*
X162850021Y-126901225D01*
X162849997Y-126898794D01*
X162849997Y-126649999D01*
X162847350Y-126541915D01*
X162847350Y-126541910D01*
X162803991Y-126323936D01*
X162804362Y-126323862D01*
X162800000Y-126294442D01*
X162800000Y-123705589D01*
X162804369Y-123676141D01*
X162804000Y-123676068D01*
X162847358Y-123458093D01*
X162847359Y-123458087D01*
X162850009Y-123349999D01*
X162850009Y-123101166D01*
X162850030Y-123098868D01*
X162852035Y-122990718D01*
X162853541Y-122973618D01*
X162887549Y-122758902D01*
X162892091Y-122739982D01*
X162958913Y-122534323D01*
X162966359Y-122516346D01*
X163064533Y-122323671D01*
X163074700Y-122307080D01*
X163201804Y-122132137D01*
X163214441Y-122117341D01*
X163367351Y-121964432D01*
X163382147Y-121951796D01*
X163557088Y-121824695D01*
X163573679Y-121814528D01*
X163766352Y-121716357D01*
X163784328Y-121708911D01*
X163989990Y-121642088D01*
X164008911Y-121637545D01*
X164223628Y-121603539D01*
X164240721Y-121602034D01*
X164348879Y-121600024D01*
X164351183Y-121600003D01*
X167376000Y-121600003D01*
X167443039Y-121619688D01*
G37*
G36*
X146323859Y-142804368D02*
G01*
X146323933Y-142804000D01*
X146541906Y-142847358D01*
X146541912Y-142847359D01*
X146650000Y-142850009D01*
X146898833Y-142850009D01*
X146901131Y-142850030D01*
X147009281Y-142852035D01*
X147026381Y-142853541D01*
X147241097Y-142887549D01*
X147260017Y-142892091D01*
X147465676Y-142958913D01*
X147483653Y-142966359D01*
X147676328Y-143064533D01*
X147692919Y-143074700D01*
X147867862Y-143201804D01*
X147882658Y-143214441D01*
X148035567Y-143367351D01*
X148048203Y-143382147D01*
X148175304Y-143557088D01*
X148185471Y-143573679D01*
X148283642Y-143766352D01*
X148291088Y-143784328D01*
X148357911Y-143989990D01*
X148362454Y-144008911D01*
X148396460Y-144223628D01*
X148397965Y-144240720D01*
X148399976Y-144348878D01*
X148399997Y-144351183D01*
X148399997Y-147376000D01*
X148380312Y-147443039D01*
X148327508Y-147488794D01*
X148275997Y-147500000D01*
X141724000Y-147500000D01*
X141656961Y-147480315D01*
X141611206Y-147427511D01*
X141600000Y-147376000D01*
X141600000Y-144351200D01*
X141600024Y-144348772D01*
X141602141Y-144240662D01*
X141603644Y-144223691D01*
X141637661Y-144008927D01*
X141642203Y-143990008D01*
X141709019Y-143784368D01*
X141716465Y-143766391D01*
X141814629Y-143573733D01*
X141824796Y-143557142D01*
X141951892Y-143382211D01*
X141964529Y-143367416D01*
X142117416Y-143214529D01*
X142132211Y-143201892D01*
X142307142Y-143074796D01*
X142323733Y-143064629D01*
X142516391Y-142966465D01*
X142534368Y-142959019D01*
X142740008Y-142892203D01*
X142758927Y-142887661D01*
X142973692Y-142853644D01*
X142990660Y-142852141D01*
X143098774Y-142850021D01*
X143101205Y-142849997D01*
X143350000Y-142849997D01*
X143458084Y-142847350D01*
X143458089Y-142847350D01*
X143676065Y-142803991D01*
X143676139Y-142804364D01*
X143705557Y-142800000D01*
X146294411Y-142800000D01*
X146323859Y-142804368D01*
G37*
G36*
X131323859Y-142804368D02*
G01*
X131323933Y-142804000D01*
X131541906Y-142847358D01*
X131541912Y-142847359D01*
X131650000Y-142850009D01*
X131898833Y-142850009D01*
X131901131Y-142850030D01*
X132009281Y-142852035D01*
X132026381Y-142853541D01*
X132241097Y-142887549D01*
X132260017Y-142892091D01*
X132465676Y-142958913D01*
X132483653Y-142966359D01*
X132676328Y-143064533D01*
X132692919Y-143074700D01*
X132867862Y-143201804D01*
X132882658Y-143214441D01*
X133035567Y-143367351D01*
X133048203Y-143382147D01*
X133175304Y-143557088D01*
X133185471Y-143573679D01*
X133283642Y-143766352D01*
X133291088Y-143784328D01*
X133357911Y-143989990D01*
X133362454Y-144008911D01*
X133396460Y-144223628D01*
X133397965Y-144240720D01*
X133399976Y-144348878D01*
X133399997Y-144351183D01*
X133399997Y-147376000D01*
X133380312Y-147443039D01*
X133327508Y-147488794D01*
X133275997Y-147500000D01*
X126724000Y-147500000D01*
X126656961Y-147480315D01*
X126611206Y-147427511D01*
X126600000Y-147376000D01*
X126600000Y-144351200D01*
X126600024Y-144348772D01*
X126602141Y-144240662D01*
X126603644Y-144223691D01*
X126637661Y-144008927D01*
X126642203Y-143990008D01*
X126709019Y-143784368D01*
X126716465Y-143766391D01*
X126814629Y-143573733D01*
X126824796Y-143557142D01*
X126951892Y-143382211D01*
X126964529Y-143367416D01*
X127117416Y-143214529D01*
X127132211Y-143201892D01*
X127307142Y-143074796D01*
X127323733Y-143064629D01*
X127516391Y-142966465D01*
X127534368Y-142959019D01*
X127740008Y-142892203D01*
X127758927Y-142887661D01*
X127973692Y-142853644D01*
X127990660Y-142852141D01*
X128098774Y-142850021D01*
X128101205Y-142849997D01*
X128350000Y-142849997D01*
X128458084Y-142847350D01*
X128458089Y-142847350D01*
X128676065Y-142803991D01*
X128676139Y-142804364D01*
X128705557Y-142800000D01*
X131294411Y-142800000D01*
X131323859Y-142804368D01*
G37*
G36*
X116323859Y-142804368D02*
G01*
X116323933Y-142804000D01*
X116541906Y-142847358D01*
X116541912Y-142847359D01*
X116650000Y-142850009D01*
X116898833Y-142850009D01*
X116901131Y-142850030D01*
X117009281Y-142852035D01*
X117026381Y-142853541D01*
X117241097Y-142887549D01*
X117260017Y-142892091D01*
X117465676Y-142958913D01*
X117483653Y-142966359D01*
X117676328Y-143064533D01*
X117692919Y-143074700D01*
X117867862Y-143201804D01*
X117882658Y-143214441D01*
X118035567Y-143367351D01*
X118048203Y-143382147D01*
X118175304Y-143557088D01*
X118185471Y-143573679D01*
X118283642Y-143766352D01*
X118291088Y-143784328D01*
X118357911Y-143989990D01*
X118362454Y-144008911D01*
X118396460Y-144223628D01*
X118397965Y-144240720D01*
X118399976Y-144348878D01*
X118399997Y-144351183D01*
X118399997Y-147376000D01*
X118380312Y-147443039D01*
X118327508Y-147488794D01*
X118275997Y-147500000D01*
X111724000Y-147500000D01*
X111656961Y-147480315D01*
X111611206Y-147427511D01*
X111600000Y-147376000D01*
X111600000Y-144351200D01*
X111600024Y-144348772D01*
X111602141Y-144240662D01*
X111603644Y-144223691D01*
X111637661Y-144008927D01*
X111642203Y-143990008D01*
X111709019Y-143784368D01*
X111716465Y-143766391D01*
X111814629Y-143573733D01*
X111824796Y-143557142D01*
X111951892Y-143382211D01*
X111964529Y-143367416D01*
X112117416Y-143214529D01*
X112132211Y-143201892D01*
X112307142Y-143074796D01*
X112323733Y-143064629D01*
X112516391Y-142966465D01*
X112534368Y-142959019D01*
X112740008Y-142892203D01*
X112758927Y-142887661D01*
X112973692Y-142853644D01*
X112990660Y-142852141D01*
X113098774Y-142850021D01*
X113101205Y-142849997D01*
X113350000Y-142849997D01*
X113458084Y-142847350D01*
X113458089Y-142847350D01*
X113676065Y-142803991D01*
X113676139Y-142804364D01*
X113705557Y-142800000D01*
X116294411Y-142800000D01*
X116323859Y-142804368D01*
G37*
G36*
X101323859Y-142804368D02*
G01*
X101323933Y-142804000D01*
X101541906Y-142847358D01*
X101541912Y-142847359D01*
X101650000Y-142850009D01*
X101898833Y-142850009D01*
X101901131Y-142850030D01*
X102009281Y-142852035D01*
X102026381Y-142853541D01*
X102241097Y-142887549D01*
X102260017Y-142892091D01*
X102465676Y-142958913D01*
X102483653Y-142966359D01*
X102676328Y-143064533D01*
X102692919Y-143074700D01*
X102867862Y-143201804D01*
X102882658Y-143214441D01*
X103035567Y-143367351D01*
X103048203Y-143382147D01*
X103175304Y-143557088D01*
X103185471Y-143573679D01*
X103283642Y-143766352D01*
X103291088Y-143784328D01*
X103357911Y-143989990D01*
X103362454Y-144008911D01*
X103396460Y-144223628D01*
X103397965Y-144240720D01*
X103399976Y-144348878D01*
X103399997Y-144351183D01*
X103399997Y-147376000D01*
X103380312Y-147443039D01*
X103327508Y-147488794D01*
X103275997Y-147500000D01*
X96724000Y-147500000D01*
X96656961Y-147480315D01*
X96611206Y-147427511D01*
X96600000Y-147376000D01*
X96600000Y-144351200D01*
X96600024Y-144348772D01*
X96602141Y-144240662D01*
X96603644Y-144223691D01*
X96637661Y-144008927D01*
X96642203Y-143990008D01*
X96709019Y-143784368D01*
X96716465Y-143766391D01*
X96814629Y-143573733D01*
X96824796Y-143557142D01*
X96951892Y-143382211D01*
X96964529Y-143367416D01*
X97117416Y-143214529D01*
X97132211Y-143201892D01*
X97307142Y-143074796D01*
X97323733Y-143064629D01*
X97516391Y-142966465D01*
X97534368Y-142959019D01*
X97740008Y-142892203D01*
X97758927Y-142887661D01*
X97973692Y-142853644D01*
X97990660Y-142852141D01*
X98098774Y-142850021D01*
X98101205Y-142849997D01*
X98350000Y-142849997D01*
X98458084Y-142847350D01*
X98458089Y-142847350D01*
X98676065Y-142803991D01*
X98676139Y-142804364D01*
X98705557Y-142800000D01*
X101294411Y-142800000D01*
X101323859Y-142804368D01*
G37*
G36*
X176000856Y-46000012D02*
G01*
X176162256Y-46002274D01*
X176174402Y-46003042D01*
X176495992Y-46039277D01*
X176509700Y-46041606D01*
X176824366Y-46113426D01*
X176837729Y-46117275D01*
X177142386Y-46223879D01*
X177155233Y-46229201D01*
X177446025Y-46369239D01*
X177458195Y-46375965D01*
X177731486Y-46547685D01*
X177742827Y-46555732D01*
X177995173Y-46756971D01*
X178005541Y-46766237D01*
X178233762Y-46994458D01*
X178243028Y-47004826D01*
X178444267Y-47257172D01*
X178452314Y-47268513D01*
X178624034Y-47541804D01*
X178630760Y-47553974D01*
X178770798Y-47844766D01*
X178776120Y-47857613D01*
X178882724Y-48162270D01*
X178886573Y-48175633D01*
X178958393Y-48490299D01*
X178960722Y-48504007D01*
X178996957Y-48825597D01*
X178997725Y-48837743D01*
X178999988Y-48999144D01*
X179000000Y-49000882D01*
X179000000Y-155999117D01*
X178999988Y-156000855D01*
X178997725Y-156162256D01*
X178996957Y-156174402D01*
X178960722Y-156495992D01*
X178958393Y-156509700D01*
X178886573Y-156824366D01*
X178882724Y-156837729D01*
X178776120Y-157142386D01*
X178770798Y-157155233D01*
X178630760Y-157446025D01*
X178624034Y-157458195D01*
X178452314Y-157731486D01*
X178444267Y-157742827D01*
X178243028Y-157995173D01*
X178233762Y-158005541D01*
X178005541Y-158233762D01*
X177995173Y-158243028D01*
X177742827Y-158444267D01*
X177731486Y-158452314D01*
X177458195Y-158624034D01*
X177446025Y-158630760D01*
X177155233Y-158770798D01*
X177142386Y-158776120D01*
X176837729Y-158882724D01*
X176824366Y-158886573D01*
X176509700Y-158958393D01*
X176495992Y-158960722D01*
X176174402Y-158996957D01*
X176162256Y-158997725D01*
X176000856Y-158999988D01*
X175999118Y-159000000D01*
X69000882Y-159000000D01*
X68999144Y-158999988D01*
X68837743Y-158997725D01*
X68825597Y-158996957D01*
X68504007Y-158960722D01*
X68490299Y-158958393D01*
X68175633Y-158886573D01*
X68162270Y-158882724D01*
X67857613Y-158776120D01*
X67844766Y-158770798D01*
X67553974Y-158630760D01*
X67541804Y-158624034D01*
X67268513Y-158452314D01*
X67257172Y-158444267D01*
X67004826Y-158243028D01*
X66994458Y-158233762D01*
X66766237Y-158005541D01*
X66756971Y-157995173D01*
X66555732Y-157742827D01*
X66547685Y-157731486D01*
X66375965Y-157458195D01*
X66369239Y-157446025D01*
X66229201Y-157155233D01*
X66223879Y-157142386D01*
X66117275Y-156837729D01*
X66113426Y-156824366D01*
X66041606Y-156509700D01*
X66039277Y-156495992D01*
X66003042Y-156174402D01*
X66002274Y-156162256D01*
X66000012Y-156000855D01*
X66000006Y-156000000D01*
X67997422Y-156000000D01*
X68017943Y-156201819D01*
X68078669Y-156395364D01*
X68078676Y-156395379D01*
X68177118Y-156572738D01*
X68177121Y-156572743D01*
X68309255Y-156726660D01*
X68309256Y-156726662D01*
X68469668Y-156850829D01*
X68651798Y-156940169D01*
X68848182Y-156991016D01*
X68848179Y-156991016D01*
X69050780Y-157001291D01*
X69050782Y-157001291D01*
X69251294Y-156970573D01*
X69251300Y-156970572D01*
X69441522Y-156900122D01*
X69441529Y-156900119D01*
X69613685Y-156792813D01*
X69760715Y-156653051D01*
X69876600Y-156486554D01*
X69956600Y-156300133D01*
X69997435Y-156101424D01*
X70000000Y-156000014D01*
X70000000Y-156000000D01*
X174997422Y-156000000D01*
X175017943Y-156201819D01*
X175078669Y-156395364D01*
X175078676Y-156395379D01*
X175177118Y-156572738D01*
X175177121Y-156572743D01*
X175309255Y-156726660D01*
X175309256Y-156726662D01*
X175469668Y-156850829D01*
X175651798Y-156940169D01*
X175848182Y-156991016D01*
X175848179Y-156991016D01*
X176050780Y-157001291D01*
X176050782Y-157001291D01*
X176251294Y-156970573D01*
X176251300Y-156970572D01*
X176441522Y-156900122D01*
X176441529Y-156900119D01*
X176613685Y-156792813D01*
X176760715Y-156653051D01*
X176876600Y-156486554D01*
X176956600Y-156300133D01*
X176997435Y-156101424D01*
X177000000Y-156000014D01*
X177000000Y-155999985D01*
X176997435Y-155898575D01*
X176956600Y-155699866D01*
X176876600Y-155513445D01*
X176760715Y-155346948D01*
X176613685Y-155207186D01*
X176441529Y-155099880D01*
X176441522Y-155099877D01*
X176251300Y-155029427D01*
X176251294Y-155029426D01*
X176050781Y-154998708D01*
X175848181Y-155008983D01*
X175651798Y-155059830D01*
X175469668Y-155149170D01*
X175309256Y-155273337D01*
X175309255Y-155273339D01*
X175177121Y-155427256D01*
X175177118Y-155427261D01*
X175078676Y-155604620D01*
X175078669Y-155604635D01*
X175017943Y-155798180D01*
X174997422Y-156000000D01*
X70000000Y-156000000D01*
X70000000Y-155999985D01*
X69997435Y-155898575D01*
X69956600Y-155699866D01*
X69876600Y-155513445D01*
X69760715Y-155346948D01*
X69613685Y-155207186D01*
X69441529Y-155099880D01*
X69441522Y-155099877D01*
X69251300Y-155029427D01*
X69251294Y-155029426D01*
X69050781Y-154998708D01*
X68848181Y-155008983D01*
X68651798Y-155059830D01*
X68469668Y-155149170D01*
X68309256Y-155273337D01*
X68309255Y-155273339D01*
X68177121Y-155427256D01*
X68177118Y-155427261D01*
X68078676Y-155604620D01*
X68078669Y-155604635D01*
X68017943Y-155798180D01*
X67997422Y-156000000D01*
X66000006Y-156000000D01*
X66000000Y-155999117D01*
X66000000Y-84899342D01*
X74999989Y-84899342D01*
X75000000Y-89476258D01*
X75000000Y-99898224D01*
X74999989Y-99899342D01*
X75000000Y-102018519D01*
X75000000Y-129898223D01*
X74999989Y-129899341D01*
X74999999Y-147499987D01*
X75002562Y-147663687D01*
X75002562Y-147663700D01*
X75045293Y-147988262D01*
X75045295Y-147988273D01*
X75130025Y-148304494D01*
X75255307Y-148606951D01*
X75255311Y-148606961D01*
X75418996Y-148890474D01*
X75618302Y-149150213D01*
X75849790Y-149381701D01*
X75849796Y-149381706D01*
X76109511Y-149580992D01*
X76109526Y-149581002D01*
X76393038Y-149744688D01*
X76393047Y-149744692D01*
X76695497Y-149869971D01*
X77011731Y-149954706D01*
X77336304Y-149997437D01*
X77476338Y-149999627D01*
X77478136Y-150000000D01*
X104898225Y-150000000D01*
X104899345Y-150000010D01*
X109666666Y-150000000D01*
X119898225Y-150000000D01*
X119899345Y-150000010D01*
X124666666Y-150000000D01*
X134898225Y-150000000D01*
X134899345Y-150000010D01*
X139666666Y-150000000D01*
X149898224Y-150000000D01*
X149899344Y-150000010D01*
X167499999Y-150000000D01*
X167543423Y-150000000D01*
X167550223Y-149999213D01*
X167663688Y-149997437D01*
X167663700Y-149997437D01*
X167988262Y-149954706D01*
X167988273Y-149954704D01*
X168304494Y-149869974D01*
X168606951Y-149744692D01*
X168606961Y-149744688D01*
X168890474Y-149581003D01*
X169150213Y-149381697D01*
X169381701Y-149150209D01*
X169381706Y-149150203D01*
X169580992Y-148890488D01*
X169581002Y-148890473D01*
X169744688Y-148606961D01*
X169744692Y-148606952D01*
X169869971Y-148304502D01*
X169954706Y-147988268D01*
X169997437Y-147663701D01*
X169997437Y-147663689D01*
X169999714Y-147518164D01*
X170000000Y-147516785D01*
X170000000Y-120101778D01*
X170000010Y-120100657D01*
X170000000Y-115191800D01*
X170000000Y-105101778D01*
X170000010Y-105100657D01*
X170000000Y-100333334D01*
X170000000Y-90101778D01*
X170000010Y-90100657D01*
X170000000Y-85333334D01*
X170000000Y-75101778D01*
X170000010Y-75100657D01*
X170000000Y-57500012D01*
X169997437Y-57336312D01*
X169997437Y-57336299D01*
X169954706Y-57011737D01*
X169954704Y-57011726D01*
X169869974Y-56695505D01*
X169744692Y-56393048D01*
X169744688Y-56393038D01*
X169581003Y-56109525D01*
X169381697Y-55849786D01*
X169150209Y-55618298D01*
X169150203Y-55618293D01*
X168890488Y-55419007D01*
X168890473Y-55418997D01*
X168606961Y-55255311D01*
X168606952Y-55255307D01*
X168304502Y-55130028D01*
X167988268Y-55045293D01*
X167663695Y-55002562D01*
X167523657Y-55000371D01*
X167521865Y-55000000D01*
X140101775Y-55000000D01*
X140100654Y-54999989D01*
X135333334Y-55000000D01*
X125101775Y-55000000D01*
X125100654Y-54999989D01*
X120333334Y-55000000D01*
X110101775Y-55000000D01*
X110100654Y-54999989D01*
X105333334Y-55000000D01*
X95101776Y-55000000D01*
X95100655Y-54999989D01*
X77499973Y-54999999D01*
X77336322Y-55002675D01*
X77336305Y-55002677D01*
X77011754Y-55045405D01*
X76695538Y-55130135D01*
X76393098Y-55255410D01*
X76393088Y-55255414D01*
X76109584Y-55419095D01*
X75849868Y-55618382D01*
X75849861Y-55618388D01*
X75618388Y-55849861D01*
X75618382Y-55849868D01*
X75419095Y-56109584D01*
X75255414Y-56393088D01*
X75255410Y-56393098D01*
X75130135Y-56695538D01*
X75045405Y-57011754D01*
X75002677Y-57336305D01*
X75002675Y-57336322D01*
X75000000Y-57499973D01*
X75000000Y-84898224D01*
X74999989Y-84899342D01*
X66000000Y-84899342D01*
X66000000Y-49000882D01*
X66000006Y-49000000D01*
X67997422Y-49000000D01*
X68017943Y-49201819D01*
X68078669Y-49395364D01*
X68078676Y-49395379D01*
X68177118Y-49572738D01*
X68177121Y-49572743D01*
X68309255Y-49726660D01*
X68309256Y-49726662D01*
X68469668Y-49850829D01*
X68651798Y-49940169D01*
X68848182Y-49991016D01*
X68848179Y-49991016D01*
X69050780Y-50001291D01*
X69050782Y-50001291D01*
X69251294Y-49970573D01*
X69251300Y-49970572D01*
X69441522Y-49900122D01*
X69441529Y-49900119D01*
X69613685Y-49792813D01*
X69760715Y-49653051D01*
X69876600Y-49486554D01*
X69956600Y-49300133D01*
X69997435Y-49101424D01*
X70000000Y-49000014D01*
X70000000Y-49000000D01*
X174997422Y-49000000D01*
X175017943Y-49201819D01*
X175078669Y-49395364D01*
X175078676Y-49395379D01*
X175177118Y-49572738D01*
X175177121Y-49572743D01*
X175309255Y-49726660D01*
X175309256Y-49726662D01*
X175469668Y-49850829D01*
X175651798Y-49940169D01*
X175848182Y-49991016D01*
X175848179Y-49991016D01*
X176050780Y-50001291D01*
X176050782Y-50001291D01*
X176251294Y-49970573D01*
X176251300Y-49970572D01*
X176441522Y-49900122D01*
X176441529Y-49900119D01*
X176613685Y-49792813D01*
X176760715Y-49653051D01*
X176876600Y-49486554D01*
X176956600Y-49300133D01*
X176997435Y-49101424D01*
X177000000Y-49000014D01*
X177000000Y-48999985D01*
X176997435Y-48898575D01*
X176956600Y-48699866D01*
X176876600Y-48513445D01*
X176760715Y-48346948D01*
X176613685Y-48207186D01*
X176441529Y-48099880D01*
X176441522Y-48099877D01*
X176251300Y-48029427D01*
X176251294Y-48029426D01*
X176050781Y-47998708D01*
X175848181Y-48008983D01*
X175651798Y-48059830D01*
X175469668Y-48149170D01*
X175309256Y-48273337D01*
X175309255Y-48273339D01*
X175177121Y-48427256D01*
X175177118Y-48427261D01*
X175078676Y-48604620D01*
X175078669Y-48604635D01*
X175017943Y-48798180D01*
X174997422Y-49000000D01*
X70000000Y-49000000D01*
X70000000Y-48999985D01*
X69997435Y-48898575D01*
X69956600Y-48699866D01*
X69876600Y-48513445D01*
X69760715Y-48346948D01*
X69613685Y-48207186D01*
X69441529Y-48099880D01*
X69441522Y-48099877D01*
X69251300Y-48029427D01*
X69251294Y-48029426D01*
X69050781Y-47998708D01*
X68848181Y-48008983D01*
X68651798Y-48059830D01*
X68469668Y-48149170D01*
X68309256Y-48273337D01*
X68309255Y-48273339D01*
X68177121Y-48427256D01*
X68177118Y-48427261D01*
X68078676Y-48604620D01*
X68078669Y-48604635D01*
X68017943Y-48798180D01*
X67997422Y-49000000D01*
X66000006Y-49000000D01*
X66000012Y-48999144D01*
X66002274Y-48837743D01*
X66003042Y-48825597D01*
X66039277Y-48504007D01*
X66041606Y-48490299D01*
X66113426Y-48175633D01*
X66117275Y-48162270D01*
X66223879Y-47857613D01*
X66229201Y-47844766D01*
X66369239Y-47553974D01*
X66375965Y-47541804D01*
X66547685Y-47268513D01*
X66555732Y-47257172D01*
X66756971Y-47004826D01*
X66766237Y-46994458D01*
X66994458Y-46766237D01*
X67004826Y-46756971D01*
X67257172Y-46555732D01*
X67268513Y-46547685D01*
X67541804Y-46375965D01*
X67553974Y-46369239D01*
X67844766Y-46229201D01*
X67857613Y-46223879D01*
X68162270Y-46117275D01*
X68175633Y-46113426D01*
X68490299Y-46041606D01*
X68504007Y-46039277D01*
X68825597Y-46003042D01*
X68837743Y-46002274D01*
X68999144Y-46000012D01*
X69000882Y-46000000D01*
X175999118Y-46000000D01*
X176000856Y-46000012D01*
G37*
M02*
