%TF.GenerationSoftware,KiCad,Pcbnew,6.0.7-f9a2dced07~116~ubuntu22.04.1*%
%TF.CreationDate,2022-10-21T11:38:13+01:00*%
%TF.ProjectId,inskinacc,696e736b-696e-4616-9363-2e6b69636164,0.1*%
%TF.SameCoordinates,Original*%
%TF.FileFunction,Legend,Top*%
%TF.FilePolarity,Positive*%
%FSLAX46Y46*%
G04 Gerber Fmt 4.6, Leading zero omitted, Abs format (unit mm)*
G04 Created by KiCad (PCBNEW 6.0.7-f9a2dced07~116~ubuntu22.04.1) date 2022-10-21 11:38:13*
%MOMM*%
%LPD*%
G01*
G04 APERTURE LIST*
G04 Aperture macros list*
%AMRoundRect*
0 Rectangle with rounded corners*
0 $1 Rounding radius*
0 $2 $3 $4 $5 $6 $7 $8 $9 X,Y pos of 4 corners*
0 Add a 4 corners polygon primitive as box body*
4,1,4,$2,$3,$4,$5,$6,$7,$8,$9,$2,$3,0*
0 Add four circle primitives for the rounded corners*
1,1,$1+$1,$2,$3*
1,1,$1+$1,$4,$5*
1,1,$1+$1,$6,$7*
1,1,$1+$1,$8,$9*
0 Add four rect primitives between the rounded corners*
20,1,$1+$1,$2,$3,$4,$5,0*
20,1,$1+$1,$4,$5,$6,$7,0*
20,1,$1+$1,$6,$7,$8,$9,0*
20,1,$1+$1,$8,$9,$2,$3,0*%
G04 Aperture macros list end*
%ADD10C,0.152400*%
%ADD11C,0.200000*%
%ADD12C,0.100000*%
%ADD13C,0.120000*%
%ADD14RoundRect,0.075000X0.075000X-0.112500X0.075000X0.112500X-0.075000X0.112500X-0.075000X-0.112500X0*%
%ADD15R,0.330200X0.304800*%
%ADD16R,0.304800X0.330200*%
%ADD17R,1.000000X1.000000*%
%ADD18O,1.000000X1.000000*%
%ADD19C,2.200000*%
G04 APERTURE END LIST*
D10*
X141250000Y-96500000D02*
X143750000Y-96500000D01*
X145500000Y-92000000D02*
X146000000Y-92000000D01*
X143750000Y-99000000D02*
X141250000Y-99000000D01*
X141250000Y-99000000D02*
X141250000Y-96500000D01*
X140400000Y-92700000D02*
X141000000Y-92700000D01*
X143750000Y-96500000D02*
X143750000Y-99000000D01*
X140700000Y-93000000D02*
X140700000Y-92400000D01*
X150861295Y-92054895D02*
X150938704Y-92054895D01*
X151016114Y-92093600D01*
X151054819Y-92132304D01*
X151093523Y-92209714D01*
X151132228Y-92364533D01*
X151132228Y-92558057D01*
X151093523Y-92712876D01*
X151054819Y-92790285D01*
X151016114Y-92828990D01*
X150938704Y-92867695D01*
X150861295Y-92867695D01*
X150783885Y-92828990D01*
X150745180Y-92790285D01*
X150706476Y-92712876D01*
X150667771Y-92558057D01*
X150667771Y-92364533D01*
X150706476Y-92209714D01*
X150745180Y-92132304D01*
X150783885Y-92093600D01*
X150861295Y-92054895D01*
X149345180Y-92325828D02*
X149654819Y-92325828D01*
X149461295Y-92054895D02*
X149461295Y-92751580D01*
X149500000Y-92828990D01*
X149577409Y-92867695D01*
X149654819Y-92867695D01*
D11*
X144666666Y-96202380D02*
X144666666Y-95202380D01*
X144666666Y-95678571D02*
X145238095Y-95678571D01*
X145238095Y-96202380D02*
X145238095Y-95202380D01*
X146285714Y-96202380D02*
X145952380Y-95726190D01*
X145714285Y-96202380D02*
X145714285Y-95202380D01*
X146095238Y-95202380D01*
X146190476Y-95250000D01*
X146238095Y-95297619D01*
X146285714Y-95392857D01*
X146285714Y-95535714D01*
X146238095Y-95630952D01*
X146190476Y-95678571D01*
X146095238Y-95726190D01*
X145714285Y-95726190D01*
X147238095Y-95250000D02*
X147142857Y-95202380D01*
X147000000Y-95202380D01*
X146857142Y-95250000D01*
X146761904Y-95345238D01*
X146714285Y-95440476D01*
X146666666Y-95630952D01*
X146666666Y-95773809D01*
X146714285Y-95964285D01*
X146761904Y-96059523D01*
X146857142Y-96154761D01*
X147000000Y-96202380D01*
X147095238Y-96202380D01*
X147238095Y-96154761D01*
X147285714Y-96107142D01*
X147285714Y-95773809D01*
X147095238Y-95773809D01*
X148619047Y-96202380D02*
X148523809Y-96154761D01*
X148476190Y-96059523D01*
X148476190Y-95202380D01*
X149428571Y-96202380D02*
X149428571Y-95678571D01*
X149380952Y-95583333D01*
X149285714Y-95535714D01*
X149095238Y-95535714D01*
X149000000Y-95583333D01*
X149428571Y-96154761D02*
X149333333Y-96202380D01*
X149095238Y-96202380D01*
X149000000Y-96154761D01*
X148952380Y-96059523D01*
X148952380Y-95964285D01*
X149000000Y-95869047D01*
X149095238Y-95821428D01*
X149333333Y-95821428D01*
X149428571Y-95773809D01*
X149904761Y-96202380D02*
X149904761Y-95202380D01*
X149904761Y-95583333D02*
X150000000Y-95535714D01*
X150190476Y-95535714D01*
X150285714Y-95583333D01*
X150333333Y-95630952D01*
X150380952Y-95726190D01*
X150380952Y-96011904D01*
X150333333Y-96107142D01*
X150285714Y-96154761D01*
X150190476Y-96202380D01*
X150000000Y-96202380D01*
X149904761Y-96154761D01*
D10*
X142000000Y-92867695D02*
X142000000Y-92325828D01*
X142000000Y-92054895D02*
X141961295Y-92093600D01*
X142000000Y-92132304D01*
X142038704Y-92093600D01*
X142000000Y-92054895D01*
X142000000Y-92132304D01*
X147100076Y-92967695D02*
X147100076Y-92425828D01*
X147100076Y-92154895D02*
X147061371Y-92193600D01*
X147100076Y-92232304D01*
X147138780Y-92193600D01*
X147100076Y-92154895D01*
X147100076Y-92232304D01*
X147487123Y-92425828D02*
X147487123Y-92967695D01*
X147487123Y-92503238D02*
X147525828Y-92464533D01*
X147603238Y-92425828D01*
X147719352Y-92425828D01*
X147796761Y-92464533D01*
X147835466Y-92541942D01*
X147835466Y-92967695D01*
X148106400Y-92425828D02*
X148416038Y-92425828D01*
X148222514Y-92154895D02*
X148222514Y-92851580D01*
X148261219Y-92928990D01*
X148338628Y-92967695D01*
X148416038Y-92967695D01*
X144364533Y-92867695D02*
X144364533Y-92054895D01*
X144441942Y-92558057D02*
X144674171Y-92867695D01*
X144674171Y-92325828D02*
X144364533Y-92635466D01*
X143191942Y-92867695D02*
X143114533Y-92828990D01*
X143075828Y-92790285D01*
X143037123Y-92712876D01*
X143037123Y-92480647D01*
X143075828Y-92403238D01*
X143114533Y-92364533D01*
X143191942Y-92325828D01*
X143308057Y-92325828D01*
X143385466Y-92364533D01*
X143424171Y-92403238D01*
X143462876Y-92480647D01*
X143462876Y-92712876D01*
X143424171Y-92790285D01*
X143385466Y-92828990D01*
X143308057Y-92867695D01*
X143191942Y-92867695D01*
X145943523Y-92828990D02*
X145866114Y-92867695D01*
X145711295Y-92867695D01*
X145633885Y-92828990D01*
X145595180Y-92790285D01*
X145556476Y-92712876D01*
X145556476Y-92480647D01*
X145595180Y-92403238D01*
X145633885Y-92364533D01*
X145711295Y-92325828D01*
X145866114Y-92325828D01*
X145943523Y-92364533D01*
%TO.C,U1*%
G36*
X141504700Y-96750000D02*
G01*
X141150700Y-96750000D01*
X141150700Y-96369000D01*
X141504700Y-96369000D01*
X141504700Y-96750000D01*
G37*
D12*
X141504700Y-96750000D02*
X141150700Y-96750000D01*
X141150700Y-96369000D01*
X141504700Y-96369000D01*
X141504700Y-96750000D01*
D13*
%TO.C,J1*%
X139915000Y-92445000D02*
X140175000Y-92445000D01*
X139915000Y-93775000D02*
X139915000Y-92445000D01*
%TD*%
%LPC*%
D14*
%TO.C,C1*%
X144510700Y-98492500D03*
X144510700Y-97967500D03*
%TD*%
D15*
%TO.C,U1*%
X141751400Y-96999999D03*
X141751400Y-97500000D03*
X141751400Y-98000000D03*
X141751400Y-98500001D03*
D16*
X142250700Y-98499300D03*
X142750700Y-98499300D03*
D15*
X143250000Y-98500001D03*
X143250000Y-98000000D03*
X143250000Y-97500000D03*
X143250000Y-96999999D03*
D16*
X142750700Y-97000700D03*
X142250700Y-97000700D03*
%TD*%
D17*
%TO.C,J1*%
X140675000Y-93775000D03*
D18*
X141945000Y-93775000D03*
X143215000Y-93775000D03*
X144485000Y-93775000D03*
X145755000Y-93775000D03*
X147025000Y-93775000D03*
X148295000Y-93775000D03*
X149565000Y-93775000D03*
X150835000Y-93775000D03*
%TD*%
D14*
%TO.C,C2*%
X140460700Y-98492500D03*
X140460700Y-97967500D03*
%TD*%
D19*
%TO.C,H2*%
X148950000Y-99000000D03*
%TD*%
M02*
