%TF.GenerationSoftware,KiCad,Pcbnew,6.0.7-f9a2dced07~116~ubuntu22.04.1*%
%TF.CreationDate,2022-10-21T11:38:13+01:00*%
%TF.ProjectId,inskinacc,696e736b-696e-4616-9363-2e6b69636164,0.1*%
%TF.SameCoordinates,Original*%
%TF.FileFunction,Legend,Bot*%
%TF.FilePolarity,Positive*%
%FSLAX46Y46*%
G04 Gerber Fmt 4.6, Leading zero omitted, Abs format (unit mm)*
G04 Created by KiCad (PCBNEW 6.0.7-f9a2dced07~116~ubuntu22.04.1) date 2022-10-21 11:38:13*
%MOMM*%
%LPD*%
G01*
G04 APERTURE LIST*
%ADD10C,0.152400*%
%ADD11R,1.000000X1.000000*%
%ADD12O,1.000000X1.000000*%
%ADD13C,2.200000*%
G04 APERTURE END LIST*
D10*
X149426952Y-96367695D02*
X149426952Y-95554895D01*
X149349542Y-96058057D02*
X149117314Y-96367695D01*
X149117314Y-95825828D02*
X149426952Y-96135466D01*
X148846380Y-96367695D02*
X148420628Y-95825828D01*
X148846380Y-95825828D02*
X148420628Y-96367695D01*
X147685238Y-96367695D02*
X148149695Y-96367695D01*
X147917466Y-96367695D02*
X147917466Y-95554895D01*
X147994876Y-95671009D01*
X148072285Y-95748419D01*
X148149695Y-95787123D01*
X147414304Y-95554895D02*
X146911142Y-95554895D01*
X147182076Y-95864533D01*
X147065961Y-95864533D01*
X146988552Y-95903238D01*
X146949847Y-95941942D01*
X146911142Y-96019352D01*
X146911142Y-96212876D01*
X146949847Y-96290285D01*
X146988552Y-96328990D01*
X147065961Y-96367695D01*
X147298190Y-96367695D01*
X147375600Y-96328990D01*
X147414304Y-96290285D01*
X146214457Y-95825828D02*
X146214457Y-96367695D01*
X146407980Y-95516190D02*
X146601504Y-96096761D01*
X146098342Y-96096761D01*
X145788704Y-96058057D02*
X145169428Y-96058057D01*
X144356628Y-96367695D02*
X144821085Y-96367695D01*
X144588857Y-96367695D02*
X144588857Y-95554895D01*
X144666266Y-95671009D01*
X144743676Y-95748419D01*
X144821085Y-95787123D01*
X144046990Y-95632304D02*
X144008285Y-95593600D01*
X143930876Y-95554895D01*
X143737352Y-95554895D01*
X143659942Y-95593600D01*
X143621238Y-95632304D01*
X143582533Y-95709714D01*
X143582533Y-95787123D01*
X143621238Y-95903238D01*
X144085695Y-96367695D01*
X143582533Y-96367695D01*
X142808438Y-96367695D02*
X143272895Y-96367695D01*
X143040666Y-96367695D02*
X143040666Y-95554895D01*
X143118076Y-95671009D01*
X143195485Y-95748419D01*
X143272895Y-95787123D01*
X142034342Y-96367695D02*
X142498800Y-96367695D01*
X142266571Y-96367695D02*
X142266571Y-95554895D01*
X142343980Y-95671009D01*
X142421390Y-95748419D01*
X142498800Y-95787123D01*
X146601504Y-92617695D02*
X146601504Y-92191942D01*
X146640209Y-92114533D01*
X146717619Y-92075828D01*
X146872438Y-92075828D01*
X146949847Y-92114533D01*
X146601504Y-92578990D02*
X146678914Y-92617695D01*
X146872438Y-92617695D01*
X146949847Y-92578990D01*
X146988552Y-92501580D01*
X146988552Y-92424171D01*
X146949847Y-92346761D01*
X146872438Y-92308057D01*
X146678914Y-92308057D01*
X146601504Y-92269352D01*
X145866114Y-92617695D02*
X145866114Y-91804895D01*
X145866114Y-92578990D02*
X145943523Y-92617695D01*
X146098342Y-92617695D01*
X146175752Y-92578990D01*
X146214457Y-92540285D01*
X146253161Y-92462876D01*
X146253161Y-92230647D01*
X146214457Y-92153238D01*
X146175752Y-92114533D01*
X146098342Y-92075828D01*
X145943523Y-92075828D01*
X145866114Y-92114533D01*
X145169428Y-92578990D02*
X145246838Y-92617695D01*
X145401657Y-92617695D01*
X145479066Y-92578990D01*
X145517771Y-92501580D01*
X145517771Y-92191942D01*
X145479066Y-92114533D01*
X145401657Y-92075828D01*
X145246838Y-92075828D01*
X145169428Y-92114533D01*
X145130723Y-92191942D01*
X145130723Y-92269352D01*
X145517771Y-92346761D01*
X144859790Y-92075828D02*
X144666266Y-92617695D01*
X144472742Y-92075828D01*
%LPC*%
D11*
%TO.C,J1*%
X140675000Y-93775000D03*
D12*
X141945000Y-93775000D03*
X143215000Y-93775000D03*
X144485000Y-93775000D03*
X145755000Y-93775000D03*
X147025000Y-93775000D03*
X148295000Y-93775000D03*
X149565000Y-93775000D03*
X150835000Y-93775000D03*
%TD*%
D13*
%TO.C,H2*%
X148950000Y-99000000D03*
%TD*%
M02*
