G04 #@! TF.GenerationSoftware,KiCad,Pcbnew,7.0.7-7.0.7~ubuntu22.04.1*
G04 #@! TF.CreationDate,2023-08-15T12:14:28+01:00*
G04 #@! TF.ProjectId,LIS3DH_array,4c495333-4448-45f6-9172-7261792e6b69,rev?*
G04 #@! TF.SameCoordinates,Original*
G04 #@! TF.FileFunction,Other,ECO2*
%FSLAX46Y46*%
G04 Gerber Fmt 4.6, Leading zero omitted, Abs format (unit mm)*
G04 Created by KiCad (PCBNEW 7.0.7-7.0.7~ubuntu22.04.1) date 2023-08-15 12:14:28*
%MOMM*%
%LPD*%
G01*
G04 APERTURE LIST*
G04 APERTURE END LIST*
G36*
X148698945Y-57269685D02*
G01*
X148729760Y-57297838D01*
X148801590Y-57390126D01*
X148974747Y-57549530D01*
X149171774Y-57678253D01*
X149387302Y-57772792D01*
X149615451Y-57830567D01*
X149615459Y-57830569D01*
X149849999Y-57850003D01*
X150052442Y-57869941D01*
X150076283Y-57874683D01*
X150259265Y-57930190D01*
X150281723Y-57939493D01*
X150450353Y-58029627D01*
X150470565Y-58043132D01*
X150618373Y-58164436D01*
X150635561Y-58181624D01*
X150756864Y-58329431D01*
X150770369Y-58349642D01*
X150860506Y-58518275D01*
X150869809Y-58540734D01*
X150925315Y-58723713D01*
X150930057Y-58747551D01*
X150949702Y-58946969D01*
X150950001Y-58953051D01*
X150949997Y-61046951D01*
X150949698Y-61053032D01*
X150930058Y-61252442D01*
X150925316Y-61276283D01*
X150869809Y-61459265D01*
X150860506Y-61481723D01*
X150770372Y-61650353D01*
X150756867Y-61670565D01*
X150635563Y-61818373D01*
X150618375Y-61835561D01*
X150470568Y-61956864D01*
X150450357Y-61970369D01*
X150281724Y-62060506D01*
X150259265Y-62069809D01*
X150076286Y-62125315D01*
X150052446Y-62130057D01*
X149853034Y-62149698D01*
X149846953Y-62149997D01*
X146649997Y-62150002D01*
X146435393Y-62171137D01*
X146357851Y-62194660D01*
X146321855Y-62200000D01*
X143678177Y-62200000D01*
X143642182Y-62194661D01*
X143564605Y-62171128D01*
X143350005Y-62149991D01*
X140153048Y-62149996D01*
X140146968Y-62149697D01*
X139947557Y-62130058D01*
X139923716Y-62125316D01*
X139740734Y-62069809D01*
X139718276Y-62060506D01*
X139549646Y-61970372D01*
X139529434Y-61956867D01*
X139381626Y-61835563D01*
X139364438Y-61818375D01*
X139243135Y-61670568D01*
X139229630Y-61650357D01*
X139139493Y-61481724D01*
X139130190Y-61459265D01*
X139074684Y-61276286D01*
X139069942Y-61252448D01*
X139050297Y-61053030D01*
X139049998Y-61046948D01*
X139050002Y-58953048D01*
X139050301Y-58946967D01*
X139069941Y-58747557D01*
X139074683Y-58723716D01*
X139130190Y-58540734D01*
X139139493Y-58518276D01*
X139229627Y-58349648D01*
X139243131Y-58329437D01*
X139364435Y-58181626D01*
X139381624Y-58164437D01*
X139529432Y-58043134D01*
X139549643Y-58029629D01*
X139718272Y-57939494D01*
X139740731Y-57930191D01*
X139923712Y-57874684D01*
X139947553Y-57869942D01*
X140149996Y-57850003D01*
X140384540Y-57830562D01*
X140384541Y-57830562D01*
X140612692Y-57772787D01*
X140828217Y-57678250D01*
X141025252Y-57549521D01*
X141198394Y-57390135D01*
X141198404Y-57390124D01*
X141270235Y-57297837D01*
X141326945Y-57257024D01*
X141368088Y-57250000D01*
X148631906Y-57250000D01*
X148698945Y-57269685D01*
G37*
G36*
X133698945Y-57269685D02*
G01*
X133729760Y-57297838D01*
X133801590Y-57390126D01*
X133974747Y-57549530D01*
X134171774Y-57678253D01*
X134387302Y-57772792D01*
X134615451Y-57830567D01*
X134615459Y-57830569D01*
X134849999Y-57850003D01*
X135052442Y-57869941D01*
X135076283Y-57874683D01*
X135259265Y-57930190D01*
X135281723Y-57939493D01*
X135450353Y-58029627D01*
X135470565Y-58043132D01*
X135618373Y-58164436D01*
X135635561Y-58181624D01*
X135756864Y-58329431D01*
X135770369Y-58349642D01*
X135860506Y-58518275D01*
X135869809Y-58540734D01*
X135925315Y-58723713D01*
X135930057Y-58747553D01*
X135949698Y-58946965D01*
X135949997Y-58953046D01*
X135949997Y-61046951D01*
X135949698Y-61053032D01*
X135930058Y-61252442D01*
X135925316Y-61276283D01*
X135869809Y-61459265D01*
X135860506Y-61481723D01*
X135770372Y-61650353D01*
X135756867Y-61670565D01*
X135635563Y-61818373D01*
X135618375Y-61835561D01*
X135470568Y-61956864D01*
X135450357Y-61970369D01*
X135281724Y-62060506D01*
X135259265Y-62069809D01*
X135076286Y-62125315D01*
X135052446Y-62130057D01*
X134853034Y-62149698D01*
X134846953Y-62149997D01*
X131649997Y-62150002D01*
X131435393Y-62171137D01*
X131357851Y-62194660D01*
X131321855Y-62200000D01*
X128678177Y-62200000D01*
X128642182Y-62194661D01*
X128564605Y-62171128D01*
X128350005Y-62149991D01*
X125153048Y-62149996D01*
X125146968Y-62149697D01*
X124947557Y-62130058D01*
X124923716Y-62125316D01*
X124740734Y-62069809D01*
X124718276Y-62060506D01*
X124549646Y-61970372D01*
X124529434Y-61956867D01*
X124381626Y-61835563D01*
X124364438Y-61818375D01*
X124243135Y-61670568D01*
X124229630Y-61650357D01*
X124139493Y-61481724D01*
X124130190Y-61459265D01*
X124074684Y-61276286D01*
X124069942Y-61252446D01*
X124050301Y-61053031D01*
X124050002Y-61046950D01*
X124050002Y-58953048D01*
X124050301Y-58946967D01*
X124069941Y-58747557D01*
X124074683Y-58723716D01*
X124130190Y-58540734D01*
X124139493Y-58518276D01*
X124229627Y-58349648D01*
X124243131Y-58329437D01*
X124364435Y-58181626D01*
X124381624Y-58164437D01*
X124529432Y-58043134D01*
X124549643Y-58029629D01*
X124718272Y-57939494D01*
X124740731Y-57930191D01*
X124923712Y-57874684D01*
X124947553Y-57869942D01*
X125149996Y-57850003D01*
X125384540Y-57830562D01*
X125384541Y-57830562D01*
X125612692Y-57772787D01*
X125828217Y-57678250D01*
X126025252Y-57549521D01*
X126198394Y-57390135D01*
X126198404Y-57390124D01*
X126270235Y-57297837D01*
X126326945Y-57257024D01*
X126368088Y-57250000D01*
X133631906Y-57250000D01*
X133698945Y-57269685D01*
G37*
G36*
X118698945Y-57269685D02*
G01*
X118729760Y-57297838D01*
X118801590Y-57390126D01*
X118974747Y-57549530D01*
X119171774Y-57678253D01*
X119387302Y-57772792D01*
X119615451Y-57830567D01*
X119615459Y-57830569D01*
X119849999Y-57850003D01*
X120052442Y-57869941D01*
X120076283Y-57874683D01*
X120259265Y-57930190D01*
X120281723Y-57939493D01*
X120450353Y-58029627D01*
X120470565Y-58043132D01*
X120618373Y-58164436D01*
X120635561Y-58181624D01*
X120756864Y-58329431D01*
X120770369Y-58349642D01*
X120860506Y-58518275D01*
X120869809Y-58540734D01*
X120925315Y-58723713D01*
X120930057Y-58747553D01*
X120949698Y-58946965D01*
X120949997Y-58953046D01*
X120949996Y-61046951D01*
X120949697Y-61053031D01*
X120930058Y-61252442D01*
X120925316Y-61276283D01*
X120869809Y-61459265D01*
X120860506Y-61481723D01*
X120770372Y-61650353D01*
X120756867Y-61670565D01*
X120635563Y-61818373D01*
X120618375Y-61835561D01*
X120470568Y-61956864D01*
X120450357Y-61970369D01*
X120281724Y-62060506D01*
X120259265Y-62069809D01*
X120076286Y-62125315D01*
X120052446Y-62130057D01*
X119853034Y-62149698D01*
X119846953Y-62149997D01*
X116649997Y-62150002D01*
X116435393Y-62171137D01*
X116357851Y-62194660D01*
X116321855Y-62200000D01*
X113678177Y-62200000D01*
X113642182Y-62194661D01*
X113564605Y-62171128D01*
X113350005Y-62149991D01*
X110153048Y-62149996D01*
X110146968Y-62149697D01*
X109947557Y-62130058D01*
X109923716Y-62125316D01*
X109740734Y-62069809D01*
X109718276Y-62060506D01*
X109549646Y-61970372D01*
X109529434Y-61956867D01*
X109381626Y-61835563D01*
X109364438Y-61818375D01*
X109243135Y-61670568D01*
X109229630Y-61650357D01*
X109139493Y-61481724D01*
X109130190Y-61459265D01*
X109074684Y-61276286D01*
X109069942Y-61252446D01*
X109050300Y-61053031D01*
X109050001Y-61046949D01*
X109050002Y-58953048D01*
X109050301Y-58946967D01*
X109069941Y-58747557D01*
X109074683Y-58723716D01*
X109130190Y-58540734D01*
X109139493Y-58518276D01*
X109229627Y-58349648D01*
X109243131Y-58329437D01*
X109364435Y-58181626D01*
X109381624Y-58164437D01*
X109529432Y-58043134D01*
X109549643Y-58029629D01*
X109718272Y-57939494D01*
X109740731Y-57930191D01*
X109923712Y-57874684D01*
X109947553Y-57869942D01*
X110149996Y-57850003D01*
X110384540Y-57830562D01*
X110384541Y-57830562D01*
X110612692Y-57772787D01*
X110828217Y-57678250D01*
X111025252Y-57549521D01*
X111198394Y-57390135D01*
X111198404Y-57390124D01*
X111270235Y-57297837D01*
X111326945Y-57257024D01*
X111368088Y-57250000D01*
X118631906Y-57250000D01*
X118698945Y-57269685D01*
G37*
G36*
X103698945Y-57269685D02*
G01*
X103729760Y-57297838D01*
X103801590Y-57390126D01*
X103974747Y-57549530D01*
X104171774Y-57678253D01*
X104387302Y-57772792D01*
X104615451Y-57830567D01*
X104615459Y-57830569D01*
X104849999Y-57850003D01*
X105052442Y-57869941D01*
X105076283Y-57874683D01*
X105259265Y-57930190D01*
X105281723Y-57939493D01*
X105450353Y-58029627D01*
X105470565Y-58043132D01*
X105618373Y-58164436D01*
X105635561Y-58181624D01*
X105756864Y-58329431D01*
X105770369Y-58349642D01*
X105860506Y-58518275D01*
X105869809Y-58540734D01*
X105925315Y-58723713D01*
X105930057Y-58747551D01*
X105949702Y-58946969D01*
X105950001Y-58953051D01*
X105949997Y-61046951D01*
X105949698Y-61053032D01*
X105930058Y-61252442D01*
X105925316Y-61276283D01*
X105869809Y-61459265D01*
X105860506Y-61481723D01*
X105770372Y-61650353D01*
X105756867Y-61670565D01*
X105635563Y-61818373D01*
X105618375Y-61835561D01*
X105470568Y-61956864D01*
X105450357Y-61970369D01*
X105281724Y-62060506D01*
X105259265Y-62069809D01*
X105076286Y-62125315D01*
X105052446Y-62130057D01*
X104853034Y-62149698D01*
X104846953Y-62149997D01*
X101649997Y-62150002D01*
X101435395Y-62171139D01*
X101435393Y-62171140D01*
X101357862Y-62194660D01*
X101321866Y-62200000D01*
X98678177Y-62200000D01*
X98642182Y-62194661D01*
X98564605Y-62171128D01*
X98350005Y-62149991D01*
X95153048Y-62149996D01*
X95146968Y-62149697D01*
X94947557Y-62130058D01*
X94923716Y-62125316D01*
X94740734Y-62069809D01*
X94718276Y-62060506D01*
X94549646Y-61970372D01*
X94529434Y-61956867D01*
X94381626Y-61835563D01*
X94364438Y-61818375D01*
X94243135Y-61670568D01*
X94229630Y-61650357D01*
X94139493Y-61481724D01*
X94130190Y-61459265D01*
X94074684Y-61276286D01*
X94069942Y-61252448D01*
X94050297Y-61053030D01*
X94049998Y-61046948D01*
X94050002Y-58953048D01*
X94050301Y-58946967D01*
X94069941Y-58747557D01*
X94074683Y-58723716D01*
X94130190Y-58540734D01*
X94139493Y-58518276D01*
X94229627Y-58349648D01*
X94243131Y-58329437D01*
X94364435Y-58181626D01*
X94381624Y-58164437D01*
X94529432Y-58043134D01*
X94549643Y-58029629D01*
X94718272Y-57939494D01*
X94740731Y-57930191D01*
X94923712Y-57874684D01*
X94947553Y-57869942D01*
X95149996Y-57850003D01*
X95384540Y-57830562D01*
X95384541Y-57830562D01*
X95612692Y-57772787D01*
X95828217Y-57678250D01*
X96025252Y-57549521D01*
X96198394Y-57390135D01*
X96198404Y-57390124D01*
X96270235Y-57297837D01*
X96326945Y-57257024D01*
X96368088Y-57250000D01*
X103631906Y-57250000D01*
X103698945Y-57269685D01*
G37*
G36*
X81046951Y-74050002D02*
G01*
X81053032Y-74050301D01*
X81252442Y-74069941D01*
X81276283Y-74074683D01*
X81459265Y-74130190D01*
X81481723Y-74139493D01*
X81650353Y-74229627D01*
X81670565Y-74243132D01*
X81818373Y-74364436D01*
X81835561Y-74381624D01*
X81956864Y-74529431D01*
X81970369Y-74549642D01*
X82060506Y-74718275D01*
X82069809Y-74740734D01*
X82125315Y-74923713D01*
X82130057Y-74947553D01*
X82149698Y-75146965D01*
X82149997Y-75153046D01*
X82150002Y-78350002D01*
X82171136Y-78564605D01*
X82194660Y-78642147D01*
X82200000Y-78678144D01*
X82200000Y-81321823D01*
X82194661Y-81357818D01*
X82171128Y-81435394D01*
X82149991Y-81649994D01*
X82149996Y-84846951D01*
X82149697Y-84853031D01*
X82130058Y-85052442D01*
X82125316Y-85076283D01*
X82069809Y-85259265D01*
X82060506Y-85281723D01*
X81970372Y-85450353D01*
X81956867Y-85470565D01*
X81835563Y-85618373D01*
X81818375Y-85635561D01*
X81670568Y-85756864D01*
X81650357Y-85770369D01*
X81481724Y-85860506D01*
X81459265Y-85869809D01*
X81276286Y-85925315D01*
X81252448Y-85930057D01*
X81053030Y-85949702D01*
X81046948Y-85950001D01*
X78953048Y-85949997D01*
X78946967Y-85949698D01*
X78747557Y-85930058D01*
X78723716Y-85925316D01*
X78540734Y-85869809D01*
X78518276Y-85860506D01*
X78349648Y-85770372D01*
X78329437Y-85756868D01*
X78181626Y-85635564D01*
X78164437Y-85618375D01*
X78043134Y-85470567D01*
X78029629Y-85450356D01*
X77939494Y-85281727D01*
X77930191Y-85259268D01*
X77874684Y-85076287D01*
X77869942Y-85052446D01*
X77850003Y-84850005D01*
X77830563Y-84615461D01*
X77830563Y-84615459D01*
X77772788Y-84387309D01*
X77678249Y-84171779D01*
X77549526Y-83974753D01*
X77390123Y-83801595D01*
X77297837Y-83729765D01*
X77257024Y-83673055D01*
X77250000Y-83631912D01*
X77250000Y-76368093D01*
X77269685Y-76301054D01*
X77297838Y-76270239D01*
X77390126Y-76198408D01*
X77549527Y-76025252D01*
X77678254Y-75828221D01*
X77772792Y-75612697D01*
X77830568Y-75384543D01*
X77850003Y-75150001D01*
X77869941Y-74947557D01*
X77874683Y-74923716D01*
X77930190Y-74740734D01*
X77939493Y-74718276D01*
X78029627Y-74549646D01*
X78043132Y-74529434D01*
X78164436Y-74381626D01*
X78181624Y-74364438D01*
X78329431Y-74243135D01*
X78349642Y-74229630D01*
X78518275Y-74139493D01*
X78540734Y-74130190D01*
X78723713Y-74074684D01*
X78747553Y-74069942D01*
X78946968Y-74050300D01*
X78953050Y-74050001D01*
X81046951Y-74050002D01*
G37*
G36*
X166053031Y-74050302D02*
G01*
X166252442Y-74069941D01*
X166276283Y-74074683D01*
X166459265Y-74130190D01*
X166481723Y-74139493D01*
X166650351Y-74229627D01*
X166670562Y-74243131D01*
X166818373Y-74364435D01*
X166835562Y-74381624D01*
X166956865Y-74529432D01*
X166970370Y-74549643D01*
X167060505Y-74718272D01*
X167069808Y-74740731D01*
X167125315Y-74923712D01*
X167130057Y-74947550D01*
X167150001Y-75149998D01*
X167169435Y-75384541D01*
X167227211Y-75612695D01*
X167321749Y-75828219D01*
X167450476Y-76025250D01*
X167609872Y-76198401D01*
X167609877Y-76198405D01*
X167702163Y-76270235D01*
X167742975Y-76326945D01*
X167750000Y-76368088D01*
X167750000Y-83631911D01*
X167730315Y-83698950D01*
X167702163Y-83729764D01*
X167609877Y-83801593D01*
X167450476Y-83974749D01*
X167321749Y-84171780D01*
X167227211Y-84387304D01*
X167169435Y-84615456D01*
X167169435Y-84615457D01*
X167149997Y-84850000D01*
X167130058Y-85052442D01*
X167125316Y-85076283D01*
X167069809Y-85259265D01*
X167060506Y-85281723D01*
X166970372Y-85450353D01*
X166956867Y-85470565D01*
X166835563Y-85618373D01*
X166818375Y-85635561D01*
X166670568Y-85756864D01*
X166650357Y-85770369D01*
X166481724Y-85860506D01*
X166459265Y-85869809D01*
X166276281Y-85925316D01*
X166252446Y-85930057D01*
X166053036Y-85949707D01*
X166046952Y-85950006D01*
X163953048Y-85949997D01*
X163946967Y-85949698D01*
X163747557Y-85930058D01*
X163723716Y-85925316D01*
X163540734Y-85869809D01*
X163518276Y-85860506D01*
X163349646Y-85770372D01*
X163329434Y-85756867D01*
X163181626Y-85635563D01*
X163164438Y-85618375D01*
X163043135Y-85470568D01*
X163029630Y-85450357D01*
X162939493Y-85281724D01*
X162930190Y-85259265D01*
X162874684Y-85076286D01*
X162869942Y-85052446D01*
X162850301Y-84853034D01*
X162850002Y-84846953D01*
X162849997Y-81649997D01*
X162828862Y-81435393D01*
X162766267Y-81229047D01*
X162664611Y-81038866D01*
X162578147Y-80933509D01*
X162550834Y-80869199D01*
X162550000Y-80854844D01*
X162550000Y-79145169D01*
X162569685Y-79078130D01*
X162578147Y-79066504D01*
X162664621Y-78961135D01*
X162766273Y-78770960D01*
X162828871Y-78564605D01*
X162850008Y-78350005D01*
X162850003Y-75153048D01*
X162850302Y-75146968D01*
X162869941Y-74947557D01*
X162874683Y-74923716D01*
X162930190Y-74740734D01*
X162939493Y-74718276D01*
X163029627Y-74549646D01*
X163043132Y-74529434D01*
X163164436Y-74381626D01*
X163181624Y-74364438D01*
X163329431Y-74243135D01*
X163349642Y-74229630D01*
X163518275Y-74139493D01*
X163540734Y-74130190D01*
X163723713Y-74074684D01*
X163747554Y-74069942D01*
X163946966Y-74050302D01*
X163953047Y-74050003D01*
X166046951Y-74050003D01*
X166053031Y-74050302D01*
G37*
G36*
X81053032Y-89050301D02*
G01*
X81252442Y-89069941D01*
X81276283Y-89074683D01*
X81459265Y-89130190D01*
X81481723Y-89139493D01*
X81650353Y-89229627D01*
X81670565Y-89243132D01*
X81818373Y-89364436D01*
X81835561Y-89381624D01*
X81956864Y-89529431D01*
X81970369Y-89549642D01*
X82060506Y-89718275D01*
X82069809Y-89740734D01*
X82125315Y-89923713D01*
X82130057Y-89947553D01*
X82149698Y-90146965D01*
X82149997Y-90153046D01*
X82150002Y-93350002D01*
X82171136Y-93564605D01*
X82194660Y-93642147D01*
X82200000Y-93678144D01*
X82200000Y-96321823D01*
X82194661Y-96357818D01*
X82171128Y-96435394D01*
X82149991Y-96649994D01*
X82149996Y-99846951D01*
X82149697Y-99853031D01*
X82130058Y-100052442D01*
X82125316Y-100076283D01*
X82069809Y-100259265D01*
X82060506Y-100281723D01*
X81970372Y-100450353D01*
X81956867Y-100470565D01*
X81835563Y-100618373D01*
X81818375Y-100635561D01*
X81670568Y-100756864D01*
X81650357Y-100770369D01*
X81481724Y-100860506D01*
X81459265Y-100869809D01*
X81276286Y-100925315D01*
X81252446Y-100930057D01*
X81053034Y-100949698D01*
X81046953Y-100949997D01*
X78953049Y-100949997D01*
X78946968Y-100949698D01*
X78747557Y-100930058D01*
X78723716Y-100925316D01*
X78540734Y-100869809D01*
X78518276Y-100860506D01*
X78349648Y-100770372D01*
X78329437Y-100756868D01*
X78181626Y-100635564D01*
X78164437Y-100618375D01*
X78043134Y-100470567D01*
X78029629Y-100450356D01*
X77939494Y-100281727D01*
X77930191Y-100259268D01*
X77874684Y-100076287D01*
X77869942Y-100052446D01*
X77850003Y-99850004D01*
X77830568Y-99615460D01*
X77772792Y-99387306D01*
X77678254Y-99171782D01*
X77549527Y-98974751D01*
X77390126Y-98801595D01*
X77297837Y-98729763D01*
X77257024Y-98673053D01*
X77250000Y-98631910D01*
X77250000Y-91368093D01*
X77269685Y-91301054D01*
X77297838Y-91270239D01*
X77390126Y-91198408D01*
X77549527Y-91025252D01*
X77678254Y-90828221D01*
X77772792Y-90612697D01*
X77830568Y-90384543D01*
X77850003Y-90150001D01*
X77869941Y-89947557D01*
X77874683Y-89923716D01*
X77930190Y-89740734D01*
X77939493Y-89718276D01*
X78029627Y-89549646D01*
X78043132Y-89529434D01*
X78164436Y-89381626D01*
X78181624Y-89364438D01*
X78329431Y-89243135D01*
X78349642Y-89229630D01*
X78518275Y-89139493D01*
X78540734Y-89130190D01*
X78723713Y-89074684D01*
X78747553Y-89069942D01*
X78946968Y-89050301D01*
X78953049Y-89050002D01*
X81046951Y-89050002D01*
X81053032Y-89050301D01*
G37*
G36*
X166053031Y-89050302D02*
G01*
X166252442Y-89069941D01*
X166276283Y-89074683D01*
X166459265Y-89130190D01*
X166481723Y-89139493D01*
X166650351Y-89229627D01*
X166670562Y-89243131D01*
X166818373Y-89364435D01*
X166835562Y-89381624D01*
X166956865Y-89529432D01*
X166970370Y-89549643D01*
X167060505Y-89718272D01*
X167069808Y-89740731D01*
X167125315Y-89923712D01*
X167130057Y-89947550D01*
X167150001Y-90149998D01*
X167169435Y-90384541D01*
X167227211Y-90612695D01*
X167321749Y-90828219D01*
X167450476Y-91025250D01*
X167609872Y-91198401D01*
X167609877Y-91198405D01*
X167702163Y-91270235D01*
X167742975Y-91326945D01*
X167750000Y-91368088D01*
X167750000Y-98631909D01*
X167730315Y-98698948D01*
X167702163Y-98729762D01*
X167609875Y-98801593D01*
X167450469Y-98974754D01*
X167321749Y-99171777D01*
X167227210Y-99387307D01*
X167169435Y-99615457D01*
X167169435Y-99615459D01*
X167149997Y-99850000D01*
X167130058Y-100052442D01*
X167125316Y-100076283D01*
X167069809Y-100259265D01*
X167060506Y-100281723D01*
X166970372Y-100450353D01*
X166956867Y-100470565D01*
X166835563Y-100618373D01*
X166818375Y-100635561D01*
X166670568Y-100756864D01*
X166650357Y-100770369D01*
X166481724Y-100860506D01*
X166459265Y-100869809D01*
X166276281Y-100925316D01*
X166252446Y-100930057D01*
X166053036Y-100949707D01*
X166046952Y-100950006D01*
X163953048Y-100949997D01*
X163946967Y-100949698D01*
X163747557Y-100930058D01*
X163723716Y-100925316D01*
X163540734Y-100869809D01*
X163518276Y-100860506D01*
X163349646Y-100770372D01*
X163329434Y-100756867D01*
X163181626Y-100635563D01*
X163164438Y-100618375D01*
X163043135Y-100470568D01*
X163029630Y-100450357D01*
X162939493Y-100281724D01*
X162930190Y-100259265D01*
X162874684Y-100076286D01*
X162869942Y-100052446D01*
X162850301Y-99853034D01*
X162850002Y-99846953D01*
X162849997Y-96649997D01*
X162828862Y-96435393D01*
X162766267Y-96229047D01*
X162664611Y-96038866D01*
X162578147Y-95933509D01*
X162550834Y-95869199D01*
X162550000Y-95854844D01*
X162550000Y-94145169D01*
X162569685Y-94078130D01*
X162578147Y-94066504D01*
X162664621Y-93961135D01*
X162766273Y-93770960D01*
X162828871Y-93564605D01*
X162850008Y-93350005D01*
X162850003Y-90153048D01*
X162850302Y-90146968D01*
X162869941Y-89947557D01*
X162874683Y-89923716D01*
X162930190Y-89740734D01*
X162939493Y-89718276D01*
X163029627Y-89549646D01*
X163043132Y-89529434D01*
X163164436Y-89381626D01*
X163181624Y-89364438D01*
X163329431Y-89243135D01*
X163349642Y-89229630D01*
X163518275Y-89139493D01*
X163540734Y-89130190D01*
X163723713Y-89074684D01*
X163747554Y-89069942D01*
X163946966Y-89050302D01*
X163953047Y-89050003D01*
X166046951Y-89050003D01*
X166053031Y-89050302D01*
G37*
G36*
X166053031Y-104050302D02*
G01*
X166252442Y-104069941D01*
X166276283Y-104074683D01*
X166459265Y-104130190D01*
X166481723Y-104139493D01*
X166650351Y-104229627D01*
X166670562Y-104243131D01*
X166818373Y-104364435D01*
X166835562Y-104381624D01*
X166956865Y-104529432D01*
X166970370Y-104549643D01*
X167060505Y-104718272D01*
X167069808Y-104740731D01*
X167125315Y-104923712D01*
X167130057Y-104947550D01*
X167150001Y-105149998D01*
X167169435Y-105384541D01*
X167227211Y-105612695D01*
X167321749Y-105828219D01*
X167450476Y-106025250D01*
X167609872Y-106198401D01*
X167609877Y-106198405D01*
X167702163Y-106270235D01*
X167742975Y-106326945D01*
X167750000Y-106368088D01*
X167750000Y-113631911D01*
X167730315Y-113698950D01*
X167702163Y-113729764D01*
X167609877Y-113801593D01*
X167450476Y-113974749D01*
X167321749Y-114171780D01*
X167227211Y-114387304D01*
X167169435Y-114615456D01*
X167169435Y-114615457D01*
X167149997Y-114850000D01*
X167130058Y-115052442D01*
X167125316Y-115076283D01*
X167069809Y-115259265D01*
X167060506Y-115281723D01*
X166970372Y-115450353D01*
X166956867Y-115470565D01*
X166835563Y-115618373D01*
X166818375Y-115635561D01*
X166670568Y-115756864D01*
X166650357Y-115770369D01*
X166481724Y-115860506D01*
X166459265Y-115869809D01*
X166276286Y-115925315D01*
X166252446Y-115930057D01*
X166053031Y-115949698D01*
X166046950Y-115949997D01*
X163953048Y-115949997D01*
X163946967Y-115949698D01*
X163747557Y-115930058D01*
X163723716Y-115925316D01*
X163540734Y-115869809D01*
X163518276Y-115860506D01*
X163349646Y-115770372D01*
X163329434Y-115756867D01*
X163181626Y-115635563D01*
X163164438Y-115618375D01*
X163043135Y-115470568D01*
X163029630Y-115450357D01*
X162939493Y-115281724D01*
X162930190Y-115259265D01*
X162874684Y-115076286D01*
X162869942Y-115052446D01*
X162850301Y-114853034D01*
X162850002Y-114846953D01*
X162849997Y-111649997D01*
X162828862Y-111435393D01*
X162766267Y-111229047D01*
X162664611Y-111038866D01*
X162578147Y-110933509D01*
X162550834Y-110869199D01*
X162550000Y-110854844D01*
X162550000Y-109145169D01*
X162569685Y-109078130D01*
X162578147Y-109066504D01*
X162664621Y-108961135D01*
X162766273Y-108770960D01*
X162828871Y-108564605D01*
X162850008Y-108350005D01*
X162850003Y-105153048D01*
X162850302Y-105146968D01*
X162869941Y-104947557D01*
X162874683Y-104923716D01*
X162930190Y-104740734D01*
X162939493Y-104718276D01*
X163029627Y-104549646D01*
X163043132Y-104529434D01*
X163164436Y-104381626D01*
X163181624Y-104364438D01*
X163329431Y-104243135D01*
X163349642Y-104229630D01*
X163518275Y-104139493D01*
X163540734Y-104130190D01*
X163723713Y-104074684D01*
X163747554Y-104069942D01*
X163946966Y-104050302D01*
X163953047Y-104050003D01*
X166046951Y-104050003D01*
X166053031Y-104050302D01*
G37*
G36*
X81046951Y-104050002D02*
G01*
X81053032Y-104050301D01*
X81252442Y-104069941D01*
X81276283Y-104074683D01*
X81459265Y-104130190D01*
X81481723Y-104139493D01*
X81650353Y-104229627D01*
X81670565Y-104243132D01*
X81818373Y-104364436D01*
X81835561Y-104381624D01*
X81956864Y-104529431D01*
X81970369Y-104549642D01*
X82060506Y-104718275D01*
X82069809Y-104740734D01*
X82125315Y-104923713D01*
X82130057Y-104947553D01*
X82149698Y-105146965D01*
X82149997Y-105153046D01*
X82150002Y-108350002D01*
X82171136Y-108564605D01*
X82194660Y-108642147D01*
X82200000Y-108678144D01*
X82200000Y-111321823D01*
X82194661Y-111357818D01*
X82171128Y-111435394D01*
X82149991Y-111649994D01*
X82149996Y-114846951D01*
X82149697Y-114853031D01*
X82130058Y-115052442D01*
X82125316Y-115076283D01*
X82069809Y-115259265D01*
X82060506Y-115281723D01*
X81970372Y-115450353D01*
X81956867Y-115470565D01*
X81835563Y-115618373D01*
X81818375Y-115635561D01*
X81670568Y-115756864D01*
X81650357Y-115770369D01*
X81481724Y-115860506D01*
X81459265Y-115869809D01*
X81276286Y-115925315D01*
X81252446Y-115930057D01*
X81053034Y-115949698D01*
X81046953Y-115949997D01*
X78953049Y-115949997D01*
X78946968Y-115949698D01*
X78747557Y-115930058D01*
X78723716Y-115925316D01*
X78540734Y-115869809D01*
X78518276Y-115860506D01*
X78349648Y-115770372D01*
X78329437Y-115756868D01*
X78181626Y-115635564D01*
X78164437Y-115618375D01*
X78043134Y-115470567D01*
X78029629Y-115450356D01*
X77939494Y-115281727D01*
X77930191Y-115259268D01*
X77874684Y-115076287D01*
X77869942Y-115052446D01*
X77850003Y-114850004D01*
X77830568Y-114615460D01*
X77772792Y-114387306D01*
X77678254Y-114171782D01*
X77549527Y-113974751D01*
X77390127Y-113801596D01*
X77297837Y-113729764D01*
X77257024Y-113673053D01*
X77249999Y-113631910D01*
X77249999Y-106368094D01*
X77269684Y-106301055D01*
X77297838Y-106270240D01*
X77390123Y-106198413D01*
X77390125Y-106198410D01*
X77549527Y-106025253D01*
X77678254Y-105828222D01*
X77772792Y-105612697D01*
X77830568Y-105384543D01*
X77850003Y-105150001D01*
X77869941Y-104947557D01*
X77874683Y-104923716D01*
X77930190Y-104740734D01*
X77939493Y-104718276D01*
X78029627Y-104549646D01*
X78043132Y-104529434D01*
X78164436Y-104381626D01*
X78181624Y-104364438D01*
X78329431Y-104243135D01*
X78349642Y-104229630D01*
X78518275Y-104139493D01*
X78540734Y-104130190D01*
X78723718Y-104074683D01*
X78747553Y-104069942D01*
X78946963Y-104050292D01*
X78953047Y-104049993D01*
X81046951Y-104050002D01*
G37*
G36*
X166046951Y-119050002D02*
G01*
X166053032Y-119050301D01*
X166252442Y-119069941D01*
X166276283Y-119074683D01*
X166459265Y-119130190D01*
X166481723Y-119139493D01*
X166650351Y-119229627D01*
X166670562Y-119243131D01*
X166818373Y-119364435D01*
X166835562Y-119381624D01*
X166956865Y-119529432D01*
X166970370Y-119549643D01*
X167060505Y-119718272D01*
X167069808Y-119740731D01*
X167125315Y-119923712D01*
X167130057Y-119947550D01*
X167150001Y-120149996D01*
X167169434Y-120384547D01*
X167169434Y-120384548D01*
X167227208Y-120612693D01*
X167321746Y-120828220D01*
X167450473Y-121025251D01*
X167609873Y-121198406D01*
X167702162Y-121270237D01*
X167742975Y-121326947D01*
X167750000Y-121368091D01*
X167750000Y-128631911D01*
X167730315Y-128698950D01*
X167702163Y-128729764D01*
X167609877Y-128801593D01*
X167450476Y-128974749D01*
X167321749Y-129171780D01*
X167227211Y-129387304D01*
X167169435Y-129615456D01*
X167169435Y-129615457D01*
X167149997Y-129850000D01*
X167130058Y-130052442D01*
X167125316Y-130076283D01*
X167069809Y-130259265D01*
X167060506Y-130281723D01*
X166970372Y-130450353D01*
X166956867Y-130470565D01*
X166835563Y-130618373D01*
X166818375Y-130635561D01*
X166670568Y-130756864D01*
X166650357Y-130770369D01*
X166481724Y-130860506D01*
X166459265Y-130869809D01*
X166276286Y-130925315D01*
X166252446Y-130930057D01*
X166053034Y-130949698D01*
X166046953Y-130949997D01*
X163953049Y-130949997D01*
X163946968Y-130949698D01*
X163747557Y-130930058D01*
X163723716Y-130925316D01*
X163540734Y-130869809D01*
X163518276Y-130860506D01*
X163349646Y-130770372D01*
X163329434Y-130756867D01*
X163181626Y-130635563D01*
X163164438Y-130618375D01*
X163043135Y-130470568D01*
X163029630Y-130450357D01*
X162939493Y-130281724D01*
X162930190Y-130259265D01*
X162874684Y-130076286D01*
X162869942Y-130052446D01*
X162850301Y-129853034D01*
X162850002Y-129846953D01*
X162849997Y-126649997D01*
X162828862Y-126435393D01*
X162766267Y-126229047D01*
X162664611Y-126038866D01*
X162578147Y-125933509D01*
X162550834Y-125869199D01*
X162550000Y-125854844D01*
X162550000Y-124145169D01*
X162569685Y-124078130D01*
X162578147Y-124066504D01*
X162664621Y-123961135D01*
X162766273Y-123770960D01*
X162828871Y-123564605D01*
X162850008Y-123350005D01*
X162850003Y-120153048D01*
X162850302Y-120146968D01*
X162869941Y-119947557D01*
X162874683Y-119923716D01*
X162930190Y-119740734D01*
X162939493Y-119718276D01*
X163029627Y-119549646D01*
X163043132Y-119529434D01*
X163164436Y-119381626D01*
X163181624Y-119364438D01*
X163329431Y-119243135D01*
X163349642Y-119229630D01*
X163518275Y-119139493D01*
X163540734Y-119130190D01*
X163723713Y-119074684D01*
X163747551Y-119069942D01*
X163946969Y-119050297D01*
X163953051Y-119049998D01*
X166046951Y-119050002D01*
G37*
G36*
X81053031Y-119050302D02*
G01*
X81252442Y-119069941D01*
X81276283Y-119074683D01*
X81459265Y-119130190D01*
X81481723Y-119139493D01*
X81650353Y-119229627D01*
X81670565Y-119243132D01*
X81818373Y-119364436D01*
X81835561Y-119381624D01*
X81956864Y-119529431D01*
X81970369Y-119549642D01*
X82060506Y-119718275D01*
X82069809Y-119740734D01*
X82125315Y-119923713D01*
X82130057Y-119947553D01*
X82149698Y-120146965D01*
X82149997Y-120153046D01*
X82150002Y-123350002D01*
X82171136Y-123564605D01*
X82194660Y-123642147D01*
X82200000Y-123678144D01*
X82200000Y-126321823D01*
X82194661Y-126357818D01*
X82171128Y-126435394D01*
X82149991Y-126649994D01*
X82149996Y-129846951D01*
X82149697Y-129853031D01*
X82130058Y-130052442D01*
X82125316Y-130076283D01*
X82069809Y-130259265D01*
X82060506Y-130281723D01*
X81970372Y-130450353D01*
X81956867Y-130470565D01*
X81835563Y-130618373D01*
X81818375Y-130635561D01*
X81670568Y-130756864D01*
X81650357Y-130770369D01*
X81481724Y-130860506D01*
X81459265Y-130869809D01*
X81276286Y-130925315D01*
X81252446Y-130930057D01*
X81053031Y-130949698D01*
X81046950Y-130949997D01*
X78953048Y-130949997D01*
X78946967Y-130949698D01*
X78747557Y-130930058D01*
X78723716Y-130925316D01*
X78540734Y-130869809D01*
X78518276Y-130860506D01*
X78349648Y-130770372D01*
X78329437Y-130756868D01*
X78181626Y-130635564D01*
X78164437Y-130618375D01*
X78043134Y-130470567D01*
X78029629Y-130450356D01*
X77939494Y-130281727D01*
X77930191Y-130259268D01*
X77874684Y-130076287D01*
X77869942Y-130052446D01*
X77850003Y-129850004D01*
X77830568Y-129615460D01*
X77772792Y-129387306D01*
X77678254Y-129171782D01*
X77549527Y-128974751D01*
X77390126Y-128801595D01*
X77297837Y-128729763D01*
X77257024Y-128673053D01*
X77250000Y-128631910D01*
X77250000Y-121368093D01*
X77269685Y-121301054D01*
X77297838Y-121270239D01*
X77390126Y-121198408D01*
X77549527Y-121025252D01*
X77678254Y-120828221D01*
X77772792Y-120612697D01*
X77830568Y-120384543D01*
X77850003Y-120150001D01*
X77869941Y-119947557D01*
X77874683Y-119923716D01*
X77930190Y-119740734D01*
X77939493Y-119718276D01*
X78029627Y-119549646D01*
X78043132Y-119529434D01*
X78164436Y-119381626D01*
X78181624Y-119364438D01*
X78329431Y-119243135D01*
X78349642Y-119229630D01*
X78518275Y-119139493D01*
X78540734Y-119130190D01*
X78723713Y-119074684D01*
X78747554Y-119069942D01*
X78946966Y-119050302D01*
X78953047Y-119050003D01*
X81046951Y-119050003D01*
X81053031Y-119050302D01*
G37*
G36*
X145921868Y-142569685D02*
G01*
X145933493Y-142578146D01*
X146038867Y-142664623D01*
X146038873Y-142664628D01*
X146229037Y-142766273D01*
X146435394Y-142828871D01*
X146649994Y-142850008D01*
X149846951Y-142850003D01*
X149853031Y-142850302D01*
X150052442Y-142869941D01*
X150076283Y-142874683D01*
X150259265Y-142930190D01*
X150281723Y-142939493D01*
X150450353Y-143029627D01*
X150470565Y-143043132D01*
X150618373Y-143164436D01*
X150635561Y-143181624D01*
X150756864Y-143329431D01*
X150770369Y-143349642D01*
X150860506Y-143518275D01*
X150869809Y-143540734D01*
X150925315Y-143723713D01*
X150930057Y-143747553D01*
X150949698Y-143946965D01*
X150949997Y-143953046D01*
X150949997Y-146046951D01*
X150949698Y-146053032D01*
X150930058Y-146252442D01*
X150925316Y-146276283D01*
X150869809Y-146459265D01*
X150860506Y-146481723D01*
X150770372Y-146650351D01*
X150756868Y-146670562D01*
X150635564Y-146818373D01*
X150618375Y-146835562D01*
X150470567Y-146956865D01*
X150450356Y-146970370D01*
X150281727Y-147060505D01*
X150259268Y-147069808D01*
X150076287Y-147125315D01*
X150052447Y-147130057D01*
X149850004Y-147149997D01*
X149615459Y-147169437D01*
X149615458Y-147169437D01*
X149387307Y-147227212D01*
X149171782Y-147321749D01*
X148974747Y-147450478D01*
X148801605Y-147609864D01*
X148801595Y-147609875D01*
X148729765Y-147702163D01*
X148673055Y-147742976D01*
X148631912Y-147750000D01*
X141368094Y-147750000D01*
X141301055Y-147730315D01*
X141270240Y-147702162D01*
X141198409Y-147609873D01*
X141025252Y-147450469D01*
X140828225Y-147321746D01*
X140612697Y-147227207D01*
X140384548Y-147169432D01*
X140384540Y-147169430D01*
X140150000Y-147149997D01*
X139947557Y-147130058D01*
X139923716Y-147125316D01*
X139740734Y-147069809D01*
X139718276Y-147060506D01*
X139549646Y-146970372D01*
X139529434Y-146956867D01*
X139381626Y-146835563D01*
X139364438Y-146818375D01*
X139243135Y-146670568D01*
X139229630Y-146650357D01*
X139139493Y-146481724D01*
X139130190Y-146459265D01*
X139074683Y-146276281D01*
X139069942Y-146252446D01*
X139050292Y-146053036D01*
X139049993Y-146046952D01*
X139050002Y-143953048D01*
X139050301Y-143946967D01*
X139069941Y-143747557D01*
X139074683Y-143723716D01*
X139130190Y-143540734D01*
X139139493Y-143518276D01*
X139229627Y-143349646D01*
X139243132Y-143329434D01*
X139364436Y-143181626D01*
X139381624Y-143164438D01*
X139529431Y-143043135D01*
X139549642Y-143029630D01*
X139718275Y-142939493D01*
X139740734Y-142930190D01*
X139923713Y-142874684D01*
X139947553Y-142869942D01*
X140146965Y-142850301D01*
X140153046Y-142850002D01*
X143350002Y-142849997D01*
X143564606Y-142828862D01*
X143770952Y-142766267D01*
X143961133Y-142664611D01*
X144066491Y-142578147D01*
X144130801Y-142550834D01*
X144145156Y-142550000D01*
X145854829Y-142550000D01*
X145921868Y-142569685D01*
G37*
G36*
X130921868Y-142569685D02*
G01*
X130933493Y-142578146D01*
X131038867Y-142664623D01*
X131038873Y-142664628D01*
X131229037Y-142766273D01*
X131435394Y-142828871D01*
X131649994Y-142850008D01*
X134846951Y-142850003D01*
X134853031Y-142850302D01*
X135052442Y-142869941D01*
X135076283Y-142874683D01*
X135259265Y-142930190D01*
X135281723Y-142939493D01*
X135450353Y-143029627D01*
X135470565Y-143043132D01*
X135618373Y-143164436D01*
X135635561Y-143181624D01*
X135756864Y-143329431D01*
X135770369Y-143349642D01*
X135860506Y-143518275D01*
X135869809Y-143540734D01*
X135925315Y-143723713D01*
X135930057Y-143747553D01*
X135949698Y-143946965D01*
X135949997Y-143953046D01*
X135949997Y-146046951D01*
X135949698Y-146053032D01*
X135930058Y-146252442D01*
X135925316Y-146276283D01*
X135869809Y-146459265D01*
X135860506Y-146481723D01*
X135770372Y-146650351D01*
X135756868Y-146670562D01*
X135635564Y-146818373D01*
X135618375Y-146835562D01*
X135470567Y-146956865D01*
X135450356Y-146970370D01*
X135281727Y-147060505D01*
X135259268Y-147069808D01*
X135076287Y-147125315D01*
X135052447Y-147130057D01*
X134850004Y-147149997D01*
X134615459Y-147169437D01*
X134615458Y-147169437D01*
X134387307Y-147227212D01*
X134171782Y-147321749D01*
X133974747Y-147450478D01*
X133801605Y-147609864D01*
X133801595Y-147609875D01*
X133729765Y-147702163D01*
X133673055Y-147742976D01*
X133631912Y-147750000D01*
X126368094Y-147750000D01*
X126301055Y-147730315D01*
X126270240Y-147702162D01*
X126198408Y-147609872D01*
X126025253Y-147450472D01*
X125828222Y-147321745D01*
X125612697Y-147227207D01*
X125384543Y-147169431D01*
X125150000Y-147149997D01*
X124947557Y-147130058D01*
X124923716Y-147125316D01*
X124740734Y-147069809D01*
X124718276Y-147060506D01*
X124549646Y-146970372D01*
X124529434Y-146956867D01*
X124381626Y-146835563D01*
X124364438Y-146818375D01*
X124243135Y-146670568D01*
X124229630Y-146650357D01*
X124139493Y-146481724D01*
X124130190Y-146459265D01*
X124074683Y-146276281D01*
X124069942Y-146252446D01*
X124050292Y-146053036D01*
X124049993Y-146046952D01*
X124050002Y-143953048D01*
X124050301Y-143946967D01*
X124069941Y-143747557D01*
X124074683Y-143723716D01*
X124130190Y-143540734D01*
X124139493Y-143518276D01*
X124229627Y-143349646D01*
X124243132Y-143329434D01*
X124364436Y-143181626D01*
X124381624Y-143164438D01*
X124529431Y-143043135D01*
X124549642Y-143029630D01*
X124718275Y-142939493D01*
X124740734Y-142930190D01*
X124923713Y-142874684D01*
X124947553Y-142869942D01*
X125146965Y-142850301D01*
X125153046Y-142850002D01*
X128350002Y-142849997D01*
X128564606Y-142828862D01*
X128770952Y-142766267D01*
X128961133Y-142664611D01*
X129066491Y-142578147D01*
X129130801Y-142550834D01*
X129145156Y-142550000D01*
X130854829Y-142550000D01*
X130921868Y-142569685D01*
G37*
G36*
X115921868Y-142569685D02*
G01*
X115933493Y-142578146D01*
X116038867Y-142664623D01*
X116038873Y-142664628D01*
X116229037Y-142766273D01*
X116435394Y-142828871D01*
X116649994Y-142850008D01*
X119846951Y-142850003D01*
X119853031Y-142850302D01*
X120052442Y-142869941D01*
X120076283Y-142874683D01*
X120259265Y-142930190D01*
X120281723Y-142939493D01*
X120450353Y-143029627D01*
X120470565Y-143043132D01*
X120618373Y-143164436D01*
X120635561Y-143181624D01*
X120756864Y-143329431D01*
X120770369Y-143349642D01*
X120860506Y-143518275D01*
X120869809Y-143540734D01*
X120925315Y-143723713D01*
X120930057Y-143747553D01*
X120949698Y-143946965D01*
X120949997Y-143953046D01*
X120949996Y-146046951D01*
X120949697Y-146053031D01*
X120930058Y-146252442D01*
X120925316Y-146276283D01*
X120869809Y-146459265D01*
X120860506Y-146481723D01*
X120770372Y-146650351D01*
X120756868Y-146670562D01*
X120635564Y-146818373D01*
X120618375Y-146835562D01*
X120470567Y-146956865D01*
X120450356Y-146970370D01*
X120281727Y-147060505D01*
X120259268Y-147069808D01*
X120076287Y-147125315D01*
X120052447Y-147130057D01*
X119850004Y-147149997D01*
X119615459Y-147169437D01*
X119615458Y-147169437D01*
X119387307Y-147227212D01*
X119171782Y-147321749D01*
X118974747Y-147450478D01*
X118801605Y-147609864D01*
X118801595Y-147609875D01*
X118729765Y-147702163D01*
X118673055Y-147742976D01*
X118631912Y-147750000D01*
X111368094Y-147750000D01*
X111301055Y-147730315D01*
X111270240Y-147702162D01*
X111198409Y-147609873D01*
X111025252Y-147450469D01*
X110828225Y-147321746D01*
X110612697Y-147227207D01*
X110384548Y-147169432D01*
X110384540Y-147169430D01*
X110150000Y-147149997D01*
X109947557Y-147130058D01*
X109923716Y-147125316D01*
X109740734Y-147069809D01*
X109718276Y-147060506D01*
X109549646Y-146970372D01*
X109529434Y-146956867D01*
X109381626Y-146835563D01*
X109364438Y-146818375D01*
X109243135Y-146670568D01*
X109229630Y-146650357D01*
X109139493Y-146481724D01*
X109130190Y-146459265D01*
X109074684Y-146276286D01*
X109069942Y-146252445D01*
X109050301Y-146053027D01*
X109050002Y-146046946D01*
X109050002Y-143953048D01*
X109050301Y-143946967D01*
X109069941Y-143747557D01*
X109074683Y-143723716D01*
X109130190Y-143540734D01*
X109139493Y-143518276D01*
X109229627Y-143349646D01*
X109243132Y-143329434D01*
X109364436Y-143181626D01*
X109381624Y-143164438D01*
X109529431Y-143043135D01*
X109549642Y-143029630D01*
X109718275Y-142939493D01*
X109740734Y-142930190D01*
X109923713Y-142874684D01*
X109947553Y-142869942D01*
X110146965Y-142850301D01*
X110153046Y-142850002D01*
X113350002Y-142849997D01*
X113564606Y-142828862D01*
X113770952Y-142766267D01*
X113961133Y-142664611D01*
X114066491Y-142578147D01*
X114130801Y-142550834D01*
X114145156Y-142550000D01*
X115854829Y-142550000D01*
X115921868Y-142569685D01*
G37*
G36*
X100921868Y-142569685D02*
G01*
X100933493Y-142578146D01*
X101038867Y-142664623D01*
X101038873Y-142664628D01*
X101229037Y-142766273D01*
X101435394Y-142828871D01*
X101649994Y-142850008D01*
X104846951Y-142850003D01*
X104853031Y-142850302D01*
X105052442Y-142869941D01*
X105076283Y-142874683D01*
X105259265Y-142930190D01*
X105281723Y-142939493D01*
X105450353Y-143029627D01*
X105470565Y-143043132D01*
X105618373Y-143164436D01*
X105635561Y-143181624D01*
X105756864Y-143329431D01*
X105770369Y-143349642D01*
X105860506Y-143518275D01*
X105869809Y-143540734D01*
X105925315Y-143723713D01*
X105930057Y-143747551D01*
X105949702Y-143946969D01*
X105950001Y-143953051D01*
X105949997Y-146046951D01*
X105949698Y-146053032D01*
X105930058Y-146252442D01*
X105925316Y-146276283D01*
X105869809Y-146459265D01*
X105860506Y-146481723D01*
X105770372Y-146650351D01*
X105756868Y-146670562D01*
X105635564Y-146818373D01*
X105618375Y-146835562D01*
X105470567Y-146956865D01*
X105450356Y-146970370D01*
X105281727Y-147060505D01*
X105259268Y-147069808D01*
X105076287Y-147125315D01*
X105052447Y-147130057D01*
X104850005Y-147149997D01*
X104615461Y-147169436D01*
X104615459Y-147169436D01*
X104387309Y-147227211D01*
X104171779Y-147321750D01*
X103974753Y-147450473D01*
X103801595Y-147609876D01*
X103729765Y-147702163D01*
X103673055Y-147742976D01*
X103631912Y-147750000D01*
X96368094Y-147750000D01*
X96301055Y-147730315D01*
X96270240Y-147702162D01*
X96198409Y-147609873D01*
X96025252Y-147450469D01*
X95828225Y-147321746D01*
X95612697Y-147227207D01*
X95384548Y-147169432D01*
X95384540Y-147169430D01*
X95150000Y-147149997D01*
X94947557Y-147130058D01*
X94923716Y-147125316D01*
X94740734Y-147069809D01*
X94718276Y-147060506D01*
X94549646Y-146970372D01*
X94529434Y-146956867D01*
X94381626Y-146835563D01*
X94364438Y-146818375D01*
X94243135Y-146670568D01*
X94229630Y-146650357D01*
X94139493Y-146481724D01*
X94130190Y-146459265D01*
X94074684Y-146276286D01*
X94069942Y-146252446D01*
X94050301Y-146053031D01*
X94050002Y-146046950D01*
X94050002Y-143953048D01*
X94050301Y-143946967D01*
X94069941Y-143747557D01*
X94074683Y-143723716D01*
X94130190Y-143540734D01*
X94139493Y-143518276D01*
X94229627Y-143349646D01*
X94243132Y-143329434D01*
X94364436Y-143181626D01*
X94381624Y-143164438D01*
X94529431Y-143043135D01*
X94549642Y-143029630D01*
X94718275Y-142939493D01*
X94740734Y-142930190D01*
X94923713Y-142874684D01*
X94947553Y-142869942D01*
X95146965Y-142850301D01*
X95153046Y-142850002D01*
X98350002Y-142849997D01*
X98564606Y-142828862D01*
X98770952Y-142766267D01*
X98961133Y-142664611D01*
X99066491Y-142578147D01*
X99130801Y-142550834D01*
X99145156Y-142550000D01*
X100854829Y-142550000D01*
X100921868Y-142569685D01*
G37*
G36*
X176001735Y-46000098D02*
G01*
X176332414Y-46018667D01*
X176339329Y-46019446D01*
X176664125Y-46074632D01*
X176670909Y-46076180D01*
X176987491Y-46167386D01*
X176994058Y-46169684D01*
X177298430Y-46295758D01*
X177304699Y-46298777D01*
X177593051Y-46458144D01*
X177598943Y-46461846D01*
X177867621Y-46652484D01*
X177873061Y-46656822D01*
X178118721Y-46876358D01*
X178123641Y-46881278D01*
X178343177Y-47126938D01*
X178347515Y-47132378D01*
X178538153Y-47401056D01*
X178541855Y-47406948D01*
X178701222Y-47695300D01*
X178704241Y-47701569D01*
X178830315Y-48005941D01*
X178832613Y-48012508D01*
X178923819Y-48329090D01*
X178925367Y-48335874D01*
X178980553Y-48660670D01*
X178981332Y-48667585D01*
X178999902Y-48998264D01*
X179000000Y-49001741D01*
X179000000Y-155998258D01*
X178999902Y-156001735D01*
X178981332Y-156332414D01*
X178980553Y-156339329D01*
X178925367Y-156664125D01*
X178923819Y-156670909D01*
X178832613Y-156987491D01*
X178830315Y-156994058D01*
X178704241Y-157298430D01*
X178701222Y-157304699D01*
X178541855Y-157593051D01*
X178538153Y-157598943D01*
X178347515Y-157867621D01*
X178343177Y-157873061D01*
X178123641Y-158118721D01*
X178118721Y-158123641D01*
X177873061Y-158343177D01*
X177867621Y-158347515D01*
X177598943Y-158538153D01*
X177593051Y-158541855D01*
X177304699Y-158701222D01*
X177298430Y-158704241D01*
X176994058Y-158830315D01*
X176987491Y-158832613D01*
X176670909Y-158923819D01*
X176664125Y-158925367D01*
X176339329Y-158980553D01*
X176332414Y-158981332D01*
X176001735Y-158999902D01*
X175998258Y-159000000D01*
X69001742Y-159000000D01*
X68998265Y-158999902D01*
X68667585Y-158981332D01*
X68660670Y-158980553D01*
X68335874Y-158925367D01*
X68329090Y-158923819D01*
X68012508Y-158832613D01*
X68005941Y-158830315D01*
X67701569Y-158704241D01*
X67695300Y-158701222D01*
X67406948Y-158541855D01*
X67401056Y-158538153D01*
X67132378Y-158347515D01*
X67126938Y-158343177D01*
X66881278Y-158123641D01*
X66876358Y-158118721D01*
X66656822Y-157873061D01*
X66652484Y-157867621D01*
X66461846Y-157598943D01*
X66458144Y-157593051D01*
X66298777Y-157304699D01*
X66295758Y-157298430D01*
X66169684Y-156994058D01*
X66167386Y-156987491D01*
X66076180Y-156670909D01*
X66074632Y-156664125D01*
X66019446Y-156339329D01*
X66018667Y-156332414D01*
X66000098Y-156001735D01*
X66000049Y-156000000D01*
X67997422Y-156000000D01*
X68017943Y-156201819D01*
X68078669Y-156395364D01*
X68078676Y-156395379D01*
X68177118Y-156572738D01*
X68177121Y-156572743D01*
X68309255Y-156726660D01*
X68309256Y-156726662D01*
X68469668Y-156850829D01*
X68651798Y-156940169D01*
X68848182Y-156991016D01*
X68848179Y-156991016D01*
X69050780Y-157001291D01*
X69050782Y-157001291D01*
X69251294Y-156970573D01*
X69251300Y-156970572D01*
X69441522Y-156900122D01*
X69441529Y-156900119D01*
X69613685Y-156792813D01*
X69760715Y-156653051D01*
X69876600Y-156486554D01*
X69956600Y-156300133D01*
X69997435Y-156101424D01*
X70000000Y-156000000D01*
X174997422Y-156000000D01*
X175017943Y-156201819D01*
X175078669Y-156395364D01*
X175078676Y-156395379D01*
X175177118Y-156572738D01*
X175177121Y-156572743D01*
X175309255Y-156726660D01*
X175309256Y-156726662D01*
X175469668Y-156850829D01*
X175651798Y-156940169D01*
X175848182Y-156991016D01*
X175848179Y-156991016D01*
X176050780Y-157001291D01*
X176050782Y-157001291D01*
X176251294Y-156970573D01*
X176251300Y-156970572D01*
X176441522Y-156900122D01*
X176441529Y-156900119D01*
X176613685Y-156792813D01*
X176760715Y-156653051D01*
X176876600Y-156486554D01*
X176956600Y-156300133D01*
X176997435Y-156101424D01*
X177000000Y-156000000D01*
X176997435Y-155898575D01*
X176956600Y-155699866D01*
X176876600Y-155513445D01*
X176760715Y-155346948D01*
X176613685Y-155207186D01*
X176441529Y-155099880D01*
X176441522Y-155099877D01*
X176251300Y-155029427D01*
X176251294Y-155029426D01*
X176050781Y-154998708D01*
X175848181Y-155008983D01*
X175651798Y-155059830D01*
X175469668Y-155149170D01*
X175309256Y-155273337D01*
X175309255Y-155273339D01*
X175177121Y-155427256D01*
X175177118Y-155427261D01*
X175078676Y-155604620D01*
X175078669Y-155604635D01*
X175017943Y-155798180D01*
X174997422Y-156000000D01*
X70000000Y-156000000D01*
X69997435Y-155898575D01*
X69956600Y-155699866D01*
X69876600Y-155513445D01*
X69760715Y-155346948D01*
X69613685Y-155207186D01*
X69441529Y-155099880D01*
X69441522Y-155099877D01*
X69251300Y-155029427D01*
X69251294Y-155029426D01*
X69050781Y-154998708D01*
X68848181Y-155008983D01*
X68651798Y-155059830D01*
X68469668Y-155149170D01*
X68309256Y-155273337D01*
X68309255Y-155273339D01*
X68177121Y-155427256D01*
X68177118Y-155427261D01*
X68078676Y-155604620D01*
X68078669Y-155604635D01*
X68017943Y-155798180D01*
X67997422Y-156000000D01*
X66000049Y-156000000D01*
X66000000Y-155998258D01*
X66000000Y-147499997D01*
X75000000Y-147499997D01*
X75021387Y-147826297D01*
X75021391Y-147826324D01*
X75085185Y-148147041D01*
X75085188Y-148147055D01*
X75190300Y-148456703D01*
X75190309Y-148456724D01*
X75334937Y-148750000D01*
X75516618Y-149021904D01*
X75732232Y-149267766D01*
X75978095Y-149483380D01*
X76250003Y-149665064D01*
X76543288Y-149809696D01*
X76852943Y-149914811D01*
X76852957Y-149914814D01*
X77173674Y-149978608D01*
X77173686Y-149978610D01*
X77500003Y-149999998D01*
X95149996Y-149999997D01*
X95149997Y-149999997D01*
X95384550Y-149980567D01*
X95612696Y-149922792D01*
X95828222Y-149828254D01*
X95917096Y-149770191D01*
X95983986Y-149750004D01*
X95984918Y-149750000D01*
X104015093Y-149750000D01*
X104082132Y-149769685D01*
X104082914Y-149770191D01*
X104171779Y-149828249D01*
X104387307Y-149922787D01*
X104615460Y-149980562D01*
X104850006Y-149999997D01*
X110149997Y-149999997D01*
X110384550Y-149980567D01*
X110612696Y-149922792D01*
X110828222Y-149828254D01*
X110917096Y-149770191D01*
X110983986Y-149750004D01*
X110984918Y-149750000D01*
X119015093Y-149750000D01*
X119082132Y-149769685D01*
X119082914Y-149770191D01*
X119171779Y-149828249D01*
X119387307Y-149922787D01*
X119615460Y-149980562D01*
X119850006Y-149999997D01*
X125149997Y-149999997D01*
X125384550Y-149980567D01*
X125612696Y-149922792D01*
X125828225Y-149828254D01*
X125917094Y-149770192D01*
X125983984Y-149750004D01*
X125984917Y-149750000D01*
X134015093Y-149750000D01*
X134082132Y-149769685D01*
X134082914Y-149770191D01*
X134171779Y-149828249D01*
X134387307Y-149922787D01*
X134615460Y-149980562D01*
X134850006Y-149999997D01*
X140149997Y-149999997D01*
X140384550Y-149980567D01*
X140612696Y-149922792D01*
X140828222Y-149828254D01*
X140917096Y-149770191D01*
X140983986Y-149750004D01*
X140984918Y-149750000D01*
X149015093Y-149750000D01*
X149082132Y-149769685D01*
X149082914Y-149770191D01*
X149171779Y-149828249D01*
X149387307Y-149922787D01*
X149615460Y-149980562D01*
X149850006Y-149999997D01*
X167499996Y-150000000D01*
X167499997Y-150000000D01*
X167826297Y-149978612D01*
X167826324Y-149978608D01*
X168147041Y-149914814D01*
X168147055Y-149914811D01*
X168456703Y-149809699D01*
X168456724Y-149809690D01*
X168750000Y-149665062D01*
X169021904Y-149483381D01*
X169267766Y-149267767D01*
X169483380Y-149021904D01*
X169665064Y-148749996D01*
X169809696Y-148456711D01*
X169914811Y-148147056D01*
X169914814Y-148147042D01*
X169978608Y-147826325D01*
X169978610Y-147826313D01*
X169999999Y-147499996D01*
X169999999Y-147499997D01*
X170000001Y-129850004D01*
X169980566Y-129615458D01*
X169922790Y-129387304D01*
X169828251Y-129171777D01*
X169770191Y-129082908D01*
X169750003Y-129016018D01*
X169750000Y-129015087D01*
X169750000Y-120984914D01*
X169769685Y-120917875D01*
X169770191Y-120917092D01*
X169828253Y-120828220D01*
X169922791Y-120612694D01*
X169980566Y-120384542D01*
X170000001Y-120149996D01*
X170000001Y-114850004D01*
X169980566Y-114615458D01*
X169922790Y-114387304D01*
X169828251Y-114171777D01*
X169770191Y-114082908D01*
X169750003Y-114016018D01*
X169750000Y-114015087D01*
X169750000Y-105984910D01*
X169769685Y-105917871D01*
X169770192Y-105917088D01*
X169828250Y-105828224D01*
X169922790Y-105612695D01*
X169980566Y-105384541D01*
X170000001Y-105149996D01*
X170000001Y-99850003D01*
X169980564Y-99615457D01*
X169922789Y-99387306D01*
X169828250Y-99171777D01*
X169770191Y-99082910D01*
X169750003Y-99016021D01*
X169750000Y-99015089D01*
X169750000Y-90984910D01*
X169769685Y-90917871D01*
X169770192Y-90917088D01*
X169828250Y-90828224D01*
X169922790Y-90612695D01*
X169980566Y-90384541D01*
X170000001Y-90149996D01*
X170000001Y-84850004D01*
X169980566Y-84615458D01*
X169922790Y-84387304D01*
X169828251Y-84171777D01*
X169770191Y-84082908D01*
X169750003Y-84016018D01*
X169750000Y-84015087D01*
X169750000Y-75984910D01*
X169769685Y-75917871D01*
X169770192Y-75917088D01*
X169828250Y-75828224D01*
X169922790Y-75612695D01*
X169980566Y-75384541D01*
X170000001Y-75149996D01*
X170000000Y-57500004D01*
X170000000Y-57500003D01*
X169978612Y-57173702D01*
X169978608Y-57173675D01*
X169914814Y-56852958D01*
X169914811Y-56852944D01*
X169809699Y-56543296D01*
X169809690Y-56543275D01*
X169665062Y-56249999D01*
X169483381Y-55978095D01*
X169267767Y-55732233D01*
X169021904Y-55516619D01*
X168749996Y-55334935D01*
X168456711Y-55190303D01*
X168147056Y-55085188D01*
X168147042Y-55085185D01*
X167826325Y-55021391D01*
X167826313Y-55021389D01*
X167499996Y-55000001D01*
X149850004Y-55000003D01*
X149850003Y-55000003D01*
X149615449Y-55019432D01*
X149387303Y-55077207D01*
X149171777Y-55171745D01*
X149082904Y-55229809D01*
X149016014Y-55249996D01*
X149015082Y-55250000D01*
X140984907Y-55250000D01*
X140917868Y-55230315D01*
X140917086Y-55229809D01*
X140828220Y-55171750D01*
X140612692Y-55077212D01*
X140384539Y-55019437D01*
X140149994Y-55000003D01*
X134850003Y-55000003D01*
X134615449Y-55019432D01*
X134387303Y-55077207D01*
X134171777Y-55171745D01*
X134082904Y-55229809D01*
X134016014Y-55249996D01*
X134015082Y-55250000D01*
X125984907Y-55250000D01*
X125917868Y-55230315D01*
X125917086Y-55229809D01*
X125828220Y-55171750D01*
X125612692Y-55077212D01*
X125384539Y-55019437D01*
X125149994Y-55000003D01*
X119850003Y-55000003D01*
X119615449Y-55019432D01*
X119387303Y-55077207D01*
X119171777Y-55171745D01*
X119082904Y-55229809D01*
X119016014Y-55249996D01*
X119015082Y-55250000D01*
X110984907Y-55250000D01*
X110917868Y-55230315D01*
X110917086Y-55229809D01*
X110828220Y-55171750D01*
X110612692Y-55077212D01*
X110384539Y-55019437D01*
X110149994Y-55000003D01*
X104850003Y-55000003D01*
X104615449Y-55019432D01*
X104387303Y-55077207D01*
X104171777Y-55171745D01*
X104082904Y-55229809D01*
X104016014Y-55249996D01*
X104015082Y-55250000D01*
X95984907Y-55250000D01*
X95917868Y-55230315D01*
X95917086Y-55229809D01*
X95828220Y-55171750D01*
X95612692Y-55077212D01*
X95384540Y-55019437D01*
X95150001Y-54999997D01*
X77500004Y-55000000D01*
X77173686Y-55021388D01*
X77173674Y-55021390D01*
X76852957Y-55085184D01*
X76852943Y-55085187D01*
X76543295Y-55190299D01*
X76543274Y-55190308D01*
X76250003Y-55334933D01*
X75978094Y-55516618D01*
X75732232Y-55732232D01*
X75516618Y-55978094D01*
X75334933Y-56250003D01*
X75190308Y-56543274D01*
X75190299Y-56543295D01*
X75085187Y-56852943D01*
X75085184Y-56852957D01*
X75021390Y-57173674D01*
X75021388Y-57173686D01*
X75000000Y-57500003D01*
X75000003Y-75149998D01*
X75019437Y-75384543D01*
X75077213Y-75612697D01*
X75171753Y-75828226D01*
X75229808Y-75917084D01*
X75249996Y-75983973D01*
X75250000Y-75984906D01*
X75250000Y-84015092D01*
X75230315Y-84082131D01*
X75229809Y-84082913D01*
X75171750Y-84171778D01*
X75077212Y-84387307D01*
X75019437Y-84615460D01*
X75000003Y-84850006D01*
X75000003Y-90149998D01*
X75019437Y-90384543D01*
X75077213Y-90612697D01*
X75171753Y-90828226D01*
X75229808Y-90917084D01*
X75249996Y-90983973D01*
X75250000Y-90984906D01*
X75250000Y-99015095D01*
X75230315Y-99082134D01*
X75229809Y-99082916D01*
X75171752Y-99171779D01*
X75077213Y-99387306D01*
X75019437Y-99615460D01*
X75000003Y-99850006D01*
X75000003Y-105149997D01*
X75019432Y-105384550D01*
X75077207Y-105612696D01*
X75171745Y-105828225D01*
X75229808Y-105917094D01*
X75249996Y-105983984D01*
X75250000Y-105984917D01*
X75250000Y-114015095D01*
X75230315Y-114082134D01*
X75229809Y-114082916D01*
X75171752Y-114171779D01*
X75077213Y-114387306D01*
X75019437Y-114615460D01*
X75000003Y-114850006D01*
X75000003Y-120149998D01*
X75019437Y-120384543D01*
X75077213Y-120612697D01*
X75171753Y-120828226D01*
X75229808Y-120917084D01*
X75249996Y-120983973D01*
X75250000Y-120984906D01*
X75250000Y-129015095D01*
X75230315Y-129082134D01*
X75229809Y-129082916D01*
X75171752Y-129171779D01*
X75077213Y-129387306D01*
X75019437Y-129615460D01*
X75000003Y-129850006D01*
X75000000Y-147499996D01*
X75000000Y-147499997D01*
X66000000Y-147499997D01*
X66000000Y-49001741D01*
X66000049Y-49000000D01*
X67997422Y-49000000D01*
X68017943Y-49201819D01*
X68078669Y-49395364D01*
X68078676Y-49395379D01*
X68177118Y-49572738D01*
X68177121Y-49572743D01*
X68309255Y-49726660D01*
X68309256Y-49726662D01*
X68469668Y-49850829D01*
X68651798Y-49940169D01*
X68848182Y-49991016D01*
X68848179Y-49991016D01*
X69050780Y-50001291D01*
X69050782Y-50001291D01*
X69251294Y-49970573D01*
X69251300Y-49970572D01*
X69441522Y-49900122D01*
X69441529Y-49900119D01*
X69613685Y-49792813D01*
X69760715Y-49653051D01*
X69876600Y-49486554D01*
X69956600Y-49300133D01*
X69997435Y-49101424D01*
X70000000Y-49000000D01*
X174997422Y-49000000D01*
X175017943Y-49201819D01*
X175078669Y-49395364D01*
X175078676Y-49395379D01*
X175177118Y-49572738D01*
X175177121Y-49572743D01*
X175309255Y-49726660D01*
X175309256Y-49726662D01*
X175469668Y-49850829D01*
X175651798Y-49940169D01*
X175848182Y-49991016D01*
X175848179Y-49991016D01*
X176050780Y-50001291D01*
X176050782Y-50001291D01*
X176251294Y-49970573D01*
X176251300Y-49970572D01*
X176441522Y-49900122D01*
X176441529Y-49900119D01*
X176613685Y-49792813D01*
X176760715Y-49653051D01*
X176876600Y-49486554D01*
X176956600Y-49300133D01*
X176997435Y-49101424D01*
X177000000Y-49000000D01*
X176997435Y-48898575D01*
X176956600Y-48699866D01*
X176876600Y-48513445D01*
X176760715Y-48346948D01*
X176613685Y-48207186D01*
X176441529Y-48099880D01*
X176441522Y-48099877D01*
X176251300Y-48029427D01*
X176251294Y-48029426D01*
X176050781Y-47998708D01*
X175848181Y-48008983D01*
X175651798Y-48059830D01*
X175469668Y-48149170D01*
X175309256Y-48273337D01*
X175309255Y-48273339D01*
X175177121Y-48427256D01*
X175177118Y-48427261D01*
X175078676Y-48604620D01*
X175078669Y-48604635D01*
X175017943Y-48798180D01*
X174997422Y-49000000D01*
X70000000Y-49000000D01*
X69997435Y-48898575D01*
X69956600Y-48699866D01*
X69876600Y-48513445D01*
X69760715Y-48346948D01*
X69613685Y-48207186D01*
X69441529Y-48099880D01*
X69441522Y-48099877D01*
X69251300Y-48029427D01*
X69251294Y-48029426D01*
X69050781Y-47998708D01*
X68848181Y-48008983D01*
X68651798Y-48059830D01*
X68469668Y-48149170D01*
X68309256Y-48273337D01*
X68309255Y-48273339D01*
X68177121Y-48427256D01*
X68177118Y-48427261D01*
X68078676Y-48604620D01*
X68078669Y-48604635D01*
X68017943Y-48798180D01*
X67997422Y-49000000D01*
X66000049Y-49000000D01*
X66000098Y-48998264D01*
X66018667Y-48667585D01*
X66019446Y-48660670D01*
X66074632Y-48335874D01*
X66076180Y-48329090D01*
X66167386Y-48012508D01*
X66169684Y-48005941D01*
X66295758Y-47701569D01*
X66298777Y-47695300D01*
X66458144Y-47406948D01*
X66461846Y-47401056D01*
X66652484Y-47132378D01*
X66656822Y-47126938D01*
X66876358Y-46881278D01*
X66881278Y-46876358D01*
X67126938Y-46656822D01*
X67132378Y-46652484D01*
X67401056Y-46461846D01*
X67406948Y-46458144D01*
X67695300Y-46298777D01*
X67701569Y-46295758D01*
X68005941Y-46169684D01*
X68012508Y-46167386D01*
X68329090Y-46076180D01*
X68335874Y-46074632D01*
X68660670Y-46019446D01*
X68667585Y-46018667D01*
X68998265Y-46000098D01*
X69001742Y-46000000D01*
X175998258Y-46000000D01*
X176001735Y-46000098D01*
G37*
G36*
X170001511Y-54750075D02*
G01*
X170021460Y-54751055D01*
X170027517Y-54751651D01*
X170045756Y-54754356D01*
X170051727Y-54755544D01*
X170069613Y-54760023D01*
X170075443Y-54761792D01*
X170092801Y-54768003D01*
X170098423Y-54770332D01*
X170115093Y-54778216D01*
X170120462Y-54781086D01*
X170136281Y-54790567D01*
X170141342Y-54793949D01*
X170156146Y-54804928D01*
X170160851Y-54808789D01*
X170174516Y-54821173D01*
X170178826Y-54825483D01*
X170191210Y-54839148D01*
X170195071Y-54843853D01*
X170206050Y-54858657D01*
X170209432Y-54863718D01*
X170218913Y-54879537D01*
X170221783Y-54884906D01*
X170229667Y-54901576D01*
X170231996Y-54907198D01*
X170238207Y-54924556D01*
X170239976Y-54930386D01*
X170244455Y-54948272D01*
X170245643Y-54954243D01*
X170248348Y-54972480D01*
X170248944Y-54978533D01*
X170249925Y-54998482D01*
X170250000Y-55001528D01*
X170250000Y-149998471D01*
X170249925Y-150001517D01*
X170248944Y-150021466D01*
X170248348Y-150027519D01*
X170245643Y-150045756D01*
X170244455Y-150051727D01*
X170239976Y-150069613D01*
X170238207Y-150075443D01*
X170231996Y-150092801D01*
X170229667Y-150098423D01*
X170221783Y-150115093D01*
X170218913Y-150120462D01*
X170209432Y-150136281D01*
X170206050Y-150141342D01*
X170195071Y-150156146D01*
X170191210Y-150160851D01*
X170178826Y-150174516D01*
X170174516Y-150178826D01*
X170160851Y-150191210D01*
X170156146Y-150195071D01*
X170141342Y-150206050D01*
X170136281Y-150209432D01*
X170120462Y-150218913D01*
X170115093Y-150221783D01*
X170098423Y-150229667D01*
X170092801Y-150231996D01*
X170075443Y-150238207D01*
X170069613Y-150239976D01*
X170051727Y-150244455D01*
X170045756Y-150245643D01*
X170027519Y-150248348D01*
X170021466Y-150248944D01*
X170001517Y-150249925D01*
X169998471Y-150250000D01*
X75001529Y-150250000D01*
X74998483Y-150249925D01*
X74978534Y-150248944D01*
X74972480Y-150248348D01*
X74954243Y-150245643D01*
X74948272Y-150244455D01*
X74930386Y-150239976D01*
X74924556Y-150238207D01*
X74907198Y-150231996D01*
X74901576Y-150229667D01*
X74884906Y-150221783D01*
X74879537Y-150218913D01*
X74863718Y-150209432D01*
X74858657Y-150206050D01*
X74843853Y-150195071D01*
X74839148Y-150191210D01*
X74825483Y-150178826D01*
X74821173Y-150174516D01*
X74808789Y-150160851D01*
X74804928Y-150156146D01*
X74793949Y-150141342D01*
X74790567Y-150136281D01*
X74781086Y-150120462D01*
X74778216Y-150115093D01*
X74770332Y-150098423D01*
X74768003Y-150092801D01*
X74761792Y-150075443D01*
X74760023Y-150069613D01*
X74755544Y-150051727D01*
X74754356Y-150045756D01*
X74751651Y-150027517D01*
X74751055Y-150021460D01*
X74750075Y-150001511D01*
X74750000Y-149998469D01*
X74750000Y-147499997D01*
X75000000Y-147499997D01*
X75021387Y-147826297D01*
X75021391Y-147826324D01*
X75085185Y-148147041D01*
X75085188Y-148147055D01*
X75190300Y-148456703D01*
X75190309Y-148456724D01*
X75334937Y-148750000D01*
X75516618Y-149021904D01*
X75732232Y-149267766D01*
X75978095Y-149483380D01*
X76250003Y-149665064D01*
X76543288Y-149809696D01*
X76852943Y-149914811D01*
X76852957Y-149914814D01*
X77173674Y-149978608D01*
X77173686Y-149978610D01*
X77500003Y-149999998D01*
X95149996Y-149999997D01*
X95149997Y-149999997D01*
X95384550Y-149980567D01*
X95612696Y-149922792D01*
X95828225Y-149828253D01*
X96025252Y-149699530D01*
X96198411Y-149540125D01*
X96198414Y-149540121D01*
X96342961Y-149354406D01*
X96342968Y-149354397D01*
X96454976Y-149147423D01*
X96454981Y-149147412D01*
X96531397Y-148924820D01*
X96570136Y-148692674D01*
X96570136Y-148457325D01*
X96531397Y-148225179D01*
X96454981Y-148002587D01*
X96454976Y-148002576D01*
X96342968Y-147795602D01*
X96342961Y-147795593D01*
X96198414Y-147609878D01*
X96198411Y-147609874D01*
X96025252Y-147450469D01*
X95828225Y-147321746D01*
X95612697Y-147227207D01*
X95384548Y-147169432D01*
X95384540Y-147169430D01*
X95150000Y-147149997D01*
X94947557Y-147130058D01*
X94923716Y-147125316D01*
X94740734Y-147069809D01*
X94718276Y-147060506D01*
X94549646Y-146970372D01*
X94529434Y-146956867D01*
X94381626Y-146835563D01*
X94364438Y-146818375D01*
X94243135Y-146670568D01*
X94229630Y-146650357D01*
X94139493Y-146481724D01*
X94130190Y-146459265D01*
X94074684Y-146276286D01*
X94069942Y-146252446D01*
X94050301Y-146053031D01*
X94050002Y-146046950D01*
X94050002Y-143953048D01*
X94050301Y-143946967D01*
X94069941Y-143747557D01*
X94074683Y-143723716D01*
X94130190Y-143540734D01*
X94139493Y-143518276D01*
X94229627Y-143349646D01*
X94243132Y-143329434D01*
X94364436Y-143181626D01*
X94381624Y-143164438D01*
X94529431Y-143043135D01*
X94549642Y-143029630D01*
X94718275Y-142939493D01*
X94740734Y-142930190D01*
X94923713Y-142874684D01*
X94947553Y-142869942D01*
X95146965Y-142850301D01*
X95153046Y-142850002D01*
X98350002Y-142849997D01*
X98564606Y-142828862D01*
X98770952Y-142766267D01*
X98961133Y-142664611D01*
X99127819Y-142527815D01*
X99264617Y-142361124D01*
X99264621Y-142361118D01*
X99366266Y-142170954D01*
X99428864Y-141964597D01*
X99450000Y-141749996D01*
X99450000Y-140424000D01*
X99469685Y-140356961D01*
X99522489Y-140311206D01*
X99574000Y-140300000D01*
X100425994Y-140300000D01*
X100493033Y-140319685D01*
X100538788Y-140372489D01*
X100549994Y-140424000D01*
X100549994Y-141750011D01*
X100571130Y-141964615D01*
X100633725Y-142170957D01*
X100633727Y-142170961D01*
X100735381Y-142361140D01*
X100872178Y-142527826D01*
X101038864Y-142664621D01*
X101229039Y-142766273D01*
X101435394Y-142828871D01*
X101649994Y-142850008D01*
X104846951Y-142850003D01*
X104853031Y-142850302D01*
X105052442Y-142869941D01*
X105076283Y-142874683D01*
X105259265Y-142930190D01*
X105281723Y-142939493D01*
X105450353Y-143029627D01*
X105470565Y-143043132D01*
X105618373Y-143164436D01*
X105635561Y-143181624D01*
X105756864Y-143329431D01*
X105770369Y-143349642D01*
X105860506Y-143518275D01*
X105869809Y-143540734D01*
X105925315Y-143723713D01*
X105930057Y-143747551D01*
X105949702Y-143946969D01*
X105950001Y-143953051D01*
X105949997Y-146046951D01*
X105949698Y-146053032D01*
X105930058Y-146252442D01*
X105925316Y-146276283D01*
X105869809Y-146459265D01*
X105860506Y-146481723D01*
X105770372Y-146650351D01*
X105756868Y-146670562D01*
X105635564Y-146818373D01*
X105618375Y-146835562D01*
X105470567Y-146956865D01*
X105450356Y-146970370D01*
X105281727Y-147060505D01*
X105259268Y-147069808D01*
X105076287Y-147125315D01*
X105052447Y-147130057D01*
X104850005Y-147149997D01*
X104615461Y-147169436D01*
X104615459Y-147169436D01*
X104387309Y-147227211D01*
X104171779Y-147321750D01*
X103974753Y-147450473D01*
X103801594Y-147609877D01*
X103801591Y-147609880D01*
X103657044Y-147795595D01*
X103657040Y-147795599D01*
X103545026Y-148002582D01*
X103545024Y-148002588D01*
X103468608Y-148225180D01*
X103429870Y-148457325D01*
X103429870Y-148692673D01*
X103468608Y-148924818D01*
X103545024Y-149147410D01*
X103545026Y-149147416D01*
X103657040Y-149354399D01*
X103657044Y-149354403D01*
X103801591Y-149540118D01*
X103801594Y-149540122D01*
X103974752Y-149699526D01*
X104171779Y-149828249D01*
X104387307Y-149922787D01*
X104615460Y-149980562D01*
X104850006Y-149999997D01*
X110149997Y-149999997D01*
X110384550Y-149980567D01*
X110612696Y-149922792D01*
X110828225Y-149828253D01*
X111025252Y-149699530D01*
X111198411Y-149540125D01*
X111198414Y-149540121D01*
X111342961Y-149354406D01*
X111342968Y-149354397D01*
X111454976Y-149147423D01*
X111454981Y-149147412D01*
X111531397Y-148924820D01*
X111570136Y-148692674D01*
X111570136Y-148457325D01*
X111531397Y-148225179D01*
X111454981Y-148002587D01*
X111454976Y-148002576D01*
X111342968Y-147795602D01*
X111342961Y-147795593D01*
X111198414Y-147609878D01*
X111198411Y-147609874D01*
X111025252Y-147450469D01*
X110828225Y-147321746D01*
X110612697Y-147227207D01*
X110384548Y-147169432D01*
X110384540Y-147169430D01*
X110150000Y-147149997D01*
X109947557Y-147130058D01*
X109923716Y-147125316D01*
X109740734Y-147069809D01*
X109718276Y-147060506D01*
X109549646Y-146970372D01*
X109529434Y-146956867D01*
X109381626Y-146835563D01*
X109364438Y-146818375D01*
X109243135Y-146670568D01*
X109229630Y-146650357D01*
X109139493Y-146481724D01*
X109130190Y-146459265D01*
X109074684Y-146276286D01*
X109069942Y-146252445D01*
X109050301Y-146053027D01*
X109050002Y-146046946D01*
X109050002Y-143953048D01*
X109050301Y-143946967D01*
X109069941Y-143747557D01*
X109074683Y-143723716D01*
X109130190Y-143540734D01*
X109139493Y-143518276D01*
X109229627Y-143349646D01*
X109243132Y-143329434D01*
X109364436Y-143181626D01*
X109381624Y-143164438D01*
X109529431Y-143043135D01*
X109549642Y-143029630D01*
X109718275Y-142939493D01*
X109740734Y-142930190D01*
X109923713Y-142874684D01*
X109947553Y-142869942D01*
X110146965Y-142850301D01*
X110153046Y-142850002D01*
X113350002Y-142849997D01*
X113564606Y-142828862D01*
X113770952Y-142766267D01*
X113961133Y-142664611D01*
X114127819Y-142527815D01*
X114264617Y-142361124D01*
X114264621Y-142361118D01*
X114366266Y-142170954D01*
X114428864Y-141964597D01*
X114450000Y-141749996D01*
X114450000Y-140424000D01*
X114469685Y-140356961D01*
X114522489Y-140311206D01*
X114574000Y-140300000D01*
X115425994Y-140300000D01*
X115493033Y-140319685D01*
X115538788Y-140372489D01*
X115549994Y-140424000D01*
X115549994Y-141750011D01*
X115571130Y-141964615D01*
X115633725Y-142170957D01*
X115633727Y-142170961D01*
X115735381Y-142361140D01*
X115872178Y-142527826D01*
X116038864Y-142664621D01*
X116229039Y-142766273D01*
X116435394Y-142828871D01*
X116649994Y-142850008D01*
X119846951Y-142850003D01*
X119853031Y-142850302D01*
X120052442Y-142869941D01*
X120076283Y-142874683D01*
X120259265Y-142930190D01*
X120281723Y-142939493D01*
X120450353Y-143029627D01*
X120470565Y-143043132D01*
X120618373Y-143164436D01*
X120635561Y-143181624D01*
X120756864Y-143329431D01*
X120770369Y-143349642D01*
X120860506Y-143518275D01*
X120869809Y-143540734D01*
X120925315Y-143723713D01*
X120930057Y-143747553D01*
X120949698Y-143946965D01*
X120949997Y-143953046D01*
X120949996Y-146046951D01*
X120949697Y-146053031D01*
X120930058Y-146252442D01*
X120925316Y-146276283D01*
X120869809Y-146459265D01*
X120860506Y-146481723D01*
X120770372Y-146650351D01*
X120756868Y-146670562D01*
X120635564Y-146818373D01*
X120618375Y-146835562D01*
X120470567Y-146956865D01*
X120450356Y-146970370D01*
X120281727Y-147060505D01*
X120259268Y-147069808D01*
X120076287Y-147125315D01*
X120052447Y-147130057D01*
X119850004Y-147149997D01*
X119615459Y-147169437D01*
X119615458Y-147169437D01*
X119387307Y-147227212D01*
X119171782Y-147321749D01*
X118974747Y-147450478D01*
X118801605Y-147609864D01*
X118801591Y-147609880D01*
X118657044Y-147795595D01*
X118657040Y-147795599D01*
X118545026Y-148002582D01*
X118545024Y-148002588D01*
X118468608Y-148225180D01*
X118429870Y-148457325D01*
X118429870Y-148692674D01*
X118468608Y-148924819D01*
X118545024Y-149147411D01*
X118545026Y-149147417D01*
X118657040Y-149354400D01*
X118657044Y-149354404D01*
X118801591Y-149540119D01*
X118801605Y-149540135D01*
X118974747Y-149699521D01*
X119171782Y-149828250D01*
X119387307Y-149922787D01*
X119615460Y-149980562D01*
X119850006Y-149999997D01*
X125149997Y-149999997D01*
X125384550Y-149980567D01*
X125612696Y-149922792D01*
X125828228Y-149828252D01*
X126025252Y-149699528D01*
X126025256Y-149699525D01*
X126198411Y-149540124D01*
X126198414Y-149540121D01*
X126342961Y-149354406D01*
X126342968Y-149354397D01*
X126454976Y-149147423D01*
X126454981Y-149147413D01*
X126531397Y-148924819D01*
X126570135Y-148692673D01*
X126570135Y-148457325D01*
X126531397Y-148225179D01*
X126454981Y-148002589D01*
X126454978Y-148002580D01*
X126342962Y-147795594D01*
X126342958Y-147795588D01*
X126198413Y-147609877D01*
X126198410Y-147609874D01*
X126025253Y-147450472D01*
X125828222Y-147321745D01*
X125612697Y-147227207D01*
X125384543Y-147169431D01*
X125150000Y-147149997D01*
X124947557Y-147130058D01*
X124923716Y-147125316D01*
X124740734Y-147069809D01*
X124718276Y-147060506D01*
X124549646Y-146970372D01*
X124529434Y-146956867D01*
X124381626Y-146835563D01*
X124364438Y-146818375D01*
X124243135Y-146670568D01*
X124229630Y-146650357D01*
X124139493Y-146481724D01*
X124130190Y-146459265D01*
X124074683Y-146276281D01*
X124069942Y-146252446D01*
X124050292Y-146053036D01*
X124049993Y-146046952D01*
X124050002Y-143953048D01*
X124050301Y-143946967D01*
X124069941Y-143747557D01*
X124074683Y-143723716D01*
X124130190Y-143540734D01*
X124139493Y-143518276D01*
X124229627Y-143349646D01*
X124243132Y-143329434D01*
X124364436Y-143181626D01*
X124381624Y-143164438D01*
X124529431Y-143043135D01*
X124549642Y-143029630D01*
X124718275Y-142939493D01*
X124740734Y-142930190D01*
X124923713Y-142874684D01*
X124947553Y-142869942D01*
X125146965Y-142850301D01*
X125153046Y-142850002D01*
X128350002Y-142849997D01*
X128564606Y-142828862D01*
X128770952Y-142766267D01*
X128961133Y-142664611D01*
X129127819Y-142527815D01*
X129264617Y-142361124D01*
X129264621Y-142361118D01*
X129366266Y-142170954D01*
X129428864Y-141964597D01*
X129450000Y-141749996D01*
X129450000Y-140424000D01*
X129469685Y-140356961D01*
X129522489Y-140311206D01*
X129574000Y-140300000D01*
X130425994Y-140300000D01*
X130493033Y-140319685D01*
X130538788Y-140372489D01*
X130549994Y-140424000D01*
X130549993Y-141750011D01*
X130571130Y-141964615D01*
X130633725Y-142170957D01*
X130633727Y-142170961D01*
X130735381Y-142361140D01*
X130872178Y-142527826D01*
X131038864Y-142664621D01*
X131229039Y-142766273D01*
X131435394Y-142828871D01*
X131649994Y-142850008D01*
X134846951Y-142850003D01*
X134853031Y-142850302D01*
X135052442Y-142869941D01*
X135076283Y-142874683D01*
X135259265Y-142930190D01*
X135281723Y-142939493D01*
X135450353Y-143029627D01*
X135470565Y-143043132D01*
X135618373Y-143164436D01*
X135635561Y-143181624D01*
X135756864Y-143329431D01*
X135770369Y-143349642D01*
X135860506Y-143518275D01*
X135869809Y-143540734D01*
X135925315Y-143723713D01*
X135930057Y-143747553D01*
X135949698Y-143946965D01*
X135949997Y-143953046D01*
X135949997Y-146046951D01*
X135949698Y-146053032D01*
X135930058Y-146252442D01*
X135925316Y-146276283D01*
X135869809Y-146459265D01*
X135860506Y-146481723D01*
X135770372Y-146650351D01*
X135756868Y-146670562D01*
X135635564Y-146818373D01*
X135618375Y-146835562D01*
X135470567Y-146956865D01*
X135450356Y-146970370D01*
X135281727Y-147060505D01*
X135259268Y-147069808D01*
X135076287Y-147125315D01*
X135052447Y-147130057D01*
X134850004Y-147149997D01*
X134615459Y-147169437D01*
X134615458Y-147169437D01*
X134387307Y-147227212D01*
X134171782Y-147321749D01*
X133974747Y-147450478D01*
X133801605Y-147609864D01*
X133801591Y-147609880D01*
X133657044Y-147795595D01*
X133657040Y-147795599D01*
X133545026Y-148002582D01*
X133545024Y-148002588D01*
X133468608Y-148225180D01*
X133429870Y-148457325D01*
X133429870Y-148692674D01*
X133468608Y-148924819D01*
X133545024Y-149147411D01*
X133545026Y-149147417D01*
X133657040Y-149354400D01*
X133657044Y-149354404D01*
X133801591Y-149540119D01*
X133801605Y-149540135D01*
X133974747Y-149699521D01*
X134171782Y-149828250D01*
X134387307Y-149922787D01*
X134615460Y-149980562D01*
X134850006Y-149999997D01*
X140149997Y-149999997D01*
X140384550Y-149980567D01*
X140612696Y-149922792D01*
X140828225Y-149828253D01*
X141025252Y-149699530D01*
X141198411Y-149540125D01*
X141198414Y-149540121D01*
X141342961Y-149354406D01*
X141342968Y-149354397D01*
X141454976Y-149147423D01*
X141454981Y-149147412D01*
X141531397Y-148924820D01*
X141570136Y-148692674D01*
X141570136Y-148457325D01*
X141531397Y-148225179D01*
X141454981Y-148002587D01*
X141454976Y-148002576D01*
X141342968Y-147795602D01*
X141342961Y-147795593D01*
X141198414Y-147609878D01*
X141198411Y-147609874D01*
X141025252Y-147450469D01*
X140828225Y-147321746D01*
X140612697Y-147227207D01*
X140384548Y-147169432D01*
X140384540Y-147169430D01*
X140150000Y-147149997D01*
X139947557Y-147130058D01*
X139923716Y-147125316D01*
X139740734Y-147069809D01*
X139718276Y-147060506D01*
X139549646Y-146970372D01*
X139529434Y-146956867D01*
X139381626Y-146835563D01*
X139364438Y-146818375D01*
X139243135Y-146670568D01*
X139229630Y-146650357D01*
X139139493Y-146481724D01*
X139130190Y-146459265D01*
X139074683Y-146276281D01*
X139069942Y-146252446D01*
X139050292Y-146053036D01*
X139049993Y-146046952D01*
X139050002Y-143953048D01*
X139050301Y-143946967D01*
X139069941Y-143747557D01*
X139074683Y-143723716D01*
X139130190Y-143540734D01*
X139139493Y-143518276D01*
X139229627Y-143349646D01*
X139243132Y-143329434D01*
X139364436Y-143181626D01*
X139381624Y-143164438D01*
X139529431Y-143043135D01*
X139549642Y-143029630D01*
X139718275Y-142939493D01*
X139740734Y-142930190D01*
X139923713Y-142874684D01*
X139947553Y-142869942D01*
X140146965Y-142850301D01*
X140153046Y-142850002D01*
X143350002Y-142849997D01*
X143564606Y-142828862D01*
X143770952Y-142766267D01*
X143961133Y-142664611D01*
X144127819Y-142527815D01*
X144264617Y-142361124D01*
X144264621Y-142361118D01*
X144366266Y-142170954D01*
X144428864Y-141964597D01*
X144450000Y-141749996D01*
X144450000Y-140424000D01*
X144469685Y-140356961D01*
X144522489Y-140311206D01*
X144574000Y-140300000D01*
X145425994Y-140300000D01*
X145493033Y-140319685D01*
X145538788Y-140372489D01*
X145549994Y-140424000D01*
X145549994Y-141750011D01*
X145571130Y-141964615D01*
X145633725Y-142170957D01*
X145633727Y-142170961D01*
X145735381Y-142361140D01*
X145872178Y-142527826D01*
X146038864Y-142664621D01*
X146229039Y-142766273D01*
X146435394Y-142828871D01*
X146649994Y-142850008D01*
X149846951Y-142850003D01*
X149853031Y-142850302D01*
X150052442Y-142869941D01*
X150076283Y-142874683D01*
X150259265Y-142930190D01*
X150281723Y-142939493D01*
X150450353Y-143029627D01*
X150470565Y-143043132D01*
X150618373Y-143164436D01*
X150635561Y-143181624D01*
X150756864Y-143329431D01*
X150770369Y-143349642D01*
X150860506Y-143518275D01*
X150869809Y-143540734D01*
X150925315Y-143723713D01*
X150930057Y-143747553D01*
X150949698Y-143946965D01*
X150949997Y-143953046D01*
X150949997Y-146046951D01*
X150949698Y-146053032D01*
X150930058Y-146252442D01*
X150925316Y-146276283D01*
X150869809Y-146459265D01*
X150860506Y-146481723D01*
X150770372Y-146650351D01*
X150756868Y-146670562D01*
X150635564Y-146818373D01*
X150618375Y-146835562D01*
X150470567Y-146956865D01*
X150450356Y-146970370D01*
X150281727Y-147060505D01*
X150259268Y-147069808D01*
X150076287Y-147125315D01*
X150052447Y-147130057D01*
X149850004Y-147149997D01*
X149615459Y-147169437D01*
X149615458Y-147169437D01*
X149387307Y-147227212D01*
X149171782Y-147321749D01*
X148974747Y-147450478D01*
X148801605Y-147609864D01*
X148801591Y-147609880D01*
X148657044Y-147795595D01*
X148657040Y-147795599D01*
X148545026Y-148002582D01*
X148545024Y-148002588D01*
X148468608Y-148225180D01*
X148429870Y-148457325D01*
X148429870Y-148692674D01*
X148468608Y-148924819D01*
X148545024Y-149147411D01*
X148545026Y-149147417D01*
X148657040Y-149354400D01*
X148657044Y-149354404D01*
X148801591Y-149540119D01*
X148801605Y-149540135D01*
X148974747Y-149699521D01*
X149171782Y-149828250D01*
X149387307Y-149922787D01*
X149615460Y-149980562D01*
X149850006Y-149999997D01*
X167499996Y-150000000D01*
X167499997Y-150000000D01*
X167826297Y-149978612D01*
X167826324Y-149978608D01*
X168147041Y-149914814D01*
X168147055Y-149914811D01*
X168456703Y-149809699D01*
X168456724Y-149809690D01*
X168750000Y-149665062D01*
X169021904Y-149483381D01*
X169267766Y-149267767D01*
X169483380Y-149021904D01*
X169665064Y-148749996D01*
X169809696Y-148456711D01*
X169914811Y-148147056D01*
X169914814Y-148147042D01*
X169978608Y-147826325D01*
X169978610Y-147826313D01*
X169999999Y-147499996D01*
X169999999Y-147499997D01*
X170000001Y-129850004D01*
X169980566Y-129615458D01*
X169922790Y-129387304D01*
X169828252Y-129171780D01*
X169699525Y-128974749D01*
X169540123Y-128801592D01*
X169540120Y-128801589D01*
X169354410Y-128657045D01*
X169354404Y-128657041D01*
X169147418Y-128545025D01*
X169147412Y-128545023D01*
X168924820Y-128468607D01*
X168692676Y-128429869D01*
X168457326Y-128429869D01*
X168225181Y-128468607D01*
X168002589Y-128545023D01*
X168002583Y-128545025D01*
X167795597Y-128657041D01*
X167795591Y-128657045D01*
X167609881Y-128801589D01*
X167609878Y-128801592D01*
X167450476Y-128974749D01*
X167321749Y-129171780D01*
X167227211Y-129387304D01*
X167169435Y-129615456D01*
X167169435Y-129615457D01*
X167149997Y-129850000D01*
X167130058Y-130052442D01*
X167125316Y-130076283D01*
X167069809Y-130259265D01*
X167060506Y-130281723D01*
X166970372Y-130450353D01*
X166956867Y-130470565D01*
X166835563Y-130618373D01*
X166818375Y-130635561D01*
X166670568Y-130756864D01*
X166650357Y-130770369D01*
X166481724Y-130860506D01*
X166459265Y-130869809D01*
X166276286Y-130925315D01*
X166252446Y-130930057D01*
X166053034Y-130949698D01*
X166046953Y-130949997D01*
X163953049Y-130949997D01*
X163946968Y-130949698D01*
X163747557Y-130930058D01*
X163723716Y-130925316D01*
X163540734Y-130869809D01*
X163518276Y-130860506D01*
X163349646Y-130770372D01*
X163329434Y-130756867D01*
X163181626Y-130635563D01*
X163164438Y-130618375D01*
X163043135Y-130470568D01*
X163029630Y-130450357D01*
X162939493Y-130281724D01*
X162930190Y-130259265D01*
X162874684Y-130076286D01*
X162869942Y-130052446D01*
X162850301Y-129853034D01*
X162850002Y-129846953D01*
X162849997Y-126649997D01*
X162828862Y-126435393D01*
X162766267Y-126229047D01*
X162664611Y-126038866D01*
X162527815Y-125872180D01*
X162361124Y-125735382D01*
X162361118Y-125735378D01*
X162170954Y-125633733D01*
X161964597Y-125571135D01*
X161749988Y-125549999D01*
X160424000Y-125549999D01*
X160356960Y-125530314D01*
X160311206Y-125477510D01*
X160300000Y-125425999D01*
X160300000Y-124574006D01*
X160319685Y-124506967D01*
X160372489Y-124461212D01*
X160424000Y-124450006D01*
X161750012Y-124450006D01*
X161964615Y-124428869D01*
X162170957Y-124366274D01*
X162170961Y-124366272D01*
X162361140Y-124264618D01*
X162527826Y-124127821D01*
X162664621Y-123961135D01*
X162766273Y-123770960D01*
X162828871Y-123564605D01*
X162850008Y-123350005D01*
X162850003Y-120153048D01*
X162850302Y-120146968D01*
X162869941Y-119947557D01*
X162874683Y-119923716D01*
X162930190Y-119740734D01*
X162939493Y-119718276D01*
X163029627Y-119549646D01*
X163043132Y-119529434D01*
X163164436Y-119381626D01*
X163181624Y-119364438D01*
X163329431Y-119243135D01*
X163349642Y-119229630D01*
X163518275Y-119139493D01*
X163540734Y-119130190D01*
X163723713Y-119074684D01*
X163747551Y-119069942D01*
X163946969Y-119050297D01*
X163953051Y-119049998D01*
X166046951Y-119050002D01*
X166053032Y-119050301D01*
X166252442Y-119069941D01*
X166276283Y-119074683D01*
X166459265Y-119130190D01*
X166481723Y-119139493D01*
X166650351Y-119229627D01*
X166670562Y-119243131D01*
X166818373Y-119364435D01*
X166835562Y-119381624D01*
X166956865Y-119529432D01*
X166970370Y-119549643D01*
X167060505Y-119718272D01*
X167069808Y-119740731D01*
X167125315Y-119923712D01*
X167130057Y-119947550D01*
X167150001Y-120149996D01*
X167169434Y-120384547D01*
X167169434Y-120384548D01*
X167227208Y-120612693D01*
X167321746Y-120828220D01*
X167450473Y-121025251D01*
X167609875Y-121198408D01*
X167609878Y-121198411D01*
X167795593Y-121342958D01*
X167795602Y-121342965D01*
X168002576Y-121454973D01*
X168002590Y-121454979D01*
X168225179Y-121531395D01*
X168457325Y-121570134D01*
X168692674Y-121570134D01*
X168924819Y-121531395D01*
X169147413Y-121454979D01*
X169147418Y-121454977D01*
X169354401Y-121342963D01*
X169354405Y-121342959D01*
X169540120Y-121198412D01*
X169540124Y-121198409D01*
X169699529Y-121025250D01*
X169828252Y-120828223D01*
X169922791Y-120612694D01*
X169980566Y-120384542D01*
X170000001Y-120149996D01*
X170000001Y-114850004D01*
X169980566Y-114615458D01*
X169922790Y-114387304D01*
X169828252Y-114171780D01*
X169699525Y-113974749D01*
X169540123Y-113801592D01*
X169540120Y-113801589D01*
X169354410Y-113657045D01*
X169354404Y-113657041D01*
X169147418Y-113545025D01*
X169147412Y-113545023D01*
X168924820Y-113468607D01*
X168692676Y-113429869D01*
X168457326Y-113429869D01*
X168225181Y-113468607D01*
X168002589Y-113545023D01*
X168002583Y-113545025D01*
X167795597Y-113657041D01*
X167795591Y-113657045D01*
X167609881Y-113801589D01*
X167609878Y-113801592D01*
X167450476Y-113974749D01*
X167321749Y-114171780D01*
X167227211Y-114387304D01*
X167169435Y-114615456D01*
X167169435Y-114615457D01*
X167149997Y-114850000D01*
X167130058Y-115052442D01*
X167125316Y-115076283D01*
X167069809Y-115259265D01*
X167060506Y-115281723D01*
X166970372Y-115450353D01*
X166956867Y-115470565D01*
X166835563Y-115618373D01*
X166818375Y-115635561D01*
X166670568Y-115756864D01*
X166650357Y-115770369D01*
X166481724Y-115860506D01*
X166459265Y-115869809D01*
X166276286Y-115925315D01*
X166252446Y-115930057D01*
X166053031Y-115949698D01*
X166046950Y-115949997D01*
X163953048Y-115949997D01*
X163946967Y-115949698D01*
X163747557Y-115930058D01*
X163723716Y-115925316D01*
X163540734Y-115869809D01*
X163518276Y-115860506D01*
X163349646Y-115770372D01*
X163329434Y-115756867D01*
X163181626Y-115635563D01*
X163164438Y-115618375D01*
X163043135Y-115470568D01*
X163029630Y-115450357D01*
X162939493Y-115281724D01*
X162930190Y-115259265D01*
X162874684Y-115076286D01*
X162869942Y-115052446D01*
X162850301Y-114853034D01*
X162850002Y-114846953D01*
X162849997Y-111649997D01*
X162828862Y-111435393D01*
X162766267Y-111229047D01*
X162664611Y-111038866D01*
X162527815Y-110872180D01*
X162361124Y-110735382D01*
X162361118Y-110735378D01*
X162170954Y-110633733D01*
X161964597Y-110571135D01*
X161749997Y-110550000D01*
X160424000Y-110550000D01*
X160356961Y-110530315D01*
X160311206Y-110477511D01*
X160300000Y-110426000D01*
X160300000Y-109574006D01*
X160319685Y-109506967D01*
X160372489Y-109461212D01*
X160424000Y-109450006D01*
X161750012Y-109450006D01*
X161964615Y-109428869D01*
X162170957Y-109366274D01*
X162170961Y-109366272D01*
X162361140Y-109264618D01*
X162527826Y-109127821D01*
X162664621Y-108961135D01*
X162766273Y-108770960D01*
X162828871Y-108564605D01*
X162850008Y-108350005D01*
X162850003Y-105153048D01*
X162850302Y-105146968D01*
X162869941Y-104947557D01*
X162874683Y-104923716D01*
X162930190Y-104740734D01*
X162939493Y-104718276D01*
X163029627Y-104549646D01*
X163043132Y-104529434D01*
X163164436Y-104381626D01*
X163181624Y-104364438D01*
X163329431Y-104243135D01*
X163349642Y-104229630D01*
X163518275Y-104139493D01*
X163540734Y-104130190D01*
X163723713Y-104074684D01*
X163747554Y-104069942D01*
X163946966Y-104050302D01*
X163953047Y-104050003D01*
X166046951Y-104050003D01*
X166053031Y-104050302D01*
X166252442Y-104069941D01*
X166276283Y-104074683D01*
X166459265Y-104130190D01*
X166481723Y-104139493D01*
X166650351Y-104229627D01*
X166670562Y-104243131D01*
X166818373Y-104364435D01*
X166835562Y-104381624D01*
X166956865Y-104529432D01*
X166970370Y-104549643D01*
X167060505Y-104718272D01*
X167069808Y-104740731D01*
X167125315Y-104923712D01*
X167130057Y-104947550D01*
X167150001Y-105149998D01*
X167169435Y-105384541D01*
X167227211Y-105612695D01*
X167321749Y-105828219D01*
X167450476Y-106025250D01*
X167609878Y-106198407D01*
X167609881Y-106198410D01*
X167795591Y-106342954D01*
X167795597Y-106342958D01*
X168002583Y-106454974D01*
X168002589Y-106454976D01*
X168225181Y-106531392D01*
X168457326Y-106570131D01*
X168692676Y-106570131D01*
X168924820Y-106531392D01*
X169147412Y-106454976D01*
X169147418Y-106454974D01*
X169354404Y-106342958D01*
X169354410Y-106342954D01*
X169540120Y-106198410D01*
X169540123Y-106198407D01*
X169699525Y-106025250D01*
X169828252Y-105828219D01*
X169922790Y-105612695D01*
X169980566Y-105384541D01*
X170000001Y-105149996D01*
X170000001Y-99850003D01*
X169980564Y-99615457D01*
X169922789Y-99387306D01*
X169828250Y-99171777D01*
X169699527Y-98974750D01*
X169540123Y-98801592D01*
X169540119Y-98801589D01*
X169354404Y-98657042D01*
X169354400Y-98657038D01*
X169147417Y-98545024D01*
X169147412Y-98545022D01*
X168924818Y-98468606D01*
X168692674Y-98429868D01*
X168457325Y-98429868D01*
X168225180Y-98468606D01*
X168002586Y-98545022D01*
X168002581Y-98545024D01*
X167795598Y-98657038D01*
X167795594Y-98657042D01*
X167609879Y-98801589D01*
X167609876Y-98801592D01*
X167450469Y-98974754D01*
X167321749Y-99171777D01*
X167227210Y-99387307D01*
X167169435Y-99615457D01*
X167169435Y-99615459D01*
X167149997Y-99850000D01*
X167130058Y-100052442D01*
X167125316Y-100076283D01*
X167069809Y-100259265D01*
X167060506Y-100281723D01*
X166970372Y-100450353D01*
X166956867Y-100470565D01*
X166835563Y-100618373D01*
X166818375Y-100635561D01*
X166670568Y-100756864D01*
X166650357Y-100770369D01*
X166481724Y-100860506D01*
X166459265Y-100869809D01*
X166276281Y-100925316D01*
X166252446Y-100930057D01*
X166053036Y-100949707D01*
X166046952Y-100950006D01*
X163953048Y-100949997D01*
X163946967Y-100949698D01*
X163747557Y-100930058D01*
X163723716Y-100925316D01*
X163540734Y-100869809D01*
X163518276Y-100860506D01*
X163349646Y-100770372D01*
X163329434Y-100756867D01*
X163181626Y-100635563D01*
X163164438Y-100618375D01*
X163043135Y-100470568D01*
X163029630Y-100450357D01*
X162939493Y-100281724D01*
X162930190Y-100259265D01*
X162874684Y-100076286D01*
X162869942Y-100052446D01*
X162850301Y-99853034D01*
X162850002Y-99846953D01*
X162849997Y-96649997D01*
X162828862Y-96435393D01*
X162766267Y-96229047D01*
X162664611Y-96038866D01*
X162527815Y-95872180D01*
X162361124Y-95735382D01*
X162361118Y-95735378D01*
X162170954Y-95633733D01*
X161964597Y-95571135D01*
X161749997Y-95550000D01*
X160424000Y-95550000D01*
X160356961Y-95530315D01*
X160311206Y-95477511D01*
X160300000Y-95426000D01*
X160300000Y-94574006D01*
X160319685Y-94506967D01*
X160372489Y-94461212D01*
X160424000Y-94450006D01*
X161750012Y-94450006D01*
X161964615Y-94428869D01*
X162170957Y-94366274D01*
X162170961Y-94366272D01*
X162361140Y-94264618D01*
X162527826Y-94127821D01*
X162664621Y-93961135D01*
X162766273Y-93770960D01*
X162828871Y-93564605D01*
X162850008Y-93350005D01*
X162850003Y-90153048D01*
X162850302Y-90146968D01*
X162869941Y-89947557D01*
X162874683Y-89923716D01*
X162930190Y-89740734D01*
X162939493Y-89718276D01*
X163029627Y-89549646D01*
X163043132Y-89529434D01*
X163164436Y-89381626D01*
X163181624Y-89364438D01*
X163329431Y-89243135D01*
X163349642Y-89229630D01*
X163518275Y-89139493D01*
X163540734Y-89130190D01*
X163723713Y-89074684D01*
X163747554Y-89069942D01*
X163946966Y-89050302D01*
X163953047Y-89050003D01*
X166046951Y-89050003D01*
X166053031Y-89050302D01*
X166252442Y-89069941D01*
X166276283Y-89074683D01*
X166459265Y-89130190D01*
X166481723Y-89139493D01*
X166650351Y-89229627D01*
X166670562Y-89243131D01*
X166818373Y-89364435D01*
X166835562Y-89381624D01*
X166956865Y-89529432D01*
X166970370Y-89549643D01*
X167060505Y-89718272D01*
X167069808Y-89740731D01*
X167125315Y-89923712D01*
X167130057Y-89947550D01*
X167150001Y-90149998D01*
X167169435Y-90384541D01*
X167227211Y-90612695D01*
X167321749Y-90828219D01*
X167450476Y-91025250D01*
X167609878Y-91198407D01*
X167609881Y-91198410D01*
X167795591Y-91342954D01*
X167795597Y-91342958D01*
X168002583Y-91454974D01*
X168002589Y-91454976D01*
X168225181Y-91531392D01*
X168457326Y-91570131D01*
X168692676Y-91570131D01*
X168924820Y-91531392D01*
X169147412Y-91454976D01*
X169147418Y-91454974D01*
X169354404Y-91342958D01*
X169354410Y-91342954D01*
X169540120Y-91198410D01*
X169540123Y-91198407D01*
X169699525Y-91025250D01*
X169828252Y-90828219D01*
X169922790Y-90612695D01*
X169980566Y-90384541D01*
X170000001Y-90149996D01*
X170000001Y-84850004D01*
X169980566Y-84615458D01*
X169922790Y-84387304D01*
X169828252Y-84171780D01*
X169699525Y-83974749D01*
X169540123Y-83801592D01*
X169540120Y-83801589D01*
X169354410Y-83657045D01*
X169354404Y-83657041D01*
X169147418Y-83545025D01*
X169147412Y-83545023D01*
X168924820Y-83468607D01*
X168692676Y-83429869D01*
X168457326Y-83429869D01*
X168225181Y-83468607D01*
X168002589Y-83545023D01*
X168002583Y-83545025D01*
X167795597Y-83657041D01*
X167795591Y-83657045D01*
X167609881Y-83801589D01*
X167609878Y-83801592D01*
X167450476Y-83974749D01*
X167321749Y-84171780D01*
X167227211Y-84387304D01*
X167169435Y-84615456D01*
X167169435Y-84615457D01*
X167149997Y-84850000D01*
X167130058Y-85052442D01*
X167125316Y-85076283D01*
X167069809Y-85259265D01*
X167060506Y-85281723D01*
X166970372Y-85450353D01*
X166956867Y-85470565D01*
X166835563Y-85618373D01*
X166818375Y-85635561D01*
X166670568Y-85756864D01*
X166650357Y-85770369D01*
X166481724Y-85860506D01*
X166459265Y-85869809D01*
X166276281Y-85925316D01*
X166252446Y-85930057D01*
X166053036Y-85949707D01*
X166046952Y-85950006D01*
X163953048Y-85949997D01*
X163946967Y-85949698D01*
X163747557Y-85930058D01*
X163723716Y-85925316D01*
X163540734Y-85869809D01*
X163518276Y-85860506D01*
X163349646Y-85770372D01*
X163329434Y-85756867D01*
X163181626Y-85635563D01*
X163164438Y-85618375D01*
X163043135Y-85470568D01*
X163029630Y-85450357D01*
X162939493Y-85281724D01*
X162930190Y-85259265D01*
X162874684Y-85076286D01*
X162869942Y-85052446D01*
X162850301Y-84853034D01*
X162850002Y-84846953D01*
X162849997Y-81649997D01*
X162828862Y-81435393D01*
X162766267Y-81229047D01*
X162664611Y-81038866D01*
X162527815Y-80872180D01*
X162361124Y-80735382D01*
X162361118Y-80735378D01*
X162170954Y-80633733D01*
X161964597Y-80571135D01*
X161749997Y-80550000D01*
X160424000Y-80550000D01*
X160356961Y-80530315D01*
X160311206Y-80477511D01*
X160300000Y-80426000D01*
X160300000Y-79574006D01*
X160319685Y-79506967D01*
X160372489Y-79461212D01*
X160424000Y-79450006D01*
X161750012Y-79450006D01*
X161964615Y-79428869D01*
X162170957Y-79366274D01*
X162170961Y-79366272D01*
X162361140Y-79264618D01*
X162527826Y-79127821D01*
X162664621Y-78961135D01*
X162766273Y-78770960D01*
X162828871Y-78564605D01*
X162850008Y-78350005D01*
X162850003Y-75153048D01*
X162850302Y-75146968D01*
X162869941Y-74947557D01*
X162874683Y-74923716D01*
X162930190Y-74740734D01*
X162939493Y-74718276D01*
X163029627Y-74549646D01*
X163043132Y-74529434D01*
X163164436Y-74381626D01*
X163181624Y-74364438D01*
X163329431Y-74243135D01*
X163349642Y-74229630D01*
X163518275Y-74139493D01*
X163540734Y-74130190D01*
X163723713Y-74074684D01*
X163747554Y-74069942D01*
X163946966Y-74050302D01*
X163953047Y-74050003D01*
X166046951Y-74050003D01*
X166053031Y-74050302D01*
X166252442Y-74069941D01*
X166276283Y-74074683D01*
X166459265Y-74130190D01*
X166481723Y-74139493D01*
X166650351Y-74229627D01*
X166670562Y-74243131D01*
X166818373Y-74364435D01*
X166835562Y-74381624D01*
X166956865Y-74529432D01*
X166970370Y-74549643D01*
X167060505Y-74718272D01*
X167069808Y-74740731D01*
X167125315Y-74923712D01*
X167130057Y-74947550D01*
X167150001Y-75149998D01*
X167169435Y-75384541D01*
X167227211Y-75612695D01*
X167321749Y-75828219D01*
X167450476Y-76025250D01*
X167609878Y-76198407D01*
X167609881Y-76198410D01*
X167795591Y-76342954D01*
X167795597Y-76342958D01*
X168002583Y-76454974D01*
X168002589Y-76454976D01*
X168225181Y-76531392D01*
X168457326Y-76570131D01*
X168692676Y-76570131D01*
X168924820Y-76531392D01*
X169147412Y-76454976D01*
X169147418Y-76454974D01*
X169354404Y-76342958D01*
X169354410Y-76342954D01*
X169540120Y-76198410D01*
X169540123Y-76198407D01*
X169699525Y-76025250D01*
X169828252Y-75828219D01*
X169922790Y-75612695D01*
X169980566Y-75384541D01*
X170000001Y-75149996D01*
X170000000Y-57500004D01*
X170000000Y-57500003D01*
X169978612Y-57173702D01*
X169978608Y-57173675D01*
X169914814Y-56852958D01*
X169914811Y-56852944D01*
X169809699Y-56543296D01*
X169809690Y-56543275D01*
X169665062Y-56249999D01*
X169483381Y-55978095D01*
X169267767Y-55732233D01*
X169021904Y-55516619D01*
X168749996Y-55334935D01*
X168456711Y-55190303D01*
X168147056Y-55085188D01*
X168147042Y-55085185D01*
X167826325Y-55021391D01*
X167826313Y-55021389D01*
X167499996Y-55000001D01*
X149850004Y-55000003D01*
X149850003Y-55000003D01*
X149615449Y-55019432D01*
X149387303Y-55077207D01*
X149171774Y-55171746D01*
X148974747Y-55300469D01*
X148801588Y-55459874D01*
X148801585Y-55459878D01*
X148657038Y-55645593D01*
X148657031Y-55645602D01*
X148545023Y-55852576D01*
X148545018Y-55852587D01*
X148468602Y-56075179D01*
X148429864Y-56307325D01*
X148429864Y-56542674D01*
X148468602Y-56774820D01*
X148545018Y-56997412D01*
X148545023Y-56997423D01*
X148657031Y-57204397D01*
X148657038Y-57204406D01*
X148801585Y-57390121D01*
X148801588Y-57390125D01*
X148974747Y-57549530D01*
X149171774Y-57678253D01*
X149387302Y-57772792D01*
X149615451Y-57830567D01*
X149615459Y-57830569D01*
X149849999Y-57850003D01*
X150052442Y-57869941D01*
X150076283Y-57874683D01*
X150259265Y-57930190D01*
X150281723Y-57939493D01*
X150450353Y-58029627D01*
X150470565Y-58043132D01*
X150618373Y-58164436D01*
X150635561Y-58181624D01*
X150756864Y-58329431D01*
X150770369Y-58349642D01*
X150860506Y-58518275D01*
X150869809Y-58540734D01*
X150925315Y-58723713D01*
X150930057Y-58747551D01*
X150949702Y-58946969D01*
X150950001Y-58953051D01*
X150950000Y-59826000D01*
X150930315Y-59893040D01*
X150877511Y-59938794D01*
X150826000Y-59950000D01*
X139174001Y-59950000D01*
X139106962Y-59930315D01*
X139061207Y-59877511D01*
X139050001Y-59826000D01*
X139050002Y-58953048D01*
X139050301Y-58946967D01*
X139069941Y-58747557D01*
X139074683Y-58723716D01*
X139130190Y-58540734D01*
X139139493Y-58518276D01*
X139229627Y-58349648D01*
X139243131Y-58329437D01*
X139364435Y-58181626D01*
X139381624Y-58164437D01*
X139529432Y-58043134D01*
X139549643Y-58029629D01*
X139718272Y-57939494D01*
X139740731Y-57930191D01*
X139923712Y-57874684D01*
X139947553Y-57869942D01*
X140149996Y-57850003D01*
X140384540Y-57830562D01*
X140384541Y-57830562D01*
X140612692Y-57772787D01*
X140828217Y-57678250D01*
X141025252Y-57549521D01*
X141198394Y-57390135D01*
X141198408Y-57390119D01*
X141342955Y-57204404D01*
X141342959Y-57204400D01*
X141454973Y-56997417D01*
X141454975Y-56997411D01*
X141531391Y-56774819D01*
X141570130Y-56542674D01*
X141570130Y-56307325D01*
X141531391Y-56075180D01*
X141454975Y-55852588D01*
X141454973Y-55852582D01*
X141342959Y-55645599D01*
X141342955Y-55645595D01*
X141198408Y-55459880D01*
X141198394Y-55459864D01*
X141025252Y-55300478D01*
X140828217Y-55171749D01*
X140612692Y-55077212D01*
X140384539Y-55019437D01*
X140149994Y-55000003D01*
X134850003Y-55000003D01*
X134615449Y-55019432D01*
X134387303Y-55077207D01*
X134171774Y-55171746D01*
X133974747Y-55300469D01*
X133801588Y-55459874D01*
X133801585Y-55459878D01*
X133657038Y-55645593D01*
X133657031Y-55645602D01*
X133545023Y-55852576D01*
X133545018Y-55852587D01*
X133468602Y-56075179D01*
X133429864Y-56307325D01*
X133429864Y-56542674D01*
X133468602Y-56774820D01*
X133545018Y-56997412D01*
X133545023Y-56997423D01*
X133657031Y-57204397D01*
X133657038Y-57204406D01*
X133801585Y-57390121D01*
X133801588Y-57390125D01*
X133974747Y-57549530D01*
X134171774Y-57678253D01*
X134387302Y-57772792D01*
X134615451Y-57830567D01*
X134615459Y-57830569D01*
X134849999Y-57850003D01*
X135052442Y-57869941D01*
X135076283Y-57874683D01*
X135259265Y-57930190D01*
X135281723Y-57939493D01*
X135450353Y-58029627D01*
X135470565Y-58043132D01*
X135618373Y-58164436D01*
X135635561Y-58181624D01*
X135756864Y-58329431D01*
X135770369Y-58349642D01*
X135860506Y-58518275D01*
X135869809Y-58540734D01*
X135925315Y-58723713D01*
X135930057Y-58747553D01*
X135949698Y-58946965D01*
X135949997Y-58953046D01*
X135949997Y-59826000D01*
X135930312Y-59893039D01*
X135877508Y-59938794D01*
X135825997Y-59950000D01*
X124174003Y-59950000D01*
X124106964Y-59930315D01*
X124061209Y-59877511D01*
X124050003Y-59826000D01*
X124050003Y-58953048D01*
X124050302Y-58946968D01*
X124069941Y-58747557D01*
X124074683Y-58723716D01*
X124130190Y-58540734D01*
X124139493Y-58518276D01*
X124229627Y-58349648D01*
X124243131Y-58329437D01*
X124364435Y-58181626D01*
X124381624Y-58164437D01*
X124529432Y-58043134D01*
X124549643Y-58029629D01*
X124718272Y-57939494D01*
X124740731Y-57930191D01*
X124923712Y-57874684D01*
X124947553Y-57869942D01*
X125149996Y-57850003D01*
X125384540Y-57830562D01*
X125384541Y-57830562D01*
X125612692Y-57772787D01*
X125828217Y-57678250D01*
X126025252Y-57549521D01*
X126198394Y-57390135D01*
X126198408Y-57390119D01*
X126342955Y-57204404D01*
X126342959Y-57204400D01*
X126454973Y-56997417D01*
X126454975Y-56997411D01*
X126531391Y-56774819D01*
X126570130Y-56542674D01*
X126570130Y-56307325D01*
X126531391Y-56075180D01*
X126454975Y-55852588D01*
X126454973Y-55852582D01*
X126342959Y-55645599D01*
X126342955Y-55645595D01*
X126198408Y-55459880D01*
X126198394Y-55459864D01*
X126025252Y-55300478D01*
X125828217Y-55171749D01*
X125612692Y-55077212D01*
X125384539Y-55019437D01*
X125149994Y-55000003D01*
X119850003Y-55000003D01*
X119615449Y-55019432D01*
X119387303Y-55077207D01*
X119171774Y-55171746D01*
X118974747Y-55300469D01*
X118801588Y-55459874D01*
X118801585Y-55459878D01*
X118657038Y-55645593D01*
X118657031Y-55645602D01*
X118545023Y-55852576D01*
X118545018Y-55852587D01*
X118468602Y-56075179D01*
X118429864Y-56307325D01*
X118429864Y-56542674D01*
X118468602Y-56774820D01*
X118545018Y-56997412D01*
X118545023Y-56997423D01*
X118657031Y-57204397D01*
X118657038Y-57204406D01*
X118801585Y-57390121D01*
X118801588Y-57390125D01*
X118974747Y-57549530D01*
X119171774Y-57678253D01*
X119387302Y-57772792D01*
X119615451Y-57830567D01*
X119615459Y-57830569D01*
X119849999Y-57850003D01*
X120052442Y-57869941D01*
X120076283Y-57874683D01*
X120259265Y-57930190D01*
X120281723Y-57939493D01*
X120450353Y-58029627D01*
X120470565Y-58043132D01*
X120618373Y-58164436D01*
X120635561Y-58181624D01*
X120756864Y-58329431D01*
X120770369Y-58349642D01*
X120860506Y-58518275D01*
X120869809Y-58540734D01*
X120925315Y-58723713D01*
X120930057Y-58747554D01*
X120949697Y-58946965D01*
X120949996Y-58953046D01*
X120949997Y-59826000D01*
X120930313Y-59893039D01*
X120877509Y-59938794D01*
X120825997Y-59950000D01*
X109174002Y-59950000D01*
X109106963Y-59930315D01*
X109061208Y-59877511D01*
X109050002Y-59826000D01*
X109050002Y-58953048D01*
X109050301Y-58946967D01*
X109069941Y-58747557D01*
X109074683Y-58723716D01*
X109130190Y-58540734D01*
X109139493Y-58518276D01*
X109229627Y-58349648D01*
X109243131Y-58329437D01*
X109364435Y-58181626D01*
X109381624Y-58164437D01*
X109529432Y-58043134D01*
X109549643Y-58029629D01*
X109718272Y-57939494D01*
X109740731Y-57930191D01*
X109923712Y-57874684D01*
X109947553Y-57869942D01*
X110149996Y-57850003D01*
X110384540Y-57830562D01*
X110384541Y-57830562D01*
X110612692Y-57772787D01*
X110828217Y-57678250D01*
X111025252Y-57549521D01*
X111198394Y-57390135D01*
X111198408Y-57390119D01*
X111342955Y-57204404D01*
X111342959Y-57204400D01*
X111454973Y-56997417D01*
X111454975Y-56997411D01*
X111531391Y-56774819D01*
X111570130Y-56542674D01*
X111570130Y-56307325D01*
X111531391Y-56075180D01*
X111454975Y-55852588D01*
X111454973Y-55852582D01*
X111342959Y-55645599D01*
X111342955Y-55645595D01*
X111198408Y-55459880D01*
X111198394Y-55459864D01*
X111025252Y-55300478D01*
X110828217Y-55171749D01*
X110612692Y-55077212D01*
X110384539Y-55019437D01*
X110149994Y-55000003D01*
X104850003Y-55000003D01*
X104615449Y-55019432D01*
X104387303Y-55077207D01*
X104171774Y-55171746D01*
X103974747Y-55300469D01*
X103801588Y-55459874D01*
X103801585Y-55459878D01*
X103657038Y-55645593D01*
X103657031Y-55645602D01*
X103545023Y-55852576D01*
X103545018Y-55852587D01*
X103468602Y-56075179D01*
X103429864Y-56307325D01*
X103429864Y-56542674D01*
X103468602Y-56774820D01*
X103545018Y-56997412D01*
X103545023Y-56997423D01*
X103657031Y-57204397D01*
X103657038Y-57204406D01*
X103801585Y-57390121D01*
X103801588Y-57390125D01*
X103974747Y-57549530D01*
X104171774Y-57678253D01*
X104387302Y-57772792D01*
X104615451Y-57830567D01*
X104615459Y-57830569D01*
X104849999Y-57850003D01*
X105052442Y-57869941D01*
X105076283Y-57874683D01*
X105259265Y-57930190D01*
X105281723Y-57939493D01*
X105450353Y-58029627D01*
X105470565Y-58043132D01*
X105618373Y-58164436D01*
X105635561Y-58181624D01*
X105756864Y-58329431D01*
X105770369Y-58349642D01*
X105860506Y-58518275D01*
X105869809Y-58540734D01*
X105925315Y-58723713D01*
X105930057Y-58747551D01*
X105949702Y-58946969D01*
X105950001Y-58953051D01*
X105950000Y-59826000D01*
X105930315Y-59893040D01*
X105877511Y-59938794D01*
X105826000Y-59950000D01*
X94174001Y-59950000D01*
X94106962Y-59930315D01*
X94061207Y-59877511D01*
X94050001Y-59826000D01*
X94050002Y-58953048D01*
X94050301Y-58946967D01*
X94069941Y-58747557D01*
X94074683Y-58723716D01*
X94130190Y-58540734D01*
X94139493Y-58518276D01*
X94229627Y-58349648D01*
X94243131Y-58329437D01*
X94364435Y-58181626D01*
X94381624Y-58164437D01*
X94529432Y-58043134D01*
X94549643Y-58029629D01*
X94718272Y-57939494D01*
X94740731Y-57930191D01*
X94923712Y-57874684D01*
X94947553Y-57869942D01*
X95149996Y-57850003D01*
X95384540Y-57830562D01*
X95384541Y-57830562D01*
X95612692Y-57772787D01*
X95828217Y-57678250D01*
X96025252Y-57549521D01*
X96198394Y-57390135D01*
X96198408Y-57390119D01*
X96342955Y-57204404D01*
X96342959Y-57204400D01*
X96454973Y-56997417D01*
X96454975Y-56997411D01*
X96531391Y-56774819D01*
X96570130Y-56542674D01*
X96570130Y-56307325D01*
X96531391Y-56075180D01*
X96454975Y-55852588D01*
X96454973Y-55852582D01*
X96342959Y-55645599D01*
X96342955Y-55645595D01*
X96198408Y-55459880D01*
X96198394Y-55459864D01*
X96025252Y-55300478D01*
X95828217Y-55171749D01*
X95612692Y-55077212D01*
X95384540Y-55019437D01*
X95150001Y-54999997D01*
X77500004Y-55000000D01*
X77173686Y-55021388D01*
X77173674Y-55021390D01*
X76852957Y-55085184D01*
X76852943Y-55085187D01*
X76543295Y-55190299D01*
X76543274Y-55190308D01*
X76250003Y-55334933D01*
X75978094Y-55516618D01*
X75732232Y-55732232D01*
X75516618Y-55978094D01*
X75334933Y-56250003D01*
X75190308Y-56543274D01*
X75190299Y-56543295D01*
X75085187Y-56852943D01*
X75085184Y-56852957D01*
X75021390Y-57173674D01*
X75021388Y-57173686D01*
X75000000Y-57500003D01*
X75000003Y-75149998D01*
X75019437Y-75384543D01*
X75077213Y-75612697D01*
X75171751Y-75828221D01*
X75300478Y-76025252D01*
X75459880Y-76198409D01*
X75459883Y-76198412D01*
X75645593Y-76342956D01*
X75645599Y-76342960D01*
X75852585Y-76454976D01*
X75852591Y-76454978D01*
X76075183Y-76531394D01*
X76307328Y-76570133D01*
X76542678Y-76570133D01*
X76774822Y-76531394D01*
X76997414Y-76454978D01*
X76997420Y-76454976D01*
X77204406Y-76342960D01*
X77204412Y-76342956D01*
X77390122Y-76198412D01*
X77390125Y-76198409D01*
X77549527Y-76025252D01*
X77678254Y-75828221D01*
X77772792Y-75612697D01*
X77830568Y-75384543D01*
X77850003Y-75150001D01*
X77869941Y-74947557D01*
X77874683Y-74923716D01*
X77930190Y-74740734D01*
X77939493Y-74718276D01*
X78029627Y-74549646D01*
X78043132Y-74529434D01*
X78164436Y-74381626D01*
X78181624Y-74364438D01*
X78329431Y-74243135D01*
X78349642Y-74229630D01*
X78518275Y-74139493D01*
X78540734Y-74130190D01*
X78723713Y-74074684D01*
X78747553Y-74069942D01*
X78946968Y-74050300D01*
X78953050Y-74050001D01*
X79826000Y-74050001D01*
X79893039Y-74069686D01*
X79938794Y-74122490D01*
X79950000Y-74174001D01*
X79950000Y-85825998D01*
X79930315Y-85893037D01*
X79877511Y-85938792D01*
X79826000Y-85949998D01*
X78953048Y-85949997D01*
X78946967Y-85949698D01*
X78747557Y-85930058D01*
X78723716Y-85925316D01*
X78540734Y-85869809D01*
X78518276Y-85860506D01*
X78349648Y-85770372D01*
X78329437Y-85756868D01*
X78181626Y-85635564D01*
X78164437Y-85618375D01*
X78043134Y-85470567D01*
X78029629Y-85450356D01*
X77939494Y-85281727D01*
X77930191Y-85259268D01*
X77874684Y-85076287D01*
X77869942Y-85052446D01*
X77850003Y-84850005D01*
X77830563Y-84615461D01*
X77830563Y-84615459D01*
X77772788Y-84387309D01*
X77678249Y-84171779D01*
X77549526Y-83974753D01*
X77390122Y-83801594D01*
X77390119Y-83801591D01*
X77204404Y-83657044D01*
X77204400Y-83657040D01*
X76997417Y-83545026D01*
X76997411Y-83545024D01*
X76774819Y-83468608D01*
X76542675Y-83429870D01*
X76307326Y-83429870D01*
X76075181Y-83468608D01*
X75852589Y-83545024D01*
X75852583Y-83545026D01*
X75645600Y-83657040D01*
X75645596Y-83657044D01*
X75459881Y-83801591D01*
X75459877Y-83801594D01*
X75300473Y-83974752D01*
X75171750Y-84171779D01*
X75077212Y-84387307D01*
X75019437Y-84615460D01*
X75000003Y-84850006D01*
X75000003Y-90149998D01*
X75019437Y-90384543D01*
X75077213Y-90612697D01*
X75171751Y-90828221D01*
X75300478Y-91025252D01*
X75459880Y-91198409D01*
X75459883Y-91198412D01*
X75645593Y-91342956D01*
X75645599Y-91342960D01*
X75852585Y-91454976D01*
X75852591Y-91454978D01*
X76075183Y-91531394D01*
X76307328Y-91570133D01*
X76542678Y-91570133D01*
X76774822Y-91531394D01*
X76997414Y-91454978D01*
X76997420Y-91454976D01*
X77204406Y-91342960D01*
X77204412Y-91342956D01*
X77390122Y-91198412D01*
X77390125Y-91198409D01*
X77549527Y-91025252D01*
X77678254Y-90828221D01*
X77772792Y-90612697D01*
X77830568Y-90384543D01*
X77850003Y-90150001D01*
X77869941Y-89947557D01*
X77874683Y-89923716D01*
X77930190Y-89740734D01*
X77939493Y-89718276D01*
X78029627Y-89549646D01*
X78043132Y-89529434D01*
X78164436Y-89381626D01*
X78181624Y-89364438D01*
X78329431Y-89243135D01*
X78349642Y-89229630D01*
X78518275Y-89139493D01*
X78540734Y-89130190D01*
X78723713Y-89074684D01*
X78747553Y-89069942D01*
X78946968Y-89050301D01*
X78953049Y-89050002D01*
X79826000Y-89050002D01*
X79893039Y-89069687D01*
X79938794Y-89122491D01*
X79950000Y-89174002D01*
X79950000Y-100825997D01*
X79930315Y-100893036D01*
X79877511Y-100938791D01*
X79826000Y-100949997D01*
X78953049Y-100949997D01*
X78946968Y-100949698D01*
X78747557Y-100930058D01*
X78723716Y-100925316D01*
X78540734Y-100869809D01*
X78518276Y-100860506D01*
X78349648Y-100770372D01*
X78329437Y-100756868D01*
X78181626Y-100635564D01*
X78164437Y-100618375D01*
X78043134Y-100470567D01*
X78029629Y-100450356D01*
X77939494Y-100281727D01*
X77930191Y-100259268D01*
X77874684Y-100076287D01*
X77869942Y-100052446D01*
X77850003Y-99850004D01*
X77830568Y-99615460D01*
X77772792Y-99387306D01*
X77678254Y-99171782D01*
X77549527Y-98974751D01*
X77390125Y-98801594D01*
X77390122Y-98801591D01*
X77204412Y-98657047D01*
X77204406Y-98657043D01*
X76997420Y-98545027D01*
X76997414Y-98545025D01*
X76774822Y-98468609D01*
X76542678Y-98429871D01*
X76307328Y-98429871D01*
X76075183Y-98468609D01*
X75852591Y-98545025D01*
X75852585Y-98545027D01*
X75645599Y-98657043D01*
X75645593Y-98657047D01*
X75459883Y-98801591D01*
X75459880Y-98801594D01*
X75300478Y-98974751D01*
X75171751Y-99171782D01*
X75077213Y-99387306D01*
X75019437Y-99615460D01*
X75000003Y-99850006D01*
X75000003Y-105149997D01*
X75019432Y-105384550D01*
X75077207Y-105612696D01*
X75171747Y-105828228D01*
X75300471Y-106025252D01*
X75300474Y-106025256D01*
X75459875Y-106198411D01*
X75459878Y-106198414D01*
X75645593Y-106342961D01*
X75645602Y-106342968D01*
X75852576Y-106454976D01*
X75852586Y-106454981D01*
X76075180Y-106531397D01*
X76307326Y-106570136D01*
X76542675Y-106570136D01*
X76774820Y-106531397D01*
X76997410Y-106454981D01*
X76997419Y-106454978D01*
X77204405Y-106342962D01*
X77204411Y-106342958D01*
X77390122Y-106198413D01*
X77390125Y-106198410D01*
X77549527Y-106025253D01*
X77678254Y-105828222D01*
X77772792Y-105612697D01*
X77830568Y-105384543D01*
X77850003Y-105150001D01*
X77869941Y-104947557D01*
X77874683Y-104923716D01*
X77930190Y-104740734D01*
X77939493Y-104718276D01*
X78029627Y-104549646D01*
X78043132Y-104529434D01*
X78164436Y-104381626D01*
X78181624Y-104364438D01*
X78329431Y-104243135D01*
X78349642Y-104229630D01*
X78518275Y-104139493D01*
X78540734Y-104130190D01*
X78723718Y-104074683D01*
X78747553Y-104069942D01*
X78946963Y-104050292D01*
X78953047Y-104049993D01*
X79826000Y-104049996D01*
X79893040Y-104069681D01*
X79938795Y-104122485D01*
X79950000Y-104173996D01*
X79950000Y-115825997D01*
X79930315Y-115893036D01*
X79877511Y-115938791D01*
X79826000Y-115949997D01*
X78953049Y-115949997D01*
X78946968Y-115949698D01*
X78747557Y-115930058D01*
X78723716Y-115925316D01*
X78540734Y-115869809D01*
X78518276Y-115860506D01*
X78349648Y-115770372D01*
X78329437Y-115756868D01*
X78181626Y-115635564D01*
X78164437Y-115618375D01*
X78043134Y-115470567D01*
X78029629Y-115450356D01*
X77939494Y-115281727D01*
X77930191Y-115259268D01*
X77874684Y-115076287D01*
X77869942Y-115052446D01*
X77850003Y-114850004D01*
X77830568Y-114615460D01*
X77772792Y-114387306D01*
X77678254Y-114171782D01*
X77549527Y-113974751D01*
X77390125Y-113801594D01*
X77390122Y-113801591D01*
X77204412Y-113657047D01*
X77204406Y-113657043D01*
X76997420Y-113545027D01*
X76997414Y-113545025D01*
X76774822Y-113468609D01*
X76542678Y-113429871D01*
X76307328Y-113429871D01*
X76075183Y-113468609D01*
X75852591Y-113545025D01*
X75852585Y-113545027D01*
X75645599Y-113657043D01*
X75645593Y-113657047D01*
X75459883Y-113801591D01*
X75459880Y-113801594D01*
X75300478Y-113974751D01*
X75171751Y-114171782D01*
X75077213Y-114387306D01*
X75019437Y-114615460D01*
X75000003Y-114850006D01*
X75000003Y-120149998D01*
X75019437Y-120384543D01*
X75077213Y-120612697D01*
X75171751Y-120828221D01*
X75300478Y-121025252D01*
X75459880Y-121198409D01*
X75459883Y-121198412D01*
X75645593Y-121342956D01*
X75645599Y-121342960D01*
X75852585Y-121454976D01*
X75852591Y-121454978D01*
X76075183Y-121531394D01*
X76307328Y-121570133D01*
X76542678Y-121570133D01*
X76774822Y-121531394D01*
X76997414Y-121454978D01*
X76997420Y-121454976D01*
X77204406Y-121342960D01*
X77204412Y-121342956D01*
X77390122Y-121198412D01*
X77390125Y-121198409D01*
X77549527Y-121025252D01*
X77678254Y-120828221D01*
X77772792Y-120612697D01*
X77830568Y-120384543D01*
X77850003Y-120150001D01*
X77869941Y-119947557D01*
X77874683Y-119923716D01*
X77930190Y-119740734D01*
X77939493Y-119718276D01*
X78029627Y-119549646D01*
X78043132Y-119529434D01*
X78164436Y-119381626D01*
X78181624Y-119364438D01*
X78329431Y-119243135D01*
X78349642Y-119229630D01*
X78518275Y-119139493D01*
X78540734Y-119130190D01*
X78723713Y-119074684D01*
X78747554Y-119069942D01*
X78946966Y-119050302D01*
X78953047Y-119050003D01*
X79826000Y-119050003D01*
X79893039Y-119069688D01*
X79938794Y-119122492D01*
X79950000Y-119174003D01*
X79950000Y-130825997D01*
X79930315Y-130893036D01*
X79877511Y-130938791D01*
X79826000Y-130949997D01*
X78953049Y-130949997D01*
X78946968Y-130949698D01*
X78747557Y-130930058D01*
X78723716Y-130925316D01*
X78540734Y-130869809D01*
X78518276Y-130860506D01*
X78349648Y-130770372D01*
X78329437Y-130756868D01*
X78181626Y-130635564D01*
X78164437Y-130618375D01*
X78043134Y-130470567D01*
X78029629Y-130450356D01*
X77939494Y-130281727D01*
X77930191Y-130259268D01*
X77874684Y-130076287D01*
X77869942Y-130052446D01*
X77850003Y-129850004D01*
X77830568Y-129615460D01*
X77772792Y-129387306D01*
X77678254Y-129171782D01*
X77549527Y-128974751D01*
X77390125Y-128801594D01*
X77390122Y-128801591D01*
X77204412Y-128657047D01*
X77204406Y-128657043D01*
X76997420Y-128545027D01*
X76997414Y-128545025D01*
X76774822Y-128468609D01*
X76542678Y-128429871D01*
X76307328Y-128429871D01*
X76075183Y-128468609D01*
X75852591Y-128545025D01*
X75852585Y-128545027D01*
X75645599Y-128657043D01*
X75645593Y-128657047D01*
X75459883Y-128801591D01*
X75459880Y-128801594D01*
X75300478Y-128974751D01*
X75171751Y-129171782D01*
X75077213Y-129387306D01*
X75019437Y-129615460D01*
X75000003Y-129850006D01*
X75000000Y-147499996D01*
X75000000Y-147499997D01*
X74750000Y-147499997D01*
X74750000Y-55001530D01*
X74750075Y-54998488D01*
X74751055Y-54978539D01*
X74751651Y-54972482D01*
X74754356Y-54954243D01*
X74755544Y-54948272D01*
X74760023Y-54930386D01*
X74761792Y-54924556D01*
X74768003Y-54907198D01*
X74770332Y-54901576D01*
X74778216Y-54884906D01*
X74781086Y-54879537D01*
X74790567Y-54863718D01*
X74793949Y-54858657D01*
X74804928Y-54843853D01*
X74808789Y-54839148D01*
X74821173Y-54825483D01*
X74825483Y-54821173D01*
X74839148Y-54808789D01*
X74843853Y-54804928D01*
X74858657Y-54793949D01*
X74863718Y-54790567D01*
X74879537Y-54781086D01*
X74884906Y-54778216D01*
X74901576Y-54770332D01*
X74907198Y-54768003D01*
X74924556Y-54761792D01*
X74930386Y-54760023D01*
X74948272Y-54755544D01*
X74954243Y-54754356D01*
X74972482Y-54751651D01*
X74978540Y-54751055D01*
X74998489Y-54750075D01*
X75001531Y-54750000D01*
X169998469Y-54750000D01*
X170001511Y-54750075D01*
G37*
M02*
