%TF.GenerationSoftware,KiCad,Pcbnew,8.0.1-unknown-202403172319~81f55dfc9c~ubuntu22.04.1*%
%TF.CreationDate,2024-03-25T12:13:27+00:00*%
%TF.ProjectId,LIS3DH_array,4c495333-4448-45f6-9172-7261792e6b69,rev?*%
%TF.SameCoordinates,Original*%
%TF.FileFunction,Legend,Bot*%
%TF.FilePolarity,Positive*%
%FSLAX46Y46*%
G04 Gerber Fmt 4.6, Leading zero omitted, Abs format (unit mm)*
G04 Created by KiCad (PCBNEW 8.0.1-unknown-202403172319~81f55dfc9c~ubuntu22.04.1) date 2024-03-25 12:13:27*
%MOMM*%
%LPD*%
G01*
G04 APERTURE LIST*
%ADD10C,0.500000*%
%ADD11C,0.120000*%
%ADD12C,1.000000*%
G04 APERTURE END LIST*
D10*
X167785714Y-154290428D02*
X167357142Y-154433285D01*
X167357142Y-154433285D02*
X167214285Y-154576142D01*
X167214285Y-154576142D02*
X167071428Y-154861857D01*
X167071428Y-154861857D02*
X167071428Y-155290428D01*
X167071428Y-155290428D02*
X167214285Y-155576142D01*
X167214285Y-155576142D02*
X167357142Y-155719000D01*
X167357142Y-155719000D02*
X167642857Y-155861857D01*
X167642857Y-155861857D02*
X168785714Y-155861857D01*
X168785714Y-155861857D02*
X168785714Y-152861857D01*
X168785714Y-152861857D02*
X167785714Y-152861857D01*
X167785714Y-152861857D02*
X167500000Y-153004714D01*
X167500000Y-153004714D02*
X167357142Y-153147571D01*
X167357142Y-153147571D02*
X167214285Y-153433285D01*
X167214285Y-153433285D02*
X167214285Y-153719000D01*
X167214285Y-153719000D02*
X167357142Y-154004714D01*
X167357142Y-154004714D02*
X167500000Y-154147571D01*
X167500000Y-154147571D02*
X167785714Y-154290428D01*
X167785714Y-154290428D02*
X168785714Y-154290428D01*
X166071428Y-153861857D02*
X165357142Y-155861857D01*
X164642857Y-153861857D02*
X165357142Y-155861857D01*
X165357142Y-155861857D02*
X165642857Y-156576142D01*
X165642857Y-156576142D02*
X165785714Y-156719000D01*
X165785714Y-156719000D02*
X166071428Y-156861857D01*
X161357143Y-155004714D02*
X159928572Y-155004714D01*
X161642857Y-155861857D02*
X160642857Y-152861857D01*
X160642857Y-152861857D02*
X159642857Y-155861857D01*
X158642857Y-155861857D02*
X158642857Y-152861857D01*
X158642857Y-152861857D02*
X157928571Y-152861857D01*
X157928571Y-152861857D02*
X157500000Y-153004714D01*
X157500000Y-153004714D02*
X157214285Y-153290428D01*
X157214285Y-153290428D02*
X157071428Y-153576142D01*
X157071428Y-153576142D02*
X156928571Y-154147571D01*
X156928571Y-154147571D02*
X156928571Y-154576142D01*
X156928571Y-154576142D02*
X157071428Y-155147571D01*
X157071428Y-155147571D02*
X157214285Y-155433285D01*
X157214285Y-155433285D02*
X157500000Y-155719000D01*
X157500000Y-155719000D02*
X157928571Y-155861857D01*
X157928571Y-155861857D02*
X158642857Y-155861857D01*
X154500000Y-155719000D02*
X154785714Y-155861857D01*
X154785714Y-155861857D02*
X155357143Y-155861857D01*
X155357143Y-155861857D02*
X155642857Y-155719000D01*
X155642857Y-155719000D02*
X155785714Y-155433285D01*
X155785714Y-155433285D02*
X155785714Y-154290428D01*
X155785714Y-154290428D02*
X155642857Y-154004714D01*
X155642857Y-154004714D02*
X155357143Y-153861857D01*
X155357143Y-153861857D02*
X154785714Y-153861857D01*
X154785714Y-153861857D02*
X154500000Y-154004714D01*
X154500000Y-154004714D02*
X154357143Y-154290428D01*
X154357143Y-154290428D02*
X154357143Y-154576142D01*
X154357143Y-154576142D02*
X155785714Y-154861857D01*
X153357142Y-153861857D02*
X152642856Y-155861857D01*
X152642856Y-155861857D02*
X151928571Y-153861857D01*
D11*
%TO.C,TP16*%
X128700002Y-96999998D02*
G75*
G02*
X127300002Y-96999998I-700000J0D01*
G01*
X127300002Y-96999998D02*
G75*
G02*
X128700002Y-96999998I700000J0D01*
G01*
%TO.C,TP19*%
X98700002Y-78000002D02*
G75*
G02*
X97300002Y-78000002I-700000J0D01*
G01*
X97300002Y-78000002D02*
G75*
G02*
X98700002Y-78000002I700000J0D01*
G01*
%TO.C,TP24*%
X113700003Y-96999998D02*
G75*
G02*
X112300003Y-96999998I-700000J0D01*
G01*
X112300003Y-96999998D02*
G75*
G02*
X113700003Y-96999998I700000J0D01*
G01*
%TO.C,TP1*%
X102699998Y-81999998D02*
G75*
G02*
X101299998Y-81999998I-700000J0D01*
G01*
X101299998Y-81999998D02*
G75*
G02*
X102699998Y-81999998I700000J0D01*
G01*
%TO.C,TP48*%
X147699998Y-111999997D02*
G75*
G02*
X146299998Y-111999997I-700000J0D01*
G01*
X146299998Y-111999997D02*
G75*
G02*
X147699998Y-111999997I700000J0D01*
G01*
%TO.C,TP53*%
X113700002Y-123000003D02*
G75*
G02*
X112300002Y-123000003I-700000J0D01*
G01*
X112300002Y-123000003D02*
G75*
G02*
X113700002Y-123000003I700000J0D01*
G01*
%TO.C,TP35*%
X147699998Y-96999997D02*
G75*
G02*
X146299998Y-96999997I-700000J0D01*
G01*
X146299998Y-96999997D02*
G75*
G02*
X147699998Y-96999997I700000J0D01*
G01*
%TO.C,TP59*%
X132699998Y-126999997D02*
G75*
G02*
X131299998Y-126999997I-700000J0D01*
G01*
X131299998Y-126999997D02*
G75*
G02*
X132699998Y-126999997I700000J0D01*
G01*
%TO.C,TP12*%
X128700002Y-81999998D02*
G75*
G02*
X127300002Y-81999998I-700000J0D01*
G01*
X127300002Y-81999998D02*
G75*
G02*
X128700002Y-81999998I700000J0D01*
G01*
%TO.C,TP37*%
X113700002Y-108000003D02*
G75*
G02*
X112300002Y-108000003I-700000J0D01*
G01*
X112300002Y-108000003D02*
G75*
G02*
X113700002Y-108000003I700000J0D01*
G01*
%TO.C,TP31*%
X147699998Y-81999997D02*
G75*
G02*
X146299998Y-81999997I-700000J0D01*
G01*
X146299998Y-81999997D02*
G75*
G02*
X147699998Y-81999997I700000J0D01*
G01*
%TO.C,TP47*%
X147699997Y-108000002D02*
G75*
G02*
X146299997Y-108000002I-700000J0D01*
G01*
X146299997Y-108000002D02*
G75*
G02*
X147699997Y-108000002I700000J0D01*
G01*
%TO.C,TP21*%
X128700002Y-78000002D02*
G75*
G02*
X127300002Y-78000002I-700000J0D01*
G01*
X127300002Y-78000002D02*
G75*
G02*
X128700002Y-78000002I700000J0D01*
G01*
%TO.C,TP38*%
X117699997Y-108000002D02*
G75*
G02*
X116299997Y-108000002I-700000J0D01*
G01*
X116299997Y-108000002D02*
G75*
G02*
X117699997Y-108000002I700000J0D01*
G01*
%TO.C,TP45*%
X143700003Y-111999998D02*
G75*
G02*
X142300003Y-111999998I-700000J0D01*
G01*
X142300003Y-111999998D02*
G75*
G02*
X143700003Y-111999998I700000J0D01*
G01*
%TO.C,TP27*%
X98700003Y-111999998D02*
G75*
G02*
X97300003Y-111999998I-700000J0D01*
G01*
X97300003Y-111999998D02*
G75*
G02*
X98700003Y-111999998I700000J0D01*
G01*
%TO.C,TP64*%
X143700003Y-126999998D02*
G75*
G02*
X142300003Y-126999998I-700000J0D01*
G01*
X142300003Y-126999998D02*
G75*
G02*
X143700003Y-126999998I700000J0D01*
G01*
%TO.C,TP30*%
X132699998Y-78000002D02*
G75*
G02*
X131299998Y-78000002I-700000J0D01*
G01*
X131299998Y-78000002D02*
G75*
G02*
X132699998Y-78000002I700000J0D01*
G01*
%TO.C,TP58*%
X132699997Y-123000002D02*
G75*
G02*
X131299997Y-123000002I-700000J0D01*
G01*
X131299997Y-123000002D02*
G75*
G02*
X132699997Y-123000002I700000J0D01*
G01*
%TO.C,TP2*%
X117699998Y-81999998D02*
G75*
G02*
X116299998Y-81999998I-700000J0D01*
G01*
X116299998Y-81999998D02*
G75*
G02*
X117699998Y-81999998I700000J0D01*
G01*
%TO.C,TP6*%
X117699997Y-93000002D02*
G75*
G02*
X116299997Y-93000002I-700000J0D01*
G01*
X116299997Y-93000002D02*
G75*
G02*
X117699997Y-93000002I700000J0D01*
G01*
%TO.C,TP55*%
X117699998Y-126999997D02*
G75*
G02*
X116299998Y-126999997I-700000J0D01*
G01*
X116299998Y-126999997D02*
G75*
G02*
X117699998Y-126999997I700000J0D01*
G01*
%TO.C,TP63*%
X147699998Y-126999997D02*
G75*
G02*
X146299998Y-126999997I-700000J0D01*
G01*
X146299998Y-126999997D02*
G75*
G02*
X147699998Y-126999997I700000J0D01*
G01*
%TO.C,TP34*%
X132699998Y-93000002D02*
G75*
G02*
X131299998Y-93000002I-700000J0D01*
G01*
X131299998Y-93000002D02*
G75*
G02*
X132699998Y-93000002I700000J0D01*
G01*
%TO.C,TP61*%
X143700002Y-123000003D02*
G75*
G02*
X142300002Y-123000003I-700000J0D01*
G01*
X142300002Y-123000003D02*
G75*
G02*
X143700002Y-123000003I700000J0D01*
G01*
%TO.C,TP3*%
X132699998Y-81999998D02*
G75*
G02*
X131299998Y-81999998I-700000J0D01*
G01*
X131299998Y-81999998D02*
G75*
G02*
X132699998Y-81999998I700000J0D01*
G01*
%TO.C,TP33*%
X113700002Y-93000003D02*
G75*
G02*
X112300002Y-93000003I-700000J0D01*
G01*
X112300002Y-93000003D02*
G75*
G02*
X113700002Y-93000003I700000J0D01*
G01*
%TO.C,TP14*%
X102699998Y-96999997D02*
G75*
G02*
X101299998Y-96999997I-700000J0D01*
G01*
X101299998Y-96999997D02*
G75*
G02*
X102699998Y-96999997I700000J0D01*
G01*
%TO.C,TP25*%
X128700002Y-93000002D02*
G75*
G02*
X127300002Y-93000002I-700000J0D01*
G01*
X127300002Y-93000002D02*
G75*
G02*
X128700002Y-93000002I700000J0D01*
G01*
%TO.C,TP60*%
X128700003Y-126999998D02*
G75*
G02*
X127300003Y-126999998I-700000J0D01*
G01*
X127300003Y-126999998D02*
G75*
G02*
X128700003Y-126999998I700000J0D01*
G01*
%TO.C,TP62*%
X147699997Y-123000002D02*
G75*
G02*
X146299997Y-123000002I-700000J0D01*
G01*
X146299997Y-123000002D02*
G75*
G02*
X147699997Y-123000002I700000J0D01*
G01*
%TO.C,TP11*%
X113700002Y-81999998D02*
G75*
G02*
X112300002Y-81999998I-700000J0D01*
G01*
X112300002Y-81999998D02*
G75*
G02*
X113700002Y-81999998I700000J0D01*
G01*
%TO.C,TP56*%
X113700003Y-126999998D02*
G75*
G02*
X112300003Y-126999998I-700000J0D01*
G01*
X112300003Y-126999998D02*
G75*
G02*
X113700003Y-126999998I700000J0D01*
G01*
%TO.C,TP13*%
X143700002Y-78000003D02*
G75*
G02*
X142300002Y-78000003I-700000J0D01*
G01*
X142300002Y-78000003D02*
G75*
G02*
X143700002Y-78000003I700000J0D01*
G01*
%TO.C,TP15*%
X117699998Y-96999997D02*
G75*
G02*
X116299998Y-96999997I-700000J0D01*
G01*
X116299998Y-96999997D02*
G75*
G02*
X117699998Y-96999997I700000J0D01*
G01*
%TO.C,TP23*%
X98700003Y-96999998D02*
G75*
G02*
X97300003Y-96999998I-700000J0D01*
G01*
X97300003Y-96999998D02*
G75*
G02*
X98700003Y-96999998I700000J0D01*
G01*
%TO.C,TP8*%
X143700003Y-96999998D02*
G75*
G02*
X142300003Y-96999998I-700000J0D01*
G01*
X142300003Y-96999998D02*
G75*
G02*
X143700003Y-96999998I700000J0D01*
G01*
%TO.C,TP54*%
X117699997Y-123000002D02*
G75*
G02*
X116299997Y-123000002I-700000J0D01*
G01*
X116299997Y-123000002D02*
G75*
G02*
X117699997Y-123000002I700000J0D01*
G01*
%TO.C,TP4*%
X143700003Y-81999998D02*
G75*
G02*
X142300003Y-81999998I-700000J0D01*
G01*
X142300003Y-81999998D02*
G75*
G02*
X143700003Y-81999998I700000J0D01*
G01*
%TO.C,TP26*%
X147699997Y-93000002D02*
G75*
G02*
X146299997Y-93000002I-700000J0D01*
G01*
X146299997Y-93000002D02*
G75*
G02*
X147699997Y-93000002I700000J0D01*
G01*
%TO.C,TP46*%
X143700002Y-108000003D02*
G75*
G02*
X142300002Y-108000003I-700000J0D01*
G01*
X142300002Y-108000003D02*
G75*
G02*
X143700002Y-108000003I700000J0D01*
G01*
%TO.C,TP50*%
X102699998Y-126999997D02*
G75*
G02*
X101299998Y-126999997I-700000J0D01*
G01*
X101299998Y-126999997D02*
G75*
G02*
X102699998Y-126999997I700000J0D01*
G01*
%TO.C,TP52*%
X98700002Y-123000003D02*
G75*
G02*
X97300002Y-123000003I-700000J0D01*
G01*
X97300002Y-123000003D02*
G75*
G02*
X98700002Y-123000003I700000J0D01*
G01*
%TO.C,TP28*%
X102699998Y-78000002D02*
G75*
G02*
X101299998Y-78000002I-700000J0D01*
G01*
X101299998Y-78000002D02*
G75*
G02*
X102699998Y-78000002I700000J0D01*
G01*
%TO.C,TP49*%
X102699997Y-123000002D02*
G75*
G02*
X101299997Y-123000002I-700000J0D01*
G01*
X101299997Y-123000002D02*
G75*
G02*
X102699997Y-123000002I700000J0D01*
G01*
%TO.C,TP32*%
X98700002Y-93000003D02*
G75*
G02*
X97300002Y-93000003I-700000J0D01*
G01*
X97300002Y-93000003D02*
G75*
G02*
X98700002Y-93000003I700000J0D01*
G01*
%TO.C,TP22*%
X147699997Y-78000002D02*
G75*
G02*
X146299997Y-78000002I-700000J0D01*
G01*
X146299997Y-78000002D02*
G75*
G02*
X147699997Y-78000002I700000J0D01*
G01*
%TO.C,TP17*%
X143700002Y-93000003D02*
G75*
G02*
X142300002Y-93000003I-700000J0D01*
G01*
X142300002Y-93000003D02*
G75*
G02*
X143700002Y-93000003I700000J0D01*
G01*
%TO.C,TP42*%
X128700002Y-108000003D02*
G75*
G02*
X127300002Y-108000003I-700000J0D01*
G01*
X127300002Y-108000003D02*
G75*
G02*
X128700002Y-108000003I700000J0D01*
G01*
%TO.C,TP5*%
X102699997Y-93000002D02*
G75*
G02*
X101299997Y-93000002I-700000J0D01*
G01*
X101299997Y-93000002D02*
G75*
G02*
X102699997Y-93000002I700000J0D01*
G01*
%TO.C,TP18*%
X102699998Y-111999997D02*
G75*
G02*
X101299998Y-111999997I-700000J0D01*
G01*
X101299998Y-111999997D02*
G75*
G02*
X102699998Y-111999997I700000J0D01*
G01*
%TO.C,TP40*%
X113700003Y-111999998D02*
G75*
G02*
X112300003Y-111999998I-700000J0D01*
G01*
X112300003Y-111999998D02*
G75*
G02*
X113700003Y-111999998I700000J0D01*
G01*
%TO.C,TP57*%
X128700002Y-123000003D02*
G75*
G02*
X127300002Y-123000003I-700000J0D01*
G01*
X127300002Y-123000003D02*
G75*
G02*
X128700002Y-123000003I700000J0D01*
G01*
%TO.C,TP41*%
X128700003Y-111999998D02*
G75*
G02*
X127300003Y-111999998I-700000J0D01*
G01*
X127300003Y-111999998D02*
G75*
G02*
X128700003Y-111999998I700000J0D01*
G01*
%TO.C,TP39*%
X117699998Y-111999997D02*
G75*
G02*
X116299998Y-111999997I-700000J0D01*
G01*
X116299998Y-111999997D02*
G75*
G02*
X117699998Y-111999997I700000J0D01*
G01*
%TO.C,TP29*%
X117699998Y-78000002D02*
G75*
G02*
X116299998Y-78000002I-700000J0D01*
G01*
X116299998Y-78000002D02*
G75*
G02*
X117699998Y-78000002I700000J0D01*
G01*
%TO.C,TP43*%
X132699997Y-108000002D02*
G75*
G02*
X131299997Y-108000002I-700000J0D01*
G01*
X131299997Y-108000002D02*
G75*
G02*
X132699997Y-108000002I700000J0D01*
G01*
%TO.C,TP9*%
X102699997Y-108000002D02*
G75*
G02*
X101299997Y-108000002I-700000J0D01*
G01*
X101299997Y-108000002D02*
G75*
G02*
X102699997Y-108000002I700000J0D01*
G01*
%TO.C,TP7*%
X132699998Y-96999998D02*
G75*
G02*
X131299998Y-96999998I-700000J0D01*
G01*
X131299998Y-96999998D02*
G75*
G02*
X132699998Y-96999998I700000J0D01*
G01*
%TO.C,TP44*%
X132699998Y-111999997D02*
G75*
G02*
X131299998Y-111999997I-700000J0D01*
G01*
X131299998Y-111999997D02*
G75*
G02*
X132699998Y-111999997I700000J0D01*
G01*
%TO.C,TP36*%
X98700002Y-108000003D02*
G75*
G02*
X97300002Y-108000003I-700000J0D01*
G01*
X97300002Y-108000003D02*
G75*
G02*
X98700002Y-108000003I700000J0D01*
G01*
%TO.C,TP51*%
X98700003Y-126999998D02*
G75*
G02*
X97300003Y-126999998I-700000J0D01*
G01*
X97300003Y-126999998D02*
G75*
G02*
X98700003Y-126999998I700000J0D01*
G01*
%TO.C,TP10*%
X98700002Y-81999998D02*
G75*
G02*
X97300002Y-81999998I-700000J0D01*
G01*
X97300002Y-81999998D02*
G75*
G02*
X98700002Y-81999998I700000J0D01*
G01*
%TO.C,TP20*%
X113700002Y-78000002D02*
G75*
G02*
X112300002Y-78000002I-700000J0D01*
G01*
X112300002Y-78000002D02*
G75*
G02*
X113700002Y-78000002I700000J0D01*
G01*
%TD*%
%LPC*%
D12*
%TO.C,TP16*%
X128000002Y-96999998D03*
%TD*%
%TO.C,TP19*%
X98000002Y-78000002D03*
%TD*%
%TO.C,TP24*%
X113000003Y-96999998D03*
%TD*%
%TO.C,TP1*%
X101999998Y-81999998D03*
%TD*%
%TO.C,TP48*%
X146999998Y-111999997D03*
%TD*%
%TO.C,TP53*%
X113000002Y-123000003D03*
%TD*%
%TO.C,TP35*%
X146999998Y-96999997D03*
%TD*%
%TO.C,TP59*%
X131999998Y-126999997D03*
%TD*%
%TO.C,TP12*%
X128000002Y-81999998D03*
%TD*%
%TO.C,TP37*%
X113000002Y-108000003D03*
%TD*%
%TO.C,TP31*%
X146999998Y-81999997D03*
%TD*%
%TO.C,TP47*%
X146999997Y-108000002D03*
%TD*%
%TO.C,TP21*%
X128000002Y-78000002D03*
%TD*%
%TO.C,TP38*%
X116999997Y-108000002D03*
%TD*%
%TO.C,TP45*%
X143000003Y-111999998D03*
%TD*%
%TO.C,TP27*%
X98000003Y-111999998D03*
%TD*%
%TO.C,TP64*%
X143000003Y-126999998D03*
%TD*%
%TO.C,TP30*%
X131999998Y-78000002D03*
%TD*%
%TO.C,TP58*%
X131999997Y-123000002D03*
%TD*%
%TO.C,TP2*%
X116999998Y-81999998D03*
%TD*%
%TO.C,TP6*%
X116999997Y-93000002D03*
%TD*%
%TO.C,TP55*%
X116999998Y-126999997D03*
%TD*%
%TO.C,TP63*%
X146999998Y-126999997D03*
%TD*%
%TO.C,TP34*%
X131999998Y-93000002D03*
%TD*%
%TO.C,TP61*%
X143000002Y-123000003D03*
%TD*%
%TO.C,TP3*%
X131999998Y-81999998D03*
%TD*%
%TO.C,TP33*%
X113000002Y-93000003D03*
%TD*%
%TO.C,TP14*%
X101999998Y-96999997D03*
%TD*%
%TO.C,TP25*%
X128000002Y-93000002D03*
%TD*%
%TO.C,TP60*%
X128000003Y-126999998D03*
%TD*%
%TO.C,TP62*%
X146999997Y-123000002D03*
%TD*%
%TO.C,TP11*%
X113000002Y-81999998D03*
%TD*%
%TO.C,TP56*%
X113000003Y-126999998D03*
%TD*%
%TO.C,TP13*%
X143000002Y-78000003D03*
%TD*%
%TO.C,TP15*%
X116999998Y-96999997D03*
%TD*%
%TO.C,TP23*%
X98000003Y-96999998D03*
%TD*%
%TO.C,TP8*%
X143000003Y-96999998D03*
%TD*%
%TO.C,TP54*%
X116999997Y-123000002D03*
%TD*%
%TO.C,TP4*%
X143000003Y-81999998D03*
%TD*%
%TO.C,TP26*%
X146999997Y-93000002D03*
%TD*%
%TO.C,TP46*%
X143000002Y-108000003D03*
%TD*%
%TO.C,TP50*%
X101999998Y-126999997D03*
%TD*%
%TO.C,TP52*%
X98000002Y-123000003D03*
%TD*%
%TO.C,TP28*%
X101999998Y-78000002D03*
%TD*%
%TO.C,TP49*%
X101999997Y-123000002D03*
%TD*%
%TO.C,TP32*%
X98000002Y-93000003D03*
%TD*%
%TO.C,TP22*%
X146999997Y-78000002D03*
%TD*%
%TO.C,TP17*%
X143000002Y-93000003D03*
%TD*%
%TO.C,TP42*%
X128000002Y-108000003D03*
%TD*%
%TO.C,TP5*%
X101999997Y-93000002D03*
%TD*%
%TO.C,TP18*%
X101999998Y-111999997D03*
%TD*%
%TO.C,TP40*%
X113000003Y-111999998D03*
%TD*%
%TO.C,TP57*%
X128000002Y-123000003D03*
%TD*%
%TO.C,TP41*%
X128000003Y-111999998D03*
%TD*%
%TO.C,TP39*%
X116999998Y-111999997D03*
%TD*%
%TO.C,TP29*%
X116999998Y-78000002D03*
%TD*%
%TO.C,TP43*%
X131999997Y-108000002D03*
%TD*%
%TO.C,TP9*%
X101999997Y-108000002D03*
%TD*%
%TO.C,TP7*%
X131999998Y-96999998D03*
%TD*%
%TO.C,TP44*%
X131999998Y-111999997D03*
%TD*%
%TO.C,TP36*%
X98000002Y-108000003D03*
%TD*%
%TO.C,TP51*%
X98000003Y-126999998D03*
%TD*%
%TO.C,TP10*%
X98000002Y-81999998D03*
%TD*%
%TO.C,TP20*%
X113000002Y-78000002D03*
%TD*%
%LPD*%
M02*
