%TF.GenerationSoftware,KiCad,Pcbnew,8.0.4-unknown-202407232306~396e531e7c~ubuntu22.04.1*%
%TF.CreationDate,2024-08-30T15:15:55+01:00*%
%TF.ProjectId,LIS3DH_array,4c495333-4448-45f6-9172-7261792e6b69,rev?*%
%TF.SameCoordinates,Original*%
%TF.FileFunction,Legend,Bot*%
%TF.FilePolarity,Positive*%
%FSLAX46Y46*%
G04 Gerber Fmt 4.6, Leading zero omitted, Abs format (unit mm)*
G04 Created by KiCad (PCBNEW 8.0.4-unknown-202407232306~396e531e7c~ubuntu22.04.1) date 2024-08-30 15:15:55*
%MOMM*%
%LPD*%
G01*
G04 APERTURE LIST*
%ADD10C,0.500000*%
%ADD11C,0.120000*%
%ADD12C,1.000000*%
G04 APERTURE END LIST*
D10*
X167785714Y-154290428D02*
X167357142Y-154433285D01*
X167357142Y-154433285D02*
X167214285Y-154576142D01*
X167214285Y-154576142D02*
X167071428Y-154861857D01*
X167071428Y-154861857D02*
X167071428Y-155290428D01*
X167071428Y-155290428D02*
X167214285Y-155576142D01*
X167214285Y-155576142D02*
X167357142Y-155719000D01*
X167357142Y-155719000D02*
X167642857Y-155861857D01*
X167642857Y-155861857D02*
X168785714Y-155861857D01*
X168785714Y-155861857D02*
X168785714Y-152861857D01*
X168785714Y-152861857D02*
X167785714Y-152861857D01*
X167785714Y-152861857D02*
X167500000Y-153004714D01*
X167500000Y-153004714D02*
X167357142Y-153147571D01*
X167357142Y-153147571D02*
X167214285Y-153433285D01*
X167214285Y-153433285D02*
X167214285Y-153719000D01*
X167214285Y-153719000D02*
X167357142Y-154004714D01*
X167357142Y-154004714D02*
X167500000Y-154147571D01*
X167500000Y-154147571D02*
X167785714Y-154290428D01*
X167785714Y-154290428D02*
X168785714Y-154290428D01*
X166071428Y-153861857D02*
X165357142Y-155861857D01*
X164642857Y-153861857D02*
X165357142Y-155861857D01*
X165357142Y-155861857D02*
X165642857Y-156576142D01*
X165642857Y-156576142D02*
X165785714Y-156719000D01*
X165785714Y-156719000D02*
X166071428Y-156861857D01*
X161357143Y-155004714D02*
X159928572Y-155004714D01*
X161642857Y-155861857D02*
X160642857Y-152861857D01*
X160642857Y-152861857D02*
X159642857Y-155861857D01*
X158642857Y-155861857D02*
X158642857Y-152861857D01*
X158642857Y-152861857D02*
X157928571Y-152861857D01*
X157928571Y-152861857D02*
X157500000Y-153004714D01*
X157500000Y-153004714D02*
X157214285Y-153290428D01*
X157214285Y-153290428D02*
X157071428Y-153576142D01*
X157071428Y-153576142D02*
X156928571Y-154147571D01*
X156928571Y-154147571D02*
X156928571Y-154576142D01*
X156928571Y-154576142D02*
X157071428Y-155147571D01*
X157071428Y-155147571D02*
X157214285Y-155433285D01*
X157214285Y-155433285D02*
X157500000Y-155719000D01*
X157500000Y-155719000D02*
X157928571Y-155861857D01*
X157928571Y-155861857D02*
X158642857Y-155861857D01*
X154500000Y-155719000D02*
X154785714Y-155861857D01*
X154785714Y-155861857D02*
X155357143Y-155861857D01*
X155357143Y-155861857D02*
X155642857Y-155719000D01*
X155642857Y-155719000D02*
X155785714Y-155433285D01*
X155785714Y-155433285D02*
X155785714Y-154290428D01*
X155785714Y-154290428D02*
X155642857Y-154004714D01*
X155642857Y-154004714D02*
X155357143Y-153861857D01*
X155357143Y-153861857D02*
X154785714Y-153861857D01*
X154785714Y-153861857D02*
X154500000Y-154004714D01*
X154500000Y-154004714D02*
X154357143Y-154290428D01*
X154357143Y-154290428D02*
X154357143Y-154576142D01*
X154357143Y-154576142D02*
X155785714Y-154861857D01*
X153357142Y-153861857D02*
X152642856Y-155861857D01*
X152642856Y-155861857D02*
X151928571Y-153861857D01*
D11*
%TO.C,TP16*%
X134700000Y-95005000D02*
G75*
G02*
X133300000Y-95005000I-700000J0D01*
G01*
X133300000Y-95005000D02*
G75*
G02*
X134700000Y-95005000I700000J0D01*
G01*
%TO.C,TP19*%
X96700000Y-80005000D02*
G75*
G02*
X95300000Y-80005000I-700000J0D01*
G01*
X95300000Y-80005000D02*
G75*
G02*
X96700000Y-80005000I700000J0D01*
G01*
%TO.C,TP24*%
X115700001Y-99000000D02*
G75*
G02*
X114300001Y-99000000I-700000J0D01*
G01*
X114300001Y-99000000D02*
G75*
G02*
X115700001Y-99000000I700000J0D01*
G01*
%TO.C,TP59*%
X134700000Y-125004999D02*
G75*
G02*
X133300000Y-125004999I-700000J0D01*
G01*
X133300000Y-125004999D02*
G75*
G02*
X134700000Y-125004999I700000J0D01*
G01*
%TO.C,TP12*%
X134700000Y-80005000D02*
G75*
G02*
X133300000Y-80005000I-700000J0D01*
G01*
X133300000Y-80005000D02*
G75*
G02*
X134700000Y-80005000I700000J0D01*
G01*
%TO.C,TP47*%
X145699999Y-106000000D02*
G75*
G02*
X144299999Y-106000000I-700000J0D01*
G01*
X144299999Y-106000000D02*
G75*
G02*
X145699999Y-106000000I700000J0D01*
G01*
%TO.C,TP21*%
X126700000Y-80005000D02*
G75*
G02*
X125300000Y-80005000I-700000J0D01*
G01*
X125300000Y-80005000D02*
G75*
G02*
X126700000Y-80005000I700000J0D01*
G01*
%TO.C,TP38*%
X111700000Y-110005000D02*
G75*
G02*
X110300000Y-110005000I-700000J0D01*
G01*
X110300000Y-110005000D02*
G75*
G02*
X111700000Y-110005000I700000J0D01*
G01*
%TO.C,TP27*%
X100700001Y-114000000D02*
G75*
G02*
X99300001Y-114000000I-700000J0D01*
G01*
X99300001Y-114000000D02*
G75*
G02*
X100700001Y-114000000I700000J0D01*
G01*
%TO.C,TP58*%
X126700000Y-125005000D02*
G75*
G02*
X125300000Y-125005000I-700000J0D01*
G01*
X125300000Y-125005000D02*
G75*
G02*
X126700000Y-125005000I700000J0D01*
G01*
%TO.C,TP55*%
X119700000Y-125004999D02*
G75*
G02*
X118300000Y-125004999I-700000J0D01*
G01*
X118300000Y-125004999D02*
G75*
G02*
X119700000Y-125004999I700000J0D01*
G01*
%TO.C,TP63*%
X149700000Y-125004999D02*
G75*
G02*
X148300000Y-125004999I-700000J0D01*
G01*
X148300000Y-125004999D02*
G75*
G02*
X149700000Y-125004999I700000J0D01*
G01*
%TO.C,TP14*%
X100700000Y-91000000D02*
G75*
G02*
X99300000Y-91000000I-700000J0D01*
G01*
X99300000Y-91000000D02*
G75*
G02*
X100700000Y-91000000I700000J0D01*
G01*
%TO.C,TP25*%
X126700000Y-95005000D02*
G75*
G02*
X125300000Y-95005000I-700000J0D01*
G01*
X125300000Y-95005000D02*
G75*
G02*
X126700000Y-95005000I700000J0D01*
G01*
%TO.C,TP62*%
X141700000Y-125005000D02*
G75*
G02*
X140300000Y-125005000I-700000J0D01*
G01*
X140300000Y-125005000D02*
G75*
G02*
X141700000Y-125005000I700000J0D01*
G01*
%TO.C,TP11*%
X119700000Y-80005000D02*
G75*
G02*
X118300000Y-80005000I-700000J0D01*
G01*
X118300000Y-80005000D02*
G75*
G02*
X119700000Y-80005000I700000J0D01*
G01*
%TO.C,TP13*%
X145700000Y-84000000D02*
G75*
G02*
X144300000Y-84000000I-700000J0D01*
G01*
X144300000Y-84000000D02*
G75*
G02*
X145700000Y-84000000I700000J0D01*
G01*
%TO.C,TP15*%
X115700000Y-91000000D02*
G75*
G02*
X114300000Y-91000000I-700000J0D01*
G01*
X114300000Y-91000000D02*
G75*
G02*
X115700000Y-91000000I700000J0D01*
G01*
%TO.C,TP23*%
X100700001Y-99000000D02*
G75*
G02*
X99300001Y-99000000I-700000J0D01*
G01*
X99300001Y-99000000D02*
G75*
G02*
X100700001Y-99000000I700000J0D01*
G01*
%TO.C,TP54*%
X111700000Y-125005000D02*
G75*
G02*
X110300000Y-125005000I-700000J0D01*
G01*
X110300000Y-125005000D02*
G75*
G02*
X111700000Y-125005000I700000J0D01*
G01*
%TO.C,TP26*%
X145699999Y-91000000D02*
G75*
G02*
X144299999Y-91000000I-700000J0D01*
G01*
X144299999Y-91000000D02*
G75*
G02*
X145699999Y-91000000I700000J0D01*
G01*
%TO.C,TP46*%
X145700000Y-114000000D02*
G75*
G02*
X144300000Y-114000000I-700000J0D01*
G01*
X144300000Y-114000000D02*
G75*
G02*
X145700000Y-114000000I700000J0D01*
G01*
%TO.C,TP50*%
X100700000Y-121000000D02*
G75*
G02*
X99300000Y-121000000I-700000J0D01*
G01*
X99300000Y-121000000D02*
G75*
G02*
X100700000Y-121000000I700000J0D01*
G01*
%TO.C,TP22*%
X145699999Y-76000000D02*
G75*
G02*
X144299999Y-76000000I-700000J0D01*
G01*
X144299999Y-76000000D02*
G75*
G02*
X145699999Y-76000000I700000J0D01*
G01*
%TO.C,TP17*%
X145700000Y-99000000D02*
G75*
G02*
X144300000Y-99000000I-700000J0D01*
G01*
X144300000Y-99000000D02*
G75*
G02*
X145700000Y-99000000I700000J0D01*
G01*
%TO.C,TP42*%
X130700000Y-114000000D02*
G75*
G02*
X129300000Y-114000000I-700000J0D01*
G01*
X129300000Y-114000000D02*
G75*
G02*
X130700000Y-114000000I700000J0D01*
G01*
%TO.C,TP18*%
X100700000Y-106000000D02*
G75*
G02*
X99300000Y-106000000I-700000J0D01*
G01*
X99300000Y-106000000D02*
G75*
G02*
X100700000Y-106000000I700000J0D01*
G01*
%TO.C,TP39*%
X119700000Y-110004999D02*
G75*
G02*
X118300000Y-110004999I-700000J0D01*
G01*
X118300000Y-110004999D02*
G75*
G02*
X119700000Y-110004999I700000J0D01*
G01*
%TO.C,TP43*%
X130699999Y-106000000D02*
G75*
G02*
X129299999Y-106000000I-700000J0D01*
G01*
X129299999Y-106000000D02*
G75*
G02*
X130699999Y-106000000I700000J0D01*
G01*
%TO.C,TP51*%
X100700001Y-129000000D02*
G75*
G02*
X99300001Y-129000000I-700000J0D01*
G01*
X99300001Y-129000000D02*
G75*
G02*
X100700001Y-129000000I700000J0D01*
G01*
%TO.C,TP10*%
X104700000Y-80005000D02*
G75*
G02*
X103300000Y-80005000I-700000J0D01*
G01*
X103300000Y-80005000D02*
G75*
G02*
X104700000Y-80005000I700000J0D01*
G01*
%TO.C,TP20*%
X111700000Y-80005000D02*
G75*
G02*
X110300000Y-80005000I-700000J0D01*
G01*
X110300000Y-80005000D02*
G75*
G02*
X111700000Y-80005000I700000J0D01*
G01*
%TD*%
%LPC*%
D12*
%TO.C,TP16*%
X134000000Y-95005000D03*
%TD*%
%TO.C,TP19*%
X96000000Y-80005000D03*
%TD*%
%TO.C,TP24*%
X115000001Y-99000000D03*
%TD*%
%TO.C,TP59*%
X134000000Y-125004999D03*
%TD*%
%TO.C,TP12*%
X134000000Y-80005000D03*
%TD*%
%TO.C,TP47*%
X144999999Y-106000000D03*
%TD*%
%TO.C,TP21*%
X126000000Y-80005000D03*
%TD*%
%TO.C,TP38*%
X111000000Y-110005000D03*
%TD*%
%TO.C,TP27*%
X100000001Y-114000000D03*
%TD*%
%TO.C,TP58*%
X126000000Y-125005000D03*
%TD*%
%TO.C,TP55*%
X119000000Y-125004999D03*
%TD*%
%TO.C,TP63*%
X149000000Y-125004999D03*
%TD*%
%TO.C,TP14*%
X100000000Y-91000000D03*
%TD*%
%TO.C,TP25*%
X126000000Y-95005000D03*
%TD*%
%TO.C,TP62*%
X141000000Y-125005000D03*
%TD*%
%TO.C,TP11*%
X119000000Y-80005000D03*
%TD*%
%TO.C,TP13*%
X145000000Y-84000000D03*
%TD*%
%TO.C,TP15*%
X115000000Y-91000000D03*
%TD*%
%TO.C,TP23*%
X100000001Y-99000000D03*
%TD*%
%TO.C,TP54*%
X111000000Y-125005000D03*
%TD*%
%TO.C,TP26*%
X144999999Y-91000000D03*
%TD*%
%TO.C,TP46*%
X145000000Y-114000000D03*
%TD*%
%TO.C,TP50*%
X100000000Y-121000000D03*
%TD*%
%TO.C,TP22*%
X144999999Y-76000000D03*
%TD*%
%TO.C,TP17*%
X145000000Y-99000000D03*
%TD*%
%TO.C,TP42*%
X130000000Y-114000000D03*
%TD*%
%TO.C,TP18*%
X100000000Y-106000000D03*
%TD*%
%TO.C,TP39*%
X119000000Y-110004999D03*
%TD*%
%TO.C,TP43*%
X129999999Y-106000000D03*
%TD*%
%TO.C,TP51*%
X100000001Y-129000000D03*
%TD*%
%TO.C,TP10*%
X104000000Y-80005000D03*
%TD*%
%TO.C,TP20*%
X111000000Y-80005000D03*
%TD*%
%LPD*%
M02*
