%TF.GenerationSoftware,KiCad,Pcbnew,8.0.4-unknown-202407232306~396e531e7c~ubuntu22.04.1*%
%TF.CreationDate,2024-08-30T15:15:55+01:00*%
%TF.ProjectId,LIS3DH_array,4c495333-4448-45f6-9172-7261792e6b69,rev?*%
%TF.SameCoordinates,Original*%
%TF.FileFunction,Paste,Top*%
%TF.FilePolarity,Positive*%
%FSLAX46Y46*%
G04 Gerber Fmt 4.6, Leading zero omitted, Abs format (unit mm)*
G04 Created by KiCad (PCBNEW 8.0.4-unknown-202407232306~396e531e7c~ubuntu22.04.1) date 2024-08-30 15:15:55*
%MOMM*%
%LPD*%
G01*
G04 APERTURE LIST*
G04 Aperture macros list*
%AMRoundRect*
0 Rectangle with rounded corners*
0 $1 Rounding radius*
0 $2 $3 $4 $5 $6 $7 $8 $9 X,Y pos of 4 corners*
0 Add a 4 corners polygon primitive as box body*
4,1,4,$2,$3,$4,$5,$6,$7,$8,$9,$2,$3,0*
0 Add four circle primitives for the rounded corners*
1,1,$1+$1,$2,$3*
1,1,$1+$1,$4,$5*
1,1,$1+$1,$6,$7*
1,1,$1+$1,$8,$9*
0 Add four rect primitives between the rounded corners*
20,1,$1+$1,$2,$3,$4,$5,0*
20,1,$1+$1,$4,$5,$6,$7,0*
20,1,$1+$1,$6,$7,$8,$9,0*
20,1,$1+$1,$8,$9,$2,$3,0*%
G04 Aperture macros list end*
%ADD10R,0.320000X0.840000*%
%ADD11RoundRect,0.087500X0.187500X0.087500X-0.187500X0.087500X-0.187500X-0.087500X0.187500X-0.087500X0*%
%ADD12RoundRect,0.087500X0.087500X0.187500X-0.087500X0.187500X-0.087500X-0.187500X0.087500X-0.187500X0*%
%ADD13R,0.800000X0.300000*%
%ADD14R,0.800000X0.400000*%
%ADD15RoundRect,0.155000X-0.212500X-0.155000X0.212500X-0.155000X0.212500X0.155000X-0.212500X0.155000X0*%
%ADD16RoundRect,0.155000X-0.155000X0.212500X-0.155000X-0.212500X0.155000X-0.212500X0.155000X0.212500X0*%
%ADD17R,0.300000X0.800000*%
%ADD18R,0.400000X0.800000*%
%ADD19RoundRect,0.087500X-0.187500X-0.087500X0.187500X-0.087500X0.187500X0.087500X-0.187500X0.087500X0*%
%ADD20RoundRect,0.087500X-0.087500X-0.187500X0.087500X-0.187500X0.087500X0.187500X-0.087500X0.187500X0*%
%ADD21RoundRect,0.087500X-0.087500X0.187500X-0.087500X-0.187500X0.087500X-0.187500X0.087500X0.187500X0*%
%ADD22RoundRect,0.087500X-0.187500X0.087500X-0.187500X-0.087500X0.187500X-0.087500X0.187500X0.087500X0*%
%ADD23R,0.840000X0.320000*%
%ADD24RoundRect,0.087500X0.087500X-0.187500X0.087500X0.187500X-0.087500X0.187500X-0.087500X-0.187500X0*%
%ADD25RoundRect,0.087500X0.187500X-0.087500X0.187500X0.087500X-0.187500X0.087500X-0.187500X-0.087500X0*%
%ADD26RoundRect,0.155000X0.212500X0.155000X-0.212500X0.155000X-0.212500X-0.155000X0.212500X-0.155000X0*%
%ADD27RoundRect,0.155000X0.155000X-0.212500X0.155000X0.212500X-0.155000X0.212500X-0.155000X-0.212500X0*%
%ADD28R,0.300000X1.300000*%
%ADD29R,2.000000X1.600000*%
G04 APERTURE END LIST*
D10*
%TO.C,U24*%
X147655000Y-94259999D03*
X147005000Y-94259999D03*
X146355000Y-94259999D03*
X146355000Y-95939999D03*
X147655000Y-95939999D03*
%TD*%
D11*
%TO.C,U7*%
X131225000Y-97005000D03*
X131225000Y-96505000D03*
X131225000Y-96005000D03*
X131225000Y-95505000D03*
X131225000Y-95005000D03*
D12*
X130500000Y-94780000D03*
X130000000Y-94780000D03*
X129500000Y-94780000D03*
D11*
X128775000Y-95005000D03*
X128775000Y-95505000D03*
X128775000Y-96005000D03*
X128775000Y-96505000D03*
X128775000Y-97005000D03*
D12*
X129500000Y-97230000D03*
X130000000Y-97230000D03*
X130500000Y-97230000D03*
%TD*%
D13*
%TO.C,FPC12*%
X163590000Y-111250000D03*
X163590000Y-110750000D03*
X163590000Y-110250000D03*
X163590000Y-109750000D03*
X163590000Y-109250000D03*
X163590000Y-108750000D03*
D14*
X166090000Y-107750000D03*
X166090000Y-112250000D03*
%TD*%
D15*
%TO.C,C22*%
X129237499Y-107500000D03*
X130372499Y-107500000D03*
%TD*%
D16*
%TO.C,C29*%
X127730000Y-124442500D03*
X127730000Y-125577500D03*
%TD*%
%TO.C,C20*%
X117500000Y-109242499D03*
X117500000Y-110377499D03*
%TD*%
D13*
%TO.C,FPC5*%
X81410000Y-93750000D03*
X81410000Y-94250000D03*
X81410000Y-94750000D03*
X81410000Y-95250000D03*
X81410000Y-95750000D03*
X81410000Y-96250000D03*
D14*
X78910000Y-97250000D03*
X78910000Y-92750000D03*
%TD*%
D16*
%TO.C,C31*%
X142730000Y-124442500D03*
X142730000Y-125577500D03*
%TD*%
%TO.C,C27*%
X112730000Y-124442500D03*
X112730000Y-125577500D03*
%TD*%
D10*
%TO.C,U22*%
X112345000Y-95740001D03*
X112995000Y-95740001D03*
X113645000Y-95740001D03*
X113645000Y-94060001D03*
X112345000Y-94060001D03*
%TD*%
D17*
%TO.C,FPC14*%
X113750000Y-143590000D03*
X114250000Y-143590000D03*
X114750000Y-143590000D03*
X115250000Y-143590000D03*
X115750000Y-143590000D03*
X116250000Y-143590000D03*
D18*
X117250000Y-146090000D03*
X112750000Y-146090000D03*
%TD*%
D19*
%TO.C,U14*%
X113775000Y-123005000D03*
X113775000Y-123505000D03*
X113775000Y-124005000D03*
X113775000Y-124505000D03*
X113775000Y-125005000D03*
D20*
X114500000Y-125230000D03*
X115000000Y-125230000D03*
X115500000Y-125230000D03*
D19*
X116225000Y-125005000D03*
X116225000Y-124505000D03*
X116225000Y-124005000D03*
X116225000Y-123505000D03*
X116225000Y-123005000D03*
D20*
X115500000Y-122780000D03*
X115000000Y-122780000D03*
X114500000Y-122780000D03*
%TD*%
D21*
%TO.C,U13*%
X102000000Y-123775000D03*
X101500000Y-123775000D03*
X101000000Y-123775000D03*
X100500000Y-123775000D03*
X100000000Y-123775000D03*
D22*
X99775000Y-124500000D03*
X99775000Y-125000000D03*
X99775000Y-125500000D03*
D21*
X100000000Y-126225000D03*
X100500000Y-126225000D03*
X101000000Y-126225000D03*
X101500000Y-126225000D03*
X102000000Y-126225000D03*
D22*
X102225000Y-125500000D03*
X102225000Y-125000000D03*
X102225000Y-124500000D03*
%TD*%
D23*
%TO.C,U17*%
X99260000Y-77350000D03*
X99260000Y-78000000D03*
X99260000Y-78650000D03*
X100940000Y-78650000D03*
X100940000Y-77350000D03*
%TD*%
D24*
%TO.C,U8*%
X143000000Y-96225000D03*
X143500000Y-96225000D03*
X144000000Y-96225000D03*
X144500000Y-96225000D03*
X145000000Y-96225000D03*
D25*
X145225000Y-95500000D03*
X145225000Y-95000000D03*
X145225000Y-94500000D03*
D24*
X145000000Y-93775000D03*
X144500000Y-93775000D03*
X144000000Y-93775000D03*
X143500000Y-93775000D03*
X143000000Y-93775000D03*
D25*
X142775000Y-94500000D03*
X142775000Y-95000000D03*
X142775000Y-95500000D03*
%TD*%
D19*
%TO.C,U16*%
X143775000Y-123005000D03*
X143775000Y-123505000D03*
X143775000Y-124005000D03*
X143775000Y-124505000D03*
X143775000Y-125005000D03*
D20*
X144500000Y-125230000D03*
X145000000Y-125230000D03*
X145500000Y-125230000D03*
D19*
X146225000Y-125005000D03*
X146225000Y-124505000D03*
X146225000Y-124005000D03*
X146225000Y-123505000D03*
X146225000Y-123005000D03*
D20*
X145500000Y-122780000D03*
X145000000Y-122780000D03*
X144500000Y-122780000D03*
%TD*%
D17*
%TO.C,FPC16*%
X143750000Y-143590000D03*
X144250000Y-143590000D03*
X144750000Y-143590000D03*
X145250000Y-143590000D03*
X145750000Y-143590000D03*
X146250000Y-143590000D03*
D18*
X147250000Y-146090000D03*
X142750000Y-146090000D03*
%TD*%
D16*
%TO.C,C32*%
X147500000Y-124242499D03*
X147500000Y-125377499D03*
%TD*%
D13*
%TO.C,FPC13*%
X81410000Y-123750000D03*
X81410000Y-124250000D03*
X81410000Y-124750000D03*
X81410000Y-125250000D03*
X81410000Y-125750000D03*
X81410000Y-126250000D03*
D14*
X78910000Y-127250000D03*
X78910000Y-122750000D03*
%TD*%
D23*
%TO.C,U30*%
X115740001Y-127660000D03*
X115740001Y-127010000D03*
X115740001Y-126360000D03*
X114060001Y-126360000D03*
X114060001Y-127660000D03*
%TD*%
D13*
%TO.C,FPC8*%
X163590000Y-96250000D03*
X163590000Y-95750000D03*
X163590000Y-95250000D03*
X163590000Y-94750000D03*
X163590000Y-94250000D03*
X163590000Y-93750000D03*
D14*
X166090000Y-92750000D03*
X166090000Y-97250000D03*
%TD*%
D26*
%TO.C,C12*%
X115762501Y-97500000D03*
X114627501Y-97500000D03*
%TD*%
D27*
%TO.C,C6*%
X127500000Y-80767500D03*
X127500000Y-79632500D03*
%TD*%
D15*
%TO.C,C7*%
X144437500Y-82270000D03*
X145572500Y-82270000D03*
%TD*%
%TO.C,C23*%
X144437500Y-112270000D03*
X145572500Y-112270000D03*
%TD*%
D17*
%TO.C,FPC3*%
X131250000Y-61410000D03*
X130750000Y-61410000D03*
X130250000Y-61410000D03*
X129750000Y-61410000D03*
X129250000Y-61410000D03*
X128750000Y-61410000D03*
D18*
X127750000Y-58910000D03*
X132250000Y-58910000D03*
%TD*%
D10*
%TO.C,U21*%
X97345000Y-95740001D03*
X97995000Y-95740001D03*
X98645000Y-95740001D03*
X98645000Y-94060001D03*
X97345000Y-94060001D03*
%TD*%
D13*
%TO.C,FPC4*%
X163590000Y-81250000D03*
X163590000Y-80750000D03*
X163590000Y-80250000D03*
X163590000Y-79750000D03*
X163590000Y-79250000D03*
X163590000Y-78750000D03*
D14*
X166090000Y-77750000D03*
X166090000Y-82250000D03*
%TD*%
D27*
%TO.C,C14*%
X127500000Y-95767500D03*
X127500000Y-94632500D03*
%TD*%
D23*
%TO.C,U32*%
X145740001Y-127660000D03*
X145740001Y-127010000D03*
X145740001Y-126360000D03*
X144060001Y-126360000D03*
X144060001Y-127660000D03*
%TD*%
D28*
%TO.C,FPC17*%
X117250000Y-52287500D03*
X117750000Y-52287500D03*
X118250000Y-52287500D03*
X118750000Y-52287500D03*
X119250000Y-52287500D03*
X119750000Y-52287500D03*
X120250000Y-52287500D03*
X120750000Y-52287500D03*
X121250000Y-52287500D03*
X121750000Y-52287500D03*
X122250000Y-52287500D03*
X122750000Y-52287500D03*
X123250000Y-52287500D03*
X123750000Y-52287500D03*
X124250000Y-52287500D03*
X124750000Y-52287500D03*
X125250000Y-52287500D03*
X125750000Y-52287500D03*
X126250000Y-52287500D03*
X126750000Y-52287500D03*
X127250000Y-52287500D03*
X127750000Y-52287500D03*
D29*
X129450000Y-49607500D03*
X115550000Y-49607500D03*
%TD*%
D24*
%TO.C,U11*%
X128000000Y-111225000D03*
X128500000Y-111225000D03*
X129000000Y-111225000D03*
X129500000Y-111225000D03*
X130000000Y-111225000D03*
D25*
X130225000Y-110500000D03*
X130225000Y-110000000D03*
X130225000Y-109500000D03*
D24*
X130000000Y-108775000D03*
X129500000Y-108775000D03*
X129000000Y-108775000D03*
X128500000Y-108775000D03*
X128000000Y-108775000D03*
D25*
X127775000Y-109500000D03*
X127775000Y-110000000D03*
X127775000Y-110500000D03*
%TD*%
D16*
%TO.C,C19*%
X112730000Y-109442500D03*
X112730000Y-110577500D03*
%TD*%
D26*
%TO.C,C11*%
X115562500Y-92730000D03*
X114427500Y-92730000D03*
%TD*%
D10*
%TO.C,U25*%
X97345000Y-110740001D03*
X97995000Y-110740001D03*
X98645000Y-110740001D03*
X98645000Y-109060001D03*
X97345000Y-109060001D03*
%TD*%
D16*
%TO.C,C28*%
X117500000Y-124242499D03*
X117500000Y-125377499D03*
%TD*%
D11*
%TO.C,U3*%
X131225000Y-82005000D03*
X131225000Y-81505000D03*
X131225000Y-81005000D03*
X131225000Y-80505000D03*
X131225000Y-80005000D03*
D12*
X130500000Y-79780000D03*
X130000000Y-79780000D03*
X129500000Y-79780000D03*
D11*
X128775000Y-80005000D03*
X128775000Y-80505000D03*
X128775000Y-81005000D03*
X128775000Y-81505000D03*
X128775000Y-82005000D03*
D12*
X129500000Y-82230000D03*
X130000000Y-82230000D03*
X130500000Y-82230000D03*
%TD*%
D10*
%TO.C,U27*%
X132655000Y-109259999D03*
X132005000Y-109259999D03*
X131355000Y-109259999D03*
X131355000Y-110939999D03*
X132655000Y-110939999D03*
%TD*%
D15*
%TO.C,C8*%
X144237499Y-77500000D03*
X145372499Y-77500000D03*
%TD*%
D27*
%TO.C,C13*%
X132270000Y-95567500D03*
X132270000Y-94432500D03*
%TD*%
%TO.C,C4*%
X112500000Y-80767500D03*
X112500000Y-79632500D03*
%TD*%
D17*
%TO.C,FPC1*%
X101250000Y-61410000D03*
X100750000Y-61410000D03*
X100250000Y-61410000D03*
X99750000Y-61410000D03*
X99250000Y-61410000D03*
X98750000Y-61410000D03*
D18*
X97750000Y-58910000D03*
X102250000Y-58910000D03*
%TD*%
D13*
%TO.C,FPC11*%
X163590000Y-126250000D03*
X163590000Y-125750000D03*
X163590000Y-125250000D03*
X163590000Y-124750000D03*
X163590000Y-124250000D03*
X163590000Y-123750000D03*
D14*
X166090000Y-122750000D03*
X166090000Y-127250000D03*
%TD*%
D27*
%TO.C,C1*%
X102270000Y-80567500D03*
X102270000Y-79432500D03*
%TD*%
%TO.C,C3*%
X117270000Y-80567500D03*
X117270000Y-79432500D03*
%TD*%
D10*
%TO.C,U29*%
X97345000Y-125740001D03*
X97995000Y-125740001D03*
X98645000Y-125740001D03*
X98645000Y-124060001D03*
X97345000Y-124060001D03*
%TD*%
D27*
%TO.C,C5*%
X132270000Y-80567500D03*
X132270000Y-79432500D03*
%TD*%
D21*
%TO.C,U5*%
X102000000Y-93775000D03*
X101500000Y-93775000D03*
X101000000Y-93775000D03*
X100500000Y-93775000D03*
X100000000Y-93775000D03*
D22*
X99775000Y-94500000D03*
X99775000Y-95000000D03*
X99775000Y-95500000D03*
D21*
X100000000Y-96225000D03*
X100500000Y-96225000D03*
X101000000Y-96225000D03*
X101500000Y-96225000D03*
X102000000Y-96225000D03*
D22*
X102225000Y-95500000D03*
X102225000Y-95000000D03*
X102225000Y-94500000D03*
%TD*%
D21*
%TO.C,U6*%
X117000000Y-93775000D03*
X116500000Y-93775000D03*
X116000000Y-93775000D03*
X115500000Y-93775000D03*
X115000000Y-93775000D03*
D22*
X114775000Y-94500000D03*
X114775000Y-95000000D03*
X114775000Y-95500000D03*
D21*
X115000000Y-96225000D03*
X115500000Y-96225000D03*
X116000000Y-96225000D03*
X116500000Y-96225000D03*
X117000000Y-96225000D03*
D22*
X117225000Y-95500000D03*
X117225000Y-95000000D03*
X117225000Y-94500000D03*
%TD*%
D17*
%TO.C,FPC15*%
X128750000Y-143590000D03*
X129250000Y-143590000D03*
X129750000Y-143590000D03*
X130250000Y-143590000D03*
X130750000Y-143590000D03*
X131250000Y-143590000D03*
D18*
X132250000Y-146090000D03*
X127750000Y-146090000D03*
%TD*%
D26*
%TO.C,C26*%
X100762501Y-127500000D03*
X99627501Y-127500000D03*
%TD*%
%TO.C,C25*%
X100562500Y-122730000D03*
X99427500Y-122730000D03*
%TD*%
D10*
%TO.C,U20*%
X147655000Y-79259999D03*
X147005000Y-79259999D03*
X146355000Y-79259999D03*
X146355000Y-80939999D03*
X147655000Y-80939999D03*
%TD*%
D26*
%TO.C,C18*%
X100762501Y-112500000D03*
X99627501Y-112500000D03*
%TD*%
D19*
%TO.C,U15*%
X128775000Y-123005000D03*
X128775000Y-123505000D03*
X128775000Y-124005000D03*
X128775000Y-124505000D03*
X128775000Y-125005000D03*
D20*
X129500000Y-125230000D03*
X130000000Y-125230000D03*
X130500000Y-125230000D03*
D19*
X131225000Y-125005000D03*
X131225000Y-124505000D03*
X131225000Y-124005000D03*
X131225000Y-123505000D03*
X131225000Y-123005000D03*
D20*
X130500000Y-122780000D03*
X130000000Y-122780000D03*
X129500000Y-122780000D03*
%TD*%
D24*
%TO.C,U4*%
X143000000Y-81225000D03*
X143500000Y-81225000D03*
X144000000Y-81225000D03*
X144500000Y-81225000D03*
X145000000Y-81225000D03*
D25*
X145225000Y-80500000D03*
X145225000Y-80000000D03*
X145225000Y-79500000D03*
D24*
X145000000Y-78775000D03*
X144500000Y-78775000D03*
X144000000Y-78775000D03*
X143500000Y-78775000D03*
X143000000Y-78775000D03*
D25*
X142775000Y-79500000D03*
X142775000Y-80000000D03*
X142775000Y-80500000D03*
%TD*%
D17*
%TO.C,FPC7*%
X146250000Y-61410000D03*
X145750000Y-61410000D03*
X145250000Y-61410000D03*
X144750000Y-61410000D03*
X144250000Y-61410000D03*
X143750000Y-61410000D03*
D18*
X142750000Y-58910000D03*
X147250000Y-58910000D03*
%TD*%
D17*
%TO.C,FPC10*%
X98750000Y-143590000D03*
X99250000Y-143590000D03*
X99750000Y-143590000D03*
X100250000Y-143590000D03*
X100750000Y-143590000D03*
X101250000Y-143590000D03*
D18*
X102250000Y-146090000D03*
X97750000Y-146090000D03*
%TD*%
D26*
%TO.C,C17*%
X100562500Y-107730000D03*
X99427500Y-107730000D03*
%TD*%
D11*
%TO.C,U2*%
X116225000Y-82005000D03*
X116225000Y-81505000D03*
X116225000Y-81005000D03*
X116225000Y-80505000D03*
X116225000Y-80005000D03*
D12*
X115500000Y-79780000D03*
X115000000Y-79780000D03*
X114500000Y-79780000D03*
D11*
X113775000Y-80005000D03*
X113775000Y-80505000D03*
X113775000Y-81005000D03*
X113775000Y-81505000D03*
X113775000Y-82005000D03*
D12*
X114500000Y-82230000D03*
X115000000Y-82230000D03*
X115500000Y-82230000D03*
%TD*%
D26*
%TO.C,C9*%
X100562500Y-92730000D03*
X99427500Y-92730000D03*
%TD*%
D24*
%TO.C,U12*%
X143000000Y-111225000D03*
X143500000Y-111225000D03*
X144000000Y-111225000D03*
X144500000Y-111225000D03*
X145000000Y-111225000D03*
D25*
X145225000Y-110500000D03*
X145225000Y-110000000D03*
X145225000Y-109500000D03*
D24*
X145000000Y-108775000D03*
X144500000Y-108775000D03*
X144000000Y-108775000D03*
X143500000Y-108775000D03*
X143000000Y-108775000D03*
D25*
X142775000Y-109500000D03*
X142775000Y-110000000D03*
X142775000Y-110500000D03*
%TD*%
D15*
%TO.C,C24*%
X144237499Y-107500000D03*
X145372499Y-107500000D03*
%TD*%
D23*
%TO.C,U19*%
X129260000Y-77350000D03*
X129260000Y-78000000D03*
X129260000Y-78650000D03*
X130940000Y-78650000D03*
X130940000Y-77350000D03*
%TD*%
D19*
%TO.C,U10*%
X113775000Y-108005000D03*
X113775000Y-108505000D03*
X113775000Y-109005000D03*
X113775000Y-109505000D03*
X113775000Y-110005000D03*
D20*
X114500000Y-110230000D03*
X115000000Y-110230000D03*
X115500000Y-110230000D03*
D19*
X116225000Y-110005000D03*
X116225000Y-109505000D03*
X116225000Y-109005000D03*
X116225000Y-108505000D03*
X116225000Y-108005000D03*
D20*
X115500000Y-107780000D03*
X115000000Y-107780000D03*
X114500000Y-107780000D03*
%TD*%
D23*
%TO.C,U23*%
X129260000Y-92350000D03*
X129260000Y-93000000D03*
X129260000Y-93650000D03*
X130940000Y-93650000D03*
X130940000Y-92350000D03*
%TD*%
D21*
%TO.C,U9*%
X102000000Y-108775000D03*
X101500000Y-108775000D03*
X101000000Y-108775000D03*
X100500000Y-108775000D03*
X100000000Y-108775000D03*
D22*
X99775000Y-109500000D03*
X99775000Y-110000000D03*
X99775000Y-110500000D03*
D21*
X100000000Y-111225000D03*
X100500000Y-111225000D03*
X101000000Y-111225000D03*
X101500000Y-111225000D03*
X102000000Y-111225000D03*
D22*
X102225000Y-110500000D03*
X102225000Y-110000000D03*
X102225000Y-109500000D03*
%TD*%
D23*
%TO.C,U18*%
X114260000Y-77350000D03*
X114260000Y-78000000D03*
X114260000Y-78650000D03*
X115940000Y-78650000D03*
X115940000Y-77350000D03*
%TD*%
D13*
%TO.C,FPC6*%
X81410000Y-78750000D03*
X81410000Y-79250000D03*
X81410000Y-79750000D03*
X81410000Y-80250000D03*
X81410000Y-80750000D03*
X81410000Y-81250000D03*
D14*
X78910000Y-82250000D03*
X78910000Y-77750000D03*
%TD*%
D15*
%TO.C,C15*%
X144437500Y-97270000D03*
X145572500Y-97270000D03*
%TD*%
D26*
%TO.C,C10*%
X100762501Y-97500000D03*
X99627501Y-97500000D03*
%TD*%
D15*
%TO.C,C21*%
X129437500Y-112270000D03*
X130572500Y-112270000D03*
%TD*%
%TO.C,C16*%
X144237499Y-92500000D03*
X145372499Y-92500000D03*
%TD*%
D16*
%TO.C,C30*%
X132500000Y-124242499D03*
X132500000Y-125377499D03*
%TD*%
D10*
%TO.C,U28*%
X147655000Y-109259999D03*
X147005000Y-109259999D03*
X146355000Y-109259999D03*
X146355000Y-110939999D03*
X147655000Y-110939999D03*
%TD*%
D17*
%TO.C,FPC2*%
X116250000Y-61410000D03*
X115750000Y-61410000D03*
X115250000Y-61410000D03*
X114750000Y-61410000D03*
X114250000Y-61410000D03*
X113750000Y-61410000D03*
D18*
X112750000Y-58910000D03*
X117250000Y-58910000D03*
%TD*%
D13*
%TO.C,FPC9*%
X81410000Y-108750000D03*
X81410000Y-109250000D03*
X81410000Y-109750000D03*
X81410000Y-110250000D03*
X81410000Y-110750000D03*
X81410000Y-111250000D03*
D14*
X78910000Y-112250000D03*
X78910000Y-107750000D03*
%TD*%
D23*
%TO.C,U31*%
X130740001Y-127660000D03*
X130740001Y-127010000D03*
X130740001Y-126360000D03*
X129060001Y-126360000D03*
X129060001Y-127660000D03*
%TD*%
%TO.C,U26*%
X115740001Y-112660000D03*
X115740001Y-112010000D03*
X115740001Y-111360000D03*
X114060001Y-111360000D03*
X114060001Y-112660000D03*
%TD*%
D27*
%TO.C,C2*%
X97500000Y-80767500D03*
X97500000Y-79632500D03*
%TD*%
D11*
%TO.C,U1*%
X101225000Y-82005000D03*
X101225000Y-81505000D03*
X101225000Y-81005000D03*
X101225000Y-80505000D03*
X101225000Y-80005000D03*
D12*
X100500000Y-79780000D03*
X100000000Y-79780000D03*
X99500000Y-79780000D03*
D11*
X98775000Y-80005000D03*
X98775000Y-80505000D03*
X98775000Y-81005000D03*
X98775000Y-81505000D03*
X98775000Y-82005000D03*
D12*
X99500000Y-82230000D03*
X100000000Y-82230000D03*
X100500000Y-82230000D03*
%TD*%
M02*
