M48
; DRILL file {KiCad 8.0.5-unknown-202409071504~dab3a38815~ubuntu22.04.1} date 2024-09-09T13:20:24+0100
; FORMAT={-:-/ absolute / inch / decimal}
; #@! TF.CreationDate,2024-09-09T13:20:24+01:00
; #@! TF.GenerationSoftware,Kicad,Pcbnew,8.0.5-unknown-202409071504~dab3a38815~ubuntu22.04.1
; #@! TF.FileFunction,Plated,1,2,PTH
FMAT,2
INCH
; #@! TA.AperFunction,Plated,PTH,ViaDrill
T1C0.0118
%
G90
G05
T1
X2.7559Y-3.2126
X2.7559Y-3.8051
X2.7559Y-4.3898
X2.7559Y-4.9803
X2.7756Y-3.1752
X2.7953Y-3.7657
X2.815Y-4.3406
X2.8346Y-4.9409
X2.8937Y-3.1476
X2.8937Y-3.7382
X2.8937Y-4.3307
X2.8937Y-4.9173
X2.9134Y-3.1201
X2.9134Y-3.7106
X2.9134Y-4.3012
X2.9134Y-4.8917
X2.9331Y-3.0925
X2.9331Y-3.6811
X2.9331Y-4.2717
X2.9331Y-4.8642
X2.9724Y-3.0512
X2.9724Y-3.6417
X2.9724Y-4.8228
X2.9724Y-4.2323
X2.9823Y-3.2579
X2.9823Y-3.8484
X2.9823Y-5.0295
X2.9823Y-4.439
X3.002Y-3.0512
X3.002Y-3.6417
X3.002Y-4.8228
X3.002Y-4.2323
X3.0118Y-3.2579
X3.0118Y-3.8484
X3.0118Y-5.0295
X3.0118Y-4.439
X3.0315Y-3.0512
X3.0315Y-3.6417
X3.0315Y-4.8228
X3.0315Y-4.2323
X3.0335Y-3.1201
X3.0413Y-3.2579
X3.0413Y-3.8484
X3.0413Y-5.0295
X3.0413Y-4.439
X3.0551Y-4.3012
X3.061Y-3.0512
X3.061Y-3.6417
X3.061Y-4.8228
X3.061Y-4.2323
X3.063Y-4.8917
X3.0709Y-3.2579
X3.0709Y-3.7106
X3.0709Y-3.8484
X3.0709Y-5.0295
X3.0709Y-4.439
X3.1004Y-4.9154
X3.1083Y-4.3248
X3.1122Y-3.7362
X3.1161Y-3.1398
X3.1319Y-4.3563
X3.1319Y-4.9409
X3.1358Y-3.7657
X3.1378Y-3.1693
X3.1732Y-3.1791
X3.1732Y-3.7697
X3.1732Y-3.8031
X3.1732Y-4.9508
X3.1732Y-4.3602
X3.1752Y-4.3898
X3.1772Y-3.2087
X3.1772Y-4.9823
X3.1831Y-3.0728
X3.1831Y-3.6634
X3.1831Y-4.8445
X3.1831Y-4.2539
X3.8287Y-2.1949
X3.8287Y-2.2244
X3.8287Y-2.2539
X3.8287Y-2.2835
X3.8386Y-3.1798
X3.8386Y-5.7972
X3.8386Y-5.8268
X3.8386Y-5.8563
X3.8386Y-5.8858
X3.8581Y-3.7913
X3.8581Y-4.3819
X3.8581Y-4.9724
X3.8602Y-5.6752
X3.8606Y-3.2213
X3.861Y-3.1496
X3.8616Y-3.7142
X3.8616Y-4.3047
X3.8616Y-4.8953
X3.8727Y-3.101
X3.876Y-5.9252
X3.8774Y-3.6614
X3.8774Y-4.252
X3.8774Y-4.8425
X3.878Y-1.9276
X3.878Y-2.3898
X3.8858Y-3.0709
X3.8882Y-3.8045
X3.8882Y-4.395
X3.8882Y-4.9856
X3.9075Y-2.3858
X3.9075Y-5.7638
X3.9075Y-5.9449
X3.9232Y-2.0276
X3.9232Y-2.3425
X3.9272Y-5.7323
X3.9272Y-5.9646
X3.9368Y-3.8161
X3.9368Y-4.4067
X3.9368Y-4.9972
X3.9429Y-2.1063
X3.9469Y-2.315
X3.9469Y-5.7638
X3.9469Y-6.0039
X3.9547Y-3.1695
X3.9567Y-3.7224
X3.9567Y-4.313
X3.9567Y-4.9035
X3.963Y-3.0744
X3.9665Y-2.126
X3.9665Y-2.2874
X3.9665Y-5.685
X3.967Y-3.8386
X3.967Y-4.4291
X3.967Y-5.0197
X3.9862Y-5.7106
X3.9882Y-6.0217
X3.9921Y-2.1457
X4.0085Y-3.8165
X4.0085Y-4.4071
X4.0085Y-4.9976
X4.0138Y-2.3957
X4.0157Y-3.0902
X4.0276Y-3.2404
X4.0276Y-3.6496
X4.0276Y-4.2402
X4.0276Y-4.8307
X4.0354Y-2.185
X4.0354Y-2.2146
X4.0354Y-2.2441
X4.0354Y-2.2736
X4.0453Y-5.7874
X4.0453Y-5.8169
X4.0453Y-5.8465
X4.0453Y-5.876
X4.2618Y-1.9276
X4.3866Y-2.0524
X4.4193Y-2.1949
X4.4193Y-2.2244
X4.4193Y-2.2539
X4.4193Y-2.2835
X4.4291Y-3.1798
X4.4291Y-5.7972
X4.4291Y-5.8268
X4.4291Y-5.8563
X4.4291Y-5.8858
X4.437Y-4.2404
X4.437Y-4.8309
X4.4486Y-3.7913
X4.4488Y-4.3906
X4.4488Y-4.9811
X4.4508Y-5.6752
X4.4512Y-3.2213
X4.4516Y-3.1496
X4.4522Y-3.7142
X4.4632Y-3.101
X4.4679Y-3.6614
X4.4724Y-1.9665
X4.4724Y-2.3917
X4.4744Y-5.878
X4.4764Y-3.0709
X4.4788Y-3.8045
X4.4961Y-2.3465
X4.498Y-2.3858
X4.5016Y-4.4063
X4.5016Y-4.9969
X4.5098Y-4.3112
X4.5098Y-4.9018
X4.5236Y-2.1063
X4.5274Y-3.8161
X4.5335Y-2.3346
X4.5453Y-3.1695
X4.5472Y-3.7224
X4.5535Y-3.0744
X4.5571Y-2.126
X4.5571Y-2.3071
X4.5571Y-5.685
X4.5576Y-3.8386
X4.5728Y-2.0571
X4.5787Y-4.4098
X4.5787Y-5.0004
X4.5866Y-2.1457
X4.5919Y-4.3797
X4.5919Y-4.9702
X4.599Y-3.8165
X4.5994Y-5.6663
X4.6035Y-4.3311
X4.6035Y-4.9217
X4.6039Y-4.2594
X4.6039Y-4.85
X4.6043Y-2.3957
X4.6063Y-3.0902
X4.6181Y-3.2404
X4.6181Y-3.6496
X4.626Y-2.185
X4.626Y-2.2146
X4.626Y-2.2441
X4.626Y-2.2736
X4.626Y-4.3009
X4.626Y-4.8914
X4.6358Y-5.7874
X4.6358Y-5.8169
X4.6358Y-5.8465
X4.6358Y-5.876
X4.6555Y-2.0118
X4.6811Y-2.0118
X4.6811Y-2.126
X4.8543Y-1.9626
X4.872Y-1.9882
X5.0098Y-2.1949
X5.0098Y-2.2244
X5.0098Y-2.2539
X5.0098Y-2.2835
X5.0197Y-3.1798
X5.0197Y-3.7704
X5.0197Y-5.7972
X5.0197Y-5.8268
X5.0197Y-5.8563
X5.0197Y-5.8858
X5.0276Y-4.4213
X5.0276Y-4.8309
X5.0394Y-4.9811
X5.0413Y-5.6752
X5.0417Y-3.2213
X5.0417Y-3.8118
X5.0421Y-3.1496
X5.0421Y-3.7402
X5.0467Y-4.2543
X5.0538Y-3.101
X5.0538Y-3.6916
X5.0591Y-2.3839
X5.0669Y-3.0709
X5.0669Y-3.6614
X5.0689Y-2.0571
X5.0881Y-4.2323
X5.0886Y-2.3425
X5.0886Y-2.3858
X5.0886Y-5.752
X5.0906Y-5.9449
X5.0921Y-4.9969
X5.0984Y-4.3484
X5.1004Y-4.9018
X5.1083Y-5.9646
X5.1083Y-5.7323
X5.1181Y-2.1063
X5.1183Y-4.2547
X5.124Y-2.3287
X5.126Y-5.9843
X5.128Y-5.7047
X5.1358Y-3.1695
X5.1358Y-3.76
X5.1441Y-3.0744
X5.1441Y-3.665
X5.1476Y-2.126
X5.1476Y-2.2992
X5.1476Y-5.7323
X5.1669Y-4.2664
X5.1673Y-5.7047
X5.1693Y-5.0004
X5.1752Y-2.1457
X5.1778Y-4.4094
X5.1824Y-4.9702
X5.187Y-1.9567
X5.1935Y-4.3567
X5.1941Y-4.9217
X5.1945Y-4.85
X5.1949Y-2.3957
X5.1969Y-3.0902
X5.1969Y-3.6807
X5.197Y-4.2795
X5.2087Y-3.2404
X5.2087Y-3.8309
X5.2165Y-2.185
X5.2165Y-2.2146
X5.2165Y-2.2441
X5.2165Y-2.2736
X5.2165Y-4.8914
X5.2165Y-6.0236
X5.2264Y-5.7874
X5.2264Y-5.8169
X5.2264Y-5.8465
X5.2264Y-5.876
X5.5709Y-1.8583
X5.6004Y-2.1949
X5.6004Y-2.2244
X5.6004Y-2.2539
X5.6004Y-2.2835
X5.6102Y-5.7972
X5.6102Y-5.8268
X5.6102Y-5.8563
X5.6102Y-5.8858
X5.6181Y-3.2402
X5.6181Y-3.8307
X5.6181Y-4.4213
X5.6181Y-4.8309
X5.6299Y-4.9811
X5.6319Y-5.6752
X5.6372Y-3.0732
X5.6372Y-3.6638
X5.6372Y-4.2543
X5.6496Y-2.3839
X5.6496Y-5.9252
X5.6786Y-3.0512
X5.6786Y-3.6417
X5.6786Y-4.2323
X5.6791Y-2.3858
X5.6791Y-5.7677
X5.6791Y-5.9449
X5.6827Y-4.9969
X5.6831Y-2.065
X5.6839Y-2.3386
X5.689Y-3.1673
X5.689Y-3.7579
X5.689Y-4.3484
X5.6909Y-4.9018
X5.6988Y-5.7362
X5.7087Y-2.1063
X5.7089Y-3.0736
X5.7089Y-3.6642
X5.7089Y-4.2547
X5.7106Y-5.9646
X5.7146Y-2.315
X5.7343Y-5.7146
X5.7343Y-6.002
X5.7382Y-2.126
X5.7382Y-2.2835
X5.7382Y-5.685
X5.7574Y-3.0853
X5.7574Y-3.6758
X5.7574Y-4.2664
X5.7598Y-5.0004
X5.7618Y-2.1457
X5.7683Y-3.2283
X5.7683Y-3.8189
X5.7683Y-4.4094
X5.7697Y-5.7028
X5.7697Y-6.0236
X5.773Y-4.9702
X5.7841Y-3.1756
X5.7841Y-3.7661
X5.7841Y-4.3567
X5.7846Y-4.9217
X5.785Y-4.85
X5.7854Y-2.3957
X5.7876Y-3.0984
X5.7876Y-3.689
X5.7876Y-4.2795
X5.8071Y-2.185
X5.8071Y-2.2146
X5.8071Y-2.2441
X5.8071Y-2.2736
X5.8071Y-4.8914
X5.8169Y-5.7874
X5.8169Y-5.8169
X5.8169Y-5.8465
X5.8169Y-5.876
X6.4626Y-3.2264
X6.4626Y-3.8169
X6.4626Y-4.4075
X6.4626Y-4.998
X6.4705Y-3.0925
X6.4705Y-3.6811
X6.4724Y-3.1201
X6.4724Y-3.7106
X6.4724Y-4.3012
X6.4724Y-4.8917
X6.4744Y-4.2717
X6.4961Y-4.8602
X6.502Y-3.124
X6.502Y-4.8957
X6.5039Y-4.313
X6.5059Y-3.7165
X6.5157Y-4.9311
X6.5197Y-4.3406
X6.5217Y-3.7441
X6.5276Y-3.1535
X6.5492Y-4.9508
X6.5512Y-3.7697
X6.5512Y-4.3602
X6.561Y-3.1791
X6.5748Y-3.0413
X6.5748Y-3.6319
X6.5748Y-4.2224
X6.5748Y-4.813
X6.5846Y-3.248
X6.5846Y-3.8386
X6.5846Y-4.4291
X6.5846Y-5.0197
X6.6043Y-3.0413
X6.6043Y-3.6319
X6.6043Y-4.2224
X6.6043Y-4.813
X6.6142Y-3.248
X6.6142Y-3.8386
X6.6142Y-4.4291
X6.6142Y-5.0197
X6.6339Y-3.0413
X6.6339Y-3.6319
X6.6339Y-4.2224
X6.6339Y-4.813
X6.6437Y-3.248
X6.6437Y-3.8386
X6.6437Y-4.4291
X6.6437Y-5.0197
X6.6634Y-3.0413
X6.6634Y-3.6319
X6.6634Y-4.2224
X6.6634Y-4.813
X6.6732Y-3.248
X6.6732Y-3.8386
X6.6732Y-4.4291
X6.6732Y-5.0197
X6.7126Y-3.2146
X6.7126Y-3.8012
X6.7126Y-4.3898
X6.7126Y-4.9843
X6.7323Y-3.1791
X6.7323Y-3.7618
X6.7323Y-4.3602
X6.7323Y-4.9508
X6.752Y-3.1476
X6.752Y-3.7323
X6.752Y-4.3346
X6.752Y-4.9232
X6.811Y-4.8957
X6.8307Y-4.2913
X6.8524Y-3.7106
X6.8701Y-3.124
X6.8898Y-3.0945
X6.8898Y-3.6654
X6.8898Y-4.2717
X6.8898Y-4.8602
M30
