%TF.GenerationSoftware,KiCad,Pcbnew,7.0.7-7.0.7~ubuntu22.04.1*%
%TF.CreationDate,2023-08-15T12:12:05+01:00*%
%TF.ProjectId,LIS3DH_array,4c495333-4448-45f6-9172-7261792e6b69,rev?*%
%TF.SameCoordinates,Original*%
%TF.FileFunction,Legend,Bot*%
%TF.FilePolarity,Positive*%
%FSLAX46Y46*%
G04 Gerber Fmt 4.6, Leading zero omitted, Abs format (unit mm)*
G04 Created by KiCad (PCBNEW 7.0.7-7.0.7~ubuntu22.04.1) date 2023-08-15 12:12:05*
%MOMM*%
%LPD*%
G01*
G04 APERTURE LIST*
%ADD10C,0.500000*%
%ADD11C,0.120000*%
%ADD12R,1.000000X1.000000*%
%ADD13O,1.000000X1.000000*%
%ADD14R,1.700000X1.700000*%
%ADD15O,1.700000X1.700000*%
%ADD16C,1.000000*%
G04 APERTURE END LIST*
D10*
X167785714Y-154290428D02*
X167357142Y-154433285D01*
X167357142Y-154433285D02*
X167214285Y-154576142D01*
X167214285Y-154576142D02*
X167071428Y-154861857D01*
X167071428Y-154861857D02*
X167071428Y-155290428D01*
X167071428Y-155290428D02*
X167214285Y-155576142D01*
X167214285Y-155576142D02*
X167357142Y-155719000D01*
X167357142Y-155719000D02*
X167642857Y-155861857D01*
X167642857Y-155861857D02*
X168785714Y-155861857D01*
X168785714Y-155861857D02*
X168785714Y-152861857D01*
X168785714Y-152861857D02*
X167785714Y-152861857D01*
X167785714Y-152861857D02*
X167500000Y-153004714D01*
X167500000Y-153004714D02*
X167357142Y-153147571D01*
X167357142Y-153147571D02*
X167214285Y-153433285D01*
X167214285Y-153433285D02*
X167214285Y-153719000D01*
X167214285Y-153719000D02*
X167357142Y-154004714D01*
X167357142Y-154004714D02*
X167500000Y-154147571D01*
X167500000Y-154147571D02*
X167785714Y-154290428D01*
X167785714Y-154290428D02*
X168785714Y-154290428D01*
X166071428Y-153861857D02*
X165357142Y-155861857D01*
X164642857Y-153861857D02*
X165357142Y-155861857D01*
X165357142Y-155861857D02*
X165642857Y-156576142D01*
X165642857Y-156576142D02*
X165785714Y-156719000D01*
X165785714Y-156719000D02*
X166071428Y-156861857D01*
X161357143Y-155004714D02*
X159928572Y-155004714D01*
X161642857Y-155861857D02*
X160642857Y-152861857D01*
X160642857Y-152861857D02*
X159642857Y-155861857D01*
X158642857Y-155861857D02*
X158642857Y-152861857D01*
X158642857Y-152861857D02*
X157928571Y-152861857D01*
X157928571Y-152861857D02*
X157500000Y-153004714D01*
X157500000Y-153004714D02*
X157214285Y-153290428D01*
X157214285Y-153290428D02*
X157071428Y-153576142D01*
X157071428Y-153576142D02*
X156928571Y-154147571D01*
X156928571Y-154147571D02*
X156928571Y-154576142D01*
X156928571Y-154576142D02*
X157071428Y-155147571D01*
X157071428Y-155147571D02*
X157214285Y-155433285D01*
X157214285Y-155433285D02*
X157500000Y-155719000D01*
X157500000Y-155719000D02*
X157928571Y-155861857D01*
X157928571Y-155861857D02*
X158642857Y-155861857D01*
X154500000Y-155719000D02*
X154785714Y-155861857D01*
X154785714Y-155861857D02*
X155357143Y-155861857D01*
X155357143Y-155861857D02*
X155642857Y-155719000D01*
X155642857Y-155719000D02*
X155785714Y-155433285D01*
X155785714Y-155433285D02*
X155785714Y-154290428D01*
X155785714Y-154290428D02*
X155642857Y-154004714D01*
X155642857Y-154004714D02*
X155357143Y-153861857D01*
X155357143Y-153861857D02*
X154785714Y-153861857D01*
X154785714Y-153861857D02*
X154500000Y-154004714D01*
X154500000Y-154004714D02*
X154357143Y-154290428D01*
X154357143Y-154290428D02*
X154357143Y-154576142D01*
X154357143Y-154576142D02*
X155785714Y-154861857D01*
X153357142Y-153861857D02*
X152642856Y-155861857D01*
X152642856Y-155861857D02*
X151928571Y-153861857D01*
D11*
%TO.C,TP16*%
X128700002Y-96999998D02*
G75*
G03*
X128700002Y-96999998I-700000J0D01*
G01*
%TO.C,TP19*%
X98700002Y-78000002D02*
G75*
G03*
X98700002Y-78000002I-700000J0D01*
G01*
%TO.C,TP24*%
X113700003Y-96999998D02*
G75*
G03*
X113700003Y-96999998I-700000J0D01*
G01*
%TO.C,TP1*%
X102699998Y-81999998D02*
G75*
G03*
X102699998Y-81999998I-700000J0D01*
G01*
%TO.C,TP48*%
X147699998Y-111999997D02*
G75*
G03*
X147699998Y-111999997I-700000J0D01*
G01*
%TO.C,TP53*%
X113700002Y-123000003D02*
G75*
G03*
X113700002Y-123000003I-700000J0D01*
G01*
%TO.C,TP35*%
X147699998Y-96999997D02*
G75*
G03*
X147699998Y-96999997I-700000J0D01*
G01*
%TO.C,TP59*%
X132699998Y-126999997D02*
G75*
G03*
X132699998Y-126999997I-700000J0D01*
G01*
%TO.C,TP12*%
X128700002Y-81999998D02*
G75*
G03*
X128700002Y-81999998I-700000J0D01*
G01*
%TO.C,TP37*%
X113700002Y-108000003D02*
G75*
G03*
X113700002Y-108000003I-700000J0D01*
G01*
%TO.C,TP31*%
X147699998Y-81999997D02*
G75*
G03*
X147699998Y-81999997I-700000J0D01*
G01*
%TO.C,TP47*%
X147699997Y-108000002D02*
G75*
G03*
X147699997Y-108000002I-700000J0D01*
G01*
%TO.C,TP21*%
X128700002Y-78000002D02*
G75*
G03*
X128700002Y-78000002I-700000J0D01*
G01*
%TO.C,TP38*%
X117699997Y-108000002D02*
G75*
G03*
X117699997Y-108000002I-700000J0D01*
G01*
%TO.C,TP45*%
X143700003Y-111999998D02*
G75*
G03*
X143700003Y-111999998I-700000J0D01*
G01*
%TO.C,TP27*%
X98700003Y-111999998D02*
G75*
G03*
X98700003Y-111999998I-700000J0D01*
G01*
%TO.C,TP64*%
X143700003Y-126999998D02*
G75*
G03*
X143700003Y-126999998I-700000J0D01*
G01*
%TO.C,TP30*%
X132699998Y-78000002D02*
G75*
G03*
X132699998Y-78000002I-700000J0D01*
G01*
%TO.C,TP58*%
X132699997Y-123000002D02*
G75*
G03*
X132699997Y-123000002I-700000J0D01*
G01*
%TO.C,TP2*%
X117699998Y-81999998D02*
G75*
G03*
X117699998Y-81999998I-700000J0D01*
G01*
%TO.C,TP6*%
X117699997Y-93000002D02*
G75*
G03*
X117699997Y-93000002I-700000J0D01*
G01*
%TO.C,TP55*%
X117699998Y-126999997D02*
G75*
G03*
X117699998Y-126999997I-700000J0D01*
G01*
%TO.C,TP63*%
X147699998Y-126999997D02*
G75*
G03*
X147699998Y-126999997I-700000J0D01*
G01*
%TO.C,TP34*%
X132699998Y-93000002D02*
G75*
G03*
X132699998Y-93000002I-700000J0D01*
G01*
%TO.C,TP61*%
X143700002Y-123000003D02*
G75*
G03*
X143700002Y-123000003I-700000J0D01*
G01*
%TO.C,TP3*%
X132699998Y-81999998D02*
G75*
G03*
X132699998Y-81999998I-700000J0D01*
G01*
%TO.C,TP33*%
X113700002Y-93000003D02*
G75*
G03*
X113700002Y-93000003I-700000J0D01*
G01*
%TO.C,TP14*%
X102699998Y-96999997D02*
G75*
G03*
X102699998Y-96999997I-700000J0D01*
G01*
%TO.C,TP25*%
X128700002Y-93000002D02*
G75*
G03*
X128700002Y-93000002I-700000J0D01*
G01*
%TO.C,TP60*%
X128700003Y-126999998D02*
G75*
G03*
X128700003Y-126999998I-700000J0D01*
G01*
%TO.C,TP62*%
X147699997Y-123000002D02*
G75*
G03*
X147699997Y-123000002I-700000J0D01*
G01*
%TO.C,TP11*%
X113700002Y-81999998D02*
G75*
G03*
X113700002Y-81999998I-700000J0D01*
G01*
%TO.C,TP56*%
X113700003Y-126999998D02*
G75*
G03*
X113700003Y-126999998I-700000J0D01*
G01*
%TO.C,TP13*%
X143700002Y-78000003D02*
G75*
G03*
X143700002Y-78000003I-700000J0D01*
G01*
%TO.C,TP15*%
X117699998Y-96999997D02*
G75*
G03*
X117699998Y-96999997I-700000J0D01*
G01*
%TO.C,TP23*%
X98700003Y-96999998D02*
G75*
G03*
X98700003Y-96999998I-700000J0D01*
G01*
%TO.C,TP8*%
X143700003Y-96999998D02*
G75*
G03*
X143700003Y-96999998I-700000J0D01*
G01*
%TO.C,TP54*%
X117699997Y-123000002D02*
G75*
G03*
X117699997Y-123000002I-700000J0D01*
G01*
%TO.C,TP4*%
X143700003Y-81999998D02*
G75*
G03*
X143700003Y-81999998I-700000J0D01*
G01*
%TO.C,TP26*%
X147699997Y-93000002D02*
G75*
G03*
X147699997Y-93000002I-700000J0D01*
G01*
%TO.C,TP46*%
X143700002Y-108000003D02*
G75*
G03*
X143700002Y-108000003I-700000J0D01*
G01*
%TO.C,TP50*%
X102699998Y-126999997D02*
G75*
G03*
X102699998Y-126999997I-700000J0D01*
G01*
%TO.C,TP52*%
X98700002Y-123000003D02*
G75*
G03*
X98700002Y-123000003I-700000J0D01*
G01*
%TO.C,TP28*%
X102699998Y-78000002D02*
G75*
G03*
X102699998Y-78000002I-700000J0D01*
G01*
%TO.C,TP49*%
X102699997Y-123000002D02*
G75*
G03*
X102699997Y-123000002I-700000J0D01*
G01*
%TO.C,TP32*%
X98700002Y-93000003D02*
G75*
G03*
X98700002Y-93000003I-700000J0D01*
G01*
%TO.C,TP22*%
X147699997Y-78000002D02*
G75*
G03*
X147699997Y-78000002I-700000J0D01*
G01*
%TO.C,TP17*%
X143700002Y-93000003D02*
G75*
G03*
X143700002Y-93000003I-700000J0D01*
G01*
%TO.C,TP42*%
X128700002Y-108000003D02*
G75*
G03*
X128700002Y-108000003I-700000J0D01*
G01*
%TO.C,TP5*%
X102699997Y-93000002D02*
G75*
G03*
X102699997Y-93000002I-700000J0D01*
G01*
%TO.C,TP18*%
X102699998Y-111999997D02*
G75*
G03*
X102699998Y-111999997I-700000J0D01*
G01*
%TO.C,TP40*%
X113700003Y-111999998D02*
G75*
G03*
X113700003Y-111999998I-700000J0D01*
G01*
%TO.C,TP57*%
X128700002Y-123000003D02*
G75*
G03*
X128700002Y-123000003I-700000J0D01*
G01*
%TO.C,TP41*%
X128700003Y-111999998D02*
G75*
G03*
X128700003Y-111999998I-700000J0D01*
G01*
%TO.C,TP39*%
X117699998Y-111999997D02*
G75*
G03*
X117699998Y-111999997I-700000J0D01*
G01*
%TO.C,TP29*%
X117699998Y-78000002D02*
G75*
G03*
X117699998Y-78000002I-700000J0D01*
G01*
%TO.C,TP43*%
X132699997Y-108000002D02*
G75*
G03*
X132699997Y-108000002I-700000J0D01*
G01*
%TO.C,TP9*%
X102699997Y-108000002D02*
G75*
G03*
X102699997Y-108000002I-700000J0D01*
G01*
%TO.C,TP7*%
X132699998Y-96999998D02*
G75*
G03*
X132699998Y-96999998I-700000J0D01*
G01*
%TO.C,TP44*%
X132699998Y-111999997D02*
G75*
G03*
X132699998Y-111999997I-700000J0D01*
G01*
%TO.C,TP36*%
X98700002Y-108000003D02*
G75*
G03*
X98700002Y-108000003I-700000J0D01*
G01*
%TO.C,TP51*%
X98700003Y-126999998D02*
G75*
G03*
X98700003Y-126999998I-700000J0D01*
G01*
%TO.C,TP10*%
X98700002Y-81999998D02*
G75*
G03*
X98700002Y-81999998I-700000J0D01*
G01*
%TO.C,TP20*%
X113700002Y-78000002D02*
G75*
G03*
X113700002Y-78000002I-700000J0D01*
G01*
%TD*%
%LPC*%
D12*
%TO.C,J6*%
X80025000Y-75549999D03*
D13*
X80025000Y-76819999D03*
X80025000Y-78089999D03*
X80025000Y-79359999D03*
X80025000Y-80629999D03*
X80025000Y-81899999D03*
X80025000Y-83169999D03*
X80025000Y-84439999D03*
%TD*%
D12*
%TO.C,J1*%
X104450000Y-60025000D03*
D13*
X103180000Y-60025000D03*
X101910000Y-60025000D03*
X100640000Y-60025000D03*
X99370000Y-60025000D03*
X98100000Y-60025000D03*
X96830000Y-60025000D03*
X95560000Y-60025000D03*
%TD*%
D14*
%TO.C,J12*%
X122500000Y-48960000D03*
D15*
X125040000Y-48960000D03*
%TD*%
D12*
%TO.C,J9*%
X80025000Y-105550001D03*
D13*
X80025000Y-106820001D03*
X80025000Y-108090001D03*
X80025000Y-109360001D03*
X80025000Y-110630001D03*
X80025000Y-111900001D03*
X80025000Y-113170001D03*
X80025000Y-114440001D03*
%TD*%
D12*
%TO.C,J13*%
X95550000Y-144975000D03*
D13*
X96820000Y-144975000D03*
X98090000Y-144975000D03*
X99360000Y-144975000D03*
X100630000Y-144975000D03*
X101900000Y-144975000D03*
X103170000Y-144975000D03*
X104440000Y-144975000D03*
%TD*%
D12*
%TO.C,J7*%
X149450000Y-60025000D03*
D13*
X148180000Y-60025000D03*
X146910000Y-60025000D03*
X145640000Y-60025000D03*
X144370000Y-60025000D03*
X143100000Y-60025000D03*
X141830000Y-60025000D03*
X140560000Y-60025000D03*
%TD*%
D12*
%TO.C,J4*%
X164975000Y-84449999D03*
D13*
X164975000Y-83179999D03*
X164975000Y-81909999D03*
X164975000Y-80639999D03*
X164975000Y-79369999D03*
X164975000Y-78099999D03*
X164975000Y-76829999D03*
X164975000Y-75559999D03*
%TD*%
D12*
%TO.C,J8*%
X164975000Y-99449999D03*
D13*
X164975000Y-98179999D03*
X164975000Y-96909999D03*
X164975000Y-95639999D03*
X164975000Y-94369999D03*
X164975000Y-93099999D03*
X164975000Y-91829999D03*
X164975000Y-90559999D03*
%TD*%
D12*
%TO.C,J5*%
X80025000Y-90550001D03*
D13*
X80025000Y-91820001D03*
X80025000Y-93090001D03*
X80025000Y-94360001D03*
X80025000Y-95630001D03*
X80025000Y-96900001D03*
X80025000Y-98170001D03*
X80025000Y-99440001D03*
%TD*%
D12*
%TO.C,J17*%
X110550001Y-144975000D03*
D13*
X111820001Y-144975000D03*
X113090001Y-144975000D03*
X114360001Y-144975000D03*
X115630001Y-144975000D03*
X116900001Y-144975000D03*
X118170001Y-144975000D03*
X119440001Y-144975000D03*
%TD*%
D14*
%TO.C,J10*%
X127580000Y-51500000D03*
D15*
X130120000Y-51500000D03*
X132660000Y-51500000D03*
X135200000Y-51500000D03*
X137740000Y-51500000D03*
X140280000Y-51500000D03*
X142820000Y-51500000D03*
X145360000Y-51500000D03*
%TD*%
D12*
%TO.C,J16*%
X80025000Y-120550001D03*
D13*
X80025000Y-121820001D03*
X80025000Y-123090001D03*
X80025000Y-124360001D03*
X80025000Y-125630001D03*
X80025000Y-126900001D03*
X80025000Y-128170001D03*
X80025000Y-129440001D03*
%TD*%
D14*
%TO.C,J11*%
X119960000Y-51500000D03*
D15*
X122500000Y-51500000D03*
X125040000Y-51500000D03*
%TD*%
D12*
%TO.C,J3*%
X134450000Y-60025000D03*
D13*
X133180000Y-60025000D03*
X131910000Y-60025000D03*
X130640000Y-60025000D03*
X129370000Y-60025000D03*
X128100000Y-60025000D03*
X126830000Y-60025000D03*
X125560000Y-60025000D03*
%TD*%
D12*
%TO.C,J15*%
X164975000Y-114449999D03*
D13*
X164975000Y-113179999D03*
X164975000Y-111909999D03*
X164975000Y-110639999D03*
X164975000Y-109369999D03*
X164975000Y-108099999D03*
X164975000Y-106829999D03*
X164975000Y-105559999D03*
%TD*%
D12*
%TO.C,J19*%
X140550001Y-144975000D03*
D13*
X141820001Y-144975000D03*
X143090001Y-144975000D03*
X144360001Y-144975000D03*
X145630001Y-144975000D03*
X146900001Y-144975000D03*
X148170001Y-144975000D03*
X149440001Y-144975000D03*
%TD*%
D12*
%TO.C,J14*%
X164975000Y-129450001D03*
D13*
X164975000Y-128180001D03*
X164975000Y-126910001D03*
X164975000Y-125640001D03*
X164975000Y-124370001D03*
X164975000Y-123100001D03*
X164975000Y-121830001D03*
X164975000Y-120560001D03*
%TD*%
D14*
%TO.C,J20*%
X99640000Y-51500000D03*
D15*
X102180000Y-51500000D03*
X104720000Y-51500000D03*
X107260000Y-51500000D03*
X109800000Y-51500000D03*
X112340000Y-51500000D03*
X114880000Y-51500000D03*
X117420000Y-51500000D03*
%TD*%
D12*
%TO.C,J2*%
X119450000Y-60025000D03*
D13*
X118180000Y-60025000D03*
X116910000Y-60025000D03*
X115640000Y-60025000D03*
X114370000Y-60025000D03*
X113100000Y-60025000D03*
X111830000Y-60025000D03*
X110560000Y-60025000D03*
%TD*%
D12*
%TO.C,J18*%
X125550001Y-144975000D03*
D13*
X126820001Y-144975000D03*
X128090001Y-144975000D03*
X129360001Y-144975000D03*
X130630001Y-144975000D03*
X131900001Y-144975000D03*
X133170001Y-144975000D03*
X134440001Y-144975000D03*
%TD*%
D16*
%TO.C,TP16*%
X128000002Y-96999998D03*
%TD*%
%TO.C,TP19*%
X98000002Y-78000002D03*
%TD*%
%TO.C,TP24*%
X113000003Y-96999998D03*
%TD*%
%TO.C,TP1*%
X101999998Y-81999998D03*
%TD*%
%TO.C,TP48*%
X146999998Y-111999997D03*
%TD*%
%TO.C,TP53*%
X113000002Y-123000003D03*
%TD*%
%TO.C,TP35*%
X146999998Y-96999997D03*
%TD*%
%TO.C,TP59*%
X131999998Y-126999997D03*
%TD*%
%TO.C,TP12*%
X128000002Y-81999998D03*
%TD*%
%TO.C,TP37*%
X113000002Y-108000003D03*
%TD*%
%TO.C,TP31*%
X146999998Y-81999997D03*
%TD*%
%TO.C,TP47*%
X146999997Y-108000002D03*
%TD*%
%TO.C,TP21*%
X128000002Y-78000002D03*
%TD*%
%TO.C,TP38*%
X116999997Y-108000002D03*
%TD*%
%TO.C,TP45*%
X143000003Y-111999998D03*
%TD*%
%TO.C,TP27*%
X98000003Y-111999998D03*
%TD*%
%TO.C,TP64*%
X143000003Y-126999998D03*
%TD*%
%TO.C,TP30*%
X131999998Y-78000002D03*
%TD*%
%TO.C,TP58*%
X131999997Y-123000002D03*
%TD*%
%TO.C,TP2*%
X116999998Y-81999998D03*
%TD*%
%TO.C,TP6*%
X116999997Y-93000002D03*
%TD*%
%TO.C,TP55*%
X116999998Y-126999997D03*
%TD*%
%TO.C,TP63*%
X146999998Y-126999997D03*
%TD*%
%TO.C,TP34*%
X131999998Y-93000002D03*
%TD*%
%TO.C,TP61*%
X143000002Y-123000003D03*
%TD*%
%TO.C,TP3*%
X131999998Y-81999998D03*
%TD*%
%TO.C,TP33*%
X113000002Y-93000003D03*
%TD*%
%TO.C,TP14*%
X101999998Y-96999997D03*
%TD*%
%TO.C,TP25*%
X128000002Y-93000002D03*
%TD*%
%TO.C,TP60*%
X128000003Y-126999998D03*
%TD*%
%TO.C,TP62*%
X146999997Y-123000002D03*
%TD*%
%TO.C,TP11*%
X113000002Y-81999998D03*
%TD*%
%TO.C,TP56*%
X113000003Y-126999998D03*
%TD*%
%TO.C,TP13*%
X143000002Y-78000003D03*
%TD*%
%TO.C,TP15*%
X116999998Y-96999997D03*
%TD*%
%TO.C,TP23*%
X98000003Y-96999998D03*
%TD*%
%TO.C,TP8*%
X143000003Y-96999998D03*
%TD*%
%TO.C,TP54*%
X116999997Y-123000002D03*
%TD*%
%TO.C,TP4*%
X143000003Y-81999998D03*
%TD*%
%TO.C,TP26*%
X146999997Y-93000002D03*
%TD*%
%TO.C,TP46*%
X143000002Y-108000003D03*
%TD*%
%TO.C,TP50*%
X101999998Y-126999997D03*
%TD*%
%TO.C,TP52*%
X98000002Y-123000003D03*
%TD*%
%TO.C,TP28*%
X101999998Y-78000002D03*
%TD*%
%TO.C,TP49*%
X101999997Y-123000002D03*
%TD*%
%TO.C,TP32*%
X98000002Y-93000003D03*
%TD*%
%TO.C,TP22*%
X146999997Y-78000002D03*
%TD*%
%TO.C,TP17*%
X143000002Y-93000003D03*
%TD*%
%TO.C,TP42*%
X128000002Y-108000003D03*
%TD*%
%TO.C,TP5*%
X101999997Y-93000002D03*
%TD*%
%TO.C,TP18*%
X101999998Y-111999997D03*
%TD*%
%TO.C,TP40*%
X113000003Y-111999998D03*
%TD*%
%TO.C,TP57*%
X128000002Y-123000003D03*
%TD*%
%TO.C,TP41*%
X128000003Y-111999998D03*
%TD*%
%TO.C,TP39*%
X116999998Y-111999997D03*
%TD*%
%TO.C,TP29*%
X116999998Y-78000002D03*
%TD*%
%TO.C,TP43*%
X131999997Y-108000002D03*
%TD*%
%TO.C,TP9*%
X101999997Y-108000002D03*
%TD*%
%TO.C,TP7*%
X131999998Y-96999998D03*
%TD*%
%TO.C,TP44*%
X131999998Y-111999997D03*
%TD*%
%TO.C,TP36*%
X98000002Y-108000003D03*
%TD*%
%TO.C,TP51*%
X98000003Y-126999998D03*
%TD*%
%TO.C,TP10*%
X98000002Y-81999998D03*
%TD*%
%TO.C,TP20*%
X113000002Y-78000002D03*
%TD*%
%LPD*%
M02*
