M48
; DRILL file {KiCad 8.0.5-unknown-202409181836~355805756e~ubuntu22.04.1} date 2024-10-04T15:54:44+0100
; FORMAT={-:-/ absolute / inch / decimal}
; #@! TF.CreationDate,2024-10-04T15:54:44+01:00
; #@! TF.GenerationSoftware,Kicad,Pcbnew,8.0.5-unknown-202409181836~355805756e~ubuntu22.04.1
; #@! TF.FileFunction,Plated,1,2,PTH
FMAT,2
INCH
; #@! TA.AperFunction,Plated,PTH,ViaDrill
T1C0.0118
%
G90
G05
T1
X4.3504Y-3.9764
X4.3504Y-4.0945
X4.3504Y-4.2126
X4.3504Y-4.3307
X4.3504Y-4.5079
X4.3504Y-4.626
X4.3504Y-4.7441
X4.3504Y-4.8622
X4.4094Y-4.0354
X4.4094Y-4.1535
X4.4094Y-4.2717
X4.4094Y-4.3898
X4.4094Y-4.4488
X4.4094Y-4.5669
X4.4094Y-4.685
X4.4094Y-4.8031
X6.5098Y-4.7894
X6.5256Y-4.1949
X6.5413Y-4.3169
X6.5492Y-4.1791
X6.5492Y-4.3445
X6.5492Y-4.498
X6.5689Y-4.2972
X6.5728Y-4.3563
X6.5768Y-4.1594
X6.5768Y-4.1949
X6.5886Y-4.4862
X6.6083Y-4.3642
X6.628Y-4.4744
X6.628Y-4.7736
X6.6398Y-4.372
X6.6476Y-4.7539
X6.6555Y-4.4665
X6.6673Y-4.7736
X6.6752Y-4.3799
X6.6791Y-4.4587
X6.687Y-4.1555
X6.687Y-4.7539
X6.6988Y-4.3878
X6.7067Y-4.7736
X6.7146Y-4.3091
X6.7185Y-4.4508
X6.7421Y-4.3957
X6.7579Y-4.4429
X6.7776Y-4.4035
X6.7972Y-4.4311
X6.8031Y-4.5276
X6.8169Y-4.4154
X7.9134Y-4.8622
X7.9724Y-3.9764
X8.0315Y-4.8622
X8.0906Y-3.9764
X8.1496Y-4.8622
X8.2087Y-3.9764
X8.2677Y-4.8622
X8.3268Y-3.9764
X8.3858Y-4.8622
X8.4449Y-3.9764
X8.5039Y-4.8622
X8.563Y-3.9764
X8.622Y-4.8622
X8.6811Y-3.9764
X8.7402Y-4.8622
X8.7992Y-3.9764
M30
