%TF.GenerationSoftware,KiCad,Pcbnew,8.0.5-unknown-202409181836~355805756e~ubuntu22.04.1*%
%TF.CreationDate,2024-10-04T15:54:44+01:00*%
%TF.ProjectId,customFSReay,63757374-6f6d-4465-9352-6561792e6b69,rev?*%
%TF.SameCoordinates,Original*%
%TF.FileFunction,Profile,NP*%
%FSLAX46Y46*%
G04 Gerber Fmt 4.6, Leading zero omitted, Abs format (unit mm)*
G04 Created by KiCad (PCBNEW 8.0.5-unknown-202409181836~355805756e~ubuntu22.04.1) date 2024-10-04 15:54:44*
%MOMM*%
%LPD*%
G01*
G04 APERTURE LIST*
%TA.AperFunction,Profile*%
%ADD10C,0.038100*%
%TD*%
%TA.AperFunction,Profile*%
%ADD11C,0.010000*%
%TD*%
G04 APERTURE END LIST*
D10*
X127250000Y-117250004D02*
X127250000Y-116250002D01*
X95250000Y-117250000D02*
G75*
G02*
X93750000Y-118749999I-1499999J0D01*
G01*
X93750000Y-124750000D02*
G75*
G02*
X93750000Y-118749998I1J3000001D01*
G01*
X93750001Y-105750000D02*
G75*
G02*
X95250000Y-107250000I0J-1499999D01*
G01*
X94750000Y-121750000D02*
G75*
G02*
X92750000Y-121750000I-1000000J0D01*
G01*
X92750000Y-121750000D02*
G75*
G02*
X94750000Y-121750000I1000000J0D01*
G01*
X95250000Y-107749999D02*
X95250000Y-107250000D01*
X129750001Y-121750003D02*
G75*
G02*
X127749999Y-121750003I-1000001J0D01*
G01*
X127749999Y-121750003D02*
G75*
G02*
X129750001Y-121750003I1000001J0D01*
G01*
X93750000Y-115250001D02*
G75*
G02*
X95249999Y-116749999I0J-1499999D01*
G01*
X93750000Y-115250001D02*
G75*
G02*
X93750000Y-109249999I-1J3000001D01*
G01*
X95250000Y-107749999D02*
G75*
G02*
X93750000Y-109250000I-1500000J-1D01*
G01*
X128750000Y-99750004D02*
G75*
G02*
X128750000Y-105750006I-2J-3000001D01*
G01*
X94750001Y-112250000D02*
G75*
G02*
X92749999Y-112250000I-1000001J0D01*
G01*
X92749999Y-112250000D02*
G75*
G02*
X94750001Y-112250000I1000001J0D01*
G01*
X95250000Y-117250000D02*
X95250000Y-116749999D01*
X94750001Y-102750002D02*
G75*
G02*
X92749999Y-102750002I-1000001J0D01*
G01*
X92749999Y-102750002D02*
G75*
G02*
X94750001Y-102750002I1000001J0D01*
G01*
X93750001Y-105750000D02*
G75*
G02*
X93750001Y-99750000I0J3000000D01*
G01*
X128749999Y-118750005D02*
G75*
G02*
X128750000Y-124750001I1J-2999998D01*
G01*
X129250000Y-110250002D02*
G75*
G02*
X127250000Y-108250002I-1J1999999D01*
G01*
X127250000Y-108250002D02*
X127250000Y-107250004D01*
X127250000Y-107250004D02*
G75*
G02*
X128750000Y-105750006I1499997J1D01*
G01*
X128749999Y-118750005D02*
G75*
G02*
X127249999Y-117250004I0J1500000D01*
G01*
X127250000Y-116250002D02*
G75*
G02*
X129250000Y-114250002I1999999J1D01*
G01*
X129750000Y-102750005D02*
G75*
G02*
X127750000Y-102750005I-1000000J0D01*
G01*
X127750000Y-102750005D02*
G75*
G02*
X129750000Y-102750005I1000000J0D01*
G01*
X196250000Y-108250000D02*
G75*
G02*
X194250000Y-110250000I-1999999J-1D01*
G01*
X194250000Y-114250000D02*
G75*
G02*
X196250000Y-116250000I1J-1999999D01*
G01*
X196250000Y-117249998D02*
G75*
G02*
X194750000Y-118749997I-1499999J0D01*
G01*
X194750000Y-124749998D02*
G75*
G02*
X194750000Y-118749998I1J3000000D01*
G01*
X194750001Y-105749998D02*
G75*
G02*
X196250000Y-107249998I0J-1499999D01*
G01*
X195750000Y-121749997D02*
G75*
G02*
X193750000Y-121749997I-1000000J0D01*
G01*
X193750000Y-121749997D02*
G75*
G02*
X195750000Y-121749997I1000000J0D01*
G01*
X196250000Y-108250000D02*
X196250000Y-107249998D01*
X195750001Y-102749999D02*
G75*
G02*
X193749999Y-102749999I-1000001J0D01*
G01*
X193749999Y-102749999D02*
G75*
G02*
X195750001Y-102749999I1000001J0D01*
G01*
X194750001Y-105749998D02*
G75*
G02*
X194750001Y-99749998I0J3000000D01*
G01*
X230750001Y-112250003D02*
G75*
G02*
X228749999Y-112250003I-1000001J0D01*
G01*
X228749999Y-112250003D02*
G75*
G02*
X230750001Y-112250003I1000001J0D01*
G01*
X228250000Y-107250002D02*
G75*
G02*
X229750000Y-105750003I1499999J0D01*
G01*
X230750000Y-102750002D02*
G75*
G02*
X228750000Y-102750002I-1000000J0D01*
G01*
X228750000Y-102750002D02*
G75*
G02*
X230750000Y-102750002I1000000J0D01*
G01*
X228250000Y-116750003D02*
G75*
G02*
X229750000Y-115250002I1500001J0D01*
G01*
X229750000Y-109250002D02*
G75*
G02*
X228250000Y-107750003I1J1500001D01*
G01*
X228250000Y-107750003D02*
X228250000Y-107250002D01*
X229750000Y-99750002D02*
G75*
G02*
X229750000Y-105750002I0J-3000000D01*
G01*
X229750000Y-109250002D02*
G75*
G02*
X229750000Y-115250002I1J-3000000D01*
G01*
X228250000Y-117250002D02*
X228250000Y-116750003D01*
X229749999Y-118750002D02*
G75*
G02*
X228250000Y-117250002I0J1499999D01*
G01*
X229749999Y-118750002D02*
G75*
G02*
X229749999Y-124750002I0J-3000000D01*
G01*
X230750001Y-121750001D02*
G75*
G02*
X228749999Y-121750001I-1000001J0D01*
G01*
X228749999Y-121750001D02*
G75*
G02*
X230750001Y-121750001I1000001J0D01*
G01*
X194750001Y-99749999D02*
X229750000Y-99750002D01*
X194750000Y-124749998D02*
X229749999Y-124750001D01*
D11*
X114350001Y-113750000D02*
G75*
G02*
X114150001Y-113750000I-100000J0D01*
G01*
X114150001Y-113750000D02*
G75*
G02*
X114350001Y-113750000I100000J0D01*
G01*
X210850000Y-124250000D02*
G75*
G02*
X210650000Y-124250000I-100000J0D01*
G01*
X210650000Y-124250000D02*
G75*
G02*
X210850000Y-124250000I100000J0D01*
G01*
X201850001Y-124250000D02*
G75*
G02*
X201649999Y-124250000I-100001J0D01*
G01*
X201649999Y-124250000D02*
G75*
G02*
X201850001Y-124250000I100001J0D01*
G01*
X207850000Y-121250001D02*
G75*
G02*
X207650000Y-121250001I-100000J0D01*
G01*
X207650000Y-121250001D02*
G75*
G02*
X207850000Y-121250001I100000J0D01*
G01*
X118850002Y-119750000D02*
G75*
G02*
X118650000Y-119750000I-100001J0D01*
G01*
X118650000Y-119750000D02*
G75*
G02*
X118850002Y-119750000I100001J0D01*
G01*
X118850000Y-122749999D02*
G75*
G02*
X118650002Y-122749999I-99999J0D01*
G01*
X118650002Y-122749999D02*
G75*
G02*
X118850000Y-122749999I99999J0D01*
G01*
X210850000Y-121250000D02*
G75*
G02*
X210650000Y-121250000I-100000J0D01*
G01*
X210650000Y-121250000D02*
G75*
G02*
X210850000Y-121250000I100000J0D01*
G01*
X221350000Y-106250000D02*
G75*
G02*
X221150000Y-106250000I-100000J0D01*
G01*
X221150000Y-106250000D02*
G75*
G02*
X221350000Y-106250000I100000J0D01*
G01*
X203350000Y-119750000D02*
G75*
G02*
X203150000Y-119750000I-100000J0D01*
G01*
X203150000Y-119750000D02*
G75*
G02*
X203350000Y-119750000I100000J0D01*
G01*
X221350002Y-107750000D02*
G75*
G02*
X221150000Y-107750000I-100001J0D01*
G01*
X221150000Y-107750000D02*
G75*
G02*
X221350002Y-107750000I100001J0D01*
G01*
X102350000Y-106250000D02*
G75*
G02*
X102150002Y-106250000I-99999J0D01*
G01*
X102150002Y-106250000D02*
G75*
G02*
X102350000Y-106250000I99999J0D01*
G01*
X218350000Y-122750000D02*
G75*
G02*
X218150000Y-122750000I-100000J0D01*
G01*
X218150000Y-122750000D02*
G75*
G02*
X218350000Y-122750000I100000J0D01*
G01*
X117350001Y-116750000D02*
G75*
G02*
X117150001Y-116750000I-100000J0D01*
G01*
X117150001Y-116750000D02*
G75*
G02*
X117350001Y-116750000I100000J0D01*
G01*
X212350000Y-103250000D02*
G75*
G02*
X212150000Y-103250000I-100000J0D01*
G01*
X212150000Y-103250000D02*
G75*
G02*
X212350000Y-103250000I100000J0D01*
G01*
X103850001Y-115250000D02*
G75*
G02*
X103650001Y-115250000I-100000J0D01*
G01*
X103650001Y-115250000D02*
G75*
G02*
X103850001Y-115250000I100000J0D01*
G01*
X100850001Y-116750000D02*
G75*
G02*
X100650001Y-116750000I-100000J0D01*
G01*
X100650001Y-116750000D02*
G75*
G02*
X100850001Y-116750000I100000J0D01*
G01*
X118850002Y-124250001D02*
G75*
G02*
X118650000Y-124250001I-100001J0D01*
G01*
X118650000Y-124250001D02*
G75*
G02*
X118850002Y-124250001I100001J0D01*
G01*
X99350001Y-106250001D02*
G75*
G02*
X99149999Y-106250001I-100001J0D01*
G01*
X99149999Y-106250001D02*
G75*
G02*
X99350001Y-106250001I100001J0D01*
G01*
X99350001Y-115250000D02*
G75*
G02*
X99150001Y-115250000I-100000J0D01*
G01*
X99150001Y-115250000D02*
G75*
G02*
X99350001Y-115250000I100000J0D01*
G01*
X109850001Y-109250000D02*
G75*
G02*
X109650001Y-109250000I-100000J0D01*
G01*
X109650001Y-109250000D02*
G75*
G02*
X109850001Y-109250000I100000J0D01*
G01*
X99350000Y-113750000D02*
G75*
G02*
X99150000Y-113750000I-100000J0D01*
G01*
X99150000Y-113750000D02*
G75*
G02*
X99350000Y-113750000I100000J0D01*
G01*
X111350001Y-103250000D02*
G75*
G02*
X111150001Y-103250000I-100000J0D01*
G01*
X111150001Y-103250000D02*
G75*
G02*
X111350001Y-103250000I100000J0D01*
G01*
X123350002Y-122750000D02*
G75*
G02*
X123150000Y-122750000I-100001J0D01*
G01*
X123150000Y-122750000D02*
G75*
G02*
X123350002Y-122750000I100001J0D01*
G01*
X222850000Y-118250000D02*
G75*
G02*
X222650000Y-118250000I-100000J0D01*
G01*
X222650000Y-118250000D02*
G75*
G02*
X222850000Y-118250000I100000J0D01*
G01*
X221350000Y-110750000D02*
G75*
G02*
X221150000Y-110750000I-100000J0D01*
G01*
X221150000Y-110750000D02*
G75*
G02*
X221350000Y-110750000I100000J0D01*
G01*
D10*
X178250000Y-110250000D02*
G75*
G02*
X174750000Y-106749999I0J3500000D01*
G01*
D11*
X216850000Y-121250001D02*
G75*
G02*
X216650000Y-121250001I-100000J0D01*
G01*
X216650000Y-121250001D02*
G75*
G02*
X216850000Y-121250001I100000J0D01*
G01*
X209350000Y-118249999D02*
G75*
G02*
X209150000Y-118249999I-100000J0D01*
G01*
X209150000Y-118249999D02*
G75*
G02*
X209350000Y-118249999I100000J0D01*
G01*
X112850001Y-118250000D02*
G75*
G02*
X112650001Y-118250000I-100000J0D01*
G01*
X112650001Y-118250000D02*
G75*
G02*
X112850001Y-118250000I100000J0D01*
G01*
X106850001Y-124250000D02*
G75*
G02*
X106650001Y-124250000I-100000J0D01*
G01*
X106650001Y-124250000D02*
G75*
G02*
X106850001Y-124250000I100000J0D01*
G01*
X215350000Y-116750000D02*
G75*
G02*
X215150000Y-116750000I-100000J0D01*
G01*
X215150000Y-116750000D02*
G75*
G02*
X215350000Y-116750000I100000J0D01*
G01*
X215350000Y-109250000D02*
G75*
G02*
X215150000Y-109250000I-100000J0D01*
G01*
X215150000Y-109250000D02*
G75*
G02*
X215350000Y-109250000I100000J0D01*
G01*
X108349999Y-103250000D02*
G75*
G02*
X108150001Y-103250000I-99999J0D01*
G01*
X108150001Y-103250000D02*
G75*
G02*
X108349999Y-103250000I99999J0D01*
G01*
X221350000Y-112250000D02*
G75*
G02*
X221150000Y-112250000I-100000J0D01*
G01*
X221150000Y-112250000D02*
G75*
G02*
X221350000Y-112250000I100000J0D01*
G01*
X115850001Y-109250000D02*
G75*
G02*
X115650001Y-109250000I-100000J0D01*
G01*
X115650001Y-109250000D02*
G75*
G02*
X115850001Y-109250000I100000J0D01*
G01*
X115850001Y-115250000D02*
G75*
G02*
X115650001Y-115250000I-100000J0D01*
G01*
X115650001Y-115250000D02*
G75*
G02*
X115850001Y-115250000I100000J0D01*
G01*
X212349999Y-124249999D02*
G75*
G02*
X212150001Y-124249999I-99999J0D01*
G01*
X212150001Y-124249999D02*
G75*
G02*
X212349999Y-124249999I99999J0D01*
G01*
X218350000Y-104750000D02*
G75*
G02*
X218150000Y-104750000I-100000J0D01*
G01*
X218150000Y-104750000D02*
G75*
G02*
X218350000Y-104750000I100000J0D01*
G01*
X210850000Y-119750000D02*
G75*
G02*
X210650000Y-119750000I-100000J0D01*
G01*
X210650000Y-119750000D02*
G75*
G02*
X210850000Y-119750000I100000J0D01*
G01*
X114350001Y-115250000D02*
G75*
G02*
X114150001Y-115250000I-100000J0D01*
G01*
X114150001Y-115250000D02*
G75*
G02*
X114350001Y-115250000I100000J0D01*
G01*
X203350000Y-118250000D02*
G75*
G02*
X203150000Y-118250000I-100000J0D01*
G01*
X203150000Y-118250000D02*
G75*
G02*
X203350000Y-118250000I100000J0D01*
G01*
X114350001Y-107750000D02*
G75*
G02*
X114150001Y-107750000I-100000J0D01*
G01*
X114150001Y-107750000D02*
G75*
G02*
X114350001Y-107750000I100000J0D01*
G01*
X99350001Y-116750000D02*
G75*
G02*
X99150001Y-116750000I-100000J0D01*
G01*
X99150001Y-116750000D02*
G75*
G02*
X99350001Y-116750000I100000J0D01*
G01*
X114350002Y-110750000D02*
G75*
G02*
X114150002Y-110750000I-100000J0D01*
G01*
X114150002Y-110750000D02*
G75*
G02*
X114350002Y-110750000I100000J0D01*
G01*
X213850000Y-106249999D02*
G75*
G02*
X213650000Y-106249999I-100000J0D01*
G01*
X213650000Y-106249999D02*
G75*
G02*
X213850000Y-106249999I100000J0D01*
G01*
X222850000Y-119750000D02*
G75*
G02*
X222650000Y-119750000I-100000J0D01*
G01*
X222650000Y-119750000D02*
G75*
G02*
X222850000Y-119750000I100000J0D01*
G01*
X219850000Y-101750000D02*
G75*
G02*
X219650000Y-101750000I-100000J0D01*
G01*
X219650000Y-101750000D02*
G75*
G02*
X219850000Y-101750000I100000J0D01*
G01*
X200350000Y-115250000D02*
G75*
G02*
X200150000Y-115250000I-100000J0D01*
G01*
X200150000Y-115250000D02*
G75*
G02*
X200350000Y-115250000I100000J0D01*
G01*
X115850001Y-110750000D02*
G75*
G02*
X115650001Y-110750000I-100000J0D01*
G01*
X115650001Y-110750000D02*
G75*
G02*
X115850001Y-110750000I100000J0D01*
G01*
X108350001Y-107750000D02*
G75*
G02*
X108150001Y-107750000I-100000J0D01*
G01*
X108150001Y-107750000D02*
G75*
G02*
X108350001Y-107750000I100000J0D01*
G01*
X222850002Y-115250000D02*
G75*
G02*
X222650000Y-115250000I-100001J0D01*
G01*
X222650000Y-115250000D02*
G75*
G02*
X222850002Y-115250000I100001J0D01*
G01*
X218350000Y-115250000D02*
G75*
G02*
X218150000Y-115250000I-100000J0D01*
G01*
X218150000Y-115250000D02*
G75*
G02*
X218350000Y-115250000I100000J0D01*
G01*
X108350001Y-115250000D02*
G75*
G02*
X108150001Y-115250000I-100000J0D01*
G01*
X108150001Y-115250000D02*
G75*
G02*
X108350001Y-115250000I100000J0D01*
G01*
X219850000Y-104750000D02*
G75*
G02*
X219650000Y-104750000I-100000J0D01*
G01*
X219650000Y-104750000D02*
G75*
G02*
X219850000Y-104750000I100000J0D01*
G01*
X218350000Y-101749999D02*
G75*
G02*
X218150000Y-101749999I-100000J0D01*
G01*
X218150000Y-101749999D02*
G75*
G02*
X218350000Y-101749999I100000J0D01*
G01*
X215350000Y-112250000D02*
G75*
G02*
X215150000Y-112250000I-100000J0D01*
G01*
X215150000Y-112250000D02*
G75*
G02*
X215350000Y-112250000I100000J0D01*
G01*
X105350003Y-119750001D02*
G75*
G02*
X105150001Y-119750001I-100001J0D01*
G01*
X105150001Y-119750001D02*
G75*
G02*
X105350003Y-119750001I100001J0D01*
G01*
X219850000Y-112250000D02*
G75*
G02*
X219650000Y-112250000I-100000J0D01*
G01*
X219650000Y-112250000D02*
G75*
G02*
X219850000Y-112250000I100000J0D01*
G01*
X103850001Y-104750000D02*
G75*
G02*
X103650001Y-104750000I-100000J0D01*
G01*
X103650001Y-104750000D02*
G75*
G02*
X103850001Y-104750000I100000J0D01*
G01*
X210850000Y-122750000D02*
G75*
G02*
X210650000Y-122750000I-100000J0D01*
G01*
X210650000Y-122750000D02*
G75*
G02*
X210850000Y-122750000I100000J0D01*
G01*
X201850002Y-101750000D02*
G75*
G02*
X201650000Y-101750000I-100001J0D01*
G01*
X201650000Y-101750000D02*
G75*
G02*
X201850002Y-101750000I100001J0D01*
G01*
X203349999Y-124249999D02*
G75*
G02*
X203150001Y-124249999I-99999J0D01*
G01*
X203150001Y-124249999D02*
G75*
G02*
X203349999Y-124249999I99999J0D01*
G01*
X111350001Y-112250000D02*
G75*
G02*
X111150001Y-112250000I-100000J0D01*
G01*
X111150001Y-112250000D02*
G75*
G02*
X111350001Y-112250000I100000J0D01*
G01*
X100850001Y-100250000D02*
G75*
G02*
X100650001Y-100250000I-100000J0D01*
G01*
X100650001Y-100250000D02*
G75*
G02*
X100850001Y-100250000I100000J0D01*
G01*
X106850001Y-112250000D02*
G75*
G02*
X106650001Y-112250000I-100000J0D01*
G01*
X106650001Y-112250000D02*
G75*
G02*
X106850001Y-112250000I100000J0D01*
G01*
X213850000Y-113750000D02*
G75*
G02*
X213650000Y-113750000I-100000J0D01*
G01*
X213650000Y-113750000D02*
G75*
G02*
X213850000Y-113750000I100000J0D01*
G01*
X111350001Y-115250000D02*
G75*
G02*
X111150001Y-115250000I-100000J0D01*
G01*
X111150001Y-115250000D02*
G75*
G02*
X111350001Y-115250000I100000J0D01*
G01*
X114350000Y-100250000D02*
G75*
G02*
X114150002Y-100250000I-99999J0D01*
G01*
X114150002Y-100250000D02*
G75*
G02*
X114350000Y-100250000I99999J0D01*
G01*
X112850001Y-119750000D02*
G75*
G02*
X112650001Y-119750000I-100000J0D01*
G01*
X112650001Y-119750000D02*
G75*
G02*
X112850001Y-119750000I100000J0D01*
G01*
X105350001Y-115250000D02*
G75*
G02*
X105150001Y-115250000I-100000J0D01*
G01*
X105150001Y-115250000D02*
G75*
G02*
X105350001Y-115250000I100000J0D01*
G01*
X200350000Y-124250000D02*
G75*
G02*
X200150000Y-124250000I-100000J0D01*
G01*
X200150000Y-124250000D02*
G75*
G02*
X200350000Y-124250000I100000J0D01*
G01*
X215350000Y-118250000D02*
G75*
G02*
X215150000Y-118250000I-100000J0D01*
G01*
X215150000Y-118250000D02*
G75*
G02*
X215350000Y-118250000I100000J0D01*
G01*
X221350000Y-101750000D02*
G75*
G02*
X221150000Y-101750000I-100000J0D01*
G01*
X221150000Y-101750000D02*
G75*
G02*
X221350000Y-101750000I100000J0D01*
G01*
X216850000Y-116750000D02*
G75*
G02*
X216650000Y-116750000I-100000J0D01*
G01*
X216650000Y-116750000D02*
G75*
G02*
X216850000Y-116750000I100000J0D01*
G01*
X121850001Y-115250000D02*
G75*
G02*
X121650001Y-115250000I-100000J0D01*
G01*
X121650001Y-115250000D02*
G75*
G02*
X121850001Y-115250000I100000J0D01*
G01*
X123350001Y-115250000D02*
G75*
G02*
X123150001Y-115250000I-100000J0D01*
G01*
X123150001Y-115250000D02*
G75*
G02*
X123350001Y-115250000I100000J0D01*
G01*
X203350000Y-113750000D02*
G75*
G02*
X203150000Y-113750000I-100000J0D01*
G01*
X203150000Y-113750000D02*
G75*
G02*
X203350000Y-113750000I100000J0D01*
G01*
X221350000Y-115250000D02*
G75*
G02*
X221150000Y-115250000I-100000J0D01*
G01*
X221150000Y-115250000D02*
G75*
G02*
X221350000Y-115250000I100000J0D01*
G01*
X114350001Y-109250000D02*
G75*
G02*
X114150001Y-109250000I-100000J0D01*
G01*
X114150001Y-109250000D02*
G75*
G02*
X114350001Y-109250000I100000J0D01*
G01*
X210850000Y-109250000D02*
G75*
G02*
X210650000Y-109250000I-100000J0D01*
G01*
X210650000Y-109250000D02*
G75*
G02*
X210850000Y-109250000I100000J0D01*
G01*
D10*
X163750000Y-129750000D02*
X172750000Y-129750000D01*
D11*
X114350000Y-101749999D02*
G75*
G02*
X114150002Y-101749999I-99999J0D01*
G01*
X114150002Y-101749999D02*
G75*
G02*
X114350000Y-101749999I99999J0D01*
G01*
X200350000Y-104750001D02*
G75*
G02*
X200150000Y-104750001I-100000J0D01*
G01*
X200150000Y-104750001D02*
G75*
G02*
X200350000Y-104750001I100000J0D01*
G01*
X123350001Y-124250000D02*
G75*
G02*
X123150001Y-124250000I-100000J0D01*
G01*
X123150001Y-124250000D02*
G75*
G02*
X123350001Y-124250000I100000J0D01*
G01*
X216850000Y-122750000D02*
G75*
G02*
X216650000Y-122750000I-100000J0D01*
G01*
X216650000Y-122750000D02*
G75*
G02*
X216850000Y-122750000I100000J0D01*
G01*
X224350000Y-109250000D02*
G75*
G02*
X224150000Y-109250000I-100000J0D01*
G01*
X224150000Y-109250000D02*
G75*
G02*
X224350000Y-109250000I100000J0D01*
G01*
X212350000Y-100250001D02*
G75*
G02*
X212150000Y-100250001I-100000J0D01*
G01*
X212150000Y-100250001D02*
G75*
G02*
X212350000Y-100250001I100000J0D01*
G01*
X221350000Y-113750000D02*
G75*
G02*
X221150000Y-113750000I-100000J0D01*
G01*
X221150000Y-113750000D02*
G75*
G02*
X221350000Y-113750000I100000J0D01*
G01*
X102350001Y-113750000D02*
G75*
G02*
X102150001Y-113750000I-100000J0D01*
G01*
X102150001Y-113750000D02*
G75*
G02*
X102350001Y-113750000I100000J0D01*
G01*
X200350000Y-122750000D02*
G75*
G02*
X200150000Y-122750000I-100000J0D01*
G01*
X200150000Y-122750000D02*
G75*
G02*
X200350000Y-122750000I100000J0D01*
G01*
D10*
X163750000Y-129750000D02*
G75*
G02*
X161750000Y-127750001I0J2000000D01*
G01*
D11*
X207850000Y-115250000D02*
G75*
G02*
X207650000Y-115250000I-100000J0D01*
G01*
X207650000Y-115250000D02*
G75*
G02*
X207850000Y-115250000I100000J0D01*
G01*
X200350001Y-107750000D02*
G75*
G02*
X200149999Y-107750000I-100001J0D01*
G01*
X200149999Y-107750000D02*
G75*
G02*
X200350001Y-107750000I100001J0D01*
G01*
X106850001Y-116750000D02*
G75*
G02*
X106650001Y-116750000I-100000J0D01*
G01*
X106650001Y-116750000D02*
G75*
G02*
X106850001Y-116750000I100000J0D01*
G01*
X200350000Y-100250000D02*
G75*
G02*
X200150000Y-100250000I-100000J0D01*
G01*
X200150000Y-100250000D02*
G75*
G02*
X200350000Y-100250000I100000J0D01*
G01*
X103850001Y-110750000D02*
G75*
G02*
X103650001Y-110750000I-100000J0D01*
G01*
X103650001Y-110750000D02*
G75*
G02*
X103850001Y-110750000I100000J0D01*
G01*
X109850002Y-112250000D02*
G75*
G02*
X109650002Y-112250000I-100000J0D01*
G01*
X109650002Y-112250000D02*
G75*
G02*
X109850002Y-112250000I100000J0D01*
G01*
X105350000Y-100249999D02*
G75*
G02*
X105150004Y-100249999I-99998J0D01*
G01*
X105150004Y-100249999D02*
G75*
G02*
X105350000Y-100249999I99998J0D01*
G01*
D10*
X172750000Y-99750000D02*
X163750000Y-99750000D01*
D11*
X224350001Y-106250000D02*
G75*
G02*
X224149999Y-106250000I-100001J0D01*
G01*
X224149999Y-106250000D02*
G75*
G02*
X224350001Y-106250000I100001J0D01*
G01*
X106850000Y-103250000D02*
G75*
G02*
X106650002Y-103250000I-99999J0D01*
G01*
X106650002Y-103250000D02*
G75*
G02*
X106850000Y-103250000I99999J0D01*
G01*
X99350001Y-109250000D02*
G75*
G02*
X99150001Y-109250000I-100000J0D01*
G01*
X99150001Y-109250000D02*
G75*
G02*
X99350001Y-109250000I100000J0D01*
G01*
X112850001Y-101750001D02*
G75*
G02*
X112649999Y-101750001I-100001J0D01*
G01*
X112649999Y-101750001D02*
G75*
G02*
X112850001Y-101750001I100001J0D01*
G01*
X121850001Y-113750000D02*
G75*
G02*
X121650001Y-113750000I-100000J0D01*
G01*
X121650001Y-113750000D02*
G75*
G02*
X121850001Y-113750000I100000J0D01*
G01*
X109850001Y-100250000D02*
G75*
G02*
X109650001Y-100250000I-100000J0D01*
G01*
X109650001Y-100250000D02*
G75*
G02*
X109850001Y-100250000I100000J0D01*
G01*
X207849999Y-110750000D02*
G75*
G02*
X207650001Y-110750000I-99999J0D01*
G01*
X207650001Y-110750000D02*
G75*
G02*
X207849999Y-110750000I99999J0D01*
G01*
X106850002Y-119750000D02*
G75*
G02*
X106650000Y-119750000I-100001J0D01*
G01*
X106650000Y-119750000D02*
G75*
G02*
X106850002Y-119750000I100001J0D01*
G01*
X112850001Y-124249999D02*
G75*
G02*
X112650003Y-124249999I-99999J0D01*
G01*
X112650003Y-124249999D02*
G75*
G02*
X112850001Y-124249999I99999J0D01*
G01*
X224350000Y-115250000D02*
G75*
G02*
X224150000Y-115250000I-100000J0D01*
G01*
X224150000Y-115250000D02*
G75*
G02*
X224350000Y-115250000I100000J0D01*
G01*
X120350001Y-110750000D02*
G75*
G02*
X120150001Y-110750000I-100000J0D01*
G01*
X120150001Y-110750000D02*
G75*
G02*
X120350001Y-110750000I100000J0D01*
G01*
X213850000Y-110750000D02*
G75*
G02*
X213650000Y-110750000I-100000J0D01*
G01*
X213650000Y-110750000D02*
G75*
G02*
X213850000Y-110750000I100000J0D01*
G01*
D10*
X178250000Y-114250000D02*
X194250000Y-114250000D01*
D11*
X210850000Y-100250000D02*
G75*
G02*
X210650000Y-100250000I-100000J0D01*
G01*
X210650000Y-100250000D02*
G75*
G02*
X210850000Y-100250000I100000J0D01*
G01*
X212350000Y-104750000D02*
G75*
G02*
X212150000Y-104750000I-100000J0D01*
G01*
X212150000Y-104750000D02*
G75*
G02*
X212350000Y-104750000I100000J0D01*
G01*
X219849998Y-107750000D02*
G75*
G02*
X219650000Y-107750000I-99999J0D01*
G01*
X219650000Y-107750000D02*
G75*
G02*
X219849998Y-107750000I99999J0D01*
G01*
X207850000Y-107750000D02*
G75*
G02*
X207650000Y-107750000I-100000J0D01*
G01*
X207650000Y-107750000D02*
G75*
G02*
X207850000Y-107750000I100000J0D01*
G01*
X118850001Y-110750000D02*
G75*
G02*
X118650001Y-110750000I-100000J0D01*
G01*
X118650001Y-110750000D02*
G75*
G02*
X118850001Y-110750000I100000J0D01*
G01*
X206350002Y-115250000D02*
G75*
G02*
X206150000Y-115250000I-100001J0D01*
G01*
X206150000Y-115250000D02*
G75*
G02*
X206350002Y-115250000I100001J0D01*
G01*
X204850000Y-119750000D02*
G75*
G02*
X204650000Y-119750000I-100000J0D01*
G01*
X204650000Y-119750000D02*
G75*
G02*
X204850000Y-119750000I100000J0D01*
G01*
X115850001Y-112250000D02*
G75*
G02*
X115650001Y-112250000I-100000J0D01*
G01*
X115650001Y-112250000D02*
G75*
G02*
X115850001Y-112250000I100000J0D01*
G01*
X111350001Y-104750000D02*
G75*
G02*
X111150001Y-104750000I-100000J0D01*
G01*
X111150001Y-104750000D02*
G75*
G02*
X111350001Y-104750000I100000J0D01*
G01*
X117350001Y-101750000D02*
G75*
G02*
X117150001Y-101750000I-100000J0D01*
G01*
X117150001Y-101750000D02*
G75*
G02*
X117350001Y-101750000I100000J0D01*
G01*
X111350002Y-124250000D02*
G75*
G02*
X111150000Y-124250000I-100001J0D01*
G01*
X111150000Y-124250000D02*
G75*
G02*
X111350002Y-124250000I100001J0D01*
G01*
X206350001Y-101750000D02*
G75*
G02*
X206149999Y-101750000I-100001J0D01*
G01*
X206149999Y-101750000D02*
G75*
G02*
X206350001Y-101750000I100001J0D01*
G01*
X207850000Y-103249999D02*
G75*
G02*
X207650000Y-103249999I-100000J0D01*
G01*
X207650000Y-103249999D02*
G75*
G02*
X207850000Y-103249999I100000J0D01*
G01*
X210850001Y-115250000D02*
G75*
G02*
X210649999Y-115250000I-100001J0D01*
G01*
X210649999Y-115250000D02*
G75*
G02*
X210850001Y-115250000I100001J0D01*
G01*
X99349999Y-103250000D02*
G75*
G02*
X99150001Y-103250000I-99999J0D01*
G01*
X99150001Y-103250000D02*
G75*
G02*
X99349999Y-103250000I99999J0D01*
G01*
X216850000Y-118250000D02*
G75*
G02*
X216650000Y-118250000I-100000J0D01*
G01*
X216650000Y-118250000D02*
G75*
G02*
X216850000Y-118250000I100000J0D01*
G01*
X200349998Y-101750000D02*
G75*
G02*
X200150000Y-101750000I-99999J0D01*
G01*
X200150000Y-101750000D02*
G75*
G02*
X200349998Y-101750000I99999J0D01*
G01*
X117350002Y-113750000D02*
G75*
G02*
X117150002Y-113750000I-100000J0D01*
G01*
X117150002Y-113750000D02*
G75*
G02*
X117350002Y-113750000I100000J0D01*
G01*
X114350001Y-112250000D02*
G75*
G02*
X114150001Y-112250000I-100000J0D01*
G01*
X114150001Y-112250000D02*
G75*
G02*
X114350001Y-112250000I100000J0D01*
G01*
X118850001Y-112250000D02*
G75*
G02*
X118650001Y-112250000I-100000J0D01*
G01*
X118650001Y-112250000D02*
G75*
G02*
X118850001Y-112250000I100000J0D01*
G01*
X111350002Y-101750001D02*
G75*
G02*
X111150000Y-101750001I-100001J0D01*
G01*
X111150000Y-101750001D02*
G75*
G02*
X111350002Y-101750001I100001J0D01*
G01*
X207850000Y-124250000D02*
G75*
G02*
X207650000Y-124250000I-100000J0D01*
G01*
X207650000Y-124250000D02*
G75*
G02*
X207850000Y-124250000I100000J0D01*
G01*
X206350002Y-122750000D02*
G75*
G02*
X206150000Y-122750000I-100001J0D01*
G01*
X206150000Y-122750000D02*
G75*
G02*
X206350002Y-122750000I100001J0D01*
G01*
X109850001Y-121250000D02*
G75*
G02*
X109650003Y-121250000I-99999J0D01*
G01*
X109650003Y-121250000D02*
G75*
G02*
X109850001Y-121250000I99999J0D01*
G01*
X207850000Y-113750000D02*
G75*
G02*
X207650000Y-113750000I-100000J0D01*
G01*
X207650000Y-113750000D02*
G75*
G02*
X207850000Y-113750000I100000J0D01*
G01*
X114350002Y-124250000D02*
G75*
G02*
X114150000Y-124250000I-100001J0D01*
G01*
X114150000Y-124250000D02*
G75*
G02*
X114350002Y-124250000I100001J0D01*
G01*
X114350002Y-119750001D02*
G75*
G02*
X114150000Y-119750001I-100001J0D01*
G01*
X114150000Y-119750001D02*
G75*
G02*
X114350002Y-119750001I100001J0D01*
G01*
X218350000Y-109250000D02*
G75*
G02*
X218150000Y-109250000I-100000J0D01*
G01*
X218150000Y-109250000D02*
G75*
G02*
X218350000Y-109250000I100000J0D01*
G01*
X216850000Y-103249999D02*
G75*
G02*
X216650000Y-103249999I-100000J0D01*
G01*
X216650000Y-103249999D02*
G75*
G02*
X216850000Y-103249999I100000J0D01*
G01*
X114350001Y-122750000D02*
G75*
G02*
X114150001Y-122750000I-100000J0D01*
G01*
X114150001Y-122750000D02*
G75*
G02*
X114350001Y-122750000I100000J0D01*
G01*
X106850001Y-100250000D02*
G75*
G02*
X106650001Y-100250000I-100000J0D01*
G01*
X106650001Y-100250000D02*
G75*
G02*
X106850001Y-100250000I100000J0D01*
G01*
X120350001Y-113750000D02*
G75*
G02*
X120150001Y-113750000I-100000J0D01*
G01*
X120150001Y-113750000D02*
G75*
G02*
X120350001Y-113750000I100000J0D01*
G01*
D10*
X194250000Y-110250000D02*
X178250000Y-110250000D01*
D11*
X115850000Y-113750000D02*
G75*
G02*
X115650000Y-113750000I-100000J0D01*
G01*
X115650000Y-113750000D02*
G75*
G02*
X115850000Y-113750000I100000J0D01*
G01*
X100850001Y-109250000D02*
G75*
G02*
X100650001Y-109250000I-100000J0D01*
G01*
X100650001Y-109250000D02*
G75*
G02*
X100850001Y-109250000I100000J0D01*
G01*
X210850000Y-107750000D02*
G75*
G02*
X210650000Y-107750000I-100000J0D01*
G01*
X210650000Y-107750000D02*
G75*
G02*
X210850000Y-107750000I100000J0D01*
G01*
X206349999Y-112250000D02*
G75*
G02*
X206150001Y-112250000I-99999J0D01*
G01*
X206150001Y-112250000D02*
G75*
G02*
X206349999Y-112250000I99999J0D01*
G01*
X99350001Y-100250000D02*
G75*
G02*
X99150001Y-100250000I-100000J0D01*
G01*
X99150001Y-100250000D02*
G75*
G02*
X99350001Y-100250000I100000J0D01*
G01*
X209350001Y-107750000D02*
G75*
G02*
X209149999Y-107750000I-100001J0D01*
G01*
X209149999Y-107750000D02*
G75*
G02*
X209350001Y-107750000I100001J0D01*
G01*
X118850001Y-107750000D02*
G75*
G02*
X118650001Y-107750000I-100000J0D01*
G01*
X118650001Y-107750000D02*
G75*
G02*
X118850001Y-107750000I100000J0D01*
G01*
X222849999Y-112250000D02*
G75*
G02*
X222650001Y-112250000I-99999J0D01*
G01*
X222650001Y-112250000D02*
G75*
G02*
X222849999Y-112250000I99999J0D01*
G01*
X222850000Y-122749999D02*
G75*
G02*
X222650000Y-122749999I-100000J0D01*
G01*
X222650000Y-122749999D02*
G75*
G02*
X222850000Y-122749999I100000J0D01*
G01*
X111350001Y-119750000D02*
G75*
G02*
X111150001Y-119750000I-100000J0D01*
G01*
X111150001Y-119750000D02*
G75*
G02*
X111350001Y-119750000I100000J0D01*
G01*
X120350001Y-116750000D02*
G75*
G02*
X120150001Y-116750000I-100000J0D01*
G01*
X120150001Y-116750000D02*
G75*
G02*
X120350001Y-116750000I100000J0D01*
G01*
X218350000Y-100250000D02*
G75*
G02*
X218150000Y-100250000I-100000J0D01*
G01*
X218150000Y-100250000D02*
G75*
G02*
X218350000Y-100250000I100000J0D01*
G01*
X224349998Y-121250000D02*
G75*
G02*
X224150000Y-121250000I-99999J0D01*
G01*
X224150000Y-121250000D02*
G75*
G02*
X224349998Y-121250000I99999J0D01*
G01*
X221350000Y-100250001D02*
G75*
G02*
X221150000Y-100250001I-100000J0D01*
G01*
X221150000Y-100250001D02*
G75*
G02*
X221350000Y-100250001I100000J0D01*
G01*
X216850000Y-115250000D02*
G75*
G02*
X216650000Y-115250000I-100000J0D01*
G01*
X216650000Y-115250000D02*
G75*
G02*
X216850000Y-115250000I100000J0D01*
G01*
X105350001Y-113750000D02*
G75*
G02*
X105150001Y-113750000I-100000J0D01*
G01*
X105150001Y-113750000D02*
G75*
G02*
X105350001Y-113750000I100000J0D01*
G01*
X105350000Y-118249999D02*
G75*
G02*
X105150002Y-118249999I-99999J0D01*
G01*
X105150002Y-118249999D02*
G75*
G02*
X105350000Y-118249999I99999J0D01*
G01*
X216850000Y-110750000D02*
G75*
G02*
X216650000Y-110750000I-100000J0D01*
G01*
X216650000Y-110750000D02*
G75*
G02*
X216850000Y-110750000I100000J0D01*
G01*
X108350001Y-119749999D02*
G75*
G02*
X108150001Y-119749999I-100000J0D01*
G01*
X108150001Y-119749999D02*
G75*
G02*
X108350001Y-119749999I100000J0D01*
G01*
X212349999Y-122750000D02*
G75*
G02*
X212150001Y-122750000I-99999J0D01*
G01*
X212150001Y-122750000D02*
G75*
G02*
X212349999Y-122750000I99999J0D01*
G01*
X224350000Y-107750000D02*
G75*
G02*
X224150000Y-107750000I-100000J0D01*
G01*
X224150000Y-107750000D02*
G75*
G02*
X224350000Y-107750000I100000J0D01*
G01*
X219850000Y-110750000D02*
G75*
G02*
X219650000Y-110750000I-100000J0D01*
G01*
X219650000Y-110750000D02*
G75*
G02*
X219850000Y-110750000I100000J0D01*
G01*
X109850003Y-115250001D02*
G75*
G02*
X109650001Y-115250001I-100001J0D01*
G01*
X109650001Y-115250001D02*
G75*
G02*
X109850003Y-115250001I100001J0D01*
G01*
X224349998Y-119750000D02*
G75*
G02*
X224150000Y-119750000I-99999J0D01*
G01*
X224150000Y-119750000D02*
G75*
G02*
X224349998Y-119750000I99999J0D01*
G01*
X121850002Y-109250000D02*
G75*
G02*
X121650002Y-109250000I-100000J0D01*
G01*
X121650002Y-109250000D02*
G75*
G02*
X121850002Y-109250000I100000J0D01*
G01*
X117350000Y-112250000D02*
G75*
G02*
X117150000Y-112250000I-100000J0D01*
G01*
X117150000Y-112250000D02*
G75*
G02*
X117350000Y-112250000I100000J0D01*
G01*
X204850001Y-121250000D02*
G75*
G02*
X204649999Y-121250000I-100001J0D01*
G01*
X204649999Y-121250000D02*
G75*
G02*
X204850001Y-121250000I100001J0D01*
G01*
X111350001Y-122750000D02*
G75*
G02*
X111150001Y-122750000I-100000J0D01*
G01*
X111150001Y-122750000D02*
G75*
G02*
X111350001Y-122750000I100000J0D01*
G01*
X207849999Y-101750000D02*
G75*
G02*
X207650001Y-101750000I-99999J0D01*
G01*
X207650001Y-101750000D02*
G75*
G02*
X207849999Y-101750000I99999J0D01*
G01*
X108350001Y-116750000D02*
G75*
G02*
X108150001Y-116750000I-100000J0D01*
G01*
X108150001Y-116750000D02*
G75*
G02*
X108350001Y-116750000I100000J0D01*
G01*
X108350001Y-118250000D02*
G75*
G02*
X108150001Y-118250000I-100000J0D01*
G01*
X108150001Y-118250000D02*
G75*
G02*
X108350001Y-118250000I100000J0D01*
G01*
X115850001Y-107750000D02*
G75*
G02*
X115650001Y-107750000I-100000J0D01*
G01*
X115650001Y-107750000D02*
G75*
G02*
X115850001Y-107750000I100000J0D01*
G01*
X203350000Y-101750000D02*
G75*
G02*
X203150000Y-101750000I-100000J0D01*
G01*
X203150000Y-101750000D02*
G75*
G02*
X203350000Y-101750000I100000J0D01*
G01*
X204850000Y-101750000D02*
G75*
G02*
X204650000Y-101750000I-100000J0D01*
G01*
X204650000Y-101750000D02*
G75*
G02*
X204850000Y-101750000I100000J0D01*
G01*
X224349998Y-101750000D02*
G75*
G02*
X224150000Y-101750000I-99999J0D01*
G01*
X224150000Y-101750000D02*
G75*
G02*
X224349998Y-101750000I99999J0D01*
G01*
X204850000Y-110750000D02*
G75*
G02*
X204650000Y-110750000I-100000J0D01*
G01*
X204650000Y-110750000D02*
G75*
G02*
X204850000Y-110750000I100000J0D01*
G01*
X115849999Y-122749999D02*
G75*
G02*
X115650001Y-122749999I-99999J0D01*
G01*
X115650001Y-122749999D02*
G75*
G02*
X115849999Y-122749999I99999J0D01*
G01*
X212350000Y-101750000D02*
G75*
G02*
X212150000Y-101750000I-100000J0D01*
G01*
X212150000Y-101750000D02*
G75*
G02*
X212350000Y-101750000I100000J0D01*
G01*
X100850000Y-122749999D02*
G75*
G02*
X100650002Y-122749999I-99999J0D01*
G01*
X100650002Y-122749999D02*
G75*
G02*
X100850000Y-122749999I99999J0D01*
G01*
X218350000Y-124250000D02*
G75*
G02*
X218150000Y-124250000I-100000J0D01*
G01*
X218150000Y-124250000D02*
G75*
G02*
X218350000Y-124250000I100000J0D01*
G01*
X218350000Y-106250000D02*
G75*
G02*
X218150000Y-106250000I-100000J0D01*
G01*
X218150000Y-106250000D02*
G75*
G02*
X218350000Y-106250000I100000J0D01*
G01*
X206350000Y-109250000D02*
G75*
G02*
X206150000Y-109250000I-100000J0D01*
G01*
X206150000Y-109250000D02*
G75*
G02*
X206350000Y-109250000I100000J0D01*
G01*
X218350000Y-118249999D02*
G75*
G02*
X218150000Y-118249999I-100000J0D01*
G01*
X218150000Y-118249999D02*
G75*
G02*
X218350000Y-118249999I100000J0D01*
G01*
X219850000Y-113750000D02*
G75*
G02*
X219650000Y-113750000I-100000J0D01*
G01*
X219650000Y-113750000D02*
G75*
G02*
X219850000Y-113750000I100000J0D01*
G01*
X118850000Y-104750000D02*
G75*
G02*
X118650002Y-104750000I-99999J0D01*
G01*
X118650002Y-104750000D02*
G75*
G02*
X118850000Y-104750000I99999J0D01*
G01*
X112850001Y-110750000D02*
G75*
G02*
X112650001Y-110750000I-100000J0D01*
G01*
X112650001Y-110750000D02*
G75*
G02*
X112850001Y-110750000I100000J0D01*
G01*
X218350000Y-113750000D02*
G75*
G02*
X218150000Y-113750000I-100000J0D01*
G01*
X218150000Y-113750000D02*
G75*
G02*
X218350000Y-113750000I100000J0D01*
G01*
X212350000Y-113750000D02*
G75*
G02*
X212150000Y-113750000I-100000J0D01*
G01*
X212150000Y-113750000D02*
G75*
G02*
X212350000Y-113750000I100000J0D01*
G01*
X201850000Y-104750000D02*
G75*
G02*
X201650000Y-104750000I-100000J0D01*
G01*
X201650000Y-104750000D02*
G75*
G02*
X201850000Y-104750000I100000J0D01*
G01*
X123350001Y-104750000D02*
G75*
G02*
X123150001Y-104750000I-100000J0D01*
G01*
X123150001Y-104750000D02*
G75*
G02*
X123350001Y-104750000I100000J0D01*
G01*
X112850001Y-113750000D02*
G75*
G02*
X112650001Y-113750000I-100000J0D01*
G01*
X112650001Y-113750000D02*
G75*
G02*
X112850001Y-113750000I100000J0D01*
G01*
D10*
X174750000Y-117750000D02*
X174750000Y-127750000D01*
D11*
X200350001Y-116750000D02*
G75*
G02*
X200149999Y-116750000I-100001J0D01*
G01*
X200149999Y-116750000D02*
G75*
G02*
X200350001Y-116750000I100001J0D01*
G01*
X219850000Y-122750000D02*
G75*
G02*
X219650000Y-122750000I-100000J0D01*
G01*
X219650000Y-122750000D02*
G75*
G02*
X219850000Y-122750000I100000J0D01*
G01*
X212350000Y-118250000D02*
G75*
G02*
X212150000Y-118250000I-100000J0D01*
G01*
X212150000Y-118250000D02*
G75*
G02*
X212350000Y-118250000I100000J0D01*
G01*
X121849998Y-107749999D02*
G75*
G02*
X121650004Y-107749999I-99997J0D01*
G01*
X121650004Y-107749999D02*
G75*
G02*
X121849998Y-107749999I99997J0D01*
G01*
X123350001Y-103250000D02*
G75*
G02*
X123150001Y-103250000I-100000J0D01*
G01*
X123150001Y-103250000D02*
G75*
G02*
X123350001Y-103250000I100000J0D01*
G01*
X100850001Y-112250000D02*
G75*
G02*
X100650003Y-112250000I-99999J0D01*
G01*
X100650003Y-112250000D02*
G75*
G02*
X100850001Y-112250000I99999J0D01*
G01*
X203350000Y-110750000D02*
G75*
G02*
X203150000Y-110750000I-100000J0D01*
G01*
X203150000Y-110750000D02*
G75*
G02*
X203350000Y-110750000I100000J0D01*
G01*
X215350000Y-115250000D02*
G75*
G02*
X215150000Y-115250000I-100000J0D01*
G01*
X215150000Y-115250000D02*
G75*
G02*
X215350000Y-115250000I100000J0D01*
G01*
X123350001Y-100250000D02*
G75*
G02*
X123150001Y-100250000I-100000J0D01*
G01*
X123150001Y-100250000D02*
G75*
G02*
X123350001Y-100250000I100000J0D01*
G01*
X204850002Y-116750000D02*
G75*
G02*
X204650000Y-116750000I-100001J0D01*
G01*
X204650000Y-116750000D02*
G75*
G02*
X204850002Y-116750000I100001J0D01*
G01*
X206349999Y-103250000D02*
G75*
G02*
X206150001Y-103250000I-99999J0D01*
G01*
X206150001Y-103250000D02*
G75*
G02*
X206349999Y-103250000I99999J0D01*
G01*
X224349998Y-103250000D02*
G75*
G02*
X224150000Y-103250000I-99999J0D01*
G01*
X224150000Y-103250000D02*
G75*
G02*
X224349998Y-103250000I99999J0D01*
G01*
X114350001Y-121250000D02*
G75*
G02*
X114150001Y-121250000I-100000J0D01*
G01*
X114150001Y-121250000D02*
G75*
G02*
X114350001Y-121250000I100000J0D01*
G01*
X221350000Y-122750000D02*
G75*
G02*
X221150000Y-122750000I-100000J0D01*
G01*
X221150000Y-122750000D02*
G75*
G02*
X221350000Y-122750000I100000J0D01*
G01*
X210850000Y-110750000D02*
G75*
G02*
X210650000Y-110750000I-100000J0D01*
G01*
X210650000Y-110750000D02*
G75*
G02*
X210850000Y-110750000I100000J0D01*
G01*
X203349998Y-116750000D02*
G75*
G02*
X203150000Y-116750000I-99999J0D01*
G01*
X203150000Y-116750000D02*
G75*
G02*
X203349998Y-116750000I99999J0D01*
G01*
X118850001Y-116750000D02*
G75*
G02*
X118650001Y-116750000I-100000J0D01*
G01*
X118650001Y-116750000D02*
G75*
G02*
X118850001Y-116750000I100000J0D01*
G01*
X212350000Y-110750000D02*
G75*
G02*
X212150000Y-110750000I-100000J0D01*
G01*
X212150000Y-110750000D02*
G75*
G02*
X212350000Y-110750000I100000J0D01*
G01*
D10*
X174750000Y-127750000D02*
G75*
G02*
X172750000Y-129750000I-2000000J0D01*
G01*
D11*
X108350000Y-113750000D02*
G75*
G02*
X108150000Y-113750000I-100000J0D01*
G01*
X108150000Y-113750000D02*
G75*
G02*
X108350000Y-113750000I100000J0D01*
G01*
X200349998Y-119750000D02*
G75*
G02*
X200150000Y-119750000I-99999J0D01*
G01*
X200150000Y-119750000D02*
G75*
G02*
X200349998Y-119750000I99999J0D01*
G01*
X209350000Y-101749999D02*
G75*
G02*
X209150000Y-101749999I-100000J0D01*
G01*
X209150000Y-101749999D02*
G75*
G02*
X209350000Y-101749999I100000J0D01*
G01*
X120350001Y-115250000D02*
G75*
G02*
X120150001Y-115250000I-100000J0D01*
G01*
X120150001Y-115250000D02*
G75*
G02*
X120350001Y-115250000I100000J0D01*
G01*
X117350001Y-118250000D02*
G75*
G02*
X117150001Y-118250000I-100000J0D01*
G01*
X117150001Y-118250000D02*
G75*
G02*
X117350001Y-118250000I100000J0D01*
G01*
X200350000Y-109250000D02*
G75*
G02*
X200150000Y-109250000I-100000J0D01*
G01*
X200150000Y-109250000D02*
G75*
G02*
X200350000Y-109250000I100000J0D01*
G01*
X215350000Y-107750000D02*
G75*
G02*
X215150000Y-107750000I-100000J0D01*
G01*
X215150000Y-107750000D02*
G75*
G02*
X215350000Y-107750000I100000J0D01*
G01*
X215350000Y-101750000D02*
G75*
G02*
X215150000Y-101750000I-100000J0D01*
G01*
X215150000Y-101750000D02*
G75*
G02*
X215350000Y-101750000I100000J0D01*
G01*
X219850000Y-103250000D02*
G75*
G02*
X219650000Y-103250000I-100000J0D01*
G01*
X219650000Y-103250000D02*
G75*
G02*
X219850000Y-103250000I100000J0D01*
G01*
X213850000Y-101750000D02*
G75*
G02*
X213650000Y-101750000I-100000J0D01*
G01*
X213650000Y-101750000D02*
G75*
G02*
X213850000Y-101750000I100000J0D01*
G01*
X215350000Y-124250000D02*
G75*
G02*
X215150000Y-124250000I-100000J0D01*
G01*
X215150000Y-124250000D02*
G75*
G02*
X215350000Y-124250000I100000J0D01*
G01*
X209350000Y-103250000D02*
G75*
G02*
X209150000Y-103250000I-100000J0D01*
G01*
X209150000Y-103250000D02*
G75*
G02*
X209350000Y-103250000I100000J0D01*
G01*
X200350001Y-106250000D02*
G75*
G02*
X200149999Y-106250000I-100001J0D01*
G01*
X200149999Y-106250000D02*
G75*
G02*
X200350001Y-106250000I100001J0D01*
G01*
X210850000Y-112250000D02*
G75*
G02*
X210650000Y-112250000I-100000J0D01*
G01*
X210650000Y-112250000D02*
G75*
G02*
X210850000Y-112250000I100000J0D01*
G01*
X103850000Y-100249999D02*
G75*
G02*
X103650002Y-100249999I-99999J0D01*
G01*
X103650002Y-100249999D02*
G75*
G02*
X103850000Y-100249999I99999J0D01*
G01*
X216850000Y-113750000D02*
G75*
G02*
X216650000Y-113750000I-100000J0D01*
G01*
X216650000Y-113750000D02*
G75*
G02*
X216850000Y-113750000I100000J0D01*
G01*
X112850001Y-121250000D02*
G75*
G02*
X112650001Y-121250000I-100000J0D01*
G01*
X112650001Y-121250000D02*
G75*
G02*
X112850001Y-121250000I100000J0D01*
G01*
X121850001Y-103250000D02*
G75*
G02*
X121650001Y-103250000I-100000J0D01*
G01*
X121650001Y-103250000D02*
G75*
G02*
X121850001Y-103250000I100000J0D01*
G01*
X115850002Y-106250001D02*
G75*
G02*
X115650000Y-106250001I-100001J0D01*
G01*
X115650000Y-106250001D02*
G75*
G02*
X115850002Y-106250001I100001J0D01*
G01*
X203350000Y-100250001D02*
G75*
G02*
X203150000Y-100250001I-100000J0D01*
G01*
X203150000Y-100250001D02*
G75*
G02*
X203350000Y-100250001I100000J0D01*
G01*
X120350000Y-100249999D02*
G75*
G02*
X120150002Y-100249999I-99999J0D01*
G01*
X120150002Y-100249999D02*
G75*
G02*
X120350000Y-100249999I99999J0D01*
G01*
D10*
X196250000Y-117249998D02*
X196250000Y-116250000D01*
D11*
X210850000Y-103250000D02*
G75*
G02*
X210650000Y-103250000I-100000J0D01*
G01*
X210650000Y-103250000D02*
G75*
G02*
X210850000Y-103250000I100000J0D01*
G01*
X204850002Y-107750000D02*
G75*
G02*
X204650000Y-107750000I-100001J0D01*
G01*
X204650000Y-107750000D02*
G75*
G02*
X204850002Y-107750000I100001J0D01*
G01*
X201850000Y-112250000D02*
G75*
G02*
X201650000Y-112250000I-100000J0D01*
G01*
X201650000Y-112250000D02*
G75*
G02*
X201850000Y-112250000I100000J0D01*
G01*
X221350000Y-109250000D02*
G75*
G02*
X221150000Y-109250000I-100000J0D01*
G01*
X221150000Y-109250000D02*
G75*
G02*
X221350000Y-109250000I100000J0D01*
G01*
X105350003Y-101750001D02*
G75*
G02*
X105150001Y-101750001I-100001J0D01*
G01*
X105150001Y-101750001D02*
G75*
G02*
X105350003Y-101750001I100001J0D01*
G01*
X213850000Y-122749999D02*
G75*
G02*
X213650000Y-122749999I-100000J0D01*
G01*
X213650000Y-122749999D02*
G75*
G02*
X213850000Y-122749999I100000J0D01*
G01*
X109850003Y-103250000D02*
G75*
G02*
X109650001Y-103250000I-100001J0D01*
G01*
X109650001Y-103250000D02*
G75*
G02*
X109850003Y-103250000I100001J0D01*
G01*
X213850000Y-124250001D02*
G75*
G02*
X213650000Y-124250001I-100000J0D01*
G01*
X213650000Y-124250001D02*
G75*
G02*
X213850000Y-124250001I100000J0D01*
G01*
X115850002Y-101750000D02*
G75*
G02*
X115650000Y-101750000I-100001J0D01*
G01*
X115650000Y-101750000D02*
G75*
G02*
X115850002Y-101750000I100001J0D01*
G01*
X200350000Y-113750000D02*
G75*
G02*
X200150000Y-113750000I-100000J0D01*
G01*
X200150000Y-113750000D02*
G75*
G02*
X200350000Y-113750000I100000J0D01*
G01*
X108350000Y-104749999D02*
G75*
G02*
X108150002Y-104749999I-99999J0D01*
G01*
X108150002Y-104749999D02*
G75*
G02*
X108350000Y-104749999I99999J0D01*
G01*
X221350000Y-121250000D02*
G75*
G02*
X221150000Y-121250000I-100000J0D01*
G01*
X221150000Y-121250000D02*
G75*
G02*
X221350000Y-121250000I100000J0D01*
G01*
X103849999Y-118249999D02*
G75*
G02*
X103650001Y-118249999I-99999J0D01*
G01*
X103650001Y-118249999D02*
G75*
G02*
X103849999Y-118249999I99999J0D01*
G01*
X213850000Y-100250000D02*
G75*
G02*
X213650000Y-100250000I-100000J0D01*
G01*
X213650000Y-100250000D02*
G75*
G02*
X213850000Y-100250000I100000J0D01*
G01*
X221350000Y-118250000D02*
G75*
G02*
X221150000Y-118250000I-100000J0D01*
G01*
X221150000Y-118250000D02*
G75*
G02*
X221350000Y-118250000I100000J0D01*
G01*
X108350002Y-101750000D02*
G75*
G02*
X108150000Y-101750000I-100001J0D01*
G01*
X108150000Y-101750000D02*
G75*
G02*
X108350002Y-101750000I100001J0D01*
G01*
X209350000Y-119750001D02*
G75*
G02*
X209150000Y-119750001I-100000J0D01*
G01*
X209150000Y-119750001D02*
G75*
G02*
X209350000Y-119750001I100000J0D01*
G01*
X215350000Y-121250000D02*
G75*
G02*
X215150000Y-121250000I-100000J0D01*
G01*
X215150000Y-121250000D02*
G75*
G02*
X215350000Y-121250000I100000J0D01*
G01*
X201850000Y-118249999D02*
G75*
G02*
X201650000Y-118249999I-100000J0D01*
G01*
X201650000Y-118249999D02*
G75*
G02*
X201850000Y-118249999I100000J0D01*
G01*
X102350001Y-104750000D02*
G75*
G02*
X102150001Y-104750000I-100000J0D01*
G01*
X102150001Y-104750000D02*
G75*
G02*
X102350001Y-104750000I100000J0D01*
G01*
D10*
X93750001Y-99750001D02*
X128750000Y-99750004D01*
D11*
X99350001Y-107750000D02*
G75*
G02*
X99150001Y-107750000I-100000J0D01*
G01*
X99150001Y-107750000D02*
G75*
G02*
X99350001Y-107750000I100000J0D01*
G01*
X213850000Y-119750000D02*
G75*
G02*
X213650000Y-119750000I-100000J0D01*
G01*
X213650000Y-119750000D02*
G75*
G02*
X213850000Y-119750000I100000J0D01*
G01*
D10*
X129250000Y-114250002D02*
X158250000Y-114250000D01*
D11*
X111349999Y-118249999D02*
G75*
G02*
X111150001Y-118249999I-99999J0D01*
G01*
X111150001Y-118249999D02*
G75*
G02*
X111349999Y-118249999I99999J0D01*
G01*
X207850000Y-109250000D02*
G75*
G02*
X207650000Y-109250000I-100000J0D01*
G01*
X207650000Y-109250000D02*
G75*
G02*
X207850000Y-109250000I100000J0D01*
G01*
X100850000Y-101750000D02*
G75*
G02*
X100650002Y-101750000I-99999J0D01*
G01*
X100650002Y-101750000D02*
G75*
G02*
X100850000Y-101750000I99999J0D01*
G01*
X215350000Y-100250000D02*
G75*
G02*
X215150000Y-100250000I-100000J0D01*
G01*
X215150000Y-100250000D02*
G75*
G02*
X215350000Y-100250000I100000J0D01*
G01*
X121850002Y-104750000D02*
G75*
G02*
X121650000Y-104750000I-100001J0D01*
G01*
X121650000Y-104750000D02*
G75*
G02*
X121850002Y-104750000I100001J0D01*
G01*
X112850000Y-122750000D02*
G75*
G02*
X112650002Y-122750000I-99999J0D01*
G01*
X112650002Y-122750000D02*
G75*
G02*
X112850000Y-122750000I99999J0D01*
G01*
X112850000Y-100249999D02*
G75*
G02*
X112650002Y-100249999I-99999J0D01*
G01*
X112650002Y-100249999D02*
G75*
G02*
X112850000Y-100249999I99999J0D01*
G01*
X204850000Y-100250000D02*
G75*
G02*
X204650002Y-100250000I-99999J0D01*
G01*
X204650002Y-100250000D02*
G75*
G02*
X204850000Y-100250000I99999J0D01*
G01*
X206349999Y-118250000D02*
G75*
G02*
X206150001Y-118250000I-99999J0D01*
G01*
X206150001Y-118250000D02*
G75*
G02*
X206349999Y-118250000I99999J0D01*
G01*
X203349998Y-107750000D02*
G75*
G02*
X203150000Y-107750000I-99999J0D01*
G01*
X203150000Y-107750000D02*
G75*
G02*
X203349998Y-107750000I99999J0D01*
G01*
X123350001Y-113750000D02*
G75*
G02*
X123150001Y-113750000I-100000J0D01*
G01*
X123150001Y-113750000D02*
G75*
G02*
X123350001Y-113750000I100000J0D01*
G01*
X111350001Y-121250000D02*
G75*
G02*
X111150001Y-121250000I-100000J0D01*
G01*
X111150001Y-121250000D02*
G75*
G02*
X111350001Y-121250000I100000J0D01*
G01*
X204850000Y-113750000D02*
G75*
G02*
X204650000Y-113750000I-100000J0D01*
G01*
X204650000Y-113750000D02*
G75*
G02*
X204850000Y-113750000I100000J0D01*
G01*
X209350000Y-124250000D02*
G75*
G02*
X209150000Y-124250000I-100000J0D01*
G01*
X209150000Y-124250000D02*
G75*
G02*
X209350000Y-124250000I100000J0D01*
G01*
X103850001Y-101750001D02*
G75*
G02*
X103649999Y-101750001I-100001J0D01*
G01*
X103649999Y-101750001D02*
G75*
G02*
X103850001Y-101750001I100001J0D01*
G01*
X201849999Y-107750000D02*
G75*
G02*
X201650001Y-107750000I-99999J0D01*
G01*
X201650001Y-107750000D02*
G75*
G02*
X201849999Y-107750000I99999J0D01*
G01*
X106850001Y-104750001D02*
G75*
G02*
X106649999Y-104750001I-100001J0D01*
G01*
X106649999Y-104750001D02*
G75*
G02*
X106850001Y-104750001I100001J0D01*
G01*
X117350001Y-107750000D02*
G75*
G02*
X117150001Y-107750000I-100000J0D01*
G01*
X117150001Y-107750000D02*
G75*
G02*
X117350001Y-107750000I100000J0D01*
G01*
X120350002Y-124250000D02*
G75*
G02*
X120150000Y-124250000I-100001J0D01*
G01*
X120150000Y-124250000D02*
G75*
G02*
X120350002Y-124250000I100001J0D01*
G01*
X200350002Y-112250000D02*
G75*
G02*
X200150000Y-112250000I-100001J0D01*
G01*
X200150000Y-112250000D02*
G75*
G02*
X200350002Y-112250000I100001J0D01*
G01*
X219849998Y-124250000D02*
G75*
G02*
X219650000Y-124250000I-99999J0D01*
G01*
X219650000Y-124250000D02*
G75*
G02*
X219849998Y-124250000I99999J0D01*
G01*
X212350000Y-121250000D02*
G75*
G02*
X212150000Y-121250000I-100000J0D01*
G01*
X212150000Y-121250000D02*
G75*
G02*
X212350000Y-121250000I100000J0D01*
G01*
X112850001Y-112250000D02*
G75*
G02*
X112650001Y-112250000I-100000J0D01*
G01*
X112650001Y-112250000D02*
G75*
G02*
X112850001Y-112250000I100000J0D01*
G01*
D10*
X172750000Y-99750000D02*
G75*
G02*
X174750000Y-101750000I0J-2000000D01*
G01*
D11*
X114350001Y-104750000D02*
G75*
G02*
X114150001Y-104750000I-100000J0D01*
G01*
X114150001Y-104750000D02*
G75*
G02*
X114350001Y-104750000I100000J0D01*
G01*
X120350001Y-119750000D02*
G75*
G02*
X120150001Y-119750000I-100000J0D01*
G01*
X120150001Y-119750000D02*
G75*
G02*
X120350001Y-119750000I100000J0D01*
G01*
X100850000Y-115250000D02*
G75*
G02*
X100650000Y-115250000I-100000J0D01*
G01*
X100650000Y-115250000D02*
G75*
G02*
X100850000Y-115250000I100000J0D01*
G01*
X100850001Y-103250000D02*
G75*
G02*
X100650003Y-103250000I-99999J0D01*
G01*
X100650003Y-103250000D02*
G75*
G02*
X100850001Y-103250000I99999J0D01*
G01*
X209350000Y-121250000D02*
G75*
G02*
X209150000Y-121250000I-100000J0D01*
G01*
X209150000Y-121250000D02*
G75*
G02*
X209350000Y-121250000I100000J0D01*
G01*
X115850001Y-116750000D02*
G75*
G02*
X115650001Y-116750000I-100000J0D01*
G01*
X115650001Y-116750000D02*
G75*
G02*
X115850001Y-116750000I100000J0D01*
G01*
X121849998Y-100249999D02*
G75*
G02*
X121650002Y-100249999I-99998J0D01*
G01*
X121650002Y-100249999D02*
G75*
G02*
X121849998Y-100249999I99998J0D01*
G01*
X206350001Y-110750000D02*
G75*
G02*
X206149999Y-110750000I-100001J0D01*
G01*
X206149999Y-110750000D02*
G75*
G02*
X206350001Y-110750000I100001J0D01*
G01*
X212350000Y-119750000D02*
G75*
G02*
X212150000Y-119750000I-100000J0D01*
G01*
X212150000Y-119750000D02*
G75*
G02*
X212350000Y-119750000I100000J0D01*
G01*
X222850000Y-103250000D02*
G75*
G02*
X222650000Y-103250000I-100000J0D01*
G01*
X222650000Y-103250000D02*
G75*
G02*
X222850000Y-103250000I100000J0D01*
G01*
X117350001Y-115250000D02*
G75*
G02*
X117149999Y-115250000I-100001J0D01*
G01*
X117149999Y-115250000D02*
G75*
G02*
X117350001Y-115250000I100001J0D01*
G01*
X102350000Y-107750000D02*
G75*
G02*
X102150002Y-107750000I-99999J0D01*
G01*
X102150002Y-107750000D02*
G75*
G02*
X102350000Y-107750000I99999J0D01*
G01*
X115850001Y-118250000D02*
G75*
G02*
X115650001Y-118250000I-100000J0D01*
G01*
X115650001Y-118250000D02*
G75*
G02*
X115850001Y-118250000I100000J0D01*
G01*
X218350002Y-110750000D02*
G75*
G02*
X218150000Y-110750000I-100001J0D01*
G01*
X218150000Y-110750000D02*
G75*
G02*
X218350002Y-110750000I100001J0D01*
G01*
X115850000Y-121249999D02*
G75*
G02*
X115650002Y-121249999I-99999J0D01*
G01*
X115650002Y-121249999D02*
G75*
G02*
X115850000Y-121249999I99999J0D01*
G01*
X219850000Y-121250000D02*
G75*
G02*
X219650000Y-121250000I-100000J0D01*
G01*
X219650000Y-121250000D02*
G75*
G02*
X219850000Y-121250000I100000J0D01*
G01*
X115850001Y-100250000D02*
G75*
G02*
X115650001Y-100250000I-100000J0D01*
G01*
X115650001Y-100250000D02*
G75*
G02*
X115850001Y-100250000I100000J0D01*
G01*
X120350001Y-122750000D02*
G75*
G02*
X120150001Y-122750000I-100000J0D01*
G01*
X120150001Y-122750000D02*
G75*
G02*
X120350001Y-122750000I100000J0D01*
G01*
X207850000Y-118250000D02*
G75*
G02*
X207650000Y-118250000I-100000J0D01*
G01*
X207650000Y-118250000D02*
G75*
G02*
X207850000Y-118250000I100000J0D01*
G01*
X224350000Y-122750000D02*
G75*
G02*
X224150000Y-122750000I-100000J0D01*
G01*
X224150000Y-122750000D02*
G75*
G02*
X224350000Y-122750000I100000J0D01*
G01*
X207850000Y-116750000D02*
G75*
G02*
X207650000Y-116750000I-100000J0D01*
G01*
X207650000Y-116750000D02*
G75*
G02*
X207850000Y-116750000I100000J0D01*
G01*
X216850000Y-107750000D02*
G75*
G02*
X216650000Y-107750000I-100000J0D01*
G01*
X216650000Y-107750000D02*
G75*
G02*
X216850000Y-107750000I100000J0D01*
G01*
X114350000Y-118249999D02*
G75*
G02*
X114150002Y-118249999I-99999J0D01*
G01*
X114150002Y-118249999D02*
G75*
G02*
X114350000Y-118249999I99999J0D01*
G01*
X221350000Y-124249999D02*
G75*
G02*
X221150000Y-124249999I-100000J0D01*
G01*
X221150000Y-124249999D02*
G75*
G02*
X221350000Y-124249999I100000J0D01*
G01*
X100850001Y-113750000D02*
G75*
G02*
X100650001Y-113750000I-100000J0D01*
G01*
X100650001Y-113750000D02*
G75*
G02*
X100850001Y-113750000I100000J0D01*
G01*
D10*
X158250000Y-110250000D02*
X129250000Y-110250002D01*
D11*
X111350000Y-107750000D02*
G75*
G02*
X111150002Y-107750000I-99999J0D01*
G01*
X111150002Y-107750000D02*
G75*
G02*
X111350000Y-107750000I99999J0D01*
G01*
X103850001Y-112250000D02*
G75*
G02*
X103650001Y-112250000I-100000J0D01*
G01*
X103650001Y-112250000D02*
G75*
G02*
X103850001Y-112250000I100000J0D01*
G01*
X111350000Y-106250000D02*
G75*
G02*
X111150002Y-106250000I-99999J0D01*
G01*
X111150002Y-106250000D02*
G75*
G02*
X111350000Y-106250000I99999J0D01*
G01*
X105350001Y-116750000D02*
G75*
G02*
X105150003Y-116750000I-99999J0D01*
G01*
X105150003Y-116750000D02*
G75*
G02*
X105350001Y-116750000I99999J0D01*
G01*
D10*
X161750000Y-117750000D02*
X161750000Y-127750001D01*
D11*
X209350000Y-113750000D02*
G75*
G02*
X209150000Y-113750000I-100000J0D01*
G01*
X209150000Y-113750000D02*
G75*
G02*
X209350000Y-113750000I100000J0D01*
G01*
X204850001Y-103250000D02*
G75*
G02*
X204649999Y-103250000I-100001J0D01*
G01*
X204649999Y-103250000D02*
G75*
G02*
X204850001Y-103250000I100001J0D01*
G01*
X212349999Y-115250000D02*
G75*
G02*
X212150001Y-115250000I-99999J0D01*
G01*
X212150001Y-115250000D02*
G75*
G02*
X212349999Y-115250000I99999J0D01*
G01*
X218350000Y-112250000D02*
G75*
G02*
X218150000Y-112250000I-100000J0D01*
G01*
X218150000Y-112250000D02*
G75*
G02*
X218350000Y-112250000I100000J0D01*
G01*
D10*
X161750000Y-106750000D02*
G75*
G02*
X158250000Y-110250000I-3500000J0D01*
G01*
D11*
X224349998Y-118249999D02*
G75*
G02*
X224150000Y-118249999I-99999J0D01*
G01*
X224150000Y-118249999D02*
G75*
G02*
X224349998Y-118249999I99999J0D01*
G01*
X203349999Y-115250000D02*
G75*
G02*
X203150001Y-115250000I-99999J0D01*
G01*
X203150001Y-115250000D02*
G75*
G02*
X203349999Y-115250000I99999J0D01*
G01*
X114350001Y-116750000D02*
G75*
G02*
X114150001Y-116750000I-100000J0D01*
G01*
X114150001Y-116750000D02*
G75*
G02*
X114350001Y-116750000I100000J0D01*
G01*
X103850000Y-116750000D02*
G75*
G02*
X103650000Y-116750000I-100000J0D01*
G01*
X103650000Y-116750000D02*
G75*
G02*
X103850000Y-116750000I100000J0D01*
G01*
X117350001Y-124250000D02*
G75*
G02*
X117149999Y-124250000I-100001J0D01*
G01*
X117149999Y-124250000D02*
G75*
G02*
X117350001Y-124250000I100001J0D01*
G01*
X103850001Y-113750000D02*
G75*
G02*
X103650001Y-113750000I-100000J0D01*
G01*
X103650001Y-113750000D02*
G75*
G02*
X103850001Y-113750000I100000J0D01*
G01*
X105350001Y-107750000D02*
G75*
G02*
X105150003Y-107750000I-99999J0D01*
G01*
X105150003Y-107750000D02*
G75*
G02*
X105350001Y-107750000I99999J0D01*
G01*
X224350000Y-124250000D02*
G75*
G02*
X224150000Y-124250000I-100000J0D01*
G01*
X224150000Y-124250000D02*
G75*
G02*
X224350000Y-124250000I100000J0D01*
G01*
X118850001Y-118250000D02*
G75*
G02*
X118650001Y-118250000I-100000J0D01*
G01*
X118650001Y-118250000D02*
G75*
G02*
X118850001Y-118250000I100000J0D01*
G01*
X215350001Y-110750000D02*
G75*
G02*
X215149999Y-110750000I-100001J0D01*
G01*
X215149999Y-110750000D02*
G75*
G02*
X215350001Y-110750000I100001J0D01*
G01*
X105350001Y-109250000D02*
G75*
G02*
X105150001Y-109250000I-100000J0D01*
G01*
X105150001Y-109250000D02*
G75*
G02*
X105350001Y-109250000I100000J0D01*
G01*
X203350000Y-103250000D02*
G75*
G02*
X203150000Y-103250000I-100000J0D01*
G01*
X203150000Y-103250000D02*
G75*
G02*
X203350000Y-103250000I100000J0D01*
G01*
D10*
X158250000Y-114250000D02*
G75*
G02*
X161750000Y-117750000I0J-3500000D01*
G01*
D11*
X204850000Y-118250000D02*
G75*
G02*
X204650000Y-118250000I-100000J0D01*
G01*
X204650000Y-118250000D02*
G75*
G02*
X204850000Y-118250000I100000J0D01*
G01*
X121850001Y-112250000D02*
G75*
G02*
X121650001Y-112250000I-100000J0D01*
G01*
X121650001Y-112250000D02*
G75*
G02*
X121850001Y-112250000I100000J0D01*
G01*
X224350000Y-100250000D02*
G75*
G02*
X224150000Y-100250000I-100000J0D01*
G01*
X224150000Y-100250000D02*
G75*
G02*
X224350000Y-100250000I100000J0D01*
G01*
X207849999Y-119749999D02*
G75*
G02*
X207650001Y-119749999I-99999J0D01*
G01*
X207650001Y-119749999D02*
G75*
G02*
X207849999Y-119749999I99999J0D01*
G01*
X102350001Y-115250000D02*
G75*
G02*
X102150001Y-115250000I-100000J0D01*
G01*
X102150001Y-115250000D02*
G75*
G02*
X102350001Y-115250000I100000J0D01*
G01*
X210850000Y-101750000D02*
G75*
G02*
X210650000Y-101750000I-100000J0D01*
G01*
X210650000Y-101750000D02*
G75*
G02*
X210850000Y-101750000I100000J0D01*
G01*
X212350000Y-109250000D02*
G75*
G02*
X212150000Y-109250000I-100000J0D01*
G01*
X212150000Y-109250000D02*
G75*
G02*
X212350000Y-109250000I100000J0D01*
G01*
X204850000Y-124250001D02*
G75*
G02*
X204650000Y-124250001I-100000J0D01*
G01*
X204650000Y-124250001D02*
G75*
G02*
X204850000Y-124250001I100000J0D01*
G01*
X209350000Y-104750000D02*
G75*
G02*
X209150000Y-104750000I-100000J0D01*
G01*
X209150000Y-104750000D02*
G75*
G02*
X209350000Y-104750000I100000J0D01*
G01*
X105350001Y-103250000D02*
G75*
G02*
X105150001Y-103250000I-100000J0D01*
G01*
X105150001Y-103250000D02*
G75*
G02*
X105350001Y-103250000I100000J0D01*
G01*
X121850000Y-110750000D02*
G75*
G02*
X121650000Y-110750000I-100000J0D01*
G01*
X121650000Y-110750000D02*
G75*
G02*
X121850000Y-110750000I100000J0D01*
G01*
X210850000Y-113750000D02*
G75*
G02*
X210650000Y-113750000I-100000J0D01*
G01*
X210650000Y-113750000D02*
G75*
G02*
X210850000Y-113750000I100000J0D01*
G01*
X99350001Y-124250000D02*
G75*
G02*
X99150001Y-124250000I-100000J0D01*
G01*
X99150001Y-124250000D02*
G75*
G02*
X99350001Y-124250000I100000J0D01*
G01*
X204850000Y-106250000D02*
G75*
G02*
X204649998Y-106250000I-100001J0D01*
G01*
X204649998Y-106250000D02*
G75*
G02*
X204850000Y-106250000I100001J0D01*
G01*
X115850002Y-119750000D02*
G75*
G02*
X115650000Y-119750000I-100001J0D01*
G01*
X115650000Y-119750000D02*
G75*
G02*
X115850002Y-119750000I100001J0D01*
G01*
X218350000Y-103250000D02*
G75*
G02*
X218150000Y-103250000I-100000J0D01*
G01*
X218150000Y-103250000D02*
G75*
G02*
X218350000Y-103250000I100000J0D01*
G01*
X215350000Y-103250000D02*
G75*
G02*
X215150000Y-103250000I-100000J0D01*
G01*
X215150000Y-103250000D02*
G75*
G02*
X215350000Y-103250000I100000J0D01*
G01*
X99350002Y-101750000D02*
G75*
G02*
X99150000Y-101750000I-100001J0D01*
G01*
X99150000Y-101750000D02*
G75*
G02*
X99350002Y-101750000I100001J0D01*
G01*
X215350000Y-122750000D02*
G75*
G02*
X215150000Y-122750000I-100000J0D01*
G01*
X215150000Y-122750000D02*
G75*
G02*
X215350000Y-122750000I100000J0D01*
G01*
X222850000Y-101750000D02*
G75*
G02*
X222650000Y-101750000I-100000J0D01*
G01*
X222650000Y-101750000D02*
G75*
G02*
X222850000Y-101750000I100000J0D01*
G01*
X102350001Y-116750000D02*
G75*
G02*
X102150001Y-116750000I-100000J0D01*
G01*
X102150001Y-116750000D02*
G75*
G02*
X102350001Y-116750000I100000J0D01*
G01*
X106850001Y-118250000D02*
G75*
G02*
X106650001Y-118250000I-100000J0D01*
G01*
X106650001Y-118250000D02*
G75*
G02*
X106850001Y-118250000I100000J0D01*
G01*
X99350000Y-112250000D02*
G75*
G02*
X99150000Y-112250000I-100000J0D01*
G01*
X99150000Y-112250000D02*
G75*
G02*
X99350000Y-112250000I100000J0D01*
G01*
X210850000Y-104750000D02*
G75*
G02*
X210650000Y-104750000I-100000J0D01*
G01*
X210650000Y-104750000D02*
G75*
G02*
X210850000Y-104750000I100000J0D01*
G01*
X115850001Y-104750001D02*
G75*
G02*
X115649999Y-104750001I-100001J0D01*
G01*
X115649999Y-104750001D02*
G75*
G02*
X115850001Y-104750001I100001J0D01*
G01*
X201850000Y-100250000D02*
G75*
G02*
X201650000Y-100250000I-100000J0D01*
G01*
X201650000Y-100250000D02*
G75*
G02*
X201850000Y-100250000I100000J0D01*
G01*
X222850000Y-100250000D02*
G75*
G02*
X222650000Y-100250000I-100000J0D01*
G01*
X222650000Y-100250000D02*
G75*
G02*
X222850000Y-100250000I100000J0D01*
G01*
X218350000Y-107750000D02*
G75*
G02*
X218150000Y-107750000I-100000J0D01*
G01*
X218150000Y-107750000D02*
G75*
G02*
X218350000Y-107750000I100000J0D01*
G01*
X111350001Y-116750000D02*
G75*
G02*
X111150001Y-116750000I-100000J0D01*
G01*
X111150001Y-116750000D02*
G75*
G02*
X111350001Y-116750000I100000J0D01*
G01*
X216850000Y-119749999D02*
G75*
G02*
X216650000Y-119749999I-100000J0D01*
G01*
X216650000Y-119749999D02*
G75*
G02*
X216850000Y-119749999I100000J0D01*
G01*
X102350001Y-103250000D02*
G75*
G02*
X102150001Y-103250000I-100000J0D01*
G01*
X102150001Y-103250000D02*
G75*
G02*
X102350001Y-103250000I100000J0D01*
G01*
X114350001Y-106250000D02*
G75*
G02*
X114150001Y-106250000I-100000J0D01*
G01*
X114150001Y-106250000D02*
G75*
G02*
X114350001Y-106250000I100000J0D01*
G01*
X216850000Y-104750001D02*
G75*
G02*
X216650000Y-104750001I-100000J0D01*
G01*
X216650000Y-104750001D02*
G75*
G02*
X216850000Y-104750001I100000J0D01*
G01*
X102350001Y-110750000D02*
G75*
G02*
X102150001Y-110750000I-100000J0D01*
G01*
X102150001Y-110750000D02*
G75*
G02*
X102350001Y-110750000I100000J0D01*
G01*
X209350000Y-100250000D02*
G75*
G02*
X209150000Y-100250000I-100000J0D01*
G01*
X209150000Y-100250000D02*
G75*
G02*
X209350000Y-100250000I100000J0D01*
G01*
X222850000Y-121250000D02*
G75*
G02*
X222650000Y-121250000I-100000J0D01*
G01*
X222650000Y-121250000D02*
G75*
G02*
X222850000Y-121250000I100000J0D01*
G01*
X123350002Y-119750000D02*
G75*
G02*
X123150002Y-119750000I-100000J0D01*
G01*
X123150002Y-119750000D02*
G75*
G02*
X123350002Y-119750000I100000J0D01*
G01*
X99350001Y-119749999D02*
G75*
G02*
X99150001Y-119749999I-100000J0D01*
G01*
X99150001Y-119749999D02*
G75*
G02*
X99350001Y-119749999I100000J0D01*
G01*
X216850000Y-109250000D02*
G75*
G02*
X216650000Y-109250000I-100000J0D01*
G01*
X216650000Y-109250000D02*
G75*
G02*
X216850000Y-109250000I100000J0D01*
G01*
X109850001Y-118250000D02*
G75*
G02*
X109650001Y-118250000I-100000J0D01*
G01*
X109650001Y-118250000D02*
G75*
G02*
X109850001Y-118250000I100000J0D01*
G01*
X105350000Y-106250000D02*
G75*
G02*
X105150002Y-106250000I-99999J0D01*
G01*
X105150002Y-106250000D02*
G75*
G02*
X105350000Y-106250000I99999J0D01*
G01*
X100850003Y-124250001D02*
G75*
G02*
X100650001Y-124250001I-100001J0D01*
G01*
X100650001Y-124250001D02*
G75*
G02*
X100850003Y-124250001I100001J0D01*
G01*
X118850001Y-101750000D02*
G75*
G02*
X118650001Y-101750000I-100000J0D01*
G01*
X118650001Y-101750000D02*
G75*
G02*
X118850001Y-101750000I100000J0D01*
G01*
X99350000Y-121249999D02*
G75*
G02*
X99150002Y-121249999I-99999J0D01*
G01*
X99150002Y-121249999D02*
G75*
G02*
X99350000Y-121249999I99999J0D01*
G01*
X203350000Y-109250000D02*
G75*
G02*
X203150000Y-109250000I-100000J0D01*
G01*
X203150000Y-109250000D02*
G75*
G02*
X203350000Y-109250000I100000J0D01*
G01*
X213850000Y-107750000D02*
G75*
G02*
X213650000Y-107750000I-100000J0D01*
G01*
X213650000Y-107750000D02*
G75*
G02*
X213850000Y-107750000I100000J0D01*
G01*
X219850000Y-109250000D02*
G75*
G02*
X219650000Y-109250000I-100000J0D01*
G01*
X219650000Y-109250000D02*
G75*
G02*
X219850000Y-109250000I100000J0D01*
G01*
X213850000Y-116750000D02*
G75*
G02*
X213650000Y-116750000I-100000J0D01*
G01*
X213650000Y-116750000D02*
G75*
G02*
X213850000Y-116750000I100000J0D01*
G01*
X215350000Y-104750000D02*
G75*
G02*
X215150000Y-104750000I-100000J0D01*
G01*
X215150000Y-104750000D02*
G75*
G02*
X215350000Y-104750000I100000J0D01*
G01*
X108350001Y-106250001D02*
G75*
G02*
X108149999Y-106250001I-100001J0D01*
G01*
X108149999Y-106250001D02*
G75*
G02*
X108350001Y-106250001I100001J0D01*
G01*
X221350000Y-104750000D02*
G75*
G02*
X221150000Y-104750000I-100000J0D01*
G01*
X221150000Y-104750000D02*
G75*
G02*
X221350000Y-104750000I100000J0D01*
G01*
X118850001Y-100250000D02*
G75*
G02*
X118650001Y-100250000I-100000J0D01*
G01*
X118650001Y-100250000D02*
G75*
G02*
X118850001Y-100250000I100000J0D01*
G01*
X123350001Y-106250000D02*
G75*
G02*
X123150001Y-106250000I-100000J0D01*
G01*
X123150001Y-106250000D02*
G75*
G02*
X123350001Y-106250000I100000J0D01*
G01*
X212350000Y-116750001D02*
G75*
G02*
X212150000Y-116750001I-100000J0D01*
G01*
X212150000Y-116750001D02*
G75*
G02*
X212350000Y-116750001I100000J0D01*
G01*
X213850001Y-112250000D02*
G75*
G02*
X213649999Y-112250000I-100001J0D01*
G01*
X213649999Y-112250000D02*
G75*
G02*
X213850001Y-112250000I100001J0D01*
G01*
X204850000Y-109250000D02*
G75*
G02*
X204650000Y-109250000I-100000J0D01*
G01*
X204650000Y-109250000D02*
G75*
G02*
X204850000Y-109250000I100000J0D01*
G01*
X123350000Y-121250000D02*
G75*
G02*
X123150002Y-121250000I-99999J0D01*
G01*
X123150002Y-121250000D02*
G75*
G02*
X123350000Y-121250000I99999J0D01*
G01*
X209350000Y-109250000D02*
G75*
G02*
X209150000Y-109250000I-100000J0D01*
G01*
X209150000Y-109250000D02*
G75*
G02*
X209350000Y-109250000I100000J0D01*
G01*
X206350000Y-113750000D02*
G75*
G02*
X206150000Y-113750000I-100000J0D01*
G01*
X206150000Y-113750000D02*
G75*
G02*
X206350000Y-113750000I100000J0D01*
G01*
X109850003Y-124250001D02*
G75*
G02*
X109650001Y-124250001I-100001J0D01*
G01*
X109650001Y-124250001D02*
G75*
G02*
X109850003Y-124250001I100001J0D01*
G01*
X215350000Y-119750000D02*
G75*
G02*
X215150000Y-119750000I-100000J0D01*
G01*
X215150000Y-119750000D02*
G75*
G02*
X215350000Y-119750000I100000J0D01*
G01*
X117350003Y-100250000D02*
G75*
G02*
X117149999Y-100250000I-100002J0D01*
G01*
X117149999Y-100250000D02*
G75*
G02*
X117350003Y-100250000I100002J0D01*
G01*
X106850001Y-109250000D02*
G75*
G02*
X106650001Y-109250000I-100000J0D01*
G01*
X106650001Y-109250000D02*
G75*
G02*
X106850001Y-109250000I100000J0D01*
G01*
X207850000Y-100250000D02*
G75*
G02*
X207650000Y-100250000I-100000J0D01*
G01*
X207650000Y-100250000D02*
G75*
G02*
X207850000Y-100250000I100000J0D01*
G01*
X102350001Y-112250000D02*
G75*
G02*
X102150001Y-112250000I-100000J0D01*
G01*
X102150001Y-112250000D02*
G75*
G02*
X102350001Y-112250000I100000J0D01*
G01*
X108350002Y-110750000D02*
G75*
G02*
X108150000Y-110750000I-100001J0D01*
G01*
X108150000Y-110750000D02*
G75*
G02*
X108350002Y-110750000I100001J0D01*
G01*
X222850000Y-110750000D02*
G75*
G02*
X222650000Y-110750000I-100000J0D01*
G01*
X222650000Y-110750000D02*
G75*
G02*
X222850000Y-110750000I100000J0D01*
G01*
X121850000Y-119750000D02*
G75*
G02*
X121650000Y-119750000I-100000J0D01*
G01*
X121650000Y-119750000D02*
G75*
G02*
X121850000Y-119750000I100000J0D01*
G01*
X216850000Y-100250000D02*
G75*
G02*
X216650000Y-100250000I-100000J0D01*
G01*
X216650000Y-100250000D02*
G75*
G02*
X216850000Y-100250000I100000J0D01*
G01*
X103850001Y-103250000D02*
G75*
G02*
X103650001Y-103250000I-100000J0D01*
G01*
X103650001Y-103250000D02*
G75*
G02*
X103850001Y-103250000I100000J0D01*
G01*
X209350000Y-115250000D02*
G75*
G02*
X209150000Y-115250000I-100000J0D01*
G01*
X209150000Y-115250000D02*
G75*
G02*
X209350000Y-115250000I100000J0D01*
G01*
X200349998Y-110750000D02*
G75*
G02*
X200150000Y-110750000I-99999J0D01*
G01*
X200150000Y-110750000D02*
G75*
G02*
X200349998Y-110750000I99999J0D01*
G01*
X106849999Y-122749999D02*
G75*
G02*
X106650001Y-122749999I-99999J0D01*
G01*
X106650001Y-122749999D02*
G75*
G02*
X106849999Y-122749999I99999J0D01*
G01*
X221350002Y-116750000D02*
G75*
G02*
X221150000Y-116750000I-100001J0D01*
G01*
X221150000Y-116750000D02*
G75*
G02*
X221350002Y-116750000I100001J0D01*
G01*
X112850002Y-104750000D02*
G75*
G02*
X112650000Y-104750000I-100001J0D01*
G01*
X112650000Y-104750000D02*
G75*
G02*
X112850002Y-104750000I100001J0D01*
G01*
X106850001Y-115250000D02*
G75*
G02*
X106650001Y-115250000I-100000J0D01*
G01*
X106650001Y-115250000D02*
G75*
G02*
X106850001Y-115250000I100000J0D01*
G01*
X100850003Y-106250001D02*
G75*
G02*
X100650001Y-106250001I-100001J0D01*
G01*
X100650001Y-106250001D02*
G75*
G02*
X100850003Y-106250001I100001J0D01*
G01*
X121850002Y-118250000D02*
G75*
G02*
X121650002Y-118250000I-100000J0D01*
G01*
X121650002Y-118250000D02*
G75*
G02*
X121850002Y-118250000I100000J0D01*
G01*
X120350001Y-104750000D02*
G75*
G02*
X120150001Y-104750000I-100000J0D01*
G01*
X120150001Y-104750000D02*
G75*
G02*
X120350001Y-104750000I100000J0D01*
G01*
X118850001Y-113750000D02*
G75*
G02*
X118650001Y-113750000I-100000J0D01*
G01*
X118650001Y-113750000D02*
G75*
G02*
X118850001Y-113750000I100000J0D01*
G01*
X206349999Y-121250000D02*
G75*
G02*
X206150001Y-121250000I-99999J0D01*
G01*
X206150001Y-121250000D02*
G75*
G02*
X206349999Y-121250000I99999J0D01*
G01*
X105350003Y-124250000D02*
G75*
G02*
X105150001Y-124250000I-100001J0D01*
G01*
X105150001Y-124250000D02*
G75*
G02*
X105350003Y-124250000I100001J0D01*
G01*
X106850000Y-121249999D02*
G75*
G02*
X106650002Y-121249999I-99999J0D01*
G01*
X106650002Y-121249999D02*
G75*
G02*
X106850000Y-121249999I99999J0D01*
G01*
X121850003Y-101750001D02*
G75*
G02*
X121650001Y-101750001I-100001J0D01*
G01*
X121650001Y-101750001D02*
G75*
G02*
X121850003Y-101750001I100001J0D01*
G01*
X103850000Y-109250000D02*
G75*
G02*
X103650000Y-109250000I-100000J0D01*
G01*
X103650000Y-109250000D02*
G75*
G02*
X103850000Y-109250000I100000J0D01*
G01*
X224350000Y-113750000D02*
G75*
G02*
X224150000Y-113750000I-100000J0D01*
G01*
X224150000Y-113750000D02*
G75*
G02*
X224350000Y-113750000I100000J0D01*
G01*
X219849998Y-116750000D02*
G75*
G02*
X219650000Y-116750000I-99999J0D01*
G01*
X219650000Y-116750000D02*
G75*
G02*
X219849998Y-116750000I99999J0D01*
G01*
X121850002Y-106250000D02*
G75*
G02*
X121650000Y-106250000I-100001J0D01*
G01*
X121650000Y-106250000D02*
G75*
G02*
X121850002Y-106250000I100001J0D01*
G01*
D10*
X174750000Y-117750000D02*
G75*
G02*
X178250000Y-114250000I3500000J0D01*
G01*
D11*
X207850000Y-104750001D02*
G75*
G02*
X207650000Y-104750001I-100000J0D01*
G01*
X207650000Y-104750001D02*
G75*
G02*
X207850000Y-104750001I100000J0D01*
G01*
X100850001Y-110750000D02*
G75*
G02*
X100650001Y-110750000I-100000J0D01*
G01*
X100650001Y-110750000D02*
G75*
G02*
X100850001Y-110750000I100000J0D01*
G01*
X218350000Y-116750000D02*
G75*
G02*
X218150000Y-116750000I-100000J0D01*
G01*
X218150000Y-116750000D02*
G75*
G02*
X218350000Y-116750000I100000J0D01*
G01*
X103850001Y-121250000D02*
G75*
G02*
X103650001Y-121250000I-100000J0D01*
G01*
X103650001Y-121250000D02*
G75*
G02*
X103850001Y-121250000I100000J0D01*
G01*
X201849999Y-122750000D02*
G75*
G02*
X201650001Y-122750000I-99999J0D01*
G01*
X201650001Y-122750000D02*
G75*
G02*
X201849999Y-122750000I99999J0D01*
G01*
X121850001Y-124249999D02*
G75*
G02*
X121650003Y-124249999I-99999J0D01*
G01*
X121650003Y-124249999D02*
G75*
G02*
X121850001Y-124249999I99999J0D01*
G01*
X210850000Y-106250000D02*
G75*
G02*
X210650000Y-106250000I-100000J0D01*
G01*
X210650000Y-106250000D02*
G75*
G02*
X210850000Y-106250000I100000J0D01*
G01*
X118850002Y-106250000D02*
G75*
G02*
X118650002Y-106250000I-100000J0D01*
G01*
X118650002Y-106250000D02*
G75*
G02*
X118850002Y-106250000I100000J0D01*
G01*
X120350001Y-121250000D02*
G75*
G02*
X120150001Y-121250000I-100000J0D01*
G01*
X120150001Y-121250000D02*
G75*
G02*
X120350001Y-121250000I100000J0D01*
G01*
X100850001Y-119749999D02*
G75*
G02*
X100650001Y-119749999I-100000J0D01*
G01*
X100650001Y-119749999D02*
G75*
G02*
X100850001Y-119749999I100000J0D01*
G01*
X209350001Y-116750000D02*
G75*
G02*
X209149999Y-116750000I-100001J0D01*
G01*
X209149999Y-116750000D02*
G75*
G02*
X209350001Y-116750000I100001J0D01*
G01*
X117350001Y-110750000D02*
G75*
G02*
X117150001Y-110750000I-100000J0D01*
G01*
X117150001Y-110750000D02*
G75*
G02*
X117350001Y-110750000I100000J0D01*
G01*
X206350000Y-107750000D02*
G75*
G02*
X206150000Y-107750000I-100000J0D01*
G01*
X206150000Y-107750000D02*
G75*
G02*
X206350000Y-107750000I100000J0D01*
G01*
X117350001Y-121249999D02*
G75*
G02*
X117149999Y-121249999I-100001J0D01*
G01*
X117149999Y-121249999D02*
G75*
G02*
X117350001Y-121249999I100001J0D01*
G01*
X109850000Y-122749999D02*
G75*
G02*
X109650002Y-122749999I-99999J0D01*
G01*
X109650002Y-122749999D02*
G75*
G02*
X109850000Y-122749999I99999J0D01*
G01*
X204850000Y-104750000D02*
G75*
G02*
X204650000Y-104750000I-100000J0D01*
G01*
X204650000Y-104750000D02*
G75*
G02*
X204850000Y-104750000I100000J0D01*
G01*
X106850000Y-113750000D02*
G75*
G02*
X106650000Y-113750000I-100000J0D01*
G01*
X106650000Y-113750000D02*
G75*
G02*
X106850000Y-113750000I100000J0D01*
G01*
X115850001Y-124250000D02*
G75*
G02*
X115650001Y-124250000I-100000J0D01*
G01*
X115650001Y-124250000D02*
G75*
G02*
X115850001Y-124250000I100000J0D01*
G01*
X204850001Y-112250000D02*
G75*
G02*
X204649999Y-112250000I-100001J0D01*
G01*
X204649999Y-112250000D02*
G75*
G02*
X204850001Y-112250000I100001J0D01*
G01*
X103849999Y-107750000D02*
G75*
G02*
X103650001Y-107750000I-99999J0D01*
G01*
X103650001Y-107750000D02*
G75*
G02*
X103849999Y-107750000I99999J0D01*
G01*
X219850000Y-119750000D02*
G75*
G02*
X219650000Y-119750000I-100000J0D01*
G01*
X219650000Y-119750000D02*
G75*
G02*
X219850000Y-119750000I100000J0D01*
G01*
X114350001Y-103250000D02*
G75*
G02*
X114150001Y-103250000I-100000J0D01*
G01*
X114150001Y-103250000D02*
G75*
G02*
X114350001Y-103250000I100000J0D01*
G01*
X209349998Y-110750000D02*
G75*
G02*
X209150000Y-110750000I-99999J0D01*
G01*
X209150000Y-110750000D02*
G75*
G02*
X209349998Y-110750000I99999J0D01*
G01*
X99350001Y-110750000D02*
G75*
G02*
X99150001Y-110750000I-100000J0D01*
G01*
X99150001Y-110750000D02*
G75*
G02*
X99350001Y-110750000I100000J0D01*
G01*
X204849998Y-115250000D02*
G75*
G02*
X204650000Y-115250000I-99999J0D01*
G01*
X204650000Y-115250000D02*
G75*
G02*
X204849998Y-115250000I99999J0D01*
G01*
X109850001Y-116750000D02*
G75*
G02*
X109650001Y-116750000I-100000J0D01*
G01*
X109650001Y-116750000D02*
G75*
G02*
X109850001Y-116750000I100000J0D01*
G01*
X201850002Y-110750000D02*
G75*
G02*
X201650000Y-110750000I-100001J0D01*
G01*
X201650000Y-110750000D02*
G75*
G02*
X201850002Y-110750000I100001J0D01*
G01*
D10*
X161750000Y-101750000D02*
G75*
G02*
X163750000Y-99750000I2000000J0D01*
G01*
D11*
X224350000Y-116750000D02*
G75*
G02*
X224150000Y-116750000I-100000J0D01*
G01*
X224150000Y-116750000D02*
G75*
G02*
X224350000Y-116750000I100000J0D01*
G01*
X212350000Y-112250000D02*
G75*
G02*
X212150000Y-112250000I-100000J0D01*
G01*
X212150000Y-112250000D02*
G75*
G02*
X212350000Y-112250000I100000J0D01*
G01*
X112850002Y-106250000D02*
G75*
G02*
X112650000Y-106250000I-100001J0D01*
G01*
X112650000Y-106250000D02*
G75*
G02*
X112850002Y-106250000I100001J0D01*
G01*
X106850002Y-106250001D02*
G75*
G02*
X106650000Y-106250001I-100001J0D01*
G01*
X106650000Y-106250001D02*
G75*
G02*
X106850002Y-106250001I100001J0D01*
G01*
X109850001Y-110750000D02*
G75*
G02*
X109650001Y-110750000I-100000J0D01*
G01*
X109650001Y-110750000D02*
G75*
G02*
X109850001Y-110750000I100000J0D01*
G01*
X105350001Y-121250000D02*
G75*
G02*
X105150001Y-121250000I-100000J0D01*
G01*
X105150001Y-121250000D02*
G75*
G02*
X105350001Y-121250000I100000J0D01*
G01*
X103850001Y-122750000D02*
G75*
G02*
X103650001Y-122750000I-100000J0D01*
G01*
X103650001Y-122750000D02*
G75*
G02*
X103850001Y-122750000I100000J0D01*
G01*
X120350002Y-106250000D02*
G75*
G02*
X120150000Y-106250000I-100001J0D01*
G01*
X120150000Y-106250000D02*
G75*
G02*
X120350002Y-106250000I100001J0D01*
G01*
X207849999Y-106250000D02*
G75*
G02*
X207650001Y-106250000I-99999J0D01*
G01*
X207650001Y-106250000D02*
G75*
G02*
X207849999Y-106250000I99999J0D01*
G01*
X206350000Y-104750000D02*
G75*
G02*
X206150000Y-104750000I-100000J0D01*
G01*
X206150000Y-104750000D02*
G75*
G02*
X206350000Y-104750000I100000J0D01*
G01*
X221350000Y-119750000D02*
G75*
G02*
X221150000Y-119750000I-100000J0D01*
G01*
X221150000Y-119750000D02*
G75*
G02*
X221350000Y-119750000I100000J0D01*
G01*
X213850000Y-109250000D02*
G75*
G02*
X213650000Y-109250000I-100000J0D01*
G01*
X213650000Y-109250000D02*
G75*
G02*
X213850000Y-109250000I100000J0D01*
G01*
X123350001Y-109250000D02*
G75*
G02*
X123150001Y-109250000I-100000J0D01*
G01*
X123150001Y-109250000D02*
G75*
G02*
X123350001Y-109250000I100000J0D01*
G01*
X219850000Y-115250000D02*
G75*
G02*
X219650000Y-115250000I-100000J0D01*
G01*
X219650000Y-115250000D02*
G75*
G02*
X219850000Y-115250000I100000J0D01*
G01*
X112850002Y-115250000D02*
G75*
G02*
X112650000Y-115250000I-100001J0D01*
G01*
X112650000Y-115250000D02*
G75*
G02*
X112850002Y-115250000I100001J0D01*
G01*
X102350001Y-121250000D02*
G75*
G02*
X102150001Y-121250000I-100000J0D01*
G01*
X102150001Y-121250000D02*
G75*
G02*
X102350001Y-121250000I100000J0D01*
G01*
X102350002Y-101750001D02*
G75*
G02*
X102150000Y-101750001I-100001J0D01*
G01*
X102150000Y-101750001D02*
G75*
G02*
X102350002Y-101750001I100001J0D01*
G01*
X111350001Y-100250001D02*
G75*
G02*
X111149999Y-100250001I-100001J0D01*
G01*
X111149999Y-100250001D02*
G75*
G02*
X111350001Y-100250001I100001J0D01*
G01*
X109850001Y-107750000D02*
G75*
G02*
X109650001Y-107750000I-100000J0D01*
G01*
X109650001Y-107750000D02*
G75*
G02*
X109850001Y-107750000I100000J0D01*
G01*
X117350002Y-103249999D02*
G75*
G02*
X117150000Y-103249999I-100001J0D01*
G01*
X117150000Y-103249999D02*
G75*
G02*
X117350002Y-103249999I100001J0D01*
G01*
X222850000Y-104750000D02*
G75*
G02*
X222650000Y-104750000I-100000J0D01*
G01*
X222650000Y-104750000D02*
G75*
G02*
X222850000Y-104750000I100000J0D01*
G01*
X108350001Y-122750000D02*
G75*
G02*
X108150001Y-122750000I-100000J0D01*
G01*
X108150001Y-122750000D02*
G75*
G02*
X108350001Y-122750000I100000J0D01*
G01*
X121850001Y-121250000D02*
G75*
G02*
X121650001Y-121250000I-100000J0D01*
G01*
X121650001Y-121250000D02*
G75*
G02*
X121850001Y-121250000I100000J0D01*
G01*
X112849999Y-107750000D02*
G75*
G02*
X112650001Y-107750000I-99999J0D01*
G01*
X112650001Y-107750000D02*
G75*
G02*
X112849999Y-107750000I99999J0D01*
G01*
X201850000Y-109250000D02*
G75*
G02*
X201650000Y-109250000I-100000J0D01*
G01*
X201650000Y-109250000D02*
G75*
G02*
X201850000Y-109250000I100000J0D01*
G01*
X210850000Y-118250000D02*
G75*
G02*
X210650000Y-118250000I-100000J0D01*
G01*
X210650000Y-118250000D02*
G75*
G02*
X210850000Y-118250000I100000J0D01*
G01*
X120350000Y-107750000D02*
G75*
G02*
X120150002Y-107750000I-99999J0D01*
G01*
X120150002Y-107750000D02*
G75*
G02*
X120350000Y-107750000I99999J0D01*
G01*
X216850000Y-124250000D02*
G75*
G02*
X216650000Y-124250000I-100000J0D01*
G01*
X216650000Y-124250000D02*
G75*
G02*
X216850000Y-124250000I100000J0D01*
G01*
X218350000Y-121250000D02*
G75*
G02*
X218150000Y-121250000I-100000J0D01*
G01*
X218150000Y-121250000D02*
G75*
G02*
X218350000Y-121250000I100000J0D01*
G01*
X222850000Y-107750000D02*
G75*
G02*
X222650000Y-107750000I-100000J0D01*
G01*
X222650000Y-107750000D02*
G75*
G02*
X222850000Y-107750000I100000J0D01*
G01*
X222850000Y-109250000D02*
G75*
G02*
X222650000Y-109250000I-100000J0D01*
G01*
X222650000Y-109250000D02*
G75*
G02*
X222850000Y-109250000I100000J0D01*
G01*
X118850001Y-121250000D02*
G75*
G02*
X118650001Y-121250000I-100000J0D01*
G01*
X118650001Y-121250000D02*
G75*
G02*
X118850001Y-121250000I100000J0D01*
G01*
X100850001Y-107750000D02*
G75*
G02*
X100650001Y-107750000I-100000J0D01*
G01*
X100650001Y-107750000D02*
G75*
G02*
X100850001Y-107750000I100000J0D01*
G01*
X120350002Y-101750001D02*
G75*
G02*
X120150000Y-101750001I-100001J0D01*
G01*
X120150000Y-101750001D02*
G75*
G02*
X120350002Y-101750001I100001J0D01*
G01*
X206350000Y-116750000D02*
G75*
G02*
X206150000Y-116750000I-100000J0D01*
G01*
X206150000Y-116750000D02*
G75*
G02*
X206350000Y-116750000I100000J0D01*
G01*
X112850001Y-103250000D02*
G75*
G02*
X112650001Y-103250000I-100000J0D01*
G01*
X112650001Y-103250000D02*
G75*
G02*
X112850001Y-103250000I100000J0D01*
G01*
X213850000Y-115250001D02*
G75*
G02*
X213650000Y-115250001I-100000J0D01*
G01*
X213650000Y-115250001D02*
G75*
G02*
X213850000Y-115250001I100000J0D01*
G01*
X200350002Y-118249999D02*
G75*
G02*
X200150000Y-118249999I-100001J0D01*
G01*
X200150000Y-118249999D02*
G75*
G02*
X200350002Y-118249999I100001J0D01*
G01*
X123350000Y-112250000D02*
G75*
G02*
X123150002Y-112250000I-99999J0D01*
G01*
X123150002Y-112250000D02*
G75*
G02*
X123350000Y-112250000I99999J0D01*
G01*
X209350000Y-106250000D02*
G75*
G02*
X209150000Y-106250000I-100000J0D01*
G01*
X209150000Y-106250000D02*
G75*
G02*
X209350000Y-106250000I100000J0D01*
G01*
X117350001Y-109250000D02*
G75*
G02*
X117150001Y-109250000I-100000J0D01*
G01*
X117150001Y-109250000D02*
G75*
G02*
X117350001Y-109250000I100000J0D01*
G01*
X112850000Y-109249999D02*
G75*
G02*
X112650002Y-109249999I-99999J0D01*
G01*
X112650002Y-109249999D02*
G75*
G02*
X112850000Y-109249999I99999J0D01*
G01*
X206350000Y-106250000D02*
G75*
G02*
X206150002Y-106250000I-99999J0D01*
G01*
X206150002Y-106250000D02*
G75*
G02*
X206350000Y-106250000I99999J0D01*
G01*
X103850002Y-106250000D02*
G75*
G02*
X103650000Y-106250000I-100001J0D01*
G01*
X103650000Y-106250000D02*
G75*
G02*
X103850002Y-106250000I100001J0D01*
G01*
X120349999Y-118249999D02*
G75*
G02*
X120150001Y-118249999I-99999J0D01*
G01*
X120150001Y-118249999D02*
G75*
G02*
X120349999Y-118249999I99999J0D01*
G01*
X222850000Y-124250001D02*
G75*
G02*
X222650000Y-124250001I-100000J0D01*
G01*
X222650000Y-124250001D02*
G75*
G02*
X222850000Y-124250001I100000J0D01*
G01*
X213850000Y-121250000D02*
G75*
G02*
X213650000Y-121250000I-100000J0D01*
G01*
X213650000Y-121250000D02*
G75*
G02*
X213850000Y-121250000I100000J0D01*
G01*
X102350001Y-100250001D02*
G75*
G02*
X102149999Y-100250001I-100001J0D01*
G01*
X102149999Y-100250001D02*
G75*
G02*
X102350001Y-100250001I100001J0D01*
G01*
X210850000Y-116750000D02*
G75*
G02*
X210650000Y-116750000I-100000J0D01*
G01*
X210650000Y-116750000D02*
G75*
G02*
X210850000Y-116750000I100000J0D01*
G01*
X121850000Y-122750000D02*
G75*
G02*
X121650002Y-122750000I-99999J0D01*
G01*
X121650002Y-122750000D02*
G75*
G02*
X121850000Y-122750000I99999J0D01*
G01*
X118850001Y-109250000D02*
G75*
G02*
X118650001Y-109250000I-100000J0D01*
G01*
X118650001Y-109250000D02*
G75*
G02*
X118850001Y-109250000I100000J0D01*
G01*
X222850000Y-106250000D02*
G75*
G02*
X222650002Y-106250000I-99999J0D01*
G01*
X222650002Y-106250000D02*
G75*
G02*
X222850000Y-106250000I99999J0D01*
G01*
X216850000Y-101750000D02*
G75*
G02*
X216650000Y-101750000I-100000J0D01*
G01*
X216650000Y-101750000D02*
G75*
G02*
X216850000Y-101750000I100000J0D01*
G01*
X120350001Y-112250000D02*
G75*
G02*
X120150001Y-112250000I-100000J0D01*
G01*
X120150001Y-112250000D02*
G75*
G02*
X120350001Y-112250000I100000J0D01*
G01*
X201850000Y-106250000D02*
G75*
G02*
X201650000Y-106250000I-100000J0D01*
G01*
X201650000Y-106250000D02*
G75*
G02*
X201850000Y-106250000I100000J0D01*
G01*
X105350000Y-110750000D02*
G75*
G02*
X105150000Y-110750000I-100000J0D01*
G01*
X105150000Y-110750000D02*
G75*
G02*
X105350000Y-110750000I100000J0D01*
G01*
X100850001Y-118250000D02*
G75*
G02*
X100650001Y-118250000I-100000J0D01*
G01*
X100650001Y-118250000D02*
G75*
G02*
X100850001Y-118250000I100000J0D01*
G01*
X209350000Y-112250000D02*
G75*
G02*
X209150000Y-112250000I-100000J0D01*
G01*
X209150000Y-112250000D02*
G75*
G02*
X209350000Y-112250000I100000J0D01*
G01*
X203350000Y-121250000D02*
G75*
G02*
X203150000Y-121250000I-100000J0D01*
G01*
X203150000Y-121250000D02*
G75*
G02*
X203350000Y-121250000I100000J0D01*
G01*
X100850001Y-121250000D02*
G75*
G02*
X100650003Y-121250000I-99999J0D01*
G01*
X100650003Y-121250000D02*
G75*
G02*
X100850001Y-121250000I99999J0D01*
G01*
X212350000Y-106250000D02*
G75*
G02*
X212150000Y-106250000I-100000J0D01*
G01*
X212150000Y-106250000D02*
G75*
G02*
X212350000Y-106250000I100000J0D01*
G01*
X118850001Y-103250000D02*
G75*
G02*
X118650001Y-103250000I-100000J0D01*
G01*
X118650001Y-103250000D02*
G75*
G02*
X118850001Y-103250000I100000J0D01*
G01*
X216850002Y-112250000D02*
G75*
G02*
X216650000Y-112250000I-100001J0D01*
G01*
X216650000Y-112250000D02*
G75*
G02*
X216850002Y-112250000I100001J0D01*
G01*
X106850000Y-101750000D02*
G75*
G02*
X106650002Y-101750000I-99999J0D01*
G01*
X106650002Y-101750000D02*
G75*
G02*
X106850000Y-101750000I99999J0D01*
G01*
X117349998Y-106250002D02*
G75*
G02*
X117150004Y-106250002I-99997J0D01*
G01*
X117150004Y-106250002D02*
G75*
G02*
X117349998Y-106250002I99997J0D01*
G01*
D10*
X128750000Y-124750003D02*
X93750000Y-124750000D01*
D11*
X99350001Y-118250000D02*
G75*
G02*
X99150001Y-118250000I-100000J0D01*
G01*
X99150001Y-118250000D02*
G75*
G02*
X99350001Y-118250000I100000J0D01*
G01*
X117350002Y-119749999D02*
G75*
G02*
X117150000Y-119749999I-100001J0D01*
G01*
X117150000Y-119749999D02*
G75*
G02*
X117350002Y-119749999I100001J0D01*
G01*
X213850000Y-103250000D02*
G75*
G02*
X213650000Y-103250000I-100000J0D01*
G01*
X213650000Y-103250000D02*
G75*
G02*
X213850000Y-103250000I100000J0D01*
G01*
X108350001Y-109250000D02*
G75*
G02*
X108150001Y-109250000I-100000J0D01*
G01*
X108150001Y-109250000D02*
G75*
G02*
X108350001Y-109250000I100000J0D01*
G01*
X201850000Y-121250000D02*
G75*
G02*
X201650000Y-121250000I-100000J0D01*
G01*
X201650000Y-121250000D02*
G75*
G02*
X201850000Y-121250000I100000J0D01*
G01*
X108350001Y-124250000D02*
G75*
G02*
X108150001Y-124250000I-100000J0D01*
G01*
X108150001Y-124250000D02*
G75*
G02*
X108350001Y-124250000I100000J0D01*
G01*
X123350001Y-107750000D02*
G75*
G02*
X123150001Y-107750000I-100000J0D01*
G01*
X123150001Y-107750000D02*
G75*
G02*
X123350001Y-107750000I100000J0D01*
G01*
X222850000Y-116750000D02*
G75*
G02*
X222650000Y-116750000I-100000J0D01*
G01*
X222650000Y-116750000D02*
G75*
G02*
X222850000Y-116750000I100000J0D01*
G01*
X224350000Y-104750001D02*
G75*
G02*
X224150000Y-104750001I-100000J0D01*
G01*
X224150000Y-104750001D02*
G75*
G02*
X224350000Y-104750001I100000J0D01*
G01*
X222850000Y-113750000D02*
G75*
G02*
X222650000Y-113750000I-100000J0D01*
G01*
X222650000Y-113750000D02*
G75*
G02*
X222850000Y-113750000I100000J0D01*
G01*
X109850001Y-113750000D02*
G75*
G02*
X109650001Y-113750000I-100000J0D01*
G01*
X109650001Y-113750000D02*
G75*
G02*
X109850001Y-113750000I100000J0D01*
G01*
D10*
X174750000Y-101750000D02*
X174750000Y-106749999D01*
D11*
X108350000Y-112250000D02*
G75*
G02*
X108150000Y-112250000I-100000J0D01*
G01*
X108150000Y-112250000D02*
G75*
G02*
X108350000Y-112250000I100000J0D01*
G01*
X203350000Y-122750000D02*
G75*
G02*
X203150000Y-122750000I-100000J0D01*
G01*
X203150000Y-122750000D02*
G75*
G02*
X203350000Y-122750000I100000J0D01*
G01*
X219850000Y-118250000D02*
G75*
G02*
X219650000Y-118250000I-100000J0D01*
G01*
X219650000Y-118250000D02*
G75*
G02*
X219850000Y-118250000I100000J0D01*
G01*
X207849998Y-112250000D02*
G75*
G02*
X207650000Y-112250000I-99999J0D01*
G01*
X207650000Y-112250000D02*
G75*
G02*
X207849998Y-112250000I99999J0D01*
G01*
X109850001Y-119749999D02*
G75*
G02*
X109650001Y-119749999I-100000J0D01*
G01*
X109650001Y-119749999D02*
G75*
G02*
X109850001Y-119749999I100000J0D01*
G01*
X102349999Y-118249999D02*
G75*
G02*
X102150001Y-118249999I-99999J0D01*
G01*
X102150001Y-118249999D02*
G75*
G02*
X102349999Y-118249999I99999J0D01*
G01*
X120350001Y-103250000D02*
G75*
G02*
X120150001Y-103250000I-100000J0D01*
G01*
X120150001Y-103250000D02*
G75*
G02*
X120350001Y-103250000I100000J0D01*
G01*
X105350001Y-122750000D02*
G75*
G02*
X105150001Y-122750000I-100000J0D01*
G01*
X105150001Y-122750000D02*
G75*
G02*
X105350001Y-122750000I100000J0D01*
G01*
X109850000Y-106249999D02*
G75*
G02*
X109650002Y-106249999I-99999J0D01*
G01*
X109650002Y-106249999D02*
G75*
G02*
X109850000Y-106249999I99999J0D01*
G01*
X111350000Y-109250000D02*
G75*
G02*
X111150000Y-109250000I-100000J0D01*
G01*
X111150000Y-109250000D02*
G75*
G02*
X111350000Y-109250000I100000J0D01*
G01*
X215350000Y-106250000D02*
G75*
G02*
X215150000Y-106250000I-100000J0D01*
G01*
X215150000Y-106250000D02*
G75*
G02*
X215350000Y-106250000I100000J0D01*
G01*
X100850001Y-104750001D02*
G75*
G02*
X100650001Y-104750001I-100000J0D01*
G01*
X100650001Y-104750001D02*
G75*
G02*
X100850001Y-104750001I100000J0D01*
G01*
X201850000Y-103250000D02*
G75*
G02*
X201650000Y-103250000I-100000J0D01*
G01*
X201650000Y-103250000D02*
G75*
G02*
X201850000Y-103250000I100000J0D01*
G01*
X203350000Y-106250000D02*
G75*
G02*
X203150000Y-106250000I-100000J0D01*
G01*
X203150000Y-106250000D02*
G75*
G02*
X203350000Y-106250000I100000J0D01*
G01*
X99350000Y-104750000D02*
G75*
G02*
X99150000Y-104750000I-100000J0D01*
G01*
X99150000Y-104750000D02*
G75*
G02*
X99350000Y-104750000I100000J0D01*
G01*
X102350002Y-124250000D02*
G75*
G02*
X102150000Y-124250000I-100001J0D01*
G01*
X102150000Y-124250000D02*
G75*
G02*
X102350002Y-124250000I100001J0D01*
G01*
X213850000Y-104750000D02*
G75*
G02*
X213650000Y-104750000I-100000J0D01*
G01*
X213650000Y-104750000D02*
G75*
G02*
X213850000Y-104750000I100000J0D01*
G01*
X207850000Y-122750000D02*
G75*
G02*
X207650000Y-122750000I-100000J0D01*
G01*
X207650000Y-122750000D02*
G75*
G02*
X207850000Y-122750000I100000J0D01*
G01*
X206350002Y-124249999D02*
G75*
G02*
X206150000Y-124249999I-100001J0D01*
G01*
X206150000Y-124249999D02*
G75*
G02*
X206350002Y-124249999I100001J0D01*
G01*
X224349998Y-112250000D02*
G75*
G02*
X224150000Y-112250000I-99999J0D01*
G01*
X224150000Y-112250000D02*
G75*
G02*
X224349998Y-112250000I99999J0D01*
G01*
X216850001Y-106250000D02*
G75*
G02*
X216649999Y-106250000I-100001J0D01*
G01*
X216649999Y-106250000D02*
G75*
G02*
X216850001Y-106250000I100001J0D01*
G01*
X118850002Y-115250000D02*
G75*
G02*
X118650002Y-115250000I-100000J0D01*
G01*
X118650002Y-115250000D02*
G75*
G02*
X118850002Y-115250000I100000J0D01*
G01*
X120350000Y-109250000D02*
G75*
G02*
X120150000Y-109250000I-100000J0D01*
G01*
X120150000Y-109250000D02*
G75*
G02*
X120350000Y-109250000I100000J0D01*
G01*
X106850001Y-110750000D02*
G75*
G02*
X106650001Y-110750000I-100000J0D01*
G01*
X106650001Y-110750000D02*
G75*
G02*
X106850001Y-110750000I100000J0D01*
G01*
X206350001Y-119750000D02*
G75*
G02*
X206149999Y-119750000I-100001J0D01*
G01*
X206149999Y-119750000D02*
G75*
G02*
X206350001Y-119750000I100001J0D01*
G01*
X99349999Y-122749999D02*
G75*
G02*
X99150001Y-122749999I-99999J0D01*
G01*
X99150001Y-122749999D02*
G75*
G02*
X99349999Y-122749999I99999J0D01*
G01*
X200350002Y-121250000D02*
G75*
G02*
X200150000Y-121250000I-100001J0D01*
G01*
X200150000Y-121250000D02*
G75*
G02*
X200350002Y-121250000I100001J0D01*
G01*
X219850000Y-100250000D02*
G75*
G02*
X219649998Y-100250000I-100001J0D01*
G01*
X219649998Y-100250000D02*
G75*
G02*
X219850000Y-100250000I100001J0D01*
G01*
X215350000Y-113750000D02*
G75*
G02*
X215150000Y-113750000I-100000J0D01*
G01*
X215150000Y-113750000D02*
G75*
G02*
X215350000Y-113750000I100000J0D01*
G01*
X105350001Y-112250000D02*
G75*
G02*
X105150001Y-112250000I-100000J0D01*
G01*
X105150001Y-112250000D02*
G75*
G02*
X105350001Y-112250000I100000J0D01*
G01*
X111350001Y-113750000D02*
G75*
G02*
X111150001Y-113750000I-100000J0D01*
G01*
X111150001Y-113750000D02*
G75*
G02*
X111350001Y-113750000I100000J0D01*
G01*
X112850000Y-116750000D02*
G75*
G02*
X112650000Y-116750000I-100000J0D01*
G01*
X112650000Y-116750000D02*
G75*
G02*
X112850000Y-116750000I100000J0D01*
G01*
X203350000Y-104750000D02*
G75*
G02*
X203150000Y-104750000I-100000J0D01*
G01*
X203150000Y-104750000D02*
G75*
G02*
X203350000Y-104750000I100000J0D01*
G01*
X102350000Y-109250000D02*
G75*
G02*
X102150000Y-109250000I-100000J0D01*
G01*
X102150000Y-109250000D02*
G75*
G02*
X102350000Y-109250000I100000J0D01*
G01*
X201850002Y-119749999D02*
G75*
G02*
X201650000Y-119749999I-100001J0D01*
G01*
X201650000Y-119749999D02*
G75*
G02*
X201850002Y-119749999I100001J0D01*
G01*
X209350000Y-122750000D02*
G75*
G02*
X209150000Y-122750000I-100000J0D01*
G01*
X209150000Y-122750000D02*
G75*
G02*
X209350000Y-122750000I100000J0D01*
G01*
X111350001Y-110750000D02*
G75*
G02*
X111150001Y-110750000I-100000J0D01*
G01*
X111150001Y-110750000D02*
G75*
G02*
X111350001Y-110750000I100000J0D01*
G01*
X109850001Y-104750001D02*
G75*
G02*
X109650001Y-104750001I-100000J0D01*
G01*
X109650001Y-104750001D02*
G75*
G02*
X109850001Y-104750001I100000J0D01*
G01*
X203350000Y-112250000D02*
G75*
G02*
X203150000Y-112250000I-100000J0D01*
G01*
X203150000Y-112250000D02*
G75*
G02*
X203350000Y-112250000I100000J0D01*
G01*
X108350002Y-100250000D02*
G75*
G02*
X108150000Y-100250000I-100001J0D01*
G01*
X108150000Y-100250000D02*
G75*
G02*
X108350002Y-100250000I100001J0D01*
G01*
X103850001Y-124249999D02*
G75*
G02*
X103650003Y-124249999I-99999J0D01*
G01*
X103650003Y-124249999D02*
G75*
G02*
X103850001Y-124249999I99999J0D01*
G01*
X103850001Y-119750000D02*
G75*
G02*
X103650001Y-119750000I-100000J0D01*
G01*
X103650001Y-119750000D02*
G75*
G02*
X103850001Y-119750000I100000J0D01*
G01*
X201850000Y-113750000D02*
G75*
G02*
X201650000Y-113750000I-100000J0D01*
G01*
X201650000Y-113750000D02*
G75*
G02*
X201850000Y-113750000I100000J0D01*
G01*
X219850000Y-106250000D02*
G75*
G02*
X219650000Y-106250000I-100000J0D01*
G01*
X219650000Y-106250000D02*
G75*
G02*
X219850000Y-106250000I100000J0D01*
G01*
X109850001Y-101750000D02*
G75*
G02*
X109650001Y-101750000I-100000J0D01*
G01*
X109650001Y-101750000D02*
G75*
G02*
X109850001Y-101750000I100000J0D01*
G01*
X102350001Y-122750000D02*
G75*
G02*
X102150001Y-122750000I-100000J0D01*
G01*
X102150001Y-122750000D02*
G75*
G02*
X102350001Y-122750000I100000J0D01*
G01*
X102350001Y-119750000D02*
G75*
G02*
X102150001Y-119750000I-100000J0D01*
G01*
X102150001Y-119750000D02*
G75*
G02*
X102350001Y-119750000I100000J0D01*
G01*
X201849999Y-116750000D02*
G75*
G02*
X201650001Y-116750000I-99999J0D01*
G01*
X201650001Y-116750000D02*
G75*
G02*
X201849999Y-116750000I99999J0D01*
G01*
X218350000Y-119750001D02*
G75*
G02*
X218150000Y-119750001I-100000J0D01*
G01*
X218150000Y-119750001D02*
G75*
G02*
X218350000Y-119750001I100000J0D01*
G01*
X106850001Y-107750000D02*
G75*
G02*
X106650001Y-107750000I-100000J0D01*
G01*
X106650001Y-107750000D02*
G75*
G02*
X106850001Y-107750000I100000J0D01*
G01*
X105350001Y-104750000D02*
G75*
G02*
X105150001Y-104750000I-100000J0D01*
G01*
X105150001Y-104750000D02*
G75*
G02*
X105350001Y-104750000I100000J0D01*
G01*
X221350000Y-103250000D02*
G75*
G02*
X221150000Y-103250000I-100000J0D01*
G01*
X221150000Y-103250000D02*
G75*
G02*
X221350000Y-103250000I100000J0D01*
G01*
X117350001Y-104749999D02*
G75*
G02*
X117149999Y-104749999I-100001J0D01*
G01*
X117149999Y-104749999D02*
G75*
G02*
X117350001Y-104749999I100001J0D01*
G01*
X212350000Y-107749999D02*
G75*
G02*
X212150000Y-107749999I-100000J0D01*
G01*
X212150000Y-107749999D02*
G75*
G02*
X212350000Y-107749999I100000J0D01*
G01*
X123350001Y-116750000D02*
G75*
G02*
X123150001Y-116750000I-100000J0D01*
G01*
X123150001Y-116750000D02*
G75*
G02*
X123350001Y-116750000I100000J0D01*
G01*
X204850002Y-122749999D02*
G75*
G02*
X204650000Y-122749999I-100001J0D01*
G01*
X204650000Y-122749999D02*
G75*
G02*
X204850002Y-122749999I100001J0D01*
G01*
X121850002Y-116750001D02*
G75*
G02*
X121650000Y-116750001I-100001J0D01*
G01*
X121650000Y-116750001D02*
G75*
G02*
X121850002Y-116750001I100001J0D01*
G01*
X117350000Y-122750000D02*
G75*
G02*
X117150002Y-122750000I-99999J0D01*
G01*
X117150002Y-122750000D02*
G75*
G02*
X117350000Y-122750000I99999J0D01*
G01*
X115850000Y-103250000D02*
G75*
G02*
X115650002Y-103250000I-99999J0D01*
G01*
X115650002Y-103250000D02*
G75*
G02*
X115850000Y-103250000I99999J0D01*
G01*
X123350002Y-110750000D02*
G75*
G02*
X123150002Y-110750000I-100000J0D01*
G01*
X123150002Y-110750000D02*
G75*
G02*
X123350002Y-110750000I100000J0D01*
G01*
X108350000Y-121249999D02*
G75*
G02*
X108150002Y-121249999I-99999J0D01*
G01*
X108150002Y-121249999D02*
G75*
G02*
X108350000Y-121249999I99999J0D01*
G01*
X224349998Y-110750000D02*
G75*
G02*
X224150000Y-110750000I-99999J0D01*
G01*
X224150000Y-110750000D02*
G75*
G02*
X224349998Y-110750000I99999J0D01*
G01*
X123350002Y-101750000D02*
G75*
G02*
X123150002Y-101750000I-100000J0D01*
G01*
X123150002Y-101750000D02*
G75*
G02*
X123350002Y-101750000I100000J0D01*
G01*
X201850001Y-115250000D02*
G75*
G02*
X201649999Y-115250000I-100001J0D01*
G01*
X201649999Y-115250000D02*
G75*
G02*
X201850001Y-115250000I100001J0D01*
G01*
X200350002Y-103250000D02*
G75*
G02*
X200150000Y-103250000I-100001J0D01*
G01*
X200150000Y-103250000D02*
G75*
G02*
X200350002Y-103250000I100001J0D01*
G01*
X206350000Y-100250000D02*
G75*
G02*
X206150000Y-100250000I-100000J0D01*
G01*
X206150000Y-100250000D02*
G75*
G02*
X206350000Y-100250000I100000J0D01*
G01*
X123350002Y-118249999D02*
G75*
G02*
X123150000Y-118249999I-100001J0D01*
G01*
X123150000Y-118249999D02*
G75*
G02*
X123350002Y-118249999I100001J0D01*
G01*
X213850000Y-118250000D02*
G75*
G02*
X213650000Y-118250000I-100000J0D01*
G01*
X213650000Y-118250000D02*
G75*
G02*
X213850000Y-118250000I100000J0D01*
G01*
D10*
X161750000Y-101750000D02*
X161750000Y-106750000D01*
M02*
