%TF.GenerationSoftware,KiCad,Pcbnew,8.0.8-8.0.8-0~ubuntu24.04.1*%
%TF.CreationDate,2025-03-22T16:56:25+00:00*%
%TF.ProjectId,FSRrayDMUX-ADC,46535272-6179-4444-9d55-582d4144432e,rev?*%
%TF.SameCoordinates,Original*%
%TF.FileFunction,Paste,Top*%
%TF.FilePolarity,Positive*%
%FSLAX46Y46*%
G04 Gerber Fmt 4.6, Leading zero omitted, Abs format (unit mm)*
G04 Created by KiCad (PCBNEW 8.0.8-8.0.8-0~ubuntu24.04.1) date 2025-03-22 16:56:25*
%MOMM*%
%LPD*%
G01*
G04 APERTURE LIST*
%ADD10R,0.300000X1.250000*%
%ADD11R,2.000000X2.500000*%
%ADD12R,1.750000X0.450000*%
G04 APERTURE END LIST*
D10*
%TO.C,FPC1*%
X150250000Y-138710000D03*
X150750000Y-138710000D03*
X151250000Y-138710000D03*
X151750000Y-138710000D03*
X152250000Y-138710000D03*
X152750000Y-138710000D03*
X153250000Y-138710000D03*
X153750000Y-138710000D03*
X154250000Y-138710000D03*
X154750000Y-138710000D03*
X155250000Y-138710000D03*
X155750000Y-138710000D03*
X156250000Y-138710000D03*
X156750000Y-138710000D03*
X157250000Y-138710000D03*
X157750000Y-138710000D03*
D11*
X159440000Y-141290000D03*
X148560000Y-141290000D03*
%TD*%
D12*
%TO.C,MUX1*%
X157600000Y-135875000D03*
X157600000Y-135225000D03*
X157600000Y-134575000D03*
X157600000Y-133925000D03*
X157600000Y-133275000D03*
X157600000Y-132625000D03*
X157600000Y-131975000D03*
X157600000Y-131325000D03*
X157600000Y-130675000D03*
X157600000Y-130025000D03*
X157600000Y-129375000D03*
X157600000Y-128725000D03*
X150400000Y-128725000D03*
X150400000Y-129375000D03*
X150400000Y-130025000D03*
X150400000Y-130675000D03*
X150400000Y-131325000D03*
X150400000Y-131975000D03*
X150400000Y-132625000D03*
X150400000Y-133275000D03*
X150400000Y-133925000D03*
X150400000Y-134575000D03*
X150400000Y-135225000D03*
X150400000Y-135875000D03*
%TD*%
M02*
