%TF.GenerationSoftware,KiCad,Pcbnew,8.0.8-8.0.8-0~ubuntu24.04.1*%
%TF.CreationDate,2025-03-22T16:56:25+00:00*%
%TF.ProjectId,FSRrayDMUX-ADC,46535272-6179-4444-9d55-582d4144432e,rev?*%
%TF.SameCoordinates,Original*%
%TF.FileFunction,Legend,Top*%
%TF.FilePolarity,Positive*%
%FSLAX46Y46*%
G04 Gerber Fmt 4.6, Leading zero omitted, Abs format (unit mm)*
G04 Created by KiCad (PCBNEW 8.0.8-8.0.8-0~ubuntu24.04.1) date 2025-03-22 16:56:25*
%MOMM*%
%LPD*%
G01*
G04 APERTURE LIST*
%ADD10C,2.000000*%
%ADD11C,0.230000*%
%ADD12C,0.150000*%
%ADD13C,0.250000*%
%ADD14C,0.120000*%
%ADD15R,0.300000X1.250000*%
%ADD16R,2.000000X2.500000*%
%ADD17R,1.700000X1.700000*%
%ADD18O,1.700000X1.700000*%
%ADD19R,1.750000X0.450000*%
G04 APERTURE END LIST*
D10*
X157100000Y-119000000D02*
G75*
G02*
X152700000Y-119000000I-2200000J0D01*
G01*
X152700000Y-119000000D02*
G75*
G02*
X157100000Y-119000000I2200000J0D01*
G01*
D11*
X160447992Y-135405827D02*
X160447992Y-135839161D01*
X161128944Y-135839161D02*
X159828944Y-135839161D01*
X159828944Y-135839161D02*
X159828944Y-135220113D01*
X161067040Y-134786779D02*
X161128944Y-134601065D01*
X161128944Y-134601065D02*
X161128944Y-134291541D01*
X161128944Y-134291541D02*
X161067040Y-134167732D01*
X161067040Y-134167732D02*
X161005135Y-134105827D01*
X161005135Y-134105827D02*
X160881325Y-134043922D01*
X160881325Y-134043922D02*
X160757516Y-134043922D01*
X160757516Y-134043922D02*
X160633706Y-134105827D01*
X160633706Y-134105827D02*
X160571801Y-134167732D01*
X160571801Y-134167732D02*
X160509897Y-134291541D01*
X160509897Y-134291541D02*
X160447992Y-134539160D01*
X160447992Y-134539160D02*
X160386087Y-134662970D01*
X160386087Y-134662970D02*
X160324182Y-134724875D01*
X160324182Y-134724875D02*
X160200373Y-134786779D01*
X160200373Y-134786779D02*
X160076563Y-134786779D01*
X160076563Y-134786779D02*
X159952754Y-134724875D01*
X159952754Y-134724875D02*
X159890849Y-134662970D01*
X159890849Y-134662970D02*
X159828944Y-134539160D01*
X159828944Y-134539160D02*
X159828944Y-134229637D01*
X159828944Y-134229637D02*
X159890849Y-134043922D01*
X161128944Y-132743923D02*
X160509897Y-133177256D01*
X161128944Y-133486780D02*
X159828944Y-133486780D01*
X159828944Y-133486780D02*
X159828944Y-132991542D01*
X159828944Y-132991542D02*
X159890849Y-132867732D01*
X159890849Y-132867732D02*
X159952754Y-132805827D01*
X159952754Y-132805827D02*
X160076563Y-132743923D01*
X160076563Y-132743923D02*
X160262278Y-132743923D01*
X160262278Y-132743923D02*
X160386087Y-132805827D01*
X160386087Y-132805827D02*
X160447992Y-132867732D01*
X160447992Y-132867732D02*
X160509897Y-132991542D01*
X160509897Y-132991542D02*
X160509897Y-133486780D01*
X161128944Y-132186780D02*
X160262278Y-132186780D01*
X160509897Y-132186780D02*
X160386087Y-132124875D01*
X160386087Y-132124875D02*
X160324182Y-132062970D01*
X160324182Y-132062970D02*
X160262278Y-131939161D01*
X160262278Y-131939161D02*
X160262278Y-131815351D01*
X161128944Y-130824875D02*
X160447992Y-130824875D01*
X160447992Y-130824875D02*
X160324182Y-130886780D01*
X160324182Y-130886780D02*
X160262278Y-131010589D01*
X160262278Y-131010589D02*
X160262278Y-131258208D01*
X160262278Y-131258208D02*
X160324182Y-131382018D01*
X161067040Y-130824875D02*
X161128944Y-130948684D01*
X161128944Y-130948684D02*
X161128944Y-131258208D01*
X161128944Y-131258208D02*
X161067040Y-131382018D01*
X161067040Y-131382018D02*
X160943230Y-131443922D01*
X160943230Y-131443922D02*
X160819420Y-131443922D01*
X160819420Y-131443922D02*
X160695611Y-131382018D01*
X160695611Y-131382018D02*
X160633706Y-131258208D01*
X160633706Y-131258208D02*
X160633706Y-130948684D01*
X160633706Y-130948684D02*
X160571801Y-130824875D01*
X160262278Y-130329637D02*
X161128944Y-130020113D01*
X160262278Y-129710590D02*
X161128944Y-130020113D01*
X161128944Y-130020113D02*
X161438468Y-130143923D01*
X161438468Y-130143923D02*
X161500373Y-130205828D01*
X161500373Y-130205828D02*
X161562278Y-130329637D01*
D12*
X154569819Y-133563220D02*
X153569819Y-133563220D01*
X153569819Y-133563220D02*
X153569819Y-133325125D01*
X153569819Y-133325125D02*
X153617438Y-133182268D01*
X153617438Y-133182268D02*
X153712676Y-133087030D01*
X153712676Y-133087030D02*
X153807914Y-133039411D01*
X153807914Y-133039411D02*
X153998390Y-132991792D01*
X153998390Y-132991792D02*
X154141247Y-132991792D01*
X154141247Y-132991792D02*
X154331723Y-133039411D01*
X154331723Y-133039411D02*
X154426961Y-133087030D01*
X154426961Y-133087030D02*
X154522200Y-133182268D01*
X154522200Y-133182268D02*
X154569819Y-133325125D01*
X154569819Y-133325125D02*
X154569819Y-133563220D01*
X154569819Y-132563220D02*
X153569819Y-132563220D01*
X153569819Y-132563220D02*
X154284104Y-132229887D01*
X154284104Y-132229887D02*
X153569819Y-131896554D01*
X153569819Y-131896554D02*
X154569819Y-131896554D01*
X153569819Y-131420363D02*
X154379342Y-131420363D01*
X154379342Y-131420363D02*
X154474580Y-131372744D01*
X154474580Y-131372744D02*
X154522200Y-131325125D01*
X154522200Y-131325125D02*
X154569819Y-131229887D01*
X154569819Y-131229887D02*
X154569819Y-131039411D01*
X154569819Y-131039411D02*
X154522200Y-130944173D01*
X154522200Y-130944173D02*
X154474580Y-130896554D01*
X154474580Y-130896554D02*
X154379342Y-130848935D01*
X154379342Y-130848935D02*
X153569819Y-130848935D01*
X153569819Y-130467982D02*
X154569819Y-129801316D01*
X153569819Y-129801316D02*
X154569819Y-130467982D01*
X162076926Y-142441756D02*
X161553116Y-142441756D01*
X161553116Y-142441756D02*
X161457878Y-142489375D01*
X161457878Y-142489375D02*
X161410259Y-142584613D01*
X161410259Y-142584613D02*
X161410259Y-142775089D01*
X161410259Y-142775089D02*
X161457878Y-142870327D01*
X162029307Y-142441756D02*
X162076926Y-142536994D01*
X162076926Y-142536994D02*
X162076926Y-142775089D01*
X162076926Y-142775089D02*
X162029307Y-142870327D01*
X162029307Y-142870327D02*
X161934068Y-142917946D01*
X161934068Y-142917946D02*
X161838830Y-142917946D01*
X161838830Y-142917946D02*
X161743592Y-142870327D01*
X161743592Y-142870327D02*
X161695973Y-142775089D01*
X161695973Y-142775089D02*
X161695973Y-142536994D01*
X161695973Y-142536994D02*
X161648354Y-142441756D01*
X162076926Y-141536994D02*
X161076926Y-141536994D01*
X162029307Y-141536994D02*
X162076926Y-141632232D01*
X162076926Y-141632232D02*
X162076926Y-141822708D01*
X162076926Y-141822708D02*
X162029307Y-141917946D01*
X162029307Y-141917946D02*
X161981687Y-141965565D01*
X161981687Y-141965565D02*
X161886449Y-142013184D01*
X161886449Y-142013184D02*
X161600735Y-142013184D01*
X161600735Y-142013184D02*
X161505497Y-141965565D01*
X161505497Y-141965565D02*
X161457878Y-141917946D01*
X161457878Y-141917946D02*
X161410259Y-141822708D01*
X161410259Y-141822708D02*
X161410259Y-141632232D01*
X161410259Y-141632232D02*
X161457878Y-141536994D01*
X162029307Y-140679851D02*
X162076926Y-140775089D01*
X162076926Y-140775089D02*
X162076926Y-140965565D01*
X162076926Y-140965565D02*
X162029307Y-141060803D01*
X162029307Y-141060803D02*
X161934068Y-141108422D01*
X161934068Y-141108422D02*
X161553116Y-141108422D01*
X161553116Y-141108422D02*
X161457878Y-141060803D01*
X161457878Y-141060803D02*
X161410259Y-140965565D01*
X161410259Y-140965565D02*
X161410259Y-140775089D01*
X161410259Y-140775089D02*
X161457878Y-140679851D01*
X161457878Y-140679851D02*
X161553116Y-140632232D01*
X161553116Y-140632232D02*
X161648354Y-140632232D01*
X161648354Y-140632232D02*
X161743592Y-141108422D01*
X161410259Y-140298898D02*
X162076926Y-140060803D01*
X162076926Y-140060803D02*
X161410259Y-139822708D01*
D13*
%TO.C,FPC1*%
X147800000Y-139000000D02*
X149860000Y-139000000D01*
X147800000Y-139810000D02*
X147800000Y-139000000D01*
X147800000Y-143910000D02*
X147800000Y-142770000D01*
X147800000Y-143910000D02*
X160200000Y-143910000D01*
X160200000Y-138980000D02*
X158130000Y-138980000D01*
X160200000Y-139810000D02*
X160200000Y-138980000D01*
X160200000Y-143910000D02*
X160200000Y-142770000D01*
X149800000Y-138350000D02*
G75*
G02*
X149540000Y-138350000I-130000J0D01*
G01*
X149540000Y-138350000D02*
G75*
G02*
X149800000Y-138350000I130000J0D01*
G01*
D14*
%TO.C,J1*%
X147170000Y-124170000D02*
X148500000Y-124170000D01*
X147170000Y-125500000D02*
X147170000Y-124170000D01*
X149770000Y-124170000D02*
X162530000Y-124170000D01*
X149770000Y-126830000D02*
X149770000Y-124170000D01*
X149770000Y-126830000D02*
X162530000Y-126830000D01*
X162530000Y-126830000D02*
X162530000Y-124170000D01*
D12*
%TO.C,MUX1*%
X151125000Y-127975000D02*
X151125000Y-128200000D01*
X151125000Y-136625000D02*
X151125000Y-136400000D01*
X156875000Y-127975000D02*
X151125000Y-127975000D01*
X156875000Y-127975000D02*
X156875000Y-128200000D01*
X156875000Y-136625000D02*
X151125000Y-136625000D01*
X156875000Y-136625000D02*
X156875000Y-136400000D01*
D14*
X157615000Y-136705000D02*
X157135000Y-136705000D01*
X157375000Y-136375000D01*
X157615000Y-136705000D01*
G36*
X157615000Y-136705000D02*
G01*
X157135000Y-136705000D01*
X157375000Y-136375000D01*
X157615000Y-136705000D01*
G37*
%TO.C,J4*%
X147170000Y-121630000D02*
X148500000Y-121630000D01*
X147170000Y-122960000D02*
X147170000Y-121630000D01*
X149770000Y-121630000D02*
X162530000Y-121630000D01*
X149770000Y-124290000D02*
X149770000Y-121630000D01*
X149770000Y-124290000D02*
X162530000Y-124290000D01*
X162530000Y-124290000D02*
X162530000Y-121630000D01*
%TD*%
%LPC*%
D15*
%TO.C,FPC1*%
X150250000Y-138710000D03*
X150750000Y-138710000D03*
X151250000Y-138710000D03*
X151750000Y-138710000D03*
X152250000Y-138710000D03*
X152750000Y-138710000D03*
X153250000Y-138710000D03*
X153750000Y-138710000D03*
X154250000Y-138710000D03*
X154750000Y-138710000D03*
X155250000Y-138710000D03*
X155750000Y-138710000D03*
X156250000Y-138710000D03*
X156750000Y-138710000D03*
X157250000Y-138710000D03*
X157750000Y-138710000D03*
D16*
X159440000Y-141290000D03*
X148560000Y-141290000D03*
%TD*%
D17*
%TO.C,J1*%
X148500000Y-125500000D03*
D18*
X151040000Y-125500000D03*
X153580000Y-125500000D03*
X156120000Y-125500000D03*
X158660000Y-125500000D03*
X161200000Y-125500000D03*
%TD*%
D19*
%TO.C,MUX1*%
X157600000Y-135875000D03*
X157600000Y-135225000D03*
X157600000Y-134575000D03*
X157600000Y-133925000D03*
X157600000Y-133275000D03*
X157600000Y-132625000D03*
X157600000Y-131975000D03*
X157600000Y-131325000D03*
X157600000Y-130675000D03*
X157600000Y-130025000D03*
X157600000Y-129375000D03*
X157600000Y-128725000D03*
X150400000Y-128725000D03*
X150400000Y-129375000D03*
X150400000Y-130025000D03*
X150400000Y-130675000D03*
X150400000Y-131325000D03*
X150400000Y-131975000D03*
X150400000Y-132625000D03*
X150400000Y-133275000D03*
X150400000Y-133925000D03*
X150400000Y-134575000D03*
X150400000Y-135225000D03*
X150400000Y-135875000D03*
%TD*%
D17*
%TO.C,J4*%
X148500000Y-122960000D03*
D18*
X151040000Y-122960000D03*
X153580000Y-122960000D03*
X156120000Y-122960000D03*
X158660000Y-122960000D03*
X161200000Y-122960000D03*
%TD*%
%LPD*%
M02*
