%TF.GenerationSoftware,KiCad,Pcbnew,8.0.8-8.0.8-0~ubuntu24.04.1*%
%TF.CreationDate,2025-03-22T16:56:25+00:00*%
%TF.ProjectId,FSRrayDMUX-ADC,46535272-6179-4444-9d55-582d4144432e,rev?*%
%TF.SameCoordinates,Original*%
%TF.FileFunction,Copper,L4,Bot*%
%TF.FilePolarity,Positive*%
%FSLAX46Y46*%
G04 Gerber Fmt 4.6, Leading zero omitted, Abs format (unit mm)*
G04 Created by KiCad (PCBNEW 8.0.8-8.0.8-0~ubuntu24.04.1) date 2025-03-22 16:56:25*
%MOMM*%
%LPD*%
G01*
G04 APERTURE LIST*
G04 Aperture macros list*
%AMRoundRect*
0 Rectangle with rounded corners*
0 $1 Rounding radius*
0 $2 $3 $4 $5 $6 $7 $8 $9 X,Y pos of 4 corners*
0 Add a 4 corners polygon primitive as box body*
4,1,4,$2,$3,$4,$5,$6,$7,$8,$9,$2,$3,0*
0 Add four circle primitives for the rounded corners*
1,1,$1+$1,$2,$3*
1,1,$1+$1,$4,$5*
1,1,$1+$1,$6,$7*
1,1,$1+$1,$8,$9*
0 Add four rect primitives between the rounded corners*
20,1,$1+$1,$2,$3,$4,$5,0*
20,1,$1+$1,$4,$5,$6,$7,0*
20,1,$1+$1,$6,$7,$8,$9,0*
20,1,$1+$1,$8,$9,$2,$3,0*%
G04 Aperture macros list end*
%TA.AperFunction,ComponentPad*%
%ADD10R,1.700000X1.700000*%
%TD*%
%TA.AperFunction,ComponentPad*%
%ADD11O,1.700000X1.700000*%
%TD*%
%TA.AperFunction,SMDPad,CuDef*%
%ADD12R,0.300000X1.250000*%
%TD*%
%TA.AperFunction,SMDPad,CuDef*%
%ADD13R,2.000000X2.500000*%
%TD*%
%TA.AperFunction,SMDPad,CuDef*%
%ADD14R,0.400000X0.500000*%
%TD*%
%TA.AperFunction,SMDPad,CuDef*%
%ADD15R,0.300000X0.500000*%
%TD*%
%TA.AperFunction,SMDPad,CuDef*%
%ADD16R,0.500000X0.400000*%
%TD*%
%TA.AperFunction,SMDPad,CuDef*%
%ADD17R,0.500000X0.300000*%
%TD*%
%TA.AperFunction,SMDPad,CuDef*%
%ADD18RoundRect,0.140000X-0.140000X-0.170000X0.140000X-0.170000X0.140000X0.170000X-0.140000X0.170000X0*%
%TD*%
%TA.AperFunction,SMDPad,CuDef*%
%ADD19RoundRect,0.020500X0.184500X-0.599500X0.184500X0.599500X-0.184500X0.599500X-0.184500X-0.599500X0*%
%TD*%
%TA.AperFunction,ViaPad*%
%ADD20C,0.400000*%
%TD*%
%TA.AperFunction,Conductor*%
%ADD21C,0.127000*%
%TD*%
G04 APERTURE END LIST*
D10*
%TO.P,J1,1,Pin_1*%
%TO.N,/CS1*%
X148500000Y-125500000D03*
D11*
%TO.P,J1,2,Pin_2*%
%TO.N,/SCLK*%
X151040000Y-125500000D03*
%TO.P,J1,3,Pin_3*%
%TO.N,/MOSI*%
X153580000Y-125500000D03*
%TO.P,J1,4,Pin_4*%
%TO.N,/MISO*%
X156120000Y-125500000D03*
%TO.P,J1,5,Pin_5*%
%TO.N,/EOC1*%
X158660000Y-125500000D03*
%TO.P,J1,6,Pin_6*%
%TO.N,GND*%
X161200000Y-125500000D03*
%TD*%
D10*
%TO.P,J4,1,Pin_1*%
%TO.N,/S3*%
X148500000Y-122960000D03*
D11*
%TO.P,J4,2,Pin_2*%
%TO.N,/S2*%
X151040000Y-122960000D03*
%TO.P,J4,3,Pin_3*%
%TO.N,/EN1*%
X153580000Y-122960000D03*
%TO.P,J4,4,Pin_4*%
%TO.N,+5V*%
X156120000Y-122960000D03*
%TO.P,J4,5,Pin_5*%
%TO.N,/S0*%
X158660000Y-122960000D03*
%TO.P,J4,6,Pin_6*%
%TO.N,/S1*%
X161200000Y-122960000D03*
%TD*%
D12*
%TO.P,FPC2,1,1*%
%TO.N,Net-(ADC1-AIN0)*%
X157750000Y-138710000D03*
%TO.P,FPC2,2,2*%
%TO.N,Net-(ADC1-AIN1)*%
X157250000Y-138710000D03*
%TO.P,FPC2,3,3*%
%TO.N,Net-(ADC1-AIN2)*%
X156750000Y-138710000D03*
%TO.P,FPC2,4,4*%
%TO.N,Net-(ADC1-AIN3)*%
X156250000Y-138710000D03*
%TO.P,FPC2,5,5*%
%TO.N,Net-(ADC1-AIN4)*%
X155750000Y-138710000D03*
%TO.P,FPC2,6,6*%
%TO.N,Net-(ADC1-AIN5)*%
X155250000Y-138710000D03*
%TO.P,FPC2,7,7*%
%TO.N,Net-(ADC1-AIN6)*%
X154750000Y-138710000D03*
%TO.P,FPC2,8,8*%
%TO.N,Net-(ADC1-AIN7)*%
X154250000Y-138710000D03*
%TO.P,FPC2,9,9*%
%TO.N,Net-(ADC1-AIN8)*%
X153750000Y-138710000D03*
%TO.P,FPC2,10,10*%
%TO.N,Net-(ADC1-AIN9)*%
X153250000Y-138710000D03*
%TO.P,FPC2,11,11*%
%TO.N,Net-(ADC1-AIN10)*%
X152750000Y-138710000D03*
%TO.P,FPC2,12,12*%
%TO.N,Net-(ADC1-AIN11)*%
X152250000Y-138710000D03*
%TO.P,FPC2,13,13*%
%TO.N,Net-(ADC1-AIN12)*%
X151750000Y-138710000D03*
%TO.P,FPC2,14,14*%
%TO.N,Net-(ADC1-AIN13)*%
X151250000Y-138710000D03*
%TO.P,FPC2,15,15*%
%TO.N,Net-(ADC1-AIN14)*%
X150750000Y-138710000D03*
%TO.P,FPC2,16,16*%
%TO.N,Net-(ADC1-~{CNVST{slash}AIN15})*%
X150250000Y-138710000D03*
D13*
%TO.P,FPC2,17,17*%
%TO.N,GND*%
X148560000Y-141290000D03*
%TO.P,FPC2,18,18*%
X159440000Y-141290000D03*
%TD*%
D14*
%TO.P,RN4,1,R1.1*%
%TO.N,GND*%
X157650000Y-128800000D03*
D15*
%TO.P,RN4,2,R2.1*%
X158150000Y-128800000D03*
%TO.P,RN4,3,R3.1*%
X158650000Y-128800000D03*
D14*
%TO.P,RN4,4,R4.1*%
X159150000Y-128800000D03*
%TO.P,RN4,5,R4.2*%
%TO.N,Net-(ADC1-AIN12)*%
X159150000Y-129800000D03*
D15*
%TO.P,RN4,6,R3.2*%
%TO.N,Net-(ADC1-AIN13)*%
X158650000Y-129800000D03*
%TO.P,RN4,7,R2.2*%
%TO.N,Net-(ADC1-AIN14)*%
X158150000Y-129800000D03*
D14*
%TO.P,RN4,8,R1.2*%
%TO.N,Net-(ADC1-~{CNVST{slash}AIN15})*%
X157650000Y-129800000D03*
%TD*%
D16*
%TO.P,RN2,1,R1.1*%
%TO.N,GND*%
X161300000Y-132550000D03*
D17*
%TO.P,RN2,2,R2.1*%
X161300000Y-133050000D03*
%TO.P,RN2,3,R3.1*%
X161300000Y-133550000D03*
D16*
%TO.P,RN2,4,R4.1*%
X161300000Y-134050000D03*
%TO.P,RN2,5,R4.2*%
%TO.N,Net-(ADC1-AIN4)*%
X160300000Y-134050000D03*
D17*
%TO.P,RN2,6,R3.2*%
%TO.N,Net-(ADC1-AIN5)*%
X160300000Y-133550000D03*
%TO.P,RN2,7,R2.2*%
%TO.N,Net-(ADC1-AIN6)*%
X160300000Y-133050000D03*
D16*
%TO.P,RN2,8,R1.2*%
%TO.N,Net-(ADC1-AIN7)*%
X160300000Y-132550000D03*
%TD*%
D14*
%TO.P,RN1,1,R1.1*%
%TO.N,GND*%
X159150000Y-135200000D03*
D15*
%TO.P,RN1,2,R2.1*%
X158650000Y-135200000D03*
%TO.P,RN1,3,R3.1*%
X158150000Y-135200000D03*
D14*
%TO.P,RN1,4,R4.1*%
X157650000Y-135200000D03*
%TO.P,RN1,5,R4.2*%
%TO.N,Net-(ADC1-AIN0)*%
X157650000Y-134200000D03*
D15*
%TO.P,RN1,6,R3.2*%
%TO.N,Net-(ADC1-AIN1)*%
X158150000Y-134200000D03*
%TO.P,RN1,7,R2.2*%
%TO.N,Net-(ADC1-AIN2)*%
X158650000Y-134200000D03*
D14*
%TO.P,RN1,8,R1.2*%
%TO.N,Net-(ADC1-AIN3)*%
X159150000Y-134200000D03*
%TD*%
D18*
%TO.P,C1,1,1*%
%TO.N,Net-(ADC1-REF)*%
X151020000Y-127800000D03*
%TO.P,C1,2,2*%
%TO.N,GND*%
X151980000Y-127800000D03*
%TD*%
D16*
%TO.P,RN3,1,R1.1*%
%TO.N,GND*%
X161300000Y-129950000D03*
D17*
%TO.P,RN3,2,R2.1*%
X161300000Y-130450000D03*
%TO.P,RN3,3,R3.1*%
X161300000Y-130950000D03*
D16*
%TO.P,RN3,4,R4.1*%
X161300000Y-131450000D03*
%TO.P,RN3,5,R4.2*%
%TO.N,Net-(ADC1-AIN8)*%
X160300000Y-131450000D03*
D17*
%TO.P,RN3,6,R3.2*%
%TO.N,Net-(ADC1-AIN9)*%
X160300000Y-130950000D03*
%TO.P,RN3,7,R2.2*%
%TO.N,Net-(ADC1-AIN10)*%
X160300000Y-130450000D03*
D16*
%TO.P,RN3,8,R1.2*%
%TO.N,Net-(ADC1-AIN11)*%
X160300000Y-129950000D03*
%TD*%
D19*
%TO.P,ADC1,1,AIN0*%
%TO.N,Net-(ADC1-AIN0)*%
X155892500Y-134835000D03*
%TO.P,ADC1,2,AIN1*%
%TO.N,Net-(ADC1-AIN1)*%
X155257500Y-134835000D03*
%TO.P,ADC1,3,AIN2*%
%TO.N,Net-(ADC1-AIN2)*%
X154622500Y-134835000D03*
%TO.P,ADC1,4,AIN3*%
%TO.N,Net-(ADC1-AIN3)*%
X153987500Y-134835000D03*
%TO.P,ADC1,5,AIN4*%
%TO.N,Net-(ADC1-AIN4)*%
X153352500Y-134835000D03*
%TO.P,ADC1,6,AIN5*%
%TO.N,Net-(ADC1-AIN5)*%
X152717500Y-134835000D03*
%TO.P,ADC1,7,AIN6*%
%TO.N,Net-(ADC1-AIN6)*%
X152082500Y-134835000D03*
%TO.P,ADC1,8,AIN7*%
%TO.N,Net-(ADC1-AIN7)*%
X151447500Y-134835000D03*
%TO.P,ADC1,9,AIN8*%
%TO.N,Net-(ADC1-AIN8)*%
X150812500Y-134835000D03*
%TO.P,ADC1,10,AIN9*%
%TO.N,Net-(ADC1-AIN9)*%
X150177500Y-134835000D03*
%TO.P,ADC1,11,AIN10*%
%TO.N,Net-(ADC1-AIN10)*%
X149542500Y-134835000D03*
%TO.P,ADC1,12,AIN11*%
%TO.N,Net-(ADC1-AIN11)*%
X148907500Y-134835000D03*
%TO.P,ADC1,13,AIN12*%
%TO.N,Net-(ADC1-AIN12)*%
X148907500Y-129165000D03*
%TO.P,ADC1,14,AIN13*%
%TO.N,Net-(ADC1-AIN13)*%
X149542500Y-129165000D03*
%TO.P,ADC1,15,AIN14*%
%TO.N,Net-(ADC1-AIN14)*%
X150177500Y-129165000D03*
%TO.P,ADC1,16,~{CNVST/AIN15}*%
%TO.N,Net-(ADC1-~{CNVST{slash}AIN15})*%
X150812500Y-129165000D03*
%TO.P,ADC1,17,REF*%
%TO.N,Net-(ADC1-REF)*%
X151447500Y-129165000D03*
%TO.P,ADC1,18,GND*%
%TO.N,GND*%
X152082500Y-129165000D03*
%TO.P,ADC1,19,VDD*%
%TO.N,+5V*%
X152717500Y-129165000D03*
%TO.P,ADC1,20,~{CS}*%
%TO.N,/CS1*%
X153352500Y-129165000D03*
%TO.P,ADC1,21,SCLK*%
%TO.N,/SCLK*%
X153987500Y-129165000D03*
%TO.P,ADC1,22,DIN*%
%TO.N,/MOSI*%
X154622500Y-129165000D03*
%TO.P,ADC1,23,DOUT*%
%TO.N,/MISO*%
X155257500Y-129165000D03*
%TO.P,ADC1,24,~{EOC}*%
%TO.N,/EOC1*%
X155892500Y-129165000D03*
%TD*%
D20*
%TO.N,+5V*%
X152717500Y-129365000D03*
%TO.N,GND*%
X159440000Y-141290000D03*
X148560000Y-141290000D03*
X151280000Y-127100000D03*
%TD*%
D21*
%TO.N,/EOC1*%
X155892500Y-129365000D02*
X155892500Y-128707500D01*
X158660000Y-125940000D02*
X158660000Y-125500000D01*
X155892500Y-128707500D02*
X158660000Y-125940000D01*
%TO.N,/MISO*%
X155257500Y-129365000D02*
X155257500Y-128542500D01*
X156120000Y-127680000D02*
X156120000Y-125500000D01*
X155257500Y-128542500D02*
X156120000Y-127680000D01*
%TO.N,/MOSI*%
X154622500Y-129365000D02*
X154622500Y-126542500D01*
X154622500Y-126542500D02*
X153580000Y-125500000D01*
%TO.N,/SCLK*%
X151700000Y-125500000D02*
X151040000Y-125500000D01*
X153987500Y-129365000D02*
X153987500Y-127787500D01*
X153987500Y-127787500D02*
X151700000Y-125500000D01*
%TO.N,/CS1*%
X149600000Y-126600000D02*
X148500000Y-125500000D01*
X153352500Y-127652500D02*
X152300000Y-126600000D01*
X153352500Y-129365000D02*
X153352500Y-127652500D01*
X152300000Y-126600000D02*
X149600000Y-126600000D01*
%TO.N,GND*%
X160150000Y-135200000D02*
X157650000Y-135200000D01*
X159150000Y-127550000D02*
X161200000Y-125500000D01*
X159150000Y-128800000D02*
X159150000Y-127550000D01*
X161300000Y-129950000D02*
X161300000Y-134050000D01*
X160150000Y-128800000D02*
X161300000Y-129950000D01*
X157650000Y-128800000D02*
X159150000Y-128800000D01*
X152082500Y-127902500D02*
X151980000Y-127800000D01*
X152082500Y-129365000D02*
X152082500Y-127902500D01*
X151280000Y-127100000D02*
X151980000Y-127800000D01*
X159150000Y-128800000D02*
X160150000Y-128800000D01*
X161300000Y-134050000D02*
X160150000Y-135200000D01*
%TO.N,Net-(ADC1-~{CNVST{slash}AIN15})*%
X157304000Y-130146000D02*
X157650000Y-129800000D01*
X148471110Y-127800000D02*
X147738000Y-128533110D01*
X150812500Y-128512500D02*
X150300000Y-128000000D01*
X150812500Y-129365000D02*
X150812500Y-128512500D01*
X147738000Y-128533110D02*
X147738000Y-137238000D01*
X150300000Y-128000000D02*
X150100000Y-127800000D01*
X150250000Y-138250000D02*
X150250000Y-138710000D01*
X151046000Y-130146000D02*
X157304000Y-130146000D01*
X148578000Y-138078000D02*
X150078000Y-138078000D01*
X150100000Y-127800000D02*
X148471110Y-127800000D01*
X147738000Y-137238000D02*
X148578000Y-138078000D01*
X150812500Y-129365000D02*
X150812500Y-129912500D01*
X150812500Y-129912500D02*
X151046000Y-130146000D01*
X150078000Y-138078000D02*
X150250000Y-138250000D01*
%TO.N,Net-(ADC1-AIN14)*%
X150392501Y-130400000D02*
X157900000Y-130400000D01*
X147992000Y-128638320D02*
X148529820Y-128100500D01*
X150177500Y-128717030D02*
X150177500Y-129365000D01*
X150177500Y-130184999D02*
X150392501Y-130400000D01*
X148529820Y-128100500D02*
X149560970Y-128100500D01*
X150750000Y-138710000D02*
X150750000Y-137958000D01*
X150616000Y-137824000D02*
X149024000Y-137824000D01*
X150177500Y-129365000D02*
X150177500Y-130184999D01*
X147992000Y-136792000D02*
X147992000Y-128638320D01*
X157900000Y-130400000D02*
X158150000Y-130150000D01*
X149024000Y-137824000D02*
X147992000Y-136792000D01*
X150750000Y-137958000D02*
X150616000Y-137824000D01*
X158150000Y-130150000D02*
X158150000Y-129800000D01*
X149560970Y-128100500D02*
X150177500Y-128717030D01*
%TO.N,Net-(ADC1-AIN13)*%
X149542500Y-129365000D02*
X149542500Y-130184999D01*
X151250000Y-137709210D02*
X151110790Y-137570000D01*
X149542500Y-128542500D02*
X149542500Y-129365000D01*
X158271000Y-130654000D02*
X158650000Y-130275000D01*
X148635030Y-128354500D02*
X149354500Y-128354500D01*
X150011501Y-130654000D02*
X158271000Y-130654000D01*
X149542500Y-130184999D02*
X150011501Y-130654000D01*
X151250000Y-138710000D02*
X151250000Y-137709210D01*
X148246000Y-136346000D02*
X148246000Y-128743530D01*
X148246000Y-128743530D02*
X148635030Y-128354500D01*
X151110790Y-137570000D02*
X149470000Y-137570000D01*
X149354500Y-128354500D02*
X149542500Y-128542500D01*
X149470000Y-137570000D02*
X148246000Y-136346000D01*
X158650000Y-130275000D02*
X158650000Y-129800000D01*
%TO.N,Net-(ADC1-AIN12)*%
X151750000Y-138710000D02*
X151750000Y-137850000D01*
X148500000Y-129772500D02*
X148907500Y-129365000D01*
X151216000Y-137316000D02*
X149916000Y-137316000D01*
X151750000Y-137850000D02*
X151216000Y-137316000D01*
X148907500Y-130184999D02*
X149630501Y-130908000D01*
X149916000Y-137316000D02*
X148500000Y-135900000D01*
X148907500Y-129365000D02*
X148907500Y-130184999D01*
X149630501Y-130908000D02*
X158592000Y-130908000D01*
X159150000Y-130350000D02*
X159150000Y-129800000D01*
X158592000Y-130908000D02*
X159150000Y-130350000D01*
X148500000Y-135900000D02*
X148500000Y-129772500D01*
%TO.N,Net-(ADC1-AIN11)*%
X150262000Y-137062000D02*
X148907500Y-135707500D01*
X160019000Y-129950000D02*
X160300000Y-129950000D01*
X152250000Y-137850000D02*
X151462000Y-137062000D01*
X148907500Y-133815001D02*
X151560501Y-131162000D01*
X148907500Y-135707500D02*
X148907500Y-134635000D01*
X148907500Y-134635000D02*
X148907500Y-133815001D01*
X152250000Y-138710000D02*
X152250000Y-137850000D01*
X151462000Y-137062000D02*
X150262000Y-137062000D01*
X158807000Y-131162000D02*
X160019000Y-129950000D01*
X151560501Y-131162000D02*
X158807000Y-131162000D01*
%TO.N,Net-(ADC1-AIN10)*%
X150595501Y-136808000D02*
X149542500Y-135754999D01*
X152750000Y-137865500D02*
X151692500Y-136808000D01*
X149542500Y-133757500D02*
X151884000Y-131416000D01*
X149542500Y-135754999D02*
X149542500Y-134635000D01*
X152750000Y-138710000D02*
X152750000Y-137865500D01*
X159053000Y-131416000D02*
X160019000Y-130450000D01*
X149542500Y-134635000D02*
X149542500Y-133757500D01*
X160019000Y-130450000D02*
X160300000Y-130450000D01*
X151884000Y-131416000D02*
X159053000Y-131416000D01*
X151692500Y-136808000D02*
X150595501Y-136808000D01*
%TO.N,Net-(ADC1-AIN9)*%
X152322501Y-131670000D02*
X159249000Y-131670000D01*
X150954000Y-136554000D02*
X150177500Y-135777500D01*
X153250000Y-137850000D02*
X151954000Y-136554000D01*
X150177500Y-133815001D02*
X152322501Y-131670000D01*
X150177500Y-134635000D02*
X150177500Y-133815001D01*
X150177500Y-135777500D02*
X150177500Y-134635000D01*
X159249000Y-131670000D02*
X159969000Y-130950000D01*
X153250000Y-138710000D02*
X153250000Y-137850000D01*
X151954000Y-136554000D02*
X150954000Y-136554000D01*
X159969000Y-130950000D02*
X160300000Y-130950000D01*
%TO.N,Net-(ADC1-AIN8)*%
X150812500Y-135582970D02*
X150812500Y-134635000D01*
X153750000Y-138710000D02*
X153750000Y-137850000D01*
X150812500Y-134635000D02*
X150812500Y-133815001D01*
X150812500Y-133815001D02*
X152703501Y-131924000D01*
X151529530Y-136300000D02*
X150812500Y-135582970D01*
X152208000Y-136308000D02*
X152113320Y-136308000D01*
X159676000Y-131924000D02*
X160150000Y-131450000D01*
X152703501Y-131924000D02*
X159676000Y-131924000D01*
X152105320Y-136300000D02*
X151529530Y-136300000D01*
X153750000Y-137850000D02*
X152208000Y-136308000D01*
X152113320Y-136308000D02*
X152105320Y-136300000D01*
X160150000Y-131450000D02*
X160300000Y-131450000D01*
%TO.N,Net-(ADC1-AIN7)*%
X152218530Y-136054000D02*
X152210530Y-136046000D01*
X151447500Y-135647500D02*
X151447500Y-134635000D01*
X151447500Y-134635000D02*
X151447500Y-133815001D01*
X154250000Y-138710000D02*
X154250000Y-137800000D01*
X153084501Y-132178000D02*
X159678000Y-132178000D01*
X151846000Y-136046000D02*
X151447500Y-135647500D01*
X160050000Y-132550000D02*
X160300000Y-132550000D01*
X151447500Y-133815001D02*
X153084501Y-132178000D01*
X159678000Y-132178000D02*
X160050000Y-132550000D01*
X152210530Y-136046000D02*
X151846000Y-136046000D01*
X152504000Y-136054000D02*
X152218530Y-136054000D01*
X154250000Y-137800000D02*
X152504000Y-136054000D01*
%TO.N,Net-(ADC1-AIN6)*%
X159332000Y-132432000D02*
X159950000Y-133050000D01*
X154750000Y-138710000D02*
X154750000Y-137817210D01*
X152082500Y-134635000D02*
X152082500Y-133717500D01*
X154750000Y-137817210D02*
X152732790Y-135800000D01*
X152732790Y-135800000D02*
X152350000Y-135800000D01*
X152082500Y-135532500D02*
X152082500Y-134635000D01*
X152350000Y-135800000D02*
X152082500Y-135532500D01*
X152082500Y-133717500D02*
X153368000Y-132432000D01*
X153368000Y-132432000D02*
X159332000Y-132432000D01*
X159950000Y-133050000D02*
X160300000Y-133050000D01*
%TO.N,Net-(ADC1-AIN5)*%
X158986000Y-132686000D02*
X159850000Y-133550000D01*
X153846501Y-132686000D02*
X158986000Y-132686000D01*
X155250000Y-137850000D02*
X152717500Y-135317500D01*
X152717500Y-134635000D02*
X152717500Y-133815001D01*
X152717500Y-133815001D02*
X153846501Y-132686000D01*
X155250000Y-138710000D02*
X155250000Y-137850000D01*
X152717500Y-135317500D02*
X152717500Y-134635000D01*
X159850000Y-133550000D02*
X160300000Y-133550000D01*
%TO.N,Net-(ADC1-AIN4)*%
X158740000Y-132940000D02*
X159850000Y-134050000D01*
X154227501Y-132940000D02*
X158740000Y-132940000D01*
X153352500Y-134635000D02*
X153352500Y-133815001D01*
X153352500Y-135452500D02*
X153352500Y-134635000D01*
X153352500Y-133815001D02*
X154227501Y-132940000D01*
X155750000Y-137850000D02*
X153352500Y-135452500D01*
X159850000Y-134050000D02*
X160300000Y-134050000D01*
X155750000Y-138710000D02*
X155750000Y-137850000D01*
%TO.N,Net-(ADC1-AIN3)*%
X158521000Y-133194000D02*
X159150000Y-133823000D01*
X153987500Y-135687500D02*
X153987500Y-134635000D01*
X156250000Y-138710000D02*
X156250000Y-137950000D01*
X159150000Y-133823000D02*
X159150000Y-134200000D01*
X153987500Y-133815001D02*
X154608501Y-133194000D01*
X156250000Y-137950000D02*
X153987500Y-135687500D01*
X153987500Y-134635000D02*
X153987500Y-133815001D01*
X154608501Y-133194000D02*
X158521000Y-133194000D01*
%TO.N,Net-(ADC1-AIN2)*%
X154622500Y-135722500D02*
X154622500Y-134635000D01*
X158275000Y-133448000D02*
X158650000Y-133823000D01*
X156750000Y-137850000D02*
X154622500Y-135722500D01*
X154622500Y-134635000D02*
X154622500Y-133815001D01*
X154622500Y-133815001D02*
X154989501Y-133448000D01*
X154989501Y-133448000D02*
X158275000Y-133448000D01*
X158650000Y-133823000D02*
X158650000Y-134200000D01*
X156750000Y-138710000D02*
X156750000Y-137850000D01*
%TO.N,Net-(ADC1-AIN1)*%
X157250000Y-137850000D02*
X155257500Y-135857500D01*
X157250000Y-138710000D02*
X157250000Y-137850000D01*
X155440500Y-133759500D02*
X158040500Y-133759500D01*
X158040500Y-133759500D02*
X158150000Y-133869000D01*
X155257500Y-134635000D02*
X155257500Y-133942500D01*
X158150000Y-133869000D02*
X158150000Y-134200000D01*
X155257500Y-133942500D02*
X155440500Y-133759500D01*
X155257500Y-135857500D02*
X155257500Y-134635000D01*
%TO.N,Net-(ADC1-AIN0)*%
X157750000Y-138710000D02*
X157750000Y-137750000D01*
X155892500Y-135892500D02*
X155892500Y-134635000D01*
X155892500Y-134635000D02*
X156327500Y-134200000D01*
X156327500Y-134200000D02*
X157650000Y-134200000D01*
X157750000Y-137750000D02*
X155892500Y-135892500D01*
%TO.N,Net-(ADC1-REF)*%
X151447500Y-129365000D02*
X151447500Y-128227500D01*
X151447500Y-128227500D02*
X151020000Y-127800000D01*
%TD*%
%TA.AperFunction,Conductor*%
%TO.N,GND*%
G36*
X161450000Y-126830633D02*
G01*
X161663483Y-126773433D01*
X161663492Y-126773429D01*
X161877578Y-126673600D01*
X162071082Y-126538105D01*
X162238107Y-126371080D01*
X162263925Y-126334209D01*
X162318501Y-126290584D01*
X162388000Y-126283390D01*
X162450355Y-126314912D01*
X162485769Y-126375142D01*
X162489500Y-126405332D01*
X162489500Y-142494587D01*
X162489028Y-142505395D01*
X162475412Y-142661017D01*
X162471659Y-142682303D01*
X162432633Y-142827950D01*
X162425240Y-142848261D01*
X162361517Y-142984915D01*
X162350710Y-143003633D01*
X162264220Y-143127154D01*
X162250326Y-143143712D01*
X162143712Y-143250326D01*
X162127154Y-143264220D01*
X162003633Y-143350710D01*
X161984915Y-143361517D01*
X161848261Y-143425240D01*
X161827950Y-143432633D01*
X161682303Y-143471659D01*
X161661017Y-143475412D01*
X161527247Y-143487116D01*
X161505393Y-143489028D01*
X161494588Y-143489500D01*
X148205412Y-143489500D01*
X148194606Y-143489028D01*
X148169584Y-143486838D01*
X148038982Y-143475412D01*
X148017696Y-143471659D01*
X147872049Y-143432633D01*
X147851738Y-143425240D01*
X147715084Y-143361517D01*
X147696366Y-143350710D01*
X147574780Y-143265575D01*
X147531155Y-143210998D01*
X147523961Y-143141500D01*
X147555484Y-143079145D01*
X147615714Y-143043731D01*
X147645903Y-143040000D01*
X148310000Y-143040000D01*
X148810000Y-143040000D01*
X149607828Y-143040000D01*
X149607844Y-143039999D01*
X149667372Y-143033598D01*
X149667379Y-143033596D01*
X149802086Y-142983354D01*
X149802093Y-142983350D01*
X149917187Y-142897190D01*
X149917190Y-142897187D01*
X150003350Y-142782093D01*
X150003354Y-142782086D01*
X150053596Y-142647379D01*
X150053598Y-142647372D01*
X150059999Y-142587844D01*
X157940000Y-142587844D01*
X157946401Y-142647372D01*
X157946403Y-142647379D01*
X157996645Y-142782086D01*
X157996649Y-142782093D01*
X158082809Y-142897187D01*
X158082812Y-142897190D01*
X158197906Y-142983350D01*
X158197913Y-142983354D01*
X158332620Y-143033596D01*
X158332627Y-143033598D01*
X158392155Y-143039999D01*
X158392172Y-143040000D01*
X159190000Y-143040000D01*
X159690000Y-143040000D01*
X160487828Y-143040000D01*
X160487844Y-143039999D01*
X160547372Y-143033598D01*
X160547379Y-143033596D01*
X160682086Y-142983354D01*
X160682093Y-142983350D01*
X160797187Y-142897190D01*
X160797190Y-142897187D01*
X160883350Y-142782093D01*
X160883354Y-142782086D01*
X160933596Y-142647379D01*
X160933598Y-142647372D01*
X160939999Y-142587844D01*
X160940000Y-142587827D01*
X160940000Y-141540000D01*
X159690000Y-141540000D01*
X159690000Y-143040000D01*
X159190000Y-143040000D01*
X159190000Y-141540000D01*
X157940000Y-141540000D01*
X157940000Y-142587844D01*
X150059999Y-142587844D01*
X150060000Y-142587827D01*
X150060000Y-141540000D01*
X148810000Y-141540000D01*
X148810000Y-143040000D01*
X148310000Y-143040000D01*
X148310000Y-139540000D01*
X147512155Y-139540000D01*
X147452627Y-139546401D01*
X147452620Y-139546403D01*
X147377833Y-139574297D01*
X147308141Y-139579281D01*
X147246818Y-139545796D01*
X147213334Y-139484473D01*
X147210500Y-139458115D01*
X147210500Y-137807478D01*
X147230185Y-137740439D01*
X147282989Y-137694684D01*
X147352147Y-137684740D01*
X147415703Y-137713765D01*
X147422181Y-137719797D01*
X148122346Y-138419962D01*
X148122356Y-138419973D01*
X148126686Y-138424303D01*
X148126687Y-138424304D01*
X148231696Y-138529313D01*
X148313229Y-138576386D01*
X148360303Y-138603565D01*
X148503747Y-138642000D01*
X148503748Y-138642000D01*
X149475500Y-138642000D01*
X149542539Y-138661685D01*
X149588294Y-138714489D01*
X149599500Y-138766000D01*
X149599500Y-139382870D01*
X149599501Y-139382881D01*
X149601637Y-139402749D01*
X149589229Y-139471508D01*
X149541617Y-139522644D01*
X149478347Y-139540000D01*
X148810000Y-139540000D01*
X148810000Y-141040000D01*
X150060000Y-141040000D01*
X150060000Y-139992172D01*
X150059999Y-139992158D01*
X150057913Y-139972756D01*
X150070317Y-139903996D01*
X150117927Y-139852858D01*
X150181199Y-139835499D01*
X150447872Y-139835499D01*
X150447885Y-139835498D01*
X150486744Y-139831320D01*
X150513252Y-139831320D01*
X150552127Y-139835500D01*
X150947872Y-139835499D01*
X150947873Y-139835498D01*
X150947885Y-139835498D01*
X150986744Y-139831320D01*
X151013252Y-139831320D01*
X151052127Y-139835500D01*
X151447872Y-139835499D01*
X151447873Y-139835498D01*
X151447885Y-139835498D01*
X151486744Y-139831320D01*
X151513252Y-139831320D01*
X151552127Y-139835500D01*
X151947872Y-139835499D01*
X151947873Y-139835498D01*
X151947885Y-139835498D01*
X151986744Y-139831320D01*
X152013252Y-139831320D01*
X152052127Y-139835500D01*
X152447872Y-139835499D01*
X152447873Y-139835498D01*
X152447885Y-139835498D01*
X152486744Y-139831320D01*
X152513252Y-139831320D01*
X152552127Y-139835500D01*
X152947872Y-139835499D01*
X152947873Y-139835498D01*
X152947885Y-139835498D01*
X152986744Y-139831320D01*
X153013252Y-139831320D01*
X153052127Y-139835500D01*
X153447872Y-139835499D01*
X153447873Y-139835498D01*
X153447885Y-139835498D01*
X153486744Y-139831320D01*
X153513252Y-139831320D01*
X153552127Y-139835500D01*
X153947872Y-139835499D01*
X153947873Y-139835498D01*
X153947885Y-139835498D01*
X153986744Y-139831320D01*
X154013252Y-139831320D01*
X154052127Y-139835500D01*
X154447872Y-139835499D01*
X154447873Y-139835498D01*
X154447885Y-139835498D01*
X154486744Y-139831320D01*
X154513252Y-139831320D01*
X154552127Y-139835500D01*
X154947872Y-139835499D01*
X154947873Y-139835498D01*
X154947885Y-139835498D01*
X154986744Y-139831320D01*
X155013252Y-139831320D01*
X155052127Y-139835500D01*
X155447872Y-139835499D01*
X155447873Y-139835498D01*
X155447885Y-139835498D01*
X155486744Y-139831320D01*
X155513252Y-139831320D01*
X155552127Y-139835500D01*
X155947872Y-139835499D01*
X155947873Y-139835498D01*
X155947885Y-139835498D01*
X155986744Y-139831320D01*
X156013252Y-139831320D01*
X156052127Y-139835500D01*
X156447872Y-139835499D01*
X156447873Y-139835498D01*
X156447885Y-139835498D01*
X156486744Y-139831320D01*
X156513252Y-139831320D01*
X156552127Y-139835500D01*
X156947872Y-139835499D01*
X156947873Y-139835498D01*
X156947885Y-139835498D01*
X156986744Y-139831320D01*
X157013252Y-139831320D01*
X157052127Y-139835500D01*
X157447872Y-139835499D01*
X157447873Y-139835498D01*
X157447885Y-139835498D01*
X157486744Y-139831320D01*
X157513252Y-139831320D01*
X157552127Y-139835500D01*
X157818798Y-139835499D01*
X157885836Y-139855183D01*
X157931591Y-139907987D01*
X157942087Y-139972750D01*
X157940000Y-139992161D01*
X157940000Y-141040000D01*
X159190000Y-141040000D01*
X159690000Y-141040000D01*
X160940000Y-141040000D01*
X160940000Y-139992172D01*
X160939999Y-139992155D01*
X160933598Y-139932627D01*
X160933596Y-139932620D01*
X160883354Y-139797913D01*
X160883350Y-139797906D01*
X160797190Y-139682812D01*
X160797187Y-139682809D01*
X160682093Y-139596649D01*
X160682086Y-139596645D01*
X160547379Y-139546403D01*
X160547372Y-139546401D01*
X160487844Y-139540000D01*
X159690000Y-139540000D01*
X159690000Y-141040000D01*
X159190000Y-141040000D01*
X159190000Y-139540000D01*
X158521653Y-139540000D01*
X158454614Y-139520315D01*
X158408859Y-139467511D01*
X158398363Y-139402747D01*
X158400500Y-139382873D01*
X158400499Y-138037128D01*
X158394091Y-137977517D01*
X158343796Y-137842669D01*
X158338734Y-137835907D01*
X158314317Y-137770442D01*
X158314001Y-137761596D01*
X158314001Y-137675750D01*
X158314001Y-137675748D01*
X158275565Y-137532304D01*
X158231335Y-137455696D01*
X158201315Y-137403699D01*
X158201310Y-137403693D01*
X156580034Y-135782418D01*
X156546549Y-135721095D01*
X156551533Y-135651403D01*
X156552328Y-135649331D01*
X156587945Y-135559014D01*
X156595291Y-135497844D01*
X156950000Y-135497844D01*
X156956401Y-135557372D01*
X156956403Y-135557379D01*
X157006645Y-135692086D01*
X157006649Y-135692093D01*
X157092809Y-135807187D01*
X157092812Y-135807190D01*
X157207906Y-135893350D01*
X157207913Y-135893354D01*
X157342620Y-135943596D01*
X157342627Y-135943598D01*
X157402155Y-135949999D01*
X157402172Y-135950000D01*
X157450000Y-135950000D01*
X157850000Y-135950000D01*
X157897821Y-135950000D01*
X157911737Y-135948503D01*
X157938263Y-135948503D01*
X157952179Y-135950000D01*
X158000000Y-135950000D01*
X158300000Y-135950000D01*
X158347821Y-135950000D01*
X158347831Y-135949999D01*
X158386742Y-135945815D01*
X158413258Y-135945815D01*
X158452168Y-135949999D01*
X158452179Y-135950000D01*
X158500000Y-135950000D01*
X158800000Y-135950000D01*
X158847821Y-135950000D01*
X158861737Y-135948503D01*
X158888263Y-135948503D01*
X158902179Y-135950000D01*
X158950000Y-135950000D01*
X159350000Y-135950000D01*
X159397828Y-135950000D01*
X159397844Y-135949999D01*
X159457372Y-135943598D01*
X159457379Y-135943596D01*
X159592086Y-135893354D01*
X159592093Y-135893350D01*
X159707187Y-135807190D01*
X159707190Y-135807187D01*
X159793350Y-135692093D01*
X159793354Y-135692086D01*
X159843596Y-135557379D01*
X159843598Y-135557372D01*
X159849999Y-135497844D01*
X159850000Y-135497827D01*
X159850000Y-135400000D01*
X159350000Y-135400000D01*
X159350000Y-135950000D01*
X158950000Y-135950000D01*
X158950000Y-135400000D01*
X158800000Y-135400000D01*
X158800000Y-135950000D01*
X158500000Y-135950000D01*
X158500000Y-135400000D01*
X158300000Y-135400000D01*
X158300000Y-135950000D01*
X158000000Y-135950000D01*
X158000000Y-135400000D01*
X157850000Y-135400000D01*
X157850000Y-135950000D01*
X157450000Y-135950000D01*
X157450000Y-135400000D01*
X156950000Y-135400000D01*
X156950000Y-135497844D01*
X156595291Y-135497844D01*
X156598000Y-135475286D01*
X156598000Y-134888000D01*
X156617685Y-134820961D01*
X156670489Y-134775206D01*
X156722000Y-134764000D01*
X156826809Y-134764000D01*
X156893848Y-134783685D01*
X156939603Y-134836489D01*
X156949700Y-134898821D01*
X156950178Y-134898847D01*
X156950060Y-134901041D01*
X156950097Y-134901267D01*
X156950000Y-134902164D01*
X156950000Y-135000000D01*
X159850000Y-135000000D01*
X159850000Y-134902172D01*
X159849999Y-134902158D01*
X159848173Y-134885174D01*
X159860577Y-134816414D01*
X159908187Y-134765276D01*
X159975886Y-134747996D01*
X159984710Y-134748627D01*
X160002127Y-134750500D01*
X160597872Y-134750499D01*
X160657483Y-134744091D01*
X160757382Y-134706830D01*
X160827072Y-134701847D01*
X160844047Y-134706831D01*
X160942620Y-134743596D01*
X160942627Y-134743598D01*
X161002155Y-134749999D01*
X161002172Y-134750000D01*
X161100000Y-134750000D01*
X161500000Y-134750000D01*
X161597828Y-134750000D01*
X161597844Y-134749999D01*
X161657372Y-134743598D01*
X161657379Y-134743596D01*
X161792086Y-134693354D01*
X161792093Y-134693350D01*
X161907187Y-134607190D01*
X161907190Y-134607187D01*
X161993350Y-134492093D01*
X161993354Y-134492086D01*
X162043596Y-134357379D01*
X162043598Y-134357372D01*
X162049999Y-134297844D01*
X162050000Y-134297827D01*
X162050000Y-134250000D01*
X161500000Y-134250000D01*
X161500000Y-134750000D01*
X161100000Y-134750000D01*
X161100000Y-133850000D01*
X161500000Y-133850000D01*
X162050000Y-133850000D01*
X162050000Y-133802178D01*
X162048503Y-133788263D01*
X162048503Y-133761737D01*
X162050000Y-133747821D01*
X162050000Y-133700000D01*
X161500000Y-133700000D01*
X161500000Y-133850000D01*
X161100000Y-133850000D01*
X161100000Y-133400000D01*
X161500000Y-133400000D01*
X162050000Y-133400000D01*
X162050000Y-133352179D01*
X162049999Y-133352168D01*
X162045815Y-133313258D01*
X162045815Y-133286742D01*
X162049999Y-133247831D01*
X162050000Y-133247821D01*
X162050000Y-133200000D01*
X161500000Y-133200000D01*
X161500000Y-133400000D01*
X161100000Y-133400000D01*
X161100000Y-132900000D01*
X161500000Y-132900000D01*
X162050000Y-132900000D01*
X162050000Y-132852178D01*
X162048503Y-132838263D01*
X162048503Y-132811737D01*
X162050000Y-132797821D01*
X162050000Y-132750000D01*
X161500000Y-132750000D01*
X161500000Y-132900000D01*
X161100000Y-132900000D01*
X161100000Y-132350000D01*
X161500000Y-132350000D01*
X162050000Y-132350000D01*
X162050000Y-132302172D01*
X162049999Y-132302155D01*
X162043598Y-132242627D01*
X162043597Y-132242623D01*
X161993351Y-132107909D01*
X161968200Y-132074312D01*
X161943782Y-132008848D01*
X161958633Y-131940575D01*
X161968200Y-131925688D01*
X161993351Y-131892090D01*
X162043597Y-131757376D01*
X162043598Y-131757372D01*
X162049999Y-131697844D01*
X162050000Y-131697827D01*
X162050000Y-131650000D01*
X161500000Y-131650000D01*
X161500000Y-132350000D01*
X161100000Y-132350000D01*
X161100000Y-131250000D01*
X161500000Y-131250000D01*
X162050000Y-131250000D01*
X162050000Y-131202178D01*
X162048503Y-131188263D01*
X162048503Y-131161737D01*
X162050000Y-131147821D01*
X162050000Y-131100000D01*
X161500000Y-131100000D01*
X161500000Y-131250000D01*
X161100000Y-131250000D01*
X161100000Y-130800000D01*
X161500000Y-130800000D01*
X162050000Y-130800000D01*
X162050000Y-130752179D01*
X162049999Y-130752168D01*
X162045815Y-130713258D01*
X162045815Y-130686742D01*
X162049999Y-130647831D01*
X162050000Y-130647821D01*
X162050000Y-130600000D01*
X161500000Y-130600000D01*
X161500000Y-130800000D01*
X161100000Y-130800000D01*
X161100000Y-130300000D01*
X161500000Y-130300000D01*
X162050000Y-130300000D01*
X162050000Y-130252178D01*
X162048503Y-130238263D01*
X162048503Y-130211737D01*
X162050000Y-130197821D01*
X162050000Y-130150000D01*
X161500000Y-130150000D01*
X161500000Y-130300000D01*
X161100000Y-130300000D01*
X161100000Y-129750000D01*
X161500000Y-129750000D01*
X162050000Y-129750000D01*
X162050000Y-129702172D01*
X162049999Y-129702155D01*
X162043598Y-129642627D01*
X162043596Y-129642620D01*
X161993354Y-129507913D01*
X161993350Y-129507906D01*
X161907190Y-129392812D01*
X161907187Y-129392809D01*
X161792093Y-129306649D01*
X161792086Y-129306645D01*
X161657379Y-129256403D01*
X161657372Y-129256401D01*
X161597844Y-129250000D01*
X161500000Y-129250000D01*
X161500000Y-129750000D01*
X161100000Y-129750000D01*
X161100000Y-129250000D01*
X161002155Y-129250000D01*
X160942627Y-129256401D01*
X160942617Y-129256403D01*
X160844046Y-129293168D01*
X160774355Y-129298152D01*
X160757381Y-129293168D01*
X160657486Y-129255910D01*
X160657485Y-129255909D01*
X160657483Y-129255909D01*
X160597873Y-129249500D01*
X160597863Y-129249500D01*
X160002129Y-129249500D01*
X160002113Y-129249501D01*
X159984711Y-129251372D01*
X159915952Y-129238963D01*
X159864817Y-129191350D01*
X159847541Y-129123650D01*
X159848173Y-129114825D01*
X159849999Y-129097841D01*
X159850000Y-129097827D01*
X159850000Y-129000000D01*
X156950000Y-129000000D01*
X156950000Y-129097844D01*
X156956401Y-129157372D01*
X156956403Y-129157380D01*
X156993168Y-129255952D01*
X156998152Y-129325644D01*
X156993168Y-129342617D01*
X156955909Y-129442514D01*
X156955908Y-129442516D01*
X156952819Y-129471255D01*
X156926081Y-129535806D01*
X156868689Y-129575655D01*
X156829530Y-129582000D01*
X156722000Y-129582000D01*
X156654961Y-129562315D01*
X156609206Y-129509511D01*
X156598000Y-129458000D01*
X156598000Y-128850977D01*
X156617685Y-128783938D01*
X156634309Y-128763306D01*
X156786131Y-128611484D01*
X156847449Y-128578003D01*
X156917140Y-128582987D01*
X156943612Y-128600000D01*
X157450000Y-128600000D01*
X157850000Y-128600000D01*
X158000000Y-128600000D01*
X158300000Y-128600000D01*
X158500000Y-128600000D01*
X158800000Y-128600000D01*
X158950000Y-128600000D01*
X159350000Y-128600000D01*
X159850000Y-128600000D01*
X159850000Y-128502172D01*
X159849999Y-128502155D01*
X159843598Y-128442627D01*
X159843596Y-128442620D01*
X159793354Y-128307913D01*
X159793350Y-128307906D01*
X159707190Y-128192812D01*
X159707187Y-128192809D01*
X159592093Y-128106649D01*
X159592086Y-128106645D01*
X159457379Y-128056403D01*
X159457372Y-128056401D01*
X159397844Y-128050000D01*
X159350000Y-128050000D01*
X159350000Y-128600000D01*
X158950000Y-128600000D01*
X158950000Y-128050000D01*
X158902167Y-128050000D01*
X158888253Y-128051496D01*
X158861747Y-128051496D01*
X158847832Y-128050000D01*
X158800000Y-128050000D01*
X158800000Y-128600000D01*
X158500000Y-128600000D01*
X158500000Y-128050000D01*
X158452164Y-128050000D01*
X158413252Y-128054183D01*
X158386748Y-128054183D01*
X158347835Y-128050000D01*
X158300000Y-128050000D01*
X158300000Y-128600000D01*
X158000000Y-128600000D01*
X158000000Y-128050000D01*
X157952167Y-128050000D01*
X157938253Y-128051496D01*
X157911747Y-128051496D01*
X157897832Y-128050000D01*
X157850000Y-128050000D01*
X157850000Y-128600000D01*
X157450000Y-128600000D01*
X157450000Y-127998976D01*
X157469685Y-127931937D01*
X157486312Y-127911302D01*
X158510568Y-126887046D01*
X158571889Y-126853563D01*
X158609050Y-126851201D01*
X158660000Y-126855659D01*
X158895408Y-126835063D01*
X159123663Y-126773903D01*
X159337830Y-126674035D01*
X159531401Y-126538495D01*
X159698495Y-126371401D01*
X159828730Y-126185405D01*
X159883307Y-126141781D01*
X159952805Y-126134587D01*
X160015160Y-126166110D01*
X160031879Y-126185405D01*
X160161890Y-126371078D01*
X160328917Y-126538105D01*
X160522421Y-126673600D01*
X160736507Y-126773429D01*
X160736516Y-126773433D01*
X160950000Y-126830634D01*
X160950000Y-125933012D01*
X161007007Y-125965925D01*
X161134174Y-126000000D01*
X161265826Y-126000000D01*
X161392993Y-125965925D01*
X161450000Y-125933012D01*
X161450000Y-126830633D01*
G37*
%TD.AperFunction*%
%TD*%
M02*
