%TF.GenerationSoftware,KiCad,Pcbnew,8.0.8-8.0.8-0~ubuntu24.04.1*%
%TF.CreationDate,2025-03-22T16:56:25+00:00*%
%TF.ProjectId,FSRrayDMUX-ADC,46535272-6179-4444-9d55-582d4144432e,rev?*%
%TF.SameCoordinates,Original*%
%TF.FileFunction,Legend,Bot*%
%TF.FilePolarity,Positive*%
%FSLAX46Y46*%
G04 Gerber Fmt 4.6, Leading zero omitted, Abs format (unit mm)*
G04 Created by KiCad (PCBNEW 8.0.8-8.0.8-0~ubuntu24.04.1) date 2025-03-22 16:56:25*
%MOMM*%
%LPD*%
G01*
G04 APERTURE LIST*
G04 Aperture macros list*
%AMRoundRect*
0 Rectangle with rounded corners*
0 $1 Rounding radius*
0 $2 $3 $4 $5 $6 $7 $8 $9 X,Y pos of 4 corners*
0 Add a 4 corners polygon primitive as box body*
4,1,4,$2,$3,$4,$5,$6,$7,$8,$9,$2,$3,0*
0 Add four circle primitives for the rounded corners*
1,1,$1+$1,$2,$3*
1,1,$1+$1,$4,$5*
1,1,$1+$1,$6,$7*
1,1,$1+$1,$8,$9*
0 Add four rect primitives between the rounded corners*
20,1,$1+$1,$2,$3,$4,$5,0*
20,1,$1+$1,$4,$5,$6,$7,0*
20,1,$1+$1,$6,$7,$8,$9,0*
20,1,$1+$1,$8,$9,$2,$3,0*%
G04 Aperture macros list end*
%ADD10C,2.000000*%
%ADD11C,0.150000*%
%ADD12C,0.200000*%
%ADD13C,0.250000*%
%ADD14C,0.120000*%
%ADD15C,0.127000*%
%ADD16C,1.550000*%
%ADD17R,1.700000X1.700000*%
%ADD18O,1.700000X1.700000*%
%ADD19R,0.300000X1.250000*%
%ADD20R,2.000000X2.500000*%
%ADD21R,0.400000X0.500000*%
%ADD22R,0.300000X0.500000*%
%ADD23R,0.500000X0.400000*%
%ADD24R,0.500000X0.300000*%
%ADD25RoundRect,0.140000X-0.140000X-0.170000X0.140000X-0.170000X0.140000X0.170000X-0.140000X0.170000X0*%
%ADD26RoundRect,0.020500X0.184500X-0.599500X0.184500X0.599500X-0.184500X0.599500X-0.184500X-0.599500X0*%
G04 APERTURE END LIST*
D10*
X157100000Y-119000000D02*
G75*
G02*
X152700000Y-119000000I-2200000J0D01*
G01*
X152700000Y-119000000D02*
G75*
G02*
X157100000Y-119000000I2200000J0D01*
G01*
D11*
X161130180Y-142234649D02*
X161653990Y-142234649D01*
X161653990Y-142234649D02*
X161749228Y-142282268D01*
X161749228Y-142282268D02*
X161796847Y-142377506D01*
X161796847Y-142377506D02*
X161796847Y-142567982D01*
X161796847Y-142567982D02*
X161749228Y-142663220D01*
X161177800Y-142234649D02*
X161130180Y-142329887D01*
X161130180Y-142329887D02*
X161130180Y-142567982D01*
X161130180Y-142567982D02*
X161177800Y-142663220D01*
X161177800Y-142663220D02*
X161273038Y-142710839D01*
X161273038Y-142710839D02*
X161368276Y-142710839D01*
X161368276Y-142710839D02*
X161463514Y-142663220D01*
X161463514Y-142663220D02*
X161511133Y-142567982D01*
X161511133Y-142567982D02*
X161511133Y-142329887D01*
X161511133Y-142329887D02*
X161558752Y-142234649D01*
X161130180Y-141329887D02*
X162130180Y-141329887D01*
X161177800Y-141329887D02*
X161130180Y-141425125D01*
X161130180Y-141425125D02*
X161130180Y-141615601D01*
X161130180Y-141615601D02*
X161177800Y-141710839D01*
X161177800Y-141710839D02*
X161225419Y-141758458D01*
X161225419Y-141758458D02*
X161320657Y-141806077D01*
X161320657Y-141806077D02*
X161606371Y-141806077D01*
X161606371Y-141806077D02*
X161701609Y-141758458D01*
X161701609Y-141758458D02*
X161749228Y-141710839D01*
X161749228Y-141710839D02*
X161796847Y-141615601D01*
X161796847Y-141615601D02*
X161796847Y-141425125D01*
X161796847Y-141425125D02*
X161749228Y-141329887D01*
X161177800Y-140472744D02*
X161130180Y-140567982D01*
X161130180Y-140567982D02*
X161130180Y-140758458D01*
X161130180Y-140758458D02*
X161177800Y-140853696D01*
X161177800Y-140853696D02*
X161273038Y-140901315D01*
X161273038Y-140901315D02*
X161653990Y-140901315D01*
X161653990Y-140901315D02*
X161749228Y-140853696D01*
X161749228Y-140853696D02*
X161796847Y-140758458D01*
X161796847Y-140758458D02*
X161796847Y-140567982D01*
X161796847Y-140567982D02*
X161749228Y-140472744D01*
X161749228Y-140472744D02*
X161653990Y-140425125D01*
X161653990Y-140425125D02*
X161558752Y-140425125D01*
X161558752Y-140425125D02*
X161463514Y-140901315D01*
X161796847Y-140091791D02*
X161130180Y-139853696D01*
X161130180Y-139853696D02*
X161796847Y-139615601D01*
D12*
X159447809Y-133392427D02*
X159830966Y-133009270D01*
X159721492Y-133118743D02*
X159748861Y-133036638D01*
X159748861Y-133036638D02*
X159748861Y-132981901D01*
X159748861Y-132981901D02*
X159721492Y-132899796D01*
X159721492Y-132899796D02*
X159666756Y-132845059D01*
X159037282Y-132215586D02*
X159310966Y-132817691D01*
X159310966Y-132817691D02*
X158708862Y-132544007D01*
X158325704Y-131504007D02*
X158599388Y-132106112D01*
X158599388Y-132106112D02*
X157997283Y-131832428D01*
X158134125Y-131312428D02*
X157915178Y-131093481D01*
X157668862Y-131613481D02*
X158161493Y-131120850D01*
X158161493Y-131120850D02*
X158188862Y-131038744D01*
X158188862Y-131038744D02*
X158161493Y-130956639D01*
X158161493Y-130956639D02*
X158106757Y-130901902D01*
X157395178Y-131285060D02*
X157313073Y-131257692D01*
X157313073Y-131257692D02*
X157203599Y-131148218D01*
X157203599Y-131148218D02*
X157176231Y-131066113D01*
X157176231Y-131066113D02*
X157203599Y-130984008D01*
X157203599Y-130984008D02*
X157230968Y-130956639D01*
X157230968Y-130956639D02*
X157313073Y-130929271D01*
X157313073Y-130929271D02*
X157395178Y-130956639D01*
X157395178Y-130956639D02*
X157477283Y-131038745D01*
X157477283Y-131038745D02*
X157559389Y-131066113D01*
X157559389Y-131066113D02*
X157641494Y-131038745D01*
X157641494Y-131038745D02*
X157668862Y-131011376D01*
X157668862Y-131011376D02*
X157696231Y-130929271D01*
X157696231Y-130929271D02*
X157668862Y-130847166D01*
X157668862Y-130847166D02*
X157586757Y-130765061D01*
X157586757Y-130765061D02*
X157504652Y-130737692D01*
X156875179Y-130819797D02*
X157258336Y-130436640D01*
X157148863Y-130546113D02*
X157176231Y-130464008D01*
X157176231Y-130464008D02*
X157176231Y-130409271D01*
X157176231Y-130409271D02*
X157148863Y-130327166D01*
X157148863Y-130327166D02*
X157094126Y-130272429D01*
D11*
X151489160Y-132184104D02*
X151965350Y-132184104D01*
X151393922Y-132469819D02*
X151727255Y-131469819D01*
X151727255Y-131469819D02*
X152060588Y-132469819D01*
X152393922Y-132469819D02*
X152393922Y-131469819D01*
X152393922Y-131469819D02*
X152632017Y-131469819D01*
X152632017Y-131469819D02*
X152774874Y-131517438D01*
X152774874Y-131517438D02*
X152870112Y-131612676D01*
X152870112Y-131612676D02*
X152917731Y-131707914D01*
X152917731Y-131707914D02*
X152965350Y-131898390D01*
X152965350Y-131898390D02*
X152965350Y-132041247D01*
X152965350Y-132041247D02*
X152917731Y-132231723D01*
X152917731Y-132231723D02*
X152870112Y-132326961D01*
X152870112Y-132326961D02*
X152774874Y-132422200D01*
X152774874Y-132422200D02*
X152632017Y-132469819D01*
X152632017Y-132469819D02*
X152393922Y-132469819D01*
X153965350Y-132374580D02*
X153917731Y-132422200D01*
X153917731Y-132422200D02*
X153774874Y-132469819D01*
X153774874Y-132469819D02*
X153679636Y-132469819D01*
X153679636Y-132469819D02*
X153536779Y-132422200D01*
X153536779Y-132422200D02*
X153441541Y-132326961D01*
X153441541Y-132326961D02*
X153393922Y-132231723D01*
X153393922Y-132231723D02*
X153346303Y-132041247D01*
X153346303Y-132041247D02*
X153346303Y-131898390D01*
X153346303Y-131898390D02*
X153393922Y-131707914D01*
X153393922Y-131707914D02*
X153441541Y-131612676D01*
X153441541Y-131612676D02*
X153536779Y-131517438D01*
X153536779Y-131517438D02*
X153679636Y-131469819D01*
X153679636Y-131469819D02*
X153774874Y-131469819D01*
X153774874Y-131469819D02*
X153917731Y-131517438D01*
X153917731Y-131517438D02*
X153965350Y-131565057D01*
D13*
%TO.C,FPC2*%
X147800000Y-138980000D02*
X147800000Y-139810000D01*
X147800000Y-142770000D02*
X147800000Y-143910000D01*
X147800000Y-143910000D02*
X160200000Y-143910000D01*
X149870000Y-138980000D02*
X147800000Y-138980000D01*
X158140000Y-139000000D02*
X160200000Y-139000000D01*
X160200000Y-139000000D02*
X160200000Y-139810000D01*
X160200000Y-142770000D02*
X160200000Y-143910000D01*
X158460000Y-138350000D02*
G75*
G02*
X158200000Y-138350000I-130000J0D01*
G01*
X158200000Y-138350000D02*
G75*
G02*
X158460000Y-138350000I130000J0D01*
G01*
D14*
%TO.C,RN4*%
X157220000Y-129050000D02*
X157220000Y-129550000D01*
X159580000Y-129050000D02*
X159580000Y-129550000D01*
%TO.C,RN2*%
X161050000Y-132120000D02*
X160550000Y-132120000D01*
X161050000Y-134480000D02*
X160550000Y-134480000D01*
%TO.C,RN1*%
X157220000Y-134950000D02*
X157220000Y-134450000D01*
X159580000Y-134950000D02*
X159580000Y-134450000D01*
%TO.C,C1*%
X151607836Y-127440000D02*
X151392164Y-127440000D01*
X151607836Y-128160000D02*
X151392164Y-128160000D01*
%TO.C,RN3*%
X161050000Y-129520000D02*
X160550000Y-129520000D01*
X161050000Y-131880000D02*
X160550000Y-131880000D01*
D15*
%TO.C,ADC1*%
X148030000Y-130005000D02*
X148030000Y-133995000D01*
X156770000Y-130005000D02*
X156770000Y-133995000D01*
D12*
X156900000Y-134900000D02*
G75*
G02*
X156700000Y-134900000I-100000J0D01*
G01*
X156700000Y-134900000D02*
G75*
G02*
X156900000Y-134900000I100000J0D01*
G01*
%TD*%
%LPC*%
D16*
X161275000Y-137200000D02*
G75*
G02*
X159725000Y-137200000I-775000J0D01*
G01*
X159725000Y-137200000D02*
G75*
G02*
X161275000Y-137200000I775000J0D01*
G01*
D17*
%TO.C,J1*%
X148500000Y-125500000D03*
D18*
X151040000Y-125500000D03*
X153580000Y-125500000D03*
X156120000Y-125500000D03*
X158660000Y-125500000D03*
X161200000Y-125500000D03*
%TD*%
D17*
%TO.C,J4*%
X148500000Y-122960000D03*
D18*
X151040000Y-122960000D03*
X153580000Y-122960000D03*
X156120000Y-122960000D03*
X158660000Y-122960000D03*
X161200000Y-122960000D03*
%TD*%
D19*
%TO.C,FPC2*%
X157750000Y-138710000D03*
X157250000Y-138710000D03*
X156750000Y-138710000D03*
X156250000Y-138710000D03*
X155750000Y-138710000D03*
X155250000Y-138710000D03*
X154750000Y-138710000D03*
X154250000Y-138710000D03*
X153750000Y-138710000D03*
X153250000Y-138710000D03*
X152750000Y-138710000D03*
X152250000Y-138710000D03*
X151750000Y-138710000D03*
X151250000Y-138710000D03*
X150750000Y-138710000D03*
X150250000Y-138710000D03*
D20*
X148560000Y-141290000D03*
X159440000Y-141290000D03*
%TD*%
D21*
%TO.C,RN4*%
X157650000Y-128800000D03*
D22*
X158150000Y-128800000D03*
X158650000Y-128800000D03*
D21*
X159150000Y-128800000D03*
X159150000Y-129800000D03*
D22*
X158650000Y-129800000D03*
X158150000Y-129800000D03*
D21*
X157650000Y-129800000D03*
%TD*%
D23*
%TO.C,RN2*%
X161300000Y-132550000D03*
D24*
X161300000Y-133050000D03*
X161300000Y-133550000D03*
D23*
X161300000Y-134050000D03*
X160300000Y-134050000D03*
D24*
X160300000Y-133550000D03*
X160300000Y-133050000D03*
D23*
X160300000Y-132550000D03*
%TD*%
D21*
%TO.C,RN1*%
X159150000Y-135200000D03*
D22*
X158650000Y-135200000D03*
X158150000Y-135200000D03*
D21*
X157650000Y-135200000D03*
X157650000Y-134200000D03*
D22*
X158150000Y-134200000D03*
X158650000Y-134200000D03*
D21*
X159150000Y-134200000D03*
%TD*%
D25*
%TO.C,C1*%
X151020000Y-127800000D03*
X151980000Y-127800000D03*
%TD*%
D23*
%TO.C,RN3*%
X161300000Y-129950000D03*
D24*
X161300000Y-130450000D03*
X161300000Y-130950000D03*
D23*
X161300000Y-131450000D03*
X160300000Y-131450000D03*
D24*
X160300000Y-130950000D03*
X160300000Y-130450000D03*
D23*
X160300000Y-129950000D03*
%TD*%
D26*
%TO.C,ADC1*%
X155892500Y-134835000D03*
X155257500Y-134835000D03*
X154622500Y-134835000D03*
X153987500Y-134835000D03*
X153352500Y-134835000D03*
X152717500Y-134835000D03*
X152082500Y-134835000D03*
X151447500Y-134835000D03*
X150812500Y-134835000D03*
X150177500Y-134835000D03*
X149542500Y-134835000D03*
X148907500Y-134835000D03*
X148907500Y-129165000D03*
X149542500Y-129165000D03*
X150177500Y-129165000D03*
X150812500Y-129165000D03*
X151447500Y-129165000D03*
X152082500Y-129165000D03*
X152717500Y-129165000D03*
X153352500Y-129165000D03*
X153987500Y-129165000D03*
X154622500Y-129165000D03*
X155257500Y-129165000D03*
X155892500Y-129165000D03*
%TD*%
%LPD*%
M02*
