%TF.GenerationSoftware,KiCad,Pcbnew,8.0.8-8.0.8-0~ubuntu24.04.1*%
%TF.CreationDate,2025-03-22T16:56:25+00:00*%
%TF.ProjectId,FSRrayDMUX-ADC,46535272-6179-4444-9d55-582d4144432e,rev?*%
%TF.SameCoordinates,Original*%
%TF.FileFunction,Copper,L1,Top*%
%TF.FilePolarity,Positive*%
%FSLAX46Y46*%
G04 Gerber Fmt 4.6, Leading zero omitted, Abs format (unit mm)*
G04 Created by KiCad (PCBNEW 8.0.8-8.0.8-0~ubuntu24.04.1) date 2025-03-22 16:56:25*
%MOMM*%
%LPD*%
G01*
G04 APERTURE LIST*
%TA.AperFunction,SMDPad,CuDef*%
%ADD10R,0.300000X1.250000*%
%TD*%
%TA.AperFunction,SMDPad,CuDef*%
%ADD11R,2.000000X2.500000*%
%TD*%
%TA.AperFunction,ComponentPad*%
%ADD12R,1.700000X1.700000*%
%TD*%
%TA.AperFunction,ComponentPad*%
%ADD13O,1.700000X1.700000*%
%TD*%
%TA.AperFunction,SMDPad,CuDef*%
%ADD14R,1.750000X0.450000*%
%TD*%
%TA.AperFunction,ViaPad*%
%ADD15C,0.400000*%
%TD*%
%TA.AperFunction,Conductor*%
%ADD16C,0.127000*%
%TD*%
G04 APERTURE END LIST*
D10*
%TO.P,FPC1,1,1*%
%TO.N,Net-(MUX1-I15)*%
X150250000Y-138710000D03*
%TO.P,FPC1,2,2*%
%TO.N,Net-(MUX1-I14)*%
X150750000Y-138710000D03*
%TO.P,FPC1,3,3*%
%TO.N,Net-(MUX1-I13)*%
X151250000Y-138710000D03*
%TO.P,FPC1,4,4*%
%TO.N,Net-(MUX1-I12)*%
X151750000Y-138710000D03*
%TO.P,FPC1,5,5*%
%TO.N,Net-(MUX1-I11)*%
X152250000Y-138710000D03*
%TO.P,FPC1,6,6*%
%TO.N,Net-(MUX1-I10)*%
X152750000Y-138710000D03*
%TO.P,FPC1,7,7*%
%TO.N,Net-(MUX1-I9)*%
X153250000Y-138710000D03*
%TO.P,FPC1,8,8*%
%TO.N,Net-(MUX1-I8)*%
X153750000Y-138710000D03*
%TO.P,FPC1,9,9*%
%TO.N,Net-(MUX1-I7)*%
X154250000Y-138710000D03*
%TO.P,FPC1,10,10*%
%TO.N,Net-(MUX1-I6)*%
X154750000Y-138710000D03*
%TO.P,FPC1,11,11*%
%TO.N,Net-(MUX1-I5)*%
X155250000Y-138710000D03*
%TO.P,FPC1,12,12*%
%TO.N,Net-(MUX1-I4)*%
X155750000Y-138710000D03*
%TO.P,FPC1,13,13*%
%TO.N,Net-(MUX1-I3)*%
X156250000Y-138710000D03*
%TO.P,FPC1,14,14*%
%TO.N,Net-(MUX1-I2)*%
X156750000Y-138710000D03*
%TO.P,FPC1,15,15*%
%TO.N,Net-(MUX1-I1)*%
X157250000Y-138710000D03*
%TO.P,FPC1,16,16*%
%TO.N,Net-(MUX1-I0)*%
X157750000Y-138710000D03*
D11*
%TO.P,FPC1,17,17*%
%TO.N,GND*%
X159440000Y-141290000D03*
%TO.P,FPC1,18,18*%
X148560000Y-141290000D03*
%TD*%
D12*
%TO.P,J1,1,Pin_1*%
%TO.N,/CS1*%
X148500000Y-125500000D03*
D13*
%TO.P,J1,2,Pin_2*%
%TO.N,/SCLK*%
X151040000Y-125500000D03*
%TO.P,J1,3,Pin_3*%
%TO.N,/MOSI*%
X153580000Y-125500000D03*
%TO.P,J1,4,Pin_4*%
%TO.N,/MISO*%
X156120000Y-125500000D03*
%TO.P,J1,5,Pin_5*%
%TO.N,/EOC1*%
X158660000Y-125500000D03*
%TO.P,J1,6,Pin_6*%
%TO.N,GND*%
X161200000Y-125500000D03*
%TD*%
D14*
%TO.P,MUX1,1,COM*%
%TO.N,+5V*%
X157600000Y-135875000D03*
%TO.P,MUX1,2,I7*%
%TO.N,Net-(MUX1-I7)*%
X157600000Y-135225000D03*
%TO.P,MUX1,3,I6*%
%TO.N,Net-(MUX1-I6)*%
X157600000Y-134575000D03*
%TO.P,MUX1,4,I5*%
%TO.N,Net-(MUX1-I5)*%
X157600000Y-133925000D03*
%TO.P,MUX1,5,I4*%
%TO.N,Net-(MUX1-I4)*%
X157600000Y-133275000D03*
%TO.P,MUX1,6,I3*%
%TO.N,Net-(MUX1-I3)*%
X157600000Y-132625000D03*
%TO.P,MUX1,7,I2*%
%TO.N,Net-(MUX1-I2)*%
X157600000Y-131975000D03*
%TO.P,MUX1,8,I1*%
%TO.N,Net-(MUX1-I1)*%
X157600000Y-131325000D03*
%TO.P,MUX1,9,I0*%
%TO.N,Net-(MUX1-I0)*%
X157600000Y-130675000D03*
%TO.P,MUX1,10,S0*%
%TO.N,/S0*%
X157600000Y-130025000D03*
%TO.P,MUX1,11,S1*%
%TO.N,/S1*%
X157600000Y-129375000D03*
%TO.P,MUX1,12,GND*%
%TO.N,GND*%
X157600000Y-128725000D03*
%TO.P,MUX1,13,S3*%
%TO.N,/S3*%
X150400000Y-128725000D03*
%TO.P,MUX1,14,S2*%
%TO.N,/S2*%
X150400000Y-129375000D03*
%TO.P,MUX1,15,~{E}*%
%TO.N,/EN1*%
X150400000Y-130025000D03*
%TO.P,MUX1,16,I15*%
%TO.N,Net-(MUX1-I15)*%
X150400000Y-130675000D03*
%TO.P,MUX1,17,I14*%
%TO.N,Net-(MUX1-I14)*%
X150400000Y-131325000D03*
%TO.P,MUX1,18,I13*%
%TO.N,Net-(MUX1-I13)*%
X150400000Y-131975000D03*
%TO.P,MUX1,19,I12*%
%TO.N,Net-(MUX1-I12)*%
X150400000Y-132625000D03*
%TO.P,MUX1,20,I11*%
%TO.N,Net-(MUX1-I11)*%
X150400000Y-133275000D03*
%TO.P,MUX1,21,I10*%
%TO.N,Net-(MUX1-I10)*%
X150400000Y-133925000D03*
%TO.P,MUX1,22,I9*%
%TO.N,Net-(MUX1-I9)*%
X150400000Y-134575000D03*
%TO.P,MUX1,23,I8*%
%TO.N,Net-(MUX1-I8)*%
X150400000Y-135225000D03*
%TO.P,MUX1,24,VCC*%
%TO.N,+5V*%
X150400000Y-135875000D03*
%TD*%
D12*
%TO.P,J4,1,Pin_1*%
%TO.N,/S3*%
X148500000Y-122960000D03*
D13*
%TO.P,J4,2,Pin_2*%
%TO.N,/S2*%
X151040000Y-122960000D03*
%TO.P,J4,3,Pin_3*%
%TO.N,/EN1*%
X153580000Y-122960000D03*
%TO.P,J4,4,Pin_4*%
%TO.N,+5V*%
X156120000Y-122960000D03*
%TO.P,J4,5,Pin_5*%
%TO.N,/S0*%
X158660000Y-122960000D03*
%TO.P,J4,6,Pin_6*%
%TO.N,/S1*%
X161200000Y-122960000D03*
%TD*%
D15*
%TO.N,+5V*%
X152717500Y-129365000D03*
%TO.N,GND*%
X159440000Y-141290000D03*
X148560000Y-141290000D03*
X151280000Y-127100000D03*
%TD*%
D16*
%TO.N,+5V*%
X154800000Y-124280000D02*
X156120000Y-122960000D01*
X152700000Y-129382500D02*
X152700000Y-135875000D01*
X152717500Y-129365000D02*
X154800000Y-127282500D01*
X154800000Y-127282500D02*
X154800000Y-124280000D01*
X152700000Y-135875000D02*
X157600000Y-135875000D01*
X152717500Y-129365000D02*
X152700000Y-129382500D01*
X150400000Y-135875000D02*
X152700000Y-135875000D01*
%TO.N,Net-(MUX1-I14)*%
X147754000Y-133140000D02*
X149569000Y-131325000D01*
X147754000Y-136894790D02*
X147754000Y-133140000D01*
X150750000Y-137958000D02*
X150652000Y-137860000D01*
X150750000Y-138710000D02*
X150750000Y-137958000D01*
X148719210Y-137860000D02*
X147754000Y-136894790D01*
X150652000Y-137860000D02*
X148719210Y-137860000D01*
X149569000Y-131325000D02*
X150400000Y-131325000D01*
%TO.N,Net-(MUX1-I7)*%
X158722000Y-136278000D02*
X158634000Y-136366000D01*
X154250000Y-137981790D02*
X154250000Y-138710000D01*
X158634000Y-136366000D02*
X155865790Y-136366000D01*
X155865790Y-136366000D02*
X154250000Y-137981790D01*
X157600000Y-135225000D02*
X158431000Y-135225000D01*
X158722000Y-135516000D02*
X158722000Y-136278000D01*
X158431000Y-135225000D02*
X158722000Y-135516000D01*
%TO.N,Net-(MUX1-I8)*%
X153750000Y-137950000D02*
X153750000Y-138710000D01*
X150400000Y-135225000D02*
X149398000Y-135225000D01*
X149398000Y-135225000D02*
X149334500Y-135288500D01*
X152136000Y-136336000D02*
X153750000Y-137950000D01*
X149334500Y-135288500D02*
X149334500Y-136270500D01*
X149334500Y-136270500D02*
X149400000Y-136336000D01*
X149400000Y-136336000D02*
X152136000Y-136336000D01*
%TO.N,Net-(MUX1-I4)*%
X159484000Y-134328000D02*
X158431000Y-133275000D01*
X155750000Y-138710000D02*
X155750000Y-137958000D01*
X159035160Y-137128000D02*
X159484000Y-136679160D01*
X158431000Y-133275000D02*
X157600000Y-133275000D01*
X155750000Y-137958000D02*
X156580000Y-137128000D01*
X156580000Y-137128000D02*
X159035160Y-137128000D01*
X159484000Y-136679160D02*
X159484000Y-134328000D01*
%TO.N,Net-(MUX1-I12)*%
X151750000Y-138710000D02*
X151750000Y-138098790D01*
X151003210Y-137352000D02*
X148929630Y-137352000D01*
X149398000Y-132625000D02*
X150400000Y-132625000D01*
X148262000Y-133761000D02*
X149398000Y-132625000D01*
X148929630Y-137352000D02*
X148262000Y-136684370D01*
X151750000Y-138098790D02*
X151003210Y-137352000D01*
X148262000Y-136684370D02*
X148262000Y-133761000D01*
%TO.N,Net-(MUX1-I3)*%
X159140370Y-137382000D02*
X159738000Y-136784370D01*
X158431000Y-132625000D02*
X157600000Y-132625000D01*
X156826000Y-137382000D02*
X159140370Y-137382000D01*
X156250000Y-137958000D02*
X156826000Y-137382000D01*
X156250000Y-138710000D02*
X156250000Y-137958000D01*
X159738000Y-136784370D02*
X159738000Y-133932000D01*
X159738000Y-133932000D02*
X158431000Y-132625000D01*
%TO.N,Net-(MUX1-I1)*%
X160246000Y-136994790D02*
X159346290Y-137894500D01*
X158431000Y-131325000D02*
X160246000Y-133140000D01*
X157600000Y-131325000D02*
X158431000Y-131325000D01*
X157250000Y-137958000D02*
X157250000Y-138710000D01*
X160246000Y-133140000D02*
X160246000Y-136994790D01*
X159346290Y-137894500D02*
X157313500Y-137894500D01*
X157313500Y-137894500D02*
X157250000Y-137958000D01*
%TO.N,Net-(MUX1-I13)*%
X148824420Y-137606000D02*
X148008000Y-136789580D01*
X151250000Y-137958000D02*
X150898000Y-137606000D01*
X148008000Y-136789580D02*
X148008000Y-133392000D01*
X148008000Y-133392000D02*
X149425000Y-131975000D01*
X151250000Y-138710000D02*
X151250000Y-137958000D01*
X149425000Y-131975000D02*
X150400000Y-131975000D01*
X150898000Y-137606000D02*
X148824420Y-137606000D01*
%TO.N,Net-(MUX1-I10)*%
X148770000Y-136473950D02*
X148770000Y-134724000D01*
X148770000Y-134724000D02*
X149569000Y-133925000D01*
X152750000Y-137958000D02*
X151636000Y-136844000D01*
X149569000Y-133925000D02*
X150400000Y-133925000D01*
X151636000Y-136844000D02*
X149140050Y-136844000D01*
X149140050Y-136844000D02*
X148770000Y-136473950D01*
X152750000Y-138710000D02*
X152750000Y-137958000D01*
%TO.N,Net-(MUX1-I11)*%
X148516000Y-134157000D02*
X149398000Y-133275000D01*
X149398000Y-133275000D02*
X150400000Y-133275000D01*
X151390000Y-137098000D02*
X149034840Y-137098000D01*
X152250000Y-138710000D02*
X152250000Y-137958000D01*
X149034840Y-137098000D02*
X148516000Y-136579160D01*
X152250000Y-137958000D02*
X151390000Y-137098000D01*
X148516000Y-136579160D02*
X148516000Y-134157000D01*
%TO.N,Net-(MUX1-I15)*%
X150400000Y-130675000D02*
X149569000Y-130675000D01*
X147500000Y-137000000D02*
X149210000Y-138710000D01*
X149569000Y-130675000D02*
X147500000Y-132744000D01*
X149210000Y-138710000D02*
X150250000Y-138710000D01*
X147500000Y-132744000D02*
X147500000Y-137000000D01*
%TO.N,Net-(MUX1-I5)*%
X155250000Y-138098790D02*
X156474790Y-136874000D01*
X158374710Y-133925000D02*
X157600000Y-133925000D01*
X155250000Y-138710000D02*
X155250000Y-138098790D01*
X156474790Y-136874000D02*
X158929950Y-136874000D01*
X159230000Y-134780290D02*
X158374710Y-133925000D01*
X158929950Y-136874000D02*
X159230000Y-136573950D01*
X159230000Y-136573950D02*
X159230000Y-134780290D01*
%TO.N,Net-(MUX1-I0)*%
X160500000Y-132744000D02*
X158431000Y-130675000D01*
X158890000Y-138710000D02*
X160500000Y-137100000D01*
X160500000Y-137100000D02*
X160500000Y-132744000D01*
X157750000Y-138710000D02*
X158890000Y-138710000D01*
X158431000Y-130675000D02*
X157600000Y-130675000D01*
%TO.N,Net-(MUX1-I2)*%
X156750000Y-138710000D02*
X156750000Y-137958000D01*
X156750000Y-137958000D02*
X157072000Y-137636000D01*
X159245580Y-137636000D02*
X159992000Y-136889580D01*
X158431000Y-131975000D02*
X157600000Y-131975000D01*
X159992000Y-133536000D02*
X158431000Y-131975000D01*
X157072000Y-137636000D02*
X159245580Y-137636000D01*
X159992000Y-136889580D02*
X159992000Y-133536000D01*
%TO.N,Net-(MUX1-I9)*%
X149398000Y-134575000D02*
X150400000Y-134575000D01*
X149024000Y-136368740D02*
X149024000Y-134949000D01*
X149024000Y-134949000D02*
X149398000Y-134575000D01*
X153250000Y-137958000D02*
X151882000Y-136590000D01*
X153250000Y-138710000D02*
X153250000Y-137958000D01*
X151882000Y-136590000D02*
X149245260Y-136590000D01*
X149245260Y-136590000D02*
X149024000Y-136368740D01*
%TO.N,Net-(MUX1-I6)*%
X154750000Y-137841000D02*
X155971000Y-136620000D01*
X158665500Y-134575000D02*
X157600000Y-134575000D01*
X155971000Y-136620000D02*
X158824740Y-136620000D01*
X158824740Y-136620000D02*
X158976000Y-136468740D01*
X154750000Y-138710000D02*
X154750000Y-137841000D01*
X158976000Y-134885500D02*
X158665500Y-134575000D01*
X158976000Y-136468740D02*
X158976000Y-134885500D01*
%TO.N,/EN1*%
X152454000Y-124086000D02*
X153580000Y-122960000D01*
X152454000Y-128973000D02*
X152454000Y-124086000D01*
X151402000Y-130025000D02*
X152454000Y-128973000D01*
X150400000Y-130025000D02*
X151402000Y-130025000D01*
%TO.N,/S3*%
X150369512Y-128725000D02*
X149800000Y-128155488D01*
X149800000Y-124260000D02*
X148500000Y-122960000D01*
X150400000Y-128725000D02*
X150369512Y-128725000D01*
X149800000Y-128155488D02*
X149800000Y-124260000D01*
%TO.N,/S2*%
X150400000Y-129375000D02*
X151402000Y-129375000D01*
X152200000Y-124120000D02*
X151040000Y-122960000D01*
X151402000Y-129375000D02*
X152200000Y-128577000D01*
X152200000Y-128577000D02*
X152200000Y-124120000D01*
%TO.N,/S1*%
X156300000Y-128906000D02*
X156300000Y-128400000D01*
X159900000Y-126800000D02*
X159900000Y-124260000D01*
X159163500Y-127536500D02*
X159900000Y-126800000D01*
X156300000Y-128400000D02*
X157163500Y-127536500D01*
X157600000Y-129375000D02*
X156769000Y-129375000D01*
X159900000Y-124260000D02*
X161200000Y-122960000D01*
X157163500Y-127536500D02*
X159163500Y-127536500D01*
X156769000Y-129375000D02*
X156300000Y-128906000D01*
%TO.N,/S0*%
X155700000Y-129127000D02*
X155700000Y-128300000D01*
X155700000Y-128300000D02*
X157400000Y-126600000D01*
X157400000Y-126600000D02*
X157400000Y-124220000D01*
X157400000Y-124220000D02*
X158660000Y-122960000D01*
X157600000Y-130025000D02*
X156598000Y-130025000D01*
X156598000Y-130025000D02*
X155700000Y-129127000D01*
%TD*%
%TA.AperFunction,Conductor*%
%TO.N,GND*%
G36*
X161450000Y-126830633D02*
G01*
X161663483Y-126773433D01*
X161663492Y-126773429D01*
X161877578Y-126673600D01*
X162071082Y-126538105D01*
X162238107Y-126371080D01*
X162263925Y-126334209D01*
X162318501Y-126290584D01*
X162388000Y-126283390D01*
X162450355Y-126314912D01*
X162485769Y-126375142D01*
X162489500Y-126405332D01*
X162489500Y-142494587D01*
X162489028Y-142505395D01*
X162475412Y-142661017D01*
X162471659Y-142682303D01*
X162432633Y-142827950D01*
X162425240Y-142848261D01*
X162361517Y-142984915D01*
X162350710Y-143003633D01*
X162264220Y-143127154D01*
X162250326Y-143143712D01*
X162143712Y-143250326D01*
X162127154Y-143264220D01*
X162003633Y-143350710D01*
X161984915Y-143361517D01*
X161848261Y-143425240D01*
X161827950Y-143432633D01*
X161682303Y-143471659D01*
X161661017Y-143475412D01*
X161527247Y-143487116D01*
X161505393Y-143489028D01*
X161494588Y-143489500D01*
X148205412Y-143489500D01*
X148194606Y-143489028D01*
X148169584Y-143486838D01*
X148038982Y-143475412D01*
X148017696Y-143471659D01*
X147872049Y-143432633D01*
X147851738Y-143425240D01*
X147715084Y-143361517D01*
X147696366Y-143350710D01*
X147574780Y-143265575D01*
X147531155Y-143210998D01*
X147523961Y-143141500D01*
X147555484Y-143079145D01*
X147615714Y-143043731D01*
X147645903Y-143040000D01*
X148310000Y-143040000D01*
X148810000Y-143040000D01*
X149607828Y-143040000D01*
X149607844Y-143039999D01*
X149667372Y-143033598D01*
X149667379Y-143033596D01*
X149802086Y-142983354D01*
X149802093Y-142983350D01*
X149917187Y-142897190D01*
X149917190Y-142897187D01*
X150003350Y-142782093D01*
X150003354Y-142782086D01*
X150053596Y-142647379D01*
X150053598Y-142647372D01*
X150059999Y-142587844D01*
X157940000Y-142587844D01*
X157946401Y-142647372D01*
X157946403Y-142647379D01*
X157996645Y-142782086D01*
X157996649Y-142782093D01*
X158082809Y-142897187D01*
X158082812Y-142897190D01*
X158197906Y-142983350D01*
X158197913Y-142983354D01*
X158332620Y-143033596D01*
X158332627Y-143033598D01*
X158392155Y-143039999D01*
X158392172Y-143040000D01*
X159190000Y-143040000D01*
X159690000Y-143040000D01*
X160487828Y-143040000D01*
X160487844Y-143039999D01*
X160547372Y-143033598D01*
X160547379Y-143033596D01*
X160682086Y-142983354D01*
X160682093Y-142983350D01*
X160797187Y-142897190D01*
X160797190Y-142897187D01*
X160883350Y-142782093D01*
X160883354Y-142782086D01*
X160933596Y-142647379D01*
X160933598Y-142647372D01*
X160939999Y-142587844D01*
X160940000Y-142587827D01*
X160940000Y-141540000D01*
X159690000Y-141540000D01*
X159690000Y-143040000D01*
X159190000Y-143040000D01*
X159190000Y-141540000D01*
X157940000Y-141540000D01*
X157940000Y-142587844D01*
X150059999Y-142587844D01*
X150060000Y-142587827D01*
X150060000Y-141540000D01*
X148810000Y-141540000D01*
X148810000Y-143040000D01*
X148310000Y-143040000D01*
X148310000Y-139540000D01*
X147512155Y-139540000D01*
X147452627Y-139546401D01*
X147452620Y-139546403D01*
X147377833Y-139574297D01*
X147308141Y-139579281D01*
X147246818Y-139545796D01*
X147213334Y-139484473D01*
X147210500Y-139458115D01*
X147210500Y-137807478D01*
X147230185Y-137740439D01*
X147282989Y-137694684D01*
X147352147Y-137684740D01*
X147415703Y-137713765D01*
X147422181Y-137719797D01*
X148754346Y-139051962D01*
X148754356Y-139051973D01*
X148758686Y-139056303D01*
X148758687Y-139056304D01*
X148863696Y-139161313D01*
X148992304Y-139235565D01*
X149135747Y-139274000D01*
X149135748Y-139274000D01*
X149476412Y-139274000D01*
X149543451Y-139293685D01*
X149589206Y-139346489D01*
X149599702Y-139384746D01*
X149601637Y-139402746D01*
X149589230Y-139471506D01*
X149541619Y-139522642D01*
X149478347Y-139540000D01*
X148810000Y-139540000D01*
X148810000Y-141040000D01*
X150060000Y-141040000D01*
X150060000Y-139992172D01*
X150059999Y-139992158D01*
X150057913Y-139972756D01*
X150070317Y-139903996D01*
X150117927Y-139852858D01*
X150181199Y-139835499D01*
X150447872Y-139835499D01*
X150447885Y-139835498D01*
X150486744Y-139831320D01*
X150513252Y-139831320D01*
X150552127Y-139835500D01*
X150947872Y-139835499D01*
X150947873Y-139835498D01*
X150947885Y-139835498D01*
X150986744Y-139831320D01*
X151013252Y-139831320D01*
X151052127Y-139835500D01*
X151447872Y-139835499D01*
X151447873Y-139835498D01*
X151447885Y-139835498D01*
X151486744Y-139831320D01*
X151513252Y-139831320D01*
X151552127Y-139835500D01*
X151947872Y-139835499D01*
X151947873Y-139835498D01*
X151947885Y-139835498D01*
X151986744Y-139831320D01*
X152013252Y-139831320D01*
X152052127Y-139835500D01*
X152447872Y-139835499D01*
X152447873Y-139835498D01*
X152447885Y-139835498D01*
X152486744Y-139831320D01*
X152513252Y-139831320D01*
X152552127Y-139835500D01*
X152947872Y-139835499D01*
X152947873Y-139835498D01*
X152947885Y-139835498D01*
X152986744Y-139831320D01*
X153013252Y-139831320D01*
X153052127Y-139835500D01*
X153447872Y-139835499D01*
X153447873Y-139835498D01*
X153447885Y-139835498D01*
X153486744Y-139831320D01*
X153513252Y-139831320D01*
X153552127Y-139835500D01*
X153947872Y-139835499D01*
X153947873Y-139835498D01*
X153947885Y-139835498D01*
X153986744Y-139831320D01*
X154013252Y-139831320D01*
X154052127Y-139835500D01*
X154447872Y-139835499D01*
X154447873Y-139835498D01*
X154447885Y-139835498D01*
X154486744Y-139831320D01*
X154513252Y-139831320D01*
X154552127Y-139835500D01*
X154947872Y-139835499D01*
X154947873Y-139835498D01*
X154947885Y-139835498D01*
X154986744Y-139831320D01*
X155013252Y-139831320D01*
X155052127Y-139835500D01*
X155447872Y-139835499D01*
X155447873Y-139835498D01*
X155447885Y-139835498D01*
X155486744Y-139831320D01*
X155513252Y-139831320D01*
X155552127Y-139835500D01*
X155947872Y-139835499D01*
X155947873Y-139835498D01*
X155947885Y-139835498D01*
X155986744Y-139831320D01*
X156013252Y-139831320D01*
X156052127Y-139835500D01*
X156447872Y-139835499D01*
X156447873Y-139835498D01*
X156447885Y-139835498D01*
X156486744Y-139831320D01*
X156513252Y-139831320D01*
X156552127Y-139835500D01*
X156947872Y-139835499D01*
X156947873Y-139835498D01*
X156947885Y-139835498D01*
X156986744Y-139831320D01*
X157013252Y-139831320D01*
X157052127Y-139835500D01*
X157447872Y-139835499D01*
X157447873Y-139835498D01*
X157447885Y-139835498D01*
X157486744Y-139831320D01*
X157513252Y-139831320D01*
X157552127Y-139835500D01*
X157818798Y-139835499D01*
X157885836Y-139855183D01*
X157931591Y-139907987D01*
X157942087Y-139972750D01*
X157940000Y-139992161D01*
X157940000Y-141040000D01*
X159190000Y-141040000D01*
X159690000Y-141040000D01*
X160940000Y-141040000D01*
X160940000Y-139992172D01*
X160939999Y-139992155D01*
X160933598Y-139932627D01*
X160933596Y-139932620D01*
X160883354Y-139797913D01*
X160883350Y-139797906D01*
X160797190Y-139682812D01*
X160797187Y-139682809D01*
X160682093Y-139596649D01*
X160682086Y-139596645D01*
X160547379Y-139546403D01*
X160547372Y-139546401D01*
X160487844Y-139540000D01*
X159690000Y-139540000D01*
X159690000Y-141040000D01*
X159190000Y-141040000D01*
X159190000Y-139540000D01*
X158521653Y-139540000D01*
X158454614Y-139520315D01*
X158408859Y-139467511D01*
X158398363Y-139402746D01*
X158400298Y-139384743D01*
X158427036Y-139320195D01*
X158484428Y-139280346D01*
X158523588Y-139274000D01*
X158964251Y-139274000D01*
X158964253Y-139274000D01*
X159107696Y-139235565D01*
X159236304Y-139161313D01*
X159341313Y-139056304D01*
X159341313Y-139056302D01*
X159351517Y-139046099D01*
X159351521Y-139046094D01*
X160836094Y-137561521D01*
X160836099Y-137561517D01*
X160846302Y-137551313D01*
X160846304Y-137551313D01*
X160951313Y-137446304D01*
X161025565Y-137317696D01*
X161031378Y-137296000D01*
X161064001Y-137174252D01*
X161064001Y-137025747D01*
X161064001Y-137018152D01*
X161064000Y-137018134D01*
X161064000Y-132669750D01*
X161064000Y-132669748D01*
X161025565Y-132526304D01*
X160951313Y-132397696D01*
X160846304Y-132292687D01*
X160846303Y-132292686D01*
X160841973Y-132288356D01*
X160841962Y-132288346D01*
X159008811Y-130455195D01*
X158975326Y-130393872D01*
X158973203Y-130380777D01*
X158971319Y-130363245D01*
X158971320Y-130336745D01*
X158975500Y-130297873D01*
X158975499Y-129752128D01*
X158975499Y-129752127D01*
X158975498Y-129752111D01*
X158971320Y-129713253D01*
X158971320Y-129686745D01*
X158975500Y-129647873D01*
X158975499Y-129102128D01*
X158971067Y-129060898D01*
X158971068Y-129034393D01*
X158974999Y-128997833D01*
X158975000Y-128997819D01*
X158975000Y-128950000D01*
X158959388Y-128934388D01*
X158945516Y-128930315D01*
X158913289Y-128900312D01*
X158874999Y-128849164D01*
X158832546Y-128792454D01*
X158832544Y-128792453D01*
X158832544Y-128792452D01*
X158740124Y-128723266D01*
X158698253Y-128667332D01*
X158693269Y-128597641D01*
X158726755Y-128536318D01*
X158788078Y-128502834D01*
X158814435Y-128500000D01*
X158975000Y-128500000D01*
X158975000Y-128452172D01*
X158974999Y-128452155D01*
X158968598Y-128392627D01*
X158968596Y-128392620D01*
X158922054Y-128267833D01*
X158917070Y-128198142D01*
X158950555Y-128136818D01*
X159011878Y-128103334D01*
X159038236Y-128100500D01*
X159237751Y-128100500D01*
X159237753Y-128100500D01*
X159381196Y-128062065D01*
X159509804Y-127987813D01*
X159614813Y-127882804D01*
X159614813Y-127882802D01*
X159625017Y-127872599D01*
X159625021Y-127872594D01*
X160236094Y-127261521D01*
X160236099Y-127261517D01*
X160246302Y-127251313D01*
X160246304Y-127251313D01*
X160351313Y-127146304D01*
X160425565Y-127017696D01*
X160444694Y-126946304D01*
X160464000Y-126874253D01*
X160464000Y-126840998D01*
X160483685Y-126773959D01*
X160536489Y-126728204D01*
X160605647Y-126718260D01*
X160640405Y-126728616D01*
X160736507Y-126773430D01*
X160736516Y-126773433D01*
X160950000Y-126830634D01*
X160950000Y-125933012D01*
X161007007Y-125965925D01*
X161134174Y-126000000D01*
X161265826Y-126000000D01*
X161392993Y-125965925D01*
X161450000Y-125933012D01*
X161450000Y-126830633D01*
G37*
%TD.AperFunction*%
%TA.AperFunction,Conductor*%
G36*
X150540400Y-126757145D02*
G01*
X150576337Y-126773903D01*
X150576343Y-126773904D01*
X150576344Y-126773905D01*
X150606298Y-126781931D01*
X150804592Y-126835063D01*
X150981034Y-126850500D01*
X151039999Y-126855659D01*
X151040000Y-126855659D01*
X151040001Y-126855659D01*
X151079234Y-126852226D01*
X151275408Y-126835063D01*
X151479908Y-126780268D01*
X151549757Y-126781931D01*
X151607619Y-126821094D01*
X151635123Y-126885322D01*
X151636000Y-126900043D01*
X151636000Y-127921871D01*
X151616315Y-127988910D01*
X151563511Y-128034665D01*
X151494353Y-128044609D01*
X151468667Y-128038053D01*
X151382482Y-128005908D01*
X151382483Y-128005908D01*
X151322883Y-127999501D01*
X151322881Y-127999500D01*
X151322873Y-127999500D01*
X151322865Y-127999500D01*
X150492991Y-127999500D01*
X150425952Y-127979815D01*
X150405301Y-127963172D01*
X150400310Y-127958180D01*
X150366831Y-127896854D01*
X150364000Y-127870508D01*
X150364000Y-126869529D01*
X150383685Y-126802490D01*
X150436489Y-126756735D01*
X150505647Y-126746791D01*
X150540400Y-126757145D01*
G37*
%TD.AperFunction*%
%TD*%
M02*
