%TF.GenerationSoftware,KiCad,Pcbnew,8.0.4-rc2-202407082205~7740c66479~ubuntu22.04.1*%
%TF.CreationDate,2024-07-18T15:30:21+01:00*%
%TF.ProjectId,LIS2DH_array,4c495332-4448-45f6-9172-7261792e6b69,rev?*%
%TF.SameCoordinates,Original*%
%TF.FileFunction,Other,Comment*%
%FSLAX46Y46*%
G04 Gerber Fmt 4.6, Leading zero omitted, Abs format (unit mm)*
G04 Created by KiCad (PCBNEW 8.0.4-rc2-202407082205~7740c66479~ubuntu22.04.1) date 2024-07-18 15:30:21*
%MOMM*%
%LPD*%
G01*
G04 APERTURE LIST*
%ADD10C,0.150000*%
G04 APERTURE END LIST*
D10*
%TO.C,U7*%
X130820000Y-94910000D02*
G75*
G02*
X130680000Y-94910000I-70000J0D01*
G01*
X130680000Y-94910000D02*
G75*
G02*
X130820000Y-94910000I70000J0D01*
G01*
%TO.C,U14*%
X114320000Y-125090000D02*
G75*
G02*
X114180000Y-125090000I-70000J0D01*
G01*
X114180000Y-125090000D02*
G75*
G02*
X114320000Y-125090000I70000J0D01*
G01*
%TO.C,U13*%
X99980000Y-124250000D02*
G75*
G02*
X99840000Y-124250000I-70000J0D01*
G01*
X99840000Y-124250000D02*
G75*
G02*
X99980000Y-124250000I70000J0D01*
G01*
%TO.C,U8*%
X145160000Y-95750000D02*
G75*
G02*
X145020000Y-95750000I-70000J0D01*
G01*
X145020000Y-95750000D02*
G75*
G02*
X145160000Y-95750000I70000J0D01*
G01*
%TO.C,U16*%
X144320000Y-125090000D02*
G75*
G02*
X144180000Y-125090000I-70000J0D01*
G01*
X144180000Y-125090000D02*
G75*
G02*
X144320000Y-125090000I70000J0D01*
G01*
%TO.C,U11*%
X130160000Y-110750000D02*
G75*
G02*
X130020000Y-110750000I-70000J0D01*
G01*
X130020000Y-110750000D02*
G75*
G02*
X130160000Y-110750000I70000J0D01*
G01*
%TO.C,U3*%
X130820000Y-79910000D02*
G75*
G02*
X130680000Y-79910000I-70000J0D01*
G01*
X130680000Y-79910000D02*
G75*
G02*
X130820000Y-79910000I70000J0D01*
G01*
%TO.C,U5*%
X99980000Y-94250000D02*
G75*
G02*
X99840000Y-94250000I-70000J0D01*
G01*
X99840000Y-94250000D02*
G75*
G02*
X99980000Y-94250000I70000J0D01*
G01*
%TO.C,U6*%
X114980000Y-94250000D02*
G75*
G02*
X114840000Y-94250000I-70000J0D01*
G01*
X114840000Y-94250000D02*
G75*
G02*
X114980000Y-94250000I70000J0D01*
G01*
%TO.C,U15*%
X129320000Y-125090000D02*
G75*
G02*
X129180000Y-125090000I-70000J0D01*
G01*
X129180000Y-125090000D02*
G75*
G02*
X129320000Y-125090000I70000J0D01*
G01*
%TO.C,U4*%
X145160000Y-80750000D02*
G75*
G02*
X145020000Y-80750000I-70000J0D01*
G01*
X145020000Y-80750000D02*
G75*
G02*
X145160000Y-80750000I70000J0D01*
G01*
%TO.C,U2*%
X115820000Y-79910000D02*
G75*
G02*
X115680000Y-79910000I-70000J0D01*
G01*
X115680000Y-79910000D02*
G75*
G02*
X115820000Y-79910000I70000J0D01*
G01*
%TO.C,U12*%
X145160000Y-110750000D02*
G75*
G02*
X145020000Y-110750000I-70000J0D01*
G01*
X145020000Y-110750000D02*
G75*
G02*
X145160000Y-110750000I70000J0D01*
G01*
%TO.C,U10*%
X114320000Y-110090000D02*
G75*
G02*
X114180000Y-110090000I-70000J0D01*
G01*
X114180000Y-110090000D02*
G75*
G02*
X114320000Y-110090000I70000J0D01*
G01*
%TO.C,U9*%
X99980000Y-109250000D02*
G75*
G02*
X99840000Y-109250000I-70000J0D01*
G01*
X99840000Y-109250000D02*
G75*
G02*
X99980000Y-109250000I70000J0D01*
G01*
%TO.C,U1*%
X100820000Y-79910000D02*
G75*
G02*
X100680000Y-79910000I-70000J0D01*
G01*
X100680000Y-79910000D02*
G75*
G02*
X100820000Y-79910000I70000J0D01*
G01*
%TD*%
M02*
