G04 #@! TF.GenerationSoftware,KiCad,Pcbnew,8.0.4-unknown-202407232306~396e531e7c~ubuntu22.04.1*
G04 #@! TF.CreationDate,2024-08-30T15:16:20+01:00*
G04 #@! TF.ProjectId,LIS3DH_array,4c495333-4448-45f6-9172-7261792e6b69,rev?*
G04 #@! TF.SameCoordinates,Original*
G04 #@! TF.FileFunction,Other,ECO1*
%FSLAX46Y46*%
G04 Gerber Fmt 4.6, Leading zero omitted, Abs format (unit mm)*
G04 Created by KiCad (PCBNEW 8.0.4-unknown-202407232306~396e531e7c~ubuntu22.04.1) date 2024-08-30 15:16:20*
%MOMM*%
%LPD*%
G01*
G04 APERTURE LIST*
G04 APERTURE END LIST*
G36*
X132001510Y-76900037D02*
G01*
X132097407Y-76902388D01*
X132118559Y-76904734D01*
X132308104Y-76942436D01*
X132331366Y-76949492D01*
X132508509Y-77022868D01*
X132529946Y-77034327D01*
X132689364Y-77140846D01*
X132708155Y-77156267D01*
X132843732Y-77291844D01*
X132859153Y-77310635D01*
X132965672Y-77470053D01*
X132977131Y-77491490D01*
X133050507Y-77668633D01*
X133057563Y-77691895D01*
X133095265Y-77881440D01*
X133097611Y-77902592D01*
X133099963Y-77998530D01*
X133100000Y-78001569D01*
X133100000Y-81998423D01*
X133099963Y-82001462D01*
X133097611Y-82097407D01*
X133095265Y-82118559D01*
X133057563Y-82308104D01*
X133050507Y-82331366D01*
X132977131Y-82508509D01*
X132965672Y-82529946D01*
X132859153Y-82689364D01*
X132843732Y-82708155D01*
X132708155Y-82843732D01*
X132689364Y-82859153D01*
X132529946Y-82965672D01*
X132508509Y-82977131D01*
X132331366Y-83050507D01*
X132308104Y-83057563D01*
X132118559Y-83095265D01*
X132097407Y-83097611D01*
X132001511Y-83099962D01*
X131998472Y-83099999D01*
X128001528Y-83099999D01*
X127998489Y-83099962D01*
X127902592Y-83097611D01*
X127881440Y-83095265D01*
X127691895Y-83057563D01*
X127668633Y-83050507D01*
X127491490Y-82977131D01*
X127470053Y-82965672D01*
X127310635Y-82859153D01*
X127291844Y-82843732D01*
X127156267Y-82708155D01*
X127140846Y-82689364D01*
X127034327Y-82529946D01*
X127022868Y-82508509D01*
X126949492Y-82331366D01*
X126942436Y-82308104D01*
X126904734Y-82118559D01*
X126902388Y-82097406D01*
X126900037Y-82001469D01*
X126900000Y-81998431D01*
X126900000Y-78001528D01*
X126900037Y-77998490D01*
X126902387Y-77902593D01*
X126904732Y-77881440D01*
X126942434Y-77691894D01*
X126949491Y-77668632D01*
X127022866Y-77491491D01*
X127034325Y-77470053D01*
X127140847Y-77310632D01*
X127156268Y-77291842D01*
X127291842Y-77156268D01*
X127310632Y-77140847D01*
X127470053Y-77034325D01*
X127491491Y-77022866D01*
X127668632Y-76949491D01*
X127691894Y-76942434D01*
X127881440Y-76904732D01*
X127902593Y-76902387D01*
X127998490Y-76900037D01*
X128001528Y-76900000D01*
X131998471Y-76900000D01*
X132001510Y-76900037D01*
G37*
G36*
X117001510Y-121900038D02*
G01*
X117097406Y-121902388D01*
X117118559Y-121904734D01*
X117308104Y-121942436D01*
X117331366Y-121949492D01*
X117508509Y-122022868D01*
X117529946Y-122034327D01*
X117689364Y-122140846D01*
X117708155Y-122156267D01*
X117843732Y-122291844D01*
X117859153Y-122310635D01*
X117965672Y-122470053D01*
X117977131Y-122491490D01*
X118050507Y-122668633D01*
X118057564Y-122691895D01*
X118095266Y-122881441D01*
X118097611Y-122902592D01*
X118099963Y-122998489D01*
X118100000Y-123001529D01*
X118100000Y-126998471D01*
X118099963Y-127001510D01*
X118097612Y-127097407D01*
X118095267Y-127118559D01*
X118057565Y-127308105D01*
X118050508Y-127331367D01*
X117977133Y-127508508D01*
X117965674Y-127529946D01*
X117859152Y-127689367D01*
X117843731Y-127708157D01*
X117708157Y-127843731D01*
X117689367Y-127859152D01*
X117529946Y-127965674D01*
X117508508Y-127977133D01*
X117331367Y-128050508D01*
X117308105Y-128057565D01*
X117118559Y-128095267D01*
X117097407Y-128097612D01*
X117001511Y-128099963D01*
X116998472Y-128100000D01*
X113350001Y-128100000D01*
X113001528Y-128099999D01*
X112998489Y-128099962D01*
X112902592Y-128097611D01*
X112881440Y-128095265D01*
X112691895Y-128057563D01*
X112668633Y-128050507D01*
X112491490Y-127977131D01*
X112470053Y-127965672D01*
X112310635Y-127859153D01*
X112291844Y-127843732D01*
X112156267Y-127708155D01*
X112140846Y-127689364D01*
X112034327Y-127529946D01*
X112022868Y-127508509D01*
X111949492Y-127331366D01*
X111942436Y-127308104D01*
X111904734Y-127118559D01*
X111902388Y-127097406D01*
X111900037Y-127001468D01*
X111900000Y-126998430D01*
X111900000Y-123001547D01*
X111900037Y-122998509D01*
X111902388Y-122902594D01*
X111904733Y-122881441D01*
X111942435Y-122691895D01*
X111949492Y-122668633D01*
X112022868Y-122491490D01*
X112034327Y-122470053D01*
X112140846Y-122310635D01*
X112156267Y-122291844D01*
X112291844Y-122156267D01*
X112310635Y-122140846D01*
X112470053Y-122034327D01*
X112491490Y-122022868D01*
X112668633Y-121949492D01*
X112691895Y-121942436D01*
X112881440Y-121904734D01*
X112902593Y-121902388D01*
X112998490Y-121900038D01*
X113001528Y-121900001D01*
X116998472Y-121900001D01*
X117001510Y-121900038D01*
G37*
G36*
X102001510Y-76900037D02*
G01*
X102097407Y-76902388D01*
X102118559Y-76904734D01*
X102308104Y-76942436D01*
X102331366Y-76949492D01*
X102508509Y-77022868D01*
X102529946Y-77034327D01*
X102689364Y-77140846D01*
X102708155Y-77156267D01*
X102843732Y-77291844D01*
X102859153Y-77310635D01*
X102965672Y-77470053D01*
X102977131Y-77491490D01*
X103050507Y-77668633D01*
X103057563Y-77691895D01*
X103095265Y-77881440D01*
X103097611Y-77902592D01*
X103099963Y-77998530D01*
X103100000Y-78001569D01*
X103100000Y-81998423D01*
X103099963Y-82001462D01*
X103097611Y-82097407D01*
X103095265Y-82118559D01*
X103057563Y-82308104D01*
X103050507Y-82331366D01*
X102977131Y-82508509D01*
X102965672Y-82529946D01*
X102859153Y-82689364D01*
X102843732Y-82708155D01*
X102708155Y-82843732D01*
X102689364Y-82859153D01*
X102529946Y-82965672D01*
X102508509Y-82977131D01*
X102331366Y-83050507D01*
X102308104Y-83057563D01*
X102118559Y-83095265D01*
X102097407Y-83097611D01*
X102001511Y-83099962D01*
X101998472Y-83099999D01*
X98001528Y-83099999D01*
X97998489Y-83099962D01*
X97902592Y-83097611D01*
X97881440Y-83095265D01*
X97691895Y-83057563D01*
X97668633Y-83050507D01*
X97491490Y-82977131D01*
X97470053Y-82965672D01*
X97310635Y-82859153D01*
X97291844Y-82843732D01*
X97156267Y-82708155D01*
X97140846Y-82689364D01*
X97034327Y-82529946D01*
X97022868Y-82508509D01*
X96949492Y-82331366D01*
X96942436Y-82308104D01*
X96904734Y-82118559D01*
X96902388Y-82097406D01*
X96900037Y-82001469D01*
X96900000Y-81998431D01*
X96900000Y-78001528D01*
X96900037Y-77998490D01*
X96902387Y-77902593D01*
X96904732Y-77881440D01*
X96942434Y-77691894D01*
X96949491Y-77668632D01*
X97022866Y-77491491D01*
X97034325Y-77470053D01*
X97140847Y-77310632D01*
X97156268Y-77291842D01*
X97291842Y-77156268D01*
X97310632Y-77140847D01*
X97470053Y-77034325D01*
X97491491Y-77022866D01*
X97668632Y-76949491D01*
X97691894Y-76942434D01*
X97881440Y-76904732D01*
X97902593Y-76902387D01*
X97998490Y-76900037D01*
X98001528Y-76900000D01*
X101998471Y-76900000D01*
X102001510Y-76900037D01*
G37*
G36*
X132001510Y-91900037D02*
G01*
X132097407Y-91902388D01*
X132118559Y-91904734D01*
X132308104Y-91942436D01*
X132331366Y-91949492D01*
X132508509Y-92022868D01*
X132529946Y-92034327D01*
X132689364Y-92140846D01*
X132708155Y-92156267D01*
X132843732Y-92291844D01*
X132859153Y-92310635D01*
X132965672Y-92470053D01*
X132977131Y-92491490D01*
X133050507Y-92668633D01*
X133057563Y-92691895D01*
X133095265Y-92881440D01*
X133097611Y-92902592D01*
X133099963Y-92998530D01*
X133100000Y-93001569D01*
X133100000Y-96998423D01*
X133099963Y-97001462D01*
X133097611Y-97097407D01*
X133095265Y-97118559D01*
X133057563Y-97308104D01*
X133050507Y-97331366D01*
X132977131Y-97508509D01*
X132965672Y-97529946D01*
X132859153Y-97689364D01*
X132843732Y-97708155D01*
X132708155Y-97843732D01*
X132689364Y-97859153D01*
X132529946Y-97965672D01*
X132508509Y-97977131D01*
X132331366Y-98050507D01*
X132308104Y-98057563D01*
X132118559Y-98095265D01*
X132097407Y-98097611D01*
X132001511Y-98099962D01*
X131998472Y-98099999D01*
X128001528Y-98099999D01*
X127998489Y-98099962D01*
X127902592Y-98097611D01*
X127881440Y-98095265D01*
X127691895Y-98057563D01*
X127668633Y-98050507D01*
X127491490Y-97977131D01*
X127470053Y-97965672D01*
X127310635Y-97859153D01*
X127291844Y-97843732D01*
X127156267Y-97708155D01*
X127140846Y-97689364D01*
X127034327Y-97529946D01*
X127022868Y-97508509D01*
X126949492Y-97331366D01*
X126942436Y-97308104D01*
X126904734Y-97118559D01*
X126902388Y-97097406D01*
X126900037Y-97001469D01*
X126900000Y-96998431D01*
X126900000Y-93001528D01*
X126900037Y-92998490D01*
X126902387Y-92902593D01*
X126904732Y-92881440D01*
X126942434Y-92691894D01*
X126949491Y-92668632D01*
X127022866Y-92491491D01*
X127034325Y-92470053D01*
X127140847Y-92310632D01*
X127156268Y-92291842D01*
X127291842Y-92156268D01*
X127310632Y-92140847D01*
X127470053Y-92034325D01*
X127491491Y-92022866D01*
X127668632Y-91949491D01*
X127691894Y-91942434D01*
X127881440Y-91904732D01*
X127902593Y-91902387D01*
X127998490Y-91900037D01*
X128001528Y-91900000D01*
X131998471Y-91900000D01*
X132001510Y-91900037D01*
G37*
G36*
X102001462Y-106900037D02*
G01*
X102097406Y-106902388D01*
X102118559Y-106904734D01*
X102308104Y-106942436D01*
X102331366Y-106949492D01*
X102508509Y-107022868D01*
X102529946Y-107034327D01*
X102689364Y-107140846D01*
X102708155Y-107156267D01*
X102843732Y-107291844D01*
X102859153Y-107310635D01*
X102965672Y-107470053D01*
X102977131Y-107491490D01*
X103050507Y-107668633D01*
X103057563Y-107691895D01*
X103095265Y-107881440D01*
X103097611Y-107902592D01*
X103099962Y-107998489D01*
X103099999Y-108001528D01*
X103099999Y-111998471D01*
X103099962Y-112001510D01*
X103097611Y-112097407D01*
X103095265Y-112118559D01*
X103057563Y-112308104D01*
X103050507Y-112331366D01*
X102977131Y-112508509D01*
X102965672Y-112529946D01*
X102859153Y-112689364D01*
X102843732Y-112708155D01*
X102708155Y-112843732D01*
X102689364Y-112859153D01*
X102529946Y-112965672D01*
X102508509Y-112977131D01*
X102331366Y-113050507D01*
X102308104Y-113057564D01*
X102118558Y-113095266D01*
X102097407Y-113097611D01*
X102001510Y-113099963D01*
X101998470Y-113100000D01*
X98001528Y-113100000D01*
X97998489Y-113099963D01*
X97902592Y-113097612D01*
X97881440Y-113095267D01*
X97691894Y-113057565D01*
X97668632Y-113050508D01*
X97491491Y-112977133D01*
X97470053Y-112965674D01*
X97310632Y-112859152D01*
X97291842Y-112843731D01*
X97156268Y-112708157D01*
X97140847Y-112689367D01*
X97034325Y-112529946D01*
X97022866Y-112508508D01*
X96949491Y-112331367D01*
X96942434Y-112308105D01*
X96904732Y-112118559D01*
X96902387Y-112097406D01*
X96900037Y-112001509D01*
X96900000Y-111998471D01*
X96900000Y-108001528D01*
X96900037Y-107998489D01*
X96902388Y-107902592D01*
X96904734Y-107881440D01*
X96942436Y-107691895D01*
X96949492Y-107668633D01*
X97022868Y-107491490D01*
X97034327Y-107470053D01*
X97140846Y-107310635D01*
X97156267Y-107291844D01*
X97291844Y-107156267D01*
X97310635Y-107140846D01*
X97470053Y-107034327D01*
X97491490Y-107022868D01*
X97668633Y-106949492D01*
X97691895Y-106942436D01*
X97881440Y-106904734D01*
X97902593Y-106902388D01*
X97998531Y-106900037D01*
X98001569Y-106900000D01*
X101998424Y-106900000D01*
X102001462Y-106900037D01*
G37*
G36*
X147001510Y-121900038D02*
G01*
X147097406Y-121902388D01*
X147118559Y-121904734D01*
X147308104Y-121942436D01*
X147331366Y-121949492D01*
X147508509Y-122022868D01*
X147529946Y-122034327D01*
X147689364Y-122140846D01*
X147708155Y-122156267D01*
X147843732Y-122291844D01*
X147859153Y-122310635D01*
X147965672Y-122470053D01*
X147977131Y-122491490D01*
X148050507Y-122668633D01*
X148057564Y-122691895D01*
X148095266Y-122881441D01*
X148097611Y-122902592D01*
X148099963Y-122998489D01*
X148100000Y-123001529D01*
X148100000Y-126998471D01*
X148099963Y-127001510D01*
X148097612Y-127097407D01*
X148095267Y-127118559D01*
X148057565Y-127308105D01*
X148050508Y-127331367D01*
X147977133Y-127508508D01*
X147965674Y-127529946D01*
X147859152Y-127689367D01*
X147843731Y-127708157D01*
X147708157Y-127843731D01*
X147689367Y-127859152D01*
X147529946Y-127965674D01*
X147508508Y-127977133D01*
X147331367Y-128050508D01*
X147308105Y-128057565D01*
X147118559Y-128095267D01*
X147097407Y-128097612D01*
X147001511Y-128099963D01*
X146998472Y-128100000D01*
X143350001Y-128100000D01*
X143001528Y-128099999D01*
X142998489Y-128099962D01*
X142902592Y-128097611D01*
X142881440Y-128095265D01*
X142691895Y-128057563D01*
X142668633Y-128050507D01*
X142491490Y-127977131D01*
X142470053Y-127965672D01*
X142310635Y-127859153D01*
X142291844Y-127843732D01*
X142156267Y-127708155D01*
X142140846Y-127689364D01*
X142034327Y-127529946D01*
X142022868Y-127508509D01*
X141949492Y-127331366D01*
X141942436Y-127308104D01*
X141904734Y-127118559D01*
X141902388Y-127097406D01*
X141900037Y-127001468D01*
X141900000Y-126998430D01*
X141900000Y-123001547D01*
X141900037Y-122998509D01*
X141902388Y-122902594D01*
X141904733Y-122881441D01*
X141942435Y-122691895D01*
X141949492Y-122668633D01*
X142022868Y-122491490D01*
X142034327Y-122470053D01*
X142140846Y-122310635D01*
X142156267Y-122291844D01*
X142291844Y-122156267D01*
X142310635Y-122140846D01*
X142470053Y-122034327D01*
X142491490Y-122022868D01*
X142668633Y-121949492D01*
X142691895Y-121942436D01*
X142881440Y-121904734D01*
X142902593Y-121902388D01*
X142998490Y-121900038D01*
X143001528Y-121900001D01*
X146998472Y-121900001D01*
X147001510Y-121900038D01*
G37*
G36*
X117001462Y-91900037D02*
G01*
X117097406Y-91902388D01*
X117118559Y-91904734D01*
X117308104Y-91942436D01*
X117331366Y-91949492D01*
X117508509Y-92022868D01*
X117529946Y-92034327D01*
X117689364Y-92140846D01*
X117708155Y-92156267D01*
X117843732Y-92291844D01*
X117859153Y-92310635D01*
X117965672Y-92470053D01*
X117977131Y-92491490D01*
X118050507Y-92668633D01*
X118057563Y-92691895D01*
X118095265Y-92881440D01*
X118097611Y-92902592D01*
X118099962Y-92998489D01*
X118099999Y-93001528D01*
X118099999Y-96998471D01*
X118099962Y-97001510D01*
X118097611Y-97097407D01*
X118095265Y-97118559D01*
X118057563Y-97308104D01*
X118050507Y-97331366D01*
X117977131Y-97508509D01*
X117965672Y-97529946D01*
X117859153Y-97689364D01*
X117843732Y-97708155D01*
X117708155Y-97843732D01*
X117689364Y-97859153D01*
X117529946Y-97965672D01*
X117508509Y-97977131D01*
X117331366Y-98050507D01*
X117308104Y-98057564D01*
X117118558Y-98095266D01*
X117097407Y-98097611D01*
X117001510Y-98099963D01*
X116998470Y-98100000D01*
X113001528Y-98100000D01*
X112998489Y-98099963D01*
X112902592Y-98097612D01*
X112881440Y-98095267D01*
X112691894Y-98057565D01*
X112668632Y-98050508D01*
X112491491Y-97977133D01*
X112470053Y-97965674D01*
X112310632Y-97859152D01*
X112291842Y-97843731D01*
X112156268Y-97708157D01*
X112140847Y-97689367D01*
X112034325Y-97529946D01*
X112022866Y-97508508D01*
X111949491Y-97331367D01*
X111942434Y-97308105D01*
X111904732Y-97118559D01*
X111902387Y-97097406D01*
X111900037Y-97001509D01*
X111900000Y-96998471D01*
X111900000Y-93001528D01*
X111900037Y-92998489D01*
X111902388Y-92902592D01*
X111904734Y-92881440D01*
X111942436Y-92691895D01*
X111949492Y-92668633D01*
X112022868Y-92491490D01*
X112034327Y-92470053D01*
X112140846Y-92310635D01*
X112156267Y-92291844D01*
X112291844Y-92156267D01*
X112310635Y-92140846D01*
X112470053Y-92034327D01*
X112491490Y-92022868D01*
X112668633Y-91949492D01*
X112691895Y-91942436D01*
X112881440Y-91904734D01*
X112902593Y-91902388D01*
X112998531Y-91900037D01*
X113001569Y-91900000D01*
X116998424Y-91900000D01*
X117001462Y-91900037D01*
G37*
G36*
X117001510Y-106900038D02*
G01*
X117097406Y-106902388D01*
X117118559Y-106904734D01*
X117308104Y-106942436D01*
X117331366Y-106949492D01*
X117508509Y-107022868D01*
X117529946Y-107034327D01*
X117689364Y-107140846D01*
X117708155Y-107156267D01*
X117843732Y-107291844D01*
X117859153Y-107310635D01*
X117965672Y-107470053D01*
X117977131Y-107491490D01*
X118050507Y-107668633D01*
X118057564Y-107691895D01*
X118095266Y-107881441D01*
X118097611Y-107902592D01*
X118099963Y-107998489D01*
X118100000Y-108001529D01*
X118100000Y-111998471D01*
X118099963Y-112001510D01*
X118097612Y-112097407D01*
X118095267Y-112118559D01*
X118057565Y-112308105D01*
X118050508Y-112331367D01*
X117977133Y-112508508D01*
X117965674Y-112529946D01*
X117859152Y-112689367D01*
X117843731Y-112708157D01*
X117708157Y-112843731D01*
X117689367Y-112859152D01*
X117529946Y-112965674D01*
X117508508Y-112977133D01*
X117331367Y-113050508D01*
X117308105Y-113057565D01*
X117118559Y-113095267D01*
X117097407Y-113097612D01*
X117001511Y-113099963D01*
X116998472Y-113100000D01*
X113350001Y-113100000D01*
X113001528Y-113099999D01*
X112998489Y-113099962D01*
X112902592Y-113097611D01*
X112881440Y-113095265D01*
X112691895Y-113057563D01*
X112668633Y-113050507D01*
X112491490Y-112977131D01*
X112470053Y-112965672D01*
X112310635Y-112859153D01*
X112291844Y-112843732D01*
X112156267Y-112708155D01*
X112140846Y-112689364D01*
X112034327Y-112529946D01*
X112022868Y-112508509D01*
X111949492Y-112331366D01*
X111942436Y-112308104D01*
X111904734Y-112118559D01*
X111902388Y-112097406D01*
X111900037Y-112001468D01*
X111900000Y-111998430D01*
X111900000Y-108001547D01*
X111900037Y-107998509D01*
X111902388Y-107902594D01*
X111904733Y-107881441D01*
X111942435Y-107691895D01*
X111949492Y-107668633D01*
X112022868Y-107491490D01*
X112034327Y-107470053D01*
X112140846Y-107310635D01*
X112156267Y-107291844D01*
X112291844Y-107156267D01*
X112310635Y-107140846D01*
X112470053Y-107034327D01*
X112491490Y-107022868D01*
X112668633Y-106949492D01*
X112691895Y-106942436D01*
X112881440Y-106904734D01*
X112902593Y-106902388D01*
X112998490Y-106900038D01*
X113001528Y-106900001D01*
X116998472Y-106900001D01*
X117001510Y-106900038D01*
G37*
G36*
X147001510Y-106900037D02*
G01*
X147097406Y-106902387D01*
X147118559Y-106904732D01*
X147308105Y-106942434D01*
X147331367Y-106949491D01*
X147508508Y-107022866D01*
X147529946Y-107034325D01*
X147689367Y-107140847D01*
X147708157Y-107156268D01*
X147843731Y-107291842D01*
X147859152Y-107310632D01*
X147965674Y-107470053D01*
X147977133Y-107491491D01*
X148050508Y-107668632D01*
X148057565Y-107691894D01*
X148095267Y-107881440D01*
X148097612Y-107902592D01*
X148099963Y-107998489D01*
X148100000Y-108001528D01*
X148100000Y-111649999D01*
X148099999Y-111998471D01*
X148099962Y-112001510D01*
X148097611Y-112097407D01*
X148095265Y-112118559D01*
X148057563Y-112308104D01*
X148050507Y-112331366D01*
X147977131Y-112508509D01*
X147965672Y-112529946D01*
X147859153Y-112689364D01*
X147843732Y-112708155D01*
X147708155Y-112843732D01*
X147689364Y-112859153D01*
X147529946Y-112965672D01*
X147508509Y-112977131D01*
X147331366Y-113050507D01*
X147308104Y-113057563D01*
X147118559Y-113095265D01*
X147097407Y-113097611D01*
X147001470Y-113099963D01*
X146998431Y-113100000D01*
X143001576Y-113100000D01*
X142998537Y-113099963D01*
X142902592Y-113097611D01*
X142881440Y-113095265D01*
X142691895Y-113057563D01*
X142668633Y-113050507D01*
X142491490Y-112977131D01*
X142470053Y-112965672D01*
X142310635Y-112859153D01*
X142291844Y-112843732D01*
X142156267Y-112708155D01*
X142140846Y-112689364D01*
X142034327Y-112529946D01*
X142022868Y-112508509D01*
X141949492Y-112331366D01*
X141942436Y-112308104D01*
X141904734Y-112118559D01*
X141902388Y-112097406D01*
X141900038Y-112001509D01*
X141900001Y-111998471D01*
X141900001Y-108001528D01*
X141900038Y-107998490D01*
X141902388Y-107902593D01*
X141904734Y-107881440D01*
X141942436Y-107691895D01*
X141949492Y-107668633D01*
X142022868Y-107491490D01*
X142034327Y-107470053D01*
X142140846Y-107310635D01*
X142156267Y-107291844D01*
X142291844Y-107156267D01*
X142310635Y-107140846D01*
X142470053Y-107034327D01*
X142491490Y-107022868D01*
X142668633Y-106949492D01*
X142691895Y-106942435D01*
X142881441Y-106904733D01*
X142902593Y-106902388D01*
X142998491Y-106900037D01*
X143001530Y-106900000D01*
X146998472Y-106900000D01*
X147001510Y-106900037D01*
G37*
G36*
X117001510Y-76900037D02*
G01*
X117097407Y-76902388D01*
X117118559Y-76904734D01*
X117308104Y-76942436D01*
X117331366Y-76949492D01*
X117508509Y-77022868D01*
X117529946Y-77034327D01*
X117689364Y-77140846D01*
X117708155Y-77156267D01*
X117843732Y-77291844D01*
X117859153Y-77310635D01*
X117965672Y-77470053D01*
X117977131Y-77491490D01*
X118050507Y-77668633D01*
X118057563Y-77691895D01*
X118095265Y-77881440D01*
X118097611Y-77902592D01*
X118099963Y-77998530D01*
X118100000Y-78001569D01*
X118100000Y-81998423D01*
X118099963Y-82001462D01*
X118097611Y-82097407D01*
X118095265Y-82118559D01*
X118057563Y-82308104D01*
X118050507Y-82331366D01*
X117977131Y-82508509D01*
X117965672Y-82529946D01*
X117859153Y-82689364D01*
X117843732Y-82708155D01*
X117708155Y-82843732D01*
X117689364Y-82859153D01*
X117529946Y-82965672D01*
X117508509Y-82977131D01*
X117331366Y-83050507D01*
X117308104Y-83057563D01*
X117118559Y-83095265D01*
X117097407Y-83097611D01*
X117001511Y-83099962D01*
X116998472Y-83099999D01*
X113001528Y-83099999D01*
X112998489Y-83099962D01*
X112902592Y-83097611D01*
X112881440Y-83095265D01*
X112691895Y-83057563D01*
X112668633Y-83050507D01*
X112491490Y-82977131D01*
X112470053Y-82965672D01*
X112310635Y-82859153D01*
X112291844Y-82843732D01*
X112156267Y-82708155D01*
X112140846Y-82689364D01*
X112034327Y-82529946D01*
X112022868Y-82508509D01*
X111949492Y-82331366D01*
X111942436Y-82308104D01*
X111904734Y-82118559D01*
X111902388Y-82097406D01*
X111900037Y-82001469D01*
X111900000Y-81998431D01*
X111900000Y-78001528D01*
X111900037Y-77998490D01*
X111902387Y-77902593D01*
X111904732Y-77881440D01*
X111942434Y-77691894D01*
X111949491Y-77668632D01*
X112022866Y-77491491D01*
X112034325Y-77470053D01*
X112140847Y-77310632D01*
X112156268Y-77291842D01*
X112291842Y-77156268D01*
X112310632Y-77140847D01*
X112470053Y-77034325D01*
X112491491Y-77022866D01*
X112668632Y-76949491D01*
X112691894Y-76942434D01*
X112881440Y-76904732D01*
X112902593Y-76902387D01*
X112998490Y-76900037D01*
X113001528Y-76900000D01*
X116998471Y-76900000D01*
X117001510Y-76900037D01*
G37*
G36*
X102001462Y-121900037D02*
G01*
X102097406Y-121902388D01*
X102118559Y-121904734D01*
X102308104Y-121942436D01*
X102331366Y-121949492D01*
X102508509Y-122022868D01*
X102529946Y-122034327D01*
X102689364Y-122140846D01*
X102708155Y-122156267D01*
X102843732Y-122291844D01*
X102859153Y-122310635D01*
X102965672Y-122470053D01*
X102977131Y-122491490D01*
X103050507Y-122668633D01*
X103057563Y-122691895D01*
X103095265Y-122881440D01*
X103097611Y-122902592D01*
X103099962Y-122998489D01*
X103099999Y-123001528D01*
X103099999Y-126998471D01*
X103099962Y-127001510D01*
X103097611Y-127097407D01*
X103095265Y-127118559D01*
X103057563Y-127308104D01*
X103050507Y-127331366D01*
X102977131Y-127508509D01*
X102965672Y-127529946D01*
X102859153Y-127689364D01*
X102843732Y-127708155D01*
X102708155Y-127843732D01*
X102689364Y-127859153D01*
X102529946Y-127965672D01*
X102508509Y-127977131D01*
X102331366Y-128050507D01*
X102308104Y-128057564D01*
X102118558Y-128095266D01*
X102097407Y-128097611D01*
X102001510Y-128099963D01*
X101998470Y-128100000D01*
X98001528Y-128100000D01*
X97998489Y-128099963D01*
X97902592Y-128097612D01*
X97881440Y-128095267D01*
X97691894Y-128057565D01*
X97668632Y-128050508D01*
X97491491Y-127977133D01*
X97470053Y-127965674D01*
X97310632Y-127859152D01*
X97291842Y-127843731D01*
X97156268Y-127708157D01*
X97140847Y-127689367D01*
X97034325Y-127529946D01*
X97022866Y-127508508D01*
X96949491Y-127331367D01*
X96942434Y-127308105D01*
X96904732Y-127118559D01*
X96902387Y-127097406D01*
X96900037Y-127001509D01*
X96900000Y-126998471D01*
X96900000Y-123001528D01*
X96900037Y-122998489D01*
X96902388Y-122902592D01*
X96904734Y-122881440D01*
X96942436Y-122691895D01*
X96949492Y-122668633D01*
X97022868Y-122491490D01*
X97034327Y-122470053D01*
X97140846Y-122310635D01*
X97156267Y-122291844D01*
X97291844Y-122156267D01*
X97310635Y-122140846D01*
X97470053Y-122034327D01*
X97491490Y-122022868D01*
X97668633Y-121949492D01*
X97691895Y-121942436D01*
X97881440Y-121904734D01*
X97902593Y-121902388D01*
X97998531Y-121900037D01*
X98001569Y-121900000D01*
X101998424Y-121900000D01*
X102001462Y-121900037D01*
G37*
G36*
X132001510Y-121900038D02*
G01*
X132097406Y-121902388D01*
X132118559Y-121904734D01*
X132308104Y-121942436D01*
X132331366Y-121949492D01*
X132508509Y-122022868D01*
X132529946Y-122034327D01*
X132689364Y-122140846D01*
X132708155Y-122156267D01*
X132843732Y-122291844D01*
X132859153Y-122310635D01*
X132965672Y-122470053D01*
X132977131Y-122491490D01*
X133050507Y-122668633D01*
X133057564Y-122691895D01*
X133095266Y-122881441D01*
X133097611Y-122902592D01*
X133099963Y-122998489D01*
X133100000Y-123001529D01*
X133100000Y-126998471D01*
X133099963Y-127001510D01*
X133097612Y-127097407D01*
X133095267Y-127118559D01*
X133057565Y-127308105D01*
X133050508Y-127331367D01*
X132977133Y-127508508D01*
X132965674Y-127529946D01*
X132859152Y-127689367D01*
X132843731Y-127708157D01*
X132708157Y-127843731D01*
X132689367Y-127859152D01*
X132529946Y-127965674D01*
X132508508Y-127977133D01*
X132331367Y-128050508D01*
X132308105Y-128057565D01*
X132118559Y-128095267D01*
X132097407Y-128097612D01*
X132001511Y-128099963D01*
X131998472Y-128100000D01*
X128350001Y-128100000D01*
X128001528Y-128099999D01*
X127998489Y-128099962D01*
X127902592Y-128097611D01*
X127881440Y-128095265D01*
X127691895Y-128057563D01*
X127668633Y-128050507D01*
X127491490Y-127977131D01*
X127470053Y-127965672D01*
X127310635Y-127859153D01*
X127291844Y-127843732D01*
X127156267Y-127708155D01*
X127140846Y-127689364D01*
X127034327Y-127529946D01*
X127022868Y-127508509D01*
X126949492Y-127331366D01*
X126942436Y-127308104D01*
X126904734Y-127118559D01*
X126902388Y-127097406D01*
X126900037Y-127001468D01*
X126900000Y-126998430D01*
X126900000Y-123001547D01*
X126900037Y-122998509D01*
X126902388Y-122902594D01*
X126904733Y-122881441D01*
X126942435Y-122691895D01*
X126949492Y-122668633D01*
X127022868Y-122491490D01*
X127034327Y-122470053D01*
X127140846Y-122310635D01*
X127156267Y-122291844D01*
X127291844Y-122156267D01*
X127310635Y-122140846D01*
X127470053Y-122034327D01*
X127491490Y-122022868D01*
X127668633Y-121949492D01*
X127691895Y-121942436D01*
X127881440Y-121904734D01*
X127902593Y-121902388D01*
X127998490Y-121900038D01*
X128001528Y-121900001D01*
X131998472Y-121900001D01*
X132001510Y-121900038D01*
G37*
G36*
X102001462Y-91900037D02*
G01*
X102097406Y-91902388D01*
X102118559Y-91904734D01*
X102308104Y-91942436D01*
X102331366Y-91949492D01*
X102508509Y-92022868D01*
X102529946Y-92034327D01*
X102689364Y-92140846D01*
X102708155Y-92156267D01*
X102843732Y-92291844D01*
X102859153Y-92310635D01*
X102965672Y-92470053D01*
X102977131Y-92491490D01*
X103050507Y-92668633D01*
X103057563Y-92691895D01*
X103095265Y-92881440D01*
X103097611Y-92902592D01*
X103099962Y-92998489D01*
X103099999Y-93001528D01*
X103099999Y-96998471D01*
X103099962Y-97001510D01*
X103097611Y-97097407D01*
X103095265Y-97118559D01*
X103057563Y-97308104D01*
X103050507Y-97331366D01*
X102977131Y-97508509D01*
X102965672Y-97529946D01*
X102859153Y-97689364D01*
X102843732Y-97708155D01*
X102708155Y-97843732D01*
X102689364Y-97859153D01*
X102529946Y-97965672D01*
X102508509Y-97977131D01*
X102331366Y-98050507D01*
X102308104Y-98057564D01*
X102118558Y-98095266D01*
X102097407Y-98097611D01*
X102001510Y-98099963D01*
X101998470Y-98100000D01*
X98001528Y-98100000D01*
X97998489Y-98099963D01*
X97902592Y-98097612D01*
X97881440Y-98095267D01*
X97691894Y-98057565D01*
X97668632Y-98050508D01*
X97491491Y-97977133D01*
X97470053Y-97965674D01*
X97310632Y-97859152D01*
X97291842Y-97843731D01*
X97156268Y-97708157D01*
X97140847Y-97689367D01*
X97034325Y-97529946D01*
X97022866Y-97508508D01*
X96949491Y-97331367D01*
X96942434Y-97308105D01*
X96904732Y-97118559D01*
X96902387Y-97097406D01*
X96900037Y-97001509D01*
X96900000Y-96998471D01*
X96900000Y-93001528D01*
X96900037Y-92998489D01*
X96902388Y-92902592D01*
X96904734Y-92881440D01*
X96942436Y-92691895D01*
X96949492Y-92668633D01*
X97022868Y-92491490D01*
X97034327Y-92470053D01*
X97140846Y-92310635D01*
X97156267Y-92291844D01*
X97291844Y-92156267D01*
X97310635Y-92140846D01*
X97470053Y-92034327D01*
X97491490Y-92022868D01*
X97668633Y-91949492D01*
X97691895Y-91942436D01*
X97881440Y-91904734D01*
X97902593Y-91902388D01*
X97998531Y-91900037D01*
X98001569Y-91900000D01*
X101998424Y-91900000D01*
X102001462Y-91900037D01*
G37*
G36*
X147001510Y-76900037D02*
G01*
X147097406Y-76902387D01*
X147118559Y-76904732D01*
X147308105Y-76942434D01*
X147331367Y-76949491D01*
X147508508Y-77022866D01*
X147529946Y-77034325D01*
X147689367Y-77140847D01*
X147708157Y-77156268D01*
X147843731Y-77291842D01*
X147859152Y-77310632D01*
X147965674Y-77470053D01*
X147977133Y-77491491D01*
X148050508Y-77668632D01*
X148057565Y-77691894D01*
X148095267Y-77881440D01*
X148097612Y-77902592D01*
X148099963Y-77998489D01*
X148100000Y-78001528D01*
X148100000Y-81649999D01*
X148099999Y-81998471D01*
X148099962Y-82001510D01*
X148097611Y-82097407D01*
X148095265Y-82118559D01*
X148057563Y-82308104D01*
X148050507Y-82331366D01*
X147977131Y-82508509D01*
X147965672Y-82529946D01*
X147859153Y-82689364D01*
X147843732Y-82708155D01*
X147708155Y-82843732D01*
X147689364Y-82859153D01*
X147529946Y-82965672D01*
X147508509Y-82977131D01*
X147331366Y-83050507D01*
X147308104Y-83057563D01*
X147118559Y-83095265D01*
X147097407Y-83097611D01*
X147001470Y-83099963D01*
X146998431Y-83100000D01*
X143001576Y-83100000D01*
X142998537Y-83099963D01*
X142902592Y-83097611D01*
X142881440Y-83095265D01*
X142691895Y-83057563D01*
X142668633Y-83050507D01*
X142491490Y-82977131D01*
X142470053Y-82965672D01*
X142310635Y-82859153D01*
X142291844Y-82843732D01*
X142156267Y-82708155D01*
X142140846Y-82689364D01*
X142034327Y-82529946D01*
X142022868Y-82508509D01*
X141949492Y-82331366D01*
X141942436Y-82308104D01*
X141904734Y-82118559D01*
X141902388Y-82097406D01*
X141900038Y-82001509D01*
X141900001Y-81998471D01*
X141900001Y-78001528D01*
X141900038Y-77998490D01*
X141902388Y-77902593D01*
X141904734Y-77881440D01*
X141942436Y-77691895D01*
X141949492Y-77668633D01*
X142022868Y-77491490D01*
X142034327Y-77470053D01*
X142140846Y-77310635D01*
X142156267Y-77291844D01*
X142291844Y-77156267D01*
X142310635Y-77140846D01*
X142470053Y-77034327D01*
X142491490Y-77022868D01*
X142668633Y-76949492D01*
X142691895Y-76942435D01*
X142881441Y-76904733D01*
X142902593Y-76902388D01*
X142998491Y-76900037D01*
X143001530Y-76900000D01*
X146998472Y-76900000D01*
X147001510Y-76900037D01*
G37*
G36*
X147001510Y-91900037D02*
G01*
X147097406Y-91902387D01*
X147118559Y-91904732D01*
X147308105Y-91942434D01*
X147331367Y-91949491D01*
X147508508Y-92022866D01*
X147529946Y-92034325D01*
X147689367Y-92140847D01*
X147708157Y-92156268D01*
X147843731Y-92291842D01*
X147859152Y-92310632D01*
X147965674Y-92470053D01*
X147977133Y-92491491D01*
X148050508Y-92668632D01*
X148057565Y-92691894D01*
X148095267Y-92881440D01*
X148097612Y-92902592D01*
X148099963Y-92998489D01*
X148100000Y-93001528D01*
X148100000Y-96649999D01*
X148099999Y-96998471D01*
X148099962Y-97001510D01*
X148097611Y-97097407D01*
X148095265Y-97118559D01*
X148057563Y-97308104D01*
X148050507Y-97331366D01*
X147977131Y-97508509D01*
X147965672Y-97529946D01*
X147859153Y-97689364D01*
X147843732Y-97708155D01*
X147708155Y-97843732D01*
X147689364Y-97859153D01*
X147529946Y-97965672D01*
X147508509Y-97977131D01*
X147331366Y-98050507D01*
X147308104Y-98057563D01*
X147118559Y-98095265D01*
X147097407Y-98097611D01*
X147001470Y-98099963D01*
X146998431Y-98100000D01*
X143001576Y-98100000D01*
X142998537Y-98099963D01*
X142902592Y-98097611D01*
X142881440Y-98095265D01*
X142691895Y-98057563D01*
X142668633Y-98050507D01*
X142491490Y-97977131D01*
X142470053Y-97965672D01*
X142310635Y-97859153D01*
X142291844Y-97843732D01*
X142156267Y-97708155D01*
X142140846Y-97689364D01*
X142034327Y-97529946D01*
X142022868Y-97508509D01*
X141949492Y-97331366D01*
X141942436Y-97308104D01*
X141904734Y-97118559D01*
X141902388Y-97097406D01*
X141900038Y-97001509D01*
X141900001Y-96998471D01*
X141900001Y-93001528D01*
X141900038Y-92998490D01*
X141902388Y-92902593D01*
X141904734Y-92881440D01*
X141942436Y-92691895D01*
X141949492Y-92668633D01*
X142022868Y-92491490D01*
X142034327Y-92470053D01*
X142140846Y-92310635D01*
X142156267Y-92291844D01*
X142291844Y-92156267D01*
X142310635Y-92140846D01*
X142470053Y-92034327D01*
X142491490Y-92022868D01*
X142668633Y-91949492D01*
X142691895Y-91942435D01*
X142881441Y-91904733D01*
X142902593Y-91902388D01*
X142998491Y-91900037D01*
X143001530Y-91900000D01*
X146998472Y-91900000D01*
X147001510Y-91900037D01*
G37*
G36*
X132001510Y-106900037D02*
G01*
X132097406Y-106902387D01*
X132118559Y-106904732D01*
X132308105Y-106942434D01*
X132331367Y-106949491D01*
X132508508Y-107022866D01*
X132529946Y-107034325D01*
X132689367Y-107140847D01*
X132708157Y-107156268D01*
X132843731Y-107291842D01*
X132859152Y-107310632D01*
X132965674Y-107470053D01*
X132977133Y-107491491D01*
X133050508Y-107668632D01*
X133057565Y-107691894D01*
X133095267Y-107881440D01*
X133097612Y-107902592D01*
X133099963Y-107998489D01*
X133100000Y-108001528D01*
X133100000Y-111649999D01*
X133099999Y-111998471D01*
X133099962Y-112001510D01*
X133097611Y-112097407D01*
X133095265Y-112118559D01*
X133057563Y-112308104D01*
X133050507Y-112331366D01*
X132977131Y-112508509D01*
X132965672Y-112529946D01*
X132859153Y-112689364D01*
X132843732Y-112708155D01*
X132708155Y-112843732D01*
X132689364Y-112859153D01*
X132529946Y-112965672D01*
X132508509Y-112977131D01*
X132331366Y-113050507D01*
X132308104Y-113057563D01*
X132118559Y-113095265D01*
X132097407Y-113097611D01*
X132001470Y-113099963D01*
X131998431Y-113100000D01*
X128001576Y-113100000D01*
X127998537Y-113099963D01*
X127902592Y-113097611D01*
X127881440Y-113095265D01*
X127691895Y-113057563D01*
X127668633Y-113050507D01*
X127491490Y-112977131D01*
X127470053Y-112965672D01*
X127310635Y-112859153D01*
X127291844Y-112843732D01*
X127156267Y-112708155D01*
X127140846Y-112689364D01*
X127034327Y-112529946D01*
X127022868Y-112508509D01*
X126949492Y-112331366D01*
X126942436Y-112308104D01*
X126904734Y-112118559D01*
X126902388Y-112097406D01*
X126900038Y-112001509D01*
X126900001Y-111998471D01*
X126900001Y-108001528D01*
X126900038Y-107998490D01*
X126902388Y-107902593D01*
X126904734Y-107881440D01*
X126942436Y-107691895D01*
X126949492Y-107668633D01*
X127022868Y-107491490D01*
X127034327Y-107470053D01*
X127140846Y-107310635D01*
X127156267Y-107291844D01*
X127291844Y-107156267D01*
X127310635Y-107140846D01*
X127470053Y-107034327D01*
X127491490Y-107022868D01*
X127668633Y-106949492D01*
X127691895Y-106942435D01*
X127881441Y-106904733D01*
X127902593Y-106902388D01*
X127998491Y-106900037D01*
X128001530Y-106900000D01*
X131998472Y-106900000D01*
X132001510Y-106900037D01*
G37*
G36*
X148343039Y-57519685D02*
G01*
X148388794Y-57572489D01*
X148400000Y-57624000D01*
X148400000Y-60648794D01*
X148399976Y-60651226D01*
X148397855Y-60759339D01*
X148396352Y-60776306D01*
X148362335Y-60991071D01*
X148357793Y-61009990D01*
X148290977Y-61215630D01*
X148283531Y-61233607D01*
X148185365Y-61426267D01*
X148175198Y-61442857D01*
X148048108Y-61617782D01*
X148035471Y-61632578D01*
X147882578Y-61785471D01*
X147867782Y-61798108D01*
X147692857Y-61925198D01*
X147676267Y-61935365D01*
X147483607Y-62033531D01*
X147465630Y-62040977D01*
X147259990Y-62107793D01*
X147241071Y-62112335D01*
X147026305Y-62146352D01*
X147009342Y-62147855D01*
X146901226Y-62149979D01*
X146898790Y-62150003D01*
X146650003Y-62150003D01*
X146541915Y-62152652D01*
X146541909Y-62152653D01*
X146323936Y-62196012D01*
X146323861Y-62195637D01*
X146294454Y-62200000D01*
X143705578Y-62200000D01*
X143676139Y-62195632D01*
X143676066Y-62196003D01*
X143458090Y-62152643D01*
X143349996Y-62149991D01*
X143101176Y-62149991D01*
X143098870Y-62149970D01*
X142990712Y-62147958D01*
X142973620Y-62146452D01*
X142758903Y-62112444D01*
X142739983Y-62107902D01*
X142534325Y-62041080D01*
X142516348Y-62033634D01*
X142323671Y-61935459D01*
X142307081Y-61925292D01*
X142132145Y-61798194D01*
X142117348Y-61785557D01*
X141964436Y-61632644D01*
X141951800Y-61617848D01*
X141824700Y-61442908D01*
X141814533Y-61426317D01*
X141716362Y-61233644D01*
X141708916Y-61215668D01*
X141642095Y-61010013D01*
X141637552Y-60991092D01*
X141603543Y-60776355D01*
X141602039Y-60759268D01*
X141600025Y-60651170D01*
X141600003Y-60648860D01*
X141600003Y-57624000D01*
X141619688Y-57556961D01*
X141672492Y-57511206D01*
X141724003Y-57500000D01*
X148276000Y-57500000D01*
X148343039Y-57519685D01*
G37*
G36*
X133343039Y-57519685D02*
G01*
X133388794Y-57572489D01*
X133400000Y-57624000D01*
X133400000Y-60648794D01*
X133399976Y-60651226D01*
X133397855Y-60759339D01*
X133396352Y-60776306D01*
X133362335Y-60991071D01*
X133357793Y-61009990D01*
X133290977Y-61215630D01*
X133283531Y-61233607D01*
X133185365Y-61426267D01*
X133175198Y-61442857D01*
X133048108Y-61617782D01*
X133035471Y-61632578D01*
X132882578Y-61785471D01*
X132867782Y-61798108D01*
X132692857Y-61925198D01*
X132676267Y-61935365D01*
X132483607Y-62033531D01*
X132465630Y-62040977D01*
X132259990Y-62107793D01*
X132241071Y-62112335D01*
X132026305Y-62146352D01*
X132009342Y-62147855D01*
X131901226Y-62149979D01*
X131898790Y-62150003D01*
X131650003Y-62150003D01*
X131541915Y-62152652D01*
X131541909Y-62152653D01*
X131323936Y-62196012D01*
X131323861Y-62195637D01*
X131294454Y-62200000D01*
X128705578Y-62200000D01*
X128676139Y-62195632D01*
X128676066Y-62196003D01*
X128458090Y-62152643D01*
X128349996Y-62149991D01*
X128101176Y-62149991D01*
X128098870Y-62149970D01*
X127990712Y-62147958D01*
X127973620Y-62146452D01*
X127758903Y-62112444D01*
X127739983Y-62107902D01*
X127534325Y-62041080D01*
X127516348Y-62033634D01*
X127323671Y-61935459D01*
X127307081Y-61925292D01*
X127132145Y-61798194D01*
X127117348Y-61785557D01*
X126964436Y-61632644D01*
X126951800Y-61617848D01*
X126824700Y-61442908D01*
X126814533Y-61426317D01*
X126716362Y-61233644D01*
X126708916Y-61215668D01*
X126642095Y-61010013D01*
X126637552Y-60991092D01*
X126603543Y-60776355D01*
X126602039Y-60759268D01*
X126600025Y-60651170D01*
X126600003Y-60648860D01*
X126600003Y-57624000D01*
X126619688Y-57556961D01*
X126672492Y-57511206D01*
X126724003Y-57500000D01*
X133276000Y-57500000D01*
X133343039Y-57519685D01*
G37*
G36*
X118343039Y-57519685D02*
G01*
X118388794Y-57572489D01*
X118400000Y-57624000D01*
X118400000Y-60648794D01*
X118399976Y-60651226D01*
X118397855Y-60759339D01*
X118396352Y-60776306D01*
X118362335Y-60991071D01*
X118357793Y-61009990D01*
X118290977Y-61215630D01*
X118283531Y-61233607D01*
X118185365Y-61426267D01*
X118175198Y-61442857D01*
X118048108Y-61617782D01*
X118035471Y-61632578D01*
X117882578Y-61785471D01*
X117867782Y-61798108D01*
X117692857Y-61925198D01*
X117676267Y-61935365D01*
X117483607Y-62033531D01*
X117465630Y-62040977D01*
X117259990Y-62107793D01*
X117241071Y-62112335D01*
X117026305Y-62146352D01*
X117009342Y-62147855D01*
X116901226Y-62149979D01*
X116898790Y-62150003D01*
X116650003Y-62150003D01*
X116541915Y-62152652D01*
X116541909Y-62152653D01*
X116323936Y-62196012D01*
X116323861Y-62195637D01*
X116294454Y-62200000D01*
X113705578Y-62200000D01*
X113676139Y-62195632D01*
X113676066Y-62196003D01*
X113458090Y-62152643D01*
X113349996Y-62149991D01*
X113101176Y-62149991D01*
X113098870Y-62149970D01*
X112990712Y-62147958D01*
X112973620Y-62146452D01*
X112758903Y-62112444D01*
X112739983Y-62107902D01*
X112534325Y-62041080D01*
X112516348Y-62033634D01*
X112323671Y-61935459D01*
X112307081Y-61925292D01*
X112132145Y-61798194D01*
X112117348Y-61785557D01*
X111964436Y-61632644D01*
X111951800Y-61617848D01*
X111824700Y-61442908D01*
X111814533Y-61426317D01*
X111716362Y-61233644D01*
X111708916Y-61215668D01*
X111642095Y-61010013D01*
X111637552Y-60991092D01*
X111603543Y-60776355D01*
X111602039Y-60759268D01*
X111600025Y-60651170D01*
X111600003Y-60648860D01*
X111600003Y-57624000D01*
X111619688Y-57556961D01*
X111672492Y-57511206D01*
X111724003Y-57500000D01*
X118276000Y-57500000D01*
X118343039Y-57519685D01*
G37*
G36*
X103343039Y-57519685D02*
G01*
X103388794Y-57572489D01*
X103400000Y-57624000D01*
X103400000Y-60648794D01*
X103399976Y-60651226D01*
X103397855Y-60759339D01*
X103396352Y-60776306D01*
X103362335Y-60991071D01*
X103357793Y-61009990D01*
X103290977Y-61215630D01*
X103283531Y-61233607D01*
X103185365Y-61426267D01*
X103175198Y-61442857D01*
X103048108Y-61617782D01*
X103035471Y-61632578D01*
X102882578Y-61785471D01*
X102867782Y-61798108D01*
X102692857Y-61925198D01*
X102676267Y-61935365D01*
X102483607Y-62033531D01*
X102465630Y-62040977D01*
X102259990Y-62107793D01*
X102241071Y-62112335D01*
X102026305Y-62146352D01*
X102009342Y-62147855D01*
X101901226Y-62149979D01*
X101898790Y-62150003D01*
X101650003Y-62150003D01*
X101541915Y-62152652D01*
X101541909Y-62152653D01*
X101323936Y-62196012D01*
X101323861Y-62195637D01*
X101294454Y-62200000D01*
X98705578Y-62200000D01*
X98676139Y-62195632D01*
X98676066Y-62196003D01*
X98458090Y-62152643D01*
X98349996Y-62149991D01*
X98101176Y-62149991D01*
X98098870Y-62149970D01*
X97990712Y-62147958D01*
X97973620Y-62146452D01*
X97758903Y-62112444D01*
X97739983Y-62107902D01*
X97534325Y-62041080D01*
X97516348Y-62033634D01*
X97323671Y-61935459D01*
X97307081Y-61925292D01*
X97132145Y-61798194D01*
X97117348Y-61785557D01*
X96964436Y-61632644D01*
X96951800Y-61617848D01*
X96824700Y-61442908D01*
X96814533Y-61426317D01*
X96716362Y-61233644D01*
X96708916Y-61215668D01*
X96642095Y-61010013D01*
X96637552Y-60991092D01*
X96603543Y-60776355D01*
X96602039Y-60759268D01*
X96600025Y-60651170D01*
X96600003Y-60648860D01*
X96600003Y-57624000D01*
X96619688Y-57556961D01*
X96672492Y-57511206D01*
X96724003Y-57500000D01*
X103276000Y-57500000D01*
X103343039Y-57519685D01*
G37*
G36*
X80651226Y-76600024D02*
G01*
X80759338Y-76602144D01*
X80776306Y-76603647D01*
X80991071Y-76637664D01*
X81009990Y-76642206D01*
X81215630Y-76709022D01*
X81233607Y-76716468D01*
X81426267Y-76814634D01*
X81442857Y-76824801D01*
X81617782Y-76951891D01*
X81632578Y-76964528D01*
X81785471Y-77117421D01*
X81798108Y-77132217D01*
X81925198Y-77307142D01*
X81935365Y-77323732D01*
X82033531Y-77516392D01*
X82040977Y-77534369D01*
X82107793Y-77740009D01*
X82112335Y-77758928D01*
X82146352Y-77973694D01*
X82147855Y-77990657D01*
X82149979Y-78098774D01*
X82150003Y-78101210D01*
X82150003Y-78349996D01*
X82152652Y-78458084D01*
X82152653Y-78458090D01*
X82196012Y-78676064D01*
X82195636Y-78676138D01*
X82200000Y-78705545D01*
X82200000Y-81294422D01*
X82195632Y-81323860D01*
X82196003Y-81323934D01*
X82152643Y-81541909D01*
X82149991Y-81650004D01*
X82149991Y-81898824D01*
X82149970Y-81901130D01*
X82147958Y-82009287D01*
X82146452Y-82026379D01*
X82112444Y-82241096D01*
X82107902Y-82260016D01*
X82041080Y-82465674D01*
X82033634Y-82483651D01*
X81935459Y-82676328D01*
X81925292Y-82692918D01*
X81798194Y-82867854D01*
X81785557Y-82882651D01*
X81632644Y-83035563D01*
X81617848Y-83048199D01*
X81442908Y-83175299D01*
X81426317Y-83185466D01*
X81233644Y-83283637D01*
X81215668Y-83291083D01*
X81010013Y-83357904D01*
X80991092Y-83362447D01*
X80776355Y-83396456D01*
X80759269Y-83397960D01*
X80651171Y-83399975D01*
X80648860Y-83399997D01*
X77624000Y-83399997D01*
X77556961Y-83380312D01*
X77511206Y-83327508D01*
X77500000Y-83275997D01*
X77500000Y-76724000D01*
X77519685Y-76656961D01*
X77572489Y-76611206D01*
X77624000Y-76600000D01*
X80648795Y-76600000D01*
X80651226Y-76600024D01*
G37*
G36*
X167443039Y-76619688D02*
G01*
X167488794Y-76672492D01*
X167500000Y-76724003D01*
X167500000Y-83276000D01*
X167480315Y-83343039D01*
X167427511Y-83388794D01*
X167376000Y-83400000D01*
X164351205Y-83400000D01*
X164348773Y-83399976D01*
X164240660Y-83397855D01*
X164223693Y-83396352D01*
X164008928Y-83362335D01*
X163990009Y-83357793D01*
X163784369Y-83290977D01*
X163766392Y-83283531D01*
X163573732Y-83185365D01*
X163557142Y-83175198D01*
X163382217Y-83048108D01*
X163367421Y-83035471D01*
X163214528Y-82882578D01*
X163201891Y-82867782D01*
X163074801Y-82692857D01*
X163064634Y-82676267D01*
X162966468Y-82483607D01*
X162959022Y-82465630D01*
X162892206Y-82259990D01*
X162887664Y-82241071D01*
X162853647Y-82026305D01*
X162852144Y-82009340D01*
X162850021Y-81901223D01*
X162849997Y-81898789D01*
X162849997Y-81650003D01*
X162847347Y-81541915D01*
X162847346Y-81541909D01*
X162803988Y-81323936D01*
X162804362Y-81323861D01*
X162800000Y-81294453D01*
X162800000Y-78705579D01*
X162804367Y-78676140D01*
X162803997Y-78676067D01*
X162847356Y-78458090D01*
X162850009Y-78349995D01*
X162850009Y-78101175D01*
X162850030Y-78098870D01*
X162852041Y-77990713D01*
X162853547Y-77973620D01*
X162887555Y-77758903D01*
X162892097Y-77739983D01*
X162958919Y-77534325D01*
X162966365Y-77516348D01*
X163064540Y-77323671D01*
X163074707Y-77307081D01*
X163201805Y-77132145D01*
X163214442Y-77117348D01*
X163367355Y-76964436D01*
X163382151Y-76951800D01*
X163557091Y-76824700D01*
X163573682Y-76814533D01*
X163766355Y-76716362D01*
X163784331Y-76708916D01*
X163989986Y-76642095D01*
X164008907Y-76637552D01*
X164223644Y-76603543D01*
X164240731Y-76602039D01*
X164348830Y-76600025D01*
X164351140Y-76600003D01*
X167376000Y-76600003D01*
X167443039Y-76619688D01*
G37*
G36*
X80651226Y-91600024D02*
G01*
X80759338Y-91602144D01*
X80776306Y-91603647D01*
X80991071Y-91637664D01*
X81009990Y-91642206D01*
X81215630Y-91709022D01*
X81233607Y-91716468D01*
X81426267Y-91814634D01*
X81442857Y-91824801D01*
X81617782Y-91951891D01*
X81632578Y-91964528D01*
X81785471Y-92117421D01*
X81798108Y-92132217D01*
X81925198Y-92307142D01*
X81935365Y-92323732D01*
X82033531Y-92516392D01*
X82040977Y-92534369D01*
X82107793Y-92740009D01*
X82112335Y-92758928D01*
X82146352Y-92973694D01*
X82147855Y-92990657D01*
X82149979Y-93098774D01*
X82150003Y-93101210D01*
X82150003Y-93349996D01*
X82152652Y-93458084D01*
X82152653Y-93458090D01*
X82196012Y-93676064D01*
X82195636Y-93676138D01*
X82200000Y-93705545D01*
X82200000Y-96294422D01*
X82195632Y-96323860D01*
X82196003Y-96323934D01*
X82152643Y-96541909D01*
X82149991Y-96650004D01*
X82149991Y-96898824D01*
X82149970Y-96901130D01*
X82147958Y-97009287D01*
X82146452Y-97026379D01*
X82112444Y-97241096D01*
X82107902Y-97260016D01*
X82041080Y-97465674D01*
X82033634Y-97483651D01*
X81935459Y-97676328D01*
X81925292Y-97692918D01*
X81798194Y-97867854D01*
X81785557Y-97882651D01*
X81632644Y-98035563D01*
X81617848Y-98048199D01*
X81442908Y-98175299D01*
X81426317Y-98185466D01*
X81233644Y-98283637D01*
X81215668Y-98291083D01*
X81010013Y-98357904D01*
X80991092Y-98362447D01*
X80776355Y-98396456D01*
X80759269Y-98397960D01*
X80651171Y-98399975D01*
X80648860Y-98399997D01*
X77624000Y-98399997D01*
X77556961Y-98380312D01*
X77511206Y-98327508D01*
X77500000Y-98275997D01*
X77500000Y-91724000D01*
X77519685Y-91656961D01*
X77572489Y-91611206D01*
X77624000Y-91600000D01*
X80648795Y-91600000D01*
X80651226Y-91600024D01*
G37*
G36*
X167443039Y-91619688D02*
G01*
X167488794Y-91672492D01*
X167500000Y-91724003D01*
X167500000Y-98276000D01*
X167480315Y-98343039D01*
X167427511Y-98388794D01*
X167376000Y-98400000D01*
X164351205Y-98400000D01*
X164348773Y-98399976D01*
X164240660Y-98397855D01*
X164223693Y-98396352D01*
X164008928Y-98362335D01*
X163990009Y-98357793D01*
X163784369Y-98290977D01*
X163766392Y-98283531D01*
X163573732Y-98185365D01*
X163557142Y-98175198D01*
X163382217Y-98048108D01*
X163367421Y-98035471D01*
X163214528Y-97882578D01*
X163201891Y-97867782D01*
X163074801Y-97692857D01*
X163064634Y-97676267D01*
X162966468Y-97483607D01*
X162959022Y-97465630D01*
X162892206Y-97259990D01*
X162887664Y-97241071D01*
X162853647Y-97026305D01*
X162852144Y-97009340D01*
X162850021Y-96901223D01*
X162849997Y-96898789D01*
X162849997Y-96650003D01*
X162847347Y-96541915D01*
X162847346Y-96541909D01*
X162803988Y-96323936D01*
X162804362Y-96323861D01*
X162800000Y-96294453D01*
X162800000Y-93705579D01*
X162804367Y-93676140D01*
X162803997Y-93676067D01*
X162847356Y-93458090D01*
X162850009Y-93349995D01*
X162850009Y-93101175D01*
X162850030Y-93098870D01*
X162852041Y-92990713D01*
X162853547Y-92973620D01*
X162887555Y-92758903D01*
X162892097Y-92739983D01*
X162958919Y-92534325D01*
X162966365Y-92516348D01*
X163064540Y-92323671D01*
X163074707Y-92307081D01*
X163201805Y-92132145D01*
X163214442Y-92117348D01*
X163367355Y-91964436D01*
X163382151Y-91951800D01*
X163557091Y-91824700D01*
X163573682Y-91814533D01*
X163766355Y-91716362D01*
X163784331Y-91708916D01*
X163989986Y-91642095D01*
X164008907Y-91637552D01*
X164223644Y-91603543D01*
X164240731Y-91602039D01*
X164348830Y-91600025D01*
X164351140Y-91600003D01*
X167376000Y-91600003D01*
X167443039Y-91619688D01*
G37*
G36*
X167443039Y-106619688D02*
G01*
X167488794Y-106672492D01*
X167500000Y-106724003D01*
X167500000Y-113276000D01*
X167480315Y-113343039D01*
X167427511Y-113388794D01*
X167376000Y-113400000D01*
X164351205Y-113400000D01*
X164348773Y-113399976D01*
X164240660Y-113397855D01*
X164223693Y-113396352D01*
X164008928Y-113362335D01*
X163990009Y-113357793D01*
X163784369Y-113290977D01*
X163766392Y-113283531D01*
X163573732Y-113185365D01*
X163557142Y-113175198D01*
X163382217Y-113048108D01*
X163367421Y-113035471D01*
X163214528Y-112882578D01*
X163201891Y-112867782D01*
X163074801Y-112692857D01*
X163064634Y-112676267D01*
X162966468Y-112483607D01*
X162959022Y-112465630D01*
X162892206Y-112259990D01*
X162887664Y-112241071D01*
X162853647Y-112026305D01*
X162852144Y-112009340D01*
X162850021Y-111901223D01*
X162849997Y-111898789D01*
X162849997Y-111650003D01*
X162847347Y-111541915D01*
X162847346Y-111541909D01*
X162803988Y-111323936D01*
X162804362Y-111323861D01*
X162800000Y-111294453D01*
X162800000Y-108705579D01*
X162804367Y-108676140D01*
X162803997Y-108676067D01*
X162847356Y-108458090D01*
X162850009Y-108349995D01*
X162850009Y-108101175D01*
X162850030Y-108098870D01*
X162852041Y-107990713D01*
X162853547Y-107973620D01*
X162887555Y-107758903D01*
X162892097Y-107739983D01*
X162958919Y-107534325D01*
X162966365Y-107516348D01*
X163064540Y-107323671D01*
X163074707Y-107307081D01*
X163201805Y-107132145D01*
X163214442Y-107117348D01*
X163367355Y-106964436D01*
X163382151Y-106951800D01*
X163557091Y-106824700D01*
X163573682Y-106814533D01*
X163766355Y-106716362D01*
X163784331Y-106708916D01*
X163989986Y-106642095D01*
X164008907Y-106637552D01*
X164223644Y-106603543D01*
X164240731Y-106602039D01*
X164348830Y-106600025D01*
X164351140Y-106600003D01*
X167376000Y-106600003D01*
X167443039Y-106619688D01*
G37*
G36*
X80651240Y-106600030D02*
G01*
X80759350Y-106602151D01*
X80776318Y-106603654D01*
X80991083Y-106637673D01*
X81010002Y-106642215D01*
X81215644Y-106709034D01*
X81233621Y-106716481D01*
X81426273Y-106814644D01*
X81442863Y-106824810D01*
X81617783Y-106951899D01*
X81632579Y-106964536D01*
X81785472Y-107117431D01*
X81798109Y-107132227D01*
X81925203Y-107307159D01*
X81935369Y-107323749D01*
X82033529Y-107516400D01*
X82040975Y-107534378D01*
X82107789Y-107740016D01*
X82112331Y-107758936D01*
X82146347Y-107973709D01*
X82147850Y-107990648D01*
X82149994Y-108098791D01*
X82150018Y-108101249D01*
X82150018Y-108285171D01*
X82148537Y-108290212D01*
X82152652Y-108458084D01*
X82152653Y-108458090D01*
X82196012Y-108676064D01*
X82195636Y-108676138D01*
X82200000Y-108705545D01*
X82200000Y-111294441D01*
X82195636Y-111323864D01*
X82196008Y-111323938D01*
X82152648Y-111541916D01*
X82150006Y-111649998D01*
X82150006Y-111898796D01*
X82149982Y-111901229D01*
X82147860Y-112009343D01*
X82146357Y-112026308D01*
X82112342Y-112241072D01*
X82107800Y-112259993D01*
X82040981Y-112465637D01*
X82033535Y-112483613D01*
X81935370Y-112676271D01*
X81925203Y-112692861D01*
X81798113Y-112867786D01*
X81785476Y-112882582D01*
X81632582Y-113035476D01*
X81617786Y-113048113D01*
X81442861Y-113175203D01*
X81426271Y-113185370D01*
X81233613Y-113283535D01*
X81215637Y-113290981D01*
X81009993Y-113357800D01*
X80991072Y-113362342D01*
X80776309Y-113396357D01*
X80759341Y-113397860D01*
X80651231Y-113399979D01*
X80648801Y-113400003D01*
X77624000Y-113400003D01*
X77556961Y-113380318D01*
X77511206Y-113327514D01*
X77500000Y-113276003D01*
X77500000Y-106724006D01*
X77519685Y-106656967D01*
X77572489Y-106611212D01*
X77624000Y-106600006D01*
X80648808Y-106600006D01*
X80651240Y-106600030D01*
G37*
G36*
X80651226Y-121600024D02*
G01*
X80759338Y-121602144D01*
X80776306Y-121603647D01*
X80991071Y-121637664D01*
X81009990Y-121642206D01*
X81215630Y-121709022D01*
X81233607Y-121716468D01*
X81426267Y-121814634D01*
X81442857Y-121824801D01*
X81617782Y-121951891D01*
X81632578Y-121964528D01*
X81785471Y-122117421D01*
X81798108Y-122132217D01*
X81925198Y-122307142D01*
X81935365Y-122323732D01*
X82033531Y-122516392D01*
X82040977Y-122534369D01*
X82107793Y-122740009D01*
X82112335Y-122758928D01*
X82146352Y-122973694D01*
X82147855Y-122990657D01*
X82149979Y-123098774D01*
X82150003Y-123101210D01*
X82150003Y-123349996D01*
X82152652Y-123458084D01*
X82152653Y-123458090D01*
X82196012Y-123676064D01*
X82195636Y-123676138D01*
X82200000Y-123705545D01*
X82200000Y-126294422D01*
X82195632Y-126323860D01*
X82196003Y-126323934D01*
X82152643Y-126541909D01*
X82149991Y-126650004D01*
X82149991Y-126898824D01*
X82149970Y-126901130D01*
X82147958Y-127009287D01*
X82146452Y-127026379D01*
X82112444Y-127241096D01*
X82107902Y-127260016D01*
X82041080Y-127465674D01*
X82033634Y-127483651D01*
X81935459Y-127676328D01*
X81925292Y-127692918D01*
X81798194Y-127867854D01*
X81785557Y-127882651D01*
X81632644Y-128035563D01*
X81617848Y-128048199D01*
X81442908Y-128175299D01*
X81426317Y-128185466D01*
X81233644Y-128283637D01*
X81215668Y-128291083D01*
X81010013Y-128357904D01*
X80991092Y-128362447D01*
X80776355Y-128396456D01*
X80759269Y-128397960D01*
X80651171Y-128399975D01*
X80648860Y-128399997D01*
X77624000Y-128399997D01*
X77556961Y-128380312D01*
X77511206Y-128327508D01*
X77500000Y-128275997D01*
X77500000Y-121724000D01*
X77519685Y-121656961D01*
X77572489Y-121611206D01*
X77624000Y-121600000D01*
X80648795Y-121600000D01*
X80651226Y-121600024D01*
G37*
G36*
X167443039Y-121619688D02*
G01*
X167488794Y-121672492D01*
X167500000Y-121724003D01*
X167500000Y-128276000D01*
X167480315Y-128343039D01*
X167427511Y-128388794D01*
X167376000Y-128400000D01*
X164351205Y-128400000D01*
X164348773Y-128399976D01*
X164240660Y-128397855D01*
X164223693Y-128396352D01*
X164008928Y-128362335D01*
X163990009Y-128357793D01*
X163784369Y-128290977D01*
X163766392Y-128283531D01*
X163573732Y-128185365D01*
X163557142Y-128175198D01*
X163382217Y-128048108D01*
X163367421Y-128035471D01*
X163214528Y-127882578D01*
X163201891Y-127867782D01*
X163074801Y-127692857D01*
X163064634Y-127676267D01*
X162966468Y-127483607D01*
X162959022Y-127465630D01*
X162892206Y-127259990D01*
X162887664Y-127241071D01*
X162853647Y-127026305D01*
X162852144Y-127009340D01*
X162850021Y-126901223D01*
X162849997Y-126898789D01*
X162849997Y-126650003D01*
X162847347Y-126541915D01*
X162847346Y-126541909D01*
X162803988Y-126323936D01*
X162804362Y-126323861D01*
X162800000Y-126294453D01*
X162800000Y-123705579D01*
X162804367Y-123676140D01*
X162803997Y-123676067D01*
X162847356Y-123458090D01*
X162850009Y-123349995D01*
X162850009Y-123101175D01*
X162850030Y-123098870D01*
X162852041Y-122990713D01*
X162853547Y-122973620D01*
X162887555Y-122758903D01*
X162892097Y-122739983D01*
X162958919Y-122534325D01*
X162966365Y-122516348D01*
X163064540Y-122323671D01*
X163074707Y-122307081D01*
X163201805Y-122132145D01*
X163214442Y-122117348D01*
X163367355Y-121964436D01*
X163382151Y-121951800D01*
X163557091Y-121824700D01*
X163573682Y-121814533D01*
X163766355Y-121716362D01*
X163784331Y-121708916D01*
X163989986Y-121642095D01*
X164008907Y-121637552D01*
X164223644Y-121603543D01*
X164240731Y-121602039D01*
X164348830Y-121600025D01*
X164351140Y-121600003D01*
X167376000Y-121600003D01*
X167443039Y-121619688D01*
G37*
G36*
X146323860Y-142804367D02*
G01*
X146323934Y-142803997D01*
X146541909Y-142847356D01*
X146650004Y-142850009D01*
X146898824Y-142850009D01*
X146901129Y-142850030D01*
X147009286Y-142852041D01*
X147026379Y-142853547D01*
X147241096Y-142887555D01*
X147260016Y-142892097D01*
X147465674Y-142958919D01*
X147483651Y-142966365D01*
X147676328Y-143064540D01*
X147692918Y-143074707D01*
X147867854Y-143201805D01*
X147882651Y-143214442D01*
X148035563Y-143367355D01*
X148048199Y-143382151D01*
X148175299Y-143557091D01*
X148185466Y-143573682D01*
X148283637Y-143766355D01*
X148291083Y-143784331D01*
X148357904Y-143989986D01*
X148362447Y-144008907D01*
X148396456Y-144223644D01*
X148397960Y-144240730D01*
X148399975Y-144348828D01*
X148399997Y-144351139D01*
X148399997Y-147376000D01*
X148380312Y-147443039D01*
X148327508Y-147488794D01*
X148275997Y-147500000D01*
X141724000Y-147500000D01*
X141656961Y-147480315D01*
X141611206Y-147427511D01*
X141600000Y-147376000D01*
X141600000Y-144351205D01*
X141600024Y-144348774D01*
X141602144Y-144240661D01*
X141603647Y-144223693D01*
X141637664Y-144008928D01*
X141642206Y-143990009D01*
X141709022Y-143784369D01*
X141716468Y-143766392D01*
X141814634Y-143573732D01*
X141824801Y-143557142D01*
X141951891Y-143382217D01*
X141964528Y-143367421D01*
X142117421Y-143214528D01*
X142132217Y-143201891D01*
X142307142Y-143074801D01*
X142323732Y-143064634D01*
X142516392Y-142966468D01*
X142534369Y-142959022D01*
X142740009Y-142892206D01*
X142758928Y-142887664D01*
X142973694Y-142853647D01*
X142990659Y-142852144D01*
X143098776Y-142850021D01*
X143101210Y-142849997D01*
X143349997Y-142849997D01*
X143458084Y-142847347D01*
X143458090Y-142847346D01*
X143676064Y-142803988D01*
X143676138Y-142804362D01*
X143705546Y-142800000D01*
X146294422Y-142800000D01*
X146323860Y-142804367D01*
G37*
G36*
X131323860Y-142804367D02*
G01*
X131323934Y-142803997D01*
X131541909Y-142847356D01*
X131650004Y-142850009D01*
X131898824Y-142850009D01*
X131901129Y-142850030D01*
X132009286Y-142852041D01*
X132026379Y-142853547D01*
X132241096Y-142887555D01*
X132260016Y-142892097D01*
X132465674Y-142958919D01*
X132483651Y-142966365D01*
X132676328Y-143064540D01*
X132692918Y-143074707D01*
X132867854Y-143201805D01*
X132882651Y-143214442D01*
X133035563Y-143367355D01*
X133048199Y-143382151D01*
X133175299Y-143557091D01*
X133185466Y-143573682D01*
X133283637Y-143766355D01*
X133291083Y-143784331D01*
X133357904Y-143989986D01*
X133362447Y-144008907D01*
X133396456Y-144223644D01*
X133397960Y-144240730D01*
X133399975Y-144348828D01*
X133399997Y-144351139D01*
X133399997Y-147376000D01*
X133380312Y-147443039D01*
X133327508Y-147488794D01*
X133275997Y-147500000D01*
X126724000Y-147500000D01*
X126656961Y-147480315D01*
X126611206Y-147427511D01*
X126600000Y-147376000D01*
X126600000Y-144351205D01*
X126600024Y-144348774D01*
X126602144Y-144240661D01*
X126603647Y-144223693D01*
X126637664Y-144008928D01*
X126642206Y-143990009D01*
X126709022Y-143784369D01*
X126716468Y-143766392D01*
X126814634Y-143573732D01*
X126824801Y-143557142D01*
X126951891Y-143382217D01*
X126964528Y-143367421D01*
X127117421Y-143214528D01*
X127132217Y-143201891D01*
X127307142Y-143074801D01*
X127323732Y-143064634D01*
X127516392Y-142966468D01*
X127534369Y-142959022D01*
X127740009Y-142892206D01*
X127758928Y-142887664D01*
X127973694Y-142853647D01*
X127990659Y-142852144D01*
X128098776Y-142850021D01*
X128101210Y-142849997D01*
X128349997Y-142849997D01*
X128458084Y-142847347D01*
X128458090Y-142847346D01*
X128676064Y-142803988D01*
X128676138Y-142804362D01*
X128705546Y-142800000D01*
X131294422Y-142800000D01*
X131323860Y-142804367D01*
G37*
G36*
X116323860Y-142804367D02*
G01*
X116323934Y-142803997D01*
X116541909Y-142847356D01*
X116650004Y-142850009D01*
X116898824Y-142850009D01*
X116901129Y-142850030D01*
X117009286Y-142852041D01*
X117026379Y-142853547D01*
X117241096Y-142887555D01*
X117260016Y-142892097D01*
X117465674Y-142958919D01*
X117483651Y-142966365D01*
X117676328Y-143064540D01*
X117692918Y-143074707D01*
X117867854Y-143201805D01*
X117882651Y-143214442D01*
X118035563Y-143367355D01*
X118048199Y-143382151D01*
X118175299Y-143557091D01*
X118185466Y-143573682D01*
X118283637Y-143766355D01*
X118291083Y-143784331D01*
X118357904Y-143989986D01*
X118362447Y-144008907D01*
X118396456Y-144223644D01*
X118397960Y-144240730D01*
X118399975Y-144348828D01*
X118399997Y-144351139D01*
X118399997Y-147376000D01*
X118380312Y-147443039D01*
X118327508Y-147488794D01*
X118275997Y-147500000D01*
X111724000Y-147500000D01*
X111656961Y-147480315D01*
X111611206Y-147427511D01*
X111600000Y-147376000D01*
X111600000Y-144351205D01*
X111600024Y-144348774D01*
X111602144Y-144240661D01*
X111603647Y-144223693D01*
X111637664Y-144008928D01*
X111642206Y-143990009D01*
X111709022Y-143784369D01*
X111716468Y-143766392D01*
X111814634Y-143573732D01*
X111824801Y-143557142D01*
X111951891Y-143382217D01*
X111964528Y-143367421D01*
X112117421Y-143214528D01*
X112132217Y-143201891D01*
X112307142Y-143074801D01*
X112323732Y-143064634D01*
X112516392Y-142966468D01*
X112534369Y-142959022D01*
X112740009Y-142892206D01*
X112758928Y-142887664D01*
X112973694Y-142853647D01*
X112990659Y-142852144D01*
X113098776Y-142850021D01*
X113101210Y-142849997D01*
X113349997Y-142849997D01*
X113458084Y-142847347D01*
X113458090Y-142847346D01*
X113676064Y-142803988D01*
X113676138Y-142804362D01*
X113705546Y-142800000D01*
X116294422Y-142800000D01*
X116323860Y-142804367D01*
G37*
G36*
X101323860Y-142804367D02*
G01*
X101323934Y-142803997D01*
X101541909Y-142847356D01*
X101650004Y-142850009D01*
X101898824Y-142850009D01*
X101901129Y-142850030D01*
X102009286Y-142852041D01*
X102026379Y-142853547D01*
X102241096Y-142887555D01*
X102260016Y-142892097D01*
X102465674Y-142958919D01*
X102483651Y-142966365D01*
X102676328Y-143064540D01*
X102692918Y-143074707D01*
X102867854Y-143201805D01*
X102882651Y-143214442D01*
X103035563Y-143367355D01*
X103048199Y-143382151D01*
X103175299Y-143557091D01*
X103185466Y-143573682D01*
X103283637Y-143766355D01*
X103291083Y-143784331D01*
X103357904Y-143989986D01*
X103362447Y-144008907D01*
X103396456Y-144223644D01*
X103397960Y-144240730D01*
X103399975Y-144348828D01*
X103399997Y-144351139D01*
X103399997Y-147376000D01*
X103380312Y-147443039D01*
X103327508Y-147488794D01*
X103275997Y-147500000D01*
X96724000Y-147500000D01*
X96656961Y-147480315D01*
X96611206Y-147427511D01*
X96600000Y-147376000D01*
X96600000Y-144351205D01*
X96600024Y-144348774D01*
X96602144Y-144240661D01*
X96603647Y-144223693D01*
X96637664Y-144008928D01*
X96642206Y-143990009D01*
X96709022Y-143784369D01*
X96716468Y-143766392D01*
X96814634Y-143573732D01*
X96824801Y-143557142D01*
X96951891Y-143382217D01*
X96964528Y-143367421D01*
X97117421Y-143214528D01*
X97132217Y-143201891D01*
X97307142Y-143074801D01*
X97323732Y-143064634D01*
X97516392Y-142966468D01*
X97534369Y-142959022D01*
X97740009Y-142892206D01*
X97758928Y-142887664D01*
X97973694Y-142853647D01*
X97990659Y-142852144D01*
X98098776Y-142850021D01*
X98101210Y-142849997D01*
X98349997Y-142849997D01*
X98458084Y-142847347D01*
X98458090Y-142847346D01*
X98676064Y-142803988D01*
X98676138Y-142804362D01*
X98705546Y-142800000D01*
X101294422Y-142800000D01*
X101323860Y-142804367D01*
G37*
G36*
X176000856Y-46000012D02*
G01*
X176162256Y-46002274D01*
X176174402Y-46003042D01*
X176495992Y-46039277D01*
X176509700Y-46041606D01*
X176824366Y-46113426D01*
X176837729Y-46117275D01*
X177142386Y-46223879D01*
X177155233Y-46229201D01*
X177446025Y-46369239D01*
X177458195Y-46375965D01*
X177731486Y-46547685D01*
X177742827Y-46555732D01*
X177995173Y-46756971D01*
X178005541Y-46766237D01*
X178233762Y-46994458D01*
X178243028Y-47004826D01*
X178444267Y-47257172D01*
X178452314Y-47268513D01*
X178624034Y-47541804D01*
X178630760Y-47553974D01*
X178770798Y-47844766D01*
X178776120Y-47857613D01*
X178882724Y-48162270D01*
X178886573Y-48175633D01*
X178958393Y-48490299D01*
X178960722Y-48504007D01*
X178996957Y-48825597D01*
X178997725Y-48837743D01*
X178999988Y-48999144D01*
X179000000Y-49000882D01*
X179000000Y-155999117D01*
X178999988Y-156000855D01*
X178997725Y-156162256D01*
X178996957Y-156174402D01*
X178960722Y-156495992D01*
X178958393Y-156509700D01*
X178886573Y-156824366D01*
X178882724Y-156837729D01*
X178776120Y-157142386D01*
X178770798Y-157155233D01*
X178630760Y-157446025D01*
X178624034Y-157458195D01*
X178452314Y-157731486D01*
X178444267Y-157742827D01*
X178243028Y-157995173D01*
X178233762Y-158005541D01*
X178005541Y-158233762D01*
X177995173Y-158243028D01*
X177742827Y-158444267D01*
X177731486Y-158452314D01*
X177458195Y-158624034D01*
X177446025Y-158630760D01*
X177155233Y-158770798D01*
X177142386Y-158776120D01*
X176837729Y-158882724D01*
X176824366Y-158886573D01*
X176509700Y-158958393D01*
X176495992Y-158960722D01*
X176174402Y-158996957D01*
X176162256Y-158997725D01*
X176000856Y-158999988D01*
X175999118Y-159000000D01*
X69000882Y-159000000D01*
X68999144Y-158999988D01*
X68837743Y-158997725D01*
X68825597Y-158996957D01*
X68504007Y-158960722D01*
X68490299Y-158958393D01*
X68175633Y-158886573D01*
X68162270Y-158882724D01*
X67857613Y-158776120D01*
X67844766Y-158770798D01*
X67553974Y-158630760D01*
X67541804Y-158624034D01*
X67268513Y-158452314D01*
X67257172Y-158444267D01*
X67004826Y-158243028D01*
X66994458Y-158233762D01*
X66766237Y-158005541D01*
X66756971Y-157995173D01*
X66555732Y-157742827D01*
X66547685Y-157731486D01*
X66375965Y-157458195D01*
X66369239Y-157446025D01*
X66229201Y-157155233D01*
X66223879Y-157142386D01*
X66117275Y-156837729D01*
X66113426Y-156824366D01*
X66041606Y-156509700D01*
X66039277Y-156495992D01*
X66003042Y-156174402D01*
X66002274Y-156162256D01*
X66000012Y-156000855D01*
X66000006Y-156000000D01*
X67997422Y-156000000D01*
X68017943Y-156201819D01*
X68078669Y-156395364D01*
X68078676Y-156395379D01*
X68177118Y-156572738D01*
X68177121Y-156572743D01*
X68309255Y-156726660D01*
X68309256Y-156726662D01*
X68469668Y-156850829D01*
X68651798Y-156940169D01*
X68848182Y-156991016D01*
X68848179Y-156991016D01*
X69050780Y-157001291D01*
X69050782Y-157001291D01*
X69251294Y-156970573D01*
X69251300Y-156970572D01*
X69441522Y-156900122D01*
X69441529Y-156900119D01*
X69613685Y-156792813D01*
X69760715Y-156653051D01*
X69876600Y-156486554D01*
X69956600Y-156300133D01*
X69997435Y-156101424D01*
X70000000Y-156000014D01*
X70000000Y-156000000D01*
X174997422Y-156000000D01*
X175017943Y-156201819D01*
X175078669Y-156395364D01*
X175078676Y-156395379D01*
X175177118Y-156572738D01*
X175177121Y-156572743D01*
X175309255Y-156726660D01*
X175309256Y-156726662D01*
X175469668Y-156850829D01*
X175651798Y-156940169D01*
X175848182Y-156991016D01*
X175848179Y-156991016D01*
X176050780Y-157001291D01*
X176050782Y-157001291D01*
X176251294Y-156970573D01*
X176251300Y-156970572D01*
X176441522Y-156900122D01*
X176441529Y-156900119D01*
X176613685Y-156792813D01*
X176760715Y-156653051D01*
X176876600Y-156486554D01*
X176956600Y-156300133D01*
X176997435Y-156101424D01*
X177000000Y-156000014D01*
X177000000Y-155999985D01*
X176997435Y-155898575D01*
X176956600Y-155699866D01*
X176876600Y-155513445D01*
X176760715Y-155346948D01*
X176613685Y-155207186D01*
X176441529Y-155099880D01*
X176441522Y-155099877D01*
X176251300Y-155029427D01*
X176251294Y-155029426D01*
X176050781Y-154998708D01*
X175848181Y-155008983D01*
X175651798Y-155059830D01*
X175469668Y-155149170D01*
X175309256Y-155273337D01*
X175309255Y-155273339D01*
X175177121Y-155427256D01*
X175177118Y-155427261D01*
X175078676Y-155604620D01*
X175078669Y-155604635D01*
X175017943Y-155798180D01*
X174997422Y-156000000D01*
X70000000Y-156000000D01*
X70000000Y-155999985D01*
X69997435Y-155898575D01*
X69956600Y-155699866D01*
X69876600Y-155513445D01*
X69760715Y-155346948D01*
X69613685Y-155207186D01*
X69441529Y-155099880D01*
X69441522Y-155099877D01*
X69251300Y-155029427D01*
X69251294Y-155029426D01*
X69050781Y-154998708D01*
X68848181Y-155008983D01*
X68651798Y-155059830D01*
X68469668Y-155149170D01*
X68309256Y-155273337D01*
X68309255Y-155273339D01*
X68177121Y-155427256D01*
X68177118Y-155427261D01*
X68078676Y-155604620D01*
X68078669Y-155604635D01*
X68017943Y-155798180D01*
X67997422Y-156000000D01*
X66000006Y-156000000D01*
X66000000Y-155999117D01*
X66000000Y-84899333D01*
X74999989Y-84899333D01*
X75000000Y-89476259D01*
X75000000Y-99898218D01*
X74999989Y-99899333D01*
X75000000Y-102018519D01*
X75000000Y-129898218D01*
X74999989Y-129899334D01*
X74999999Y-147499987D01*
X75002561Y-147663688D01*
X75002561Y-147663700D01*
X75045292Y-147988262D01*
X75045294Y-147988273D01*
X75130024Y-148304494D01*
X75255307Y-148606954D01*
X75255312Y-148606965D01*
X75418999Y-148890478D01*
X75618295Y-149150207D01*
X75618300Y-149150213D01*
X75849785Y-149381697D01*
X76109519Y-149580998D01*
X76109526Y-149581003D01*
X76393038Y-149744689D01*
X76393047Y-149744693D01*
X76695497Y-149869972D01*
X77011731Y-149954707D01*
X77336304Y-149997438D01*
X77476338Y-149999628D01*
X77478136Y-150000000D01*
X104898219Y-150000000D01*
X104899337Y-150000010D01*
X109666666Y-150000000D01*
X119898219Y-150000000D01*
X119899337Y-150000010D01*
X124666666Y-150000000D01*
X134898219Y-150000000D01*
X134899337Y-150000010D01*
X139666666Y-150000000D01*
X149898219Y-150000000D01*
X149899337Y-150000010D01*
X167499999Y-150000000D01*
X167543424Y-150000000D01*
X167550224Y-149999213D01*
X167663689Y-149997438D01*
X167663700Y-149997438D01*
X167988262Y-149954707D01*
X167988273Y-149954705D01*
X168304494Y-149869975D01*
X168606954Y-149744692D01*
X168606965Y-149744687D01*
X168890478Y-149581000D01*
X169150207Y-149381704D01*
X169150213Y-149381699D01*
X169381697Y-149150214D01*
X169580998Y-148890480D01*
X169581003Y-148890473D01*
X169744689Y-148606961D01*
X169744693Y-148606952D01*
X169869972Y-148304502D01*
X169954707Y-147988268D01*
X169997438Y-147663701D01*
X169997438Y-147663689D01*
X169999714Y-147518164D01*
X170000000Y-147516787D01*
X170000000Y-120101783D01*
X170000010Y-120100664D01*
X170000000Y-115191798D01*
X170000000Y-105101783D01*
X170000010Y-105100664D01*
X170000000Y-100333334D01*
X170000000Y-90101783D01*
X170000010Y-90100664D01*
X170000000Y-85333334D01*
X170000000Y-75101783D01*
X170000010Y-75100664D01*
X170000000Y-57500012D01*
X169997438Y-57336311D01*
X169997438Y-57336299D01*
X169954707Y-57011737D01*
X169954705Y-57011726D01*
X169869975Y-56695505D01*
X169744692Y-56393045D01*
X169744687Y-56393034D01*
X169581000Y-56109521D01*
X169381704Y-55849792D01*
X169381699Y-55849786D01*
X169150214Y-55618302D01*
X168890480Y-55419001D01*
X168890473Y-55418996D01*
X168606961Y-55255310D01*
X168606952Y-55255306D01*
X168304502Y-55130027D01*
X167988268Y-55045292D01*
X167663695Y-55002561D01*
X167523656Y-55000370D01*
X167521866Y-55000000D01*
X140101781Y-55000000D01*
X140100662Y-54999989D01*
X135333334Y-55000000D01*
X125101781Y-55000000D01*
X125100662Y-54999989D01*
X120333334Y-55000000D01*
X110101781Y-55000000D01*
X110100662Y-54999989D01*
X105333334Y-55000000D01*
X95101781Y-55000000D01*
X95100662Y-54999989D01*
X77499973Y-54999999D01*
X77336322Y-55002675D01*
X77336305Y-55002677D01*
X77011754Y-55045405D01*
X76695538Y-55130135D01*
X76393098Y-55255410D01*
X76393088Y-55255414D01*
X76109584Y-55419095D01*
X75849868Y-55618382D01*
X75849861Y-55618388D01*
X75618388Y-55849861D01*
X75618382Y-55849868D01*
X75419095Y-56109584D01*
X75255414Y-56393088D01*
X75255410Y-56393098D01*
X75130135Y-56695538D01*
X75045405Y-57011754D01*
X75002677Y-57336305D01*
X75002675Y-57336322D01*
X75000000Y-57499973D01*
X75000000Y-84898218D01*
X74999989Y-84899333D01*
X66000000Y-84899333D01*
X66000000Y-49000882D01*
X66000006Y-49000000D01*
X67997422Y-49000000D01*
X68017943Y-49201819D01*
X68078669Y-49395364D01*
X68078676Y-49395379D01*
X68177118Y-49572738D01*
X68177121Y-49572743D01*
X68309255Y-49726660D01*
X68309256Y-49726662D01*
X68469668Y-49850829D01*
X68651798Y-49940169D01*
X68848182Y-49991016D01*
X68848179Y-49991016D01*
X69050780Y-50001291D01*
X69050782Y-50001291D01*
X69251294Y-49970573D01*
X69251300Y-49970572D01*
X69441522Y-49900122D01*
X69441529Y-49900119D01*
X69613685Y-49792813D01*
X69760715Y-49653051D01*
X69876600Y-49486554D01*
X69956600Y-49300133D01*
X69997435Y-49101424D01*
X70000000Y-49000014D01*
X70000000Y-49000000D01*
X174997422Y-49000000D01*
X175017943Y-49201819D01*
X175078669Y-49395364D01*
X175078676Y-49395379D01*
X175177118Y-49572738D01*
X175177121Y-49572743D01*
X175309255Y-49726660D01*
X175309256Y-49726662D01*
X175469668Y-49850829D01*
X175651798Y-49940169D01*
X175848182Y-49991016D01*
X175848179Y-49991016D01*
X176050780Y-50001291D01*
X176050782Y-50001291D01*
X176251294Y-49970573D01*
X176251300Y-49970572D01*
X176441522Y-49900122D01*
X176441529Y-49900119D01*
X176613685Y-49792813D01*
X176760715Y-49653051D01*
X176876600Y-49486554D01*
X176956600Y-49300133D01*
X176997435Y-49101424D01*
X177000000Y-49000014D01*
X177000000Y-48999985D01*
X176997435Y-48898575D01*
X176956600Y-48699866D01*
X176876600Y-48513445D01*
X176760715Y-48346948D01*
X176613685Y-48207186D01*
X176441529Y-48099880D01*
X176441522Y-48099877D01*
X176251300Y-48029427D01*
X176251294Y-48029426D01*
X176050781Y-47998708D01*
X175848181Y-48008983D01*
X175651798Y-48059830D01*
X175469668Y-48149170D01*
X175309256Y-48273337D01*
X175309255Y-48273339D01*
X175177121Y-48427256D01*
X175177118Y-48427261D01*
X175078676Y-48604620D01*
X175078669Y-48604635D01*
X175017943Y-48798180D01*
X174997422Y-49000000D01*
X70000000Y-49000000D01*
X70000000Y-48999985D01*
X69997435Y-48898575D01*
X69956600Y-48699866D01*
X69876600Y-48513445D01*
X69760715Y-48346948D01*
X69613685Y-48207186D01*
X69441529Y-48099880D01*
X69441522Y-48099877D01*
X69251300Y-48029427D01*
X69251294Y-48029426D01*
X69050781Y-47998708D01*
X68848181Y-48008983D01*
X68651798Y-48059830D01*
X68469668Y-48149170D01*
X68309256Y-48273337D01*
X68309255Y-48273339D01*
X68177121Y-48427256D01*
X68177118Y-48427261D01*
X68078676Y-48604620D01*
X68078669Y-48604635D01*
X68017943Y-48798180D01*
X67997422Y-49000000D01*
X66000006Y-49000000D01*
X66000012Y-48999144D01*
X66002274Y-48837743D01*
X66003042Y-48825597D01*
X66039277Y-48504007D01*
X66041606Y-48490299D01*
X66113426Y-48175633D01*
X66117275Y-48162270D01*
X66223879Y-47857613D01*
X66229201Y-47844766D01*
X66369239Y-47553974D01*
X66375965Y-47541804D01*
X66547685Y-47268513D01*
X66555732Y-47257172D01*
X66756971Y-47004826D01*
X66766237Y-46994458D01*
X66994458Y-46766237D01*
X67004826Y-46756971D01*
X67257172Y-46555732D01*
X67268513Y-46547685D01*
X67541804Y-46375965D01*
X67553974Y-46369239D01*
X67844766Y-46229201D01*
X67857613Y-46223879D01*
X68162270Y-46117275D01*
X68175633Y-46113426D01*
X68490299Y-46041606D01*
X68504007Y-46039277D01*
X68825597Y-46003042D01*
X68837743Y-46002274D01*
X68999144Y-46000012D01*
X69000882Y-46000000D01*
X175999118Y-46000000D01*
X176000856Y-46000012D01*
G37*
M02*
