%TF.GenerationSoftware,KiCad,Pcbnew,7.0.7-7.0.7~ubuntu22.04.1*%
%TF.CreationDate,2023-09-08T16:19:24+01:00*%
%TF.ProjectId,FSRray,46535272-6179-42e6-9b69-6361645f7063,rev?*%
%TF.SameCoordinates,Original*%
%TF.FileFunction,Copper,L3,Inr*%
%TF.FilePolarity,Positive*%
%FSLAX46Y46*%
G04 Gerber Fmt 4.6, Leading zero omitted, Abs format (unit mm)*
G04 Created by KiCad (PCBNEW 7.0.7-7.0.7~ubuntu22.04.1) date 2023-09-08 16:19:24*
%MOMM*%
%LPD*%
G01*
G04 APERTURE LIST*
%TA.AperFunction,ComponentPad*%
%ADD10C,1.000000*%
%TD*%
%TA.AperFunction,ComponentPad*%
%ADD11R,1.700000X1.700000*%
%TD*%
%TA.AperFunction,ComponentPad*%
%ADD12O,1.700000X1.700000*%
%TD*%
%TA.AperFunction,ComponentPad*%
%ADD13C,1.431000*%
%TD*%
%TA.AperFunction,ComponentPad*%
%ADD14C,3.450000*%
%TD*%
%TA.AperFunction,ViaPad*%
%ADD15C,0.600000*%
%TD*%
%TA.AperFunction,Conductor*%
%ADD16C,0.150000*%
%TD*%
G04 APERTURE END LIST*
D10*
%TO.N,Net-(J2-Pin_1)*%
%TO.C,J2*%
X209200000Y-115100001D03*
%TO.N,Net-(J2-Pin_2)*%
X207200000Y-114100001D03*
%TO.N,Net-(J2-Pin_3)*%
X209200000Y-113100001D03*
%TO.N,Net-(J2-Pin_4)*%
X207200000Y-112100001D03*
%TO.N,Net-(J2-Pin_5)*%
X209200000Y-111100001D03*
%TO.N,Net-(J2-Pin_6)*%
X207200000Y-110100001D03*
%TO.N,Net-(J2-Pin_7)*%
X209200000Y-109100001D03*
%TO.N,Net-(J2-Pin_8)*%
X207200000Y-108100001D03*
%TO.N,Net-(J2-Pin_9)*%
X209200000Y-107100001D03*
%TO.N,Net-(J2-Pin_10)*%
X207200000Y-106100001D03*
%TO.N,Net-(J2-Pin_11)*%
X209200000Y-105100001D03*
%TO.N,Net-(J2-Pin_12)*%
X207200000Y-104100001D03*
%TO.N,Net-(J2-Pin_13)*%
X209200000Y-103100001D03*
%TO.N,Net-(J2-Pin_14)*%
X207200000Y-102100001D03*
%TO.N,Net-(J2-Pin_15)*%
X209200000Y-101100001D03*
%TO.N,Net-(J2-Pin_16)*%
X207200000Y-100100001D03*
%TD*%
%TO.N,Net-(ADC2-AIN0)*%
%TO.C,J3*%
X183400000Y-118337653D03*
%TO.N,Net-(ADC2-AIN1)*%
X184400000Y-116337653D03*
%TO.N,Net-(ADC2-AIN2)*%
X185400000Y-118337653D03*
%TO.N,Net-(ADC2-AIN3)*%
X186400000Y-116337653D03*
%TO.N,Net-(ADC2-AIN4)*%
X187400000Y-118337653D03*
%TO.N,Net-(ADC2-AIN5)*%
X188400000Y-116337653D03*
%TO.N,Net-(ADC2-AIN6)*%
X189400000Y-118337653D03*
%TO.N,Net-(ADC2-AIN7)*%
X190400000Y-116337653D03*
%TO.N,Net-(ADC2-AIN8)*%
X191400000Y-118337653D03*
%TO.N,Net-(ADC2-AIN9)*%
X192400000Y-116337653D03*
%TO.N,Net-(ADC2-AIN10)*%
X193400000Y-118337653D03*
%TO.N,Net-(ADC2-AIN11)*%
X194400000Y-116337653D03*
%TO.N,Net-(ADC2-AIN12)*%
X195400000Y-118337653D03*
%TO.N,Net-(ADC2-AIN13)*%
X196400000Y-116337653D03*
%TO.N,Net-(ADC2-AIN14)*%
X197400000Y-118337653D03*
%TO.N,Net-(ADC2-~{CNVST{slash}AIN15})*%
X198400000Y-116337653D03*
%TD*%
%TO.N,/CSA1*%
%TO.C,J5*%
X141500000Y-81000000D03*
%TO.N,/CSA2*%
X142500000Y-79000000D03*
%TO.N,/CSA3*%
X143500000Y-81000000D03*
%TO.N,/CSA4*%
X144500000Y-79000000D03*
%TO.N,/CSA5*%
X145500000Y-81000000D03*
%TO.N,/CSA6*%
X146500000Y-79000000D03*
%TO.N,/CSA7*%
X147500000Y-81000000D03*
%TO.N,/CSA8*%
X148500000Y-79000000D03*
%TO.N,unconnected-(J5-Pin_9-Pad9)*%
X149500000Y-81000000D03*
%TO.N,unconnected-(J5-Pin_10-Pad10)*%
X150500000Y-79000000D03*
%TO.N,unconnected-(J5-Pin_11-Pad11)*%
X151500000Y-81000000D03*
%TO.N,GND*%
X152500000Y-79000000D03*
%TO.N,+3.3V*%
X153500000Y-81000000D03*
%TO.N,/MISO1*%
X154500000Y-79000000D03*
%TO.N,/SCLK1*%
X155500000Y-81000000D03*
%TO.N,/MOSI1*%
X156500000Y-79000000D03*
%TD*%
%TO.N,Net-(J1-Pin_1)*%
%TO.C,J1*%
X209205000Y-97450001D03*
%TO.N,Net-(J1-Pin_2)*%
X207205000Y-96450001D03*
%TO.N,Net-(J1-Pin_3)*%
X209205000Y-95450001D03*
%TO.N,Net-(J1-Pin_4)*%
X207205000Y-94450001D03*
%TO.N,Net-(J1-Pin_5)*%
X209205000Y-93450001D03*
%TO.N,Net-(J1-Pin_6)*%
X207205000Y-92450001D03*
%TO.N,Net-(J1-Pin_7)*%
X209205000Y-91450001D03*
%TO.N,Net-(J1-Pin_8)*%
X207205000Y-90450001D03*
%TO.N,Net-(J1-Pin_9)*%
X209205000Y-89450001D03*
%TO.N,Net-(J1-Pin_10)*%
X207205000Y-88450001D03*
%TO.N,Net-(J1-Pin_11)*%
X209205000Y-87450001D03*
%TO.N,Net-(J1-Pin_12)*%
X207205000Y-86450001D03*
%TO.N,Net-(J1-Pin_13)*%
X209205000Y-85450001D03*
%TO.N,Net-(J1-Pin_14)*%
X207205000Y-84450001D03*
%TO.N,Net-(J1-Pin_15)*%
X209205000Y-83450001D03*
%TO.N,Net-(J1-Pin_16)*%
X207205000Y-82450001D03*
%TD*%
%TO.N,Net-(ADC1-AIN0)*%
%TO.C,J4*%
X166162500Y-118322653D03*
%TO.N,Net-(ADC1-AIN1)*%
X167162500Y-116322653D03*
%TO.N,Net-(ADC1-AIN2)*%
X168162500Y-118322653D03*
%TO.N,Net-(ADC1-AIN3)*%
X169162500Y-116322653D03*
%TO.N,Net-(ADC1-AIN4)*%
X170162500Y-118322653D03*
%TO.N,Net-(ADC1-AIN5)*%
X171162500Y-116322653D03*
%TO.N,Net-(ADC1-AIN6)*%
X172162500Y-118322653D03*
%TO.N,Net-(ADC1-AIN7)*%
X173162500Y-116322653D03*
%TO.N,Net-(ADC1-AIN8)*%
X174162500Y-118322653D03*
%TO.N,Net-(ADC1-AIN9)*%
X175162500Y-116322653D03*
%TO.N,Net-(ADC1-AIN10)*%
X176162500Y-118322653D03*
%TO.N,Net-(ADC1-AIN11)*%
X177162500Y-116322653D03*
%TO.N,Net-(ADC1-AIN12)*%
X178162500Y-118322653D03*
%TO.N,Net-(ADC1-AIN13)*%
X179162500Y-116322653D03*
%TO.N,Net-(ADC1-AIN14)*%
X180162500Y-118322653D03*
%TO.N,Net-(ADC1-~{CNVST{slash}AIN15})*%
X181162500Y-116322653D03*
%TD*%
D11*
%TO.N,GND*%
%TO.C,J12*%
X132780000Y-100240000D03*
D12*
%TO.N,unconnected-(J12-Pin_2-Pad2)*%
X135320000Y-100240000D03*
%TO.N,/MISO1*%
X137860000Y-100240000D03*
%TO.N,unconnected-(J12-Pin_4-Pad4)*%
X140400000Y-100240000D03*
%TO.N,unconnected-(J12-Pin_5-Pad5)*%
X142940000Y-100240000D03*
%TO.N,unconnected-(J12-Pin_6-Pad6)*%
X145480000Y-100240000D03*
%TO.N,unconnected-(J12-Pin_7-Pad7)*%
X148020000Y-100240000D03*
%TO.N,unconnected-(J12-Pin_8-Pad8)*%
X150560000Y-100240000D03*
%TO.N,unconnected-(J12-Pin_9-Pad9)*%
X153100000Y-100240000D03*
%TO.N,/EOC1*%
X155640000Y-100240000D03*
%TO.N,/CS1*%
X158180000Y-100240000D03*
%TO.N,unconnected-(J12-Pin_12-Pad12)*%
X160720000Y-100240000D03*
%TO.N,/MOSI*%
X163260000Y-100240000D03*
%TO.N,/MISO*%
X165800000Y-100240000D03*
%TO.N,+3.3V*%
X168340000Y-100240000D03*
%TO.N,unconnected-(J12-Pin_16-Pad16)*%
X170880000Y-100240000D03*
%TO.N,/EOC2*%
X173420000Y-100240000D03*
%TO.N,/MOSI1*%
X175960000Y-100240000D03*
%TO.N,/SCLK1*%
X178500000Y-100240000D03*
%TO.N,/CS2*%
X181040000Y-100240000D03*
%TO.N,/S3*%
X183580000Y-100240000D03*
%TO.N,/S2*%
X186120000Y-100240000D03*
%TO.N,/S1*%
X188660000Y-100240000D03*
%TO.N,/S0*%
X191200000Y-100240000D03*
%TD*%
D11*
%TO.N,+5V*%
%TO.C,J11*%
X132780000Y-85000000D03*
D12*
%TO.N,GND*%
X135320000Y-85000000D03*
%TO.N,unconnected-(J11-Pin_3-Pad3)*%
X137860000Y-85000000D03*
%TO.N,/CSA1*%
X140400000Y-85000000D03*
%TO.N,/CSA2*%
X142940000Y-85000000D03*
%TO.N,/CSA3*%
X145480000Y-85000000D03*
%TO.N,/CSA4*%
X148020000Y-85000000D03*
%TO.N,/CSA5*%
X150560000Y-85000000D03*
%TO.N,/CSA6*%
X153100000Y-85000000D03*
%TO.N,/CSA7*%
X155640000Y-85000000D03*
%TO.N,/CSA8*%
X158180000Y-85000000D03*
%TO.N,unconnected-(J11-Pin_12-Pad12)*%
X160720000Y-85000000D03*
%TO.N,unconnected-(J11-Pin_13-Pad13)*%
X163260000Y-85000000D03*
%TO.N,/SCLK*%
X165800000Y-85000000D03*
%TO.N,GND*%
X168340000Y-85000000D03*
%TO.N,unconnected-(J11-Pin_16-Pad16)*%
X170880000Y-85000000D03*
%TO.N,unconnected-(J11-Pin_17-Pad17)*%
X173420000Y-85000000D03*
%TO.N,unconnected-(J11-Pin_18-Pad18)*%
X175960000Y-85000000D03*
%TO.N,unconnected-(J11-Pin_19-Pad19)*%
X178500000Y-85000000D03*
%TO.N,unconnected-(J11-Pin_20-Pad20)*%
X181040000Y-85000000D03*
%TO.N,unconnected-(J11-Pin_21-Pad21)*%
X183580000Y-85000000D03*
%TO.N,unconnected-(J11-Pin_22-Pad22)*%
X186120000Y-85000000D03*
%TO.N,/EN2*%
X188660000Y-85000000D03*
%TO.N,/EN1*%
X191200000Y-85000000D03*
%TD*%
D13*
%TO.N,+5V*%
%TO.C,J17*%
X139710000Y-111730000D03*
%TO.N,unconnected-(J17-D--Pad2)*%
X139710000Y-114230000D03*
%TO.N,unconnected-(J17-D+-Pad3)*%
X137710000Y-114230000D03*
%TO.N,GND*%
X137710000Y-111730000D03*
D14*
%TO.N,unconnected-(J17-SH1-Pad5)*%
X135000000Y-119000000D03*
%TO.N,unconnected-(J17-SH2-Pad6)*%
X135000000Y-106960000D03*
%TD*%
D15*
%TO.N,/MISO*%
X168300000Y-102900000D03*
%TO.N,/MOSI*%
X167800000Y-109800000D03*
X185100000Y-110100000D03*
%TO.N,/SCLK*%
X168200000Y-110800000D03*
X185800000Y-110800000D03*
%TO.N,/CS1*%
X169100000Y-111600000D03*
%TO.N,+5V*%
X200500000Y-107075001D03*
X200500000Y-89275000D03*
X171600000Y-111500000D03*
X186900000Y-111300000D03*
%TO.N,/EN1*%
X198600000Y-101300000D03*
X197600000Y-96000000D03*
%TO.N,/S3*%
X198500000Y-82073497D03*
X198600000Y-99900000D03*
%TO.N,/S2*%
X198500000Y-82800000D03*
%TO.N,/S1*%
X202400000Y-82800000D03*
%TO.N,/S0*%
X202400000Y-83526503D03*
%TD*%
D16*
%TO.N,/MISO*%
X168300000Y-102740000D02*
X168300000Y-102900000D01*
X165800000Y-100240000D02*
X168300000Y-102740000D01*
%TO.N,/MOSI*%
X163260000Y-105260000D02*
X167800000Y-109800000D01*
X185100000Y-110100000D02*
X168100000Y-110100000D01*
X163260000Y-100240000D02*
X163260000Y-105260000D01*
X168100000Y-110100000D02*
X167800000Y-109800000D01*
%TO.N,/SCLK*%
X185109936Y-110800000D02*
X185800000Y-110800000D01*
X168200000Y-110800000D02*
X185109936Y-110800000D01*
%TO.N,/CS1*%
X169100000Y-111600000D02*
X166100000Y-111600000D01*
X166100000Y-111600000D02*
X158180000Y-103680000D01*
X158180000Y-103680000D02*
X158180000Y-100240000D01*
%TO.N,+5V*%
X200500000Y-107075001D02*
X200500000Y-109300000D01*
X171600000Y-111500000D02*
X186700000Y-111500000D01*
X200500000Y-89275000D02*
X200500000Y-107075001D01*
X187000000Y-111400000D02*
X186900000Y-111300000D01*
X200500000Y-109300000D02*
X198400000Y-111400000D01*
X186700000Y-111500000D02*
X186900000Y-111300000D01*
X198400000Y-111400000D02*
X187000000Y-111400000D01*
%TO.N,/EN1*%
X199700000Y-98100000D02*
X197600000Y-96000000D01*
X199700000Y-100200000D02*
X199700000Y-98100000D01*
X198600000Y-101300000D02*
X199700000Y-100200000D01*
%TO.N,/S3*%
X186340000Y-103000000D02*
X183580000Y-100240000D01*
X183580000Y-96920000D02*
X183580000Y-100240000D01*
X198600000Y-99900000D02*
X195500000Y-103000000D01*
X198426503Y-82073497D02*
X183580000Y-96920000D01*
X195500000Y-103000000D02*
X186340000Y-103000000D01*
X198500000Y-82073497D02*
X198426503Y-82073497D01*
%TO.N,/S2*%
X198500000Y-84600000D02*
X186120000Y-96980000D01*
X186120000Y-96980000D02*
X186120000Y-100240000D01*
X198500000Y-82800000D02*
X198500000Y-84600000D01*
%TO.N,/S1*%
X202400000Y-82800000D02*
X188660000Y-96540000D01*
X188660000Y-96540000D02*
X188660000Y-100240000D01*
%TO.N,/S0*%
X202400000Y-83526503D02*
X202400000Y-84700000D01*
X191200000Y-95900000D02*
X191200000Y-100240000D01*
X202400000Y-84700000D02*
X191200000Y-95900000D01*
%TO.N,+3.3V*%
X153500000Y-81000000D02*
X154400000Y-81900000D01*
X154400000Y-86300000D02*
X168340000Y-100240000D01*
X154400000Y-81900000D02*
X154400000Y-86300000D01*
%TO.N,/MOSI1*%
X165800000Y-79000000D02*
X169828000Y-83028000D01*
X156500000Y-79000000D02*
X165800000Y-79000000D01*
X169828000Y-94108000D02*
X175960000Y-100240000D01*
X169828000Y-83028000D02*
X169828000Y-94108000D01*
%TD*%
M02*
