%TF.GenerationSoftware,KiCad,Pcbnew,7.0.7-7.0.7~ubuntu22.04.1*%
%TF.CreationDate,2023-09-08T16:19:24+01:00*%
%TF.ProjectId,FSRray,46535272-6179-42e6-9b69-6361645f7063,rev?*%
%TF.SameCoordinates,Original*%
%TF.FileFunction,Legend,Top*%
%TF.FilePolarity,Positive*%
%FSLAX46Y46*%
G04 Gerber Fmt 4.6, Leading zero omitted, Abs format (unit mm)*
G04 Created by KiCad (PCBNEW 7.0.7-7.0.7~ubuntu22.04.1) date 2023-09-08 16:19:24*
%MOMM*%
%LPD*%
G01*
G04 APERTURE LIST*
G04 Aperture macros list*
%AMRoundRect*
0 Rectangle with rounded corners*
0 $1 Rounding radius*
0 $2 $3 $4 $5 $6 $7 $8 $9 X,Y pos of 4 corners*
0 Add a 4 corners polygon primitive as box body*
4,1,4,$2,$3,$4,$5,$6,$7,$8,$9,$2,$3,0*
0 Add four circle primitives for the rounded corners*
1,1,$1+$1,$2,$3*
1,1,$1+$1,$4,$5*
1,1,$1+$1,$6,$7*
1,1,$1+$1,$8,$9*
0 Add four rect primitives between the rounded corners*
20,1,$1+$1,$2,$3,$4,$5,0*
20,1,$1+$1,$4,$5,$6,$7,0*
20,1,$1+$1,$6,$7,$8,$9,0*
20,1,$1+$1,$8,$9,$2,$3,0*%
G04 Aperture macros list end*
%ADD10C,0.152400*%
%ADD11C,0.203200*%
%ADD12C,0.250000*%
%ADD13C,0.876300*%
%ADD14C,0.150000*%
%ADD15C,0.093472*%
%ADD16C,0.120000*%
%ADD17C,0.200000*%
%ADD18C,0.127000*%
%ADD19R,0.400000X0.500000*%
%ADD20R,0.300000X0.500000*%
%ADD21C,3.200000*%
%ADD22C,1.000000*%
%ADD23R,1.750000X0.450000*%
%ADD24RoundRect,0.020500X0.184500X-0.799500X0.184500X0.799500X-0.184500X0.799500X-0.184500X-0.799500X0*%
%ADD25RoundRect,0.114300X0.499200X0.449200X-0.499200X0.449200X-0.499200X-0.449200X0.499200X-0.449200X0*%
%ADD26R,1.700000X1.700000*%
%ADD27O,1.700000X1.700000*%
%ADD28C,1.431000*%
%ADD29C,3.450000*%
G04 APERTURE END LIST*
D10*
X133167200Y-91307200D02*
X132167200Y-92307200D01*
X135167200Y-92307200D02*
X132167200Y-92307200D01*
X157000000Y-123000000D02*
X129000000Y-123000000D01*
X129000000Y-104000000D01*
X157000000Y-104000000D01*
X157000000Y-123000000D01*
X132167200Y-92307200D02*
X133167200Y-93307200D01*
D11*
X150262437Y-92221871D02*
X151405294Y-92221871D01*
X150833865Y-94221871D02*
X150833865Y-92221871D01*
X152833866Y-94126633D02*
X152643390Y-94221871D01*
X152643390Y-94221871D02*
X152262437Y-94221871D01*
X152262437Y-94221871D02*
X152071961Y-94126633D01*
X152071961Y-94126633D02*
X151976723Y-93936156D01*
X151976723Y-93936156D02*
X151976723Y-93174252D01*
X151976723Y-93174252D02*
X152071961Y-92983775D01*
X152071961Y-92983775D02*
X152262437Y-92888537D01*
X152262437Y-92888537D02*
X152643390Y-92888537D01*
X152643390Y-92888537D02*
X152833866Y-92983775D01*
X152833866Y-92983775D02*
X152929104Y-93174252D01*
X152929104Y-93174252D02*
X152929104Y-93364728D01*
X152929104Y-93364728D02*
X151976723Y-93555204D01*
X154548152Y-94126633D02*
X154357676Y-94221871D01*
X154357676Y-94221871D02*
X153976723Y-94221871D01*
X153976723Y-94221871D02*
X153786247Y-94126633D01*
X153786247Y-94126633D02*
X153691009Y-93936156D01*
X153691009Y-93936156D02*
X153691009Y-93174252D01*
X153691009Y-93174252D02*
X153786247Y-92983775D01*
X153786247Y-92983775D02*
X153976723Y-92888537D01*
X153976723Y-92888537D02*
X154357676Y-92888537D01*
X154357676Y-92888537D02*
X154548152Y-92983775D01*
X154548152Y-92983775D02*
X154643390Y-93174252D01*
X154643390Y-93174252D02*
X154643390Y-93364728D01*
X154643390Y-93364728D02*
X153691009Y-93555204D01*
X155500533Y-92888537D02*
X155500533Y-94221871D01*
X155500533Y-93079013D02*
X155595771Y-92983775D01*
X155595771Y-92983775D02*
X155786247Y-92888537D01*
X155786247Y-92888537D02*
X156071962Y-92888537D01*
X156071962Y-92888537D02*
X156262438Y-92983775D01*
X156262438Y-92983775D02*
X156357676Y-93174252D01*
X156357676Y-93174252D02*
X156357676Y-94221871D01*
X157214819Y-94126633D02*
X157405295Y-94221871D01*
X157405295Y-94221871D02*
X157786247Y-94221871D01*
X157786247Y-94221871D02*
X157976724Y-94126633D01*
X157976724Y-94126633D02*
X158071962Y-93936156D01*
X158071962Y-93936156D02*
X158071962Y-93840918D01*
X158071962Y-93840918D02*
X157976724Y-93650442D01*
X157976724Y-93650442D02*
X157786247Y-93555204D01*
X157786247Y-93555204D02*
X157500533Y-93555204D01*
X157500533Y-93555204D02*
X157310057Y-93459966D01*
X157310057Y-93459966D02*
X157214819Y-93269490D01*
X157214819Y-93269490D02*
X157214819Y-93174252D01*
X157214819Y-93174252D02*
X157310057Y-92983775D01*
X157310057Y-92983775D02*
X157500533Y-92888537D01*
X157500533Y-92888537D02*
X157786247Y-92888537D01*
X157786247Y-92888537D02*
X157976724Y-92983775D01*
X158738629Y-92888537D02*
X159214819Y-94221871D01*
X159691010Y-92888537D02*
X159214819Y-94221871D01*
X159214819Y-94221871D02*
X159024343Y-94698061D01*
X159024343Y-94698061D02*
X158929105Y-94793299D01*
X158929105Y-94793299D02*
X158738629Y-94888537D01*
X162833868Y-92888537D02*
X162833868Y-94221871D01*
X162357677Y-92126633D02*
X161881487Y-93555204D01*
X161881487Y-93555204D02*
X163119582Y-93555204D01*
X163881487Y-94031394D02*
X163976725Y-94126633D01*
X163976725Y-94126633D02*
X163881487Y-94221871D01*
X163881487Y-94221871D02*
X163786249Y-94126633D01*
X163786249Y-94126633D02*
X163881487Y-94031394D01*
X163881487Y-94031394D02*
X163881487Y-94221871D01*
X165881487Y-94221871D02*
X164738630Y-94221871D01*
X165310058Y-94221871D02*
X165310058Y-92221871D01*
X165310058Y-92221871D02*
X165119582Y-92507585D01*
X165119582Y-92507585D02*
X164929106Y-92698061D01*
X164929106Y-92698061D02*
X164738630Y-92793299D01*
X153714285Y-113132947D02*
X153047618Y-113132947D01*
X152761904Y-112085328D02*
X153714285Y-112085328D01*
X153714285Y-112085328D02*
X153714285Y-114085328D01*
X153714285Y-114085328D02*
X152761904Y-114085328D01*
X152190475Y-113418662D02*
X151428571Y-113418662D01*
X151904761Y-114085328D02*
X151904761Y-112371043D01*
X151904761Y-112371043D02*
X151809523Y-112180567D01*
X151809523Y-112180567D02*
X151619047Y-112085328D01*
X151619047Y-112085328D02*
X151428571Y-112085328D01*
X150761904Y-112085328D02*
X150761904Y-114085328D01*
X149904761Y-112085328D02*
X149904761Y-113132947D01*
X149904761Y-113132947D02*
X149999999Y-113323424D01*
X149999999Y-113323424D02*
X150190475Y-113418662D01*
X150190475Y-113418662D02*
X150476190Y-113418662D01*
X150476190Y-113418662D02*
X150666666Y-113323424D01*
X150666666Y-113323424D02*
X150761904Y-113228186D01*
X148190475Y-112180567D02*
X148380951Y-112085328D01*
X148380951Y-112085328D02*
X148761904Y-112085328D01*
X148761904Y-112085328D02*
X148952380Y-112180567D01*
X148952380Y-112180567D02*
X149047618Y-112371043D01*
X149047618Y-112371043D02*
X149047618Y-113132947D01*
X149047618Y-113132947D02*
X148952380Y-113323424D01*
X148952380Y-113323424D02*
X148761904Y-113418662D01*
X148761904Y-113418662D02*
X148380951Y-113418662D01*
X148380951Y-113418662D02*
X148190475Y-113323424D01*
X148190475Y-113323424D02*
X148095237Y-113132947D01*
X148095237Y-113132947D02*
X148095237Y-112942471D01*
X148095237Y-112942471D02*
X149047618Y-112751995D01*
X147238094Y-112085328D02*
X147238094Y-113418662D01*
X147238094Y-113037709D02*
X147142856Y-113228186D01*
X147142856Y-113228186D02*
X147047618Y-113323424D01*
X147047618Y-113323424D02*
X146857142Y-113418662D01*
X146857142Y-113418662D02*
X146666665Y-113418662D01*
X145999999Y-113418662D02*
X145999999Y-112085328D01*
X145999999Y-113228186D02*
X145904761Y-113323424D01*
X145904761Y-113323424D02*
X145714285Y-113418662D01*
X145714285Y-113418662D02*
X145428570Y-113418662D01*
X145428570Y-113418662D02*
X145238094Y-113323424D01*
X145238094Y-113323424D02*
X145142856Y-113132947D01*
X145142856Y-113132947D02*
X145142856Y-112085328D01*
X143428570Y-112180567D02*
X143619046Y-112085328D01*
X143619046Y-112085328D02*
X143999999Y-112085328D01*
X143999999Y-112085328D02*
X144190475Y-112180567D01*
X144190475Y-112180567D02*
X144285713Y-112371043D01*
X144285713Y-112371043D02*
X144285713Y-113132947D01*
X144285713Y-113132947D02*
X144190475Y-113323424D01*
X144190475Y-113323424D02*
X143999999Y-113418662D01*
X143999999Y-113418662D02*
X143619046Y-113418662D01*
X143619046Y-113418662D02*
X143428570Y-113323424D01*
X143428570Y-113323424D02*
X143333332Y-113132947D01*
X143333332Y-113132947D02*
X143333332Y-112942471D01*
X143333332Y-112942471D02*
X144285713Y-112751995D01*
X142761903Y-113418662D02*
X141999999Y-113418662D01*
X142476189Y-114085328D02*
X142476189Y-112371043D01*
X142476189Y-112371043D02*
X142380951Y-112180567D01*
X142380951Y-112180567D02*
X142190475Y-112085328D01*
X142190475Y-112085328D02*
X141999999Y-112085328D01*
X136643390Y-91221871D02*
X136643390Y-92840918D01*
X136643390Y-92840918D02*
X136738628Y-93031394D01*
X136738628Y-93031394D02*
X136833866Y-93126633D01*
X136833866Y-93126633D02*
X137024342Y-93221871D01*
X137024342Y-93221871D02*
X137405295Y-93221871D01*
X137405295Y-93221871D02*
X137595771Y-93126633D01*
X137595771Y-93126633D02*
X137691009Y-93031394D01*
X137691009Y-93031394D02*
X137786247Y-92840918D01*
X137786247Y-92840918D02*
X137786247Y-91221871D01*
X138643390Y-93126633D02*
X138929104Y-93221871D01*
X138929104Y-93221871D02*
X139405295Y-93221871D01*
X139405295Y-93221871D02*
X139595771Y-93126633D01*
X139595771Y-93126633D02*
X139691009Y-93031394D01*
X139691009Y-93031394D02*
X139786247Y-92840918D01*
X139786247Y-92840918D02*
X139786247Y-92650442D01*
X139786247Y-92650442D02*
X139691009Y-92459966D01*
X139691009Y-92459966D02*
X139595771Y-92364728D01*
X139595771Y-92364728D02*
X139405295Y-92269490D01*
X139405295Y-92269490D02*
X139024342Y-92174252D01*
X139024342Y-92174252D02*
X138833866Y-92079013D01*
X138833866Y-92079013D02*
X138738628Y-91983775D01*
X138738628Y-91983775D02*
X138643390Y-91793299D01*
X138643390Y-91793299D02*
X138643390Y-91602823D01*
X138643390Y-91602823D02*
X138738628Y-91412347D01*
X138738628Y-91412347D02*
X138833866Y-91317109D01*
X138833866Y-91317109D02*
X139024342Y-91221871D01*
X139024342Y-91221871D02*
X139500533Y-91221871D01*
X139500533Y-91221871D02*
X139786247Y-91317109D01*
X141310057Y-92174252D02*
X141595771Y-92269490D01*
X141595771Y-92269490D02*
X141691009Y-92364728D01*
X141691009Y-92364728D02*
X141786247Y-92555204D01*
X141786247Y-92555204D02*
X141786247Y-92840918D01*
X141786247Y-92840918D02*
X141691009Y-93031394D01*
X141691009Y-93031394D02*
X141595771Y-93126633D01*
X141595771Y-93126633D02*
X141405295Y-93221871D01*
X141405295Y-93221871D02*
X140643390Y-93221871D01*
X140643390Y-93221871D02*
X140643390Y-91221871D01*
X140643390Y-91221871D02*
X141310057Y-91221871D01*
X141310057Y-91221871D02*
X141500533Y-91317109D01*
X141500533Y-91317109D02*
X141595771Y-91412347D01*
X141595771Y-91412347D02*
X141691009Y-91602823D01*
X141691009Y-91602823D02*
X141691009Y-91793299D01*
X141691009Y-91793299D02*
X141595771Y-91983775D01*
X141595771Y-91983775D02*
X141500533Y-92079013D01*
X141500533Y-92079013D02*
X141310057Y-92174252D01*
X141310057Y-92174252D02*
X140643390Y-92174252D01*
D12*
X197902568Y-78254619D02*
X197902568Y-77254619D01*
X197902568Y-77254619D02*
X198235901Y-77968904D01*
X198235901Y-77968904D02*
X198569234Y-77254619D01*
X198569234Y-77254619D02*
X198569234Y-78254619D01*
X199473996Y-77587952D02*
X199473996Y-78254619D01*
X199045425Y-77587952D02*
X199045425Y-78111761D01*
X199045425Y-78111761D02*
X199093044Y-78207000D01*
X199093044Y-78207000D02*
X199188282Y-78254619D01*
X199188282Y-78254619D02*
X199331139Y-78254619D01*
X199331139Y-78254619D02*
X199426377Y-78207000D01*
X199426377Y-78207000D02*
X199473996Y-78159380D01*
X200093044Y-78254619D02*
X199997806Y-78207000D01*
X199997806Y-78207000D02*
X199950187Y-78111761D01*
X199950187Y-78111761D02*
X199950187Y-77254619D01*
X200331140Y-77587952D02*
X200712092Y-77587952D01*
X200473997Y-77254619D02*
X200473997Y-78111761D01*
X200473997Y-78111761D02*
X200521616Y-78207000D01*
X200521616Y-78207000D02*
X200616854Y-78254619D01*
X200616854Y-78254619D02*
X200712092Y-78254619D01*
X201045426Y-78254619D02*
X201045426Y-77587952D01*
X201045426Y-77254619D02*
X200997807Y-77302238D01*
X200997807Y-77302238D02*
X201045426Y-77349857D01*
X201045426Y-77349857D02*
X201093045Y-77302238D01*
X201093045Y-77302238D02*
X201045426Y-77254619D01*
X201045426Y-77254619D02*
X201045426Y-77349857D01*
X201521616Y-77587952D02*
X201521616Y-78587952D01*
X201521616Y-77635571D02*
X201616854Y-77587952D01*
X201616854Y-77587952D02*
X201807330Y-77587952D01*
X201807330Y-77587952D02*
X201902568Y-77635571D01*
X201902568Y-77635571D02*
X201950187Y-77683190D01*
X201950187Y-77683190D02*
X201997806Y-77778428D01*
X201997806Y-77778428D02*
X201997806Y-78064142D01*
X201997806Y-78064142D02*
X201950187Y-78159380D01*
X201950187Y-78159380D02*
X201902568Y-78207000D01*
X201902568Y-78207000D02*
X201807330Y-78254619D01*
X201807330Y-78254619D02*
X201616854Y-78254619D01*
X201616854Y-78254619D02*
X201521616Y-78207000D01*
X202569235Y-78254619D02*
X202473997Y-78207000D01*
X202473997Y-78207000D02*
X202426378Y-78111761D01*
X202426378Y-78111761D02*
X202426378Y-77254619D01*
X203331140Y-78207000D02*
X203235902Y-78254619D01*
X203235902Y-78254619D02*
X203045426Y-78254619D01*
X203045426Y-78254619D02*
X202950188Y-78207000D01*
X202950188Y-78207000D02*
X202902569Y-78111761D01*
X202902569Y-78111761D02*
X202902569Y-77730809D01*
X202902569Y-77730809D02*
X202950188Y-77635571D01*
X202950188Y-77635571D02*
X203045426Y-77587952D01*
X203045426Y-77587952D02*
X203235902Y-77587952D01*
X203235902Y-77587952D02*
X203331140Y-77635571D01*
X203331140Y-77635571D02*
X203378759Y-77730809D01*
X203378759Y-77730809D02*
X203378759Y-77826047D01*
X203378759Y-77826047D02*
X202902569Y-77921285D01*
X203712093Y-78254619D02*
X204235902Y-77587952D01*
X203712093Y-77587952D02*
X204235902Y-78254619D01*
X204997807Y-78207000D02*
X204902569Y-78254619D01*
X204902569Y-78254619D02*
X204712093Y-78254619D01*
X204712093Y-78254619D02*
X204616855Y-78207000D01*
X204616855Y-78207000D02*
X204569236Y-78111761D01*
X204569236Y-78111761D02*
X204569236Y-77730809D01*
X204569236Y-77730809D02*
X204616855Y-77635571D01*
X204616855Y-77635571D02*
X204712093Y-77587952D01*
X204712093Y-77587952D02*
X204902569Y-77587952D01*
X204902569Y-77587952D02*
X204997807Y-77635571D01*
X204997807Y-77635571D02*
X205045426Y-77730809D01*
X205045426Y-77730809D02*
X205045426Y-77826047D01*
X205045426Y-77826047D02*
X204569236Y-77921285D01*
X205902569Y-78254619D02*
X205902569Y-77254619D01*
X205902569Y-78207000D02*
X205807331Y-78254619D01*
X205807331Y-78254619D02*
X205616855Y-78254619D01*
X205616855Y-78254619D02*
X205521617Y-78207000D01*
X205521617Y-78207000D02*
X205473998Y-78159380D01*
X205473998Y-78159380D02*
X205426379Y-78064142D01*
X205426379Y-78064142D02*
X205426379Y-77778428D01*
X205426379Y-77778428D02*
X205473998Y-77683190D01*
X205473998Y-77683190D02*
X205521617Y-77635571D01*
X205521617Y-77635571D02*
X205616855Y-77587952D01*
X205616855Y-77587952D02*
X205807331Y-77587952D01*
X205807331Y-77587952D02*
X205902569Y-77635571D01*
X197854949Y-79578904D02*
X198331139Y-79578904D01*
X197759711Y-79864619D02*
X198093044Y-78864619D01*
X198093044Y-78864619D02*
X198426377Y-79864619D01*
X198759711Y-79864619D02*
X198759711Y-78864619D01*
X198759711Y-78864619D02*
X198997806Y-78864619D01*
X198997806Y-78864619D02*
X199140663Y-78912238D01*
X199140663Y-78912238D02*
X199235901Y-79007476D01*
X199235901Y-79007476D02*
X199283520Y-79102714D01*
X199283520Y-79102714D02*
X199331139Y-79293190D01*
X199331139Y-79293190D02*
X199331139Y-79436047D01*
X199331139Y-79436047D02*
X199283520Y-79626523D01*
X199283520Y-79626523D02*
X199235901Y-79721761D01*
X199235901Y-79721761D02*
X199140663Y-79817000D01*
X199140663Y-79817000D02*
X198997806Y-79864619D01*
X198997806Y-79864619D02*
X198759711Y-79864619D01*
X200331139Y-79769380D02*
X200283520Y-79817000D01*
X200283520Y-79817000D02*
X200140663Y-79864619D01*
X200140663Y-79864619D02*
X200045425Y-79864619D01*
X200045425Y-79864619D02*
X199902568Y-79817000D01*
X199902568Y-79817000D02*
X199807330Y-79721761D01*
X199807330Y-79721761D02*
X199759711Y-79626523D01*
X199759711Y-79626523D02*
X199712092Y-79436047D01*
X199712092Y-79436047D02*
X199712092Y-79293190D01*
X199712092Y-79293190D02*
X199759711Y-79102714D01*
X199759711Y-79102714D02*
X199807330Y-79007476D01*
X199807330Y-79007476D02*
X199902568Y-78912238D01*
X199902568Y-78912238D02*
X200045425Y-78864619D01*
X200045425Y-78864619D02*
X200140663Y-78864619D01*
X200140663Y-78864619D02*
X200283520Y-78912238D01*
X200283520Y-78912238D02*
X200331139Y-78959857D01*
D13*
X174433655Y-79723479D02*
X172766989Y-79723479D01*
X172766989Y-82342527D02*
X172766989Y-77342527D01*
X172766989Y-77342527D02*
X175147941Y-77342527D01*
X176814607Y-82104432D02*
X177528893Y-82342527D01*
X177528893Y-82342527D02*
X178719369Y-82342527D01*
X178719369Y-82342527D02*
X179195560Y-82104432D01*
X179195560Y-82104432D02*
X179433655Y-81866336D01*
X179433655Y-81866336D02*
X179671750Y-81390146D01*
X179671750Y-81390146D02*
X179671750Y-80913955D01*
X179671750Y-80913955D02*
X179433655Y-80437765D01*
X179433655Y-80437765D02*
X179195560Y-80199670D01*
X179195560Y-80199670D02*
X178719369Y-79961574D01*
X178719369Y-79961574D02*
X177766988Y-79723479D01*
X177766988Y-79723479D02*
X177290798Y-79485384D01*
X177290798Y-79485384D02*
X177052703Y-79247289D01*
X177052703Y-79247289D02*
X176814607Y-78771098D01*
X176814607Y-78771098D02*
X176814607Y-78294908D01*
X176814607Y-78294908D02*
X177052703Y-77818717D01*
X177052703Y-77818717D02*
X177290798Y-77580622D01*
X177290798Y-77580622D02*
X177766988Y-77342527D01*
X177766988Y-77342527D02*
X178957465Y-77342527D01*
X178957465Y-77342527D02*
X179671750Y-77580622D01*
X184671751Y-82342527D02*
X183005084Y-79961574D01*
X181814608Y-82342527D02*
X181814608Y-77342527D01*
X181814608Y-77342527D02*
X183719370Y-77342527D01*
X183719370Y-77342527D02*
X184195560Y-77580622D01*
X184195560Y-77580622D02*
X184433655Y-77818717D01*
X184433655Y-77818717D02*
X184671751Y-78294908D01*
X184671751Y-78294908D02*
X184671751Y-79009193D01*
X184671751Y-79009193D02*
X184433655Y-79485384D01*
X184433655Y-79485384D02*
X184195560Y-79723479D01*
X184195560Y-79723479D02*
X183719370Y-79961574D01*
X183719370Y-79961574D02*
X181814608Y-79961574D01*
X186814608Y-82342527D02*
X186814608Y-79009193D01*
X186814608Y-79961574D02*
X187052703Y-79485384D01*
X187052703Y-79485384D02*
X187290798Y-79247289D01*
X187290798Y-79247289D02*
X187766989Y-79009193D01*
X187766989Y-79009193D02*
X188243179Y-79009193D01*
X192052703Y-82342527D02*
X192052703Y-79723479D01*
X192052703Y-79723479D02*
X191814608Y-79247289D01*
X191814608Y-79247289D02*
X191338417Y-79009193D01*
X191338417Y-79009193D02*
X190386036Y-79009193D01*
X190386036Y-79009193D02*
X189909846Y-79247289D01*
X192052703Y-82104432D02*
X191576512Y-82342527D01*
X191576512Y-82342527D02*
X190386036Y-82342527D01*
X190386036Y-82342527D02*
X189909846Y-82104432D01*
X189909846Y-82104432D02*
X189671750Y-81628241D01*
X189671750Y-81628241D02*
X189671750Y-81152051D01*
X189671750Y-81152051D02*
X189909846Y-80675860D01*
X189909846Y-80675860D02*
X190386036Y-80437765D01*
X190386036Y-80437765D02*
X191576512Y-80437765D01*
X191576512Y-80437765D02*
X192052703Y-80199670D01*
X193957465Y-79009193D02*
X195147941Y-82342527D01*
X196338418Y-79009193D02*
X195147941Y-82342527D01*
X195147941Y-82342527D02*
X194671751Y-83533003D01*
X194671751Y-83533003D02*
X194433656Y-83771098D01*
X194433656Y-83771098D02*
X193957465Y-84009193D01*
D14*
X198790476Y-91404820D02*
X198790476Y-90404820D01*
X198790476Y-90404820D02*
X199123809Y-91119105D01*
X199123809Y-91119105D02*
X199457142Y-90404820D01*
X199457142Y-90404820D02*
X199457142Y-91404820D01*
X199933333Y-90404820D02*
X199933333Y-91214343D01*
X199933333Y-91214343D02*
X199980952Y-91309581D01*
X199980952Y-91309581D02*
X200028571Y-91357201D01*
X200028571Y-91357201D02*
X200123809Y-91404820D01*
X200123809Y-91404820D02*
X200314285Y-91404820D01*
X200314285Y-91404820D02*
X200409523Y-91357201D01*
X200409523Y-91357201D02*
X200457142Y-91309581D01*
X200457142Y-91309581D02*
X200504761Y-91214343D01*
X200504761Y-91214343D02*
X200504761Y-90404820D01*
X200885714Y-90404820D02*
X201552380Y-91404820D01*
X201552380Y-90404820D02*
X200885714Y-91404820D01*
X201885714Y-90500058D02*
X201933333Y-90452439D01*
X201933333Y-90452439D02*
X202028571Y-90404820D01*
X202028571Y-90404820D02*
X202266666Y-90404820D01*
X202266666Y-90404820D02*
X202361904Y-90452439D01*
X202361904Y-90452439D02*
X202409523Y-90500058D01*
X202409523Y-90500058D02*
X202457142Y-90595296D01*
X202457142Y-90595296D02*
X202457142Y-90690534D01*
X202457142Y-90690534D02*
X202409523Y-90833391D01*
X202409523Y-90833391D02*
X201838095Y-91404820D01*
X201838095Y-91404820D02*
X202457142Y-91404820D01*
X198790476Y-109204821D02*
X198790476Y-108204821D01*
X198790476Y-108204821D02*
X199123809Y-108919106D01*
X199123809Y-108919106D02*
X199457142Y-108204821D01*
X199457142Y-108204821D02*
X199457142Y-109204821D01*
X199933333Y-108204821D02*
X199933333Y-109014344D01*
X199933333Y-109014344D02*
X199980952Y-109109582D01*
X199980952Y-109109582D02*
X200028571Y-109157202D01*
X200028571Y-109157202D02*
X200123809Y-109204821D01*
X200123809Y-109204821D02*
X200314285Y-109204821D01*
X200314285Y-109204821D02*
X200409523Y-109157202D01*
X200409523Y-109157202D02*
X200457142Y-109109582D01*
X200457142Y-109109582D02*
X200504761Y-109014344D01*
X200504761Y-109014344D02*
X200504761Y-108204821D01*
X200885714Y-108204821D02*
X201552380Y-109204821D01*
X201552380Y-108204821D02*
X200885714Y-109204821D01*
X202457142Y-109204821D02*
X201885714Y-109204821D01*
X202171428Y-109204821D02*
X202171428Y-108204821D01*
X202171428Y-108204821D02*
X202076190Y-108347678D01*
X202076190Y-108347678D02*
X201980952Y-108442916D01*
X201980952Y-108442916D02*
X201885714Y-108490535D01*
X181619104Y-112651938D02*
X181619104Y-112175748D01*
X181904819Y-112747176D02*
X180904819Y-112413843D01*
X180904819Y-112413843D02*
X181904819Y-112080510D01*
X181904819Y-111747176D02*
X180904819Y-111747176D01*
X180904819Y-111747176D02*
X180904819Y-111509081D01*
X180904819Y-111509081D02*
X180952438Y-111366224D01*
X180952438Y-111366224D02*
X181047676Y-111270986D01*
X181047676Y-111270986D02*
X181142914Y-111223367D01*
X181142914Y-111223367D02*
X181333390Y-111175748D01*
X181333390Y-111175748D02*
X181476247Y-111175748D01*
X181476247Y-111175748D02*
X181666723Y-111223367D01*
X181666723Y-111223367D02*
X181761961Y-111270986D01*
X181761961Y-111270986D02*
X181857200Y-111366224D01*
X181857200Y-111366224D02*
X181904819Y-111509081D01*
X181904819Y-111509081D02*
X181904819Y-111747176D01*
X181809580Y-110175748D02*
X181857200Y-110223367D01*
X181857200Y-110223367D02*
X181904819Y-110366224D01*
X181904819Y-110366224D02*
X181904819Y-110461462D01*
X181904819Y-110461462D02*
X181857200Y-110604319D01*
X181857200Y-110604319D02*
X181761961Y-110699557D01*
X181761961Y-110699557D02*
X181666723Y-110747176D01*
X181666723Y-110747176D02*
X181476247Y-110794795D01*
X181476247Y-110794795D02*
X181333390Y-110794795D01*
X181333390Y-110794795D02*
X181142914Y-110747176D01*
X181142914Y-110747176D02*
X181047676Y-110699557D01*
X181047676Y-110699557D02*
X180952438Y-110604319D01*
X180952438Y-110604319D02*
X180904819Y-110461462D01*
X180904819Y-110461462D02*
X180904819Y-110366224D01*
X180904819Y-110366224D02*
X180952438Y-110223367D01*
X180952438Y-110223367D02*
X181000057Y-110175748D01*
X181000057Y-109794795D02*
X180952438Y-109747176D01*
X180952438Y-109747176D02*
X180904819Y-109651938D01*
X180904819Y-109651938D02*
X180904819Y-109413843D01*
X180904819Y-109413843D02*
X180952438Y-109318605D01*
X180952438Y-109318605D02*
X181000057Y-109270986D01*
X181000057Y-109270986D02*
X181095295Y-109223367D01*
X181095295Y-109223367D02*
X181190533Y-109223367D01*
X181190533Y-109223367D02*
X181333390Y-109270986D01*
X181333390Y-109270986D02*
X181904819Y-109842414D01*
X181904819Y-109842414D02*
X181904819Y-109223367D01*
D15*
X173527373Y-105723731D02*
X173583399Y-105779756D01*
X173583399Y-105779756D02*
X173639424Y-105947832D01*
X173639424Y-105947832D02*
X173639424Y-106059882D01*
X173639424Y-106059882D02*
X173583399Y-106227957D01*
X173583399Y-106227957D02*
X173471348Y-106340008D01*
X173471348Y-106340008D02*
X173359298Y-106396033D01*
X173359298Y-106396033D02*
X173135197Y-106452058D01*
X173135197Y-106452058D02*
X172967122Y-106452058D01*
X172967122Y-106452058D02*
X172743021Y-106396033D01*
X172743021Y-106396033D02*
X172630971Y-106340008D01*
X172630971Y-106340008D02*
X172518921Y-106227957D01*
X172518921Y-106227957D02*
X172462896Y-106059882D01*
X172462896Y-106059882D02*
X172462896Y-105947832D01*
X172462896Y-105947832D02*
X172518921Y-105779756D01*
X172518921Y-105779756D02*
X172574946Y-105723731D01*
X173639424Y-104603228D02*
X173639424Y-105275530D01*
X173639424Y-104939379D02*
X172462896Y-104939379D01*
X172462896Y-104939379D02*
X172630971Y-105051429D01*
X172630971Y-105051429D02*
X172743021Y-105163480D01*
X172743021Y-105163480D02*
X172799047Y-105275530D01*
D14*
X164506604Y-112516938D02*
X164506604Y-112040748D01*
X164792319Y-112612176D02*
X163792319Y-112278843D01*
X163792319Y-112278843D02*
X164792319Y-111945510D01*
X164792319Y-111612176D02*
X163792319Y-111612176D01*
X163792319Y-111612176D02*
X163792319Y-111374081D01*
X163792319Y-111374081D02*
X163839938Y-111231224D01*
X163839938Y-111231224D02*
X163935176Y-111135986D01*
X163935176Y-111135986D02*
X164030414Y-111088367D01*
X164030414Y-111088367D02*
X164220890Y-111040748D01*
X164220890Y-111040748D02*
X164363747Y-111040748D01*
X164363747Y-111040748D02*
X164554223Y-111088367D01*
X164554223Y-111088367D02*
X164649461Y-111135986D01*
X164649461Y-111135986D02*
X164744700Y-111231224D01*
X164744700Y-111231224D02*
X164792319Y-111374081D01*
X164792319Y-111374081D02*
X164792319Y-111612176D01*
X164697080Y-110040748D02*
X164744700Y-110088367D01*
X164744700Y-110088367D02*
X164792319Y-110231224D01*
X164792319Y-110231224D02*
X164792319Y-110326462D01*
X164792319Y-110326462D02*
X164744700Y-110469319D01*
X164744700Y-110469319D02*
X164649461Y-110564557D01*
X164649461Y-110564557D02*
X164554223Y-110612176D01*
X164554223Y-110612176D02*
X164363747Y-110659795D01*
X164363747Y-110659795D02*
X164220890Y-110659795D01*
X164220890Y-110659795D02*
X164030414Y-110612176D01*
X164030414Y-110612176D02*
X163935176Y-110564557D01*
X163935176Y-110564557D02*
X163839938Y-110469319D01*
X163839938Y-110469319D02*
X163792319Y-110326462D01*
X163792319Y-110326462D02*
X163792319Y-110231224D01*
X163792319Y-110231224D02*
X163839938Y-110088367D01*
X163839938Y-110088367D02*
X163887557Y-110040748D01*
X164792319Y-109088367D02*
X164792319Y-109659795D01*
X164792319Y-109374081D02*
X163792319Y-109374081D01*
X163792319Y-109374081D02*
X163935176Y-109469319D01*
X163935176Y-109469319D02*
X164030414Y-109564557D01*
X164030414Y-109564557D02*
X164078033Y-109659795D01*
D15*
X190827373Y-106174831D02*
X190883399Y-106230856D01*
X190883399Y-106230856D02*
X190939424Y-106398932D01*
X190939424Y-106398932D02*
X190939424Y-106510982D01*
X190939424Y-106510982D02*
X190883399Y-106679057D01*
X190883399Y-106679057D02*
X190771348Y-106791108D01*
X190771348Y-106791108D02*
X190659298Y-106847133D01*
X190659298Y-106847133D02*
X190435197Y-106903158D01*
X190435197Y-106903158D02*
X190267122Y-106903158D01*
X190267122Y-106903158D02*
X190043021Y-106847133D01*
X190043021Y-106847133D02*
X189930971Y-106791108D01*
X189930971Y-106791108D02*
X189818921Y-106679057D01*
X189818921Y-106679057D02*
X189762896Y-106510982D01*
X189762896Y-106510982D02*
X189762896Y-106398932D01*
X189762896Y-106398932D02*
X189818921Y-106230856D01*
X189818921Y-106230856D02*
X189874946Y-106174831D01*
X189874946Y-105726630D02*
X189818921Y-105670605D01*
X189818921Y-105670605D02*
X189762896Y-105558555D01*
X189762896Y-105558555D02*
X189762896Y-105278429D01*
X189762896Y-105278429D02*
X189818921Y-105166379D01*
X189818921Y-105166379D02*
X189874946Y-105110353D01*
X189874946Y-105110353D02*
X189986996Y-105054328D01*
X189986996Y-105054328D02*
X190099047Y-105054328D01*
X190099047Y-105054328D02*
X190267122Y-105110353D01*
X190267122Y-105110353D02*
X190939424Y-105782655D01*
X190939424Y-105782655D02*
X190939424Y-105054328D01*
D16*
%TO.C,RN5*%
X183720000Y-120487653D02*
X183720000Y-120987653D01*
X186080000Y-120487653D02*
X186080000Y-120987653D01*
D17*
%TO.C,J2*%
X206550000Y-116100001D02*
X209850000Y-116100001D01*
X209850000Y-116100001D02*
X209850000Y-99100001D01*
X209850000Y-99100001D02*
X206550000Y-99100001D01*
X206550000Y-99100001D02*
X206550000Y-116100001D01*
D16*
X207750000Y-116100001D02*
X206550000Y-116100001D01*
X206550000Y-114900001D01*
X207750000Y-116100001D01*
G36*
X207750000Y-116100001D02*
G01*
X206550000Y-116100001D01*
X206550000Y-114900001D01*
X207750000Y-116100001D01*
G37*
D14*
%TO.C,MUX2*%
X203475000Y-90025001D02*
X203475000Y-89800001D01*
X203475000Y-90025001D02*
X197725000Y-90025001D01*
X203475000Y-89800001D02*
X205075000Y-89800001D01*
X203475000Y-81375001D02*
X203475000Y-81675001D01*
X203475000Y-81375001D02*
X197725000Y-81375001D01*
X197725000Y-90025001D02*
X197725000Y-89725001D01*
X197725000Y-81375001D02*
X197725000Y-81675001D01*
D17*
%TO.C,J3*%
X182400000Y-115687653D02*
X199400000Y-115687653D01*
X199400000Y-115687653D02*
X199400000Y-118987653D01*
X199400000Y-118987653D02*
X182400000Y-118987653D01*
X182400000Y-118987653D02*
X182400000Y-115687653D01*
D16*
X182400000Y-116887653D02*
X182400000Y-115687653D01*
X183600000Y-115687653D01*
X182400000Y-116887653D01*
G36*
X182400000Y-116887653D02*
G01*
X182400000Y-115687653D01*
X183600000Y-115687653D01*
X182400000Y-116887653D01*
G37*
D14*
%TO.C,MUX1*%
X203475000Y-107825002D02*
X203475000Y-107600002D01*
X203475000Y-107825002D02*
X197725000Y-107825002D01*
X203475000Y-107600002D02*
X205075000Y-107600002D01*
X203475000Y-99175002D02*
X203475000Y-99475002D01*
X203475000Y-99175002D02*
X197725000Y-99175002D01*
X197725000Y-107825002D02*
X197725000Y-107525002D01*
X197725000Y-99175002D02*
X197725000Y-99475002D01*
D18*
%TO.C,ADC2*%
X182830000Y-112932653D02*
X182830000Y-108942653D01*
X191570000Y-112932653D02*
X191570000Y-108942653D01*
D17*
X182900000Y-113837653D02*
G75*
G03*
X182900000Y-113837653I-100000J0D01*
G01*
D16*
%TO.C,RN6*%
X187720000Y-120487653D02*
X187720000Y-120987653D01*
X190080000Y-120487653D02*
X190080000Y-120987653D01*
D17*
%TO.C,J5*%
X140500000Y-78350000D02*
X157500000Y-78350000D01*
X157500000Y-78350000D02*
X157500000Y-81650000D01*
X157500000Y-81650000D02*
X140500000Y-81650000D01*
X140500000Y-81650000D02*
X140500000Y-78350000D01*
D16*
X140500000Y-79550000D02*
X140500000Y-78350000D01*
X141700000Y-78350000D01*
X140500000Y-79550000D01*
G36*
X140500000Y-79550000D02*
G01*
X140500000Y-78350000D01*
X141700000Y-78350000D01*
X140500000Y-79550000D01*
G37*
D17*
%TO.C,J1*%
X206555000Y-98450001D02*
X209855000Y-98450001D01*
X209855000Y-98450001D02*
X209855000Y-81450001D01*
X209855000Y-81450001D02*
X206555000Y-81450001D01*
X206555000Y-81450001D02*
X206555000Y-98450001D01*
D16*
X207755000Y-98450001D02*
X206555000Y-98450001D01*
X206555000Y-97250001D01*
X207755000Y-98450001D01*
G36*
X207755000Y-98450001D02*
G01*
X206555000Y-98450001D01*
X206555000Y-97250001D01*
X207755000Y-98450001D01*
G37*
%TO.C,RN1*%
X166420000Y-120287653D02*
X166420000Y-120787653D01*
X168780000Y-120287653D02*
X168780000Y-120787653D01*
D17*
%TO.C,J4*%
X165162500Y-115672653D02*
X182162500Y-115672653D01*
X182162500Y-115672653D02*
X182162500Y-118972653D01*
X182162500Y-118972653D02*
X165162500Y-118972653D01*
X165162500Y-118972653D02*
X165162500Y-115672653D01*
D16*
X165162500Y-116872653D02*
X165162500Y-115672653D01*
X166362500Y-115672653D01*
X165162500Y-116872653D01*
G36*
X165162500Y-116872653D02*
G01*
X165162500Y-115672653D01*
X166362500Y-115672653D01*
X165162500Y-116872653D01*
G37*
%TO.C,RN4*%
X178520000Y-120287653D02*
X178520000Y-120787653D01*
X180880000Y-120287653D02*
X180880000Y-120787653D01*
%TO.C,RN2*%
X170520000Y-120287653D02*
X170520000Y-120787653D01*
X172880000Y-120287653D02*
X172880000Y-120787653D01*
%TO.C,J12*%
X134050000Y-101570000D02*
X192530000Y-101570000D01*
X134050000Y-101570000D02*
X134050000Y-98910000D01*
X192530000Y-101570000D02*
X192530000Y-98910000D01*
X131450000Y-100240000D02*
X131450000Y-98910000D01*
X131450000Y-98910000D02*
X132780000Y-98910000D01*
X134050000Y-98910000D02*
X192530000Y-98910000D01*
%TO.C,RN7*%
X191720000Y-120487653D02*
X191720000Y-120987653D01*
X194080000Y-120487653D02*
X194080000Y-120987653D01*
D18*
%TO.C,ADC1*%
X165630000Y-112932653D02*
X165630000Y-108942653D01*
X174370000Y-112932653D02*
X174370000Y-108942653D01*
D17*
X165700000Y-113837653D02*
G75*
G03*
X165700000Y-113837653I-100000J0D01*
G01*
D16*
%TO.C,RN8*%
X195720000Y-120487653D02*
X195720000Y-120987653D01*
X198080000Y-120487653D02*
X198080000Y-120987653D01*
%TO.C,RN3*%
X174520000Y-120287653D02*
X174520000Y-120787653D01*
X176880000Y-120287653D02*
X176880000Y-120787653D01*
%TO.C,J11*%
X134050000Y-86330000D02*
X192530000Y-86330000D01*
X134050000Y-86330000D02*
X134050000Y-83670000D01*
X192530000Y-86330000D02*
X192530000Y-83670000D01*
X131450000Y-85000000D02*
X131450000Y-83670000D01*
X131450000Y-83670000D02*
X132780000Y-83670000D01*
X134050000Y-83670000D02*
X192530000Y-83670000D01*
%TD*%
%LPC*%
D19*
%TO.C,RN5*%
X184150000Y-121237653D03*
D20*
X184650000Y-121237653D03*
X185150000Y-121237653D03*
D19*
X185650000Y-121237653D03*
X185650000Y-120237653D03*
D20*
X185150000Y-120237653D03*
X184650000Y-120237653D03*
D19*
X184150000Y-120237653D03*
%TD*%
D21*
%TO.C,H5*%
X207500000Y-119500000D03*
%TD*%
D22*
%TO.C,J2*%
X209200000Y-115100001D03*
X207200000Y-114100001D03*
X209200000Y-113100001D03*
X207200000Y-112100001D03*
X209200000Y-111100001D03*
X207200000Y-110100001D03*
X209200000Y-109100001D03*
X207200000Y-108100001D03*
X209200000Y-107100001D03*
X207200000Y-106100001D03*
X209200000Y-105100001D03*
X207200000Y-104100001D03*
X209200000Y-103100001D03*
X207200000Y-102100001D03*
X209200000Y-101100001D03*
X207200000Y-100100001D03*
%TD*%
D23*
%TO.C,MUX2*%
X204200000Y-89275001D03*
X204200000Y-88625001D03*
X204200000Y-87975001D03*
X204200000Y-87325001D03*
X204200000Y-86675001D03*
X204200000Y-86025001D03*
X204200000Y-85375001D03*
X204200000Y-84725001D03*
X204200000Y-84075001D03*
X204200000Y-83425001D03*
X204200000Y-82775001D03*
X204200000Y-82125001D03*
X197000000Y-82125001D03*
X197000000Y-82775001D03*
X197000000Y-83425001D03*
X197000000Y-84075001D03*
X197000000Y-84725001D03*
X197000000Y-85375001D03*
X197000000Y-86025001D03*
X197000000Y-86675001D03*
X197000000Y-87325001D03*
X197000000Y-87975001D03*
X197000000Y-88625001D03*
X197000000Y-89275001D03*
%TD*%
D22*
%TO.C,J3*%
X183400000Y-118337653D03*
X184400000Y-116337653D03*
X185400000Y-118337653D03*
X186400000Y-116337653D03*
X187400000Y-118337653D03*
X188400000Y-116337653D03*
X189400000Y-118337653D03*
X190400000Y-116337653D03*
X191400000Y-118337653D03*
X192400000Y-116337653D03*
X193400000Y-118337653D03*
X194400000Y-116337653D03*
X195400000Y-118337653D03*
X196400000Y-116337653D03*
X197400000Y-118337653D03*
X198400000Y-116337653D03*
%TD*%
D23*
%TO.C,MUX1*%
X204200000Y-107075002D03*
X204200000Y-106425002D03*
X204200000Y-105775002D03*
X204200000Y-105125002D03*
X204200000Y-104475002D03*
X204200000Y-103825002D03*
X204200000Y-103175002D03*
X204200000Y-102525002D03*
X204200000Y-101875002D03*
X204200000Y-101225002D03*
X204200000Y-100575002D03*
X204200000Y-99925002D03*
X197000000Y-99925002D03*
X197000000Y-100575002D03*
X197000000Y-101225002D03*
X197000000Y-101875002D03*
X197000000Y-102525002D03*
X197000000Y-103175002D03*
X197000000Y-103825002D03*
X197000000Y-104475002D03*
X197000000Y-105125002D03*
X197000000Y-105775002D03*
X197000000Y-106425002D03*
X197000000Y-107075002D03*
%TD*%
D24*
%TO.C,ADC2*%
X183707500Y-113572653D03*
X184342500Y-113572653D03*
X184977500Y-113572653D03*
X185612500Y-113572653D03*
X186247500Y-113572653D03*
X186882500Y-113572653D03*
X187517500Y-113572653D03*
X188152500Y-113572653D03*
X188787500Y-113572653D03*
X189422500Y-113572653D03*
X190057500Y-113572653D03*
X190692500Y-113572653D03*
X190692500Y-108302653D03*
X190057500Y-108302653D03*
X189422500Y-108302653D03*
X188787500Y-108302653D03*
X188152500Y-108302653D03*
X187517500Y-108302653D03*
X186882500Y-108302653D03*
X186247500Y-108302653D03*
X185612500Y-108302653D03*
X184977500Y-108302653D03*
X184342500Y-108302653D03*
X183707500Y-108302653D03*
%TD*%
D19*
%TO.C,RN6*%
X188150000Y-121237653D03*
D20*
X188650000Y-121237653D03*
X189150000Y-121237653D03*
D19*
X189650000Y-121237653D03*
X189650000Y-120237653D03*
D20*
X189150000Y-120237653D03*
X188650000Y-120237653D03*
D19*
X188150000Y-120237653D03*
%TD*%
D22*
%TO.C,J5*%
X141500000Y-81000000D03*
X142500000Y-79000000D03*
X143500000Y-81000000D03*
X144500000Y-79000000D03*
X145500000Y-81000000D03*
X146500000Y-79000000D03*
X147500000Y-81000000D03*
X148500000Y-79000000D03*
X149500000Y-81000000D03*
X150500000Y-79000000D03*
X151500000Y-81000000D03*
X152500000Y-79000000D03*
X153500000Y-81000000D03*
X154500000Y-79000000D03*
X155500000Y-81000000D03*
X156500000Y-79000000D03*
%TD*%
%TO.C,J1*%
X209205000Y-97450001D03*
X207205000Y-96450001D03*
X209205000Y-95450001D03*
X207205000Y-94450001D03*
X209205000Y-93450001D03*
X207205000Y-92450001D03*
X209205000Y-91450001D03*
X207205000Y-90450001D03*
X209205000Y-89450001D03*
X207205000Y-88450001D03*
X209205000Y-87450001D03*
X207205000Y-86450001D03*
X209205000Y-85450001D03*
X207205000Y-84450001D03*
X209205000Y-83450001D03*
X207205000Y-82450001D03*
%TD*%
D19*
%TO.C,RN1*%
X166850000Y-121037653D03*
D20*
X167350000Y-121037653D03*
X167850000Y-121037653D03*
D19*
X168350000Y-121037653D03*
X168350000Y-120037653D03*
D20*
X167850000Y-120037653D03*
X167350000Y-120037653D03*
D19*
X166850000Y-120037653D03*
%TD*%
D22*
%TO.C,J4*%
X166162500Y-118322653D03*
X167162500Y-116322653D03*
X168162500Y-118322653D03*
X169162500Y-116322653D03*
X170162500Y-118322653D03*
X171162500Y-116322653D03*
X172162500Y-118322653D03*
X173162500Y-116322653D03*
X174162500Y-118322653D03*
X175162500Y-116322653D03*
X176162500Y-118322653D03*
X177162500Y-116322653D03*
X178162500Y-118322653D03*
X179162500Y-116322653D03*
X180162500Y-118322653D03*
X181162500Y-116322653D03*
%TD*%
D21*
%TO.C,H1*%
X132500000Y-79500000D03*
%TD*%
D19*
%TO.C,RN4*%
X178950000Y-121037653D03*
D20*
X179450000Y-121037653D03*
X179950000Y-121037653D03*
D19*
X180450000Y-121037653D03*
X180450000Y-120037653D03*
D20*
X179950000Y-120037653D03*
X179450000Y-120037653D03*
D19*
X178950000Y-120037653D03*
%TD*%
D25*
%TO.C,C1*%
X171450000Y-105937653D03*
X169750000Y-105937653D03*
%TD*%
D19*
%TO.C,RN2*%
X170950000Y-121037653D03*
D20*
X171450000Y-121037653D03*
X171950000Y-121037653D03*
D19*
X172450000Y-121037653D03*
X172450000Y-120037653D03*
D20*
X171950000Y-120037653D03*
X171450000Y-120037653D03*
D19*
X170950000Y-120037653D03*
%TD*%
D26*
%TO.C,J12*%
X132780000Y-100240000D03*
D27*
X135320000Y-100240000D03*
X137860000Y-100240000D03*
X140400000Y-100240000D03*
X142940000Y-100240000D03*
X145480000Y-100240000D03*
X148020000Y-100240000D03*
X150560000Y-100240000D03*
X153100000Y-100240000D03*
X155640000Y-100240000D03*
X158180000Y-100240000D03*
X160720000Y-100240000D03*
X163260000Y-100240000D03*
X165800000Y-100240000D03*
X168340000Y-100240000D03*
X170880000Y-100240000D03*
X173420000Y-100240000D03*
X175960000Y-100240000D03*
X178500000Y-100240000D03*
X181040000Y-100240000D03*
X183580000Y-100240000D03*
X186120000Y-100240000D03*
X188660000Y-100240000D03*
X191200000Y-100240000D03*
%TD*%
D19*
%TO.C,RN7*%
X192150000Y-121237653D03*
D20*
X192650000Y-121237653D03*
X193150000Y-121237653D03*
D19*
X193650000Y-121237653D03*
X193650000Y-120237653D03*
D20*
X193150000Y-120237653D03*
X192650000Y-120237653D03*
D19*
X192150000Y-120237653D03*
%TD*%
D24*
%TO.C,ADC1*%
X166507500Y-113572653D03*
X167142500Y-113572653D03*
X167777500Y-113572653D03*
X168412500Y-113572653D03*
X169047500Y-113572653D03*
X169682500Y-113572653D03*
X170317500Y-113572653D03*
X170952500Y-113572653D03*
X171587500Y-113572653D03*
X172222500Y-113572653D03*
X172857500Y-113572653D03*
X173492500Y-113572653D03*
X173492500Y-108302653D03*
X172857500Y-108302653D03*
X172222500Y-108302653D03*
X171587500Y-108302653D03*
X170952500Y-108302653D03*
X170317500Y-108302653D03*
X169682500Y-108302653D03*
X169047500Y-108302653D03*
X168412500Y-108302653D03*
X167777500Y-108302653D03*
X167142500Y-108302653D03*
X166507500Y-108302653D03*
%TD*%
D25*
%TO.C,C2*%
X188550000Y-105937653D03*
X186850000Y-105937653D03*
%TD*%
D19*
%TO.C,RN8*%
X196150000Y-121237653D03*
D20*
X196650000Y-121237653D03*
X197150000Y-121237653D03*
D19*
X197650000Y-121237653D03*
X197650000Y-120237653D03*
D20*
X197150000Y-120237653D03*
X196650000Y-120237653D03*
D19*
X196150000Y-120237653D03*
%TD*%
%TO.C,RN3*%
X174950000Y-121037653D03*
D20*
X175450000Y-121037653D03*
X175950000Y-121037653D03*
D19*
X176450000Y-121037653D03*
X176450000Y-120037653D03*
D20*
X175950000Y-120037653D03*
X175450000Y-120037653D03*
D19*
X174950000Y-120037653D03*
%TD*%
D26*
%TO.C,J11*%
X132780000Y-85000000D03*
D27*
X135320000Y-85000000D03*
X137860000Y-85000000D03*
X140400000Y-85000000D03*
X142940000Y-85000000D03*
X145480000Y-85000000D03*
X148020000Y-85000000D03*
X150560000Y-85000000D03*
X153100000Y-85000000D03*
X155640000Y-85000000D03*
X158180000Y-85000000D03*
X160720000Y-85000000D03*
X163260000Y-85000000D03*
X165800000Y-85000000D03*
X168340000Y-85000000D03*
X170880000Y-85000000D03*
X173420000Y-85000000D03*
X175960000Y-85000000D03*
X178500000Y-85000000D03*
X181040000Y-85000000D03*
X183580000Y-85000000D03*
X186120000Y-85000000D03*
X188660000Y-85000000D03*
X191200000Y-85000000D03*
%TD*%
D28*
%TO.C,J17*%
X139710000Y-111730000D03*
X139710000Y-114230000D03*
X137710000Y-114230000D03*
X137710000Y-111730000D03*
D29*
X135000000Y-119000000D03*
X135000000Y-106960000D03*
%TD*%
%LPD*%
M02*
