M48
; DRILL file {KiCad 7.0.7-7.0.7~ubuntu22.04.1} date Fri 08 Sep 2023 16:19:24 BST
; FORMAT={-:-/ absolute / inch / decimal}
; #@! TF.CreationDate,2023-09-08T16:19:24+01:00
; #@! TF.GenerationSoftware,Kicad,Pcbnew,7.0.7-7.0.7~ubuntu22.04.1
; #@! TF.FileFunction,Plated,1,4,PTH
FMAT,2
INCH
; #@! TA.AperFunction,Plated,PTH,ViaDrill
T1C0.0118
; #@! TA.AperFunction,Plated,PTH,ComponentDrill
T2C0.0315
; #@! TA.AperFunction,Plated,PTH,ComponentDrill
T3C0.0362
; #@! TA.AperFunction,Plated,PTH,ComponentDrill
T4C0.0394
; #@! TA.AperFunction,Plated,PTH,ComponentDrill
T5C0.0906
%
G90
G05
T1
X6.6063Y-4.3228
X6.622Y-4.3622
X6.626Y-4.0512
X6.6575Y-4.3937
X6.7559Y-4.3898
X7.2874Y-4.3346
X7.315Y-4.3622
X7.3583Y-4.3819
X7.7795Y-3.7795
X7.815Y-3.2312
X7.815Y-3.2598
X7.8189Y-3.9331
X7.8189Y-3.9882
X7.8937Y-3.5148
X7.8937Y-4.2156
X7.9685Y-3.2598
X7.9685Y-3.2884
T2
X5.5709Y-3.189
X5.6102Y-3.1102
X5.6496Y-3.189
X5.689Y-3.1102
X5.7283Y-3.189
X5.7677Y-3.1102
X5.8071Y-3.189
X5.8465Y-3.1102
X5.8858Y-3.189
X5.9252Y-3.1102
X5.9646Y-3.189
X6.0039Y-3.1102
X6.0433Y-3.189
X6.0827Y-3.1102
X6.122Y-3.189
X6.1614Y-3.1102
X6.5418Y-4.6584
X6.5812Y-4.5796
X6.6206Y-4.6584
X6.6599Y-4.5796
X6.6993Y-4.6584
X6.7387Y-4.5796
X6.7781Y-4.6584
X6.8174Y-4.5796
X6.8568Y-4.6584
X6.8962Y-4.5796
X6.9355Y-4.6584
X6.9749Y-4.5796
X7.0143Y-4.6584
X7.0536Y-4.5796
X7.093Y-4.6584
X7.1324Y-4.5796
X7.2205Y-4.659
X7.2598Y-4.5802
X7.2992Y-4.659
X7.3386Y-4.5802
X7.378Y-4.659
X7.4173Y-4.5802
X7.4567Y-4.659
X7.4961Y-4.5802
X7.5354Y-4.659
X7.5748Y-4.5802
X7.6142Y-4.659
X7.6535Y-4.5802
X7.6929Y-4.659
X7.7323Y-4.5802
X7.7717Y-4.659
X7.811Y-4.5802
X8.1575Y-3.9409
X8.1575Y-4.0197
X8.1575Y-4.0984
X8.1575Y-4.1772
X8.1575Y-4.2559
X8.1575Y-4.3346
X8.1575Y-4.4134
X8.1575Y-4.4921
X8.1577Y-3.2461
X8.1577Y-3.3248
X8.1577Y-3.4035
X8.1577Y-3.4823
X8.1577Y-3.561
X8.1577Y-3.6398
X8.1577Y-3.7185
X8.1577Y-3.7972
X8.2362Y-3.9803
X8.2362Y-4.0591
X8.2362Y-4.1378
X8.2362Y-4.2165
X8.2362Y-4.2953
X8.2362Y-4.374
X8.2362Y-4.4528
X8.2362Y-4.5315
X8.2364Y-3.2854
X8.2364Y-3.3642
X8.2364Y-3.4429
X8.2364Y-3.5217
X8.2364Y-3.6004
X8.2364Y-3.6791
X8.2364Y-3.7579
X8.2364Y-3.8366
T3
X5.4217Y-4.3988
X5.4217Y-4.4972
X5.5004Y-4.3988
X5.5004Y-4.4972
T4
X5.2276Y-3.3465
X5.2276Y-3.9465
X5.3276Y-3.3465
X5.3276Y-3.9465
X5.4276Y-3.3465
X5.4276Y-3.9465
X5.5276Y-3.3465
X5.5276Y-3.9465
X5.6276Y-3.3465
X5.6276Y-3.9465
X5.7276Y-3.3465
X5.7276Y-3.9465
X5.8276Y-3.3465
X5.8276Y-3.9465
X5.9276Y-3.3465
X5.9276Y-3.9465
X6.0276Y-3.3465
X6.0276Y-3.9465
X6.1276Y-3.3465
X6.1276Y-3.9465
X6.2276Y-3.3465
X6.2276Y-3.9465
X6.3276Y-3.3465
X6.3276Y-3.9465
X6.4276Y-3.3465
X6.4276Y-3.9465
X6.5276Y-3.3465
X6.5276Y-3.9465
X6.6276Y-3.3465
X6.6276Y-3.9465
X6.7276Y-3.3465
X6.7276Y-3.9465
X6.8276Y-3.3465
X6.8276Y-3.9465
X6.9276Y-3.3465
X6.9276Y-3.9465
X7.0276Y-3.3465
X7.0276Y-3.9465
X7.1276Y-3.3465
X7.1276Y-3.9465
X7.2276Y-3.3465
X7.2276Y-3.9465
X7.3276Y-3.3465
X7.3276Y-3.9465
X7.4276Y-3.3465
X7.4276Y-3.9465
X7.5276Y-3.3465
X7.5276Y-3.9465
T5
X5.315Y-4.211
X5.315Y-4.685
T0
M30
