G04 #@! TF.GenerationSoftware,KiCad,Pcbnew,8.0.1-unknown-202403172319~81f55dfc9c~ubuntu22.04.1*
G04 #@! TF.CreationDate,2024-03-25T12:05:19+00:00*
G04 #@! TF.ProjectId,LIS3DH_array,4c495333-4448-45f6-9172-7261792e6b69,rev?*
G04 #@! TF.SameCoordinates,Original*
G04 #@! TF.FileFunction,Soldermask,Bot*
G04 #@! TF.FilePolarity,Negative*
%FSLAX46Y46*%
G04 Gerber Fmt 4.6, Leading zero omitted, Abs format (unit mm)*
G04 Created by KiCad (PCBNEW 8.0.1-unknown-202403172319~81f55dfc9c~ubuntu22.04.1) date 2024-03-25 12:05:19*
%MOMM*%
%LPD*%
G01*
G04 APERTURE LIST*
%ADD10C,1.000000*%
G04 APERTURE END LIST*
D10*
X128000002Y-96999998D03*
X98000002Y-78000002D03*
X113000003Y-96999998D03*
X101999998Y-81999998D03*
X146999998Y-111999997D03*
X113000002Y-123000003D03*
X146999998Y-96999997D03*
X131999998Y-126999997D03*
X128000002Y-81999998D03*
X113000002Y-108000003D03*
X146999998Y-81999997D03*
X146999997Y-108000002D03*
X128000002Y-78000002D03*
X116999997Y-108000002D03*
X143000003Y-111999998D03*
X98000003Y-111999998D03*
X143000003Y-126999998D03*
X131999998Y-78000002D03*
X131999997Y-123000002D03*
X116999998Y-81999998D03*
X116999997Y-93000002D03*
X116999998Y-126999997D03*
X146999998Y-126999997D03*
X131999998Y-93000002D03*
X143000002Y-123000003D03*
X131999998Y-81999998D03*
X113000002Y-93000003D03*
X101999998Y-96999997D03*
X128000002Y-93000002D03*
X128000003Y-126999998D03*
X146999997Y-123000002D03*
X113000002Y-81999998D03*
X113000003Y-126999998D03*
X143000002Y-78000003D03*
X116999998Y-96999997D03*
X98000003Y-96999998D03*
X143000003Y-96999998D03*
X116999997Y-123000002D03*
X143000003Y-81999998D03*
X146999997Y-93000002D03*
X143000002Y-108000003D03*
X101999998Y-126999997D03*
X98000002Y-123000003D03*
X101999998Y-78000002D03*
X101999997Y-123000002D03*
X98000002Y-93000003D03*
X146999997Y-78000002D03*
X143000002Y-93000003D03*
X128000002Y-108000003D03*
X101999997Y-93000002D03*
X101999998Y-111999997D03*
X113000003Y-111999998D03*
X128000002Y-123000003D03*
X128000003Y-111999998D03*
X116999998Y-111999997D03*
X116999998Y-78000002D03*
X131999997Y-108000002D03*
X101999997Y-108000002D03*
X131999998Y-96999998D03*
X131999998Y-111999997D03*
X98000002Y-108000003D03*
X98000003Y-126999998D03*
X98000002Y-81999998D03*
X113000002Y-78000002D03*
M02*
