M48
; DRILL file {KiCad 7.0.7-7.0.7~ubuntu22.04.1} date Tue 15 Aug 2023 12:14:29 BST
; FORMAT={-:-/ absolute / inch / decimal}
; #@! TF.CreationDate,2023-08-15T12:14:29+01:00
; #@! TF.GenerationSoftware,Kicad,Pcbnew,7.0.7-7.0.7~ubuntu22.04.1
; #@! TF.FileFunction,Plated,1,2,PTH
FMAT,2
INCH
; #@! TA.AperFunction,Plated,PTH,ViaDrill
T1C0.0118
; #@! TA.AperFunction,Plated,PTH,ComponentDrill
T2C0.0276
; #@! TA.AperFunction,Plated,PTH,ComponentDrill
T3C0.0394
%
G90
G05
T1
X2.7559Y-3.2087
X2.7559Y-3.7992
X2.7559Y-4.3898
X2.7559Y-4.9803
X2.7756Y-3.1693
X2.7953Y-3.7894
X2.815Y-4.3504
X2.8346Y-4.9409
X2.8937Y-3.1693
X2.8937Y-3.7598
X2.8937Y-4.3504
X2.8937Y-4.9213
X2.9134Y-3.1398
X2.9134Y-3.7303
X2.9134Y-4.3209
X2.9134Y-4.8917
X2.9331Y-3.1102
X2.9331Y-3.7008
X2.9331Y-4.2913
X2.9331Y-4.8622
X2.9724Y-3.0512
X2.9724Y-3.6417
X2.9724Y-4.2323
X2.9724Y-4.439
X2.9724Y-4.813
X2.9724Y-5.0295
X2.9823Y-3.2579
X2.9823Y-3.8484
X3.002Y-3.0512
X3.002Y-3.6417
X3.002Y-4.2323
X3.002Y-4.439
X3.002Y-4.813
X3.002Y-5.0295
X3.0118Y-3.2579
X3.0118Y-3.8484
X3.0315Y-3.0512
X3.0315Y-3.6417
X3.0315Y-4.2323
X3.0315Y-4.439
X3.0315Y-4.813
X3.0315Y-5.0295
X3.0413Y-3.2579
X3.0413Y-3.8484
X3.061Y-3.0512
X3.061Y-3.6417
X3.061Y-4.2323
X3.061Y-4.439
X3.061Y-4.813
X3.061Y-5.0295
X3.0709Y-3.2579
X3.0709Y-3.8484
X3.8287Y-2.185
X3.8287Y-2.2146
X3.8287Y-2.2441
X3.8287Y-2.2736
X3.8386Y-5.7972
X3.8386Y-5.8268
X3.8386Y-5.8563
X3.8386Y-5.8858
X3.8583Y-3.0709
X3.8583Y-3.2283
X3.8583Y-3.6614
X3.8583Y-3.8189
X3.8583Y-4.252
X3.8583Y-4.4094
X3.8583Y-4.8425
X3.8583Y-5.0
X3.878Y-1.9276
X3.878Y-5.9252
X3.9075Y-5.9449
X3.9154Y-3.1358
X3.9161Y-3.1689
X3.9173Y-3.7224
X3.9173Y-4.313
X3.9173Y-4.9035
X3.9232Y-3.7618
X3.9232Y-4.3524
X3.9232Y-4.9429
X3.935Y-3.7398
X3.935Y-4.3303
X3.935Y-4.9209
X3.937Y-5.9646
X3.9374Y-3.1476
X3.9547Y-3.1299
X3.9563Y-3.761
X3.9563Y-4.3516
X3.9563Y-4.9421
X3.9567Y-6.0039
X3.9646Y-2.1063
X3.9724Y-3.2559
X3.9862Y-2.126
X3.9961Y-6.0217
X4.0059Y-2.1457
X4.0157Y-3.8189
X4.0157Y-4.4094
X4.0157Y-5.0
X4.0157Y-3.0709
X4.0157Y-3.2283
X4.0157Y-3.6614
X4.0157Y-4.252
X4.0157Y-4.8425
X4.0433Y-3.6969
X4.0433Y-4.2874
X4.0433Y-4.878
X4.0453Y-2.185
X4.0453Y-2.2146
X4.0453Y-2.2441
X4.0453Y-2.2736
X4.0551Y-5.7972
X4.0551Y-5.8268
X4.0551Y-5.8563
X4.0551Y-5.8858
X4.4193Y-2.185
X4.4193Y-2.2146
X4.4193Y-2.2441
X4.4193Y-2.2736
X4.4488Y-3.0709
X4.4488Y-3.2283
X4.4488Y-3.6614
X4.4488Y-3.8189
X4.4488Y-4.252
X4.4488Y-4.4094
X4.4488Y-4.8425
X4.4488Y-5.0
X4.4843Y-4.2244
X4.4843Y-4.815
X4.4882Y-1.9276
X4.5059Y-3.1358
X4.5067Y-3.1665
X4.5079Y-3.7224
X4.5098Y-4.3504
X4.5098Y-4.9409
X4.5138Y-3.7618
X4.5256Y-3.7398
X4.5272Y-4.3327
X4.5272Y-4.9232
X4.5327Y-3.1508
X4.5453Y-3.1299
X4.5469Y-3.761
X4.5484Y-4.3114
X4.5484Y-4.902
X4.5492Y-4.3445
X4.5492Y-4.935
X4.5571Y-2.1063
X4.563Y-3.2559
X4.5768Y-2.126
X4.5972Y-2.1471
X4.6063Y-4.252
X4.6063Y-4.8425
X4.6063Y-3.8189
X4.6063Y-3.0709
X4.6063Y-3.2283
X4.6063Y-3.6614
X4.6063Y-4.4094
X4.6063Y-5.0
X4.6339Y-3.6969
X4.6358Y-2.185
X4.6358Y-2.2146
X4.6358Y-2.2441
X4.6358Y-2.2736
X4.9606Y-1.9783
X5.0Y-2.126
X5.0098Y-2.185
X5.0098Y-2.2146
X5.0098Y-2.2441
X5.0098Y-2.2736
X5.0118Y-4.374
X5.0197Y-2.1457
X5.0197Y-5.7972
X5.0197Y-5.8268
X5.0197Y-5.8563
X5.0197Y-5.8858
X5.0394Y-3.0709
X5.0394Y-3.2283
X5.0394Y-3.6614
X5.0394Y-4.4094
X5.0394Y-4.8425
X5.0394Y-5.0
X5.0394Y-3.8189
X5.0394Y-4.252
X5.0689Y-5.9252
X5.0709Y-4.815
X5.0965Y-3.1358
X5.0965Y-3.7264
X5.0972Y-3.1689
X5.0972Y-3.7594
X5.0984Y-5.9449
X5.0988Y-4.3098
X5.1004Y-4.9409
X5.1177Y-4.9232
X5.1185Y-3.1476
X5.1185Y-3.7382
X5.1201Y-4.3311
X5.128Y-2.1063
X5.128Y-5.9646
X5.1319Y-4.3091
X5.1358Y-3.1299
X5.1358Y-3.7205
X5.1378Y-4.3484
X5.139Y-4.902
X5.1398Y-4.935
X5.1575Y-2.126
X5.1575Y-3.2559
X5.1575Y-5.9843
X5.1614Y-3.8465
X5.187Y-2.1457
X5.1969Y-4.8425
X5.1969Y-3.0709
X5.1969Y-3.2283
X5.1969Y-3.6614
X5.1969Y-3.8189
X5.1969Y-4.252
X5.1969Y-4.4094
X5.1969Y-5.0
X5.2165Y-6.0236
X5.2264Y-2.185
X5.2264Y-2.2146
X5.2264Y-2.2441
X5.2264Y-2.2736
X5.2264Y-5.7972
X5.2264Y-5.8268
X5.2264Y-5.8563
X5.2264Y-5.8858
X5.5709Y-1.8701
X5.6004Y-2.1949
X5.6004Y-2.2244
X5.6004Y-2.2539
X5.6004Y-2.2835
X5.6024Y-3.1929
X5.6024Y-3.7835
X5.6024Y-4.374
X5.6102Y-5.7972
X5.6102Y-5.8268
X5.6102Y-5.8563
X5.6102Y-5.8858
X5.6299Y-3.0709
X5.6299Y-3.2283
X5.6299Y-3.8189
X5.6299Y-4.4094
X5.6299Y-4.8425
X5.6299Y-5.0
X5.6299Y-3.6614
X5.6299Y-4.252
X5.6594Y-5.9252
X5.6654Y-4.815
X5.689Y-5.9449
X5.6894Y-3.1287
X5.6894Y-3.7193
X5.6894Y-4.3098
X5.6909Y-4.9409
X5.7083Y-4.9232
X5.7106Y-3.15
X5.7106Y-3.7406
X5.7106Y-4.3311
X5.7185Y-2.1063
X5.7185Y-5.9646
X5.7224Y-3.128
X5.7224Y-3.7185
X5.7224Y-4.3091
X5.7283Y-3.1673
X5.7283Y-3.7579
X5.7283Y-4.3484
X5.7295Y-4.902
X5.7303Y-4.935
X5.748Y-2.126
X5.748Y-6.0039
X5.7776Y-2.1457
X5.7835Y-6.0236
X5.7874Y-4.8425
X5.7874Y-3.0709
X5.7874Y-3.2283
X5.7874Y-3.6614
X5.7874Y-3.8189
X5.7874Y-4.252
X5.7874Y-4.4094
X5.7874Y-5.0
X5.8169Y-2.1949
X5.8169Y-2.2244
X5.8169Y-2.2539
X5.8169Y-2.2835
X5.8169Y-5.7972
X5.8169Y-5.8268
X5.8169Y-5.8563
X5.8169Y-5.8858
X6.5748Y-4.4193
X6.5846Y-3.0413
X6.5846Y-3.248
X6.5846Y-3.6319
X6.5846Y-3.8386
X6.5846Y-4.2224
X6.5846Y-4.813
X6.5846Y-5.0197
X6.6043Y-4.4193
X6.6142Y-3.0413
X6.6142Y-3.248
X6.6142Y-3.6319
X6.6142Y-3.8386
X6.6142Y-4.2224
X6.6142Y-4.813
X6.6142Y-5.0197
X6.6339Y-4.4193
X6.6437Y-3.0413
X6.6437Y-3.248
X6.6437Y-3.6319
X6.6437Y-3.8386
X6.6437Y-4.2224
X6.6437Y-4.813
X6.6437Y-5.0197
X6.6634Y-4.4193
X6.6732Y-3.0413
X6.6732Y-3.248
X6.6732Y-3.6319
X6.6732Y-3.8386
X6.6732Y-4.2224
X6.6732Y-4.813
X6.6732Y-5.0197
X6.7126Y-3.2087
X6.7126Y-3.7992
X6.7126Y-4.3799
X6.7126Y-4.9705
X6.7323Y-3.1791
X6.7323Y-3.7697
X6.7323Y-4.3504
X6.7323Y-4.9409
X6.752Y-3.1496
X6.752Y-3.7402
X6.752Y-4.3209
X6.752Y-4.9114
X6.811Y-4.8819
X6.8307Y-4.2913
X6.8504Y-3.7008
X6.8701Y-3.1102
X6.8898Y-2.9921
X6.8898Y-3.6614
X6.8898Y-4.252
X6.8898Y-4.7835
T2
X3.1506Y-2.9744
X3.1506Y-3.0244
X3.1506Y-3.0744
X3.1506Y-3.1244
X3.1506Y-3.1744
X3.1506Y-3.2244
X3.1506Y-3.2744
X3.1506Y-3.3244
X3.1506Y-3.565
X3.1506Y-3.615
X3.1506Y-3.665
X3.1506Y-3.715
X3.1506Y-3.765
X3.1506Y-3.815
X3.1506Y-3.865
X3.1506Y-3.915
X3.1506Y-4.1555
X3.1506Y-4.2055
X3.1506Y-4.2555
X3.1506Y-4.3055
X3.1506Y-4.3555
X3.1506Y-4.4055
X3.1506Y-4.4555
X3.1506Y-4.5055
X3.1506Y-4.7461
X3.1506Y-4.7961
X3.1506Y-4.8461
X3.1506Y-4.8961
X3.1506Y-4.9461
X3.1506Y-4.9961
X3.1506Y-5.0461
X3.1506Y-5.0961
X3.7618Y-5.7077
X3.7622Y-2.3632
X3.8118Y-5.7077
X3.8122Y-2.3632
X3.8618Y-5.7077
X3.8622Y-2.3632
X3.9118Y-5.7077
X3.9122Y-2.3632
X3.9618Y-5.7077
X3.9622Y-2.3632
X4.0118Y-5.7077
X4.0122Y-2.3632
X4.0618Y-5.7077
X4.0622Y-2.3632
X4.1118Y-5.7077
X4.1122Y-2.3632
X4.3524Y-5.7077
X4.3528Y-2.3632
X4.4024Y-5.7077
X4.4028Y-2.3632
X4.4524Y-5.7077
X4.4528Y-2.3632
X4.5024Y-5.7077
X4.5028Y-2.3632
X4.5524Y-5.7077
X4.5528Y-2.3632
X4.6024Y-5.7077
X4.6028Y-2.3632
X4.6524Y-5.7077
X4.6528Y-2.3632
X4.7024Y-5.7077
X4.7028Y-2.3632
X4.9429Y-5.7077
X4.9433Y-2.3632
X4.9929Y-5.7077
X4.9933Y-2.3632
X5.0429Y-5.7077
X5.0433Y-2.3632
X5.0929Y-5.7077
X5.0933Y-2.3632
X5.1429Y-5.7077
X5.1433Y-2.3632
X5.1929Y-5.7077
X5.1933Y-2.3632
X5.2429Y-5.7077
X5.2433Y-2.3632
X5.2929Y-5.7077
X5.2933Y-2.3632
X5.5335Y-5.7077
X5.5339Y-2.3632
X5.5835Y-5.7077
X5.5839Y-2.3632
X5.6335Y-5.7077
X5.6339Y-2.3632
X5.6835Y-5.7077
X5.6839Y-2.3632
X5.7335Y-5.7077
X5.7339Y-2.3632
X5.7835Y-5.7077
X5.7839Y-2.3632
X5.8335Y-5.7077
X5.8339Y-2.3632
X5.8835Y-5.7077
X5.8839Y-2.3632
X6.4951Y-2.9748
X6.4951Y-3.0248
X6.4951Y-3.0748
X6.4951Y-3.1248
X6.4951Y-3.1748
X6.4951Y-3.2248
X6.4951Y-3.2748
X6.4951Y-3.3248
X6.4951Y-3.5654
X6.4951Y-3.6154
X6.4951Y-3.6654
X6.4951Y-3.7154
X6.4951Y-3.7654
X6.4951Y-3.8154
X6.4951Y-3.8654
X6.4951Y-3.9154
X6.4951Y-4.1559
X6.4951Y-4.2059
X6.4951Y-4.2559
X6.4951Y-4.3059
X6.4951Y-4.3559
X6.4951Y-4.4059
X6.4951Y-4.4559
X6.4951Y-4.5059
X6.4951Y-4.7465
X6.4951Y-4.7965
X6.4951Y-4.8465
X6.4951Y-4.8965
X6.4951Y-4.9465
X6.4951Y-4.9965
X6.4951Y-5.0465
X6.4951Y-5.0965
T3
X3.9228Y-2.0276
X4.0228Y-2.0276
X4.1228Y-2.0276
X4.2228Y-2.0276
X4.3228Y-2.0276
X4.4228Y-2.0276
X4.5228Y-2.0276
X4.6228Y-2.0276
X4.7228Y-2.0276
X4.8228Y-1.9276
X4.8228Y-2.0276
X4.9228Y-1.9276
X4.9228Y-2.0276
X5.0228Y-2.0276
X5.1228Y-2.0276
X5.2228Y-2.0276
X5.3228Y-2.0276
X5.4228Y-2.0276
X5.5228Y-2.0276
X5.6228Y-2.0276
X5.7228Y-2.0276
T0
M30
