G04 #@! TF.GenerationSoftware,KiCad,Pcbnew,8.0.1-unknown-202403172319~81f55dfc9c~ubuntu22.04.1*
G04 #@! TF.CreationDate,2024-03-25T12:05:19+00:00*
G04 #@! TF.ProjectId,LIS3DH_array,4c495333-4448-45f6-9172-7261792e6b69,rev?*
G04 #@! TF.SameCoordinates,Original*
G04 #@! TF.FileFunction,Profile,NP*
%FSLAX46Y46*%
G04 Gerber Fmt 4.6, Leading zero omitted, Abs format (unit mm)*
G04 Created by KiCad (PCBNEW 8.0.1-unknown-202403172319~81f55dfc9c~ubuntu22.04.1) date 2024-03-25 12:05:19*
%MOMM*%
%LPD*%
G01*
G04 APERTURE LIST*
G04 #@! TA.AperFunction,Profile*
%ADD10C,0.010000*%
G04 #@! TD*
G04 #@! TA.AperFunction,Profile*
%ADD11C,0.038100*%
G04 #@! TD*
G04 #@! TA.AperFunction,Profile*
%ADD12C,0.001000*%
G04 #@! TD*
G04 APERTURE END LIST*
D10*
X116000000Y-115749999D02*
G75*
G02*
X116000000Y-116650001I0J-450001D01*
G01*
X111900000Y-96650000D02*
X111900000Y-97000000D01*
X101999999Y-121900000D02*
X98000000Y-121900001D01*
X129000000Y-74250001D02*
G75*
G02*
X130549999Y-75800002I0J-1549999D01*
G01*
X102000000Y-106900001D02*
G75*
G02*
X103099999Y-108000000I0J-1099999D01*
G01*
X82150003Y-93099997D02*
X82150003Y-93350006D01*
X111900000Y-78000000D02*
G75*
G02*
X113000000Y-76900000I1100000J0D01*
G01*
X141900000Y-123000001D02*
X141900001Y-127000000D01*
X144450000Y-133200003D02*
G75*
G02*
X146000000Y-131650000I1550000J3D01*
G01*
X101650000Y-76900000D02*
G75*
G02*
X100550000Y-75800000I0J1100000D01*
G01*
X147000000Y-121900001D02*
G75*
G02*
X148099999Y-123000000I0J-1099999D01*
G01*
X95350001Y-126000000D02*
G75*
G02*
X92250001Y-126000000I-1550000J-1D01*
G01*
X117000000Y-98099999D02*
X113000000Y-98100000D01*
X116000000Y-130749999D02*
G75*
G02*
X116000000Y-131650001I0J-450001D01*
G01*
X129450000Y-71800001D02*
G75*
G02*
X129000000Y-72250000I-450000J1D01*
G01*
X143000000Y-106900001D02*
X147000000Y-106900000D01*
X96900000Y-96650000D02*
X96900000Y-97000000D01*
X141900001Y-108000000D02*
G75*
G02*
X143000000Y-106900001I1099999J0D01*
G01*
X118100000Y-127000000D02*
G75*
G02*
X117000000Y-128100000I-1100000J0D01*
G01*
X91799997Y-94450000D02*
G75*
G02*
X93350000Y-96000000I3J-1550000D01*
G01*
X147000000Y-106900000D02*
G75*
G02*
X148100000Y-108000000I0J-1100000D01*
G01*
X133100000Y-127000000D02*
G75*
G02*
X132000000Y-128100000I-1100000J0D01*
G01*
X153200003Y-110550000D02*
G75*
G02*
X151650000Y-109000000I-3J1550000D01*
G01*
X102000000Y-98099999D02*
X98000000Y-98100000D01*
X129000000Y-89250001D02*
G75*
G02*
X130549999Y-90800002I0J-1549999D01*
G01*
X91799984Y-80550001D02*
G75*
G02*
X92118198Y-80681804I16J-449999D01*
G01*
X129318211Y-87118187D02*
G75*
G02*
X129000000Y-87250001I-318211J318187D01*
G01*
X131650000Y-76900000D02*
X132000000Y-76900001D01*
X129000000Y-74250001D02*
G75*
G02*
X129000000Y-73349999I0J450001D01*
G01*
X116000000Y-129650000D02*
G75*
G02*
X115550000Y-129200000I0J450000D01*
G01*
X99000000Y-75350001D02*
G75*
G02*
X99000000Y-72249999I0J1550001D01*
G01*
X117000000Y-76900001D02*
G75*
G02*
X118099999Y-78000000I0J-1099999D01*
G01*
X164349997Y-113400000D02*
G75*
G02*
X162850000Y-111900003I3J1500000D01*
G01*
X91800001Y-110550000D02*
G75*
G02*
X92250000Y-111000000I-1J-450000D01*
G01*
X95800000Y-110550000D02*
G75*
G02*
X96900000Y-111650000I0J-1100000D01*
G01*
X149650000Y-79000000D02*
G75*
G02*
X149200000Y-79450000I-450000J0D01*
G01*
X149200000Y-109450000D02*
G75*
G02*
X148100000Y-108350000I0J1100000D01*
G01*
X95350001Y-96000000D02*
G75*
G02*
X92250001Y-96000000I-1550000J-1D01*
G01*
X148100000Y-127000000D02*
G75*
G02*
X147000000Y-128100000I-1100000J0D01*
G01*
X129000000Y-90350001D02*
G75*
G02*
X129000000Y-87249999I0J1550001D01*
G01*
X148100000Y-108350000D02*
X148100000Y-108000000D01*
X91800001Y-95550000D02*
G75*
G02*
X92250000Y-96000000I-1J-450000D01*
G01*
X132000000Y-91900001D02*
G75*
G02*
X133099999Y-93000000I0J-1099999D01*
G01*
X128000000Y-83099999D02*
G75*
G02*
X126900001Y-82000000I0J1099999D01*
G01*
X150749999Y-94000000D02*
G75*
G02*
X149199998Y-95549999I-1549999J0D01*
G01*
X103399997Y-148500011D02*
X103399997Y-144350009D01*
X143000000Y-83099999D02*
G75*
G02*
X141900001Y-82000000I0J1099999D01*
G01*
X114000000Y-74250001D02*
G75*
G02*
X114000000Y-73349999I0J450001D01*
G01*
X148099999Y-123000000D02*
X148100000Y-127000000D01*
X99000000Y-74250001D02*
G75*
G02*
X99000000Y-73349999I0J450001D01*
G01*
X153199999Y-94450000D02*
G75*
G02*
X152750000Y-94000000I1J450000D01*
G01*
X96900000Y-111650000D02*
X96900000Y-112000000D01*
X103400000Y-56500001D02*
G75*
G02*
X104900001Y-55000000I1500000J1D01*
G01*
X116650000Y-113100000D02*
X117000000Y-113100000D01*
X128350000Y-76900000D02*
X128000000Y-76900000D01*
X146000000Y-129650000D02*
G75*
G02*
X145550000Y-129200000I0J450000D01*
G01*
X95800000Y-125550000D02*
G75*
G02*
X96900000Y-126650000I0J-1100000D01*
G01*
X132000000Y-106900000D02*
G75*
G02*
X133100000Y-108000000I0J-1100000D01*
G01*
X153199999Y-109450000D02*
G75*
G02*
X152750000Y-109000000I1J450000D01*
G01*
X91799997Y-109450000D02*
G75*
G02*
X93350000Y-111000000I3J-1550000D01*
G01*
X101999999Y-91900000D02*
X98000000Y-91900001D01*
X126900001Y-108000000D02*
G75*
G02*
X128000000Y-106900001I1099999J0D01*
G01*
X133099999Y-123000000D02*
X133100000Y-127000000D01*
X95350001Y-111000000D02*
G75*
G02*
X92250001Y-111000000I-1550000J-1D01*
G01*
X116650000Y-76900000D02*
X117000000Y-76900001D01*
X111900001Y-93000000D02*
G75*
G02*
X113000000Y-91900001I1099999J0D01*
G01*
X143000000Y-128099999D02*
G75*
G02*
X141900001Y-127000000I0J1099999D01*
G01*
X99450000Y-71800001D02*
G75*
G02*
X99000000Y-72250000I-450000J1D01*
G01*
X148100000Y-78350000D02*
X148100000Y-78000000D01*
X80650003Y-76600000D02*
G75*
G02*
X82150000Y-78099997I-3J-1500000D01*
G01*
X129000000Y-75350000D02*
G75*
G02*
X129450000Y-75800000I0J-450000D01*
G01*
X149649999Y-109000000D02*
G75*
G02*
X152749999Y-109000000I1550000J1D01*
G01*
X118100000Y-81999999D02*
X118099999Y-78000000D01*
X83250000Y-124450000D02*
G75*
G02*
X82150000Y-123350006I0J1100000D01*
G01*
X146000000Y-129649999D02*
G75*
G02*
X146000000Y-132750001I0J-1550001D01*
G01*
X150749999Y-94000000D02*
G75*
G02*
X151649999Y-94000000I450000J1D01*
G01*
X131000000Y-130749999D02*
G75*
G02*
X129450001Y-129199998I0J1549999D01*
G01*
X113000000Y-128099999D02*
G75*
G02*
X111900001Y-127000000I0J1099999D01*
G01*
X94250001Y-96000000D02*
G75*
G02*
X93350001Y-96000000I-450000J-1D01*
G01*
X150749999Y-79000000D02*
G75*
G02*
X151649999Y-79000000I450000J1D01*
G01*
X114000000Y-75350001D02*
G75*
G02*
X114000000Y-72249999I0J1550001D01*
G01*
X94250001Y-126000000D02*
G75*
G02*
X95800002Y-124450001I1549999J0D01*
G01*
X134649999Y-109000000D02*
G75*
G02*
X137749999Y-109000000I1550000J1D01*
G01*
X74999989Y-84899998D02*
G75*
G02*
X76499989Y-83399989I1500011J-2D01*
G01*
X129450000Y-75800000D02*
G75*
G02*
X128350000Y-76900000I-1100000J0D01*
G01*
X96900000Y-108350000D02*
G75*
G02*
X95800000Y-109450000I-1100000J0D01*
G01*
X115550000Y-114200000D02*
G75*
G02*
X116650000Y-113100000I1100000J0D01*
G01*
X146650000Y-128100000D02*
X147000000Y-128100000D01*
X145550000Y-133199999D02*
G75*
G02*
X146000000Y-132750000I450000J-1D01*
G01*
X143350000Y-128100000D02*
X143000000Y-128099999D01*
X147000000Y-91900000D02*
G75*
G02*
X148100000Y-93000000I0J-1100000D01*
G01*
X103099999Y-82000000D02*
G75*
G02*
X102000000Y-83099999I-1099999J0D01*
G01*
X94250001Y-111000000D02*
G75*
G02*
X95800002Y-109450001I1549999J0D01*
G01*
X103099999Y-127000000D02*
X103099998Y-123000001D01*
X128000001Y-113100000D02*
X132000000Y-113099999D01*
X132000000Y-121900001D02*
G75*
G02*
X133099999Y-123000000I0J-1099999D01*
G01*
X141900001Y-93000000D02*
G75*
G02*
X143000000Y-91900001I1099999J0D01*
G01*
X98000000Y-98100000D02*
G75*
G02*
X96900000Y-97000000I0J1100000D01*
G01*
X153200003Y-80550000D02*
G75*
G02*
X151650000Y-79000000I-3J1550000D01*
G01*
X102000000Y-113099999D02*
X98000000Y-113100000D01*
X129000000Y-75350001D02*
G75*
G02*
X129000000Y-72249999I0J1550001D01*
G01*
X130550000Y-129200000D02*
G75*
G02*
X131650000Y-128100000I1100000J0D01*
G01*
X91800001Y-125550000D02*
G75*
G02*
X92250000Y-126000000I-1J-450000D01*
G01*
X130550000Y-133199999D02*
G75*
G02*
X131000000Y-132750000I450000J-1D01*
G01*
X103099999Y-97000000D02*
G75*
G02*
X102000000Y-98099999I-1099999J0D01*
G01*
X94250001Y-126000000D02*
G75*
G02*
X93350001Y-126000000I-450000J-1D01*
G01*
X103099999Y-112000000D02*
G75*
G02*
X102000000Y-113099999I-1099999J0D01*
G01*
X148099999Y-97000000D02*
G75*
G02*
X147000000Y-98099999I-1099999J0D01*
G01*
X126900001Y-82000000D02*
X126900000Y-78000000D01*
X143000000Y-113099999D02*
G75*
G02*
X141900001Y-112000000I0J1099999D01*
G01*
X153199999Y-79450000D02*
G75*
G02*
X152750000Y-79000000I1J450000D01*
G01*
X116000000Y-130749999D02*
G75*
G02*
X114450001Y-129199998I0J1549999D01*
G01*
X143000001Y-98100000D02*
X147000000Y-98099999D01*
X94250001Y-96000000D02*
G75*
G02*
X95800002Y-94450001I1549999J0D01*
G01*
X98350000Y-76900000D02*
X98000000Y-76900000D01*
X101650000Y-76900000D02*
X102000000Y-76900001D01*
X98000000Y-113100000D02*
G75*
G02*
X96900000Y-112000000I0J1100000D01*
G01*
X91799997Y-124450000D02*
G75*
G02*
X93350000Y-126000000I3J-1550000D01*
G01*
X96900000Y-78000000D02*
G75*
G02*
X98000000Y-76900000I1100000J0D01*
G01*
X148100000Y-81650000D02*
G75*
G02*
X149200000Y-80550000I1100000J0D01*
G01*
X148099999Y-82000000D02*
G75*
G02*
X147000000Y-83099999I-1099999J0D01*
G01*
X116000000Y-129649999D02*
G75*
G02*
X116000000Y-132750001I0J-1550001D01*
G01*
X113000000Y-113099999D02*
G75*
G02*
X111900001Y-112000000I0J1099999D01*
G01*
X98000000Y-83099999D02*
G75*
G02*
X96900001Y-82000000I0J1099999D01*
G01*
X133399997Y-148500011D02*
X133399997Y-144350009D01*
X95350000Y-126000000D02*
G75*
G02*
X95800000Y-125550000I450000J0D01*
G01*
X150749999Y-109000000D02*
G75*
G02*
X151649999Y-109000000I450000J1D01*
G01*
X143000000Y-98099999D02*
G75*
G02*
X141900001Y-97000000I0J1099999D01*
G01*
X96900000Y-108350000D02*
X96900001Y-108000000D01*
X150749999Y-79000000D02*
G75*
G02*
X149199998Y-80549999I-1549999J0D01*
G01*
X111900000Y-93350000D02*
G75*
G02*
X110800000Y-94450000I-1100000J0D01*
G01*
X133100000Y-111650000D02*
X133099999Y-112000000D01*
X153200003Y-95550000D02*
G75*
G02*
X151650000Y-94000000I-3J1550000D01*
G01*
X148100000Y-111650000D02*
G75*
G02*
X149200000Y-110550000I1100000J0D01*
G01*
X145550000Y-129200000D02*
G75*
G02*
X146650000Y-128100000I1100000J0D01*
G01*
X113350000Y-76900000D02*
X113000000Y-76900000D01*
X129450000Y-133200003D02*
G75*
G02*
X131000000Y-131650000I1550000J3D01*
G01*
X146000000Y-130749999D02*
G75*
G02*
X146000000Y-131650001I0J-450001D01*
G01*
X99450000Y-75800000D02*
G75*
G02*
X98350000Y-76900000I-1100000J0D01*
G01*
X115550000Y-71799997D02*
G75*
G02*
X114000000Y-73350000I-1550000J-3D01*
G01*
X96900001Y-93000000D02*
G75*
G02*
X98000000Y-91900001I1099999J0D01*
G01*
X101999999Y-106900000D02*
X98000000Y-106900001D01*
X100550000Y-71799997D02*
G75*
G02*
X99000000Y-73350000I-1550000J-3D01*
G01*
X131650000Y-128100000D02*
X132000000Y-128100000D01*
X96900001Y-82000000D02*
X96900000Y-78000000D01*
X153200018Y-94450006D02*
X161750015Y-94450006D01*
X96900001Y-108000000D02*
G75*
G02*
X98000000Y-106900001I1099999J0D01*
G01*
X148100000Y-81650000D02*
X148099999Y-82000000D01*
X103099999Y-127000000D02*
G75*
G02*
X102000000Y-128099999I-1099999J0D01*
G01*
X149649999Y-79000000D02*
G75*
G02*
X152749999Y-79000000I1550000J1D01*
G01*
X115550000Y-133199999D02*
G75*
G02*
X116000000Y-132750000I450000J-1D01*
G01*
X111900000Y-123000001D02*
X111900001Y-127000000D01*
X118399997Y-148500011D02*
X118399997Y-144350009D01*
X162850009Y-123100000D02*
X162850009Y-123350009D01*
X96900001Y-123000000D02*
G75*
G02*
X98000000Y-121900001I1099999J0D01*
G01*
X91799997Y-109450000D02*
X83250000Y-109450000D01*
X96900000Y-126650000D02*
X96900000Y-127000000D01*
X118099999Y-123000000D02*
X118100000Y-127000000D01*
X149650000Y-109000000D02*
G75*
G02*
X149200000Y-109450000I-450000J0D01*
G01*
X143350000Y-128100000D02*
G75*
G02*
X144450000Y-129200000I0J-1100000D01*
G01*
X146900000Y-142850009D02*
X146649991Y-142850009D01*
X113350000Y-128100000D02*
X113000000Y-128099999D01*
X149200000Y-79450000D02*
G75*
G02*
X148100000Y-78350000I0J1100000D01*
G01*
X102000000Y-91900001D02*
G75*
G02*
X103099999Y-93000000I0J-1099999D01*
G01*
X113000000Y-83099999D02*
G75*
G02*
X111900001Y-82000000I0J1099999D01*
G01*
X143000000Y-91900001D02*
X147000000Y-91900000D01*
X145549994Y-133200018D02*
X145549994Y-141750015D01*
X114450000Y-71800001D02*
G75*
G02*
X114000000Y-72250000I-450000J1D01*
G01*
X99000000Y-74250001D02*
G75*
G02*
X100549999Y-75800002I0J-1549999D01*
G01*
X135749999Y-109000000D02*
G75*
G02*
X134199998Y-110549999I-1549999J0D01*
G01*
X113350000Y-128100000D02*
G75*
G02*
X114450000Y-129200000I0J-1100000D01*
G01*
X143000001Y-83100000D02*
X147000000Y-83099999D01*
X146900000Y-142850009D02*
G75*
G02*
X148399991Y-144350009I0J-1499991D01*
G01*
X126900000Y-78000000D02*
G75*
G02*
X128000000Y-76900000I1100000J0D01*
G01*
X126900001Y-97000000D02*
X126900000Y-93000000D01*
X102000000Y-128099999D02*
X98000000Y-128100000D01*
X102000000Y-76900001D02*
G75*
G02*
X103099999Y-78000000I0J-1099999D01*
G01*
X128000000Y-106900001D02*
X132000000Y-106900000D01*
X117000000Y-121900001D02*
G75*
G02*
X118099999Y-123000000I0J-1099999D01*
G01*
X143000001Y-113100000D02*
X147000000Y-113099999D01*
X114450000Y-133200003D02*
G75*
G02*
X116000000Y-131650000I1550000J3D01*
G01*
X113350000Y-113100000D02*
G75*
G02*
X114450000Y-114200000I0J-1100000D01*
G01*
X168500011Y-121600003D02*
X164350009Y-121600003D01*
X130550000Y-71799997D02*
X130550000Y-63250000D01*
X116650000Y-76900000D02*
G75*
G02*
X115550000Y-75800000I0J1100000D01*
G01*
X131000000Y-129650000D02*
G75*
G02*
X130550000Y-129200000I0J450000D01*
G01*
X131000000Y-130749999D02*
G75*
G02*
X131000000Y-131650001I0J-450001D01*
G01*
X116649991Y-142850009D02*
G75*
G02*
X115549991Y-141750015I9J1100009D01*
G01*
X96900000Y-93350000D02*
X96900001Y-93000000D01*
X131000000Y-129649999D02*
G75*
G02*
X131000000Y-132750001I0J-1550001D01*
G01*
X132000000Y-76900001D02*
G75*
G02*
X133099999Y-78000000I0J-1099999D01*
G01*
X116650000Y-128100000D02*
X117000000Y-128100000D01*
X91799982Y-110549994D02*
X83249985Y-110549994D01*
X143000000Y-76900001D02*
X147000000Y-76900000D01*
X126900000Y-123000001D02*
X126900001Y-127000000D01*
X128000000Y-113099999D02*
G75*
G02*
X126900001Y-112000000I0J1099999D01*
G01*
X98000000Y-128100000D02*
G75*
G02*
X96900000Y-127000000I0J1100000D01*
G01*
X74999989Y-129899998D02*
X75000000Y-147499999D01*
X96900000Y-93350000D02*
G75*
G02*
X95800000Y-94450000I-1100000J0D01*
G01*
X95800000Y-95550000D02*
G75*
G02*
X96900000Y-96650000I0J-1100000D01*
G01*
D11*
X177000000Y-49000000D02*
G75*
G02*
X175000000Y-49000000I-1000000J0D01*
G01*
X175000000Y-49000000D02*
G75*
G02*
X177000000Y-49000000I1000000J0D01*
G01*
D10*
X148100000Y-96650000D02*
X148099999Y-97000000D01*
X133100000Y-81999999D02*
X133099999Y-78000000D01*
X110800000Y-95550000D02*
G75*
G02*
X111900000Y-96650000I0J-1100000D01*
G01*
D12*
X75000000Y-57500000D02*
G75*
G02*
X77500000Y-55000000I2500000J0D01*
G01*
D10*
X111900001Y-123000000D02*
G75*
G02*
X113000000Y-121900001I1099999J0D01*
G01*
X134200000Y-109450000D02*
G75*
G02*
X133100000Y-108350000I0J1100000D01*
G01*
X95350000Y-111000000D02*
G75*
G02*
X95800000Y-110550000I450000J0D01*
G01*
X162849997Y-81900003D02*
X162849997Y-81649994D01*
X131650000Y-91900000D02*
X132000000Y-91900001D01*
X153200018Y-124450006D02*
X161750015Y-124450006D01*
X99000000Y-75350000D02*
G75*
G02*
X99450000Y-75800000I0J-450000D01*
G01*
X170000011Y-105100002D02*
G75*
G02*
X168500011Y-106600011I-1500011J2D01*
G01*
X75000001Y-90099999D02*
X74999989Y-84899998D01*
X148099999Y-112000000D02*
G75*
G02*
X147000000Y-113099999I-1099999J0D01*
G01*
X150749999Y-109000000D02*
G75*
G02*
X149199998Y-110549999I-1549999J0D01*
G01*
X114450000Y-75800000D02*
G75*
G02*
X113350000Y-76900000I-1100000J0D01*
G01*
X110100002Y-54999989D02*
G75*
G02*
X111600011Y-56499989I-2J-1500011D01*
G01*
X116000000Y-114650000D02*
G75*
G02*
X115550000Y-114200000I0J450000D01*
G01*
X113350009Y-62149991D02*
G75*
G02*
X114450009Y-63249985I-9J-1100009D01*
G01*
X114000000Y-74250001D02*
G75*
G02*
X115549999Y-75800002I0J-1549999D01*
G01*
X146000000Y-130749999D02*
G75*
G02*
X144450001Y-129199998I0J1549999D01*
G01*
X82149991Y-96649991D02*
G75*
G02*
X83249985Y-95549991I1100009J-9D01*
G01*
X110350000Y-96000000D02*
G75*
G02*
X110800000Y-95550000I450000J0D01*
G01*
X80650003Y-91600000D02*
G75*
G02*
X82150000Y-93099997I-3J-1500000D01*
G01*
X131650000Y-91900000D02*
G75*
G02*
X130550000Y-90800000I0J1100000D01*
G01*
X129450000Y-133200003D02*
X129450000Y-141750000D01*
X130550000Y-71799997D02*
G75*
G02*
X129000000Y-73350000I-1550000J-3D01*
G01*
X162850009Y-108100000D02*
X162850009Y-108350009D01*
X118099999Y-108000000D02*
X118100000Y-112000000D01*
X141900001Y-123000000D02*
G75*
G02*
X143000000Y-121900001I1099999J0D01*
G01*
X133100000Y-108350000D02*
X133100000Y-108000000D01*
X118099999Y-82000000D02*
G75*
G02*
X117000000Y-83099999I-1099999J0D01*
G01*
X94250001Y-111000000D02*
G75*
G02*
X93350001Y-111000000I-450000J-1D01*
G01*
X114000000Y-75350000D02*
G75*
G02*
X114450000Y-75800000I0J-450000D01*
G01*
X111900000Y-108000001D02*
X111900001Y-112000000D01*
X149649999Y-94000000D02*
G75*
G02*
X152749999Y-94000000I1550000J1D01*
G01*
X95099999Y-149999999D02*
X77500000Y-149999999D01*
X147000000Y-76900000D02*
G75*
G02*
X148100000Y-78000000I0J-1100000D01*
G01*
X128350000Y-128100000D02*
G75*
G02*
X129450000Y-129200000I0J-1100000D01*
G01*
X149200000Y-94450000D02*
G75*
G02*
X148100000Y-93350000I0J1100000D01*
G01*
X144450000Y-141750000D02*
G75*
G02*
X143350006Y-142850000I-1100000J0D01*
G01*
X126900001Y-123000000D02*
G75*
G02*
X128000000Y-121900001I1099999J0D01*
G01*
X128000000Y-128099999D02*
G75*
G02*
X126900001Y-127000000I0J1099999D01*
G01*
X111900001Y-82000000D02*
X111900000Y-78000000D01*
X118099999Y-93000000D02*
X118100000Y-96999999D01*
X149650000Y-94000000D02*
G75*
G02*
X149200000Y-94450000I-450000J0D01*
G01*
X148100000Y-111650000D02*
X148099999Y-112000000D01*
X115550000Y-129200000D02*
G75*
G02*
X116650000Y-128100000I1100000J0D01*
G01*
X128100000Y-62149991D02*
X128350009Y-62149991D01*
X115550000Y-63250000D02*
G75*
G02*
X116649994Y-62150000I1100000J0D01*
G01*
X129450000Y-90800000D02*
G75*
G02*
X128350000Y-91900000I-1100000J0D01*
G01*
X168499999Y-83400000D02*
X164349997Y-83400000D01*
X113100000Y-62149991D02*
G75*
G02*
X111600009Y-60649991I0J1499991D01*
G01*
X144450000Y-133200003D02*
X144450000Y-141750000D01*
X149899998Y-150000011D02*
X167499999Y-150000000D01*
X133100000Y-111650000D02*
G75*
G02*
X134200000Y-110550000I1100000J0D01*
G01*
X140100002Y-54999989D02*
G75*
G02*
X141600011Y-56499989I-2J-1500011D01*
G01*
X143099997Y-142849997D02*
X143350006Y-142849997D01*
X113099997Y-142849997D02*
X113350006Y-142849997D01*
X76500001Y-121600000D02*
X80650003Y-121600000D01*
X128000000Y-98099999D02*
G75*
G02*
X126900001Y-97000000I0J1099999D01*
G01*
X153200003Y-80550000D02*
X161750000Y-80550000D01*
X131650000Y-76900000D02*
G75*
G02*
X130550000Y-75800000I0J1100000D01*
G01*
X130550000Y-63250000D02*
G75*
G02*
X131649994Y-62150000I1100000J0D01*
G01*
X113350000Y-113100000D02*
X113000000Y-113099999D01*
X148100000Y-96650000D02*
G75*
G02*
X149200000Y-95550000I1100000J0D01*
G01*
X102000000Y-121900001D02*
G75*
G02*
X103099999Y-123000000I0J-1099999D01*
G01*
X129000000Y-90350000D02*
G75*
G02*
X129450000Y-90800000I0J-450000D01*
G01*
D11*
X69000000Y-46000000D02*
X176000000Y-46000000D01*
D10*
X116900003Y-62150003D02*
X116649994Y-62150003D01*
X103100000Y-81999999D02*
X103099999Y-78000000D01*
X76500016Y-106600006D02*
X80650018Y-106600006D01*
X91799999Y-79450001D02*
G75*
G02*
X92896016Y-79903987I1J-1549999D01*
G01*
X115681789Y-117881813D02*
G75*
G02*
X116000000Y-117749999I318211J-318187D01*
G01*
X133099999Y-112000000D02*
G75*
G02*
X132000000Y-113099999I-1099999J0D01*
G01*
X80650003Y-121600000D02*
G75*
G02*
X82150000Y-123099997I-3J-1500000D01*
G01*
X82149991Y-81900000D02*
G75*
G02*
X80649991Y-83399991I-1499991J0D01*
G01*
X140099999Y-149999999D02*
X134899998Y-150000011D01*
X83250000Y-79450000D02*
G75*
G02*
X82150000Y-78350006I0J1100000D01*
G01*
X116000000Y-115749999D02*
G75*
G02*
X114450001Y-114199998I0J1549999D01*
G01*
X133099999Y-97000000D02*
G75*
G02*
X132000000Y-98099999I-1099999J0D01*
G01*
X134899998Y-150000011D02*
G75*
G02*
X133399989Y-148500011I2J1500011D01*
G01*
X96900000Y-123350000D02*
G75*
G02*
X95800000Y-124450000I-1100000J0D01*
G01*
X118100000Y-112000000D02*
G75*
G02*
X117000000Y-113100000I-1100000J0D01*
G01*
X164349997Y-98400000D02*
G75*
G02*
X162850000Y-96900003I3J1500000D01*
G01*
X130549994Y-133200018D02*
X130549994Y-141750015D01*
X135749999Y-109000000D02*
G75*
G02*
X136649999Y-109000000I450000J1D01*
G01*
X170000011Y-75100002D02*
X170000000Y-57500001D01*
X148400000Y-56500001D02*
G75*
G02*
X149900001Y-55000000I1500000J1D01*
G01*
X152881801Y-124318197D02*
X137881813Y-109318211D01*
X82149991Y-81900000D02*
X82149991Y-81649991D01*
X116999999Y-91900000D02*
X113000000Y-91900001D01*
X164349997Y-83400000D02*
G75*
G02*
X162850000Y-81900003I3J1500000D01*
G01*
X153200003Y-110550000D02*
X161750000Y-110550000D01*
X76500001Y-121600000D02*
G75*
G02*
X75000000Y-120099999I-1J1500000D01*
G01*
X128350000Y-128100000D02*
X128000000Y-128099999D01*
X148100000Y-93350000D02*
X148100000Y-93000000D01*
X134650000Y-109000000D02*
G75*
G02*
X134200000Y-109450000I-450000J0D01*
G01*
X99450000Y-141750000D02*
G75*
G02*
X98350006Y-142850000I-1100000J0D01*
G01*
X91799982Y-95549994D02*
X83249985Y-95549994D01*
X82149991Y-126900000D02*
G75*
G02*
X80649991Y-128399991I-1499991J0D01*
G01*
X128350000Y-91900000D02*
X128000000Y-91900000D01*
X104899998Y-150000011D02*
G75*
G02*
X103399989Y-148500011I2J1500011D01*
G01*
X113000000Y-98100000D02*
G75*
G02*
X111900000Y-97000000I0J1100000D01*
G01*
X115549994Y-133200018D02*
X115549994Y-141750015D01*
X116000000Y-114649999D02*
G75*
G02*
X116000000Y-117750001I0J-1550001D01*
G01*
X126900000Y-93000000D02*
G75*
G02*
X128000000Y-91900000I1100000J0D01*
G01*
D11*
X66000000Y-49000000D02*
G75*
G02*
X69000000Y-46000000I3000000J0D01*
G01*
D10*
X76500001Y-91600000D02*
G75*
G02*
X75000000Y-90099999I-1J1500000D01*
G01*
X131900000Y-142850009D02*
G75*
G02*
X133399991Y-144350009I0J-1499991D01*
G01*
X82150006Y-111900006D02*
X82150006Y-111649997D01*
X95100002Y-54999989D02*
G75*
G02*
X96600011Y-56499989I-2J-1500011D01*
G01*
X101649991Y-142850009D02*
G75*
G02*
X100549991Y-141750015I9J1100009D01*
G01*
X126600003Y-56499989D02*
X126600003Y-60649991D01*
X133099999Y-82000000D02*
G75*
G02*
X132000000Y-83099999I-1099999J0D01*
G01*
X141900001Y-78000000D02*
G75*
G02*
X143000000Y-76900001I1099999J0D01*
G01*
X133100000Y-96999999D02*
X133099999Y-93000000D01*
X111900001Y-108000000D02*
G75*
G02*
X113000000Y-106900001I1099999J0D01*
G01*
X141600000Y-148499999D02*
X141600000Y-144349997D01*
X114450006Y-71799982D02*
X114450006Y-63249985D01*
X99450006Y-71799982D02*
X99450006Y-63249985D01*
X148400000Y-56500001D02*
X148400000Y-60650003D01*
D11*
X70000000Y-49000000D02*
G75*
G02*
X68000000Y-49000000I-1000000J0D01*
G01*
X68000000Y-49000000D02*
G75*
G02*
X70000000Y-49000000I1000000J0D01*
G01*
D10*
X129450006Y-71799982D02*
X129450006Y-63249985D01*
X103099999Y-93000000D02*
X103100000Y-96999999D01*
X169999999Y-99900001D02*
X170000011Y-105100002D01*
X162850009Y-108350009D02*
G75*
G02*
X161750015Y-109450009I-1100009J9D01*
G01*
X168500011Y-76600003D02*
X164350009Y-76600003D01*
X117000000Y-91900001D02*
G75*
G02*
X118099999Y-93000000I0J-1099999D01*
G01*
X74999989Y-129899998D02*
G75*
G02*
X76499989Y-128399989I1500011J-2D01*
G01*
X129000000Y-89250001D02*
G75*
G02*
X129000000Y-88349999I0J450001D01*
G01*
D11*
X176000000Y-159000000D02*
X69000000Y-159000000D01*
D10*
X95350000Y-96000000D02*
G75*
G02*
X95800000Y-95550000I450000J0D01*
G01*
X153200018Y-79450006D02*
X161750015Y-79450006D01*
X129450000Y-141750000D02*
G75*
G02*
X128350006Y-142850000I-1100000J0D01*
G01*
X169999999Y-84900001D02*
X170000011Y-90100002D01*
X103400000Y-60650003D02*
G75*
G02*
X101900003Y-62150000I-1500000J3D01*
G01*
X141600000Y-144349997D02*
G75*
G02*
X143099997Y-142850000I1500000J-3D01*
G01*
D11*
X70000000Y-156000000D02*
G75*
G02*
X68000000Y-156000000I-1000000J0D01*
G01*
X68000000Y-156000000D02*
G75*
G02*
X70000000Y-156000000I1000000J0D01*
G01*
D10*
X111600000Y-148499999D02*
X111600000Y-144349997D01*
X110099999Y-149999999D02*
X104899998Y-150000011D01*
X101900003Y-62150003D02*
X101649994Y-62150003D01*
X99450001Y-133200001D02*
G75*
G02*
X99903987Y-132103984I1549999J1D01*
G01*
X82149991Y-126649991D02*
G75*
G02*
X83249985Y-125549991I1100009J-9D01*
G01*
X147000000Y-121900001D02*
X143000001Y-121900002D01*
X133400000Y-56500001D02*
X133400000Y-60650003D01*
X96600000Y-144349997D02*
G75*
G02*
X98099997Y-142850000I1500000J-3D01*
G01*
X76499989Y-98399997D02*
X80649991Y-98399997D01*
X99450000Y-133200003D02*
X99450000Y-141750000D01*
X148399997Y-148500011D02*
X148399997Y-144350009D01*
X96900000Y-123350000D02*
X96900001Y-123000000D01*
X162850009Y-93100000D02*
G75*
G02*
X164350009Y-91600009I1499991J0D01*
G01*
X111600003Y-56499989D02*
X111600003Y-60649991D01*
X162849997Y-111900003D02*
X162849997Y-111649994D01*
X109250001Y-96000000D02*
G75*
G02*
X108350001Y-96000000I-450000J-1D01*
G01*
X115550000Y-71799997D02*
X115550000Y-63250000D01*
X169999999Y-114900001D02*
X170000011Y-120100002D01*
D12*
X169999999Y-147500000D02*
G75*
G02*
X167499999Y-149999999I-2499999J0D01*
G01*
D10*
X76499989Y-128399997D02*
X80649991Y-128399997D01*
X98000000Y-83099999D02*
X101999999Y-83099998D01*
X83250000Y-109450000D02*
G75*
G02*
X82150000Y-108350006I0J1100000D01*
G01*
X114450000Y-133200003D02*
X114450000Y-141750000D01*
X83250000Y-94450000D02*
G75*
G02*
X82150000Y-93350006I0J1100000D01*
G01*
D11*
X177000000Y-156000000D02*
G75*
G02*
X175000000Y-156000000I-1000000J0D01*
G01*
X175000000Y-156000000D02*
G75*
G02*
X177000000Y-156000000I1000000J0D01*
G01*
X179000000Y-49000000D02*
X179000000Y-156000000D01*
D10*
X164349997Y-128400000D02*
G75*
G02*
X162850000Y-126900003I3J1500000D01*
G01*
X91799982Y-125549994D02*
X83249985Y-125549994D01*
X101900000Y-142850009D02*
X101649991Y-142850009D01*
X91799997Y-79450000D02*
X83250000Y-79450000D01*
X161750000Y-95550000D02*
G75*
G02*
X162850000Y-96649994I0J-1100000D01*
G01*
X117000000Y-106900001D02*
G75*
G02*
X118099999Y-108000000I0J-1099999D01*
G01*
X101900000Y-142850009D02*
G75*
G02*
X103399991Y-144350009I0J-1499991D01*
G01*
X152103983Y-125096014D02*
X137103985Y-110096018D01*
X96600003Y-56499989D02*
X96600003Y-60649991D01*
X162849997Y-126900003D02*
X162849997Y-126649994D01*
X76500001Y-76600000D02*
X80650003Y-76600000D01*
X141900001Y-112000000D02*
X141900000Y-108000001D01*
X141900001Y-93000000D02*
X141900002Y-96999999D01*
X96600000Y-148499999D02*
G75*
G02*
X95099999Y-150000000I-1500000J-1D01*
G01*
X109250001Y-96000000D02*
G75*
G02*
X110800002Y-94450001I1549999J0D01*
G01*
X149899998Y-150000011D02*
G75*
G02*
X148399989Y-148500011I2J1500011D01*
G01*
X162850009Y-123350009D02*
G75*
G02*
X161750015Y-124450009I-1100009J9D01*
G01*
X75000001Y-120099999D02*
X75000004Y-114900004D01*
X125100002Y-54999989D02*
G75*
G02*
X126600011Y-56499989I-2J-1500011D01*
G01*
X91799997Y-94450000D02*
X83250000Y-94450000D01*
X126900001Y-108000000D02*
X126900002Y-111999999D01*
X111900000Y-93350000D02*
X111900001Y-93000000D01*
X82149991Y-81649991D02*
G75*
G02*
X83249985Y-80549991I1100009J-9D01*
G01*
X82149991Y-126900000D02*
X82149991Y-126649991D01*
D11*
X176000000Y-46000000D02*
G75*
G02*
X179000000Y-49000000I0J-3000000D01*
G01*
D10*
X153200003Y-95550000D02*
X161750000Y-95550000D01*
X170000011Y-120100002D02*
G75*
G02*
X168500011Y-121600011I-1500011J2D01*
G01*
X98099997Y-142849997D02*
X98350006Y-142849997D01*
X91799997Y-124450000D02*
X83250000Y-124450000D01*
D12*
X167500000Y-55000001D02*
G75*
G02*
X169999999Y-57500001I0J-2499999D01*
G01*
D10*
X161750000Y-80550000D02*
G75*
G02*
X162850000Y-81649994I0J-1100000D01*
G01*
X162850009Y-123100000D02*
G75*
G02*
X164350009Y-121600009I1499991J0D01*
G01*
X126600000Y-148499999D02*
X126600000Y-144349997D01*
X98100000Y-62149991D02*
G75*
G02*
X96600009Y-60649991I0J1499991D01*
G01*
X82149991Y-96900000D02*
G75*
G02*
X80649991Y-98399991I-1499991J0D01*
G01*
X162850009Y-108100000D02*
G75*
G02*
X164350009Y-106600009I1499991J0D01*
G01*
X126600000Y-148499999D02*
G75*
G02*
X125099999Y-150000000I-1500000J-1D01*
G01*
X92896017Y-79903986D02*
X107896015Y-94903982D01*
X143100000Y-62149991D02*
X143350009Y-62149991D01*
X96600000Y-148499999D02*
X96600000Y-144349997D01*
X153200018Y-109450006D02*
X161750015Y-109450006D01*
X170000011Y-75100002D02*
G75*
G02*
X168500011Y-76600011I-1500011J2D01*
G01*
D12*
X77500000Y-149999999D02*
G75*
G02*
X75000001Y-147499999I0J2499999D01*
G01*
D10*
X110350001Y-96000000D02*
G75*
G02*
X107250001Y-96000000I-1550000J-1D01*
G01*
X141600003Y-56499989D02*
X141600003Y-60649991D01*
X148400000Y-60650003D02*
G75*
G02*
X146900003Y-62150000I-1500000J3D01*
G01*
X153200001Y-125549999D02*
G75*
G02*
X152103984Y-125096013I-1J1549999D01*
G01*
X118400000Y-56500001D02*
G75*
G02*
X119900001Y-55000000I1500000J1D01*
G01*
X145550000Y-63250000D02*
G75*
G02*
X146649994Y-62150000I1100000J0D01*
G01*
X82150003Y-78099997D02*
X82150003Y-78350006D01*
X80650018Y-106600006D02*
G75*
G02*
X82149994Y-108100003I-18J-1499994D01*
G01*
X107896015Y-94903982D02*
G75*
G02*
X108350001Y-96000000I-1096015J-1096018D01*
G01*
X103099999Y-112000000D02*
X103099998Y-108000001D01*
X134900001Y-55000001D02*
X140100002Y-54999989D01*
X114903982Y-117103985D02*
G75*
G02*
X116000000Y-116649999I1096018J-1096015D01*
G01*
X125099999Y-149999999D02*
X119899998Y-150000011D01*
X82150003Y-123099997D02*
X82150003Y-123350006D01*
X162850009Y-78350009D02*
G75*
G02*
X161750015Y-79450009I-1100009J9D01*
G01*
X168499999Y-83400000D02*
G75*
G02*
X170000000Y-84900001I1J-1500000D01*
G01*
X114450000Y-141750000D02*
G75*
G02*
X113350006Y-142850000I-1100000J0D01*
G01*
X75000001Y-75099999D02*
X75000000Y-57500000D01*
X111600000Y-144349997D02*
G75*
G02*
X113099997Y-142850000I1500000J-3D01*
G01*
X111600000Y-148499999D02*
G75*
G02*
X110099999Y-150000000I-1500000J-1D01*
G01*
X82150006Y-111649997D02*
G75*
G02*
X83250000Y-110550006I1099994J-3D01*
G01*
X143350009Y-62149991D02*
G75*
G02*
X144450009Y-63249985I-9J-1100009D01*
G01*
X98100000Y-62149991D02*
X98350009Y-62149991D01*
X126600000Y-144349997D02*
G75*
G02*
X128099997Y-142850000I1500000J-3D01*
G01*
X116900000Y-142850009D02*
X116649991Y-142850009D01*
X137881813Y-109318211D02*
G75*
G02*
X137749999Y-109000000I318187J318211D01*
G01*
X117000000Y-106900001D02*
X113000001Y-106900002D01*
X131900000Y-142850009D02*
X131649991Y-142850009D01*
X98350009Y-62149991D02*
G75*
G02*
X99450009Y-63249985I-9J-1100009D01*
G01*
X99903986Y-132103983D02*
X114903982Y-117103985D01*
X169999999Y-129900001D02*
X169999999Y-147500000D01*
X144318197Y-72118199D02*
X129318211Y-87118187D01*
D11*
X179000000Y-156000000D02*
G75*
G02*
X176000000Y-159000000I-3000000J0D01*
G01*
D10*
X100550001Y-133200016D02*
G75*
G02*
X100681804Y-132881802I449999J16D01*
G01*
X133400000Y-60650003D02*
G75*
G02*
X131900003Y-62150000I-1500000J3D01*
G01*
D11*
X69000000Y-159000000D02*
G75*
G02*
X66000000Y-156000000I0J3000000D01*
G01*
D10*
X133400000Y-56500001D02*
G75*
G02*
X134900001Y-55000000I1500000J1D01*
G01*
X82149991Y-96900000D02*
X82149991Y-96649991D01*
X145549999Y-71799999D02*
G75*
G02*
X145096013Y-72896016I-1549999J-1D01*
G01*
X113100000Y-62149991D02*
X113350009Y-62149991D01*
X119899998Y-150000011D02*
G75*
G02*
X118399989Y-148500011I2J1500011D01*
G01*
X132000000Y-121900001D02*
X128000001Y-121900002D01*
X119900001Y-55000001D02*
X125100002Y-54999989D01*
X131649991Y-142850009D02*
G75*
G02*
X130549991Y-141750015I9J1100009D01*
G01*
X107118187Y-95681789D02*
G75*
G02*
X107250001Y-96000000I-318187J-318211D01*
G01*
X168499999Y-128400000D02*
X164349997Y-128400000D01*
X76500004Y-113400003D02*
X80650006Y-113400003D01*
X74999989Y-99899998D02*
X75000016Y-105100005D01*
X100550000Y-71799997D02*
X100550000Y-63250000D01*
X118099999Y-97000000D02*
G75*
G02*
X117000000Y-98099999I-1099999J0D01*
G01*
X76500001Y-76600000D02*
G75*
G02*
X75000000Y-75099999I-1J1500000D01*
G01*
X128350009Y-62149991D02*
G75*
G02*
X129450009Y-63249985I-9J-1100009D01*
G01*
X168499999Y-98400000D02*
G75*
G02*
X170000000Y-99900001I1J-1500000D01*
G01*
X168499999Y-128400000D02*
G75*
G02*
X170000000Y-129900001I1J-1500000D01*
G01*
X82150018Y-108100003D02*
X82150018Y-108350012D01*
X91799982Y-80549994D02*
X83249985Y-80549994D01*
X144449999Y-71799984D02*
G75*
G02*
X144318196Y-72118198I-449999J-16D01*
G01*
X137103985Y-110096018D02*
G75*
G02*
X136649999Y-109000000I1096015J1096018D01*
G01*
X153200003Y-125550000D02*
X161750000Y-125550000D01*
X161750000Y-110550000D02*
G75*
G02*
X162850000Y-111649994I0J-1100000D01*
G01*
X132000000Y-98099999D02*
X128000001Y-98100000D01*
X130096018Y-87896015D02*
G75*
G02*
X129000000Y-88350001I-1096018J1096015D01*
G01*
X113000000Y-121900001D02*
X116999999Y-121900000D01*
X162850009Y-78100000D02*
X162850009Y-78350009D01*
X82150006Y-111900006D02*
G75*
G02*
X80650006Y-113400006I-1500006J6D01*
G01*
X168500011Y-106600003D02*
X164350009Y-106600003D01*
X103400000Y-56500001D02*
X103400000Y-60650003D01*
X113000000Y-83099999D02*
X116999999Y-83099998D01*
X75000004Y-114900004D02*
G75*
G02*
X76500004Y-113400004I1499996J4D01*
G01*
X104900001Y-55000001D02*
X110100002Y-54999989D01*
X95100002Y-54999989D02*
X77500000Y-55000000D01*
X76499989Y-83399997D02*
X80649991Y-83399997D01*
X100550000Y-63250000D02*
G75*
G02*
X101649994Y-62150000I1100000J0D01*
G01*
X168499999Y-113400000D02*
G75*
G02*
X170000000Y-114900001I1J-1500000D01*
G01*
X161750000Y-125550000D02*
G75*
G02*
X162850000Y-126649994I0J-1100000D01*
G01*
X100549994Y-133200018D02*
X100549994Y-141750015D01*
X144450006Y-71799982D02*
X144450006Y-63249985D01*
X149900001Y-55000001D02*
X167500000Y-55000001D01*
X145096014Y-72896017D02*
X130096018Y-87896015D01*
X153200016Y-124449999D02*
G75*
G02*
X152881802Y-124318196I-16J449999D01*
G01*
X92118199Y-80681803D02*
X107118187Y-95681789D01*
D11*
X66000000Y-156000000D02*
X66000000Y-49000000D01*
D10*
X162850009Y-93100000D02*
X162850009Y-93350009D01*
X170000011Y-90100002D02*
G75*
G02*
X168500011Y-91600011I-1500011J2D01*
G01*
X162850009Y-93350009D02*
G75*
G02*
X161750015Y-94450009I-1100009J9D01*
G01*
X132000000Y-83099999D02*
X128000001Y-83100000D01*
X74999989Y-99899998D02*
G75*
G02*
X76499989Y-98399989I1500011J-2D01*
G01*
X146649991Y-142850009D02*
G75*
G02*
X145549991Y-141750015I9J1100009D01*
G01*
X143100000Y-62149991D02*
G75*
G02*
X141600009Y-60649991I0J1499991D01*
G01*
X116900000Y-142850009D02*
G75*
G02*
X118399991Y-144350009I0J-1499991D01*
G01*
X145550000Y-71799997D02*
X145550000Y-63250000D01*
X100681803Y-132881801D02*
X115681789Y-117881813D01*
X76500016Y-106600006D02*
G75*
G02*
X74999994Y-105100005I-16J1500006D01*
G01*
X141600000Y-148499999D02*
G75*
G02*
X140099999Y-150000000I-1500000J-1D01*
G01*
X146900003Y-62150003D02*
X146649994Y-62150003D01*
X168499999Y-98400000D02*
X164349997Y-98400000D01*
X76500001Y-91600000D02*
X80650003Y-91600000D01*
X141900001Y-78000000D02*
X141900002Y-81999999D01*
X128099997Y-142849997D02*
X128350006Y-142849997D01*
X162850009Y-78100000D02*
G75*
G02*
X164350009Y-76600009I1499991J0D01*
G01*
X168499999Y-113400000D02*
X164349997Y-113400000D01*
X131900003Y-62150003D02*
X131649994Y-62150003D01*
X162849997Y-96900003D02*
X162849997Y-96649994D01*
X118400000Y-56500001D02*
X118400000Y-60650003D01*
X168500011Y-91600003D02*
X164350009Y-91600003D01*
X118400000Y-60650003D02*
G75*
G02*
X116900003Y-62150000I-1500000J3D01*
G01*
X128100000Y-62149991D02*
G75*
G02*
X126600009Y-60649991I0J1499991D01*
G01*
M02*
