%TF.GenerationSoftware,KiCad,Pcbnew,8.0.1-unknown-202403172319~81f55dfc9c~ubuntu22.04.1*%
%TF.CreationDate,2024-03-25T12:05:22+00:00*%
%TF.ProjectId,LIS3DH_array,4c495333-4448-45f6-9172-7261792e6b69,rev?*%
%TF.SameCoordinates,Original*%
%TF.FileFunction,Drillmap*%
%TF.FilePolarity,Positive*%
%FSLAX45Y45*%
G04 Gerber Fmt 4.5, Leading zero omitted, Abs format (unit mm)*
G04 Created by KiCad (PCBNEW 8.0.1-unknown-202403172319~81f55dfc9c~ubuntu22.04.1) date 2024-03-25 12:05:22*
%MOMM*%
%LPD*%
G01*
G04 APERTURE LIST*
%ADD10C,0.010000*%
%ADD11C,0.038100*%
%ADD12C,0.001000*%
%ADD13C,0.200000*%
%ADD14C,0.100000*%
G04 APERTURE END LIST*
D10*
X11600000Y-11575000D02*
G75*
G02*
X11600000Y-11665000I0J-45000D01*
G01*
X11190000Y-9665000D02*
X11190000Y-9700000D01*
X10200000Y-12190000D02*
X9800000Y-12190000D01*
X12900000Y-7425000D02*
G75*
G02*
X13055000Y-7580000I0J-155000D01*
G01*
X10200000Y-10690000D02*
G75*
G02*
X10310000Y-10800000I0J-110000D01*
G01*
X8215000Y-9310000D02*
X8215000Y-9335001D01*
X11190000Y-7800000D02*
G75*
G02*
X11300000Y-7690000I110000J0D01*
G01*
X14190000Y-12300000D02*
X14190000Y-12700000D01*
X14445000Y-13320000D02*
G75*
G02*
X14600000Y-13165000I155000J0D01*
G01*
X10165000Y-7690000D02*
G75*
G02*
X10055000Y-7580000I0J110000D01*
G01*
X14700000Y-12190000D02*
G75*
G02*
X14810000Y-12300000I0J-110000D01*
G01*
X9535000Y-12600000D02*
G75*
G02*
X9225000Y-12600000I-155000J0D01*
G01*
X11700000Y-9810000D02*
X11300000Y-9810000D01*
X11600000Y-13075000D02*
G75*
G02*
X11600000Y-13165000I0J-45000D01*
G01*
X12945000Y-7180000D02*
G75*
G02*
X12900000Y-7225000I-45000J0D01*
G01*
X14300000Y-10690000D02*
X14700000Y-10690000D01*
X9690000Y-9665000D02*
X9690000Y-9700000D01*
X14190000Y-10800000D02*
G75*
G02*
X14300000Y-10690000I110000J0D01*
G01*
X11810000Y-12700000D02*
G75*
G02*
X11700000Y-12810000I-110000J0D01*
G01*
X9180000Y-9445000D02*
G75*
G02*
X9335000Y-9600000I0J-155000D01*
G01*
X14700000Y-10690000D02*
G75*
G02*
X14810000Y-10800000I0J-110000D01*
G01*
X13310000Y-12700000D02*
G75*
G02*
X13200000Y-12810000I-110000J0D01*
G01*
X15320000Y-11055000D02*
G75*
G02*
X15165000Y-10900000I0J155000D01*
G01*
X10200000Y-9810000D02*
X9800000Y-9810000D01*
X12900000Y-8925000D02*
G75*
G02*
X13055000Y-9080000I0J-155000D01*
G01*
X9179998Y-8055000D02*
G75*
G02*
X9211820Y-8068180I2J-45000D01*
G01*
X12931821Y-8711819D02*
G75*
G02*
X12900000Y-8725000I-31821J31819D01*
G01*
X13165000Y-7690000D02*
X13200000Y-7690000D01*
X12900000Y-7425000D02*
G75*
G02*
X12900000Y-7335000I0J45000D01*
G01*
X11600000Y-12965000D02*
G75*
G02*
X11555000Y-12920000I0J45000D01*
G01*
X9900000Y-7535000D02*
G75*
G02*
X9900000Y-7225000I0J155000D01*
G01*
X11700000Y-7690000D02*
G75*
G02*
X11810000Y-7800000I0J-110000D01*
G01*
X16435000Y-11340000D02*
G75*
G02*
X16285000Y-11190000I0J150000D01*
G01*
X9180000Y-11055000D02*
G75*
G02*
X9225000Y-11100000I0J-45000D01*
G01*
X9580000Y-11055000D02*
G75*
G02*
X9690000Y-11165000I0J-110000D01*
G01*
X14965000Y-7900000D02*
G75*
G02*
X14920000Y-7945000I-45000J0D01*
G01*
X14920000Y-10945000D02*
G75*
G02*
X14810000Y-10835000I0J110000D01*
G01*
X9535000Y-9600000D02*
G75*
G02*
X9225000Y-9600000I-155000J0D01*
G01*
X14810000Y-12700000D02*
G75*
G02*
X14700000Y-12810000I-110000J0D01*
G01*
X12900000Y-9035000D02*
G75*
G02*
X12900000Y-8725000I0J155000D01*
G01*
X14810000Y-10835000D02*
X14810000Y-10800000D01*
X9180000Y-9555000D02*
G75*
G02*
X9225000Y-9600000I0J-45000D01*
G01*
X13200000Y-9190000D02*
G75*
G02*
X13310000Y-9300000I0J-110000D01*
G01*
X12800000Y-8310000D02*
G75*
G02*
X12690000Y-8200000I0J110000D01*
G01*
X15075000Y-9400000D02*
G75*
G02*
X14920000Y-9555000I-155000J0D01*
G01*
X10340000Y-14850001D02*
X10340000Y-14435001D01*
X14300000Y-8310000D02*
G75*
G02*
X14190000Y-8200000I0J110000D01*
G01*
X11400000Y-7425000D02*
G75*
G02*
X11400000Y-7335000I0J45000D01*
G01*
X14810000Y-12300000D02*
X14810000Y-12700000D01*
X9900000Y-7425000D02*
G75*
G02*
X9900000Y-7335000I0J45000D01*
G01*
X15320000Y-9445000D02*
G75*
G02*
X15275000Y-9400000I0J45000D01*
G01*
X9690000Y-11165000D02*
X9690000Y-11200000D01*
X10340000Y-5650000D02*
G75*
G02*
X10490000Y-5500000I150000J0D01*
G01*
X11665000Y-11310000D02*
X11700000Y-11310000D01*
X12835000Y-7690000D02*
X12800000Y-7690000D01*
X14600000Y-12965000D02*
G75*
G02*
X14555000Y-12920000I0J45000D01*
G01*
X9580000Y-12555000D02*
G75*
G02*
X9690000Y-12665000I0J-110000D01*
G01*
X13200000Y-10690000D02*
G75*
G02*
X13310000Y-10800000I0J-110000D01*
G01*
X15320000Y-10945000D02*
G75*
G02*
X15275000Y-10900000I0J45000D01*
G01*
X9180000Y-10945000D02*
G75*
G02*
X9335000Y-11100000I0J-155000D01*
G01*
X10200000Y-9190000D02*
X9800000Y-9190000D01*
X12690000Y-10800000D02*
G75*
G02*
X12800000Y-10690000I110000J0D01*
G01*
X13310000Y-12300000D02*
X13310000Y-12700000D01*
X9535000Y-11100000D02*
G75*
G02*
X9225000Y-11100000I-155000J0D01*
G01*
X11665000Y-7690000D02*
X11700000Y-7690000D01*
X11190000Y-9300000D02*
G75*
G02*
X11300000Y-9190000I110000J0D01*
G01*
X14300000Y-12810000D02*
G75*
G02*
X14190000Y-12700000I0J110000D01*
G01*
X9945000Y-7180000D02*
G75*
G02*
X9900000Y-7225000I-45000J0D01*
G01*
X14810000Y-7835000D02*
X14810000Y-7800000D01*
X8065000Y-7660000D02*
G75*
G02*
X8215000Y-7810000I0J-150000D01*
G01*
X12900000Y-7535000D02*
G75*
G02*
X12945000Y-7580000I0J-45000D01*
G01*
X14965000Y-10900000D02*
G75*
G02*
X15275000Y-10900000I155000J0D01*
G01*
X11810000Y-8200000D02*
X11810000Y-7800000D01*
X8325000Y-12445000D02*
G75*
G02*
X8215000Y-12335001I0J110000D01*
G01*
X14600000Y-12965000D02*
G75*
G02*
X14600000Y-13275000I0J-155000D01*
G01*
X15075000Y-9400000D02*
G75*
G02*
X15165000Y-9400000I45000J0D01*
G01*
X13100000Y-13075000D02*
G75*
G02*
X12945000Y-12920000I0J155000D01*
G01*
X11300000Y-12810000D02*
G75*
G02*
X11190000Y-12700000I0J110000D01*
G01*
X9425000Y-9600000D02*
G75*
G02*
X9335000Y-9600000I-45000J0D01*
G01*
X15075000Y-7900000D02*
G75*
G02*
X15165000Y-7900000I45000J0D01*
G01*
X11400000Y-7535000D02*
G75*
G02*
X11400000Y-7225000I0J155000D01*
G01*
X9425000Y-12600000D02*
G75*
G02*
X9580000Y-12445000I155000J0D01*
G01*
X13465000Y-10900000D02*
G75*
G02*
X13775000Y-10900000I155000J0D01*
G01*
X7499999Y-8490000D02*
G75*
G02*
X7649999Y-8339999I150001J0D01*
G01*
X12945000Y-7580000D02*
G75*
G02*
X12835000Y-7690000I-110000J0D01*
G01*
X9690000Y-10835000D02*
G75*
G02*
X9580000Y-10945000I-110000J0D01*
G01*
X11555000Y-11420000D02*
G75*
G02*
X11665000Y-11310000I110000J0D01*
G01*
X14665000Y-12810000D02*
X14700000Y-12810000D01*
X14555000Y-13320000D02*
G75*
G02*
X14600000Y-13275000I45000J0D01*
G01*
X14335000Y-12810000D02*
X14300000Y-12810000D01*
X14700000Y-9190000D02*
G75*
G02*
X14810000Y-9300000I0J-110000D01*
G01*
X10310000Y-8200000D02*
G75*
G02*
X10200000Y-8310000I-110000J0D01*
G01*
X9425000Y-11100000D02*
G75*
G02*
X9580000Y-10945000I155000J0D01*
G01*
X10310000Y-12700000D02*
X10310000Y-12300000D01*
X12800000Y-11310000D02*
X13200000Y-11310000D01*
X13200000Y-12190000D02*
G75*
G02*
X13310000Y-12300000I0J-110000D01*
G01*
X14190000Y-9300000D02*
G75*
G02*
X14300000Y-9190000I110000J0D01*
G01*
X9800000Y-9810000D02*
G75*
G02*
X9690000Y-9700000I0J110000D01*
G01*
X15320000Y-8055000D02*
G75*
G02*
X15165000Y-7900000I0J155000D01*
G01*
X10200000Y-11310000D02*
X9800000Y-11310000D01*
X12900000Y-7535000D02*
G75*
G02*
X12900000Y-7225000I0J155000D01*
G01*
X13055000Y-12920000D02*
G75*
G02*
X13165000Y-12810000I110000J0D01*
G01*
X9180000Y-12555000D02*
G75*
G02*
X9225000Y-12600000I0J-45000D01*
G01*
X13055000Y-13320000D02*
G75*
G02*
X13100000Y-13275000I45000J0D01*
G01*
X10310000Y-9700000D02*
G75*
G02*
X10200000Y-9810000I-110000J0D01*
G01*
X9425000Y-12600000D02*
G75*
G02*
X9335000Y-12600000I-45000J0D01*
G01*
X10310000Y-11200000D02*
G75*
G02*
X10200000Y-11310000I-110000J0D01*
G01*
X14810000Y-9700000D02*
G75*
G02*
X14700000Y-9810000I-110000J0D01*
G01*
X12690000Y-8200000D02*
X12690000Y-7800000D01*
X14300000Y-11310000D02*
G75*
G02*
X14190000Y-11200000I0J110000D01*
G01*
X15320000Y-7945000D02*
G75*
G02*
X15275000Y-7900000I0J45000D01*
G01*
X11600000Y-13075000D02*
G75*
G02*
X11445000Y-12920000I0J155000D01*
G01*
X14300000Y-9810000D02*
X14700000Y-9810000D01*
X9425000Y-9600000D02*
G75*
G02*
X9580000Y-9445000I155000J0D01*
G01*
X9835000Y-7690000D02*
X9800000Y-7690000D01*
X10165000Y-7690000D02*
X10200000Y-7690000D01*
X9800000Y-11310000D02*
G75*
G02*
X9690000Y-11200000I0J110000D01*
G01*
X9180000Y-12445000D02*
G75*
G02*
X9335000Y-12600000I0J-155000D01*
G01*
X9690000Y-7800000D02*
G75*
G02*
X9800000Y-7690000I110000J0D01*
G01*
X14810000Y-8165000D02*
G75*
G02*
X14920000Y-8055000I110000J0D01*
G01*
X14810000Y-8200000D02*
G75*
G02*
X14700000Y-8310000I-110000J0D01*
G01*
X11600000Y-12965000D02*
G75*
G02*
X11600000Y-13275000I0J-155000D01*
G01*
X11300000Y-11310000D02*
G75*
G02*
X11190000Y-11200000I0J110000D01*
G01*
X9800000Y-8310000D02*
G75*
G02*
X9690000Y-8200000I0J110000D01*
G01*
X13340000Y-14850001D02*
X13340000Y-14435001D01*
X9535000Y-12600000D02*
G75*
G02*
X9580000Y-12555000I45000J0D01*
G01*
X15075000Y-10900000D02*
G75*
G02*
X15165000Y-10900000I45000J0D01*
G01*
X14300000Y-9810000D02*
G75*
G02*
X14190000Y-9700000I0J110000D01*
G01*
X9690000Y-10835000D02*
X9690000Y-10800000D01*
X15075000Y-7900000D02*
G75*
G02*
X14920000Y-8055000I-155000J0D01*
G01*
X11190000Y-9335000D02*
G75*
G02*
X11080000Y-9445000I-110000J0D01*
G01*
X13310000Y-11165000D02*
X13310000Y-11200000D01*
X15320000Y-9555000D02*
G75*
G02*
X15165000Y-9400000I0J155000D01*
G01*
X14810000Y-11165000D02*
G75*
G02*
X14920000Y-11055000I110000J0D01*
G01*
X14555000Y-12920000D02*
G75*
G02*
X14665000Y-12810000I110000J0D01*
G01*
X11335000Y-7690000D02*
X11300000Y-7690000D01*
X12945000Y-13320000D02*
G75*
G02*
X13100000Y-13165000I155000J0D01*
G01*
X14600000Y-13075000D02*
G75*
G02*
X14600000Y-13165000I0J-45000D01*
G01*
X9945000Y-7580000D02*
G75*
G02*
X9835000Y-7690000I-110000J0D01*
G01*
X11555000Y-7180000D02*
G75*
G02*
X11400000Y-7335000I-155000J0D01*
G01*
X9690000Y-9300000D02*
G75*
G02*
X9800000Y-9190000I110000J0D01*
G01*
X10200000Y-10690000D02*
X9800000Y-10690000D01*
X10055000Y-7180000D02*
G75*
G02*
X9900000Y-7335000I-155000J0D01*
G01*
X13165000Y-12810000D02*
X13200000Y-12810000D01*
X9690000Y-8200000D02*
X9690000Y-7800000D01*
X15320002Y-9445001D02*
X16175001Y-9445001D01*
X9690000Y-10800000D02*
G75*
G02*
X9800000Y-10690000I110000J0D01*
G01*
X14810000Y-8165000D02*
X14810000Y-8200000D01*
X10310000Y-12700000D02*
G75*
G02*
X10200000Y-12810000I-110000J0D01*
G01*
X14965000Y-7900000D02*
G75*
G02*
X15275000Y-7900000I155000J0D01*
G01*
X11555000Y-13320000D02*
G75*
G02*
X11600000Y-13275000I45000J0D01*
G01*
X11190000Y-12300000D02*
X11190000Y-12700000D01*
X11840000Y-14850001D02*
X11840000Y-14435001D01*
X16285001Y-12310000D02*
X16285001Y-12335001D01*
X9690000Y-12300000D02*
G75*
G02*
X9800000Y-12190000I110000J0D01*
G01*
X9180000Y-10945000D02*
X8325000Y-10945000D01*
X9690000Y-12665000D02*
X9690000Y-12700000D01*
X11810000Y-12300000D02*
X11810000Y-12700000D01*
X14965000Y-10900000D02*
G75*
G02*
X14920000Y-10945000I-45000J0D01*
G01*
X14335000Y-12810000D02*
G75*
G02*
X14445000Y-12920000I0J-110000D01*
G01*
X14690000Y-14285001D02*
X14664999Y-14285001D01*
X11335000Y-12810000D02*
X11300000Y-12810000D01*
X14920000Y-7945000D02*
G75*
G02*
X14810000Y-7835000I0J110000D01*
G01*
X10200000Y-9190000D02*
G75*
G02*
X10310000Y-9300000I0J-110000D01*
G01*
X11300000Y-8310000D02*
G75*
G02*
X11190000Y-8200000I0J110000D01*
G01*
X14300000Y-9190000D02*
X14700000Y-9190000D01*
X14554999Y-13320002D02*
X14554999Y-14175001D01*
X11445000Y-7180000D02*
G75*
G02*
X11400000Y-7225000I-45000J0D01*
G01*
X9900000Y-7425000D02*
G75*
G02*
X10055000Y-7580000I0J-155000D01*
G01*
X13575000Y-10900000D02*
G75*
G02*
X13420000Y-11055000I-155000J0D01*
G01*
X11335000Y-12810000D02*
G75*
G02*
X11445000Y-12920000I0J-110000D01*
G01*
X14300000Y-8310000D02*
X14700000Y-8310000D01*
X14690000Y-14285001D02*
G75*
G02*
X14839999Y-14435001I0J-149999D01*
G01*
X12690000Y-7800000D02*
G75*
G02*
X12800000Y-7690000I110000J0D01*
G01*
X12690000Y-9700000D02*
X12690000Y-9300000D01*
X10200000Y-12810000D02*
X9800000Y-12810000D01*
X10200000Y-7690000D02*
G75*
G02*
X10310000Y-7800000I0J-110000D01*
G01*
X12800000Y-10690000D02*
X13200000Y-10690000D01*
X11700000Y-12190000D02*
G75*
G02*
X11810000Y-12300000I0J-110000D01*
G01*
X14300000Y-11310000D02*
X14700000Y-11310000D01*
X11445000Y-13320000D02*
G75*
G02*
X11600000Y-13165000I155000J0D01*
G01*
X11335000Y-11310000D02*
G75*
G02*
X11445000Y-11420000I0J-110000D01*
G01*
X16850001Y-12160000D02*
X16435001Y-12160000D01*
X13055000Y-7180000D02*
X13055000Y-6325000D01*
X11665000Y-7690000D02*
G75*
G02*
X11555000Y-7580000I0J110000D01*
G01*
X13100000Y-12965000D02*
G75*
G02*
X13055000Y-12920000I0J45000D01*
G01*
X13100000Y-13075000D02*
G75*
G02*
X13100000Y-13165000I0J-45000D01*
G01*
X11664999Y-14285001D02*
G75*
G02*
X11554999Y-14175001I1J110001D01*
G01*
X9690000Y-9335000D02*
X9690000Y-9300000D01*
X13100000Y-12965000D02*
G75*
G02*
X13100000Y-13275000I0J-155000D01*
G01*
X13200000Y-7690000D02*
G75*
G02*
X13310000Y-7800000I0J-110000D01*
G01*
X11665000Y-12810000D02*
X11700000Y-12810000D01*
X9179998Y-11054999D02*
X8324998Y-11054999D01*
X14300000Y-7690000D02*
X14700000Y-7690000D01*
X12690000Y-12300000D02*
X12690000Y-12700000D01*
X12800000Y-11310000D02*
G75*
G02*
X12690000Y-11200000I0J110000D01*
G01*
X9800000Y-12810000D02*
G75*
G02*
X9690000Y-12700000I0J110000D01*
G01*
X7499999Y-12990000D02*
X7500000Y-14750000D01*
X9690000Y-9335000D02*
G75*
G02*
X9580000Y-9445000I-110000J0D01*
G01*
X9580000Y-9555000D02*
G75*
G02*
X9690000Y-9665000I0J-110000D01*
G01*
D11*
X17700000Y-4900000D02*
G75*
G02*
X17500000Y-4900000I-100000J0D01*
G01*
X17500000Y-4900000D02*
G75*
G02*
X17700000Y-4900000I100000J0D01*
G01*
D10*
X14810000Y-9665000D02*
X14810000Y-9700000D01*
X13310000Y-8200000D02*
X13310000Y-7800000D01*
X11080000Y-9555000D02*
G75*
G02*
X11190000Y-9665000I0J-110000D01*
G01*
D12*
X7500000Y-5750000D02*
G75*
G02*
X7750000Y-5500000I250000J0D01*
G01*
D10*
X11190000Y-12300000D02*
G75*
G02*
X11300000Y-12190000I110000J0D01*
G01*
X13420000Y-10945000D02*
G75*
G02*
X13310000Y-10835000I0J110000D01*
G01*
X9535000Y-11100000D02*
G75*
G02*
X9580000Y-11055000I45000J0D01*
G01*
X16285000Y-8190000D02*
X16285000Y-8164999D01*
X13165000Y-9190000D02*
X13200000Y-9190000D01*
X15320002Y-12445001D02*
X16175001Y-12445001D01*
X9900000Y-7535000D02*
G75*
G02*
X9945000Y-7580000I0J-45000D01*
G01*
X17000001Y-10510000D02*
G75*
G02*
X16850001Y-10660001I-150001J0D01*
G01*
X7500000Y-9010000D02*
X7499999Y-8490000D01*
X14810000Y-11200000D02*
G75*
G02*
X14700000Y-11310000I-110000J0D01*
G01*
X15075000Y-10900000D02*
G75*
G02*
X14920000Y-11055000I-155000J0D01*
G01*
X11445000Y-7580000D02*
G75*
G02*
X11335000Y-7690000I-110000J0D01*
G01*
X11010000Y-5499999D02*
G75*
G02*
X11160001Y-5649999I0J-150001D01*
G01*
X11600000Y-11465000D02*
G75*
G02*
X11555000Y-11420000I0J45000D01*
G01*
X11335001Y-6214999D02*
G75*
G02*
X11445001Y-6324998I-1J-110001D01*
G01*
X11400000Y-7425000D02*
G75*
G02*
X11555000Y-7580000I0J-155000D01*
G01*
X14600000Y-13075000D02*
G75*
G02*
X14445000Y-12920000I0J155000D01*
G01*
X8214999Y-9664999D02*
G75*
G02*
X8324998Y-9554999I110001J-1D01*
G01*
X11035000Y-9600000D02*
G75*
G02*
X11080000Y-9555000I45000J0D01*
G01*
X8065000Y-9160000D02*
G75*
G02*
X8215000Y-9310000I0J-150000D01*
G01*
X13165000Y-9190000D02*
G75*
G02*
X13055000Y-9080000I0J110000D01*
G01*
X12945000Y-13320000D02*
X12945000Y-14175000D01*
X13055000Y-7180000D02*
G75*
G02*
X12900000Y-7335000I-155000J0D01*
G01*
X16285001Y-10810000D02*
X16285001Y-10835001D01*
X11810000Y-10800000D02*
X11810000Y-11200000D01*
X14190000Y-12300000D02*
G75*
G02*
X14300000Y-12190000I110000J0D01*
G01*
X13310000Y-10835000D02*
X13310000Y-10800000D01*
X11810000Y-8200000D02*
G75*
G02*
X11700000Y-8310000I-110000J0D01*
G01*
X9425000Y-11100000D02*
G75*
G02*
X9335000Y-11100000I-45000J0D01*
G01*
X11400000Y-7535000D02*
G75*
G02*
X11445000Y-7580000I0J-45000D01*
G01*
X11190000Y-10800000D02*
X11190000Y-11200000D01*
X14965000Y-9400000D02*
G75*
G02*
X15275000Y-9400000I155000J0D01*
G01*
X9510000Y-15000000D02*
X7750000Y-15000000D01*
X14700000Y-7690000D02*
G75*
G02*
X14810000Y-7800000I0J-110000D01*
G01*
X12835000Y-12810000D02*
G75*
G02*
X12945000Y-12920000I0J-110000D01*
G01*
X14920000Y-9445000D02*
G75*
G02*
X14810000Y-9335000I0J110000D01*
G01*
X14445000Y-14175000D02*
G75*
G02*
X14335001Y-14285000I-110000J0D01*
G01*
X12690000Y-12300000D02*
G75*
G02*
X12800000Y-12190000I110000J0D01*
G01*
X12800000Y-12810000D02*
G75*
G02*
X12690000Y-12700000I0J110000D01*
G01*
X11190000Y-8200000D02*
X11190000Y-7800000D01*
X11810000Y-9300000D02*
X11810000Y-9700000D01*
X14965000Y-9400000D02*
G75*
G02*
X14920000Y-9445000I-45000J0D01*
G01*
X14810000Y-11165000D02*
X14810000Y-11200000D01*
X11555000Y-12920000D02*
G75*
G02*
X11665000Y-12810000I110000J0D01*
G01*
X12810000Y-6214999D02*
X12835001Y-6214999D01*
X11555000Y-6325000D02*
G75*
G02*
X11664999Y-6215000I110000J0D01*
G01*
X12945000Y-9080000D02*
G75*
G02*
X12835000Y-9190000I-110000J0D01*
G01*
X16850000Y-8340000D02*
X16435000Y-8340000D01*
X11310000Y-6214999D02*
G75*
G02*
X11160001Y-6064999I0J149999D01*
G01*
X14445000Y-13320000D02*
X14445000Y-14175000D01*
X14990000Y-15000001D02*
X16750000Y-15000000D01*
X13310000Y-11165000D02*
G75*
G02*
X13420000Y-11055000I110000J0D01*
G01*
X14010000Y-5499999D02*
G75*
G02*
X14160001Y-5649999I0J-150001D01*
G01*
X14310000Y-14285000D02*
X14335001Y-14285000D01*
X11310000Y-14285000D02*
X11335001Y-14285000D01*
X7650000Y-12160000D02*
X8065000Y-12160000D01*
X12800000Y-9810000D02*
G75*
G02*
X12690000Y-9700000I0J110000D01*
G01*
X15320000Y-8055000D02*
X16175000Y-8055000D01*
X13165000Y-7690000D02*
G75*
G02*
X13055000Y-7580000I0J110000D01*
G01*
X13055000Y-6325000D02*
G75*
G02*
X13164999Y-6215000I110000J0D01*
G01*
X11335000Y-11310000D02*
X11300000Y-11310000D01*
X14810000Y-9665000D02*
G75*
G02*
X14920000Y-9555000I110000J0D01*
G01*
X10200000Y-12190000D02*
G75*
G02*
X10310000Y-12300000I0J-110000D01*
G01*
X12900000Y-9035000D02*
G75*
G02*
X12945000Y-9080000I0J-45000D01*
G01*
D11*
X6900000Y-4600000D02*
X17600000Y-4600000D01*
D10*
X11690000Y-6215000D02*
X11664999Y-6215000D01*
X10310000Y-8200000D02*
X10310000Y-7800000D01*
X7650002Y-10660001D02*
X8065002Y-10660001D01*
X9180000Y-7945000D02*
G75*
G02*
X9289602Y-7990399I0J-155000D01*
G01*
X11568179Y-11788181D02*
G75*
G02*
X11600000Y-11775000I31821J-31819D01*
G01*
X13310000Y-11200000D02*
G75*
G02*
X13200000Y-11310000I-110000J0D01*
G01*
X8065000Y-12160000D02*
G75*
G02*
X8215000Y-12310000I0J-150000D01*
G01*
X8214999Y-8190000D02*
G75*
G02*
X8064999Y-8339999I-149999J0D01*
G01*
X14010000Y-15000000D02*
X13490000Y-15000001D01*
X8325000Y-7945000D02*
G75*
G02*
X8215000Y-7835001I0J110000D01*
G01*
X11600000Y-11575000D02*
G75*
G02*
X11445000Y-11420000I0J155000D01*
G01*
X13310000Y-9700000D02*
G75*
G02*
X13200000Y-9810000I-110000J0D01*
G01*
X13490000Y-15000001D02*
G75*
G02*
X13339999Y-14850001I0J150001D01*
G01*
X9690000Y-12335000D02*
G75*
G02*
X9580000Y-12445000I-110000J0D01*
G01*
X11810000Y-11200000D02*
G75*
G02*
X11700000Y-11310000I-110000J0D01*
G01*
X16435000Y-9840000D02*
G75*
G02*
X16285000Y-9690000I0J150000D01*
G01*
X13054999Y-13320002D02*
X13054999Y-14175001D01*
X13575000Y-10900000D02*
G75*
G02*
X13665000Y-10900000I45000J0D01*
G01*
X17000001Y-7510000D02*
X17000000Y-5750000D01*
X14840000Y-5650000D02*
G75*
G02*
X14990000Y-5500000I150000J0D01*
G01*
X15288180Y-12431820D02*
X13788181Y-10931821D01*
X8214999Y-8190000D02*
X8214999Y-8164999D01*
X11700000Y-9190000D02*
X11300000Y-9190000D01*
X16435000Y-8340000D02*
G75*
G02*
X16285000Y-8190000I0J150000D01*
G01*
X15320000Y-11055000D02*
X16175000Y-11055000D01*
X7650000Y-12160000D02*
G75*
G02*
X7500000Y-12010000I0J150000D01*
G01*
X12835000Y-12810000D02*
X12800000Y-12810000D01*
X14810000Y-9335000D02*
X14810000Y-9300000D01*
X13465000Y-10900000D02*
G75*
G02*
X13420000Y-10945000I-45000J0D01*
G01*
X9945000Y-14175000D02*
G75*
G02*
X9835001Y-14285000I-110000J0D01*
G01*
X9179998Y-9554999D02*
X8324998Y-9554999D01*
X8214999Y-12690000D02*
G75*
G02*
X8064999Y-12839999I-149999J0D01*
G01*
X12835000Y-9190000D02*
X12800000Y-9190000D01*
X10490000Y-15000001D02*
G75*
G02*
X10339999Y-14850001I0J150001D01*
G01*
X11300000Y-9810000D02*
G75*
G02*
X11190000Y-9700000I0J110000D01*
G01*
X11554999Y-13320002D02*
X11554999Y-14175001D01*
X11600000Y-11465000D02*
G75*
G02*
X11600000Y-11775000I0J-155000D01*
G01*
X12690000Y-9300000D02*
G75*
G02*
X12800000Y-9190000I110000J0D01*
G01*
D11*
X6600000Y-4900000D02*
G75*
G02*
X6900000Y-4600000I300000J0D01*
G01*
D10*
X7650000Y-9160000D02*
G75*
G02*
X7500000Y-9010000I0J150000D01*
G01*
X13190000Y-14285001D02*
G75*
G02*
X13339999Y-14435001I0J-149999D01*
G01*
X8215001Y-11190001D02*
X8215001Y-11165000D01*
X9510000Y-5499999D02*
G75*
G02*
X9660001Y-5649999I0J-150001D01*
G01*
X10164999Y-14285001D02*
G75*
G02*
X10054999Y-14175001I1J110001D01*
G01*
X12660000Y-5649999D02*
X12660000Y-6064999D01*
X13310000Y-8200000D02*
G75*
G02*
X13200000Y-8310000I-110000J0D01*
G01*
X14190000Y-7800000D02*
G75*
G02*
X14300000Y-7690000I110000J0D01*
G01*
X13310000Y-9700000D02*
X13310000Y-9300000D01*
X11190000Y-10800000D02*
G75*
G02*
X11300000Y-10690000I110000J0D01*
G01*
X14160000Y-14850000D02*
X14160000Y-14435000D01*
X11445001Y-7179998D02*
X11445001Y-6324998D01*
X9945001Y-7179998D02*
X9945001Y-6324998D01*
X14840000Y-5650000D02*
X14840000Y-6065000D01*
D11*
X7000000Y-4900000D02*
G75*
G02*
X6800000Y-4900000I-100000J0D01*
G01*
X6800000Y-4900000D02*
G75*
G02*
X7000000Y-4900000I100000J0D01*
G01*
D10*
X12945001Y-7179998D02*
X12945001Y-6324998D01*
X10310000Y-9300000D02*
X10310000Y-9700000D01*
X17000000Y-9990000D02*
X17000001Y-10510000D01*
X16285001Y-10835001D02*
G75*
G02*
X16175001Y-10945001I-110001J1D01*
G01*
X16850001Y-7660000D02*
X16435001Y-7660000D01*
X11700000Y-9190000D02*
G75*
G02*
X11810000Y-9300000I0J-110000D01*
G01*
X7499999Y-12990000D02*
G75*
G02*
X7649999Y-12839999I150001J0D01*
G01*
X12900000Y-8925000D02*
G75*
G02*
X12900000Y-8835000I0J45000D01*
G01*
D11*
X17600000Y-15900000D02*
X6900000Y-15900000D01*
D10*
X9535000Y-9600000D02*
G75*
G02*
X9580000Y-9555000I45000J0D01*
G01*
X15320002Y-7945001D02*
X16175001Y-7945001D01*
X12945000Y-14175000D02*
G75*
G02*
X12835001Y-14285000I-110000J0D01*
G01*
X17000000Y-8490000D02*
X17000001Y-9010000D01*
X10340000Y-6065000D02*
G75*
G02*
X10190000Y-6215000I-150000J0D01*
G01*
X14160000Y-14435000D02*
G75*
G02*
X14310000Y-14285000I150000J0D01*
G01*
D11*
X7000000Y-15600000D02*
G75*
G02*
X6800000Y-15600000I-100000J0D01*
G01*
X6800000Y-15600000D02*
G75*
G02*
X7000000Y-15600000I100000J0D01*
G01*
D10*
X11160000Y-14850000D02*
X11160000Y-14435000D01*
X11010000Y-15000000D02*
X10490000Y-15000001D01*
X10190000Y-6215000D02*
X10164999Y-6215000D01*
X9945000Y-13320000D02*
G75*
G02*
X9990399Y-13210398I155000J0D01*
G01*
X8214999Y-12664999D02*
G75*
G02*
X8324998Y-12554999I110001J-1D01*
G01*
X14700000Y-12190000D02*
X14300000Y-12190000D01*
X13340000Y-5650000D02*
X13340000Y-6065000D01*
X9660000Y-14435000D02*
G75*
G02*
X9810000Y-14285000I150000J0D01*
G01*
X7649999Y-9840000D02*
X8064999Y-9840000D01*
X9945000Y-13320000D02*
X9945000Y-14175000D01*
X14840000Y-14850001D02*
X14840000Y-14435001D01*
X9690000Y-12335000D02*
X9690000Y-12300000D01*
X16285001Y-9310000D02*
G75*
G02*
X16435001Y-9160001I149999J0D01*
G01*
X11160000Y-5649999D02*
X11160000Y-6064999D01*
X16285000Y-11190000D02*
X16285000Y-11164999D01*
X10925000Y-9600000D02*
G75*
G02*
X10835000Y-9600000I-45000J0D01*
G01*
X11555000Y-7180000D02*
X11555000Y-6325000D01*
X17000000Y-11490000D02*
X17000001Y-12010000D01*
D12*
X17000000Y-14750000D02*
G75*
G02*
X16750000Y-15000000I-250000J0D01*
G01*
D10*
X7649999Y-12840000D02*
X8064999Y-12840000D01*
X9800000Y-8310000D02*
X10200000Y-8310000D01*
X8325000Y-10945000D02*
G75*
G02*
X8215000Y-10835001I0J110000D01*
G01*
X11445000Y-13320000D02*
X11445000Y-14175000D01*
X8325000Y-9445000D02*
G75*
G02*
X8215000Y-9335001I0J110000D01*
G01*
D11*
X17700000Y-15600000D02*
G75*
G02*
X17500000Y-15600000I-100000J0D01*
G01*
X17500000Y-15600000D02*
G75*
G02*
X17700000Y-15600000I100000J0D01*
G01*
X17900000Y-4900000D02*
X17900000Y-15600000D01*
D10*
X16435000Y-12840000D02*
G75*
G02*
X16285000Y-12690000I0J150000D01*
G01*
X9179998Y-12554999D02*
X8324998Y-12554999D01*
X10190000Y-14285001D02*
X10164999Y-14285001D01*
X9180000Y-7945000D02*
X8325000Y-7945000D01*
X16175000Y-9555000D02*
G75*
G02*
X16285000Y-9664999I0J-110000D01*
G01*
X11700000Y-10690000D02*
G75*
G02*
X11810000Y-10800000I0J-110000D01*
G01*
X10190000Y-14285001D02*
G75*
G02*
X10339999Y-14435001I0J-149999D01*
G01*
X15210398Y-12509601D02*
X13710398Y-11009602D01*
X9660000Y-5649999D02*
X9660000Y-6064999D01*
X16285000Y-12690000D02*
X16285000Y-12664999D01*
X7650000Y-7660000D02*
X8065000Y-7660000D01*
X14190000Y-11200000D02*
X14190000Y-10800000D01*
X14190000Y-9300000D02*
X14190000Y-9700000D01*
X9660000Y-14850000D02*
G75*
G02*
X9510000Y-15000000I-150000J0D01*
G01*
X10925000Y-9600000D02*
G75*
G02*
X11080000Y-9445000I155000J0D01*
G01*
X14990000Y-15000001D02*
G75*
G02*
X14839999Y-14850001I0J150001D01*
G01*
X16285001Y-12335001D02*
G75*
G02*
X16175001Y-12445001I-110001J1D01*
G01*
X7500000Y-12010000D02*
X7500000Y-11490000D01*
X12510000Y-5499999D02*
G75*
G02*
X12660001Y-5649999I0J-150001D01*
G01*
X9180000Y-9445000D02*
X8325000Y-9445000D01*
X12690000Y-10800000D02*
X12690000Y-11200000D01*
X11190000Y-9335000D02*
X11190000Y-9300000D01*
X8214999Y-8164999D02*
G75*
G02*
X8324998Y-8054999I110001J-1D01*
G01*
X8214999Y-12690000D02*
X8214999Y-12664999D01*
D11*
X17600000Y-4600000D02*
G75*
G02*
X17900000Y-4900000I0J-300000D01*
G01*
D10*
X15320000Y-9555000D02*
X16175000Y-9555000D01*
X17000001Y-12010000D02*
G75*
G02*
X16850001Y-12160001I-150001J0D01*
G01*
X9810000Y-14285000D02*
X9835001Y-14285000D01*
X9180000Y-12445000D02*
X8325000Y-12445000D01*
D12*
X16750000Y-5500000D02*
G75*
G02*
X17000000Y-5750000I0J-250000D01*
G01*
D10*
X16175000Y-8055000D02*
G75*
G02*
X16285000Y-8164999I0J-110000D01*
G01*
X16285001Y-12310000D02*
G75*
G02*
X16435001Y-12160001I149999J0D01*
G01*
X12660000Y-14850000D02*
X12660000Y-14435000D01*
X9810000Y-6214999D02*
G75*
G02*
X9660001Y-6064999I0J149999D01*
G01*
X8214999Y-9690000D02*
G75*
G02*
X8064999Y-9839999I-149999J0D01*
G01*
X16285001Y-10810000D02*
G75*
G02*
X16435001Y-10660001I149999J0D01*
G01*
X12660000Y-14850000D02*
G75*
G02*
X12510000Y-15000000I-150000J0D01*
G01*
X9289602Y-7990399D02*
X10789602Y-9490398D01*
X14310000Y-6214999D02*
X14335001Y-6214999D01*
X9660000Y-14850000D02*
X9660000Y-14435000D01*
X15320002Y-10945001D02*
X16175001Y-10945001D01*
X17000001Y-7510000D02*
G75*
G02*
X16850001Y-7660001I-150001J0D01*
G01*
D12*
X7750000Y-15000000D02*
G75*
G02*
X7500000Y-14750000I0J250000D01*
G01*
D10*
X11035000Y-9600000D02*
G75*
G02*
X10725000Y-9600000I-155000J0D01*
G01*
X14160000Y-5649999D02*
X14160000Y-6064999D01*
X14840000Y-6065000D02*
G75*
G02*
X14690000Y-6215000I-150000J0D01*
G01*
X15320000Y-12555000D02*
G75*
G02*
X15210398Y-12509601I0J155000D01*
G01*
X11840000Y-5650000D02*
G75*
G02*
X11990000Y-5500000I150000J0D01*
G01*
X14555000Y-6325000D02*
G75*
G02*
X14664999Y-6215000I110000J0D01*
G01*
X8215000Y-7810000D02*
X8215000Y-7835001D01*
X8065002Y-10660001D02*
G75*
G02*
X8214999Y-10810000I-2J-149999D01*
G01*
X10789602Y-9490398D02*
G75*
G02*
X10835000Y-9600000I-109602J-109602D01*
G01*
X10310000Y-11200000D02*
X10310000Y-10800000D01*
X13490000Y-5500000D02*
X14010000Y-5499999D01*
X11490398Y-11710398D02*
G75*
G02*
X11600000Y-11665000I109602J-109602D01*
G01*
X12510000Y-15000000D02*
X11990000Y-15000001D01*
X8215000Y-12310000D02*
X8215000Y-12335001D01*
X16285001Y-7835001D02*
G75*
G02*
X16175001Y-7945001I-110001J1D01*
G01*
X16850000Y-8340000D02*
G75*
G02*
X17000000Y-8490000I0J-150000D01*
G01*
X11445000Y-14175000D02*
G75*
G02*
X11335001Y-14285000I-110000J0D01*
G01*
X7500000Y-7510000D02*
X7500000Y-5750000D01*
X11160000Y-14435000D02*
G75*
G02*
X11310000Y-14285000I150000J0D01*
G01*
X11160000Y-14850000D02*
G75*
G02*
X11010000Y-15000000I-150000J0D01*
G01*
X8215001Y-11165000D02*
G75*
G02*
X8325000Y-11055001I109999J0D01*
G01*
X14335001Y-6214999D02*
G75*
G02*
X14445001Y-6324998I-1J-110001D01*
G01*
X9810000Y-6214999D02*
X9835001Y-6214999D01*
X12660000Y-14435000D02*
G75*
G02*
X12810000Y-14285000I150000J0D01*
G01*
X11690000Y-14285001D02*
X11664999Y-14285001D01*
X13788181Y-10931821D02*
G75*
G02*
X13775000Y-10900000I31819J31821D01*
G01*
X11700000Y-10690000D02*
X11300000Y-10690000D01*
X13190000Y-14285001D02*
X13164999Y-14285001D01*
X9835001Y-6214999D02*
G75*
G02*
X9945001Y-6324998I-1J-110001D01*
G01*
X9990399Y-13210398D02*
X11490398Y-11710398D01*
X17000000Y-12990000D02*
X17000000Y-14750000D01*
X14431820Y-7211820D02*
X12931821Y-8711819D01*
D11*
X17900000Y-15600000D02*
G75*
G02*
X17600000Y-15900000I-300000J0D01*
G01*
D10*
X10055000Y-13320002D02*
G75*
G02*
X10068180Y-13288180I45000J2D01*
G01*
X13340000Y-6065000D02*
G75*
G02*
X13190000Y-6215000I-150000J0D01*
G01*
D11*
X6900000Y-15900000D02*
G75*
G02*
X6600000Y-15600000I0J300000D01*
G01*
D10*
X13340000Y-5650000D02*
G75*
G02*
X13490000Y-5500000I150000J0D01*
G01*
X8214999Y-9690000D02*
X8214999Y-9664999D01*
X14555000Y-7180000D02*
G75*
G02*
X14509601Y-7289602I-155000J0D01*
G01*
X11310000Y-6214999D02*
X11335001Y-6214999D01*
X11990000Y-15000001D02*
G75*
G02*
X11839999Y-14850001I0J150001D01*
G01*
X13200000Y-12190000D02*
X12800000Y-12190000D01*
X11990000Y-5500000D02*
X12510000Y-5499999D01*
X13164999Y-14285001D02*
G75*
G02*
X13054999Y-14175001I1J110001D01*
G01*
X10711819Y-9568179D02*
G75*
G02*
X10725000Y-9600000I-31819J-31821D01*
G01*
X16850000Y-12840000D02*
X16435000Y-12840000D01*
X7650000Y-11340000D02*
X8065001Y-11340000D01*
X7499999Y-9990000D02*
X7500002Y-10510001D01*
X10055000Y-7180000D02*
X10055000Y-6325000D01*
X11810000Y-9700000D02*
G75*
G02*
X11700000Y-9810000I-110000J0D01*
G01*
X7650000Y-7660000D02*
G75*
G02*
X7500000Y-7510000I0J150000D01*
G01*
X12835001Y-6214999D02*
G75*
G02*
X12945001Y-6324998I-1J-110001D01*
G01*
X16850000Y-9840000D02*
G75*
G02*
X17000000Y-9990000I0J-150000D01*
G01*
X16850000Y-12840000D02*
G75*
G02*
X17000000Y-12990000I0J-150000D01*
G01*
X8215002Y-10810000D02*
X8215002Y-10835001D01*
X9179998Y-8054999D02*
X8324998Y-8054999D01*
X14445000Y-7179998D02*
G75*
G02*
X14431820Y-7211820I-45000J-2D01*
G01*
X13710398Y-11009602D02*
G75*
G02*
X13665000Y-10900000I109602J109602D01*
G01*
X15320000Y-12555000D02*
X16175000Y-12555000D01*
X16175000Y-11055000D02*
G75*
G02*
X16285000Y-11164999I0J-110000D01*
G01*
X13200000Y-9810000D02*
X12800000Y-9810000D01*
X13009602Y-8789602D02*
G75*
G02*
X12900000Y-8835000I-109602J109602D01*
G01*
X11300000Y-12190000D02*
X11700000Y-12190000D01*
X16285001Y-7810000D02*
X16285001Y-7835001D01*
X8215001Y-11190001D02*
G75*
G02*
X8065001Y-11340001I-150001J1D01*
G01*
X16850001Y-10660000D02*
X16435001Y-10660000D01*
X10340000Y-5650000D02*
X10340000Y-6065000D01*
X11300000Y-8310000D02*
X11700000Y-8310000D01*
X7500000Y-11490000D02*
G75*
G02*
X7650000Y-11340000I150000J0D01*
G01*
X10490000Y-5500000D02*
X11010000Y-5499999D01*
X9510000Y-5499999D02*
X7750000Y-5500000D01*
X7649999Y-8340000D02*
X8064999Y-8340000D01*
X10055000Y-6325000D02*
G75*
G02*
X10164999Y-6215000I110000J0D01*
G01*
X16850000Y-11340000D02*
G75*
G02*
X17000000Y-11490000I0J-150000D01*
G01*
X16175000Y-12555000D02*
G75*
G02*
X16285000Y-12664999I0J-110000D01*
G01*
X10054999Y-13320002D02*
X10054999Y-14175001D01*
X14445001Y-7179998D02*
X14445001Y-6324998D01*
X14990000Y-5500000D02*
X16750000Y-5500000D01*
X14509601Y-7289602D02*
X13009602Y-8789602D01*
X15320002Y-12445000D02*
G75*
G02*
X15288180Y-12431820I-2J45000D01*
G01*
X9211820Y-8068180D02*
X10711819Y-9568179D01*
D11*
X6600000Y-15600000D02*
X6600000Y-4900000D01*
D10*
X16285001Y-9310000D02*
X16285001Y-9335001D01*
X17000001Y-9010000D02*
G75*
G02*
X16850001Y-9160001I-150001J0D01*
G01*
X16285001Y-9335001D02*
G75*
G02*
X16175001Y-9445001I-110001J1D01*
G01*
X13200000Y-8310000D02*
X12800000Y-8310000D01*
X7499999Y-9990000D02*
G75*
G02*
X7649999Y-9839999I150001J0D01*
G01*
X14664999Y-14285001D02*
G75*
G02*
X14554999Y-14175001I1J110001D01*
G01*
X14310000Y-6214999D02*
G75*
G02*
X14160001Y-6064999I0J149999D01*
G01*
X11690000Y-14285001D02*
G75*
G02*
X11839999Y-14435001I0J-149999D01*
G01*
X14555000Y-7180000D02*
X14555000Y-6325000D01*
X10068180Y-13288180D02*
X11568179Y-11788181D01*
X7650002Y-10660001D02*
G75*
G02*
X7499999Y-10510001I-2J150001D01*
G01*
X14160000Y-14850000D02*
G75*
G02*
X14010000Y-15000000I-150000J0D01*
G01*
X14690000Y-6215000D02*
X14664999Y-6215000D01*
X16850000Y-9840000D02*
X16435000Y-9840000D01*
X7650000Y-9160000D02*
X8065000Y-9160000D01*
X14190000Y-7800000D02*
X14190000Y-8200000D01*
X12810000Y-14285000D02*
X12835001Y-14285000D01*
X16285001Y-7810000D02*
G75*
G02*
X16435001Y-7660001I149999J0D01*
G01*
X16850000Y-11340000D02*
X16435000Y-11340000D01*
X13190000Y-6215000D02*
X13164999Y-6215000D01*
X16285000Y-9690000D02*
X16285000Y-9664999D01*
X11840000Y-5650000D02*
X11840000Y-6065000D01*
X16850001Y-9160000D02*
X16435001Y-9160000D01*
X11840000Y-6065000D02*
G75*
G02*
X11690000Y-6215000I-150000J0D01*
G01*
X12810000Y-6214999D02*
G75*
G02*
X12660001Y-6064999I0J149999D01*
G01*
D13*
D14*
X6985000Y-8145000D02*
X7015000Y-8175000D01*
X7015000Y-8145000D02*
X6985000Y-8175000D01*
X6985000Y-9650000D02*
X7015000Y-9680000D01*
X7015000Y-9650000D02*
X6985000Y-9680000D01*
X6985000Y-11135000D02*
X7015000Y-11165000D01*
X7015000Y-11135000D02*
X6985000Y-11165000D01*
X6985000Y-12635000D02*
X7015000Y-12665000D01*
X7015000Y-12635000D02*
X6985000Y-12665000D01*
X7035000Y-8050000D02*
X7065000Y-8080000D01*
X7065000Y-8050000D02*
X7035000Y-8080000D01*
X7085000Y-9550000D02*
X7115000Y-9580000D01*
X7115000Y-9550000D02*
X7085000Y-9580000D01*
X7135000Y-11010000D02*
X7165000Y-11040000D01*
X7165000Y-11010000D02*
X7135000Y-11040000D01*
X7185000Y-12535000D02*
X7215000Y-12565000D01*
X7215000Y-12535000D02*
X7185000Y-12565000D01*
X7335000Y-7980000D02*
X7365000Y-8010000D01*
X7365000Y-7980000D02*
X7335000Y-8010000D01*
X7335000Y-9480000D02*
X7365000Y-9510000D01*
X7365000Y-9480000D02*
X7335000Y-9510000D01*
X7335000Y-10985000D02*
X7365000Y-11015000D01*
X7365000Y-10985000D02*
X7335000Y-11015000D01*
X7335000Y-12475000D02*
X7365000Y-12505000D01*
X7365000Y-12475000D02*
X7335000Y-12505000D01*
X7385000Y-7910000D02*
X7415000Y-7940000D01*
X7415000Y-7910000D02*
X7385000Y-7940000D01*
X7385000Y-9410000D02*
X7415000Y-9440000D01*
X7415000Y-9410000D02*
X7385000Y-9440000D01*
X7385000Y-10910000D02*
X7415000Y-10940000D01*
X7415000Y-10910000D02*
X7385000Y-10940000D01*
X7385000Y-12410000D02*
X7415000Y-12440000D01*
X7415000Y-12410000D02*
X7385000Y-12440000D01*
X7435000Y-7840000D02*
X7465000Y-7870000D01*
X7465000Y-7840000D02*
X7435000Y-7870000D01*
X7435000Y-9335000D02*
X7465000Y-9365000D01*
X7465000Y-9335000D02*
X7435000Y-9365000D01*
X7435000Y-10835000D02*
X7465000Y-10865000D01*
X7465000Y-10835000D02*
X7435000Y-10865000D01*
X7435000Y-12340000D02*
X7465000Y-12370000D01*
X7465000Y-12340000D02*
X7435000Y-12370000D01*
X7535000Y-7735000D02*
X7565000Y-7765000D01*
X7565000Y-7735000D02*
X7535000Y-7765000D01*
X7535000Y-9235000D02*
X7565000Y-9265000D01*
X7565000Y-9235000D02*
X7535000Y-9265000D01*
X7535000Y-12235000D02*
X7565000Y-12265000D01*
X7565000Y-12235000D02*
X7535000Y-12265000D01*
X7535001Y-10735001D02*
X7565001Y-10765001D01*
X7565001Y-10735001D02*
X7535001Y-10765001D01*
X7560000Y-8260000D02*
X7590000Y-8290000D01*
X7590000Y-8260000D02*
X7560000Y-8290000D01*
X7560000Y-9760000D02*
X7590000Y-9790000D01*
X7590000Y-9760000D02*
X7560000Y-9790000D01*
X7560000Y-12760000D02*
X7590000Y-12790000D01*
X7590000Y-12760000D02*
X7560000Y-12790000D01*
X7560001Y-11260001D02*
X7590001Y-11290001D01*
X7590001Y-11260001D02*
X7560001Y-11290001D01*
X7610000Y-7735000D02*
X7640000Y-7765000D01*
X7640000Y-7735000D02*
X7610000Y-7765000D01*
X7610000Y-9235000D02*
X7640000Y-9265000D01*
X7640000Y-9235000D02*
X7610000Y-9265000D01*
X7610000Y-12235000D02*
X7640000Y-12265000D01*
X7640000Y-12235000D02*
X7610000Y-12265000D01*
X7610001Y-10735001D02*
X7640001Y-10765001D01*
X7640001Y-10735001D02*
X7610001Y-10765001D01*
X7635000Y-8260000D02*
X7665000Y-8290000D01*
X7665000Y-8260000D02*
X7635000Y-8290000D01*
X7635000Y-9760000D02*
X7665000Y-9790000D01*
X7665000Y-9760000D02*
X7635000Y-9790000D01*
X7635000Y-12760000D02*
X7665000Y-12790000D01*
X7665000Y-12760000D02*
X7635000Y-12790000D01*
X7635001Y-11260001D02*
X7665001Y-11290001D01*
X7665001Y-11260001D02*
X7635001Y-11290001D01*
X7685000Y-7735000D02*
X7715000Y-7765000D01*
X7715000Y-7735000D02*
X7685000Y-7765000D01*
X7685000Y-9235000D02*
X7715000Y-9265000D01*
X7715000Y-9235000D02*
X7685000Y-9265000D01*
X7685000Y-12235000D02*
X7715000Y-12265000D01*
X7715000Y-12235000D02*
X7685000Y-12265000D01*
X7685001Y-10735001D02*
X7715001Y-10765001D01*
X7715001Y-10735001D02*
X7685001Y-10765001D01*
X7690000Y-7910000D02*
X7720000Y-7940000D01*
X7720000Y-7910000D02*
X7690000Y-7940000D01*
X7710000Y-8260000D02*
X7740000Y-8290000D01*
X7740000Y-8260000D02*
X7710000Y-8290000D01*
X7710000Y-9760000D02*
X7740000Y-9790000D01*
X7740000Y-9760000D02*
X7710000Y-9790000D01*
X7710000Y-12760000D02*
X7740000Y-12790000D01*
X7740000Y-12760000D02*
X7710000Y-12790000D01*
X7710001Y-11260001D02*
X7740001Y-11290001D01*
X7740001Y-11260001D02*
X7710001Y-11290001D01*
X7745000Y-10910000D02*
X7775000Y-10940000D01*
X7775000Y-10910000D02*
X7745000Y-10940000D01*
X7760000Y-7735000D02*
X7790000Y-7765000D01*
X7790000Y-7735000D02*
X7760000Y-7765000D01*
X7760000Y-9235000D02*
X7790000Y-9265000D01*
X7790000Y-9235000D02*
X7760000Y-9265000D01*
X7760000Y-12235000D02*
X7790000Y-12265000D01*
X7790000Y-12235000D02*
X7760000Y-12265000D01*
X7760001Y-10735001D02*
X7790001Y-10765001D01*
X7790001Y-10735001D02*
X7760001Y-10765001D01*
X7765000Y-12410000D02*
X7795000Y-12440000D01*
X7795000Y-12410000D02*
X7765000Y-12440000D01*
X7785000Y-8260000D02*
X7815000Y-8290000D01*
X7815000Y-8260000D02*
X7785000Y-8290000D01*
X7785000Y-9410000D02*
X7815000Y-9440000D01*
X7815000Y-9410000D02*
X7785000Y-9440000D01*
X7785000Y-9760000D02*
X7815000Y-9790000D01*
X7815000Y-9760000D02*
X7785000Y-9790000D01*
X7785000Y-12760000D02*
X7815000Y-12790000D01*
X7815000Y-12760000D02*
X7785000Y-12790000D01*
X7785001Y-11260001D02*
X7815001Y-11290001D01*
X7815001Y-11260001D02*
X7785001Y-11290001D01*
X7860000Y-12470000D02*
X7890000Y-12500000D01*
X7890000Y-12470000D02*
X7860000Y-12500000D01*
X7880000Y-10970000D02*
X7910000Y-11000000D01*
X7910000Y-10970000D02*
X7880000Y-11000000D01*
X7890000Y-9475000D02*
X7920000Y-9505000D01*
X7920000Y-9475000D02*
X7890000Y-9505000D01*
X7900000Y-7960000D02*
X7930000Y-7990000D01*
X7930000Y-7960000D02*
X7900000Y-7990000D01*
X7940000Y-11050001D02*
X7970000Y-11080001D01*
X7970000Y-11050001D02*
X7940000Y-11080001D01*
X7940000Y-12535000D02*
X7970000Y-12565000D01*
X7970000Y-12535000D02*
X7940000Y-12565000D01*
X7950000Y-9550000D02*
X7980000Y-9580000D01*
X7980000Y-9550000D02*
X7950000Y-9580000D01*
X7955000Y-8035000D02*
X7985000Y-8065000D01*
X7985000Y-8035000D02*
X7955000Y-8065000D01*
X8045000Y-8060000D02*
X8075000Y-8090000D01*
X8075000Y-8060000D02*
X8045000Y-8090000D01*
X8045000Y-9560000D02*
X8075000Y-9590000D01*
X8075000Y-9560000D02*
X8045000Y-9590000D01*
X8045000Y-9645000D02*
X8075000Y-9675000D01*
X8075000Y-9645000D02*
X8045000Y-9675000D01*
X8045000Y-12560000D02*
X8075000Y-12590000D01*
X8075000Y-12560000D02*
X8045000Y-12590000D01*
X8045001Y-11060001D02*
X8075001Y-11090001D01*
X8075001Y-11060001D02*
X8045001Y-11090001D01*
X8050000Y-11135000D02*
X8080000Y-11165000D01*
X8080000Y-11135000D02*
X8050000Y-11165000D01*
X8055000Y-8135000D02*
X8085000Y-8165000D01*
X8085000Y-8135000D02*
X8055000Y-8165000D01*
X8055000Y-12640000D02*
X8085000Y-12670000D01*
X8085000Y-12640000D02*
X8055000Y-12670000D01*
X8070000Y-7790000D02*
X8100000Y-7820000D01*
X8100000Y-7790000D02*
X8070000Y-7820000D01*
X8070000Y-9290000D02*
X8100000Y-9320000D01*
X8100000Y-9290000D02*
X8070000Y-9320000D01*
X8070000Y-12290000D02*
X8100000Y-12320000D01*
X8100000Y-12290000D02*
X8070000Y-12320000D01*
X8070001Y-10790001D02*
X8100001Y-10820001D01*
X8100001Y-10790001D02*
X8070001Y-10820001D01*
X9710000Y-5560000D02*
X9740000Y-5590000D01*
X9740000Y-5560000D02*
X9710000Y-5590000D01*
X9710000Y-5635000D02*
X9740000Y-5665000D01*
X9740000Y-5635000D02*
X9710000Y-5665000D01*
X9710000Y-5710000D02*
X9740000Y-5740000D01*
X9740000Y-5710000D02*
X9710000Y-5740000D01*
X9710000Y-5785000D02*
X9740000Y-5815000D01*
X9740000Y-5785000D02*
X9710000Y-5815000D01*
X9735000Y-14710000D02*
X9765000Y-14740000D01*
X9765000Y-14710000D02*
X9735000Y-14740000D01*
X9735000Y-14785000D02*
X9765000Y-14815000D01*
X9765000Y-14785000D02*
X9735000Y-14815000D01*
X9735000Y-14860000D02*
X9765000Y-14890000D01*
X9765000Y-14860000D02*
X9735000Y-14890000D01*
X9735000Y-14935000D02*
X9765000Y-14965000D01*
X9765000Y-14935000D02*
X9735000Y-14965000D01*
X9785000Y-7785000D02*
X9815000Y-7815000D01*
X9815000Y-7785000D02*
X9785000Y-7815000D01*
X9785000Y-8185000D02*
X9815000Y-8215000D01*
X9815000Y-8185000D02*
X9785000Y-8215000D01*
X9785000Y-9285000D02*
X9815000Y-9315000D01*
X9815000Y-9285000D02*
X9785000Y-9315000D01*
X9785000Y-9685000D02*
X9815000Y-9715000D01*
X9815000Y-9685000D02*
X9785000Y-9715000D01*
X9785000Y-10785000D02*
X9815000Y-10815000D01*
X9815000Y-10785000D02*
X9785000Y-10815000D01*
X9785000Y-11185000D02*
X9815000Y-11215000D01*
X9815000Y-11185000D02*
X9785000Y-11215000D01*
X9785000Y-12285000D02*
X9815000Y-12315000D01*
X9815000Y-12285000D02*
X9785000Y-12315000D01*
X9785000Y-12685000D02*
X9815000Y-12715000D01*
X9815000Y-12685000D02*
X9785000Y-12715000D01*
X9790000Y-14400000D02*
X9820000Y-14430000D01*
X9820000Y-14400000D02*
X9790000Y-14430000D01*
X9830000Y-15035000D02*
X9860000Y-15065000D01*
X9860000Y-15035000D02*
X9830000Y-15065000D01*
X9835000Y-4881000D02*
X9865000Y-4911000D01*
X9865000Y-4881000D02*
X9835000Y-4911000D01*
X9835000Y-6055000D02*
X9865000Y-6085000D01*
X9865000Y-6055000D02*
X9835000Y-6085000D01*
X9910000Y-6045000D02*
X9940000Y-6075000D01*
X9940000Y-6045000D02*
X9910000Y-6075000D01*
X9910000Y-14625000D02*
X9940000Y-14655000D01*
X9940000Y-14625000D02*
X9910000Y-14655000D01*
X9910000Y-15085000D02*
X9940000Y-15115000D01*
X9940000Y-15085000D02*
X9910000Y-15115000D01*
X9932000Y-8034000D02*
X9962000Y-8064000D01*
X9962000Y-8034000D02*
X9932000Y-8064000D01*
X9935000Y-9440000D02*
X9965000Y-9470000D01*
X9965000Y-9440000D02*
X9935000Y-9470000D01*
X9935000Y-10940000D02*
X9965000Y-10970000D01*
X9965000Y-10940000D02*
X9935000Y-10970000D01*
X9935000Y-12440000D02*
X9965000Y-12470000D01*
X9965000Y-12440000D02*
X9935000Y-12470000D01*
X9950000Y-5135000D02*
X9980000Y-5165000D01*
X9980000Y-5135000D02*
X9950000Y-5165000D01*
X9950000Y-5935000D02*
X9980000Y-5965000D01*
X9980000Y-5935000D02*
X9950000Y-5965000D01*
X9960000Y-14545000D02*
X9990000Y-14575000D01*
X9990000Y-14545000D02*
X9960000Y-14575000D01*
X9960000Y-15135000D02*
X9990000Y-15165000D01*
X9990000Y-15135000D02*
X9960000Y-15165000D01*
X9980000Y-9484000D02*
X10010000Y-9514000D01*
X10010000Y-9484000D02*
X9980000Y-9514000D01*
X9980000Y-10984000D02*
X10010000Y-11014000D01*
X10010000Y-10984000D02*
X9980000Y-11014000D01*
X9980000Y-12484000D02*
X10010000Y-12514000D01*
X10010000Y-12484000D02*
X9980000Y-12514000D01*
X9986000Y-7980000D02*
X10016000Y-8010000D01*
X10016000Y-7980000D02*
X9986000Y-8010000D01*
X10000000Y-5335000D02*
X10030000Y-5365000D01*
X10030000Y-5335000D02*
X10000000Y-5365000D01*
X10010000Y-5865000D02*
X10040000Y-5895000D01*
X10040000Y-5865000D02*
X10010000Y-5895000D01*
X10010000Y-14625000D02*
X10040000Y-14655000D01*
X10040000Y-14625000D02*
X10010000Y-14655000D01*
X10010000Y-15235000D02*
X10040000Y-15265000D01*
X10040000Y-15235000D02*
X10010000Y-15265000D01*
X10030000Y-7935000D02*
X10060000Y-7965000D01*
X10060000Y-7935000D02*
X10030000Y-7965000D01*
X10034000Y-9538000D02*
X10064000Y-9568000D01*
X10064000Y-9538000D02*
X10034000Y-9568000D01*
X10034000Y-11038000D02*
X10064000Y-11068000D01*
X10064000Y-11038000D02*
X10034000Y-11068000D01*
X10034000Y-12538000D02*
X10064000Y-12568000D01*
X10064000Y-12538000D02*
X10034000Y-12568000D01*
X10060000Y-5385000D02*
X10090000Y-5415000D01*
X10090000Y-5385000D02*
X10060000Y-5415000D01*
X10060000Y-5795000D02*
X10090000Y-5825000D01*
X10090000Y-5795000D02*
X10060000Y-5825000D01*
X10060000Y-14425000D02*
X10090000Y-14455000D01*
X10090000Y-14425000D02*
X10060000Y-14455000D01*
X10075000Y-8255000D02*
X10105000Y-8285000D01*
X10105000Y-8255000D02*
X10075000Y-8285000D01*
X10110000Y-14490000D02*
X10140000Y-14520000D01*
X10140000Y-14490000D02*
X10110000Y-14520000D01*
X10115000Y-15280000D02*
X10145000Y-15310000D01*
X10145000Y-15280000D02*
X10115000Y-15310000D01*
X10125000Y-5435000D02*
X10155000Y-5465000D01*
X10155000Y-5435000D02*
X10125000Y-5465000D01*
X10180000Y-6070000D02*
X10210000Y-6100000D01*
X10210000Y-6070000D02*
X10180000Y-6100000D01*
X10185000Y-9685000D02*
X10215000Y-9715000D01*
X10215000Y-9685000D02*
X10185000Y-9715000D01*
X10185000Y-11185000D02*
X10215000Y-11215000D01*
X10215000Y-11185000D02*
X10185000Y-11215000D01*
X10185000Y-12685000D02*
X10215000Y-12715000D01*
X10215000Y-12685000D02*
X10185000Y-12715000D01*
X10185000Y-7785000D02*
X10215000Y-7815000D01*
X10215000Y-7785000D02*
X10185000Y-7815000D01*
X10185000Y-8185000D02*
X10215000Y-8215000D01*
X10215000Y-8185000D02*
X10185000Y-8215000D01*
X10185000Y-9285000D02*
X10215000Y-9315000D01*
X10215000Y-9285000D02*
X10185000Y-9315000D01*
X10185000Y-10785000D02*
X10215000Y-10815000D01*
X10215000Y-10785000D02*
X10185000Y-10815000D01*
X10185000Y-12285000D02*
X10215000Y-12315000D01*
X10215000Y-12285000D02*
X10185000Y-12315000D01*
X10235000Y-5535000D02*
X10265000Y-5565000D01*
X10265000Y-5535000D02*
X10235000Y-5565000D01*
X10235000Y-5610000D02*
X10265000Y-5640000D01*
X10265000Y-5610000D02*
X10235000Y-5640000D01*
X10235000Y-5685000D02*
X10265000Y-5715000D01*
X10265000Y-5685000D02*
X10235000Y-5715000D01*
X10235000Y-5760000D02*
X10265000Y-5790000D01*
X10265000Y-5760000D02*
X10235000Y-5790000D01*
X10255000Y-9375000D02*
X10285000Y-9405000D01*
X10285000Y-9375000D02*
X10255000Y-9405000D01*
X10255000Y-10875000D02*
X10285000Y-10905000D01*
X10285000Y-10875000D02*
X10255000Y-10905000D01*
X10255000Y-12375000D02*
X10285000Y-12405000D01*
X10285000Y-12375000D02*
X10255000Y-12405000D01*
X10260000Y-14685000D02*
X10290000Y-14715000D01*
X10290000Y-14685000D02*
X10260000Y-14715000D01*
X10260000Y-14760000D02*
X10290000Y-14790000D01*
X10290000Y-14760000D02*
X10260000Y-14790000D01*
X10260000Y-14835000D02*
X10290000Y-14865000D01*
X10290000Y-14835000D02*
X10260000Y-14865000D01*
X10260000Y-14910000D02*
X10290000Y-14940000D01*
X10290000Y-14910000D02*
X10260000Y-14940000D01*
X10810000Y-4881000D02*
X10840000Y-4911000D01*
X10840000Y-4881000D02*
X10810000Y-4911000D01*
X11127000Y-5198000D02*
X11157000Y-5228000D01*
X11157000Y-5198000D02*
X11127000Y-5228000D01*
X11210000Y-5560000D02*
X11240000Y-5590000D01*
X11240000Y-5560000D02*
X11210000Y-5590000D01*
X11210000Y-5635000D02*
X11240000Y-5665000D01*
X11240000Y-5635000D02*
X11210000Y-5665000D01*
X11210000Y-5710000D02*
X11240000Y-5740000D01*
X11240000Y-5710000D02*
X11210000Y-5740000D01*
X11210000Y-5785000D02*
X11240000Y-5815000D01*
X11240000Y-5785000D02*
X11210000Y-5815000D01*
X11235000Y-14710000D02*
X11265000Y-14740000D01*
X11265000Y-14710000D02*
X11235000Y-14740000D01*
X11235000Y-14785000D02*
X11265000Y-14815000D01*
X11265000Y-14785000D02*
X11235000Y-14815000D01*
X11235000Y-14860000D02*
X11265000Y-14890000D01*
X11265000Y-14860000D02*
X11235000Y-14890000D01*
X11235000Y-14935000D02*
X11265000Y-14965000D01*
X11265000Y-14935000D02*
X11235000Y-14965000D01*
X11285000Y-7785000D02*
X11315000Y-7815000D01*
X11315000Y-7785000D02*
X11285000Y-7815000D01*
X11285000Y-8185000D02*
X11315000Y-8215000D01*
X11315000Y-8185000D02*
X11285000Y-8215000D01*
X11285000Y-9285000D02*
X11315000Y-9315000D01*
X11315000Y-9285000D02*
X11285000Y-9315000D01*
X11285000Y-9685000D02*
X11315000Y-9715000D01*
X11315000Y-9685000D02*
X11285000Y-9715000D01*
X11285000Y-10785000D02*
X11315000Y-10815000D01*
X11315000Y-10785000D02*
X11285000Y-10815000D01*
X11285000Y-11185000D02*
X11315000Y-11215000D01*
X11315000Y-11185000D02*
X11285000Y-11215000D01*
X11285000Y-12285000D02*
X11315000Y-12315000D01*
X11315000Y-12285000D02*
X11285000Y-12315000D01*
X11285000Y-12685000D02*
X11315000Y-12715000D01*
X11315000Y-12685000D02*
X11285000Y-12715000D01*
X11290000Y-14400000D02*
X11320000Y-14430000D01*
X11320000Y-14400000D02*
X11290000Y-14430000D01*
X11345000Y-4980000D02*
X11375000Y-5010000D01*
X11375000Y-4980000D02*
X11345000Y-5010000D01*
X11345000Y-6060000D02*
X11375000Y-6090000D01*
X11375000Y-6060000D02*
X11345000Y-6090000D01*
X11350000Y-14915000D02*
X11380000Y-14945000D01*
X11380000Y-14915000D02*
X11350000Y-14945000D01*
X11375000Y-10715000D02*
X11405000Y-10745000D01*
X11405000Y-10715000D02*
X11375000Y-10745000D01*
X11375000Y-12215000D02*
X11405000Y-12245000D01*
X11405000Y-12215000D02*
X11375000Y-12245000D01*
X11405000Y-5945000D02*
X11435000Y-5975000D01*
X11435000Y-5945000D02*
X11405000Y-5975000D01*
X11410000Y-6045000D02*
X11440000Y-6075000D01*
X11440000Y-6045000D02*
X11410000Y-6075000D01*
X11432000Y-8028000D02*
X11462000Y-8058000D01*
X11462000Y-8028000D02*
X11432000Y-8058000D01*
X11435000Y-9440000D02*
X11465000Y-9470000D01*
X11465000Y-9440000D02*
X11435000Y-9470000D01*
X11440000Y-11035000D02*
X11470000Y-11065000D01*
X11470000Y-11035000D02*
X11440000Y-11065000D01*
X11440000Y-12535000D02*
X11470000Y-12565000D01*
X11470000Y-12535000D02*
X11440000Y-12565000D01*
X11475000Y-5335000D02*
X11505000Y-5365000D01*
X11505000Y-5335000D02*
X11475000Y-5365000D01*
X11480000Y-9484000D02*
X11510000Y-9514000D01*
X11510000Y-9484000D02*
X11480000Y-9514000D01*
X11484000Y-10990000D02*
X11514000Y-11020000D01*
X11514000Y-10990000D02*
X11484000Y-11020000D01*
X11484000Y-12490000D02*
X11514000Y-12520000D01*
X11514000Y-12490000D02*
X11484000Y-12520000D01*
X11498000Y-7988000D02*
X11528000Y-8018000D01*
X11528000Y-7988000D02*
X11498000Y-8018000D01*
X11500000Y-5915000D02*
X11530000Y-5945000D01*
X11530000Y-5915000D02*
X11500000Y-5945000D01*
X11530000Y-7935000D02*
X11560000Y-7965000D01*
X11560000Y-7935000D02*
X11530000Y-7965000D01*
X11534000Y-9538000D02*
X11564000Y-9568000D01*
X11564000Y-9538000D02*
X11534000Y-9568000D01*
X11538000Y-10936000D02*
X11568000Y-10966000D01*
X11568000Y-10936000D02*
X11538000Y-10966000D01*
X11538000Y-12436000D02*
X11568000Y-12466000D01*
X11568000Y-12436000D02*
X11538000Y-12466000D01*
X11560000Y-5385000D02*
X11590000Y-5415000D01*
X11590000Y-5385000D02*
X11560000Y-5415000D01*
X11560000Y-5845000D02*
X11590000Y-5875000D01*
X11590000Y-5845000D02*
X11560000Y-5875000D01*
X11560000Y-14425000D02*
X11590000Y-14455000D01*
X11590000Y-14425000D02*
X11560000Y-14455000D01*
X11575000Y-8255000D02*
X11605000Y-8285000D01*
X11605000Y-8255000D02*
X11575000Y-8285000D01*
X11600000Y-5210000D02*
X11630000Y-5240000D01*
X11630000Y-5210000D02*
X11600000Y-5240000D01*
X11635000Y-5435000D02*
X11665000Y-5465000D01*
X11665000Y-5435000D02*
X11635000Y-5465000D01*
X11667500Y-14377500D02*
X11697500Y-14407500D01*
X11697500Y-14377500D02*
X11667500Y-14407500D01*
X11680000Y-6070000D02*
X11710000Y-6100000D01*
X11710000Y-6070000D02*
X11680000Y-6100000D01*
X11685000Y-10785000D02*
X11715000Y-10815000D01*
X11715000Y-10785000D02*
X11685000Y-10815000D01*
X11685000Y-12285000D02*
X11715000Y-12315000D01*
X11715000Y-12285000D02*
X11685000Y-12315000D01*
X11685000Y-9685000D02*
X11715000Y-9715000D01*
X11715000Y-9685000D02*
X11685000Y-9715000D01*
X11685000Y-7785000D02*
X11715000Y-7815000D01*
X11715000Y-7785000D02*
X11685000Y-7815000D01*
X11685000Y-8185000D02*
X11715000Y-8215000D01*
X11715000Y-8185000D02*
X11685000Y-8215000D01*
X11685000Y-9285000D02*
X11715000Y-9315000D01*
X11715000Y-9285000D02*
X11685000Y-9315000D01*
X11685000Y-11185000D02*
X11715000Y-11215000D01*
X11715000Y-11185000D02*
X11685000Y-11215000D01*
X11685000Y-12685000D02*
X11715000Y-12715000D01*
X11715000Y-12685000D02*
X11685000Y-12715000D01*
X11735000Y-5535000D02*
X11765000Y-5565000D01*
X11765000Y-5535000D02*
X11735000Y-5565000D01*
X11735000Y-5610000D02*
X11765000Y-5640000D01*
X11765000Y-5610000D02*
X11735000Y-5640000D01*
X11735000Y-5685000D02*
X11765000Y-5715000D01*
X11765000Y-5685000D02*
X11735000Y-5715000D01*
X11735000Y-5760000D02*
X11765000Y-5790000D01*
X11765000Y-5760000D02*
X11735000Y-5790000D01*
X11755000Y-9375000D02*
X11785000Y-9405000D01*
X11785000Y-9375000D02*
X11755000Y-9405000D01*
X11760000Y-14685000D02*
X11790000Y-14715000D01*
X11790000Y-14685000D02*
X11760000Y-14715000D01*
X11760000Y-14760000D02*
X11790000Y-14790000D01*
X11790000Y-14760000D02*
X11760000Y-14790000D01*
X11760000Y-14835000D02*
X11790000Y-14865000D01*
X11790000Y-14835000D02*
X11760000Y-14865000D01*
X11760000Y-14910000D02*
X11790000Y-14940000D01*
X11790000Y-14910000D02*
X11760000Y-14940000D01*
X11810000Y-5095000D02*
X11840000Y-5125000D01*
X11840000Y-5095000D02*
X11810000Y-5125000D01*
X11875000Y-5095000D02*
X11905000Y-5125000D01*
X11905000Y-5095000D02*
X11875000Y-5125000D01*
X11875000Y-5385000D02*
X11905000Y-5415000D01*
X11905000Y-5385000D02*
X11875000Y-5415000D01*
X12315000Y-4970000D02*
X12345000Y-5000000D01*
X12345000Y-4970000D02*
X12315000Y-5000000D01*
X12360000Y-5035000D02*
X12390000Y-5065000D01*
X12390000Y-5035000D02*
X12360000Y-5065000D01*
X12710000Y-5560000D02*
X12740000Y-5590000D01*
X12740000Y-5560000D02*
X12710000Y-5590000D01*
X12710000Y-5635000D02*
X12740000Y-5665000D01*
X12740000Y-5635000D02*
X12710000Y-5665000D01*
X12710000Y-5710000D02*
X12740000Y-5740000D01*
X12740000Y-5710000D02*
X12710000Y-5740000D01*
X12710000Y-5785000D02*
X12740000Y-5815000D01*
X12740000Y-5785000D02*
X12710000Y-5815000D01*
X12715000Y-11095000D02*
X12745000Y-11125000D01*
X12745000Y-11095000D02*
X12715000Y-11125000D01*
X12735000Y-14710000D02*
X12765000Y-14740000D01*
X12765000Y-14710000D02*
X12735000Y-14740000D01*
X12735000Y-14785000D02*
X12765000Y-14815000D01*
X12765000Y-14785000D02*
X12735000Y-14815000D01*
X12735000Y-14860000D02*
X12765000Y-14890000D01*
X12765000Y-14860000D02*
X12735000Y-14890000D01*
X12735000Y-14935000D02*
X12765000Y-14965000D01*
X12765000Y-14935000D02*
X12735000Y-14965000D01*
X12785000Y-7785000D02*
X12815000Y-7815000D01*
X12815000Y-7785000D02*
X12785000Y-7815000D01*
X12785000Y-8185000D02*
X12815000Y-8215000D01*
X12815000Y-8185000D02*
X12785000Y-8215000D01*
X12785000Y-9285000D02*
X12815000Y-9315000D01*
X12815000Y-9285000D02*
X12785000Y-9315000D01*
X12785000Y-11185000D02*
X12815000Y-11215000D01*
X12815000Y-11185000D02*
X12785000Y-11215000D01*
X12785000Y-12285000D02*
X12815000Y-12315000D01*
X12815000Y-12285000D02*
X12785000Y-12315000D01*
X12785000Y-12685000D02*
X12815000Y-12715000D01*
X12815000Y-12685000D02*
X12785000Y-12715000D01*
X12785000Y-9685000D02*
X12815000Y-9715000D01*
X12815000Y-9685000D02*
X12785000Y-9715000D01*
X12785000Y-10785000D02*
X12815000Y-10815000D01*
X12815000Y-10785000D02*
X12785000Y-10815000D01*
X12790000Y-14400000D02*
X12820000Y-14430000D01*
X12820000Y-14400000D02*
X12790000Y-14430000D01*
X12835000Y-6040000D02*
X12865000Y-6070000D01*
X12865000Y-6040000D02*
X12835000Y-6070000D01*
X12860000Y-5210000D02*
X12890000Y-5240000D01*
X12890000Y-5210000D02*
X12860000Y-5240000D01*
X12865000Y-12215000D02*
X12895000Y-12245000D01*
X12895000Y-12215000D02*
X12865000Y-12245000D01*
X12910000Y-5935000D02*
X12940000Y-5965000D01*
X12940000Y-5935000D02*
X12910000Y-5965000D01*
X12910000Y-6045000D02*
X12940000Y-6075000D01*
X12940000Y-6045000D02*
X12910000Y-6075000D01*
X12910000Y-14595000D02*
X12940000Y-14625000D01*
X12940000Y-14595000D02*
X12910000Y-14625000D01*
X12915000Y-15085000D02*
X12945000Y-15115000D01*
X12945000Y-15085000D02*
X12915000Y-15115000D01*
X12932000Y-8034000D02*
X12962000Y-8064000D01*
X12962000Y-8034000D02*
X12932000Y-8064000D01*
X12932000Y-9534000D02*
X12962000Y-9564000D01*
X12962000Y-9534000D02*
X12932000Y-9564000D01*
X12936000Y-10932000D02*
X12966000Y-10962000D01*
X12966000Y-10932000D02*
X12936000Y-10962000D01*
X12940000Y-12535000D02*
X12970000Y-12565000D01*
X12970000Y-12535000D02*
X12940000Y-12565000D01*
X12960000Y-15135000D02*
X12990000Y-15165000D01*
X12990000Y-15135000D02*
X12960000Y-15165000D01*
X12960000Y-14545000D02*
X12990000Y-14575000D01*
X12990000Y-14545000D02*
X12960000Y-14575000D01*
X12984000Y-12490000D02*
X13014000Y-12520000D01*
X13014000Y-12490000D02*
X12984000Y-12520000D01*
X12985000Y-5335000D02*
X13015000Y-5365000D01*
X13015000Y-5335000D02*
X12985000Y-5365000D01*
X12986000Y-7980000D02*
X13016000Y-8010000D01*
X13016000Y-7980000D02*
X12986000Y-8010000D01*
X12986000Y-9480000D02*
X13016000Y-9510000D01*
X13016000Y-9480000D02*
X12986000Y-9510000D01*
X12990000Y-10986000D02*
X13020000Y-11016000D01*
X13020000Y-10986000D02*
X12990000Y-11016000D01*
X13000000Y-5900000D02*
X13030000Y-5930000D01*
X13030000Y-5900000D02*
X13000000Y-5930000D01*
X13005000Y-15185000D02*
X13035000Y-15215000D01*
X13035000Y-15185000D02*
X13005000Y-15215000D01*
X13010000Y-14475000D02*
X13040000Y-14505000D01*
X13040000Y-14475000D02*
X13010000Y-14505000D01*
X13030000Y-7935000D02*
X13060000Y-7965000D01*
X13060000Y-7935000D02*
X13030000Y-7965000D01*
X13030000Y-9435000D02*
X13060000Y-9465000D01*
X13060000Y-9435000D02*
X13030000Y-9465000D01*
X13035000Y-11030000D02*
X13065000Y-11060000D01*
X13065000Y-11030000D02*
X13035000Y-11060000D01*
X13038000Y-12436000D02*
X13068000Y-12466000D01*
X13068000Y-12436000D02*
X13038000Y-12466000D01*
X13060000Y-5385000D02*
X13090000Y-5415000D01*
X13090000Y-5385000D02*
X13060000Y-5415000D01*
X13060000Y-5825000D02*
X13090000Y-5855000D01*
X13090000Y-5825000D02*
X13060000Y-5855000D01*
X13060000Y-14545000D02*
X13090000Y-14575000D01*
X13090000Y-14545000D02*
X13060000Y-14575000D01*
X13085000Y-8255000D02*
X13115000Y-8285000D01*
X13115000Y-8255000D02*
X13085000Y-8285000D01*
X13095000Y-9755000D02*
X13125000Y-9785000D01*
X13125000Y-9755000D02*
X13095000Y-9785000D01*
X13110000Y-14475000D02*
X13140000Y-14505000D01*
X13140000Y-14475000D02*
X13110000Y-14505000D01*
X13130000Y-5435000D02*
X13160000Y-5465000D01*
X13160000Y-5435000D02*
X13130000Y-5465000D01*
X13160000Y-4955000D02*
X13190000Y-4985000D01*
X13190000Y-4955000D02*
X13160000Y-4985000D01*
X13180000Y-6070000D02*
X13210000Y-6100000D01*
X13210000Y-6070000D02*
X13180000Y-6100000D01*
X13185000Y-12285000D02*
X13215000Y-12315000D01*
X13215000Y-12285000D02*
X13185000Y-12315000D01*
X13185000Y-7785000D02*
X13215000Y-7815000D01*
X13215000Y-7785000D02*
X13185000Y-7815000D01*
X13185000Y-8185000D02*
X13215000Y-8215000D01*
X13215000Y-8185000D02*
X13185000Y-8215000D01*
X13185000Y-9285000D02*
X13215000Y-9315000D01*
X13215000Y-9285000D02*
X13185000Y-9315000D01*
X13185000Y-9685000D02*
X13215000Y-9715000D01*
X13215000Y-9685000D02*
X13185000Y-9715000D01*
X13185000Y-10785000D02*
X13215000Y-10815000D01*
X13215000Y-10785000D02*
X13185000Y-10815000D01*
X13185000Y-11185000D02*
X13215000Y-11215000D01*
X13215000Y-11185000D02*
X13185000Y-11215000D01*
X13185000Y-12685000D02*
X13215000Y-12715000D01*
X13215000Y-12685000D02*
X13185000Y-12715000D01*
X13235000Y-5535000D02*
X13265000Y-5565000D01*
X13265000Y-5535000D02*
X13235000Y-5565000D01*
X13235000Y-5610000D02*
X13265000Y-5640000D01*
X13265000Y-5610000D02*
X13235000Y-5640000D01*
X13235000Y-5685000D02*
X13265000Y-5715000D01*
X13265000Y-5685000D02*
X13235000Y-5715000D01*
X13235000Y-5760000D02*
X13265000Y-5790000D01*
X13265000Y-5760000D02*
X13235000Y-5790000D01*
X13235000Y-15285000D02*
X13265000Y-15315000D01*
X13265000Y-15285000D02*
X13235000Y-15315000D01*
X13260000Y-14685000D02*
X13290000Y-14715000D01*
X13290000Y-14685000D02*
X13260000Y-14715000D01*
X13260000Y-14760000D02*
X13290000Y-14790000D01*
X13290000Y-14760000D02*
X13260000Y-14790000D01*
X13260000Y-14835000D02*
X13290000Y-14865000D01*
X13290000Y-14835000D02*
X13260000Y-14865000D01*
X13260000Y-14910000D02*
X13290000Y-14940000D01*
X13290000Y-14910000D02*
X13260000Y-14940000D01*
X14135000Y-4705000D02*
X14165000Y-4735000D01*
X14165000Y-4705000D02*
X14135000Y-4735000D01*
X14210000Y-5560000D02*
X14240000Y-5590000D01*
X14240000Y-5560000D02*
X14210000Y-5590000D01*
X14210000Y-5635000D02*
X14240000Y-5665000D01*
X14240000Y-5635000D02*
X14210000Y-5665000D01*
X14210000Y-5710000D02*
X14240000Y-5740000D01*
X14240000Y-5710000D02*
X14210000Y-5740000D01*
X14210000Y-5785000D02*
X14240000Y-5815000D01*
X14240000Y-5785000D02*
X14210000Y-5815000D01*
X14215000Y-8095000D02*
X14245000Y-8125000D01*
X14245000Y-8095000D02*
X14215000Y-8125000D01*
X14215000Y-9595000D02*
X14245000Y-9625000D01*
X14245000Y-9595000D02*
X14215000Y-9625000D01*
X14215000Y-11095000D02*
X14245000Y-11125000D01*
X14245000Y-11095000D02*
X14215000Y-11125000D01*
X14235000Y-14710000D02*
X14265000Y-14740000D01*
X14265000Y-14710000D02*
X14235000Y-14740000D01*
X14235000Y-14785000D02*
X14265000Y-14815000D01*
X14265000Y-14785000D02*
X14235000Y-14815000D01*
X14235000Y-14860000D02*
X14265000Y-14890000D01*
X14265000Y-14860000D02*
X14235000Y-14890000D01*
X14235000Y-14935000D02*
X14265000Y-14965000D01*
X14265000Y-14935000D02*
X14235000Y-14965000D01*
X14285000Y-7785000D02*
X14315000Y-7815000D01*
X14315000Y-7785000D02*
X14285000Y-7815000D01*
X14285000Y-8185000D02*
X14315000Y-8215000D01*
X14315000Y-8185000D02*
X14285000Y-8215000D01*
X14285000Y-9685000D02*
X14315000Y-9715000D01*
X14315000Y-9685000D02*
X14285000Y-9715000D01*
X14285000Y-11185000D02*
X14315000Y-11215000D01*
X14315000Y-11185000D02*
X14285000Y-11215000D01*
X14285000Y-12285000D02*
X14315000Y-12315000D01*
X14315000Y-12285000D02*
X14285000Y-12315000D01*
X14285000Y-12685000D02*
X14315000Y-12715000D01*
X14315000Y-12685000D02*
X14285000Y-12715000D01*
X14285000Y-9285000D02*
X14315000Y-9315000D01*
X14315000Y-9285000D02*
X14285000Y-9315000D01*
X14285000Y-10785000D02*
X14315000Y-10815000D01*
X14315000Y-10785000D02*
X14285000Y-10815000D01*
X14290000Y-14400000D02*
X14320000Y-14430000D01*
X14320000Y-14400000D02*
X14290000Y-14430000D01*
X14335000Y-6040000D02*
X14365000Y-6070000D01*
X14365000Y-6040000D02*
X14335000Y-6070000D01*
X14335000Y-15035000D02*
X14365000Y-15065000D01*
X14365000Y-15035000D02*
X14335000Y-15065000D01*
X14375000Y-12215000D02*
X14405000Y-12245000D01*
X14405000Y-12215000D02*
X14375000Y-12245000D01*
X14410000Y-6045000D02*
X14440000Y-6075000D01*
X14440000Y-6045000D02*
X14410000Y-6075000D01*
X14410000Y-14635000D02*
X14440000Y-14665000D01*
X14440000Y-14635000D02*
X14410000Y-14665000D01*
X14410000Y-15085000D02*
X14440000Y-15115000D01*
X14440000Y-15085000D02*
X14410000Y-15115000D01*
X14420000Y-5230000D02*
X14450000Y-5260000D01*
X14450000Y-5230000D02*
X14420000Y-5260000D01*
X14422000Y-5925000D02*
X14452000Y-5955000D01*
X14452000Y-5925000D02*
X14422000Y-5955000D01*
X14436000Y-7932000D02*
X14466000Y-7962000D01*
X14466000Y-7932000D02*
X14436000Y-7962000D01*
X14436000Y-9432000D02*
X14466000Y-9462000D01*
X14466000Y-9432000D02*
X14436000Y-9462000D01*
X14436000Y-10932000D02*
X14466000Y-10962000D01*
X14466000Y-10932000D02*
X14436000Y-10962000D01*
X14440000Y-12535000D02*
X14470000Y-12565000D01*
X14470000Y-12535000D02*
X14440000Y-12565000D01*
X14460000Y-14555000D02*
X14490000Y-14585000D01*
X14490000Y-14555000D02*
X14460000Y-14585000D01*
X14484000Y-12490000D02*
X14514000Y-12520000D01*
X14514000Y-12490000D02*
X14484000Y-12520000D01*
X14485000Y-5335000D02*
X14515000Y-5365000D01*
X14515000Y-5335000D02*
X14485000Y-5365000D01*
X14490000Y-7986000D02*
X14520000Y-8016000D01*
X14520000Y-7986000D02*
X14490000Y-8016000D01*
X14490000Y-9486000D02*
X14520000Y-9516000D01*
X14520000Y-9486000D02*
X14490000Y-9516000D01*
X14490000Y-10986000D02*
X14520000Y-11016000D01*
X14520000Y-10986000D02*
X14490000Y-11016000D01*
X14490000Y-15135000D02*
X14520000Y-15165000D01*
X14520000Y-15135000D02*
X14490000Y-15165000D01*
X14500000Y-5865000D02*
X14530000Y-5895000D01*
X14530000Y-5865000D02*
X14500000Y-5895000D01*
X14535000Y-8030000D02*
X14565000Y-8060000D01*
X14565000Y-8030000D02*
X14535000Y-8060000D01*
X14535000Y-9530000D02*
X14565000Y-9560000D01*
X14565000Y-9530000D02*
X14535000Y-9560000D01*
X14535000Y-11030000D02*
X14565000Y-11060000D01*
X14565000Y-11030000D02*
X14535000Y-11060000D01*
X14538000Y-12436000D02*
X14568000Y-12466000D01*
X14568000Y-12436000D02*
X14538000Y-12466000D01*
X14550000Y-14500000D02*
X14580000Y-14530000D01*
X14580000Y-14500000D02*
X14550000Y-14530000D01*
X14550000Y-15230000D02*
X14580000Y-15260000D01*
X14580000Y-15230000D02*
X14550000Y-15260000D01*
X14560000Y-5385000D02*
X14590000Y-5415000D01*
X14590000Y-5385000D02*
X14560000Y-5415000D01*
X14560000Y-5785000D02*
X14590000Y-5815000D01*
X14590000Y-5785000D02*
X14560000Y-5815000D01*
X14560000Y-14425000D02*
X14590000Y-14455000D01*
X14590000Y-14425000D02*
X14560000Y-14455000D01*
X14620000Y-5435000D02*
X14650000Y-5465000D01*
X14650000Y-5435000D02*
X14620000Y-5465000D01*
X14640000Y-14470000D02*
X14670000Y-14500000D01*
X14670000Y-14470000D02*
X14640000Y-14500000D01*
X14640000Y-15285000D02*
X14670000Y-15315000D01*
X14670000Y-15285000D02*
X14640000Y-15315000D01*
X14680000Y-6070000D02*
X14710000Y-6100000D01*
X14710000Y-6070000D02*
X14680000Y-6100000D01*
X14685000Y-12285000D02*
X14715000Y-12315000D01*
X14715000Y-12285000D02*
X14685000Y-12315000D01*
X14685000Y-7785000D02*
X14715000Y-7815000D01*
X14715000Y-7785000D02*
X14685000Y-7815000D01*
X14685000Y-8185000D02*
X14715000Y-8215000D01*
X14715000Y-8185000D02*
X14685000Y-8215000D01*
X14685000Y-9285000D02*
X14715000Y-9315000D01*
X14715000Y-9285000D02*
X14685000Y-9315000D01*
X14685000Y-9685000D02*
X14715000Y-9715000D01*
X14715000Y-9685000D02*
X14685000Y-9715000D01*
X14685000Y-10785000D02*
X14715000Y-10815000D01*
X14715000Y-10785000D02*
X14685000Y-10815000D01*
X14685000Y-11185000D02*
X14715000Y-11215000D01*
X14715000Y-11185000D02*
X14685000Y-11215000D01*
X14685000Y-12685000D02*
X14715000Y-12715000D01*
X14715000Y-12685000D02*
X14685000Y-12715000D01*
X14735000Y-5535000D02*
X14765000Y-5565000D01*
X14765000Y-5535000D02*
X14735000Y-5565000D01*
X14735000Y-5610000D02*
X14765000Y-5640000D01*
X14765000Y-5610000D02*
X14735000Y-5640000D01*
X14735000Y-5685000D02*
X14765000Y-5715000D01*
X14765000Y-5685000D02*
X14735000Y-5715000D01*
X14735000Y-5760000D02*
X14765000Y-5790000D01*
X14765000Y-5760000D02*
X14735000Y-5790000D01*
X14760000Y-14685000D02*
X14790000Y-14715000D01*
X14790000Y-14685000D02*
X14760000Y-14715000D01*
X14760000Y-14760000D02*
X14790000Y-14790000D01*
X14790000Y-14760000D02*
X14760000Y-14790000D01*
X14760000Y-14835000D02*
X14790000Y-14865000D01*
X14790000Y-14835000D02*
X14760000Y-14865000D01*
X14760000Y-14910000D02*
X14790000Y-14940000D01*
X14790000Y-14910000D02*
X14760000Y-14940000D01*
X16400000Y-8180000D02*
X16430000Y-8210000D01*
X16430000Y-8180000D02*
X16400000Y-8210000D01*
X16400000Y-9680000D02*
X16430000Y-9710000D01*
X16430000Y-9680000D02*
X16400000Y-9710000D01*
X16400000Y-11180000D02*
X16430000Y-11210000D01*
X16430000Y-11180000D02*
X16400000Y-11210000D01*
X16400000Y-12680000D02*
X16430000Y-12710000D01*
X16430000Y-12680000D02*
X16400000Y-12710000D01*
X16420000Y-7840000D02*
X16450000Y-7870000D01*
X16450000Y-7840000D02*
X16420000Y-7870000D01*
X16420000Y-9335000D02*
X16450000Y-9365000D01*
X16450000Y-9335000D02*
X16420000Y-9365000D01*
X16425000Y-7910000D02*
X16455000Y-7940000D01*
X16455000Y-7910000D02*
X16425000Y-7940000D01*
X16425000Y-9410000D02*
X16455000Y-9440000D01*
X16455000Y-9410000D02*
X16425000Y-9440000D01*
X16425000Y-10910000D02*
X16455000Y-10940000D01*
X16455000Y-10910000D02*
X16425000Y-10940000D01*
X16425000Y-12410000D02*
X16455000Y-12440000D01*
X16455000Y-12410000D02*
X16425000Y-12440000D01*
X16430000Y-10835000D02*
X16460000Y-10865000D01*
X16460000Y-10835000D02*
X16430000Y-10865000D01*
X16485000Y-12330000D02*
X16515000Y-12360000D01*
X16515000Y-12330000D02*
X16485000Y-12360000D01*
X16500000Y-7920000D02*
X16530000Y-7950000D01*
X16530000Y-7920000D02*
X16500000Y-7950000D01*
X16500000Y-12420000D02*
X16530000Y-12450000D01*
X16530000Y-12420000D02*
X16500000Y-12450000D01*
X16505000Y-10940000D02*
X16535000Y-10970000D01*
X16535000Y-10940000D02*
X16505000Y-10970000D01*
X16510000Y-9425000D02*
X16540000Y-9455000D01*
X16540000Y-9425000D02*
X16510000Y-9455000D01*
X16535000Y-12510000D02*
X16565000Y-12540000D01*
X16565000Y-12510000D02*
X16535000Y-12540000D01*
X16545000Y-11010000D02*
X16575000Y-11040000D01*
X16575000Y-11010000D02*
X16545000Y-11040000D01*
X16550000Y-9495000D02*
X16580000Y-9525000D01*
X16580000Y-9495000D02*
X16550000Y-9525000D01*
X16565000Y-7995000D02*
X16595000Y-8025000D01*
X16595000Y-7995000D02*
X16565000Y-8025000D01*
X16620000Y-12560000D02*
X16650000Y-12590000D01*
X16650000Y-12560000D02*
X16620000Y-12590000D01*
X16625000Y-9560000D02*
X16655000Y-9590000D01*
X16655000Y-9560000D02*
X16625000Y-9590000D01*
X16625000Y-11060000D02*
X16655000Y-11090000D01*
X16655000Y-11060000D02*
X16625000Y-11090000D01*
X16650000Y-8060000D02*
X16680000Y-8090000D01*
X16680000Y-8060000D02*
X16650000Y-8090000D01*
X16685000Y-7710000D02*
X16715000Y-7740000D01*
X16715000Y-7710000D02*
X16685000Y-7740000D01*
X16685000Y-9210000D02*
X16715000Y-9240000D01*
X16715000Y-9210000D02*
X16685000Y-9240000D01*
X16685000Y-10710000D02*
X16715000Y-10740000D01*
X16715000Y-10710000D02*
X16685000Y-10740000D01*
X16685000Y-12210000D02*
X16715000Y-12240000D01*
X16715000Y-12210000D02*
X16685000Y-12240000D01*
X16710000Y-8235000D02*
X16740000Y-8265000D01*
X16740000Y-8235000D02*
X16710000Y-8265000D01*
X16710000Y-9735000D02*
X16740000Y-9765000D01*
X16740000Y-9735000D02*
X16710000Y-9765000D01*
X16710000Y-11235000D02*
X16740000Y-11265000D01*
X16740000Y-11235000D02*
X16710000Y-11265000D01*
X16710000Y-12735000D02*
X16740000Y-12765000D01*
X16740000Y-12735000D02*
X16710000Y-12765000D01*
X16760000Y-7710000D02*
X16790000Y-7740000D01*
X16790000Y-7710000D02*
X16760000Y-7740000D01*
X16760000Y-9210000D02*
X16790000Y-9240000D01*
X16790000Y-9210000D02*
X16760000Y-9240000D01*
X16760000Y-10710000D02*
X16790000Y-10740000D01*
X16790000Y-10710000D02*
X16760000Y-10740000D01*
X16760000Y-12210000D02*
X16790000Y-12240000D01*
X16790000Y-12210000D02*
X16760000Y-12240000D01*
X16785000Y-8235000D02*
X16815000Y-8265000D01*
X16815000Y-8235000D02*
X16785000Y-8265000D01*
X16785000Y-9735000D02*
X16815000Y-9765000D01*
X16815000Y-9735000D02*
X16785000Y-9765000D01*
X16785000Y-11235000D02*
X16815000Y-11265000D01*
X16815000Y-11235000D02*
X16785000Y-11265000D01*
X16785000Y-12735000D02*
X16815000Y-12765000D01*
X16815000Y-12735000D02*
X16785000Y-12765000D01*
X16835000Y-7710000D02*
X16865000Y-7740000D01*
X16865000Y-7710000D02*
X16835000Y-7740000D01*
X16835000Y-9210000D02*
X16865000Y-9240000D01*
X16865000Y-9210000D02*
X16835000Y-9240000D01*
X16835000Y-10710000D02*
X16865000Y-10740000D01*
X16865000Y-10710000D02*
X16835000Y-10740000D01*
X16835000Y-12210000D02*
X16865000Y-12240000D01*
X16865000Y-12210000D02*
X16835000Y-12240000D01*
X16860000Y-8235000D02*
X16890000Y-8265000D01*
X16890000Y-8235000D02*
X16860000Y-8265000D01*
X16860000Y-9735000D02*
X16890000Y-9765000D01*
X16890000Y-9735000D02*
X16860000Y-9765000D01*
X16860000Y-11235000D02*
X16890000Y-11265000D01*
X16890000Y-11235000D02*
X16860000Y-11265000D01*
X16860000Y-12735000D02*
X16890000Y-12765000D01*
X16890000Y-12735000D02*
X16860000Y-12765000D01*
X16910000Y-7710000D02*
X16940000Y-7740000D01*
X16940000Y-7710000D02*
X16910000Y-7740000D01*
X16910000Y-9210000D02*
X16940000Y-9240000D01*
X16940000Y-9210000D02*
X16910000Y-9240000D01*
X16910000Y-10710000D02*
X16940000Y-10740000D01*
X16940000Y-10710000D02*
X16910000Y-10740000D01*
X16910000Y-12210000D02*
X16940000Y-12240000D01*
X16940000Y-12210000D02*
X16910000Y-12240000D01*
X16935000Y-8235000D02*
X16965000Y-8265000D01*
X16965000Y-8235000D02*
X16935000Y-8265000D01*
X16935000Y-9735000D02*
X16965000Y-9765000D01*
X16965000Y-9735000D02*
X16935000Y-9765000D01*
X16935000Y-11235000D02*
X16965000Y-11265000D01*
X16965000Y-11235000D02*
X16935000Y-11265000D01*
X16935000Y-12735000D02*
X16965000Y-12765000D01*
X16965000Y-12735000D02*
X16935000Y-12765000D01*
X17035000Y-8150000D02*
X17065000Y-8180000D01*
X17065000Y-8150000D02*
X17035000Y-8180000D01*
X17035000Y-9640000D02*
X17065000Y-9670000D01*
X17065000Y-9640000D02*
X17035000Y-9670000D01*
X17035000Y-11135000D02*
X17065000Y-11165000D01*
X17065000Y-11135000D02*
X17035000Y-11165000D01*
X17035000Y-12645000D02*
X17065000Y-12675000D01*
X17065000Y-12645000D02*
X17035000Y-12675000D01*
X17085000Y-8060000D02*
X17115000Y-8090000D01*
X17115000Y-8060000D02*
X17085000Y-8090000D01*
X17085000Y-9540000D02*
X17115000Y-9570000D01*
X17115000Y-9540000D02*
X17085000Y-9570000D01*
X17085000Y-11060000D02*
X17115000Y-11090000D01*
X17115000Y-11060000D02*
X17085000Y-11090000D01*
X17085000Y-12560000D02*
X17115000Y-12590000D01*
X17115000Y-12560000D02*
X17085000Y-12590000D01*
X17135000Y-7980000D02*
X17165000Y-8010000D01*
X17165000Y-7980000D02*
X17135000Y-8010000D01*
X17135000Y-9465000D02*
X17165000Y-9495000D01*
X17165000Y-9465000D02*
X17135000Y-9495000D01*
X17135000Y-10995000D02*
X17165000Y-11025000D01*
X17165000Y-10995000D02*
X17135000Y-11025000D01*
X17135000Y-12490000D02*
X17165000Y-12520000D01*
X17165000Y-12490000D02*
X17135000Y-12520000D01*
X17285000Y-12420000D02*
X17315000Y-12450000D01*
X17315000Y-12420000D02*
X17285000Y-12450000D01*
X17335000Y-10885000D02*
X17365000Y-10915000D01*
X17365000Y-10885000D02*
X17335000Y-10915000D01*
X17390000Y-9410000D02*
X17420000Y-9440000D01*
X17420000Y-9410000D02*
X17390000Y-9440000D01*
X17435000Y-7920000D02*
X17465000Y-7950000D01*
X17465000Y-7920000D02*
X17435000Y-7950000D01*
X17485000Y-7845000D02*
X17515000Y-7875000D01*
X17515000Y-7845000D02*
X17485000Y-7875000D01*
X17485000Y-9295000D02*
X17515000Y-9325000D01*
X17515000Y-9295000D02*
X17485000Y-9325000D01*
X17485000Y-10835000D02*
X17515000Y-10865000D01*
X17515000Y-10835000D02*
X17485000Y-10865000D01*
X17485000Y-12330000D02*
X17515000Y-12360000D01*
X17515000Y-12330000D02*
X17485000Y-12360000D01*
D13*
X6858872Y-16213389D02*
X6858872Y-16013389D01*
X6858872Y-16013389D02*
X6906491Y-16013389D01*
X6906491Y-16013389D02*
X6935062Y-16022913D01*
X6935062Y-16022913D02*
X6954110Y-16041960D01*
X6954110Y-16041960D02*
X6963634Y-16061008D01*
X6963634Y-16061008D02*
X6973157Y-16099103D01*
X6973157Y-16099103D02*
X6973157Y-16127674D01*
X6973157Y-16127674D02*
X6963634Y-16165770D01*
X6963634Y-16165770D02*
X6954110Y-16184817D01*
X6954110Y-16184817D02*
X6935062Y-16203865D01*
X6935062Y-16203865D02*
X6906491Y-16213389D01*
X6906491Y-16213389D02*
X6858872Y-16213389D01*
X7058872Y-16213389D02*
X7058872Y-16080055D01*
X7058872Y-16118151D02*
X7068396Y-16099103D01*
X7068396Y-16099103D02*
X7077919Y-16089579D01*
X7077919Y-16089579D02*
X7096967Y-16080055D01*
X7096967Y-16080055D02*
X7116015Y-16080055D01*
X7182681Y-16213389D02*
X7182681Y-16080055D01*
X7182681Y-16013389D02*
X7173157Y-16022913D01*
X7173157Y-16022913D02*
X7182681Y-16032436D01*
X7182681Y-16032436D02*
X7192205Y-16022913D01*
X7192205Y-16022913D02*
X7182681Y-16013389D01*
X7182681Y-16013389D02*
X7182681Y-16032436D01*
X7306491Y-16213389D02*
X7287443Y-16203865D01*
X7287443Y-16203865D02*
X7277919Y-16184817D01*
X7277919Y-16184817D02*
X7277919Y-16013389D01*
X7411253Y-16213389D02*
X7392205Y-16203865D01*
X7392205Y-16203865D02*
X7382681Y-16184817D01*
X7382681Y-16184817D02*
X7382681Y-16013389D01*
X7639824Y-16213389D02*
X7639824Y-16013389D01*
X7639824Y-16013389D02*
X7706491Y-16156246D01*
X7706491Y-16156246D02*
X7773157Y-16013389D01*
X7773157Y-16013389D02*
X7773157Y-16213389D01*
X7954110Y-16213389D02*
X7954110Y-16108627D01*
X7954110Y-16108627D02*
X7944586Y-16089579D01*
X7944586Y-16089579D02*
X7925538Y-16080055D01*
X7925538Y-16080055D02*
X7887443Y-16080055D01*
X7887443Y-16080055D02*
X7868396Y-16089579D01*
X7954110Y-16203865D02*
X7935062Y-16213389D01*
X7935062Y-16213389D02*
X7887443Y-16213389D01*
X7887443Y-16213389D02*
X7868396Y-16203865D01*
X7868396Y-16203865D02*
X7858872Y-16184817D01*
X7858872Y-16184817D02*
X7858872Y-16165770D01*
X7858872Y-16165770D02*
X7868396Y-16146722D01*
X7868396Y-16146722D02*
X7887443Y-16137198D01*
X7887443Y-16137198D02*
X7935062Y-16137198D01*
X7935062Y-16137198D02*
X7954110Y-16127674D01*
X8049348Y-16080055D02*
X8049348Y-16280055D01*
X8049348Y-16089579D02*
X8068396Y-16080055D01*
X8068396Y-16080055D02*
X8106491Y-16080055D01*
X8106491Y-16080055D02*
X8125538Y-16089579D01*
X8125538Y-16089579D02*
X8135062Y-16099103D01*
X8135062Y-16099103D02*
X8144586Y-16118151D01*
X8144586Y-16118151D02*
X8144586Y-16175293D01*
X8144586Y-16175293D02*
X8135062Y-16194341D01*
X8135062Y-16194341D02*
X8125538Y-16203865D01*
X8125538Y-16203865D02*
X8106491Y-16213389D01*
X8106491Y-16213389D02*
X8068396Y-16213389D01*
X8068396Y-16213389D02*
X8049348Y-16203865D01*
X8230300Y-16194341D02*
X8239824Y-16203865D01*
X8239824Y-16203865D02*
X8230300Y-16213389D01*
X8230300Y-16213389D02*
X8220777Y-16203865D01*
X8220777Y-16203865D02*
X8230300Y-16194341D01*
X8230300Y-16194341D02*
X8230300Y-16213389D01*
X8230300Y-16089579D02*
X8239824Y-16099103D01*
X8239824Y-16099103D02*
X8230300Y-16108627D01*
X8230300Y-16108627D02*
X8220777Y-16099103D01*
X8220777Y-16099103D02*
X8230300Y-16089579D01*
X8230300Y-16089579D02*
X8230300Y-16108627D01*
D14*
X6568095Y-16526905D02*
X6598095Y-16556905D01*
X6598095Y-16526905D02*
X6568095Y-16556905D01*
D13*
X6896967Y-16433389D02*
X6916015Y-16433389D01*
X6916015Y-16433389D02*
X6935062Y-16442913D01*
X6935062Y-16442913D02*
X6944586Y-16452436D01*
X6944586Y-16452436D02*
X6954110Y-16471484D01*
X6954110Y-16471484D02*
X6963634Y-16509579D01*
X6963634Y-16509579D02*
X6963634Y-16557198D01*
X6963634Y-16557198D02*
X6954110Y-16595293D01*
X6954110Y-16595293D02*
X6944586Y-16614341D01*
X6944586Y-16614341D02*
X6935062Y-16623865D01*
X6935062Y-16623865D02*
X6916015Y-16633389D01*
X6916015Y-16633389D02*
X6896967Y-16633389D01*
X6896967Y-16633389D02*
X6877919Y-16623865D01*
X6877919Y-16623865D02*
X6868396Y-16614341D01*
X6868396Y-16614341D02*
X6858872Y-16595293D01*
X6858872Y-16595293D02*
X6849348Y-16557198D01*
X6849348Y-16557198D02*
X6849348Y-16509579D01*
X6849348Y-16509579D02*
X6858872Y-16471484D01*
X6858872Y-16471484D02*
X6868396Y-16452436D01*
X6868396Y-16452436D02*
X6877919Y-16442913D01*
X6877919Y-16442913D02*
X6896967Y-16433389D01*
X7049348Y-16614341D02*
X7058872Y-16623865D01*
X7058872Y-16623865D02*
X7049348Y-16633389D01*
X7049348Y-16633389D02*
X7039824Y-16623865D01*
X7039824Y-16623865D02*
X7049348Y-16614341D01*
X7049348Y-16614341D02*
X7049348Y-16633389D01*
X7125538Y-16433389D02*
X7249348Y-16433389D01*
X7249348Y-16433389D02*
X7182681Y-16509579D01*
X7182681Y-16509579D02*
X7211253Y-16509579D01*
X7211253Y-16509579D02*
X7230300Y-16519103D01*
X7230300Y-16519103D02*
X7239824Y-16528627D01*
X7239824Y-16528627D02*
X7249348Y-16547674D01*
X7249348Y-16547674D02*
X7249348Y-16595293D01*
X7249348Y-16595293D02*
X7239824Y-16614341D01*
X7239824Y-16614341D02*
X7230300Y-16623865D01*
X7230300Y-16623865D02*
X7211253Y-16633389D01*
X7211253Y-16633389D02*
X7154110Y-16633389D01*
X7154110Y-16633389D02*
X7135062Y-16623865D01*
X7135062Y-16623865D02*
X7125538Y-16614341D01*
X7373157Y-16433389D02*
X7392205Y-16433389D01*
X7392205Y-16433389D02*
X7411253Y-16442913D01*
X7411253Y-16442913D02*
X7420777Y-16452436D01*
X7420777Y-16452436D02*
X7430300Y-16471484D01*
X7430300Y-16471484D02*
X7439824Y-16509579D01*
X7439824Y-16509579D02*
X7439824Y-16557198D01*
X7439824Y-16557198D02*
X7430300Y-16595293D01*
X7430300Y-16595293D02*
X7420777Y-16614341D01*
X7420777Y-16614341D02*
X7411253Y-16623865D01*
X7411253Y-16623865D02*
X7392205Y-16633389D01*
X7392205Y-16633389D02*
X7373157Y-16633389D01*
X7373157Y-16633389D02*
X7354110Y-16623865D01*
X7354110Y-16623865D02*
X7344586Y-16614341D01*
X7344586Y-16614341D02*
X7335062Y-16595293D01*
X7335062Y-16595293D02*
X7325538Y-16557198D01*
X7325538Y-16557198D02*
X7325538Y-16509579D01*
X7325538Y-16509579D02*
X7335062Y-16471484D01*
X7335062Y-16471484D02*
X7344586Y-16452436D01*
X7344586Y-16452436D02*
X7354110Y-16442913D01*
X7354110Y-16442913D02*
X7373157Y-16433389D01*
X7563634Y-16433389D02*
X7582681Y-16433389D01*
X7582681Y-16433389D02*
X7601729Y-16442913D01*
X7601729Y-16442913D02*
X7611253Y-16452436D01*
X7611253Y-16452436D02*
X7620777Y-16471484D01*
X7620777Y-16471484D02*
X7630300Y-16509579D01*
X7630300Y-16509579D02*
X7630300Y-16557198D01*
X7630300Y-16557198D02*
X7620777Y-16595293D01*
X7620777Y-16595293D02*
X7611253Y-16614341D01*
X7611253Y-16614341D02*
X7601729Y-16623865D01*
X7601729Y-16623865D02*
X7582681Y-16633389D01*
X7582681Y-16633389D02*
X7563634Y-16633389D01*
X7563634Y-16633389D02*
X7544586Y-16623865D01*
X7544586Y-16623865D02*
X7535062Y-16614341D01*
X7535062Y-16614341D02*
X7525538Y-16595293D01*
X7525538Y-16595293D02*
X7516015Y-16557198D01*
X7516015Y-16557198D02*
X7516015Y-16509579D01*
X7516015Y-16509579D02*
X7525538Y-16471484D01*
X7525538Y-16471484D02*
X7535062Y-16452436D01*
X7535062Y-16452436D02*
X7544586Y-16442913D01*
X7544586Y-16442913D02*
X7563634Y-16433389D01*
X7716015Y-16633389D02*
X7716015Y-16500055D01*
X7716015Y-16519103D02*
X7725538Y-16509579D01*
X7725538Y-16509579D02*
X7744586Y-16500055D01*
X7744586Y-16500055D02*
X7773158Y-16500055D01*
X7773158Y-16500055D02*
X7792205Y-16509579D01*
X7792205Y-16509579D02*
X7801729Y-16528627D01*
X7801729Y-16528627D02*
X7801729Y-16633389D01*
X7801729Y-16528627D02*
X7811253Y-16509579D01*
X7811253Y-16509579D02*
X7830300Y-16500055D01*
X7830300Y-16500055D02*
X7858872Y-16500055D01*
X7858872Y-16500055D02*
X7877919Y-16509579D01*
X7877919Y-16509579D02*
X7887443Y-16528627D01*
X7887443Y-16528627D02*
X7887443Y-16633389D01*
X7982681Y-16633389D02*
X7982681Y-16500055D01*
X7982681Y-16519103D02*
X7992205Y-16509579D01*
X7992205Y-16509579D02*
X8011253Y-16500055D01*
X8011253Y-16500055D02*
X8039824Y-16500055D01*
X8039824Y-16500055D02*
X8058872Y-16509579D01*
X8058872Y-16509579D02*
X8068396Y-16528627D01*
X8068396Y-16528627D02*
X8068396Y-16633389D01*
X8068396Y-16528627D02*
X8077919Y-16509579D01*
X8077919Y-16509579D02*
X8096967Y-16500055D01*
X8096967Y-16500055D02*
X8125538Y-16500055D01*
X8125538Y-16500055D02*
X8144586Y-16509579D01*
X8144586Y-16509579D02*
X8154110Y-16528627D01*
X8154110Y-16528627D02*
X8154110Y-16633389D01*
X8544586Y-16423865D02*
X8373158Y-16681008D01*
X8801729Y-16433389D02*
X8820777Y-16433389D01*
X8820777Y-16433389D02*
X8839824Y-16442913D01*
X8839824Y-16442913D02*
X8849348Y-16452436D01*
X8849348Y-16452436D02*
X8858872Y-16471484D01*
X8858872Y-16471484D02*
X8868396Y-16509579D01*
X8868396Y-16509579D02*
X8868396Y-16557198D01*
X8868396Y-16557198D02*
X8858872Y-16595293D01*
X8858872Y-16595293D02*
X8849348Y-16614341D01*
X8849348Y-16614341D02*
X8839824Y-16623865D01*
X8839824Y-16623865D02*
X8820777Y-16633389D01*
X8820777Y-16633389D02*
X8801729Y-16633389D01*
X8801729Y-16633389D02*
X8782682Y-16623865D01*
X8782682Y-16623865D02*
X8773158Y-16614341D01*
X8773158Y-16614341D02*
X8763634Y-16595293D01*
X8763634Y-16595293D02*
X8754110Y-16557198D01*
X8754110Y-16557198D02*
X8754110Y-16509579D01*
X8754110Y-16509579D02*
X8763634Y-16471484D01*
X8763634Y-16471484D02*
X8773158Y-16452436D01*
X8773158Y-16452436D02*
X8782682Y-16442913D01*
X8782682Y-16442913D02*
X8801729Y-16433389D01*
X8954110Y-16614341D02*
X8963634Y-16623865D01*
X8963634Y-16623865D02*
X8954110Y-16633389D01*
X8954110Y-16633389D02*
X8944586Y-16623865D01*
X8944586Y-16623865D02*
X8954110Y-16614341D01*
X8954110Y-16614341D02*
X8954110Y-16633389D01*
X9087443Y-16433389D02*
X9106491Y-16433389D01*
X9106491Y-16433389D02*
X9125539Y-16442913D01*
X9125539Y-16442913D02*
X9135063Y-16452436D01*
X9135063Y-16452436D02*
X9144586Y-16471484D01*
X9144586Y-16471484D02*
X9154110Y-16509579D01*
X9154110Y-16509579D02*
X9154110Y-16557198D01*
X9154110Y-16557198D02*
X9144586Y-16595293D01*
X9144586Y-16595293D02*
X9135063Y-16614341D01*
X9135063Y-16614341D02*
X9125539Y-16623865D01*
X9125539Y-16623865D02*
X9106491Y-16633389D01*
X9106491Y-16633389D02*
X9087443Y-16633389D01*
X9087443Y-16633389D02*
X9068396Y-16623865D01*
X9068396Y-16623865D02*
X9058872Y-16614341D01*
X9058872Y-16614341D02*
X9049348Y-16595293D01*
X9049348Y-16595293D02*
X9039824Y-16557198D01*
X9039824Y-16557198D02*
X9039824Y-16509579D01*
X9039824Y-16509579D02*
X9049348Y-16471484D01*
X9049348Y-16471484D02*
X9058872Y-16452436D01*
X9058872Y-16452436D02*
X9068396Y-16442913D01*
X9068396Y-16442913D02*
X9087443Y-16433389D01*
X9344586Y-16633389D02*
X9230301Y-16633389D01*
X9287443Y-16633389D02*
X9287443Y-16433389D01*
X9287443Y-16433389D02*
X9268396Y-16461960D01*
X9268396Y-16461960D02*
X9249348Y-16481008D01*
X9249348Y-16481008D02*
X9230301Y-16490532D01*
X9535063Y-16633389D02*
X9420777Y-16633389D01*
X9477920Y-16633389D02*
X9477920Y-16433389D01*
X9477920Y-16433389D02*
X9458872Y-16461960D01*
X9458872Y-16461960D02*
X9439824Y-16481008D01*
X9439824Y-16481008D02*
X9420777Y-16490532D01*
X9649348Y-16519103D02*
X9630301Y-16509579D01*
X9630301Y-16509579D02*
X9620777Y-16500055D01*
X9620777Y-16500055D02*
X9611253Y-16481008D01*
X9611253Y-16481008D02*
X9611253Y-16471484D01*
X9611253Y-16471484D02*
X9620777Y-16452436D01*
X9620777Y-16452436D02*
X9630301Y-16442913D01*
X9630301Y-16442913D02*
X9649348Y-16433389D01*
X9649348Y-16433389D02*
X9687444Y-16433389D01*
X9687444Y-16433389D02*
X9706491Y-16442913D01*
X9706491Y-16442913D02*
X9716015Y-16452436D01*
X9716015Y-16452436D02*
X9725539Y-16471484D01*
X9725539Y-16471484D02*
X9725539Y-16481008D01*
X9725539Y-16481008D02*
X9716015Y-16500055D01*
X9716015Y-16500055D02*
X9706491Y-16509579D01*
X9706491Y-16509579D02*
X9687444Y-16519103D01*
X9687444Y-16519103D02*
X9649348Y-16519103D01*
X9649348Y-16519103D02*
X9630301Y-16528627D01*
X9630301Y-16528627D02*
X9620777Y-16538151D01*
X9620777Y-16538151D02*
X9611253Y-16557198D01*
X9611253Y-16557198D02*
X9611253Y-16595293D01*
X9611253Y-16595293D02*
X9620777Y-16614341D01*
X9620777Y-16614341D02*
X9630301Y-16623865D01*
X9630301Y-16623865D02*
X9649348Y-16633389D01*
X9649348Y-16633389D02*
X9687444Y-16633389D01*
X9687444Y-16633389D02*
X9706491Y-16623865D01*
X9706491Y-16623865D02*
X9716015Y-16614341D01*
X9716015Y-16614341D02*
X9725539Y-16595293D01*
X9725539Y-16595293D02*
X9725539Y-16557198D01*
X9725539Y-16557198D02*
X9716015Y-16538151D01*
X9716015Y-16538151D02*
X9706491Y-16528627D01*
X9706491Y-16528627D02*
X9687444Y-16519103D01*
X9801729Y-16433389D02*
X9801729Y-16471484D01*
X9877920Y-16433389D02*
X9877920Y-16471484D01*
X10173158Y-16709579D02*
X10163634Y-16700055D01*
X10163634Y-16700055D02*
X10144586Y-16671484D01*
X10144586Y-16671484D02*
X10135063Y-16652436D01*
X10135063Y-16652436D02*
X10125539Y-16623865D01*
X10125539Y-16623865D02*
X10116015Y-16576246D01*
X10116015Y-16576246D02*
X10116015Y-16538151D01*
X10116015Y-16538151D02*
X10125539Y-16490532D01*
X10125539Y-16490532D02*
X10135063Y-16461960D01*
X10135063Y-16461960D02*
X10144586Y-16442913D01*
X10144586Y-16442913D02*
X10163634Y-16414341D01*
X10163634Y-16414341D02*
X10173158Y-16404817D01*
X10335063Y-16500055D02*
X10335063Y-16633389D01*
X10287444Y-16423865D02*
X10239825Y-16566722D01*
X10239825Y-16566722D02*
X10363634Y-16566722D01*
X10420777Y-16433389D02*
X10544586Y-16433389D01*
X10544586Y-16433389D02*
X10477920Y-16509579D01*
X10477920Y-16509579D02*
X10506491Y-16509579D01*
X10506491Y-16509579D02*
X10525539Y-16519103D01*
X10525539Y-16519103D02*
X10535063Y-16528627D01*
X10535063Y-16528627D02*
X10544586Y-16547674D01*
X10544586Y-16547674D02*
X10544586Y-16595293D01*
X10544586Y-16595293D02*
X10535063Y-16614341D01*
X10535063Y-16614341D02*
X10525539Y-16623865D01*
X10525539Y-16623865D02*
X10506491Y-16633389D01*
X10506491Y-16633389D02*
X10449348Y-16633389D01*
X10449348Y-16633389D02*
X10430301Y-16623865D01*
X10430301Y-16623865D02*
X10420777Y-16614341D01*
X10735063Y-16633389D02*
X10620777Y-16633389D01*
X10677920Y-16633389D02*
X10677920Y-16433389D01*
X10677920Y-16433389D02*
X10658872Y-16461960D01*
X10658872Y-16461960D02*
X10639825Y-16481008D01*
X10639825Y-16481008D02*
X10620777Y-16490532D01*
X10973158Y-16633389D02*
X10973158Y-16433389D01*
X11058872Y-16633389D02*
X11058872Y-16528627D01*
X11058872Y-16528627D02*
X11049348Y-16509579D01*
X11049348Y-16509579D02*
X11030301Y-16500055D01*
X11030301Y-16500055D02*
X11001729Y-16500055D01*
X11001729Y-16500055D02*
X10982682Y-16509579D01*
X10982682Y-16509579D02*
X10973158Y-16519103D01*
X11182682Y-16633389D02*
X11163634Y-16623865D01*
X11163634Y-16623865D02*
X11154110Y-16614341D01*
X11154110Y-16614341D02*
X11144587Y-16595293D01*
X11144587Y-16595293D02*
X11144587Y-16538151D01*
X11144587Y-16538151D02*
X11154110Y-16519103D01*
X11154110Y-16519103D02*
X11163634Y-16509579D01*
X11163634Y-16509579D02*
X11182682Y-16500055D01*
X11182682Y-16500055D02*
X11211253Y-16500055D01*
X11211253Y-16500055D02*
X11230301Y-16509579D01*
X11230301Y-16509579D02*
X11239825Y-16519103D01*
X11239825Y-16519103D02*
X11249348Y-16538151D01*
X11249348Y-16538151D02*
X11249348Y-16595293D01*
X11249348Y-16595293D02*
X11239825Y-16614341D01*
X11239825Y-16614341D02*
X11230301Y-16623865D01*
X11230301Y-16623865D02*
X11211253Y-16633389D01*
X11211253Y-16633389D02*
X11182682Y-16633389D01*
X11363634Y-16633389D02*
X11344586Y-16623865D01*
X11344586Y-16623865D02*
X11335063Y-16604817D01*
X11335063Y-16604817D02*
X11335063Y-16433389D01*
X11516015Y-16623865D02*
X11496967Y-16633389D01*
X11496967Y-16633389D02*
X11458872Y-16633389D01*
X11458872Y-16633389D02*
X11439825Y-16623865D01*
X11439825Y-16623865D02*
X11430301Y-16604817D01*
X11430301Y-16604817D02*
X11430301Y-16528627D01*
X11430301Y-16528627D02*
X11439825Y-16509579D01*
X11439825Y-16509579D02*
X11458872Y-16500055D01*
X11458872Y-16500055D02*
X11496967Y-16500055D01*
X11496967Y-16500055D02*
X11516015Y-16509579D01*
X11516015Y-16509579D02*
X11525539Y-16528627D01*
X11525539Y-16528627D02*
X11525539Y-16547674D01*
X11525539Y-16547674D02*
X11430301Y-16566722D01*
X11601729Y-16623865D02*
X11620777Y-16633389D01*
X11620777Y-16633389D02*
X11658872Y-16633389D01*
X11658872Y-16633389D02*
X11677920Y-16623865D01*
X11677920Y-16623865D02*
X11687444Y-16604817D01*
X11687444Y-16604817D02*
X11687444Y-16595293D01*
X11687444Y-16595293D02*
X11677920Y-16576246D01*
X11677920Y-16576246D02*
X11658872Y-16566722D01*
X11658872Y-16566722D02*
X11630301Y-16566722D01*
X11630301Y-16566722D02*
X11611253Y-16557198D01*
X11611253Y-16557198D02*
X11601729Y-16538151D01*
X11601729Y-16538151D02*
X11601729Y-16528627D01*
X11601729Y-16528627D02*
X11611253Y-16509579D01*
X11611253Y-16509579D02*
X11630301Y-16500055D01*
X11630301Y-16500055D02*
X11658872Y-16500055D01*
X11658872Y-16500055D02*
X11677920Y-16509579D01*
X11754110Y-16709579D02*
X11763634Y-16700055D01*
X11763634Y-16700055D02*
X11782682Y-16671484D01*
X11782682Y-16671484D02*
X11792206Y-16652436D01*
X11792206Y-16652436D02*
X11801729Y-16623865D01*
X11801729Y-16623865D02*
X11811253Y-16576246D01*
X11811253Y-16576246D02*
X11811253Y-16538151D01*
X11811253Y-16538151D02*
X11801729Y-16490532D01*
X11801729Y-16490532D02*
X11792206Y-16461960D01*
X11792206Y-16461960D02*
X11782682Y-16442913D01*
X11782682Y-16442913D02*
X11763634Y-16414341D01*
X11763634Y-16414341D02*
X11754110Y-16404817D01*
M02*
