M48
; DRILL file {KiCad 8.0.1-unknown-202403172319~81f55dfc9c~ubuntu22.04.1} date 2024-03-25T12:05:21+0000
; FORMAT={-:-/ absolute / metric / decimal}
; #@! TF.CreationDate,2024-03-25T12:05:21+00:00
; #@! TF.GenerationSoftware,Kicad,Pcbnew,8.0.1-unknown-202403172319~81f55dfc9c~ubuntu22.04.1
; #@! TF.FileFunction,Plated,1,2,PTH
FMAT,2
METRIC
; #@! TA.AperFunction,Plated,PTH,ViaDrill
T1C0.300
%
G90
G05
T1
X70.0Y-81.6
X70.0Y-96.65
X70.0Y-111.5
X70.0Y-126.5
X70.5Y-80.65
X71.0Y-95.65
X71.5Y-110.25
X72.0Y-125.5
X73.5Y-79.95
X73.5Y-94.95
X73.5Y-110.0
X73.5Y-124.9
X74.0Y-79.25
X74.0Y-94.25
X74.0Y-109.25
X74.0Y-124.25
X74.5Y-78.55
X74.5Y-93.5
X74.5Y-108.5
X74.5Y-123.55
X75.5Y-77.5
X75.5Y-92.5
X75.5Y-122.5
X75.5Y-107.5
X75.75Y-82.75
X75.75Y-97.75
X75.75Y-127.75
X75.75Y-112.75
X76.25Y-77.5
X76.25Y-92.5
X76.25Y-122.5
X76.25Y-107.5
X76.5Y-82.75
X76.5Y-97.75
X76.5Y-127.75
X76.5Y-112.75
X77.0Y-77.5
X77.0Y-92.5
X77.0Y-122.5
X77.0Y-107.5
X77.05Y-79.25
X77.25Y-82.75
X77.25Y-97.75
X77.25Y-127.75
X77.25Y-112.75
X77.6Y-109.25
X77.75Y-77.5
X77.75Y-92.5
X77.75Y-122.5
X77.75Y-107.5
X77.8Y-124.25
X78.0Y-82.75
X78.0Y-94.25
X78.0Y-97.75
X78.0Y-127.75
X78.0Y-112.75
X78.75Y-124.85
X78.95Y-109.85
X79.05Y-94.9
X79.15Y-79.75
X79.55Y-110.65
X79.55Y-125.5
X79.65Y-95.65
X79.7Y-80.5
X80.6Y-80.75
X80.6Y-95.75
X80.6Y-96.6
X80.6Y-125.75
X80.6Y-110.75
X80.65Y-111.5
X80.7Y-81.5
X80.7Y-126.55
X80.85Y-78.05
X80.85Y-93.05
X80.85Y-123.05
X80.85Y-108.05
X97.25Y-55.75
X97.25Y-56.5
X97.25Y-57.25
X97.25Y-58.0
X97.5Y-147.25
X97.5Y-148.0
X97.5Y-148.75
X97.5Y-149.5
X98.0Y-78.0
X98.0Y-82.0
X98.0Y-93.0
X98.0Y-97.0
X98.0Y-108.0
X98.0Y-112.0
X98.0Y-123.0
X98.0Y-127.0
X98.05Y-144.15
X98.45Y-150.5
X98.5Y-48.96
X98.5Y-60.7
X99.25Y-60.6
X99.25Y-146.4
X99.25Y-151.0
X99.47Y-80.49
X99.5Y-94.55
X99.5Y-109.55
X99.5Y-124.55
X99.65Y-51.5
X99.65Y-59.5
X99.75Y-145.6
X99.75Y-151.5
X99.95Y-94.99
X99.95Y-109.99
X99.95Y-124.99
X100.01Y-79.95
X100.15Y-53.5
X100.25Y-58.8
X100.25Y-146.4
X100.25Y-152.5
X100.45Y-79.5
X100.49Y-95.53
X100.49Y-110.53
X100.49Y-125.53
X100.75Y-54.0
X100.75Y-58.1
X100.75Y-144.4
X100.9Y-82.7
X101.25Y-145.05
X101.3Y-152.95
X101.4Y-54.5
X101.95Y-60.85
X102.0Y-97.0
X102.0Y-112.0
X102.0Y-127.0
X102.0Y-78.0
X102.0Y-82.0
X102.0Y-93.0
X102.0Y-108.0
X102.0Y-123.0
X102.5Y-55.5
X102.5Y-56.25
X102.5Y-57.0
X102.5Y-57.75
X102.7Y-93.9
X102.7Y-108.9
X102.7Y-123.9
X102.75Y-147.0
X102.75Y-147.75
X102.75Y-148.5
X102.75Y-149.25
X108.25Y-48.96
X111.42Y-52.13
X112.25Y-55.75
X112.25Y-56.5
X112.25Y-57.25
X112.25Y-58.0
X112.5Y-147.25
X112.5Y-148.0
X112.5Y-148.75
X112.5Y-149.5
X113.0Y-78.0
X113.0Y-82.0
X113.0Y-93.0
X113.0Y-97.0
X113.0Y-108.0
X113.0Y-112.0
X113.0Y-123.0
X113.0Y-127.0
X113.05Y-144.15
X113.6Y-49.95
X113.6Y-60.75
X113.65Y-149.3
X113.9Y-107.3
X113.9Y-122.3
X114.2Y-59.6
X114.25Y-60.6
X114.47Y-80.43
X114.5Y-94.55
X114.55Y-110.5
X114.55Y-125.5
X114.9Y-53.5
X114.95Y-94.99
X114.99Y-110.05
X114.99Y-125.05
X115.13Y-80.03
X115.15Y-59.3
X115.45Y-79.5
X115.49Y-95.53
X115.53Y-109.51
X115.53Y-124.51
X115.75Y-54.0
X115.75Y-58.6
X115.75Y-144.4
X115.9Y-82.7
X116.15Y-52.25
X116.5Y-54.5
X116.825Y-143.925
X116.95Y-60.85
X117.0Y-108.0
X117.0Y-123.0
X117.0Y-97.0
X117.0Y-78.0
X117.0Y-82.0
X117.0Y-93.0
X117.0Y-112.0
X117.0Y-127.0
X117.5Y-55.5
X117.5Y-56.25
X117.5Y-57.0
X117.5Y-57.75
X117.7Y-93.9
X117.75Y-147.0
X117.75Y-147.75
X117.75Y-148.5
X117.75Y-149.25
X118.25Y-51.1
X118.9Y-51.1
X118.9Y-54.0
X123.3Y-49.85
X123.75Y-50.5
X127.25Y-55.75
X127.25Y-56.5
X127.25Y-57.25
X127.25Y-58.0
X127.3Y-111.1
X127.5Y-147.25
X127.5Y-148.0
X127.5Y-148.75
X127.5Y-149.5
X128.0Y-78.0
X128.0Y-82.0
X128.0Y-93.0
X128.0Y-112.0
X128.0Y-123.0
X128.0Y-127.0
X128.0Y-97.0
X128.0Y-108.0
X128.05Y-144.15
X128.5Y-60.55
X128.75Y-52.25
X128.8Y-122.3
X129.25Y-59.5
X129.25Y-60.6
X129.25Y-146.1
X129.3Y-151.0
X129.47Y-80.49
X129.47Y-95.49
X129.51Y-109.47
X129.55Y-125.5
X129.75Y-151.5
X129.75Y-145.6
X129.99Y-125.05
X130.0Y-53.5
X130.01Y-79.95
X130.01Y-94.95
X130.05Y-110.01
X130.15Y-59.15
X130.2Y-152.0
X130.25Y-144.9
X130.45Y-79.5
X130.45Y-94.5
X130.5Y-110.45
X130.53Y-124.51
X130.75Y-54.0
X130.75Y-58.4
X130.75Y-145.6
X131.0Y-82.7
X131.1Y-97.7
X131.25Y-144.9
X131.45Y-54.5
X131.75Y-49.7
X131.95Y-60.85
X132.0Y-123.0
X132.0Y-78.0
X132.0Y-82.0
X132.0Y-93.0
X132.0Y-97.0
X132.0Y-108.0
X132.0Y-112.0
X132.0Y-127.0
X132.5Y-55.5
X132.5Y-56.25
X132.5Y-57.0
X132.5Y-57.75
X132.5Y-153.0
X132.75Y-147.0
X132.75Y-147.75
X132.75Y-148.5
X132.75Y-149.25
X141.5Y-47.2
X142.25Y-55.75
X142.25Y-56.5
X142.25Y-57.25
X142.25Y-58.0
X142.3Y-81.1
X142.3Y-96.1
X142.3Y-111.1
X142.5Y-147.25
X142.5Y-148.0
X142.5Y-148.75
X142.5Y-149.5
X143.0Y-78.0
X143.0Y-82.0
X143.0Y-97.0
X143.0Y-112.0
X143.0Y-123.0
X143.0Y-127.0
X143.0Y-93.0
X143.0Y-108.0
X143.05Y-144.15
X143.5Y-60.55
X143.5Y-150.5
X143.9Y-122.3
X144.25Y-60.6
X144.25Y-146.5
X144.25Y-151.0
X144.35Y-52.45
X144.37Y-59.4
X144.51Y-79.47
X144.51Y-94.47
X144.51Y-109.47
X144.55Y-125.5
X144.75Y-145.7
X144.99Y-125.05
X145.0Y-53.5
X145.05Y-80.01
X145.05Y-95.01
X145.05Y-110.01
X145.05Y-151.5
X145.15Y-58.8
X145.5Y-80.45
X145.5Y-95.45
X145.5Y-110.45
X145.53Y-124.51
X145.65Y-145.15
X145.65Y-152.45
X145.75Y-54.0
X145.75Y-58.0
X145.75Y-144.4
X146.35Y-54.5
X146.55Y-144.85
X146.55Y-153.0
X146.95Y-60.85
X147.0Y-123.0
X147.0Y-78.0
X147.0Y-82.0
X147.0Y-93.0
X147.0Y-97.0
X147.0Y-108.0
X147.0Y-112.0
X147.0Y-127.0
X147.5Y-55.5
X147.5Y-56.25
X147.5Y-57.0
X147.5Y-57.75
X147.75Y-147.0
X147.75Y-147.75
X147.75Y-148.5
X147.75Y-149.25
X164.15Y-81.95
X164.15Y-96.95
X164.15Y-111.95
X164.15Y-126.95
X164.35Y-78.55
X164.35Y-93.5
X164.4Y-79.25
X164.4Y-94.25
X164.4Y-109.25
X164.4Y-124.25
X164.45Y-108.5
X165.0Y-123.45
X165.15Y-79.35
X165.15Y-124.35
X165.2Y-109.55
X165.25Y-94.4
X165.5Y-125.25
X165.6Y-110.25
X165.65Y-95.1
X165.8Y-80.1
X166.35Y-125.75
X166.4Y-95.75
X166.4Y-110.75
X166.65Y-80.75
X167.0Y-77.25
X167.0Y-92.25
X167.0Y-107.25
X167.0Y-122.25
X167.25Y-82.5
X167.25Y-97.5
X167.25Y-112.5
X167.25Y-127.5
X167.75Y-77.25
X167.75Y-92.25
X167.75Y-107.25
X167.75Y-122.25
X168.0Y-82.5
X168.0Y-97.5
X168.0Y-112.5
X168.0Y-127.5
X168.5Y-77.25
X168.5Y-92.25
X168.5Y-107.25
X168.5Y-122.25
X168.75Y-82.5
X168.75Y-97.5
X168.75Y-112.5
X168.75Y-127.5
X169.25Y-77.25
X169.25Y-92.25
X169.25Y-107.25
X169.25Y-122.25
X169.5Y-82.5
X169.5Y-97.5
X169.5Y-112.5
X169.5Y-127.5
X170.5Y-81.65
X170.5Y-96.55
X170.5Y-111.5
X170.5Y-126.6
X171.0Y-80.75
X171.0Y-95.55
X171.0Y-110.75
X171.0Y-125.75
X171.5Y-79.95
X171.5Y-94.8
X171.5Y-110.1
X171.5Y-125.05
X173.0Y-124.35
X173.5Y-109.0
X174.05Y-94.25
X174.5Y-79.35
X175.0Y-78.6
X175.0Y-93.1
X175.0Y-108.5
X175.0Y-123.45
M30
