%TF.GenerationSoftware,KiCad,Pcbnew,7.0.7-7.0.7~ubuntu22.04.1*%
%TF.CreationDate,2023-08-15T12:14:30+01:00*%
%TF.ProjectId,LIS3DH_array,4c495333-4448-45f6-9172-7261792e6b69,rev?*%
%TF.SameCoordinates,Original*%
%TF.FileFunction,Drillmap*%
%TF.FilePolarity,Positive*%
%FSLAX45Y45*%
G04 Gerber Fmt 4.5, Leading zero omitted, Abs format (unit mm)*
G04 Created by KiCad (PCBNEW 7.0.7-7.0.7~ubuntu22.04.1) date 2023-08-15 12:14:30*
%MOMM*%
%LPD*%
G01*
G04 APERTURE LIST*
%ADD10C,0.010000*%
%ADD11C,0.038100*%
%ADD12C,0.001000*%
%ADD13C,0.200000*%
G04 APERTURE END LIST*
D10*
X11600000Y-11665000D02*
G75*
G03*
X11600000Y-11575000I0J45000D01*
G01*
X11190000Y-9665000D02*
X11190000Y-9700000D01*
X10200000Y-12190000D02*
X9800000Y-12190000D01*
X13055000Y-7580000D02*
G75*
G03*
X12900000Y-7425000I-155000J0D01*
G01*
X8105000Y-11595000D02*
G75*
G03*
X8215000Y-11485000I0J110000D01*
G01*
X10310000Y-10800000D02*
G75*
G03*
X10200000Y-10690000I-110000J0D01*
G01*
X8215000Y-9015000D02*
X8215000Y-9335001D01*
X11300000Y-7690000D02*
G75*
G03*
X11190000Y-7800000I0J-110000D01*
G01*
X14190000Y-12300000D02*
X14190000Y-12700000D01*
X14600000Y-13165000D02*
G75*
G03*
X14445000Y-13320000I0J-155000D01*
G01*
X10055000Y-7580000D02*
G75*
G03*
X10165000Y-7690000I110000J0D01*
G01*
X14810000Y-12300000D02*
G75*
G03*
X14700000Y-12190000I-110000J0D01*
G01*
X9225000Y-12600000D02*
G75*
G03*
X9535000Y-12600000I155000J0D01*
G01*
X11700000Y-9810000D02*
X11300000Y-9810000D01*
X11600000Y-13165000D02*
G75*
G03*
X11600000Y-13075000I0J45000D01*
G01*
X11335001Y-14285000D02*
G75*
G03*
X11445000Y-14175000I-1J110000D01*
G01*
X12900000Y-7225000D02*
G75*
G03*
X12945000Y-7180000I0J45000D01*
G01*
X14300000Y-10690000D02*
X14700000Y-10690000D01*
X9690000Y-9665000D02*
X9690000Y-9700000D01*
X14300000Y-10690000D02*
G75*
G03*
X14190000Y-10800000I0J-110000D01*
G01*
X11700000Y-12810000D02*
G75*
G03*
X11810000Y-12700000I0J110000D01*
G01*
X9335000Y-9600000D02*
G75*
G03*
X9180000Y-9445000I-155000J0D01*
G01*
X14810000Y-10800000D02*
G75*
G03*
X14700000Y-10690000I-110000J0D01*
G01*
X8105000Y-10095000D02*
G75*
G03*
X8215000Y-9985000I0J110000D01*
G01*
X13200000Y-12810000D02*
G75*
G03*
X13310000Y-12700000I0J110000D01*
G01*
X15165000Y-10900000D02*
G75*
G03*
X15320000Y-11055000I155000J0D01*
G01*
X10200000Y-9810000D02*
X9800000Y-9810000D01*
X13055000Y-9080000D02*
G75*
G03*
X12900000Y-8925000I-155000J0D01*
G01*
X12095000Y-5895000D02*
G75*
G03*
X11985000Y-5785000I-110000J0D01*
G01*
X7895000Y-11905000D02*
G75*
G03*
X7785000Y-12015000I0J-110000D01*
G01*
X9211820Y-8068180D02*
G75*
G03*
X9179998Y-8055000I-31820J-31820D01*
G01*
X12900000Y-8725000D02*
G75*
G03*
X12931821Y-8711819I0J45000D01*
G01*
X13165000Y-7690000D02*
X13200000Y-7690000D01*
X12900000Y-7335000D02*
G75*
G03*
X12900000Y-7425000I0J-45000D01*
G01*
X13054999Y-14175001D02*
G75*
G03*
X13164999Y-14285001I110001J2D01*
G01*
X11555000Y-12920000D02*
G75*
G03*
X11600000Y-12965000I45000J0D01*
G01*
X11015000Y-14285000D02*
G75*
G03*
X10905000Y-14395000I0J-110000D01*
G01*
X9900000Y-7225000D02*
G75*
G03*
X9900000Y-7535000I0J-155000D01*
G01*
X11810000Y-7800000D02*
G75*
G03*
X11700000Y-7690000I-110000J0D01*
G01*
X9225000Y-11100000D02*
G75*
G03*
X9180000Y-11055000I-45000J0D01*
G01*
X9690000Y-11165000D02*
G75*
G03*
X9580000Y-11055000I-110000J0D01*
G01*
X14920000Y-7945000D02*
G75*
G03*
X14965000Y-7900000I0J45000D01*
G01*
X14810000Y-10835000D02*
G75*
G03*
X14920000Y-10945000I110000J0D01*
G01*
X9225000Y-9600000D02*
G75*
G03*
X9535000Y-9600000I155000J0D01*
G01*
X9515000Y-14285000D02*
G75*
G03*
X9405000Y-14395000I0J-110000D01*
G01*
X14700000Y-12810000D02*
G75*
G03*
X14810000Y-12700000I0J110000D01*
G01*
X12900000Y-8725000D02*
G75*
G03*
X12900000Y-9035000I0J-155000D01*
G01*
X14810000Y-10835000D02*
X14810000Y-10800000D01*
X9225000Y-9600000D02*
G75*
G03*
X9180000Y-9555000I-45000J0D01*
G01*
X13310000Y-9300000D02*
G75*
G03*
X13200000Y-9190000I-110000J0D01*
G01*
X12690000Y-8200000D02*
G75*
G03*
X12800000Y-8310000I110000J0D01*
G01*
X14920000Y-9555000D02*
G75*
G03*
X15075000Y-9400000I0J155000D01*
G01*
X16285000Y-11485000D02*
G75*
G03*
X16395000Y-11595000I110000J0D01*
G01*
X11664999Y-14285001D02*
X11985000Y-14285000D01*
X14190000Y-8200000D02*
G75*
G03*
X14300000Y-8310000I110000J0D01*
G01*
X12405000Y-14605000D02*
G75*
G03*
X12515000Y-14715000I110000J0D01*
G01*
X11400000Y-7335000D02*
G75*
G03*
X11400000Y-7425000I0J-45000D01*
G01*
X7785000Y-12985000D02*
G75*
G03*
X7895000Y-13095000I110000J0D01*
G01*
X14810000Y-12300000D02*
X14810000Y-12700000D01*
X10905000Y-14605000D02*
G75*
G03*
X11015000Y-14715000I110000J0D01*
G01*
X9900000Y-7335000D02*
G75*
G03*
X9900000Y-7425000I0J-45000D01*
G01*
X15275000Y-9400000D02*
G75*
G03*
X15320000Y-9445000I45000J0D01*
G01*
X9690000Y-11165000D02*
X9690000Y-11200000D01*
X11665000Y-11310000D02*
X11700000Y-11310000D01*
X12835000Y-7690000D02*
X12800000Y-7690000D01*
X14555000Y-12920000D02*
G75*
G03*
X14600000Y-12965000I45000J0D01*
G01*
X9690000Y-12665000D02*
G75*
G03*
X9580000Y-12555000I-110000J0D01*
G01*
X13310000Y-10800000D02*
G75*
G03*
X13200000Y-10690000I-110000J0D01*
G01*
X15275000Y-10900000D02*
G75*
G03*
X15320000Y-10945000I45000J0D01*
G01*
X9335000Y-11100000D02*
G75*
G03*
X9180000Y-10945000I-155000J0D01*
G01*
X10200000Y-9190000D02*
X9800000Y-9190000D01*
X12800000Y-10690000D02*
G75*
G03*
X12690000Y-10800000I0J-110000D01*
G01*
X13310000Y-12300000D02*
X13310000Y-12700000D01*
X9225000Y-11100000D02*
G75*
G03*
X9535000Y-11100000I155000J0D01*
G01*
X11665000Y-7690000D02*
X11700000Y-7690000D01*
X11300000Y-9190000D02*
G75*
G03*
X11190000Y-9300000I0J-110000D01*
G01*
X16715000Y-10515000D02*
G75*
G03*
X16605000Y-10405000I-110000J0D01*
G01*
X14190000Y-12700000D02*
G75*
G03*
X14300000Y-12810000I110000J0D01*
G01*
X9900000Y-7225000D02*
G75*
G03*
X9945000Y-7180000I0J45000D01*
G01*
X14810000Y-7835000D02*
X14810000Y-7800000D01*
X12945000Y-7580000D02*
G75*
G03*
X12900000Y-7535000I-45000J0D01*
G01*
X15275000Y-10900000D02*
G75*
G03*
X14965000Y-10900000I-155000J0D01*
G01*
X11810000Y-8200000D02*
X11810000Y-7800000D01*
X8215000Y-12335001D02*
G75*
G03*
X8325000Y-12445000I110000J1D01*
G01*
X14600000Y-13275000D02*
G75*
G03*
X14600000Y-12965000I0J155000D01*
G01*
X8215000Y-12015000D02*
G75*
G03*
X8105000Y-11905000I-110000J0D01*
G01*
X15165000Y-9400000D02*
G75*
G03*
X15075000Y-9400000I-45000J0D01*
G01*
X12945000Y-12920000D02*
G75*
G03*
X13100000Y-13075000I155000J0D01*
G01*
X11190000Y-12700000D02*
G75*
G03*
X11300000Y-12810000I110000J0D01*
G01*
X9335000Y-9600000D02*
G75*
G03*
X9425000Y-9600000I45000J0D01*
G01*
X15165000Y-7900000D02*
G75*
G03*
X15075000Y-7900000I-45000J0D01*
G01*
X11400000Y-7225000D02*
G75*
G03*
X11400000Y-7535000I0J-155000D01*
G01*
X9580000Y-12445000D02*
G75*
G03*
X9425000Y-12600000I0J-155000D01*
G01*
X7500000Y-12015000D02*
G75*
G03*
X7785000Y-12015000I142500J0D01*
G01*
X8214999Y-12664999D02*
X8215000Y-12985000D01*
X13775000Y-10900000D02*
G75*
G03*
X13465000Y-10900000I-155000J0D01*
G01*
X12835000Y-7690000D02*
G75*
G03*
X12945000Y-7580000I0J110000D01*
G01*
X13595000Y-14395000D02*
G75*
G03*
X13485000Y-14285000I-110000J0D01*
G01*
X9580000Y-10945000D02*
G75*
G03*
X9690000Y-10835000I0J110000D01*
G01*
X14015000Y-14285000D02*
G75*
G03*
X13905000Y-14395000I0J-110000D01*
G01*
X11665000Y-11310000D02*
G75*
G03*
X11555000Y-11420000I0J-110000D01*
G01*
X14665000Y-12810000D02*
X14700000Y-12810000D01*
X16175001Y-10945001D02*
G75*
G03*
X16285001Y-10835001I-2J110001D01*
G01*
X14600000Y-13275000D02*
G75*
G03*
X14555000Y-13320000I0J-45000D01*
G01*
X14335000Y-12810000D02*
X14300000Y-12810000D01*
X14810000Y-9300000D02*
G75*
G03*
X14700000Y-9190000I-110000J0D01*
G01*
X10200000Y-8310000D02*
G75*
G03*
X10310000Y-8200000I0J110000D01*
G01*
X9580000Y-10945000D02*
G75*
G03*
X9425000Y-11100000I0J-155000D01*
G01*
X10310000Y-12700000D02*
X10310000Y-12300000D01*
X12800000Y-11310000D02*
X13200000Y-11310000D01*
X13310000Y-12300000D02*
G75*
G03*
X13200000Y-12190000I-110000J0D01*
G01*
X14300000Y-9190000D02*
G75*
G03*
X14190000Y-9300000I0J-110000D01*
G01*
X9690000Y-9700000D02*
G75*
G03*
X9800000Y-9810000I110000J0D01*
G01*
X15165000Y-7900000D02*
G75*
G03*
X15320000Y-8055000I155000J0D01*
G01*
X10200000Y-11310000D02*
X9800000Y-11310000D01*
X12900000Y-7225000D02*
G75*
G03*
X12900000Y-7535000I0J-155000D01*
G01*
X13165000Y-12810000D02*
G75*
G03*
X13055000Y-12920000I0J-110000D01*
G01*
X9225000Y-12600000D02*
G75*
G03*
X9180000Y-12555000I-45000J0D01*
G01*
X13100000Y-13275000D02*
G75*
G03*
X13055000Y-13320000I0J-45000D01*
G01*
X10200000Y-9810000D02*
G75*
G03*
X10310000Y-9700000I0J110000D01*
G01*
X9335000Y-12600000D02*
G75*
G03*
X9425000Y-12600000I45000J0D01*
G01*
X10200000Y-11310000D02*
G75*
G03*
X10310000Y-11200000I0J110000D01*
G01*
X14700000Y-9810000D02*
G75*
G03*
X14810000Y-9700000I0J110000D01*
G01*
X12690000Y-8200000D02*
X12690000Y-7800000D01*
X14190000Y-11200000D02*
G75*
G03*
X14300000Y-11310000I110000J0D01*
G01*
X15275000Y-7900000D02*
G75*
G03*
X15320000Y-7945000I45000J0D01*
G01*
X11445000Y-12920000D02*
G75*
G03*
X11600000Y-13075000I155000J0D01*
G01*
X14300000Y-9810000D02*
X14700000Y-9810000D01*
X9580000Y-9445000D02*
G75*
G03*
X9425000Y-9600000I0J-155000D01*
G01*
X9835000Y-7690000D02*
X9800000Y-7690000D01*
X10165000Y-7690000D02*
X10200000Y-7690000D01*
X9690000Y-11200000D02*
G75*
G03*
X9800000Y-11310000I110000J0D01*
G01*
X9335000Y-12600000D02*
G75*
G03*
X9180000Y-12445000I-155000J0D01*
G01*
X9800000Y-7690000D02*
G75*
G03*
X9690000Y-7800000I0J-110000D01*
G01*
X14920000Y-8055000D02*
G75*
G03*
X14810000Y-8165000I0J-110000D01*
G01*
X14700000Y-8310000D02*
G75*
G03*
X14810000Y-8200000I0J110000D01*
G01*
X11600000Y-13275000D02*
G75*
G03*
X11600000Y-12965000I0J155000D01*
G01*
X11190000Y-11200000D02*
G75*
G03*
X11300000Y-11310000I110000J0D01*
G01*
X9690000Y-8200000D02*
G75*
G03*
X9800000Y-8310000I110000J0D01*
G01*
X9580000Y-12555000D02*
G75*
G03*
X9535000Y-12600000I0J-45000D01*
G01*
X15165000Y-10900000D02*
G75*
G03*
X15075000Y-10900000I-45000J0D01*
G01*
X14190000Y-9700000D02*
G75*
G03*
X14300000Y-9810000I110000J0D01*
G01*
X9690000Y-10835000D02*
X9690000Y-10800000D01*
X14920000Y-8055000D02*
G75*
G03*
X15075000Y-7900000I0J155000D01*
G01*
X16175001Y-7945001D02*
G75*
G03*
X16285001Y-7835001I-2J110001D01*
G01*
X11080000Y-9445000D02*
G75*
G03*
X11190000Y-9335000I0J110000D01*
G01*
X13310000Y-11165000D02*
X13310000Y-11200000D01*
X15165000Y-9400000D02*
G75*
G03*
X15320000Y-9555000I155000J0D01*
G01*
X14920000Y-11055000D02*
G75*
G03*
X14810000Y-11165000I0J-110000D01*
G01*
X14665000Y-12810000D02*
G75*
G03*
X14555000Y-12920000I0J-110000D01*
G01*
X11335000Y-7690000D02*
X11300000Y-7690000D01*
X13100000Y-13165000D02*
G75*
G03*
X12945000Y-13320000I0J-155000D01*
G01*
X14600000Y-13165000D02*
G75*
G03*
X14600000Y-13075000I0J45000D01*
G01*
X9835000Y-7690000D02*
G75*
G03*
X9945000Y-7580000I0J110000D01*
G01*
X11400000Y-7335000D02*
G75*
G03*
X11555000Y-7180000I0J155000D01*
G01*
X9800000Y-9190000D02*
G75*
G03*
X9690000Y-9300000I0J-110000D01*
G01*
X10200000Y-10690000D02*
X9800000Y-10690000D01*
X10485000Y-6215000D02*
G75*
G03*
X10595000Y-6105000I0J110000D01*
G01*
X9900000Y-7335000D02*
G75*
G03*
X10055000Y-7180000I0J155000D01*
G01*
X13165000Y-12810000D02*
X13200000Y-12810000D01*
X11985000Y-6215000D02*
G75*
G03*
X12095000Y-6105000I0J110000D01*
G01*
X9690000Y-8200000D02*
X9690000Y-7800000D01*
X15320002Y-9445001D02*
X16175001Y-9445001D01*
X16285000Y-12985000D02*
X16285000Y-12664999D01*
X9800000Y-10690000D02*
G75*
G03*
X9690000Y-10800000I0J-110000D01*
G01*
X14810000Y-8165000D02*
X14810000Y-8200000D01*
X10200000Y-12810000D02*
G75*
G03*
X10310000Y-12700000I0J110000D01*
G01*
X15275000Y-7900000D02*
G75*
G03*
X14965000Y-7900000I-155000J0D01*
G01*
X11600000Y-13275000D02*
G75*
G03*
X11555000Y-13320000I0J-45000D01*
G01*
X12835001Y-6214999D02*
X12515000Y-6215000D01*
X11190000Y-12300000D02*
X11190000Y-12700000D01*
X9800000Y-12190000D02*
G75*
G03*
X9690000Y-12300000I0J-110000D01*
G01*
X9180000Y-10945000D02*
X8325000Y-10945000D01*
X9690000Y-12665000D02*
X9690000Y-12700000D01*
X16285000Y-8485000D02*
X16285000Y-8164999D01*
X11810000Y-12300000D02*
X11810000Y-12700000D01*
X14920000Y-10945000D02*
G75*
G03*
X14965000Y-10900000I0J45000D01*
G01*
X14445000Y-12920000D02*
G75*
G03*
X14335000Y-12810000I-110000J0D01*
G01*
X11335000Y-12810000D02*
X11300000Y-12810000D01*
X15095000Y-14395000D02*
G75*
G03*
X14985000Y-14285000I-110000J0D01*
G01*
X14810000Y-7835000D02*
G75*
G03*
X14920000Y-7945000I110000J0D01*
G01*
X10310000Y-9300000D02*
G75*
G03*
X10200000Y-9190000I-110000J0D01*
G01*
X8324998Y-11054999D02*
G75*
G03*
X8214999Y-11164999I2J-110001D01*
G01*
X11190000Y-8200000D02*
G75*
G03*
X11300000Y-8310000I110000J0D01*
G01*
X14300000Y-9190000D02*
X14700000Y-9190000D01*
X14554999Y-13320002D02*
X14554999Y-14175001D01*
X11400000Y-7225000D02*
G75*
G03*
X11445000Y-7180000I0J45000D01*
G01*
X10055000Y-7580000D02*
G75*
G03*
X9900000Y-7425000I-155000J0D01*
G01*
X13485000Y-6215000D02*
G75*
G03*
X13595000Y-6105000I0J110000D01*
G01*
X13420000Y-11055000D02*
G75*
G03*
X13575000Y-10900000I0J155000D01*
G01*
X11445000Y-12920000D02*
G75*
G03*
X11335000Y-12810000I-110000J0D01*
G01*
X14300000Y-8310000D02*
X14700000Y-8310000D01*
X12800000Y-7690000D02*
G75*
G03*
X12690000Y-7800000I0J-110000D01*
G01*
X9405000Y-6105000D02*
G75*
G03*
X9515000Y-6215000I110000J0D01*
G01*
X12690000Y-9700000D02*
X12690000Y-9300000D01*
X10200000Y-12810000D02*
X9800000Y-12810000D01*
X10310000Y-7800000D02*
G75*
G03*
X10200000Y-7690000I-110000J0D01*
G01*
X12800000Y-10690000D02*
X13200000Y-10690000D01*
X11810000Y-12300000D02*
G75*
G03*
X11700000Y-12190000I-110000J0D01*
G01*
X14300000Y-11310000D02*
X14700000Y-11310000D01*
X11600000Y-13165000D02*
G75*
G03*
X11445000Y-13320000I0J-155000D01*
G01*
X11445000Y-11420000D02*
G75*
G03*
X11335000Y-11310000I-110000J0D01*
G01*
X8214999Y-11164999D02*
X8215000Y-11485000D01*
X16285000Y-11485000D02*
X16285000Y-11164999D01*
X8215000Y-7515000D02*
X8215000Y-7835001D01*
X13055000Y-7180000D02*
X13055000Y-6325000D01*
X11555000Y-7580000D02*
G75*
G03*
X11665000Y-7690000I110000J0D01*
G01*
X16715000Y-7515000D02*
G75*
G03*
X16605000Y-7405000I-110000J0D01*
G01*
X13055000Y-12920000D02*
G75*
G03*
X13100000Y-12965000I45000J0D01*
G01*
X8215000Y-9015000D02*
G75*
G03*
X8105000Y-8905000I-110000J0D01*
G01*
X13100000Y-13165000D02*
G75*
G03*
X13100000Y-13075000I0J45000D01*
G01*
X9690000Y-9335000D02*
X9690000Y-9300000D01*
X13100000Y-13275000D02*
G75*
G03*
X13100000Y-12965000I0J155000D01*
G01*
X13485000Y-14715000D02*
G75*
G03*
X13485000Y-15000000I0J-142500D01*
G01*
X13310000Y-7800000D02*
G75*
G03*
X13200000Y-7690000I-110000J0D01*
G01*
X11665000Y-12810000D02*
X11700000Y-12810000D01*
X9179998Y-11054999D02*
X8324998Y-11054999D01*
X7895000Y-8905000D02*
G75*
G03*
X7785000Y-9015000I0J-110000D01*
G01*
X14300000Y-7690000D02*
X14700000Y-7690000D01*
X12690000Y-12300000D02*
X12690000Y-12700000D01*
X12690000Y-11200000D02*
G75*
G03*
X12800000Y-11310000I110000J0D01*
G01*
X9690000Y-12700000D02*
G75*
G03*
X9800000Y-12810000I110000J0D01*
G01*
X7500000Y-12985000D02*
X7500000Y-14750000D01*
X11015000Y-5785000D02*
G75*
G03*
X10905000Y-5895000I0J-110000D01*
G01*
X9580000Y-9445000D02*
G75*
G03*
X9690000Y-9335000I0J110000D01*
G01*
X9690000Y-9665000D02*
G75*
G03*
X9580000Y-9555000I-110000J0D01*
G01*
X12515000Y-5785000D02*
G75*
G03*
X12405000Y-5895000I0J-110000D01*
G01*
X14554999Y-14175001D02*
G75*
G03*
X14664999Y-14285001I110001J2D01*
G01*
D11*
X17700000Y-4900000D02*
G75*
G03*
X17700000Y-4900000I-100000J0D01*
G01*
D10*
X13485000Y-6215000D02*
X13164999Y-6215000D01*
X14810000Y-9665000D02*
X14810000Y-9700000D01*
X14445001Y-6324998D02*
G75*
G03*
X14335001Y-6214999I-110001J-2D01*
G01*
X13310000Y-8200000D02*
X13310000Y-7800000D01*
X11190000Y-9665000D02*
G75*
G03*
X11080000Y-9555000I-110000J0D01*
G01*
D12*
X7750000Y-5500000D02*
G75*
G03*
X7500000Y-5750000I0J-250000D01*
G01*
D10*
X13905000Y-14605000D02*
G75*
G03*
X14015000Y-14715000I110000J0D01*
G01*
X11300000Y-12190000D02*
G75*
G03*
X11190000Y-12300000I0J-110000D01*
G01*
X9515000Y-14285000D02*
X9835001Y-14285000D01*
X9835001Y-6214999D02*
X9515000Y-6215000D01*
X13310000Y-10835000D02*
G75*
G03*
X13420000Y-10945000I110000J0D01*
G01*
X10595000Y-5895000D02*
X10595000Y-6105000D01*
X9580000Y-11055000D02*
G75*
G03*
X9535000Y-11100000I0J-45000D01*
G01*
X7785000Y-11485000D02*
G75*
G03*
X7895000Y-11595000I110000J0D01*
G01*
X13165000Y-9190000D02*
X13200000Y-9190000D01*
X15320002Y-12445001D02*
X16175001Y-12445001D01*
X9945000Y-7580000D02*
G75*
G03*
X9900000Y-7535000I-45000J0D01*
G01*
X11985000Y-14715000D02*
G75*
G03*
X12095000Y-14605000I0J110000D01*
G01*
X7500000Y-9015000D02*
X7500000Y-8485000D01*
X14700000Y-11310000D02*
G75*
G03*
X14810000Y-11200000I0J110000D01*
G01*
X14920000Y-11055000D02*
G75*
G03*
X15075000Y-10900000I0J155000D01*
G01*
X11335000Y-7690000D02*
G75*
G03*
X11445000Y-7580000I0J110000D01*
G01*
X11555000Y-11420000D02*
G75*
G03*
X11600000Y-11465000I45000J0D01*
G01*
X11555000Y-7580000D02*
G75*
G03*
X11400000Y-7425000I-155000J0D01*
G01*
X14445000Y-12920000D02*
G75*
G03*
X14600000Y-13075000I155000J0D01*
G01*
X8324998Y-9554999D02*
G75*
G03*
X8214999Y-9664999I2J-110001D01*
G01*
X11080000Y-9555000D02*
G75*
G03*
X11035000Y-9600000I0J-45000D01*
G01*
X7895000Y-10405000D02*
G75*
G03*
X7785000Y-10515000I0J-110000D01*
G01*
X13055000Y-9080000D02*
G75*
G03*
X13165000Y-9190000I110000J0D01*
G01*
X12945000Y-13320000D02*
X12945000Y-14175000D01*
X12900000Y-7335000D02*
G75*
G03*
X13055000Y-7180000I0J155000D01*
G01*
X11810000Y-10800000D02*
X11810000Y-11200000D01*
X14300000Y-12190000D02*
G75*
G03*
X14190000Y-12300000I0J-110000D01*
G01*
X13310000Y-10835000D02*
X13310000Y-10800000D01*
X11700000Y-8310000D02*
G75*
G03*
X11810000Y-8200000I0J110000D01*
G01*
X9335000Y-11100000D02*
G75*
G03*
X9425000Y-11100000I45000J0D01*
G01*
X16285001Y-12335001D02*
X16285000Y-12015000D01*
X11445001Y-6324998D02*
G75*
G03*
X11335001Y-6214999I-110001J-2D01*
G01*
X11445000Y-7580000D02*
G75*
G03*
X11400000Y-7535000I-45000J0D01*
G01*
X13905000Y-5895000D02*
X13905000Y-6105000D01*
X11190000Y-10800000D02*
X11190000Y-11200000D01*
X15275000Y-9400000D02*
G75*
G03*
X14965000Y-9400000I-155000J0D01*
G01*
X9515001Y-15000000D02*
X7750000Y-15000000D01*
X16605000Y-8595000D02*
G75*
G03*
X16715000Y-8485000I0J110000D01*
G01*
X14810000Y-7800000D02*
G75*
G03*
X14700000Y-7690000I-110000J0D01*
G01*
X12945000Y-12920000D02*
G75*
G03*
X12835000Y-12810000I-110000J0D01*
G01*
X14810000Y-9335000D02*
G75*
G03*
X14920000Y-9445000I110000J0D01*
G01*
X12800000Y-12190000D02*
G75*
G03*
X12690000Y-12300000I0J-110000D01*
G01*
X12690000Y-12700000D02*
G75*
G03*
X12800000Y-12810000I110000J0D01*
G01*
X11190000Y-8200000D02*
X11190000Y-7800000D01*
X14015000Y-5785000D02*
G75*
G03*
X13905000Y-5895000I0J-110000D01*
G01*
X11810000Y-9300000D02*
X11810000Y-9700000D01*
X10595000Y-5895000D02*
G75*
G03*
X10485000Y-5785000I-110000J0D01*
G01*
X14920000Y-9445000D02*
G75*
G03*
X14965000Y-9400000I0J45000D01*
G01*
X14810000Y-11165000D02*
X14810000Y-11200000D01*
X8215000Y-10515000D02*
X8215000Y-10835001D01*
X11665000Y-12810000D02*
G75*
G03*
X11555000Y-12920000I0J-110000D01*
G01*
X10905000Y-6105000D02*
G75*
G03*
X11015000Y-6215000I110000J0D01*
G01*
X13595000Y-5895000D02*
G75*
G03*
X13485000Y-5785000I-110000J0D01*
G01*
X12835000Y-9190000D02*
G75*
G03*
X12945000Y-9080000I0J110000D01*
G01*
X16285000Y-12985000D02*
G75*
G03*
X16395000Y-13095000I110000J0D01*
G01*
X14445000Y-13320000D02*
X14445000Y-14175000D01*
X14985000Y-15000000D02*
X16750000Y-15000000D01*
X13420000Y-11055000D02*
G75*
G03*
X13310000Y-11165000I0J-110000D01*
G01*
X12095000Y-14395000D02*
G75*
G03*
X11985000Y-14285000I-110000J0D01*
G01*
X12690000Y-9700000D02*
G75*
G03*
X12800000Y-9810000I110000J0D01*
G01*
X17000000Y-11485000D02*
G75*
G03*
X16715000Y-11485000I-142500J0D01*
G01*
X10905000Y-5895000D02*
X10905000Y-6105000D01*
X12405000Y-6105000D02*
G75*
G03*
X12515000Y-6215000I110000J0D01*
G01*
X16285001Y-10835001D02*
X16285000Y-10515000D01*
X15320000Y-8055000D02*
X16175000Y-8055000D01*
X13164999Y-6215000D02*
G75*
G03*
X13055000Y-6325000I1J-110000D01*
G01*
X13055000Y-7580000D02*
G75*
G03*
X13165000Y-7690000I110000J0D01*
G01*
X11335000Y-11310000D02*
X11300000Y-11310000D01*
X8215000Y-7835001D02*
G75*
G03*
X8325000Y-7945000I110000J1D01*
G01*
X12515000Y-5785000D02*
G75*
G03*
X12515000Y-5500000I0J142500D01*
G01*
X14920000Y-9555000D02*
G75*
G03*
X14810000Y-9665000I0J-110000D01*
G01*
X10310000Y-12300000D02*
G75*
G03*
X10200000Y-12190000I-110000J0D01*
G01*
X12945000Y-9080000D02*
G75*
G03*
X12900000Y-9035000I-45000J0D01*
G01*
D11*
X6900000Y-4600000D02*
X17600000Y-4600000D01*
D10*
X10310000Y-8200000D02*
X10310000Y-7800000D01*
X12835001Y-14285000D02*
G75*
G03*
X12945000Y-14175000I-1J110000D01*
G01*
X9289602Y-7990399D02*
G75*
G03*
X9180000Y-7945000I-109602J-109601D01*
G01*
X11600000Y-11775000D02*
G75*
G03*
X11568179Y-11788181I0J-45000D01*
G01*
X13200000Y-11310000D02*
G75*
G03*
X13310000Y-11200000I0J110000D01*
G01*
X14015000Y-15000000D02*
X13485000Y-15000000D01*
X11445000Y-11420000D02*
G75*
G03*
X11600000Y-11575000I155000J0D01*
G01*
X13200000Y-9810000D02*
G75*
G03*
X13310000Y-9700000I0J110000D01*
G01*
X14664999Y-14285001D02*
X14985000Y-14285000D01*
X16285000Y-8164999D02*
G75*
G03*
X16175000Y-8055000I-110000J-1D01*
G01*
X16715000Y-10515000D02*
G75*
G03*
X17000000Y-10515000I142500J0D01*
G01*
X9580000Y-12445000D02*
G75*
G03*
X9690000Y-12335000I0J110000D01*
G01*
X10164999Y-14285001D02*
X10485000Y-14285000D01*
X11700000Y-11310000D02*
G75*
G03*
X11810000Y-11200000I0J110000D01*
G01*
X8105000Y-13095000D02*
G75*
G03*
X8215000Y-12985000I0J110000D01*
G01*
X9515000Y-5785000D02*
G75*
G03*
X9515000Y-5500000I0J142500D01*
G01*
X16605000Y-11595000D02*
X16395000Y-11595000D01*
X13054999Y-13320002D02*
X13054999Y-14175001D01*
X13665000Y-10900000D02*
G75*
G03*
X13575000Y-10900000I-45000J0D01*
G01*
X17000000Y-7515000D02*
X17000000Y-5750000D01*
X14985000Y-5500000D02*
G75*
G03*
X14985000Y-5785000I0J-142500D01*
G01*
X15288180Y-12431820D02*
X13788181Y-10931821D01*
X11700000Y-9190000D02*
X11300000Y-9190000D01*
X15320000Y-11055000D02*
X16175000Y-11055000D01*
X12835000Y-12810000D02*
X12800000Y-12810000D01*
X7785000Y-9985000D02*
G75*
G03*
X7895000Y-10095000I110000J0D01*
G01*
X14810000Y-9335000D02*
X14810000Y-9300000D01*
X13420000Y-10945000D02*
G75*
G03*
X13465000Y-10900000I0J45000D01*
G01*
X9179998Y-9554999D02*
X8324998Y-9554999D01*
X16605000Y-10095000D02*
G75*
G03*
X16715000Y-9985000I0J110000D01*
G01*
X14335001Y-14285000D02*
G75*
G03*
X14445000Y-14175000I-1J110000D01*
G01*
X12835000Y-9190000D02*
X12800000Y-9190000D01*
X16605000Y-8595001D02*
X16395000Y-8595001D01*
X16175001Y-9445001D02*
G75*
G03*
X16285001Y-9335001I-2J110001D01*
G01*
X11190000Y-9700000D02*
G75*
G03*
X11300000Y-9810000I110000J0D01*
G01*
X11554999Y-13320002D02*
X11554999Y-14175001D01*
X11600000Y-11775000D02*
G75*
G03*
X11600000Y-11465000I0J155000D01*
G01*
X12800000Y-9190000D02*
G75*
G03*
X12690000Y-9300000I0J-110000D01*
G01*
D11*
X6900000Y-4600000D02*
G75*
G03*
X6600000Y-4900000I0J-300000D01*
G01*
D10*
X16285000Y-11164999D02*
G75*
G03*
X16175000Y-11055000I-110000J-1D01*
G01*
X16395000Y-10405000D02*
G75*
G03*
X16285000Y-10515000I0J-110000D01*
G01*
X8215000Y-7515000D02*
G75*
G03*
X8105000Y-7405000I-110000J0D01*
G01*
X13200000Y-8310000D02*
G75*
G03*
X13310000Y-8200000I0J110000D01*
G01*
X16605000Y-11595000D02*
G75*
G03*
X16715000Y-11485000I0J110000D01*
G01*
X7785000Y-9985000D02*
G75*
G03*
X7500000Y-9985000I-142500J0D01*
G01*
X12945001Y-6324998D02*
G75*
G03*
X12835001Y-6214999I-110001J-2D01*
G01*
X14300000Y-7690000D02*
G75*
G03*
X14190000Y-7800000I0J-110000D01*
G01*
X13310000Y-9700000D02*
X13310000Y-9300000D01*
X11300000Y-10690000D02*
G75*
G03*
X11190000Y-10800000I0J-110000D01*
G01*
X11664999Y-6215000D02*
G75*
G03*
X11555000Y-6325000I1J-110000D01*
G01*
X11445001Y-7179998D02*
X11445001Y-6324998D01*
X9945001Y-7179998D02*
X9945001Y-6324998D01*
X14985000Y-14715000D02*
G75*
G03*
X15095000Y-14605000I0J110000D01*
G01*
X16285001Y-7835001D02*
X16285000Y-7515000D01*
D11*
X7000000Y-4900000D02*
G75*
G03*
X7000000Y-4900000I-100000J0D01*
G01*
D10*
X16175001Y-12445001D02*
G75*
G03*
X16285001Y-12335001I-2J110001D01*
G01*
X12945001Y-7179998D02*
X12945001Y-6324998D01*
X12515000Y-14285000D02*
X12835001Y-14285000D01*
X10310000Y-9300000D02*
X10310000Y-9700000D01*
X7500000Y-10515000D02*
X7500000Y-9985000D01*
X8105000Y-8595000D02*
G75*
G03*
X8215000Y-8485000I0J110000D01*
G01*
X17000000Y-9985000D02*
X17000000Y-10515000D01*
X16605000Y-10405000D02*
X16395000Y-10405000D01*
X16605000Y-7405000D02*
X16395000Y-7405000D01*
X10595000Y-14395000D02*
G75*
G03*
X10485000Y-14285000I-110000J0D01*
G01*
X11335001Y-6214999D02*
X11015000Y-6215000D01*
X11810000Y-9300000D02*
G75*
G03*
X11700000Y-9190000I-110000J0D01*
G01*
X8215000Y-10515000D02*
G75*
G03*
X8105000Y-10405000I-110000J0D01*
G01*
X12900000Y-8835000D02*
G75*
G03*
X12900000Y-8925000I0J-45000D01*
G01*
D11*
X17600000Y-15900000D02*
X6900000Y-15900000D01*
D10*
X9580000Y-9555000D02*
G75*
G03*
X9535000Y-9600000I0J-45000D01*
G01*
X13904999Y-14605000D02*
X13904999Y-14395000D01*
X15320002Y-7945001D02*
X16175001Y-7945001D01*
X16605000Y-8905000D02*
X16395000Y-8905000D01*
X17000000Y-8485000D02*
X17000000Y-9015000D01*
X14015000Y-14285000D02*
X14335001Y-14285000D01*
D11*
X7000000Y-15600000D02*
G75*
G03*
X7000000Y-15600000I-100000J0D01*
G01*
D10*
X11015000Y-15000000D02*
X10485000Y-15000000D01*
X9990399Y-13210398D02*
G75*
G03*
X9945000Y-13320000I109601J-109602D01*
G01*
X14985000Y-6215000D02*
G75*
G03*
X15095000Y-6105000I0J110000D01*
G01*
X8324998Y-12554999D02*
G75*
G03*
X8214999Y-12664999I2J-110001D01*
G01*
X14700000Y-12190000D02*
X14300000Y-12190000D01*
X9945001Y-6324998D02*
G75*
G03*
X9835001Y-6214999I-110001J-2D01*
G01*
X7895000Y-10404999D02*
X8105000Y-10405000D01*
X9945000Y-13320000D02*
X9945000Y-14175000D01*
X7785000Y-12985000D02*
G75*
G03*
X7500000Y-12985000I-142500J0D01*
G01*
X12515000Y-14285000D02*
G75*
G03*
X12405000Y-14395000I0J-110000D01*
G01*
X16715000Y-12015000D02*
G75*
G03*
X17000000Y-12015000I142500J0D01*
G01*
X13485000Y-14715000D02*
G75*
G03*
X13595000Y-14605000I0J110000D01*
G01*
X17000000Y-12985000D02*
G75*
G03*
X16715000Y-12985000I-142500J0D01*
G01*
X9690000Y-12335000D02*
X9690000Y-12300000D01*
X9405000Y-5895000D02*
X9405000Y-6105000D01*
X11985000Y-6215000D02*
X11664999Y-6215000D01*
X10835000Y-9600000D02*
G75*
G03*
X10925000Y-9600000I45000J0D01*
G01*
X11555000Y-7180000D02*
X11555000Y-6325000D01*
D12*
X16750000Y-15000000D02*
G75*
G03*
X17000000Y-14750000I0J250000D01*
G01*
D10*
X9800000Y-8310000D02*
X10200000Y-8310000D01*
X16605000Y-10095001D02*
X16395000Y-10095001D01*
X16285000Y-8485000D02*
G75*
G03*
X16395000Y-8595000I110000J0D01*
G01*
X8215000Y-10835001D02*
G75*
G03*
X8325000Y-10945000I110000J1D01*
G01*
X8215000Y-12015000D02*
X8215000Y-12335001D01*
X7895000Y-7405000D02*
X8105000Y-7405000D01*
X11445000Y-13320000D02*
X11445000Y-14175000D01*
X7895000Y-10095000D02*
X8105000Y-10095000D01*
X8215000Y-9335001D02*
G75*
G03*
X8325000Y-9445000I110000J1D01*
G01*
X13595000Y-14605000D02*
X13595000Y-14395000D01*
D11*
X17700000Y-15600000D02*
G75*
G03*
X17700000Y-15600000I-100000J0D01*
G01*
D10*
X17000000Y-11485000D02*
X17000000Y-12015000D01*
X16395000Y-7405000D02*
G75*
G03*
X16285000Y-7515000I0J-110000D01*
G01*
X8214999Y-9664999D02*
X8215000Y-9985000D01*
D11*
X17900000Y-4900000D02*
X17900000Y-15600000D01*
D10*
X9515000Y-5785000D02*
G75*
G03*
X9405000Y-5895000I0J-110000D01*
G01*
X11015000Y-14285000D02*
X11335001Y-14285000D01*
X7500000Y-7515000D02*
G75*
G03*
X7785000Y-7515000I142500J0D01*
G01*
X10485000Y-5500000D02*
G75*
G03*
X10485000Y-5785000I0J-142500D01*
G01*
X9179998Y-12554999D02*
X8324998Y-12554999D01*
X7895000Y-11905000D02*
X8105000Y-11905000D01*
X9180000Y-7945000D02*
X8325000Y-7945000D01*
X11810000Y-10800000D02*
G75*
G03*
X11700000Y-10690000I-110000J0D01*
G01*
X15210398Y-12509601D02*
X13710398Y-11009602D01*
X14190000Y-11200000D02*
X14190000Y-10800000D01*
X14190000Y-9300000D02*
X14190000Y-9700000D01*
X10054999Y-14175001D02*
G75*
G03*
X10164999Y-14285001I110001J2D01*
G01*
X11080000Y-9445000D02*
G75*
G03*
X10925000Y-9600000I0J-155000D01*
G01*
X7895000Y-8595000D02*
X8105000Y-8595000D01*
X7500000Y-12015000D02*
X7500000Y-11485000D01*
X9180000Y-9445000D02*
X8325000Y-9445000D01*
X12690000Y-10800000D02*
X12690000Y-11200000D01*
X13905000Y-6105000D02*
G75*
G03*
X14015000Y-6215000I110000J0D01*
G01*
X11190000Y-9335000D02*
X11190000Y-9300000D01*
X9835001Y-14285000D02*
G75*
G03*
X9945000Y-14175000I-1J110000D01*
G01*
X7895000Y-11595000D02*
X8105000Y-11595000D01*
X16285000Y-12664999D02*
G75*
G03*
X16175000Y-12555000I-110000J-1D01*
G01*
D11*
X17900000Y-4900000D02*
G75*
G03*
X17600000Y-4600000I-300000J0D01*
G01*
D10*
X15320000Y-9555000D02*
X16175000Y-9555000D01*
X9180000Y-12445000D02*
X8325000Y-12445000D01*
D12*
X17000000Y-5750000D02*
G75*
G03*
X16750000Y-5500000I-250000J0D01*
G01*
D10*
X10164999Y-6215000D02*
G75*
G03*
X10055000Y-6325000I1J-110000D01*
G01*
X16715000Y-9015000D02*
G75*
G03*
X16605000Y-8905000I-110000J0D01*
G01*
X9289602Y-7990399D02*
X10789602Y-9490398D01*
X15320002Y-10945001D02*
X16175001Y-10945001D01*
X11985000Y-5500000D02*
G75*
G03*
X11985000Y-5785000I0J-142500D01*
G01*
X12095000Y-14605000D02*
X12095000Y-14395000D01*
D12*
X7500000Y-14750000D02*
G75*
G03*
X7750000Y-15000000I250000J0D01*
G01*
D10*
X10725000Y-9600000D02*
G75*
G03*
X11035000Y-9600000I155000J0D01*
G01*
X15210398Y-12509601D02*
G75*
G03*
X15320000Y-12555000I109602J109601D01*
G01*
X11554999Y-14175001D02*
G75*
G03*
X11664999Y-14285001I110001J2D01*
G01*
X16285000Y-9664999D02*
G75*
G03*
X16175000Y-9555000I-110000J-1D01*
G01*
X16395000Y-8905000D02*
G75*
G03*
X16285000Y-9015000I0J-110000D01*
G01*
X10835000Y-9600000D02*
G75*
G03*
X10789602Y-9490398I-155000J0D01*
G01*
X10310000Y-11200000D02*
X10310000Y-10800000D01*
X7895000Y-7405000D02*
G75*
G03*
X7785000Y-7515000I0J-110000D01*
G01*
X10485000Y-6215000D02*
X10164999Y-6215000D01*
X13485000Y-5500000D02*
X14015000Y-5500000D01*
X11600000Y-11665000D02*
G75*
G03*
X11490398Y-11710398I0J-155000D01*
G01*
X12515000Y-15000000D02*
X11985000Y-15000000D01*
X11015000Y-15000000D02*
G75*
G03*
X11015000Y-14715000I0J142500D01*
G01*
X7500000Y-7515000D02*
X7500000Y-5750000D01*
X16605000Y-11905000D02*
X16395000Y-11905000D01*
X16395000Y-11905000D02*
G75*
G03*
X16285000Y-12015000I0J-110000D01*
G01*
X14985000Y-14715000D02*
G75*
G03*
X14985000Y-15000000I0J-142500D01*
G01*
X13775000Y-10900000D02*
G75*
G03*
X13788181Y-10931821I45000J0D01*
G01*
X11700000Y-10690000D02*
X11300000Y-10690000D01*
X14664999Y-6215000D02*
G75*
G03*
X14555000Y-6325000I1J-110000D01*
G01*
X9990399Y-13210398D02*
X11490398Y-11710398D01*
X17000000Y-12984999D02*
X17000000Y-14750000D01*
X10595000Y-14605000D02*
X10595000Y-14395000D01*
X14431820Y-7211820D02*
X12931821Y-8711819D01*
D11*
X17600000Y-15900000D02*
G75*
G03*
X17900000Y-15600000I0J300000D01*
G01*
D10*
X10068180Y-13288180D02*
G75*
G03*
X10055000Y-13320002I31820J-31820D01*
G01*
X10905000Y-14605000D02*
X10905000Y-14395000D01*
X15095000Y-5895000D02*
X15095000Y-6105000D01*
D11*
X6600000Y-15600000D02*
G75*
G03*
X6900000Y-15900000I300000J0D01*
G01*
D10*
X15095000Y-5895000D02*
G75*
G03*
X14985000Y-5785000I-110000J0D01*
G01*
X7500000Y-9015000D02*
G75*
G03*
X7785000Y-9015000I142500J0D01*
G01*
X14509601Y-7289602D02*
G75*
G03*
X14555000Y-7180000I-109601J109602D01*
G01*
X7785000Y-8485001D02*
G75*
G03*
X7500000Y-8485000I-142500J1D01*
G01*
X16285001Y-9335001D02*
X16285000Y-9015000D01*
X8214999Y-8164999D02*
X8215000Y-8485000D01*
X13200000Y-12190000D02*
X12800000Y-12190000D01*
X11985000Y-5500000D02*
X12515000Y-5500000D01*
X17000000Y-9985000D02*
G75*
G03*
X16715000Y-9985000I-142500J0D01*
G01*
X10725000Y-9600000D02*
G75*
G03*
X10711819Y-9568179I-45000J0D01*
G01*
X12404999Y-14605000D02*
X12404999Y-14395000D01*
X16605000Y-13095000D02*
G75*
G03*
X16715000Y-12985000I0J110000D01*
G01*
X10055000Y-7180000D02*
X10055000Y-6325000D01*
X11700000Y-9810000D02*
G75*
G03*
X11810000Y-9700000I0J110000D01*
G01*
X14985000Y-6215000D02*
X14664999Y-6215000D01*
X16285000Y-9985000D02*
X16285000Y-9664999D01*
X16715000Y-12015000D02*
G75*
G03*
X16605000Y-11905000I-110000J0D01*
G01*
X15095000Y-14605000D02*
X15095000Y-14395000D01*
X9179998Y-8054999D02*
X8324998Y-8054999D01*
X14431820Y-7211820D02*
G75*
G03*
X14445000Y-7179998I-31820J31820D01*
G01*
X16715000Y-7515000D02*
G75*
G03*
X17000000Y-7515000I142500J0D01*
G01*
X16715000Y-9015000D02*
G75*
G03*
X17000000Y-9015000I142500J0D01*
G01*
X13665000Y-10900000D02*
G75*
G03*
X13710398Y-11009602I155000J0D01*
G01*
X15320000Y-12555000D02*
X16175000Y-12555000D01*
X13200000Y-9810000D02*
X12800000Y-9810000D01*
X12900000Y-8835000D02*
G75*
G03*
X13009602Y-8789602I0J155000D01*
G01*
X9405000Y-14605000D02*
G75*
G03*
X9515000Y-14715000I110000J0D01*
G01*
X11300000Y-12190000D02*
X11700000Y-12190000D01*
X11300000Y-8310000D02*
X11700000Y-8310000D01*
X16605000Y-13095000D02*
X16395000Y-13094999D01*
X10485000Y-5500000D02*
X11015000Y-5500000D01*
X9515000Y-5500000D02*
X7750000Y-5500000D01*
X10054999Y-13320002D02*
X10054999Y-14175001D01*
X11015000Y-5785000D02*
G75*
G03*
X11015000Y-5500000I0J142500D01*
G01*
X14445001Y-7179998D02*
X14445001Y-6324998D01*
X7785000Y-8485000D02*
G75*
G03*
X7895000Y-8595000I110000J0D01*
G01*
X14985000Y-5500000D02*
X16750000Y-5500000D01*
X10485001Y-14715000D02*
G75*
G03*
X10485000Y-15000000I-1J-142500D01*
G01*
X14509601Y-7289602D02*
X13009602Y-8789602D01*
X9515000Y-15000000D02*
G75*
G03*
X9515000Y-14715000I0J142500D01*
G01*
X15288180Y-12431820D02*
G75*
G03*
X15320002Y-12445000I31820J31820D01*
G01*
X7785000Y-11485000D02*
G75*
G03*
X7500000Y-11485000I-142500J0D01*
G01*
X9211820Y-8068180D02*
X10711819Y-9568179D01*
D11*
X6600000Y-15600000D02*
X6600000Y-4900000D01*
D10*
X7895000Y-13095000D02*
X8105000Y-13095000D01*
X13200000Y-8310000D02*
X12800000Y-8310000D01*
X13164999Y-14285001D02*
X13485000Y-14285000D01*
X17000000Y-8485000D02*
G75*
G03*
X16715000Y-8485000I-142500J0D01*
G01*
X13485000Y-5500000D02*
G75*
G03*
X13485000Y-5785000I0J-142500D01*
G01*
X14555000Y-7180000D02*
X14555000Y-6325000D01*
X10068180Y-13288180D02*
X11568179Y-11788181D01*
X12095000Y-6105000D02*
X12095000Y-5895000D01*
X14015000Y-5785000D02*
G75*
G03*
X14015000Y-5500000I0J142500D01*
G01*
X11985000Y-14715000D02*
G75*
G03*
X11985000Y-15000000I0J-142500D01*
G01*
X10485000Y-14715000D02*
G75*
G03*
X10595000Y-14605000I0J110000D01*
G01*
X16285000Y-9985000D02*
G75*
G03*
X16395000Y-10095000I110000J0D01*
G01*
X14015000Y-15000000D02*
G75*
G03*
X14015000Y-14715000I0J142500D01*
G01*
X12405000Y-6105000D02*
X12405000Y-5895000D01*
X7895000Y-8905000D02*
X8105000Y-8905000D01*
X7500000Y-10515000D02*
G75*
G03*
X7785000Y-10515000I142500J0D01*
G01*
X14190000Y-7800000D02*
X14190000Y-8200000D01*
X13595000Y-6105000D02*
X13595000Y-5895000D01*
X12515000Y-15000000D02*
G75*
G03*
X12515000Y-14715000I0J142500D01*
G01*
X14335001Y-6214999D02*
X14015000Y-6215000D01*
X9405000Y-14395000D02*
X9405000Y-14605000D01*
X8324998Y-8054999D02*
G75*
G03*
X8214999Y-8164999I2J-110001D01*
G01*
D13*
X6858872Y-16213389D02*
X6858872Y-16013389D01*
X6858872Y-16013389D02*
X6906491Y-16013389D01*
X6906491Y-16013389D02*
X6935062Y-16022913D01*
X6935062Y-16022913D02*
X6954110Y-16041960D01*
X6954110Y-16041960D02*
X6963634Y-16061008D01*
X6963634Y-16061008D02*
X6973157Y-16099103D01*
X6973157Y-16099103D02*
X6973157Y-16127674D01*
X6973157Y-16127674D02*
X6963634Y-16165770D01*
X6963634Y-16165770D02*
X6954110Y-16184817D01*
X6954110Y-16184817D02*
X6935062Y-16203865D01*
X6935062Y-16203865D02*
X6906491Y-16213389D01*
X6906491Y-16213389D02*
X6858872Y-16213389D01*
X7058872Y-16213389D02*
X7058872Y-16080055D01*
X7058872Y-16118151D02*
X7068396Y-16099103D01*
X7068396Y-16099103D02*
X7077919Y-16089579D01*
X7077919Y-16089579D02*
X7096967Y-16080055D01*
X7096967Y-16080055D02*
X7116015Y-16080055D01*
X7182681Y-16213389D02*
X7182681Y-16080055D01*
X7182681Y-16013389D02*
X7173157Y-16022913D01*
X7173157Y-16022913D02*
X7182681Y-16032436D01*
X7182681Y-16032436D02*
X7192205Y-16022913D01*
X7192205Y-16022913D02*
X7182681Y-16013389D01*
X7182681Y-16013389D02*
X7182681Y-16032436D01*
X7306491Y-16213389D02*
X7287443Y-16203865D01*
X7287443Y-16203865D02*
X7277919Y-16184817D01*
X7277919Y-16184817D02*
X7277919Y-16013389D01*
X7411253Y-16213389D02*
X7392205Y-16203865D01*
X7392205Y-16203865D02*
X7382681Y-16184817D01*
X7382681Y-16184817D02*
X7382681Y-16013389D01*
X7639824Y-16213389D02*
X7639824Y-16013389D01*
X7639824Y-16013389D02*
X7706491Y-16156246D01*
X7706491Y-16156246D02*
X7773157Y-16013389D01*
X7773157Y-16013389D02*
X7773157Y-16213389D01*
X7954110Y-16213389D02*
X7954110Y-16108627D01*
X7954110Y-16108627D02*
X7944586Y-16089579D01*
X7944586Y-16089579D02*
X7925538Y-16080055D01*
X7925538Y-16080055D02*
X7887443Y-16080055D01*
X7887443Y-16080055D02*
X7868396Y-16089579D01*
X7954110Y-16203865D02*
X7935062Y-16213389D01*
X7935062Y-16213389D02*
X7887443Y-16213389D01*
X7887443Y-16213389D02*
X7868396Y-16203865D01*
X7868396Y-16203865D02*
X7858872Y-16184817D01*
X7858872Y-16184817D02*
X7858872Y-16165770D01*
X7858872Y-16165770D02*
X7868396Y-16146722D01*
X7868396Y-16146722D02*
X7887443Y-16137198D01*
X7887443Y-16137198D02*
X7935062Y-16137198D01*
X7935062Y-16137198D02*
X7954110Y-16127674D01*
X8049348Y-16080055D02*
X8049348Y-16280055D01*
X8049348Y-16089579D02*
X8068396Y-16080055D01*
X8068396Y-16080055D02*
X8106491Y-16080055D01*
X8106491Y-16080055D02*
X8125538Y-16089579D01*
X8125538Y-16089579D02*
X8135062Y-16099103D01*
X8135062Y-16099103D02*
X8144586Y-16118151D01*
X8144586Y-16118151D02*
X8144586Y-16175293D01*
X8144586Y-16175293D02*
X8135062Y-16194341D01*
X8135062Y-16194341D02*
X8125538Y-16203865D01*
X8125538Y-16203865D02*
X8106491Y-16213389D01*
X8106491Y-16213389D02*
X8068396Y-16213389D01*
X8068396Y-16213389D02*
X8049348Y-16203865D01*
X8230300Y-16194341D02*
X8239824Y-16203865D01*
X8239824Y-16203865D02*
X8230300Y-16213389D01*
X8230300Y-16213389D02*
X8220777Y-16203865D01*
X8220777Y-16203865D02*
X8230300Y-16194341D01*
X8230300Y-16194341D02*
X8230300Y-16213389D01*
X8230300Y-16089579D02*
X8239824Y-16099103D01*
X8239824Y-16099103D02*
X8230300Y-16108627D01*
X8230300Y-16108627D02*
X8220777Y-16099103D01*
X8220777Y-16099103D02*
X8230300Y-16089579D01*
X8230300Y-16089579D02*
X8230300Y-16108627D01*
M02*
