G04 #@! TF.GenerationSoftware,KiCad,Pcbnew,8.0.1-unknown-202403172319~81f55dfc9c~ubuntu22.04.1*
G04 #@! TF.CreationDate,2024-03-25T12:05:19+00:00*
G04 #@! TF.ProjectId,LIS3DH_array,4c495333-4448-45f6-9172-7261792e6b69,rev?*
G04 #@! TF.SameCoordinates,Original*
G04 #@! TF.FileFunction,Other,ECO2*
%FSLAX46Y46*%
G04 Gerber Fmt 4.6, Leading zero omitted, Abs format (unit mm)*
G04 Created by KiCad (PCBNEW 8.0.1-unknown-202403172319~81f55dfc9c~ubuntu22.04.1) date 2024-03-25 12:05:19*
%MOMM*%
%LPD*%
G01*
G04 APERTURE LIST*
G04 APERTURE END LIST*
G36*
X148343039Y-57269685D02*
G01*
X148388794Y-57322489D01*
X148400000Y-57374000D01*
X148400000Y-60648794D01*
X148399976Y-60651226D01*
X148397855Y-60759339D01*
X148396352Y-60776306D01*
X148362335Y-60991071D01*
X148357793Y-61009990D01*
X148290977Y-61215630D01*
X148283531Y-61233607D01*
X148185365Y-61426267D01*
X148175198Y-61442857D01*
X148048108Y-61617782D01*
X148035471Y-61632578D01*
X147882578Y-61785471D01*
X147867782Y-61798108D01*
X147692857Y-61925198D01*
X147676267Y-61935365D01*
X147483607Y-62033531D01*
X147465630Y-62040977D01*
X147259990Y-62107793D01*
X147241071Y-62112335D01*
X147026305Y-62146352D01*
X147009342Y-62147855D01*
X146901226Y-62149979D01*
X146898790Y-62150003D01*
X146650003Y-62150003D01*
X146541915Y-62152652D01*
X146541909Y-62152653D01*
X146323936Y-62196012D01*
X146323861Y-62195637D01*
X146294454Y-62200000D01*
X143705578Y-62200000D01*
X143676139Y-62195632D01*
X143676066Y-62196003D01*
X143458090Y-62152643D01*
X143349996Y-62149991D01*
X143101176Y-62149991D01*
X143098870Y-62149970D01*
X142990712Y-62147958D01*
X142973620Y-62146452D01*
X142758903Y-62112444D01*
X142739983Y-62107902D01*
X142534325Y-62041080D01*
X142516348Y-62033634D01*
X142323671Y-61935459D01*
X142307081Y-61925292D01*
X142132145Y-61798194D01*
X142117348Y-61785557D01*
X141964436Y-61632644D01*
X141951800Y-61617848D01*
X141824700Y-61442908D01*
X141814533Y-61426317D01*
X141716362Y-61233644D01*
X141708916Y-61215668D01*
X141642095Y-61010013D01*
X141637552Y-60991092D01*
X141603543Y-60776355D01*
X141602039Y-60759268D01*
X141600025Y-60651170D01*
X141600003Y-60648860D01*
X141600003Y-57374000D01*
X141619688Y-57306961D01*
X141672492Y-57261206D01*
X141724003Y-57250000D01*
X148276000Y-57250000D01*
X148343039Y-57269685D01*
G37*
G36*
X133343039Y-57269685D02*
G01*
X133388794Y-57322489D01*
X133400000Y-57374000D01*
X133400000Y-60648794D01*
X133399976Y-60651226D01*
X133397855Y-60759339D01*
X133396352Y-60776306D01*
X133362335Y-60991071D01*
X133357793Y-61009990D01*
X133290977Y-61215630D01*
X133283531Y-61233607D01*
X133185365Y-61426267D01*
X133175198Y-61442857D01*
X133048108Y-61617782D01*
X133035471Y-61632578D01*
X132882578Y-61785471D01*
X132867782Y-61798108D01*
X132692857Y-61925198D01*
X132676267Y-61935365D01*
X132483607Y-62033531D01*
X132465630Y-62040977D01*
X132259990Y-62107793D01*
X132241071Y-62112335D01*
X132026305Y-62146352D01*
X132009342Y-62147855D01*
X131901226Y-62149979D01*
X131898790Y-62150003D01*
X131650003Y-62150003D01*
X131541915Y-62152652D01*
X131541909Y-62152653D01*
X131323936Y-62196012D01*
X131323861Y-62195637D01*
X131294454Y-62200000D01*
X128705578Y-62200000D01*
X128676139Y-62195632D01*
X128676066Y-62196003D01*
X128458090Y-62152643D01*
X128349996Y-62149991D01*
X128101176Y-62149991D01*
X128098870Y-62149970D01*
X127990712Y-62147958D01*
X127973620Y-62146452D01*
X127758903Y-62112444D01*
X127739983Y-62107902D01*
X127534325Y-62041080D01*
X127516348Y-62033634D01*
X127323671Y-61935459D01*
X127307081Y-61925292D01*
X127132145Y-61798194D01*
X127117348Y-61785557D01*
X126964436Y-61632644D01*
X126951800Y-61617848D01*
X126824700Y-61442908D01*
X126814533Y-61426317D01*
X126716362Y-61233644D01*
X126708916Y-61215668D01*
X126642095Y-61010013D01*
X126637552Y-60991092D01*
X126603543Y-60776355D01*
X126602039Y-60759268D01*
X126600025Y-60651170D01*
X126600003Y-60648860D01*
X126600003Y-57374000D01*
X126619688Y-57306961D01*
X126672492Y-57261206D01*
X126724003Y-57250000D01*
X133276000Y-57250000D01*
X133343039Y-57269685D01*
G37*
G36*
X118343039Y-57269685D02*
G01*
X118388794Y-57322489D01*
X118400000Y-57374000D01*
X118400000Y-60648794D01*
X118399976Y-60651226D01*
X118397855Y-60759339D01*
X118396352Y-60776306D01*
X118362335Y-60991071D01*
X118357793Y-61009990D01*
X118290977Y-61215630D01*
X118283531Y-61233607D01*
X118185365Y-61426267D01*
X118175198Y-61442857D01*
X118048108Y-61617782D01*
X118035471Y-61632578D01*
X117882578Y-61785471D01*
X117867782Y-61798108D01*
X117692857Y-61925198D01*
X117676267Y-61935365D01*
X117483607Y-62033531D01*
X117465630Y-62040977D01*
X117259990Y-62107793D01*
X117241071Y-62112335D01*
X117026305Y-62146352D01*
X117009342Y-62147855D01*
X116901226Y-62149979D01*
X116898790Y-62150003D01*
X116650003Y-62150003D01*
X116541915Y-62152652D01*
X116541909Y-62152653D01*
X116323936Y-62196012D01*
X116323861Y-62195637D01*
X116294454Y-62200000D01*
X113705578Y-62200000D01*
X113676139Y-62195632D01*
X113676066Y-62196003D01*
X113458090Y-62152643D01*
X113349996Y-62149991D01*
X113101176Y-62149991D01*
X113098870Y-62149970D01*
X112990712Y-62147958D01*
X112973620Y-62146452D01*
X112758903Y-62112444D01*
X112739983Y-62107902D01*
X112534325Y-62041080D01*
X112516348Y-62033634D01*
X112323671Y-61935459D01*
X112307081Y-61925292D01*
X112132145Y-61798194D01*
X112117348Y-61785557D01*
X111964436Y-61632644D01*
X111951800Y-61617848D01*
X111824700Y-61442908D01*
X111814533Y-61426317D01*
X111716362Y-61233644D01*
X111708916Y-61215668D01*
X111642095Y-61010013D01*
X111637552Y-60991092D01*
X111603543Y-60776355D01*
X111602039Y-60759268D01*
X111600025Y-60651170D01*
X111600003Y-60648860D01*
X111600003Y-57374000D01*
X111619688Y-57306961D01*
X111672492Y-57261206D01*
X111724003Y-57250000D01*
X118276000Y-57250000D01*
X118343039Y-57269685D01*
G37*
G36*
X103343039Y-57269685D02*
G01*
X103388794Y-57322489D01*
X103400000Y-57374000D01*
X103400000Y-60648794D01*
X103399976Y-60651226D01*
X103397855Y-60759339D01*
X103396352Y-60776306D01*
X103362335Y-60991071D01*
X103357793Y-61009990D01*
X103290977Y-61215630D01*
X103283531Y-61233607D01*
X103185365Y-61426267D01*
X103175198Y-61442857D01*
X103048108Y-61617782D01*
X103035471Y-61632578D01*
X102882578Y-61785471D01*
X102867782Y-61798108D01*
X102692857Y-61925198D01*
X102676267Y-61935365D01*
X102483607Y-62033531D01*
X102465630Y-62040977D01*
X102259990Y-62107793D01*
X102241071Y-62112335D01*
X102026305Y-62146352D01*
X102009342Y-62147855D01*
X101901226Y-62149979D01*
X101898790Y-62150003D01*
X101650003Y-62150003D01*
X101541915Y-62152652D01*
X101541909Y-62152653D01*
X101323936Y-62196012D01*
X101323861Y-62195637D01*
X101294454Y-62200000D01*
X98705578Y-62200000D01*
X98676139Y-62195632D01*
X98676066Y-62196003D01*
X98458090Y-62152643D01*
X98349996Y-62149991D01*
X98101176Y-62149991D01*
X98098870Y-62149970D01*
X97990712Y-62147958D01*
X97973620Y-62146452D01*
X97758903Y-62112444D01*
X97739983Y-62107902D01*
X97534325Y-62041080D01*
X97516348Y-62033634D01*
X97323671Y-61935459D01*
X97307081Y-61925292D01*
X97132145Y-61798194D01*
X97117348Y-61785557D01*
X96964436Y-61632644D01*
X96951800Y-61617848D01*
X96824700Y-61442908D01*
X96814533Y-61426317D01*
X96716362Y-61233644D01*
X96708916Y-61215668D01*
X96642095Y-61010013D01*
X96637552Y-60991092D01*
X96603543Y-60776355D01*
X96602039Y-60759268D01*
X96600025Y-60651170D01*
X96600003Y-60648860D01*
X96600003Y-57374000D01*
X96619688Y-57306961D01*
X96672492Y-57261206D01*
X96724003Y-57250000D01*
X103276000Y-57250000D01*
X103343039Y-57269685D01*
G37*
G36*
X80651226Y-76600024D02*
G01*
X80759338Y-76602144D01*
X80776306Y-76603647D01*
X80991071Y-76637664D01*
X81009990Y-76642206D01*
X81215630Y-76709022D01*
X81233607Y-76716468D01*
X81426267Y-76814634D01*
X81442857Y-76824801D01*
X81617782Y-76951891D01*
X81632578Y-76964528D01*
X81785471Y-77117421D01*
X81798108Y-77132217D01*
X81925198Y-77307142D01*
X81935365Y-77323732D01*
X82033531Y-77516392D01*
X82040977Y-77534369D01*
X82107793Y-77740009D01*
X82112335Y-77758928D01*
X82146352Y-77973694D01*
X82147855Y-77990657D01*
X82149979Y-78098774D01*
X82150003Y-78101210D01*
X82150003Y-78349996D01*
X82152652Y-78458084D01*
X82152653Y-78458090D01*
X82196012Y-78676064D01*
X82195636Y-78676138D01*
X82200000Y-78705545D01*
X82200000Y-81294422D01*
X82195632Y-81323860D01*
X82196003Y-81323934D01*
X82152643Y-81541909D01*
X82149991Y-81650004D01*
X82149991Y-81898824D01*
X82149970Y-81901130D01*
X82147958Y-82009287D01*
X82146452Y-82026379D01*
X82112444Y-82241096D01*
X82107902Y-82260016D01*
X82041080Y-82465674D01*
X82033634Y-82483651D01*
X81935459Y-82676328D01*
X81925292Y-82692918D01*
X81798194Y-82867854D01*
X81785557Y-82882651D01*
X81632644Y-83035563D01*
X81617848Y-83048199D01*
X81442908Y-83175299D01*
X81426317Y-83185466D01*
X81233644Y-83283637D01*
X81215668Y-83291083D01*
X81010013Y-83357904D01*
X80991092Y-83362447D01*
X80776355Y-83396456D01*
X80759269Y-83397960D01*
X80651171Y-83399975D01*
X80648860Y-83399997D01*
X77374000Y-83399997D01*
X77306961Y-83380312D01*
X77261206Y-83327508D01*
X77250000Y-83275997D01*
X77250000Y-76724000D01*
X77269685Y-76656961D01*
X77322489Y-76611206D01*
X77374000Y-76600000D01*
X80648795Y-76600000D01*
X80651226Y-76600024D01*
G37*
G36*
X167693039Y-76619688D02*
G01*
X167738794Y-76672492D01*
X167750000Y-76724003D01*
X167750000Y-83276000D01*
X167730315Y-83343039D01*
X167677511Y-83388794D01*
X167626000Y-83400000D01*
X164351205Y-83400000D01*
X164348773Y-83399976D01*
X164240660Y-83397855D01*
X164223693Y-83396352D01*
X164008928Y-83362335D01*
X163990009Y-83357793D01*
X163784369Y-83290977D01*
X163766392Y-83283531D01*
X163573732Y-83185365D01*
X163557142Y-83175198D01*
X163382217Y-83048108D01*
X163367421Y-83035471D01*
X163214528Y-82882578D01*
X163201891Y-82867782D01*
X163074801Y-82692857D01*
X163064634Y-82676267D01*
X162966468Y-82483607D01*
X162959022Y-82465630D01*
X162892206Y-82259990D01*
X162887664Y-82241071D01*
X162853647Y-82026305D01*
X162852144Y-82009340D01*
X162850021Y-81901223D01*
X162849997Y-81898789D01*
X162849997Y-81650003D01*
X162847347Y-81541915D01*
X162847346Y-81541909D01*
X162805177Y-81329916D01*
X162805176Y-81329912D01*
X162722457Y-81130209D01*
X162602364Y-80950479D01*
X162602361Y-80950475D01*
X162586319Y-80934433D01*
X162552834Y-80873110D01*
X162550000Y-80846752D01*
X162550000Y-79153259D01*
X162569685Y-79086220D01*
X162586321Y-79065576D01*
X162602372Y-79049525D01*
X162602374Y-79049522D01*
X162722466Y-78869792D01*
X162805185Y-78670090D01*
X162805186Y-78670086D01*
X162847356Y-78458090D01*
X162850009Y-78349995D01*
X162850009Y-78101175D01*
X162850030Y-78098870D01*
X162852041Y-77990713D01*
X162853547Y-77973620D01*
X162887555Y-77758903D01*
X162892097Y-77739983D01*
X162958919Y-77534325D01*
X162966365Y-77516348D01*
X163064540Y-77323671D01*
X163074707Y-77307081D01*
X163201805Y-77132145D01*
X163214442Y-77117348D01*
X163367355Y-76964436D01*
X163382151Y-76951800D01*
X163557091Y-76824700D01*
X163573682Y-76814533D01*
X163766355Y-76716362D01*
X163784331Y-76708916D01*
X163989986Y-76642095D01*
X164008907Y-76637552D01*
X164223644Y-76603543D01*
X164240731Y-76602039D01*
X164348830Y-76600025D01*
X164351140Y-76600003D01*
X167626000Y-76600003D01*
X167693039Y-76619688D01*
G37*
G36*
X80651226Y-91600024D02*
G01*
X80759338Y-91602144D01*
X80776306Y-91603647D01*
X80991071Y-91637664D01*
X81009990Y-91642206D01*
X81215630Y-91709022D01*
X81233607Y-91716468D01*
X81426267Y-91814634D01*
X81442857Y-91824801D01*
X81617782Y-91951891D01*
X81632578Y-91964528D01*
X81785471Y-92117421D01*
X81798108Y-92132217D01*
X81925198Y-92307142D01*
X81935365Y-92323732D01*
X82033531Y-92516392D01*
X82040977Y-92534369D01*
X82107793Y-92740009D01*
X82112335Y-92758928D01*
X82146352Y-92973694D01*
X82147855Y-92990657D01*
X82149979Y-93098774D01*
X82150003Y-93101210D01*
X82150003Y-93349996D01*
X82152652Y-93458084D01*
X82152653Y-93458090D01*
X82196012Y-93676064D01*
X82195636Y-93676138D01*
X82200000Y-93705545D01*
X82200000Y-96294422D01*
X82195632Y-96323860D01*
X82196003Y-96323934D01*
X82152643Y-96541909D01*
X82149991Y-96650004D01*
X82149991Y-96898824D01*
X82149970Y-96901130D01*
X82147958Y-97009287D01*
X82146452Y-97026379D01*
X82112444Y-97241096D01*
X82107902Y-97260016D01*
X82041080Y-97465674D01*
X82033634Y-97483651D01*
X81935459Y-97676328D01*
X81925292Y-97692918D01*
X81798194Y-97867854D01*
X81785557Y-97882651D01*
X81632644Y-98035563D01*
X81617848Y-98048199D01*
X81442908Y-98175299D01*
X81426317Y-98185466D01*
X81233644Y-98283637D01*
X81215668Y-98291083D01*
X81010013Y-98357904D01*
X80991092Y-98362447D01*
X80776355Y-98396456D01*
X80759269Y-98397960D01*
X80651171Y-98399975D01*
X80648860Y-98399997D01*
X77374000Y-98399997D01*
X77306961Y-98380312D01*
X77261206Y-98327508D01*
X77250000Y-98275997D01*
X77250000Y-91724000D01*
X77269685Y-91656961D01*
X77322489Y-91611206D01*
X77374000Y-91600000D01*
X80648795Y-91600000D01*
X80651226Y-91600024D01*
G37*
G36*
X167693039Y-91619688D02*
G01*
X167738794Y-91672492D01*
X167750000Y-91724003D01*
X167750000Y-98276000D01*
X167730315Y-98343039D01*
X167677511Y-98388794D01*
X167626000Y-98400000D01*
X164351205Y-98400000D01*
X164348773Y-98399976D01*
X164240660Y-98397855D01*
X164223693Y-98396352D01*
X164008928Y-98362335D01*
X163990009Y-98357793D01*
X163784369Y-98290977D01*
X163766392Y-98283531D01*
X163573732Y-98185365D01*
X163557142Y-98175198D01*
X163382217Y-98048108D01*
X163367421Y-98035471D01*
X163214528Y-97882578D01*
X163201891Y-97867782D01*
X163074801Y-97692857D01*
X163064634Y-97676267D01*
X162966468Y-97483607D01*
X162959022Y-97465630D01*
X162892206Y-97259990D01*
X162887664Y-97241071D01*
X162853647Y-97026305D01*
X162852144Y-97009340D01*
X162850021Y-96901223D01*
X162849997Y-96898789D01*
X162849997Y-96650003D01*
X162847347Y-96541915D01*
X162847346Y-96541909D01*
X162805177Y-96329916D01*
X162805176Y-96329912D01*
X162722457Y-96130209D01*
X162602364Y-95950479D01*
X162602361Y-95950475D01*
X162586319Y-95934433D01*
X162552834Y-95873110D01*
X162550000Y-95846752D01*
X162550000Y-94153259D01*
X162569685Y-94086220D01*
X162586321Y-94065576D01*
X162602372Y-94049525D01*
X162602374Y-94049522D01*
X162722466Y-93869792D01*
X162805185Y-93670090D01*
X162805186Y-93670086D01*
X162847356Y-93458090D01*
X162850009Y-93349995D01*
X162850009Y-93101175D01*
X162850030Y-93098870D01*
X162852041Y-92990713D01*
X162853547Y-92973620D01*
X162887555Y-92758903D01*
X162892097Y-92739983D01*
X162958919Y-92534325D01*
X162966365Y-92516348D01*
X163064540Y-92323671D01*
X163074707Y-92307081D01*
X163201805Y-92132145D01*
X163214442Y-92117348D01*
X163367355Y-91964436D01*
X163382151Y-91951800D01*
X163557091Y-91824700D01*
X163573682Y-91814533D01*
X163766355Y-91716362D01*
X163784331Y-91708916D01*
X163989986Y-91642095D01*
X164008907Y-91637552D01*
X164223644Y-91603543D01*
X164240731Y-91602039D01*
X164348830Y-91600025D01*
X164351140Y-91600003D01*
X167626000Y-91600003D01*
X167693039Y-91619688D01*
G37*
G36*
X167693039Y-106619688D02*
G01*
X167738794Y-106672492D01*
X167750000Y-106724003D01*
X167750000Y-113276000D01*
X167730315Y-113343039D01*
X167677511Y-113388794D01*
X167626000Y-113400000D01*
X164351205Y-113400000D01*
X164348773Y-113399976D01*
X164240660Y-113397855D01*
X164223693Y-113396352D01*
X164008928Y-113362335D01*
X163990009Y-113357793D01*
X163784369Y-113290977D01*
X163766392Y-113283531D01*
X163573732Y-113185365D01*
X163557142Y-113175198D01*
X163382217Y-113048108D01*
X163367421Y-113035471D01*
X163214528Y-112882578D01*
X163201891Y-112867782D01*
X163074801Y-112692857D01*
X163064634Y-112676267D01*
X162966468Y-112483607D01*
X162959022Y-112465630D01*
X162892206Y-112259990D01*
X162887664Y-112241071D01*
X162853647Y-112026305D01*
X162852144Y-112009340D01*
X162850021Y-111901223D01*
X162849997Y-111898789D01*
X162849997Y-111650003D01*
X162847347Y-111541915D01*
X162847346Y-111541909D01*
X162805177Y-111329916D01*
X162805176Y-111329912D01*
X162722457Y-111130209D01*
X162602364Y-110950479D01*
X162602361Y-110950475D01*
X162586319Y-110934433D01*
X162552834Y-110873110D01*
X162550000Y-110846752D01*
X162550000Y-109153259D01*
X162569685Y-109086220D01*
X162586321Y-109065576D01*
X162602372Y-109049525D01*
X162602374Y-109049522D01*
X162722466Y-108869792D01*
X162805185Y-108670090D01*
X162805186Y-108670086D01*
X162847356Y-108458090D01*
X162850009Y-108349995D01*
X162850009Y-108101175D01*
X162850030Y-108098870D01*
X162852041Y-107990713D01*
X162853547Y-107973620D01*
X162887555Y-107758903D01*
X162892097Y-107739983D01*
X162958919Y-107534325D01*
X162966365Y-107516348D01*
X163064540Y-107323671D01*
X163074707Y-107307081D01*
X163201805Y-107132145D01*
X163214442Y-107117348D01*
X163367355Y-106964436D01*
X163382151Y-106951800D01*
X163557091Y-106824700D01*
X163573682Y-106814533D01*
X163766355Y-106716362D01*
X163784331Y-106708916D01*
X163989986Y-106642095D01*
X164008907Y-106637552D01*
X164223644Y-106603543D01*
X164240731Y-106602039D01*
X164348830Y-106600025D01*
X164351140Y-106600003D01*
X167626000Y-106600003D01*
X167693039Y-106619688D01*
G37*
G36*
X80651240Y-106600030D02*
G01*
X80759350Y-106602151D01*
X80776318Y-106603654D01*
X80991083Y-106637673D01*
X81010002Y-106642215D01*
X81215644Y-106709034D01*
X81233621Y-106716481D01*
X81426273Y-106814644D01*
X81442863Y-106824810D01*
X81617783Y-106951899D01*
X81632579Y-106964536D01*
X81785472Y-107117431D01*
X81798109Y-107132227D01*
X81925203Y-107307159D01*
X81935369Y-107323749D01*
X82033529Y-107516400D01*
X82040975Y-107534378D01*
X82107789Y-107740016D01*
X82112331Y-107758936D01*
X82146347Y-107973709D01*
X82147850Y-107990648D01*
X82149994Y-108098791D01*
X82150018Y-108101249D01*
X82150018Y-108285171D01*
X82148537Y-108290212D01*
X82152652Y-108458084D01*
X82152653Y-108458090D01*
X82196012Y-108676064D01*
X82195636Y-108676138D01*
X82200000Y-108705545D01*
X82200000Y-111294441D01*
X82195636Y-111323864D01*
X82196008Y-111323938D01*
X82152648Y-111541916D01*
X82150006Y-111649998D01*
X82150006Y-111898796D01*
X82149982Y-111901229D01*
X82147860Y-112009343D01*
X82146357Y-112026308D01*
X82112342Y-112241072D01*
X82107800Y-112259993D01*
X82040981Y-112465637D01*
X82033535Y-112483613D01*
X81935370Y-112676271D01*
X81925203Y-112692861D01*
X81798113Y-112867786D01*
X81785476Y-112882582D01*
X81632582Y-113035476D01*
X81617786Y-113048113D01*
X81442861Y-113175203D01*
X81426271Y-113185370D01*
X81233613Y-113283535D01*
X81215637Y-113290981D01*
X81009993Y-113357800D01*
X80991072Y-113362342D01*
X80776309Y-113396357D01*
X80759341Y-113397860D01*
X80651231Y-113399979D01*
X80648801Y-113400003D01*
X77374000Y-113400003D01*
X77306961Y-113380318D01*
X77261206Y-113327514D01*
X77250000Y-113276003D01*
X77250000Y-106724006D01*
X77269685Y-106656967D01*
X77322489Y-106611212D01*
X77374000Y-106600006D01*
X80648808Y-106600006D01*
X80651240Y-106600030D01*
G37*
G36*
X80651226Y-121600024D02*
G01*
X80759338Y-121602144D01*
X80776306Y-121603647D01*
X80991071Y-121637664D01*
X81009990Y-121642206D01*
X81215630Y-121709022D01*
X81233607Y-121716468D01*
X81426267Y-121814634D01*
X81442857Y-121824801D01*
X81617782Y-121951891D01*
X81632578Y-121964528D01*
X81785471Y-122117421D01*
X81798108Y-122132217D01*
X81925198Y-122307142D01*
X81935365Y-122323732D01*
X82033531Y-122516392D01*
X82040977Y-122534369D01*
X82107793Y-122740009D01*
X82112335Y-122758928D01*
X82146352Y-122973694D01*
X82147855Y-122990657D01*
X82149979Y-123098774D01*
X82150003Y-123101210D01*
X82150003Y-123349996D01*
X82152652Y-123458084D01*
X82152653Y-123458090D01*
X82196012Y-123676064D01*
X82195636Y-123676138D01*
X82200000Y-123705545D01*
X82200000Y-126294422D01*
X82195632Y-126323860D01*
X82196003Y-126323934D01*
X82152643Y-126541909D01*
X82149991Y-126650004D01*
X82149991Y-126898824D01*
X82149970Y-126901130D01*
X82147958Y-127009287D01*
X82146452Y-127026379D01*
X82112444Y-127241096D01*
X82107902Y-127260016D01*
X82041080Y-127465674D01*
X82033634Y-127483651D01*
X81935459Y-127676328D01*
X81925292Y-127692918D01*
X81798194Y-127867854D01*
X81785557Y-127882651D01*
X81632644Y-128035563D01*
X81617848Y-128048199D01*
X81442908Y-128175299D01*
X81426317Y-128185466D01*
X81233644Y-128283637D01*
X81215668Y-128291083D01*
X81010013Y-128357904D01*
X80991092Y-128362447D01*
X80776355Y-128396456D01*
X80759269Y-128397960D01*
X80651171Y-128399975D01*
X80648860Y-128399997D01*
X77374000Y-128399997D01*
X77306961Y-128380312D01*
X77261206Y-128327508D01*
X77250000Y-128275997D01*
X77250000Y-121724000D01*
X77269685Y-121656961D01*
X77322489Y-121611206D01*
X77374000Y-121600000D01*
X80648795Y-121600000D01*
X80651226Y-121600024D01*
G37*
G36*
X167693039Y-121619688D02*
G01*
X167738794Y-121672492D01*
X167750000Y-121724003D01*
X167750000Y-128276000D01*
X167730315Y-128343039D01*
X167677511Y-128388794D01*
X167626000Y-128400000D01*
X164351205Y-128400000D01*
X164348773Y-128399976D01*
X164240660Y-128397855D01*
X164223693Y-128396352D01*
X164008928Y-128362335D01*
X163990009Y-128357793D01*
X163784369Y-128290977D01*
X163766392Y-128283531D01*
X163573732Y-128185365D01*
X163557142Y-128175198D01*
X163382217Y-128048108D01*
X163367421Y-128035471D01*
X163214528Y-127882578D01*
X163201891Y-127867782D01*
X163074801Y-127692857D01*
X163064634Y-127676267D01*
X162966468Y-127483607D01*
X162959022Y-127465630D01*
X162892206Y-127259990D01*
X162887664Y-127241071D01*
X162853647Y-127026305D01*
X162852144Y-127009340D01*
X162850021Y-126901223D01*
X162849997Y-126898789D01*
X162849997Y-126650003D01*
X162847347Y-126541915D01*
X162847346Y-126541909D01*
X162805177Y-126329916D01*
X162805176Y-126329912D01*
X162722457Y-126130209D01*
X162602364Y-125950479D01*
X162602361Y-125950475D01*
X162586319Y-125934433D01*
X162552834Y-125873110D01*
X162550000Y-125846752D01*
X162550000Y-124153259D01*
X162569685Y-124086220D01*
X162586321Y-124065576D01*
X162602372Y-124049525D01*
X162602374Y-124049522D01*
X162722466Y-123869792D01*
X162805185Y-123670090D01*
X162805186Y-123670086D01*
X162847356Y-123458090D01*
X162850009Y-123349995D01*
X162850009Y-123101175D01*
X162850030Y-123098870D01*
X162852041Y-122990713D01*
X162853547Y-122973620D01*
X162887555Y-122758903D01*
X162892097Y-122739983D01*
X162958919Y-122534325D01*
X162966365Y-122516348D01*
X163064540Y-122323671D01*
X163074707Y-122307081D01*
X163201805Y-122132145D01*
X163214442Y-122117348D01*
X163367355Y-121964436D01*
X163382151Y-121951800D01*
X163557091Y-121824700D01*
X163573682Y-121814533D01*
X163766355Y-121716362D01*
X163784331Y-121708916D01*
X163989986Y-121642095D01*
X164008907Y-121637552D01*
X164223644Y-121603543D01*
X164240731Y-121602039D01*
X164348830Y-121600025D01*
X164351140Y-121600003D01*
X167626000Y-121600003D01*
X167693039Y-121619688D01*
G37*
G36*
X145913779Y-142569685D02*
G01*
X145934421Y-142586319D01*
X145950473Y-142602371D01*
X145950477Y-142602374D01*
X146130207Y-142722466D01*
X146329909Y-142805185D01*
X146329913Y-142805186D01*
X146541909Y-142847356D01*
X146650004Y-142850009D01*
X146898824Y-142850009D01*
X146901129Y-142850030D01*
X147009286Y-142852041D01*
X147026379Y-142853547D01*
X147241096Y-142887555D01*
X147260016Y-142892097D01*
X147465674Y-142958919D01*
X147483651Y-142966365D01*
X147676328Y-143064540D01*
X147692918Y-143074707D01*
X147867854Y-143201805D01*
X147882651Y-143214442D01*
X148035563Y-143367355D01*
X148048199Y-143382151D01*
X148175299Y-143557091D01*
X148185466Y-143573682D01*
X148283637Y-143766355D01*
X148291083Y-143784331D01*
X148357904Y-143989986D01*
X148362447Y-144008907D01*
X148396456Y-144223644D01*
X148397960Y-144240730D01*
X148399975Y-144348828D01*
X148399997Y-144351139D01*
X148399997Y-147626000D01*
X148380312Y-147693039D01*
X148327508Y-147738794D01*
X148275997Y-147750000D01*
X141724000Y-147750000D01*
X141656961Y-147730315D01*
X141611206Y-147677511D01*
X141600000Y-147626000D01*
X141600000Y-144351205D01*
X141600024Y-144348774D01*
X141602144Y-144240661D01*
X141603647Y-144223693D01*
X141637664Y-144008928D01*
X141642206Y-143990009D01*
X141709022Y-143784369D01*
X141716468Y-143766392D01*
X141814634Y-143573732D01*
X141824801Y-143557142D01*
X141951891Y-143382217D01*
X141964528Y-143367421D01*
X142117421Y-143214528D01*
X142132217Y-143201891D01*
X142307142Y-143074801D01*
X142323732Y-143064634D01*
X142516392Y-142966468D01*
X142534369Y-142959022D01*
X142740009Y-142892206D01*
X142758928Y-142887664D01*
X142973694Y-142853647D01*
X142990659Y-142852144D01*
X143098776Y-142850021D01*
X143101210Y-142849997D01*
X143349997Y-142849997D01*
X143458084Y-142847347D01*
X143458090Y-142847346D01*
X143670083Y-142805177D01*
X143670087Y-142805176D01*
X143869790Y-142722457D01*
X144049520Y-142602364D01*
X144049524Y-142602361D01*
X144065567Y-142586319D01*
X144126890Y-142552834D01*
X144153248Y-142550000D01*
X145846740Y-142550000D01*
X145913779Y-142569685D01*
G37*
G36*
X130913779Y-142569685D02*
G01*
X130934421Y-142586319D01*
X130950473Y-142602371D01*
X130950477Y-142602374D01*
X131130207Y-142722466D01*
X131329909Y-142805185D01*
X131329913Y-142805186D01*
X131541909Y-142847356D01*
X131650004Y-142850009D01*
X131898824Y-142850009D01*
X131901129Y-142850030D01*
X132009286Y-142852041D01*
X132026379Y-142853547D01*
X132241096Y-142887555D01*
X132260016Y-142892097D01*
X132465674Y-142958919D01*
X132483651Y-142966365D01*
X132676328Y-143064540D01*
X132692918Y-143074707D01*
X132867854Y-143201805D01*
X132882651Y-143214442D01*
X133035563Y-143367355D01*
X133048199Y-143382151D01*
X133175299Y-143557091D01*
X133185466Y-143573682D01*
X133283637Y-143766355D01*
X133291083Y-143784331D01*
X133357904Y-143989986D01*
X133362447Y-144008907D01*
X133396456Y-144223644D01*
X133397960Y-144240730D01*
X133399975Y-144348828D01*
X133399997Y-144351139D01*
X133399997Y-147626000D01*
X133380312Y-147693039D01*
X133327508Y-147738794D01*
X133275997Y-147750000D01*
X126724000Y-147750000D01*
X126656961Y-147730315D01*
X126611206Y-147677511D01*
X126600000Y-147626000D01*
X126600000Y-144351205D01*
X126600024Y-144348774D01*
X126602144Y-144240661D01*
X126603647Y-144223693D01*
X126637664Y-144008928D01*
X126642206Y-143990009D01*
X126709022Y-143784369D01*
X126716468Y-143766392D01*
X126814634Y-143573732D01*
X126824801Y-143557142D01*
X126951891Y-143382217D01*
X126964528Y-143367421D01*
X127117421Y-143214528D01*
X127132217Y-143201891D01*
X127307142Y-143074801D01*
X127323732Y-143064634D01*
X127516392Y-142966468D01*
X127534369Y-142959022D01*
X127740009Y-142892206D01*
X127758928Y-142887664D01*
X127973694Y-142853647D01*
X127990659Y-142852144D01*
X128098776Y-142850021D01*
X128101210Y-142849997D01*
X128349997Y-142849997D01*
X128458084Y-142847347D01*
X128458090Y-142847346D01*
X128670083Y-142805177D01*
X128670087Y-142805176D01*
X128869790Y-142722457D01*
X129049520Y-142602364D01*
X129049524Y-142602361D01*
X129065567Y-142586319D01*
X129126890Y-142552834D01*
X129153248Y-142550000D01*
X130846740Y-142550000D01*
X130913779Y-142569685D01*
G37*
G36*
X115913779Y-142569685D02*
G01*
X115934421Y-142586319D01*
X115950473Y-142602371D01*
X115950477Y-142602374D01*
X116130207Y-142722466D01*
X116329909Y-142805185D01*
X116329913Y-142805186D01*
X116541909Y-142847356D01*
X116650004Y-142850009D01*
X116898824Y-142850009D01*
X116901129Y-142850030D01*
X117009286Y-142852041D01*
X117026379Y-142853547D01*
X117241096Y-142887555D01*
X117260016Y-142892097D01*
X117465674Y-142958919D01*
X117483651Y-142966365D01*
X117676328Y-143064540D01*
X117692918Y-143074707D01*
X117867854Y-143201805D01*
X117882651Y-143214442D01*
X118035563Y-143367355D01*
X118048199Y-143382151D01*
X118175299Y-143557091D01*
X118185466Y-143573682D01*
X118283637Y-143766355D01*
X118291083Y-143784331D01*
X118357904Y-143989986D01*
X118362447Y-144008907D01*
X118396456Y-144223644D01*
X118397960Y-144240730D01*
X118399975Y-144348828D01*
X118399997Y-144351139D01*
X118399997Y-147626000D01*
X118380312Y-147693039D01*
X118327508Y-147738794D01*
X118275997Y-147750000D01*
X111724000Y-147750000D01*
X111656961Y-147730315D01*
X111611206Y-147677511D01*
X111600000Y-147626000D01*
X111600000Y-144351205D01*
X111600024Y-144348774D01*
X111602144Y-144240661D01*
X111603647Y-144223693D01*
X111637664Y-144008928D01*
X111642206Y-143990009D01*
X111709022Y-143784369D01*
X111716468Y-143766392D01*
X111814634Y-143573732D01*
X111824801Y-143557142D01*
X111951891Y-143382217D01*
X111964528Y-143367421D01*
X112117421Y-143214528D01*
X112132217Y-143201891D01*
X112307142Y-143074801D01*
X112323732Y-143064634D01*
X112516392Y-142966468D01*
X112534369Y-142959022D01*
X112740009Y-142892206D01*
X112758928Y-142887664D01*
X112973694Y-142853647D01*
X112990659Y-142852144D01*
X113098776Y-142850021D01*
X113101210Y-142849997D01*
X113349997Y-142849997D01*
X113458084Y-142847347D01*
X113458090Y-142847346D01*
X113670083Y-142805177D01*
X113670087Y-142805176D01*
X113869790Y-142722457D01*
X114049520Y-142602364D01*
X114049524Y-142602361D01*
X114065567Y-142586319D01*
X114126890Y-142552834D01*
X114153248Y-142550000D01*
X115846740Y-142550000D01*
X115913779Y-142569685D01*
G37*
G36*
X100913779Y-142569685D02*
G01*
X100934421Y-142586319D01*
X100950473Y-142602371D01*
X100950477Y-142602374D01*
X101130207Y-142722466D01*
X101329909Y-142805185D01*
X101329913Y-142805186D01*
X101541909Y-142847356D01*
X101650004Y-142850009D01*
X101898824Y-142850009D01*
X101901129Y-142850030D01*
X102009286Y-142852041D01*
X102026379Y-142853547D01*
X102241096Y-142887555D01*
X102260016Y-142892097D01*
X102465674Y-142958919D01*
X102483651Y-142966365D01*
X102676328Y-143064540D01*
X102692918Y-143074707D01*
X102867854Y-143201805D01*
X102882651Y-143214442D01*
X103035563Y-143367355D01*
X103048199Y-143382151D01*
X103175299Y-143557091D01*
X103185466Y-143573682D01*
X103283637Y-143766355D01*
X103291083Y-143784331D01*
X103357904Y-143989986D01*
X103362447Y-144008907D01*
X103396456Y-144223644D01*
X103397960Y-144240730D01*
X103399975Y-144348828D01*
X103399997Y-144351139D01*
X103399997Y-147626000D01*
X103380312Y-147693039D01*
X103327508Y-147738794D01*
X103275997Y-147750000D01*
X96724000Y-147750000D01*
X96656961Y-147730315D01*
X96611206Y-147677511D01*
X96600000Y-147626000D01*
X96600000Y-144351205D01*
X96600024Y-144348774D01*
X96602144Y-144240661D01*
X96603647Y-144223693D01*
X96637664Y-144008928D01*
X96642206Y-143990009D01*
X96709022Y-143784369D01*
X96716468Y-143766392D01*
X96814634Y-143573732D01*
X96824801Y-143557142D01*
X96951891Y-143382217D01*
X96964528Y-143367421D01*
X97117421Y-143214528D01*
X97132217Y-143201891D01*
X97307142Y-143074801D01*
X97323732Y-143064634D01*
X97516392Y-142966468D01*
X97534369Y-142959022D01*
X97740009Y-142892206D01*
X97758928Y-142887664D01*
X97973694Y-142853647D01*
X97990659Y-142852144D01*
X98098776Y-142850021D01*
X98101210Y-142849997D01*
X98349997Y-142849997D01*
X98458084Y-142847347D01*
X98458090Y-142847346D01*
X98670083Y-142805177D01*
X98670087Y-142805176D01*
X98869790Y-142722457D01*
X99049520Y-142602364D01*
X99049524Y-142602361D01*
X99065567Y-142586319D01*
X99126890Y-142552834D01*
X99153248Y-142550000D01*
X100846740Y-142550000D01*
X100913779Y-142569685D01*
G37*
G36*
X176000856Y-46000012D02*
G01*
X176162256Y-46002274D01*
X176174402Y-46003042D01*
X176495992Y-46039277D01*
X176509700Y-46041606D01*
X176824366Y-46113426D01*
X176837729Y-46117275D01*
X177142386Y-46223879D01*
X177155233Y-46229201D01*
X177446025Y-46369239D01*
X177458195Y-46375965D01*
X177731486Y-46547685D01*
X177742827Y-46555732D01*
X177995173Y-46756971D01*
X178005541Y-46766237D01*
X178233762Y-46994458D01*
X178243028Y-47004826D01*
X178444267Y-47257172D01*
X178452314Y-47268513D01*
X178624034Y-47541804D01*
X178630760Y-47553974D01*
X178770798Y-47844766D01*
X178776120Y-47857613D01*
X178882724Y-48162270D01*
X178886573Y-48175633D01*
X178958393Y-48490299D01*
X178960722Y-48504007D01*
X178996957Y-48825597D01*
X178997725Y-48837743D01*
X178999988Y-48999144D01*
X179000000Y-49000882D01*
X179000000Y-155999117D01*
X178999988Y-156000855D01*
X178997725Y-156162256D01*
X178996957Y-156174402D01*
X178960722Y-156495992D01*
X178958393Y-156509700D01*
X178886573Y-156824366D01*
X178882724Y-156837729D01*
X178776120Y-157142386D01*
X178770798Y-157155233D01*
X178630760Y-157446025D01*
X178624034Y-157458195D01*
X178452314Y-157731486D01*
X178444267Y-157742827D01*
X178243028Y-157995173D01*
X178233762Y-158005541D01*
X178005541Y-158233762D01*
X177995173Y-158243028D01*
X177742827Y-158444267D01*
X177731486Y-158452314D01*
X177458195Y-158624034D01*
X177446025Y-158630760D01*
X177155233Y-158770798D01*
X177142386Y-158776120D01*
X176837729Y-158882724D01*
X176824366Y-158886573D01*
X176509700Y-158958393D01*
X176495992Y-158960722D01*
X176174402Y-158996957D01*
X176162256Y-158997725D01*
X176000856Y-158999988D01*
X175999118Y-159000000D01*
X69000882Y-159000000D01*
X68999144Y-158999988D01*
X68837743Y-158997725D01*
X68825597Y-158996957D01*
X68504007Y-158960722D01*
X68490299Y-158958393D01*
X68175633Y-158886573D01*
X68162270Y-158882724D01*
X67857613Y-158776120D01*
X67844766Y-158770798D01*
X67553974Y-158630760D01*
X67541804Y-158624034D01*
X67268513Y-158452314D01*
X67257172Y-158444267D01*
X67004826Y-158243028D01*
X66994458Y-158233762D01*
X66766237Y-158005541D01*
X66756971Y-157995173D01*
X66555732Y-157742827D01*
X66547685Y-157731486D01*
X66375965Y-157458195D01*
X66369239Y-157446025D01*
X66229201Y-157155233D01*
X66223879Y-157142386D01*
X66117275Y-156837729D01*
X66113426Y-156824366D01*
X66041606Y-156509700D01*
X66039277Y-156495992D01*
X66003042Y-156174402D01*
X66002274Y-156162256D01*
X66000012Y-156000855D01*
X66000006Y-156000000D01*
X67997422Y-156000000D01*
X68017943Y-156201819D01*
X68078669Y-156395364D01*
X68078676Y-156395379D01*
X68177118Y-156572738D01*
X68177121Y-156572743D01*
X68309255Y-156726660D01*
X68309256Y-156726662D01*
X68469668Y-156850829D01*
X68651798Y-156940169D01*
X68848182Y-156991016D01*
X68848179Y-156991016D01*
X69050780Y-157001291D01*
X69050782Y-157001291D01*
X69251294Y-156970573D01*
X69251300Y-156970572D01*
X69441522Y-156900122D01*
X69441529Y-156900119D01*
X69613685Y-156792813D01*
X69760715Y-156653051D01*
X69876600Y-156486554D01*
X69956600Y-156300133D01*
X69997435Y-156101424D01*
X70000000Y-156000014D01*
X70000000Y-156000000D01*
X174997422Y-156000000D01*
X175017943Y-156201819D01*
X175078669Y-156395364D01*
X175078676Y-156395379D01*
X175177118Y-156572738D01*
X175177121Y-156572743D01*
X175309255Y-156726660D01*
X175309256Y-156726662D01*
X175469668Y-156850829D01*
X175651798Y-156940169D01*
X175848182Y-156991016D01*
X175848179Y-156991016D01*
X176050780Y-157001291D01*
X176050782Y-157001291D01*
X176251294Y-156970573D01*
X176251300Y-156970572D01*
X176441522Y-156900122D01*
X176441529Y-156900119D01*
X176613685Y-156792813D01*
X176760715Y-156653051D01*
X176876600Y-156486554D01*
X176956600Y-156300133D01*
X176997435Y-156101424D01*
X177000000Y-156000014D01*
X177000000Y-155999985D01*
X176997435Y-155898575D01*
X176956600Y-155699866D01*
X176876600Y-155513445D01*
X176760715Y-155346948D01*
X176613685Y-155207186D01*
X176441529Y-155099880D01*
X176441522Y-155099877D01*
X176251300Y-155029427D01*
X176251294Y-155029426D01*
X176050781Y-154998708D01*
X175848181Y-155008983D01*
X175651798Y-155059830D01*
X175469668Y-155149170D01*
X175309256Y-155273337D01*
X175309255Y-155273339D01*
X175177121Y-155427256D01*
X175177118Y-155427261D01*
X175078676Y-155604620D01*
X175078669Y-155604635D01*
X175017943Y-155798180D01*
X174997422Y-156000000D01*
X70000000Y-156000000D01*
X70000000Y-155999985D01*
X69997435Y-155898575D01*
X69956600Y-155699866D01*
X69876600Y-155513445D01*
X69760715Y-155346948D01*
X69613685Y-155207186D01*
X69441529Y-155099880D01*
X69441522Y-155099877D01*
X69251300Y-155029427D01*
X69251294Y-155029426D01*
X69050781Y-154998708D01*
X68848181Y-155008983D01*
X68651798Y-155059830D01*
X68469668Y-155149170D01*
X68309256Y-155273337D01*
X68309255Y-155273339D01*
X68177121Y-155427256D01*
X68177118Y-155427261D01*
X68078676Y-155604620D01*
X68078669Y-155604635D01*
X68017943Y-155798180D01*
X67997422Y-156000000D01*
X66000006Y-156000000D01*
X66000000Y-155999117D01*
X66000000Y-129899998D01*
X74999989Y-129899998D01*
X74999999Y-147499987D01*
X75002561Y-147663688D01*
X75002561Y-147663700D01*
X75045292Y-147988262D01*
X75045294Y-147988273D01*
X75130024Y-148304494D01*
X75255307Y-148606954D01*
X75255312Y-148606965D01*
X75418999Y-148890478D01*
X75618295Y-149150207D01*
X75618300Y-149150213D01*
X75849785Y-149381697D01*
X76109519Y-149580998D01*
X76109526Y-149581003D01*
X76393038Y-149744689D01*
X76393047Y-149744693D01*
X76695497Y-149869972D01*
X77011731Y-149954707D01*
X77336304Y-149997438D01*
X77500010Y-149999999D01*
X95099977Y-149999999D01*
X95217881Y-149997807D01*
X95450737Y-149960926D01*
X95674962Y-149888071D01*
X95885023Y-149781039D01*
X95895148Y-149773683D01*
X95960954Y-149750202D01*
X95968035Y-149750000D01*
X104032164Y-149750000D01*
X104099203Y-149769685D01*
X104105050Y-149773682D01*
X104115040Y-149780940D01*
X104325082Y-149887963D01*
X104549289Y-149960813D01*
X104782124Y-149997690D01*
X104899998Y-150000010D01*
X110099976Y-149999999D01*
X110217881Y-149997807D01*
X110450737Y-149960926D01*
X110674962Y-149888071D01*
X110885023Y-149781039D01*
X110895148Y-149773683D01*
X110960954Y-149750202D01*
X110968035Y-149750000D01*
X119032164Y-149750000D01*
X119099203Y-149769685D01*
X119105050Y-149773682D01*
X119115040Y-149780940D01*
X119325082Y-149887963D01*
X119549289Y-149960813D01*
X119782124Y-149997690D01*
X119899998Y-150000010D01*
X125099976Y-149999999D01*
X125217881Y-149997807D01*
X125450737Y-149960926D01*
X125674962Y-149888071D01*
X125885023Y-149781039D01*
X125895148Y-149773683D01*
X125960954Y-149750202D01*
X125968035Y-149750000D01*
X134032164Y-149750000D01*
X134099203Y-149769685D01*
X134105050Y-149773682D01*
X134115040Y-149780940D01*
X134325082Y-149887963D01*
X134549289Y-149960813D01*
X134782124Y-149997690D01*
X134899998Y-150000010D01*
X140099976Y-149999999D01*
X140217881Y-149997807D01*
X140450737Y-149960926D01*
X140674962Y-149888071D01*
X140885023Y-149781039D01*
X140895148Y-149773683D01*
X140960954Y-149750202D01*
X140968035Y-149750000D01*
X149032164Y-149750000D01*
X149099203Y-149769685D01*
X149105050Y-149773682D01*
X149115040Y-149780940D01*
X149325082Y-149887963D01*
X149549289Y-149960813D01*
X149782124Y-149997690D01*
X149899998Y-150000010D01*
X167499987Y-150000000D01*
X167663688Y-149997438D01*
X167663700Y-149997438D01*
X167988262Y-149954707D01*
X167988273Y-149954705D01*
X168304494Y-149869975D01*
X168606954Y-149744692D01*
X168606965Y-149744687D01*
X168890478Y-149581000D01*
X169150207Y-149381704D01*
X169150213Y-149381699D01*
X169381697Y-149150214D01*
X169580998Y-148890480D01*
X169581003Y-148890473D01*
X169744689Y-148606961D01*
X169744693Y-148606952D01*
X169869972Y-148304502D01*
X169954707Y-147988268D01*
X169997438Y-147663701D01*
X169997438Y-147663689D01*
X169999999Y-147499990D01*
X169999999Y-129900023D01*
X169997807Y-129782118D01*
X169960926Y-129549262D01*
X169888071Y-129325037D01*
X169781038Y-129114977D01*
X169773680Y-129104848D01*
X169750202Y-129039041D01*
X169750000Y-129031965D01*
X169750000Y-120967834D01*
X169769685Y-120900795D01*
X169773684Y-120894946D01*
X169780938Y-120884961D01*
X169780944Y-120884951D01*
X169887963Y-120674917D01*
X169960813Y-120450710D01*
X169997690Y-120217875D01*
X170000010Y-120100001D01*
X169999999Y-114900023D01*
X169997807Y-114782118D01*
X169960926Y-114549262D01*
X169888071Y-114325037D01*
X169781038Y-114114977D01*
X169773680Y-114104848D01*
X169750202Y-114039041D01*
X169750000Y-114031965D01*
X169750000Y-105967834D01*
X169769685Y-105900795D01*
X169773684Y-105894946D01*
X169780938Y-105884961D01*
X169780944Y-105884951D01*
X169887963Y-105674917D01*
X169960813Y-105450710D01*
X169997690Y-105217875D01*
X170000010Y-105100001D01*
X169999999Y-99900023D01*
X169997807Y-99782118D01*
X169960926Y-99549262D01*
X169888071Y-99325037D01*
X169781038Y-99114977D01*
X169773680Y-99104848D01*
X169750202Y-99039041D01*
X169750000Y-99031965D01*
X169750000Y-90967834D01*
X169769685Y-90900795D01*
X169773684Y-90894946D01*
X169780938Y-90884961D01*
X169780944Y-90884951D01*
X169887963Y-90674917D01*
X169960813Y-90450710D01*
X169997690Y-90217875D01*
X170000010Y-90100001D01*
X169999999Y-84900023D01*
X169997807Y-84782118D01*
X169960926Y-84549262D01*
X169888071Y-84325037D01*
X169781038Y-84114977D01*
X169773680Y-84104848D01*
X169750202Y-84039041D01*
X169750000Y-84031965D01*
X169750000Y-75967834D01*
X169769685Y-75900795D01*
X169773684Y-75894946D01*
X169780938Y-75884961D01*
X169780944Y-75884951D01*
X169887963Y-75674917D01*
X169960813Y-75450710D01*
X169997690Y-75217875D01*
X170000010Y-75100001D01*
X170000000Y-57500012D01*
X169997438Y-57336311D01*
X169997438Y-57336299D01*
X169954707Y-57011737D01*
X169954705Y-57011726D01*
X169869975Y-56695505D01*
X169744692Y-56393045D01*
X169744687Y-56393034D01*
X169581000Y-56109521D01*
X169381704Y-55849792D01*
X169381699Y-55849786D01*
X169150214Y-55618302D01*
X168890480Y-55419001D01*
X168890473Y-55418996D01*
X168606961Y-55255310D01*
X168606952Y-55255306D01*
X168304502Y-55130027D01*
X167988268Y-55045292D01*
X167663695Y-55002561D01*
X167499990Y-55000001D01*
X149900023Y-55000001D01*
X149782118Y-55002192D01*
X149549262Y-55039073D01*
X149325037Y-55111928D01*
X149114976Y-55218960D01*
X149104852Y-55226317D01*
X149039046Y-55249798D01*
X149031965Y-55250000D01*
X140967836Y-55250000D01*
X140900797Y-55230315D01*
X140894950Y-55226318D01*
X140884959Y-55219059D01*
X140674917Y-55112036D01*
X140450710Y-55039186D01*
X140217875Y-55002309D01*
X140100001Y-54999989D01*
X134900023Y-55000000D01*
X134782118Y-55002192D01*
X134549262Y-55039073D01*
X134325037Y-55111928D01*
X134114976Y-55218960D01*
X134104852Y-55226317D01*
X134039046Y-55249798D01*
X134031965Y-55250000D01*
X125967836Y-55250000D01*
X125900797Y-55230315D01*
X125894950Y-55226318D01*
X125884959Y-55219059D01*
X125674917Y-55112036D01*
X125450710Y-55039186D01*
X125217875Y-55002309D01*
X125100001Y-54999989D01*
X119900023Y-55000000D01*
X119782118Y-55002192D01*
X119549262Y-55039073D01*
X119325037Y-55111928D01*
X119114976Y-55218960D01*
X119104852Y-55226317D01*
X119039046Y-55249798D01*
X119031965Y-55250000D01*
X110967836Y-55250000D01*
X110900797Y-55230315D01*
X110894950Y-55226318D01*
X110884959Y-55219059D01*
X110674917Y-55112036D01*
X110450710Y-55039186D01*
X110217875Y-55002309D01*
X110100001Y-54999989D01*
X104900023Y-55000000D01*
X104782118Y-55002192D01*
X104549262Y-55039073D01*
X104325037Y-55111928D01*
X104114976Y-55218960D01*
X104104852Y-55226317D01*
X104039046Y-55249798D01*
X104031965Y-55250000D01*
X95967836Y-55250000D01*
X95900797Y-55230315D01*
X95894950Y-55226318D01*
X95884959Y-55219059D01*
X95674917Y-55112036D01*
X95450710Y-55039186D01*
X95217875Y-55002309D01*
X95100001Y-54999989D01*
X77499973Y-54999999D01*
X77336322Y-55002675D01*
X77336305Y-55002677D01*
X77011754Y-55045405D01*
X76695538Y-55130135D01*
X76393098Y-55255410D01*
X76393088Y-55255414D01*
X76109584Y-55419095D01*
X75849868Y-55618382D01*
X75849861Y-55618388D01*
X75618388Y-55849861D01*
X75618382Y-55849868D01*
X75419095Y-56109584D01*
X75255414Y-56393088D01*
X75255410Y-56393098D01*
X75130135Y-56695538D01*
X75045405Y-57011754D01*
X75002677Y-57336305D01*
X75002675Y-57336322D01*
X75000000Y-57499973D01*
X75000000Y-75099976D01*
X75002192Y-75217881D01*
X75039073Y-75450737D01*
X75111928Y-75674962D01*
X75218960Y-75885023D01*
X75226317Y-75895148D01*
X75249798Y-75960954D01*
X75250000Y-75968035D01*
X75250000Y-84032164D01*
X75230315Y-84099203D01*
X75226318Y-84105050D01*
X75219059Y-84115040D01*
X75112036Y-84325082D01*
X75039186Y-84549289D01*
X75002309Y-84782124D01*
X74999989Y-84899998D01*
X75000000Y-90099976D01*
X75002192Y-90217881D01*
X75039073Y-90450737D01*
X75111928Y-90674962D01*
X75218960Y-90885023D01*
X75226317Y-90895148D01*
X75249798Y-90960954D01*
X75250000Y-90968035D01*
X75250000Y-99032164D01*
X75230315Y-99099203D01*
X75226318Y-99105050D01*
X75219059Y-99115040D01*
X75112036Y-99325082D01*
X75039186Y-99549289D01*
X75002309Y-99782124D01*
X74999989Y-99899998D01*
X75000015Y-105099982D01*
X75002208Y-105217885D01*
X75039089Y-105450736D01*
X75111943Y-105674958D01*
X75111946Y-105674965D01*
X75218977Y-105885020D01*
X75226315Y-105895119D01*
X75249797Y-105960925D01*
X75250000Y-105968009D01*
X75250000Y-114031968D01*
X75230315Y-114099007D01*
X75226321Y-114104850D01*
X75218959Y-114114982D01*
X75111927Y-114325043D01*
X75111926Y-114325046D01*
X75039075Y-114549264D01*
X75002194Y-114782122D01*
X75000003Y-114900024D01*
X75000001Y-120099976D01*
X75002192Y-120217881D01*
X75039073Y-120450737D01*
X75111928Y-120674962D01*
X75218960Y-120885023D01*
X75226317Y-120895148D01*
X75249798Y-120960954D01*
X75250000Y-120968035D01*
X75250000Y-129032164D01*
X75230315Y-129099203D01*
X75226318Y-129105050D01*
X75219059Y-129115040D01*
X75112036Y-129325082D01*
X75039186Y-129549289D01*
X75002309Y-129782124D01*
X74999989Y-129899998D01*
X66000000Y-129899998D01*
X66000000Y-49000882D01*
X66000006Y-49000000D01*
X67997422Y-49000000D01*
X68017943Y-49201819D01*
X68078669Y-49395364D01*
X68078676Y-49395379D01*
X68177118Y-49572738D01*
X68177121Y-49572743D01*
X68309255Y-49726660D01*
X68309256Y-49726662D01*
X68469668Y-49850829D01*
X68651798Y-49940169D01*
X68848182Y-49991016D01*
X68848179Y-49991016D01*
X69050780Y-50001291D01*
X69050782Y-50001291D01*
X69251294Y-49970573D01*
X69251300Y-49970572D01*
X69441522Y-49900122D01*
X69441529Y-49900119D01*
X69613685Y-49792813D01*
X69760715Y-49653051D01*
X69876600Y-49486554D01*
X69956600Y-49300133D01*
X69997435Y-49101424D01*
X70000000Y-49000014D01*
X70000000Y-49000000D01*
X174997422Y-49000000D01*
X175017943Y-49201819D01*
X175078669Y-49395364D01*
X175078676Y-49395379D01*
X175177118Y-49572738D01*
X175177121Y-49572743D01*
X175309255Y-49726660D01*
X175309256Y-49726662D01*
X175469668Y-49850829D01*
X175651798Y-49940169D01*
X175848182Y-49991016D01*
X175848179Y-49991016D01*
X176050780Y-50001291D01*
X176050782Y-50001291D01*
X176251294Y-49970573D01*
X176251300Y-49970572D01*
X176441522Y-49900122D01*
X176441529Y-49900119D01*
X176613685Y-49792813D01*
X176760715Y-49653051D01*
X176876600Y-49486554D01*
X176956600Y-49300133D01*
X176997435Y-49101424D01*
X177000000Y-49000014D01*
X177000000Y-48999985D01*
X176997435Y-48898575D01*
X176956600Y-48699866D01*
X176876600Y-48513445D01*
X176760715Y-48346948D01*
X176613685Y-48207186D01*
X176441529Y-48099880D01*
X176441522Y-48099877D01*
X176251300Y-48029427D01*
X176251294Y-48029426D01*
X176050781Y-47998708D01*
X175848181Y-48008983D01*
X175651798Y-48059830D01*
X175469668Y-48149170D01*
X175309256Y-48273337D01*
X175309255Y-48273339D01*
X175177121Y-48427256D01*
X175177118Y-48427261D01*
X175078676Y-48604620D01*
X175078669Y-48604635D01*
X175017943Y-48798180D01*
X174997422Y-49000000D01*
X70000000Y-49000000D01*
X70000000Y-48999985D01*
X69997435Y-48898575D01*
X69956600Y-48699866D01*
X69876600Y-48513445D01*
X69760715Y-48346948D01*
X69613685Y-48207186D01*
X69441529Y-48099880D01*
X69441522Y-48099877D01*
X69251300Y-48029427D01*
X69251294Y-48029426D01*
X69050781Y-47998708D01*
X68848181Y-48008983D01*
X68651798Y-48059830D01*
X68469668Y-48149170D01*
X68309256Y-48273337D01*
X68309255Y-48273339D01*
X68177121Y-48427256D01*
X68177118Y-48427261D01*
X68078676Y-48604620D01*
X68078669Y-48604635D01*
X68017943Y-48798180D01*
X67997422Y-49000000D01*
X66000006Y-49000000D01*
X66000012Y-48999144D01*
X66002274Y-48837743D01*
X66003042Y-48825597D01*
X66039277Y-48504007D01*
X66041606Y-48490299D01*
X66113426Y-48175633D01*
X66117275Y-48162270D01*
X66223879Y-47857613D01*
X66229201Y-47844766D01*
X66369239Y-47553974D01*
X66375965Y-47541804D01*
X66547685Y-47268513D01*
X66555732Y-47257172D01*
X66756971Y-47004826D01*
X66766237Y-46994458D01*
X66994458Y-46766237D01*
X67004826Y-46756971D01*
X67257172Y-46555732D01*
X67268513Y-46547685D01*
X67541804Y-46375965D01*
X67553974Y-46369239D01*
X67844766Y-46229201D01*
X67857613Y-46223879D01*
X68162270Y-46117275D01*
X68175633Y-46113426D01*
X68490299Y-46041606D01*
X68504007Y-46039277D01*
X68825597Y-46003042D01*
X68837743Y-46002274D01*
X68999144Y-46000012D01*
X69000882Y-46000000D01*
X175999118Y-46000000D01*
X176000856Y-46000012D01*
G37*
G36*
X170011980Y-54752383D02*
G01*
X170071480Y-54764218D01*
X170116179Y-54782732D01*
X170156268Y-54809518D01*
X170190481Y-54843731D01*
X170217267Y-54883820D01*
X170235781Y-54928517D01*
X170247617Y-54988017D01*
X170250000Y-55012210D01*
X170250000Y-149987789D01*
X170247617Y-150011982D01*
X170235781Y-150071482D01*
X170217267Y-150116179D01*
X170190481Y-150156268D01*
X170156268Y-150190481D01*
X170116179Y-150217267D01*
X170071482Y-150235781D01*
X170011982Y-150247617D01*
X169987789Y-150250000D01*
X75012211Y-150250000D01*
X74988019Y-150247617D01*
X74928518Y-150235781D01*
X74883820Y-150217267D01*
X74843731Y-150190481D01*
X74809518Y-150156268D01*
X74782732Y-150116179D01*
X74764218Y-150071480D01*
X74752383Y-150011980D01*
X74750000Y-149987789D01*
X74750000Y-129899998D01*
X74999989Y-129899998D01*
X74999999Y-147499987D01*
X75002561Y-147663688D01*
X75002561Y-147663700D01*
X75045292Y-147988262D01*
X75045294Y-147988273D01*
X75130024Y-148304494D01*
X75255307Y-148606954D01*
X75255312Y-148606965D01*
X75418999Y-148890478D01*
X75618295Y-149150207D01*
X75618300Y-149150213D01*
X75849785Y-149381697D01*
X76109519Y-149580998D01*
X76109526Y-149581003D01*
X76393038Y-149744689D01*
X76393047Y-149744693D01*
X76695497Y-149869972D01*
X77011731Y-149954707D01*
X77336304Y-149997438D01*
X77500010Y-149999999D01*
X95099977Y-149999999D01*
X95217881Y-149997807D01*
X95450737Y-149960926D01*
X95674962Y-149888071D01*
X95885025Y-149781037D01*
X96075749Y-149642469D01*
X96075754Y-149642465D01*
X96242465Y-149475754D01*
X96242469Y-149475749D01*
X96381037Y-149285025D01*
X96488071Y-149074962D01*
X96560926Y-148850737D01*
X96597807Y-148617881D01*
X96600000Y-148499976D01*
X96600000Y-144351205D01*
X96600024Y-144348774D01*
X96602144Y-144240661D01*
X96603647Y-144223693D01*
X96637664Y-144008928D01*
X96642206Y-143990009D01*
X96709022Y-143784369D01*
X96716468Y-143766392D01*
X96814634Y-143573732D01*
X96824801Y-143557142D01*
X96951891Y-143382217D01*
X96964528Y-143367421D01*
X97117421Y-143214528D01*
X97132217Y-143201891D01*
X97307142Y-143074801D01*
X97323732Y-143064634D01*
X97516392Y-142966468D01*
X97534369Y-142959022D01*
X97740009Y-142892206D01*
X97758928Y-142887664D01*
X97973694Y-142853647D01*
X97990659Y-142852144D01*
X98098776Y-142850021D01*
X98101210Y-142849997D01*
X98349997Y-142849997D01*
X98458084Y-142847347D01*
X98458090Y-142847346D01*
X98670083Y-142805177D01*
X98670087Y-142805176D01*
X98869790Y-142722457D01*
X99049520Y-142602364D01*
X99049524Y-142602361D01*
X99202363Y-142449522D01*
X99202369Y-142449515D01*
X99322457Y-142269790D01*
X99405177Y-142070084D01*
X99405179Y-142070076D01*
X99447347Y-141858082D01*
X99450000Y-141749986D01*
X99450000Y-140424000D01*
X99469685Y-140356961D01*
X99522489Y-140311206D01*
X99574000Y-140300000D01*
X100425995Y-140300000D01*
X100493034Y-140319685D01*
X100538789Y-140372489D01*
X100549995Y-140424000D01*
X100549994Y-141750004D01*
X100552644Y-141858094D01*
X100552644Y-141858098D01*
X100594815Y-142070093D01*
X100594817Y-142070098D01*
X100677536Y-142269797D01*
X100797630Y-142449527D01*
X100797633Y-142449531D01*
X100950473Y-142602371D01*
X100950477Y-142602374D01*
X101130207Y-142722466D01*
X101329909Y-142805185D01*
X101329913Y-142805186D01*
X101541909Y-142847356D01*
X101650004Y-142850009D01*
X101898824Y-142850009D01*
X101901129Y-142850030D01*
X102009286Y-142852041D01*
X102026379Y-142853547D01*
X102241096Y-142887555D01*
X102260016Y-142892097D01*
X102465674Y-142958919D01*
X102483651Y-142966365D01*
X102676328Y-143064540D01*
X102692918Y-143074707D01*
X102867854Y-143201805D01*
X102882651Y-143214442D01*
X103035563Y-143367355D01*
X103048199Y-143382151D01*
X103175299Y-143557091D01*
X103185466Y-143573682D01*
X103283637Y-143766355D01*
X103291083Y-143784331D01*
X103357904Y-143989986D01*
X103362447Y-144008907D01*
X103396456Y-144223644D01*
X103397960Y-144240730D01*
X103399975Y-144348828D01*
X103399997Y-144351139D01*
X103399997Y-148500017D01*
X103402310Y-148617877D01*
X103402311Y-148617892D01*
X103439188Y-148850713D01*
X103512038Y-149074919D01*
X103619062Y-149284966D01*
X103757631Y-149475686D01*
X103924330Y-149642383D01*
X104115037Y-149780938D01*
X104325082Y-149887963D01*
X104549289Y-149960813D01*
X104782124Y-149997690D01*
X104899998Y-150000010D01*
X110099976Y-149999999D01*
X110217881Y-149997807D01*
X110450737Y-149960926D01*
X110674962Y-149888071D01*
X110885025Y-149781037D01*
X111075749Y-149642469D01*
X111075754Y-149642465D01*
X111242465Y-149475754D01*
X111242469Y-149475749D01*
X111381037Y-149285025D01*
X111488071Y-149074962D01*
X111560926Y-148850737D01*
X111597807Y-148617881D01*
X111600000Y-148499976D01*
X111600000Y-144351205D01*
X111600024Y-144348774D01*
X111602144Y-144240661D01*
X111603647Y-144223693D01*
X111637664Y-144008928D01*
X111642206Y-143990009D01*
X111709022Y-143784369D01*
X111716468Y-143766392D01*
X111814634Y-143573732D01*
X111824801Y-143557142D01*
X111951891Y-143382217D01*
X111964528Y-143367421D01*
X112117421Y-143214528D01*
X112132217Y-143201891D01*
X112307142Y-143074801D01*
X112323732Y-143064634D01*
X112516392Y-142966468D01*
X112534369Y-142959022D01*
X112740009Y-142892206D01*
X112758928Y-142887664D01*
X112973694Y-142853647D01*
X112990659Y-142852144D01*
X113098776Y-142850021D01*
X113101210Y-142849997D01*
X113349997Y-142849997D01*
X113458084Y-142847347D01*
X113458090Y-142847346D01*
X113670083Y-142805177D01*
X113670087Y-142805176D01*
X113869790Y-142722457D01*
X114049520Y-142602364D01*
X114049524Y-142602361D01*
X114202363Y-142449522D01*
X114202369Y-142449515D01*
X114322457Y-142269790D01*
X114405177Y-142070084D01*
X114405179Y-142070076D01*
X114447347Y-141858082D01*
X114450000Y-141749986D01*
X114450000Y-140424000D01*
X114469685Y-140356961D01*
X114522489Y-140311206D01*
X114574000Y-140300000D01*
X115425995Y-140300000D01*
X115493034Y-140319685D01*
X115538789Y-140372489D01*
X115549995Y-140424000D01*
X115549994Y-141750004D01*
X115552644Y-141858094D01*
X115552644Y-141858098D01*
X115594815Y-142070093D01*
X115594817Y-142070098D01*
X115677536Y-142269797D01*
X115797630Y-142449527D01*
X115797633Y-142449531D01*
X115950473Y-142602371D01*
X115950477Y-142602374D01*
X116130207Y-142722466D01*
X116329909Y-142805185D01*
X116329913Y-142805186D01*
X116541909Y-142847356D01*
X116650004Y-142850009D01*
X116898824Y-142850009D01*
X116901129Y-142850030D01*
X117009286Y-142852041D01*
X117026379Y-142853547D01*
X117241096Y-142887555D01*
X117260016Y-142892097D01*
X117465674Y-142958919D01*
X117483651Y-142966365D01*
X117676328Y-143064540D01*
X117692918Y-143074707D01*
X117867854Y-143201805D01*
X117882651Y-143214442D01*
X118035563Y-143367355D01*
X118048199Y-143382151D01*
X118175299Y-143557091D01*
X118185466Y-143573682D01*
X118283637Y-143766355D01*
X118291083Y-143784331D01*
X118357904Y-143989986D01*
X118362447Y-144008907D01*
X118396456Y-144223644D01*
X118397960Y-144240730D01*
X118399975Y-144348828D01*
X118399997Y-144351139D01*
X118399997Y-148500017D01*
X118402310Y-148617877D01*
X118402311Y-148617892D01*
X118439188Y-148850713D01*
X118512038Y-149074919D01*
X118619062Y-149284966D01*
X118757631Y-149475686D01*
X118924330Y-149642383D01*
X119115037Y-149780938D01*
X119325082Y-149887963D01*
X119549289Y-149960813D01*
X119782124Y-149997690D01*
X119899998Y-150000010D01*
X125099976Y-149999999D01*
X125217881Y-149997807D01*
X125450737Y-149960926D01*
X125674962Y-149888071D01*
X125885025Y-149781037D01*
X126075749Y-149642469D01*
X126075754Y-149642465D01*
X126242465Y-149475754D01*
X126242469Y-149475749D01*
X126381037Y-149285025D01*
X126488071Y-149074962D01*
X126560926Y-148850737D01*
X126597807Y-148617881D01*
X126600000Y-148499976D01*
X126600000Y-144351205D01*
X126600024Y-144348774D01*
X126602144Y-144240661D01*
X126603647Y-144223693D01*
X126637664Y-144008928D01*
X126642206Y-143990009D01*
X126709022Y-143784369D01*
X126716468Y-143766392D01*
X126814634Y-143573732D01*
X126824801Y-143557142D01*
X126951891Y-143382217D01*
X126964528Y-143367421D01*
X127117421Y-143214528D01*
X127132217Y-143201891D01*
X127307142Y-143074801D01*
X127323732Y-143064634D01*
X127516392Y-142966468D01*
X127534369Y-142959022D01*
X127740009Y-142892206D01*
X127758928Y-142887664D01*
X127973694Y-142853647D01*
X127990659Y-142852144D01*
X128098776Y-142850021D01*
X128101210Y-142849997D01*
X128349997Y-142849997D01*
X128458084Y-142847347D01*
X128458090Y-142847346D01*
X128670083Y-142805177D01*
X128670087Y-142805176D01*
X128869790Y-142722457D01*
X129049520Y-142602364D01*
X129049524Y-142602361D01*
X129202363Y-142449522D01*
X129202369Y-142449515D01*
X129322457Y-142269790D01*
X129405177Y-142070084D01*
X129405179Y-142070076D01*
X129447347Y-141858082D01*
X129450000Y-141749986D01*
X129450000Y-140424000D01*
X129469685Y-140356961D01*
X129522489Y-140311206D01*
X129574000Y-140300000D01*
X130425995Y-140300000D01*
X130493034Y-140319685D01*
X130538789Y-140372489D01*
X130549995Y-140424000D01*
X130549994Y-141750004D01*
X130552644Y-141858094D01*
X130552644Y-141858098D01*
X130594815Y-142070093D01*
X130594817Y-142070098D01*
X130677536Y-142269797D01*
X130797630Y-142449527D01*
X130797633Y-142449531D01*
X130950473Y-142602371D01*
X130950477Y-142602374D01*
X131130207Y-142722466D01*
X131329909Y-142805185D01*
X131329913Y-142805186D01*
X131541909Y-142847356D01*
X131650004Y-142850009D01*
X131898824Y-142850009D01*
X131901129Y-142850030D01*
X132009286Y-142852041D01*
X132026379Y-142853547D01*
X132241096Y-142887555D01*
X132260016Y-142892097D01*
X132465674Y-142958919D01*
X132483651Y-142966365D01*
X132676328Y-143064540D01*
X132692918Y-143074707D01*
X132867854Y-143201805D01*
X132882651Y-143214442D01*
X133035563Y-143367355D01*
X133048199Y-143382151D01*
X133175299Y-143557091D01*
X133185466Y-143573682D01*
X133283637Y-143766355D01*
X133291083Y-143784331D01*
X133357904Y-143989986D01*
X133362447Y-144008907D01*
X133396456Y-144223644D01*
X133397960Y-144240730D01*
X133399975Y-144348828D01*
X133399997Y-144351139D01*
X133399997Y-148500017D01*
X133402310Y-148617877D01*
X133402311Y-148617892D01*
X133439188Y-148850713D01*
X133512038Y-149074919D01*
X133619062Y-149284966D01*
X133757631Y-149475686D01*
X133924330Y-149642383D01*
X134115037Y-149780938D01*
X134325082Y-149887963D01*
X134549289Y-149960813D01*
X134782124Y-149997690D01*
X134899998Y-150000010D01*
X140099976Y-149999999D01*
X140217881Y-149997807D01*
X140450737Y-149960926D01*
X140674962Y-149888071D01*
X140885025Y-149781037D01*
X141075749Y-149642469D01*
X141075754Y-149642465D01*
X141242465Y-149475754D01*
X141242469Y-149475749D01*
X141381037Y-149285025D01*
X141488071Y-149074962D01*
X141560926Y-148850737D01*
X141597807Y-148617881D01*
X141600000Y-148499976D01*
X141600000Y-144351205D01*
X141600024Y-144348774D01*
X141602144Y-144240661D01*
X141603647Y-144223693D01*
X141637664Y-144008928D01*
X141642206Y-143990009D01*
X141709022Y-143784369D01*
X141716468Y-143766392D01*
X141814634Y-143573732D01*
X141824801Y-143557142D01*
X141951891Y-143382217D01*
X141964528Y-143367421D01*
X142117421Y-143214528D01*
X142132217Y-143201891D01*
X142307142Y-143074801D01*
X142323732Y-143064634D01*
X142516392Y-142966468D01*
X142534369Y-142959022D01*
X142740009Y-142892206D01*
X142758928Y-142887664D01*
X142973694Y-142853647D01*
X142990659Y-142852144D01*
X143098776Y-142850021D01*
X143101210Y-142849997D01*
X143349997Y-142849997D01*
X143458084Y-142847347D01*
X143458090Y-142847346D01*
X143670083Y-142805177D01*
X143670087Y-142805176D01*
X143869790Y-142722457D01*
X144049520Y-142602364D01*
X144049524Y-142602361D01*
X144202363Y-142449522D01*
X144202369Y-142449515D01*
X144322457Y-142269790D01*
X144405177Y-142070084D01*
X144405179Y-142070076D01*
X144447347Y-141858082D01*
X144450000Y-141749986D01*
X144450000Y-140424000D01*
X144469685Y-140356961D01*
X144522489Y-140311206D01*
X144574000Y-140300000D01*
X145425995Y-140300000D01*
X145493034Y-140319685D01*
X145538789Y-140372489D01*
X145549995Y-140424000D01*
X145549994Y-141750004D01*
X145552644Y-141858094D01*
X145552644Y-141858098D01*
X145594815Y-142070093D01*
X145594817Y-142070098D01*
X145677536Y-142269797D01*
X145797630Y-142449527D01*
X145797633Y-142449531D01*
X145950473Y-142602371D01*
X145950477Y-142602374D01*
X146130207Y-142722466D01*
X146329909Y-142805185D01*
X146329913Y-142805186D01*
X146541909Y-142847356D01*
X146650004Y-142850009D01*
X146898824Y-142850009D01*
X146901129Y-142850030D01*
X147009286Y-142852041D01*
X147026379Y-142853547D01*
X147241096Y-142887555D01*
X147260016Y-142892097D01*
X147465674Y-142958919D01*
X147483651Y-142966365D01*
X147676328Y-143064540D01*
X147692918Y-143074707D01*
X147867854Y-143201805D01*
X147882651Y-143214442D01*
X148035563Y-143367355D01*
X148048199Y-143382151D01*
X148175299Y-143557091D01*
X148185466Y-143573682D01*
X148283637Y-143766355D01*
X148291083Y-143784331D01*
X148357904Y-143989986D01*
X148362447Y-144008907D01*
X148396456Y-144223644D01*
X148397960Y-144240730D01*
X148399975Y-144348828D01*
X148399997Y-144351139D01*
X148399997Y-148500017D01*
X148402310Y-148617877D01*
X148402311Y-148617892D01*
X148439188Y-148850713D01*
X148512038Y-149074919D01*
X148619062Y-149284966D01*
X148757631Y-149475686D01*
X148924330Y-149642383D01*
X149115037Y-149780938D01*
X149325082Y-149887963D01*
X149549289Y-149960813D01*
X149782124Y-149997690D01*
X149899998Y-150000010D01*
X167499987Y-150000000D01*
X167663688Y-149997438D01*
X167663700Y-149997438D01*
X167988262Y-149954707D01*
X167988273Y-149954705D01*
X168304494Y-149869975D01*
X168606954Y-149744692D01*
X168606965Y-149744687D01*
X168890478Y-149581000D01*
X169150207Y-149381704D01*
X169150213Y-149381699D01*
X169381697Y-149150214D01*
X169580998Y-148890480D01*
X169581003Y-148890473D01*
X169744689Y-148606961D01*
X169744693Y-148606952D01*
X169869972Y-148304502D01*
X169954707Y-147988268D01*
X169997438Y-147663701D01*
X169997438Y-147663689D01*
X169999999Y-147499990D01*
X169999999Y-129900023D01*
X169997807Y-129782118D01*
X169960926Y-129549262D01*
X169888071Y-129325037D01*
X169781037Y-129114974D01*
X169642469Y-128924250D01*
X169642465Y-128924245D01*
X169475754Y-128757534D01*
X169475749Y-128757530D01*
X169285025Y-128618962D01*
X169074962Y-128511928D01*
X168850737Y-128439073D01*
X168617881Y-128402192D01*
X168499976Y-128400000D01*
X164351205Y-128400000D01*
X164348773Y-128399976D01*
X164240660Y-128397855D01*
X164223693Y-128396352D01*
X164008928Y-128362335D01*
X163990009Y-128357793D01*
X163784369Y-128290977D01*
X163766392Y-128283531D01*
X163573732Y-128185365D01*
X163557142Y-128175198D01*
X163382217Y-128048108D01*
X163367421Y-128035471D01*
X163214528Y-127882578D01*
X163201891Y-127867782D01*
X163074801Y-127692857D01*
X163064634Y-127676267D01*
X162966468Y-127483607D01*
X162959022Y-127465630D01*
X162892206Y-127259990D01*
X162887664Y-127241071D01*
X162853647Y-127026305D01*
X162852144Y-127009340D01*
X162850021Y-126901223D01*
X162849997Y-126898789D01*
X162849997Y-126650003D01*
X162847347Y-126541915D01*
X162847346Y-126541909D01*
X162805177Y-126329916D01*
X162805176Y-126329912D01*
X162722457Y-126130209D01*
X162602364Y-125950479D01*
X162602361Y-125950475D01*
X162449522Y-125797636D01*
X162449515Y-125797630D01*
X162269789Y-125677542D01*
X162269790Y-125677542D01*
X162070084Y-125594822D01*
X162070076Y-125594820D01*
X161858082Y-125552652D01*
X161749987Y-125550000D01*
X160424000Y-125550000D01*
X160356961Y-125530315D01*
X160311206Y-125477511D01*
X160300000Y-125426000D01*
X160300000Y-124574004D01*
X160319685Y-124506965D01*
X160372489Y-124461210D01*
X160424000Y-124450004D01*
X161750004Y-124450005D01*
X161858094Y-124447355D01*
X161858098Y-124447355D01*
X162070093Y-124405184D01*
X162070098Y-124405182D01*
X162269797Y-124322463D01*
X162449527Y-124202369D01*
X162449531Y-124202366D01*
X162602371Y-124049526D01*
X162602374Y-124049522D01*
X162722466Y-123869792D01*
X162805185Y-123670090D01*
X162805186Y-123670086D01*
X162847356Y-123458090D01*
X162850009Y-123349995D01*
X162850009Y-123101175D01*
X162850030Y-123098870D01*
X162852041Y-122990713D01*
X162853547Y-122973620D01*
X162887555Y-122758903D01*
X162892097Y-122739983D01*
X162958919Y-122534325D01*
X162966365Y-122516348D01*
X163064540Y-122323671D01*
X163074707Y-122307081D01*
X163201805Y-122132145D01*
X163214442Y-122117348D01*
X163367355Y-121964436D01*
X163382151Y-121951800D01*
X163557091Y-121824700D01*
X163573682Y-121814533D01*
X163766355Y-121716362D01*
X163784331Y-121708916D01*
X163989986Y-121642095D01*
X164008907Y-121637552D01*
X164223644Y-121603543D01*
X164240731Y-121602039D01*
X164348830Y-121600025D01*
X164351140Y-121600003D01*
X168500018Y-121600003D01*
X168617877Y-121597689D01*
X168617892Y-121597688D01*
X168850713Y-121560811D01*
X169074919Y-121487961D01*
X169284966Y-121380937D01*
X169475686Y-121242368D01*
X169642383Y-121075669D01*
X169780938Y-120884962D01*
X169887963Y-120674917D01*
X169960813Y-120450710D01*
X169997690Y-120217875D01*
X170000010Y-120100001D01*
X169999999Y-114900023D01*
X169997807Y-114782118D01*
X169960926Y-114549262D01*
X169888071Y-114325037D01*
X169781037Y-114114974D01*
X169642469Y-113924250D01*
X169642465Y-113924245D01*
X169475754Y-113757534D01*
X169475749Y-113757530D01*
X169285025Y-113618962D01*
X169074962Y-113511928D01*
X168850737Y-113439073D01*
X168617881Y-113402192D01*
X168499976Y-113400000D01*
X164351205Y-113400000D01*
X164348773Y-113399976D01*
X164240660Y-113397855D01*
X164223693Y-113396352D01*
X164008928Y-113362335D01*
X163990009Y-113357793D01*
X163784369Y-113290977D01*
X163766392Y-113283531D01*
X163573732Y-113185365D01*
X163557142Y-113175198D01*
X163382217Y-113048108D01*
X163367421Y-113035471D01*
X163214528Y-112882578D01*
X163201891Y-112867782D01*
X163074801Y-112692857D01*
X163064634Y-112676267D01*
X162966468Y-112483607D01*
X162959022Y-112465630D01*
X162892206Y-112259990D01*
X162887664Y-112241071D01*
X162853647Y-112026305D01*
X162852144Y-112009340D01*
X162850021Y-111901223D01*
X162849997Y-111898789D01*
X162849997Y-111650003D01*
X162847347Y-111541915D01*
X162847346Y-111541909D01*
X162805177Y-111329916D01*
X162805176Y-111329912D01*
X162722457Y-111130209D01*
X162602364Y-110950479D01*
X162602361Y-110950475D01*
X162449522Y-110797636D01*
X162449515Y-110797630D01*
X162269789Y-110677542D01*
X162269790Y-110677542D01*
X162070084Y-110594822D01*
X162070076Y-110594820D01*
X161858082Y-110552652D01*
X161749987Y-110550000D01*
X160424000Y-110550000D01*
X160356961Y-110530315D01*
X160311206Y-110477511D01*
X160300000Y-110426000D01*
X160300000Y-109574004D01*
X160319685Y-109506965D01*
X160372489Y-109461210D01*
X160424000Y-109450004D01*
X161750004Y-109450005D01*
X161858094Y-109447355D01*
X161858098Y-109447355D01*
X162070093Y-109405184D01*
X162070098Y-109405182D01*
X162269797Y-109322463D01*
X162449527Y-109202369D01*
X162449531Y-109202366D01*
X162602371Y-109049526D01*
X162602374Y-109049522D01*
X162722466Y-108869792D01*
X162805185Y-108670090D01*
X162805186Y-108670086D01*
X162847356Y-108458090D01*
X162850009Y-108349995D01*
X162850009Y-108101175D01*
X162850030Y-108098870D01*
X162852041Y-107990713D01*
X162853547Y-107973620D01*
X162887555Y-107758903D01*
X162892097Y-107739983D01*
X162958919Y-107534325D01*
X162966365Y-107516348D01*
X163064540Y-107323671D01*
X163074707Y-107307081D01*
X163201805Y-107132145D01*
X163214442Y-107117348D01*
X163367355Y-106964436D01*
X163382151Y-106951800D01*
X163557091Y-106824700D01*
X163573682Y-106814533D01*
X163766355Y-106716362D01*
X163784331Y-106708916D01*
X163989986Y-106642095D01*
X164008907Y-106637552D01*
X164223644Y-106603543D01*
X164240731Y-106602039D01*
X164348830Y-106600025D01*
X164351140Y-106600003D01*
X168500018Y-106600003D01*
X168617877Y-106597689D01*
X168617892Y-106597688D01*
X168850713Y-106560811D01*
X169074919Y-106487961D01*
X169284966Y-106380937D01*
X169475686Y-106242368D01*
X169642383Y-106075669D01*
X169780938Y-105884962D01*
X169887963Y-105674917D01*
X169960813Y-105450710D01*
X169997690Y-105217875D01*
X170000010Y-105100001D01*
X169999999Y-99900023D01*
X169997807Y-99782118D01*
X169960926Y-99549262D01*
X169888071Y-99325037D01*
X169781037Y-99114974D01*
X169642469Y-98924250D01*
X169642465Y-98924245D01*
X169475754Y-98757534D01*
X169475749Y-98757530D01*
X169285025Y-98618962D01*
X169074962Y-98511928D01*
X168850737Y-98439073D01*
X168617881Y-98402192D01*
X168499976Y-98400000D01*
X164351205Y-98400000D01*
X164348773Y-98399976D01*
X164240660Y-98397855D01*
X164223693Y-98396352D01*
X164008928Y-98362335D01*
X163990009Y-98357793D01*
X163784369Y-98290977D01*
X163766392Y-98283531D01*
X163573732Y-98185365D01*
X163557142Y-98175198D01*
X163382217Y-98048108D01*
X163367421Y-98035471D01*
X163214528Y-97882578D01*
X163201891Y-97867782D01*
X163074801Y-97692857D01*
X163064634Y-97676267D01*
X162966468Y-97483607D01*
X162959022Y-97465630D01*
X162892206Y-97259990D01*
X162887664Y-97241071D01*
X162853647Y-97026305D01*
X162852144Y-97009340D01*
X162850021Y-96901223D01*
X162849997Y-96898789D01*
X162849997Y-96650003D01*
X162847347Y-96541915D01*
X162847346Y-96541909D01*
X162805177Y-96329916D01*
X162805176Y-96329912D01*
X162722457Y-96130209D01*
X162602364Y-95950479D01*
X162602361Y-95950475D01*
X162449522Y-95797636D01*
X162449515Y-95797630D01*
X162269789Y-95677542D01*
X162269790Y-95677542D01*
X162070084Y-95594822D01*
X162070076Y-95594820D01*
X161858082Y-95552652D01*
X161749987Y-95550000D01*
X160424000Y-95550000D01*
X160356961Y-95530315D01*
X160311206Y-95477511D01*
X160300000Y-95426000D01*
X160300000Y-94574004D01*
X160319685Y-94506965D01*
X160372489Y-94461210D01*
X160424000Y-94450004D01*
X161750004Y-94450005D01*
X161858094Y-94447355D01*
X161858098Y-94447355D01*
X162070093Y-94405184D01*
X162070098Y-94405182D01*
X162269797Y-94322463D01*
X162449527Y-94202369D01*
X162449531Y-94202366D01*
X162602371Y-94049526D01*
X162602374Y-94049522D01*
X162722466Y-93869792D01*
X162805185Y-93670090D01*
X162805186Y-93670086D01*
X162847356Y-93458090D01*
X162850009Y-93349995D01*
X162850009Y-93101175D01*
X162850030Y-93098870D01*
X162852041Y-92990713D01*
X162853547Y-92973620D01*
X162887555Y-92758903D01*
X162892097Y-92739983D01*
X162958919Y-92534325D01*
X162966365Y-92516348D01*
X163064540Y-92323671D01*
X163074707Y-92307081D01*
X163201805Y-92132145D01*
X163214442Y-92117348D01*
X163367355Y-91964436D01*
X163382151Y-91951800D01*
X163557091Y-91824700D01*
X163573682Y-91814533D01*
X163766355Y-91716362D01*
X163784331Y-91708916D01*
X163989986Y-91642095D01*
X164008907Y-91637552D01*
X164223644Y-91603543D01*
X164240731Y-91602039D01*
X164348830Y-91600025D01*
X164351140Y-91600003D01*
X168500018Y-91600003D01*
X168617877Y-91597689D01*
X168617892Y-91597688D01*
X168850713Y-91560811D01*
X169074919Y-91487961D01*
X169284966Y-91380937D01*
X169475686Y-91242368D01*
X169642383Y-91075669D01*
X169780938Y-90884962D01*
X169887963Y-90674917D01*
X169960813Y-90450710D01*
X169997690Y-90217875D01*
X170000010Y-90100001D01*
X169999999Y-84900023D01*
X169997807Y-84782118D01*
X169960926Y-84549262D01*
X169888071Y-84325037D01*
X169781037Y-84114974D01*
X169642469Y-83924250D01*
X169642465Y-83924245D01*
X169475754Y-83757534D01*
X169475749Y-83757530D01*
X169285025Y-83618962D01*
X169074962Y-83511928D01*
X168850737Y-83439073D01*
X168617881Y-83402192D01*
X168499976Y-83400000D01*
X164351205Y-83400000D01*
X164348773Y-83399976D01*
X164240660Y-83397855D01*
X164223693Y-83396352D01*
X164008928Y-83362335D01*
X163990009Y-83357793D01*
X163784369Y-83290977D01*
X163766392Y-83283531D01*
X163573732Y-83185365D01*
X163557142Y-83175198D01*
X163382217Y-83048108D01*
X163367421Y-83035471D01*
X163214528Y-82882578D01*
X163201891Y-82867782D01*
X163074801Y-82692857D01*
X163064634Y-82676267D01*
X162966468Y-82483607D01*
X162959022Y-82465630D01*
X162892206Y-82259990D01*
X162887664Y-82241071D01*
X162853647Y-82026305D01*
X162852144Y-82009340D01*
X162850021Y-81901223D01*
X162849997Y-81898789D01*
X162849997Y-81650003D01*
X162847347Y-81541915D01*
X162847346Y-81541909D01*
X162805177Y-81329916D01*
X162805176Y-81329912D01*
X162722457Y-81130209D01*
X162602364Y-80950479D01*
X162602361Y-80950475D01*
X162449522Y-80797636D01*
X162449515Y-80797630D01*
X162269789Y-80677542D01*
X162269790Y-80677542D01*
X162070084Y-80594822D01*
X162070076Y-80594820D01*
X161858082Y-80552652D01*
X161749987Y-80550000D01*
X160424000Y-80550000D01*
X160356961Y-80530315D01*
X160311206Y-80477511D01*
X160300000Y-80426000D01*
X160300000Y-79574004D01*
X160319685Y-79506965D01*
X160372489Y-79461210D01*
X160424000Y-79450004D01*
X161750004Y-79450005D01*
X161858094Y-79447355D01*
X161858098Y-79447355D01*
X162070093Y-79405184D01*
X162070098Y-79405182D01*
X162269797Y-79322463D01*
X162449527Y-79202369D01*
X162449531Y-79202366D01*
X162602371Y-79049526D01*
X162602374Y-79049522D01*
X162722466Y-78869792D01*
X162805185Y-78670090D01*
X162805186Y-78670086D01*
X162847356Y-78458090D01*
X162850009Y-78349995D01*
X162850009Y-78101175D01*
X162850030Y-78098870D01*
X162852041Y-77990713D01*
X162853547Y-77973620D01*
X162887555Y-77758903D01*
X162892097Y-77739983D01*
X162958919Y-77534325D01*
X162966365Y-77516348D01*
X163064540Y-77323671D01*
X163074707Y-77307081D01*
X163201805Y-77132145D01*
X163214442Y-77117348D01*
X163367355Y-76964436D01*
X163382151Y-76951800D01*
X163557091Y-76824700D01*
X163573682Y-76814533D01*
X163766355Y-76716362D01*
X163784331Y-76708916D01*
X163989986Y-76642095D01*
X164008907Y-76637552D01*
X164223644Y-76603543D01*
X164240731Y-76602039D01*
X164348830Y-76600025D01*
X164351140Y-76600003D01*
X168500018Y-76600003D01*
X168617877Y-76597689D01*
X168617892Y-76597688D01*
X168850713Y-76560811D01*
X169074919Y-76487961D01*
X169284966Y-76380937D01*
X169475686Y-76242368D01*
X169642383Y-76075669D01*
X169780938Y-75884962D01*
X169887963Y-75674917D01*
X169960813Y-75450710D01*
X169997690Y-75217875D01*
X170000010Y-75100001D01*
X170000000Y-57500012D01*
X169997438Y-57336311D01*
X169997438Y-57336299D01*
X169954707Y-57011737D01*
X169954705Y-57011726D01*
X169869975Y-56695505D01*
X169744692Y-56393045D01*
X169744687Y-56393034D01*
X169581000Y-56109521D01*
X169381704Y-55849792D01*
X169381699Y-55849786D01*
X169150214Y-55618302D01*
X168890480Y-55419001D01*
X168890473Y-55418996D01*
X168606961Y-55255310D01*
X168606952Y-55255306D01*
X168304502Y-55130027D01*
X167988268Y-55045292D01*
X167663695Y-55002561D01*
X167499990Y-55000001D01*
X149900023Y-55000001D01*
X149782118Y-55002192D01*
X149549262Y-55039073D01*
X149325037Y-55111928D01*
X149114974Y-55218962D01*
X148924250Y-55357530D01*
X148924245Y-55357534D01*
X148757534Y-55524245D01*
X148757530Y-55524250D01*
X148618962Y-55714974D01*
X148511928Y-55925037D01*
X148439073Y-56149262D01*
X148402192Y-56382118D01*
X148400000Y-56500023D01*
X148400000Y-59826000D01*
X148380315Y-59893039D01*
X148327511Y-59938794D01*
X148276000Y-59950000D01*
X141724003Y-59950000D01*
X141656964Y-59930315D01*
X141611209Y-59877511D01*
X141600003Y-59826000D01*
X141600003Y-56499982D01*
X141597689Y-56382122D01*
X141597688Y-56382107D01*
X141560811Y-56149286D01*
X141487961Y-55925080D01*
X141380937Y-55715033D01*
X141242368Y-55524313D01*
X141075669Y-55357616D01*
X140884962Y-55219061D01*
X140674917Y-55112036D01*
X140450710Y-55039186D01*
X140217875Y-55002309D01*
X140100001Y-54999989D01*
X134900023Y-55000000D01*
X134782118Y-55002192D01*
X134549262Y-55039073D01*
X134325037Y-55111928D01*
X134114974Y-55218962D01*
X133924250Y-55357530D01*
X133924245Y-55357534D01*
X133757534Y-55524245D01*
X133757530Y-55524250D01*
X133618962Y-55714974D01*
X133511928Y-55925037D01*
X133439073Y-56149262D01*
X133402192Y-56382118D01*
X133400000Y-56500023D01*
X133400000Y-59826000D01*
X133380315Y-59893039D01*
X133327511Y-59938794D01*
X133276000Y-59950000D01*
X126724003Y-59950000D01*
X126656964Y-59930315D01*
X126611209Y-59877511D01*
X126600003Y-59826000D01*
X126600003Y-56499982D01*
X126597689Y-56382122D01*
X126597688Y-56382107D01*
X126560811Y-56149286D01*
X126487961Y-55925080D01*
X126380937Y-55715033D01*
X126242368Y-55524313D01*
X126075669Y-55357616D01*
X125884962Y-55219061D01*
X125674917Y-55112036D01*
X125450710Y-55039186D01*
X125217875Y-55002309D01*
X125100001Y-54999989D01*
X119900023Y-55000000D01*
X119782118Y-55002192D01*
X119549262Y-55039073D01*
X119325037Y-55111928D01*
X119114974Y-55218962D01*
X118924250Y-55357530D01*
X118924245Y-55357534D01*
X118757534Y-55524245D01*
X118757530Y-55524250D01*
X118618962Y-55714974D01*
X118511928Y-55925037D01*
X118439073Y-56149262D01*
X118402192Y-56382118D01*
X118400000Y-56500023D01*
X118400000Y-59826000D01*
X118380315Y-59893039D01*
X118327511Y-59938794D01*
X118276000Y-59950000D01*
X111724003Y-59950000D01*
X111656964Y-59930315D01*
X111611209Y-59877511D01*
X111600003Y-59826000D01*
X111600003Y-56499982D01*
X111597689Y-56382122D01*
X111597688Y-56382107D01*
X111560811Y-56149286D01*
X111487961Y-55925080D01*
X111380937Y-55715033D01*
X111242368Y-55524313D01*
X111075669Y-55357616D01*
X110884962Y-55219061D01*
X110674917Y-55112036D01*
X110450710Y-55039186D01*
X110217875Y-55002309D01*
X110100001Y-54999989D01*
X104900023Y-55000000D01*
X104782118Y-55002192D01*
X104549262Y-55039073D01*
X104325037Y-55111928D01*
X104114974Y-55218962D01*
X103924250Y-55357530D01*
X103924245Y-55357534D01*
X103757534Y-55524245D01*
X103757530Y-55524250D01*
X103618962Y-55714974D01*
X103511928Y-55925037D01*
X103439073Y-56149262D01*
X103402192Y-56382118D01*
X103400000Y-56500023D01*
X103400000Y-59826000D01*
X103380315Y-59893039D01*
X103327511Y-59938794D01*
X103276000Y-59950000D01*
X96724003Y-59950000D01*
X96656964Y-59930315D01*
X96611209Y-59877511D01*
X96600003Y-59826000D01*
X96600003Y-56499982D01*
X96597689Y-56382122D01*
X96597688Y-56382107D01*
X96560811Y-56149286D01*
X96487961Y-55925080D01*
X96380937Y-55715033D01*
X96242368Y-55524313D01*
X96075669Y-55357616D01*
X95884962Y-55219061D01*
X95674917Y-55112036D01*
X95450710Y-55039186D01*
X95217875Y-55002309D01*
X95100001Y-54999989D01*
X77499973Y-54999999D01*
X77336322Y-55002675D01*
X77336305Y-55002677D01*
X77011754Y-55045405D01*
X76695538Y-55130135D01*
X76393098Y-55255410D01*
X76393088Y-55255414D01*
X76109584Y-55419095D01*
X75849868Y-55618382D01*
X75849861Y-55618388D01*
X75618388Y-55849861D01*
X75618382Y-55849868D01*
X75419095Y-56109584D01*
X75255414Y-56393088D01*
X75255410Y-56393098D01*
X75130135Y-56695538D01*
X75045405Y-57011754D01*
X75002677Y-57336305D01*
X75002675Y-57336322D01*
X75000000Y-57499973D01*
X75000000Y-75099976D01*
X75002192Y-75217881D01*
X75039073Y-75450737D01*
X75111928Y-75674962D01*
X75218962Y-75885025D01*
X75357530Y-76075749D01*
X75357534Y-76075754D01*
X75524245Y-76242465D01*
X75524250Y-76242469D01*
X75714974Y-76381037D01*
X75925037Y-76488071D01*
X76149262Y-76560926D01*
X76382118Y-76597807D01*
X76500024Y-76600000D01*
X79826000Y-76600000D01*
X79893039Y-76619685D01*
X79938794Y-76672489D01*
X79950000Y-76724000D01*
X79950000Y-83275997D01*
X79930315Y-83343036D01*
X79877511Y-83388791D01*
X79826000Y-83399997D01*
X76499982Y-83399997D01*
X76382122Y-83402310D01*
X76382107Y-83402311D01*
X76149286Y-83439188D01*
X75925080Y-83512038D01*
X75715033Y-83619062D01*
X75524313Y-83757631D01*
X75357616Y-83924330D01*
X75219061Y-84115037D01*
X75112036Y-84325082D01*
X75039186Y-84549289D01*
X75002309Y-84782124D01*
X74999989Y-84899998D01*
X75000000Y-90099976D01*
X75002192Y-90217881D01*
X75039073Y-90450737D01*
X75111928Y-90674962D01*
X75218962Y-90885025D01*
X75357530Y-91075749D01*
X75357534Y-91075754D01*
X75524245Y-91242465D01*
X75524250Y-91242469D01*
X75714974Y-91381037D01*
X75925037Y-91488071D01*
X76149262Y-91560926D01*
X76382118Y-91597807D01*
X76500024Y-91600000D01*
X79826000Y-91600000D01*
X79893039Y-91619685D01*
X79938794Y-91672489D01*
X79950000Y-91724000D01*
X79950000Y-98275997D01*
X79930315Y-98343036D01*
X79877511Y-98388791D01*
X79826000Y-98399997D01*
X76499982Y-98399997D01*
X76382122Y-98402310D01*
X76382107Y-98402311D01*
X76149286Y-98439188D01*
X75925080Y-98512038D01*
X75715033Y-98619062D01*
X75524313Y-98757631D01*
X75357616Y-98924330D01*
X75219061Y-99115037D01*
X75112036Y-99325082D01*
X75039186Y-99549289D01*
X75002309Y-99782124D01*
X74999989Y-99899998D01*
X75000015Y-105099982D01*
X75002208Y-105217885D01*
X75039089Y-105450736D01*
X75111943Y-105674958D01*
X75111944Y-105674961D01*
X75218974Y-105885015D01*
X75357558Y-106075759D01*
X75524259Y-106242456D01*
X75524264Y-106242460D01*
X75714996Y-106381033D01*
X75925054Y-106488061D01*
X75925065Y-106488066D01*
X76149272Y-106560912D01*
X76382147Y-106597794D01*
X76500006Y-106600006D01*
X79826000Y-106600006D01*
X79893039Y-106619691D01*
X79938794Y-106672495D01*
X79950000Y-106724006D01*
X79950000Y-113276003D01*
X79930315Y-113343042D01*
X79877511Y-113388797D01*
X79826000Y-113400003D01*
X76500026Y-113400003D01*
X76382121Y-113402194D01*
X76149264Y-113439075D01*
X75925046Y-113511926D01*
X75925043Y-113511927D01*
X75714979Y-113618961D01*
X75524244Y-113757540D01*
X75524243Y-113757540D01*
X75357540Y-113924243D01*
X75357540Y-113924244D01*
X75218961Y-114114979D01*
X75111927Y-114325043D01*
X75111926Y-114325046D01*
X75039075Y-114549264D01*
X75002194Y-114782122D01*
X75000003Y-114900024D01*
X75000001Y-120099976D01*
X75002192Y-120217881D01*
X75039073Y-120450737D01*
X75111928Y-120674962D01*
X75218962Y-120885025D01*
X75357530Y-121075749D01*
X75357534Y-121075754D01*
X75524245Y-121242465D01*
X75524250Y-121242469D01*
X75714974Y-121381037D01*
X75925037Y-121488071D01*
X76149262Y-121560926D01*
X76382118Y-121597807D01*
X76500024Y-121600000D01*
X79826000Y-121600000D01*
X79893039Y-121619685D01*
X79938794Y-121672489D01*
X79950000Y-121724000D01*
X79950000Y-128275997D01*
X79930315Y-128343036D01*
X79877511Y-128388791D01*
X79826000Y-128399997D01*
X76499982Y-128399997D01*
X76382122Y-128402310D01*
X76382107Y-128402311D01*
X76149286Y-128439188D01*
X75925080Y-128512038D01*
X75715033Y-128619062D01*
X75524313Y-128757631D01*
X75357616Y-128924330D01*
X75219061Y-129115037D01*
X75112036Y-129325082D01*
X75039186Y-129549289D01*
X75002309Y-129782124D01*
X74999989Y-129899998D01*
X74750000Y-129899998D01*
X74750000Y-55012210D01*
X74752383Y-54988019D01*
X74764218Y-54928519D01*
X74782732Y-54883820D01*
X74809518Y-54843731D01*
X74843731Y-54809518D01*
X74883820Y-54782732D01*
X74928520Y-54764217D01*
X74988021Y-54752382D01*
X75012211Y-54750000D01*
X169987789Y-54750000D01*
X170011980Y-54752383D01*
G37*
M02*
