G04 #@! TF.GenerationSoftware,KiCad,Pcbnew,8.0.1-unknown-202403172319~81f55dfc9c~ubuntu22.04.1*
G04 #@! TF.CreationDate,2024-03-25T12:05:19+00:00*
G04 #@! TF.ProjectId,LIS3DH_array,4c495333-4448-45f6-9172-7261792e6b69,rev?*
G04 #@! TF.SameCoordinates,Original*
G04 #@! TF.FileFunction,Paste,Top*
G04 #@! TF.FilePolarity,Positive*
%FSLAX46Y46*%
G04 Gerber Fmt 4.6, Leading zero omitted, Abs format (unit mm)*
G04 Created by KiCad (PCBNEW 8.0.1-unknown-202403172319~81f55dfc9c~ubuntu22.04.1) date 2024-03-25 12:05:19*
%MOMM*%
%LPD*%
G01*
G04 APERTURE LIST*
G04 Aperture macros list*
%AMRoundRect*
0 Rectangle with rounded corners*
0 $1 Rounding radius*
0 $2 $3 $4 $5 $6 $7 $8 $9 X,Y pos of 4 corners*
0 Add a 4 corners polygon primitive as box body*
4,1,4,$2,$3,$4,$5,$6,$7,$8,$9,$2,$3,0*
0 Add four circle primitives for the rounded corners*
1,1,$1+$1,$2,$3*
1,1,$1+$1,$4,$5*
1,1,$1+$1,$6,$7*
1,1,$1+$1,$8,$9*
0 Add four rect primitives between the rounded corners*
20,1,$1+$1,$2,$3,$4,$5,0*
20,1,$1+$1,$4,$5,$6,$7,0*
20,1,$1+$1,$6,$7,$8,$9,0*
20,1,$1+$1,$8,$9,$2,$3,0*%
G04 Aperture macros list end*
%ADD10RoundRect,0.087500X0.187500X0.087500X-0.187500X0.087500X-0.187500X-0.087500X0.187500X-0.087500X0*%
%ADD11RoundRect,0.087500X0.087500X0.187500X-0.087500X0.187500X-0.087500X-0.187500X0.087500X-0.187500X0*%
%ADD12R,0.800000X0.300000*%
%ADD13R,0.800000X0.400000*%
%ADD14RoundRect,0.155000X-0.155000X0.212500X-0.155000X-0.212500X0.155000X-0.212500X0.155000X0.212500X0*%
%ADD15RoundRect,0.155000X0.212500X0.155000X-0.212500X0.155000X-0.212500X-0.155000X0.212500X-0.155000X0*%
%ADD16R,0.300000X0.800000*%
%ADD17R,0.400000X0.800000*%
%ADD18RoundRect,0.087500X-0.187500X-0.087500X0.187500X-0.087500X0.187500X0.087500X-0.187500X0.087500X0*%
%ADD19RoundRect,0.087500X-0.087500X-0.187500X0.087500X-0.187500X0.087500X0.187500X-0.087500X0.187500X0*%
%ADD20RoundRect,0.087500X-0.087500X0.187500X-0.087500X-0.187500X0.087500X-0.187500X0.087500X0.187500X0*%
%ADD21RoundRect,0.087500X-0.187500X0.087500X-0.187500X-0.087500X0.187500X-0.087500X0.187500X0.087500X0*%
%ADD22RoundRect,0.087500X0.087500X-0.187500X0.087500X0.187500X-0.087500X0.187500X-0.087500X-0.187500X0*%
%ADD23RoundRect,0.087500X0.187500X-0.087500X0.187500X0.087500X-0.187500X0.087500X-0.187500X-0.087500X0*%
%ADD24RoundRect,0.155000X0.155000X-0.212500X0.155000X0.212500X-0.155000X0.212500X-0.155000X-0.212500X0*%
%ADD25RoundRect,0.155000X-0.212500X-0.155000X0.212500X-0.155000X0.212500X0.155000X-0.212500X0.155000X0*%
%ADD26R,0.300000X1.300000*%
%ADD27R,2.000000X1.600000*%
G04 APERTURE END LIST*
D10*
X131225000Y-96000000D03*
X131225000Y-95500000D03*
X131225000Y-95000000D03*
X131225000Y-94500000D03*
X131225000Y-94000000D03*
D11*
X130500000Y-93775000D03*
X130000000Y-93775000D03*
X129500000Y-93775000D03*
D10*
X128775000Y-94000000D03*
X128775000Y-94500000D03*
X128775000Y-95000000D03*
X128775000Y-95500000D03*
X128775000Y-96000000D03*
D11*
X129500000Y-96225000D03*
X130000000Y-96225000D03*
X130500000Y-96225000D03*
D12*
X163590000Y-111250000D03*
X163590000Y-110750000D03*
X163590000Y-110250000D03*
X163590000Y-109750000D03*
X163590000Y-109250000D03*
X163590000Y-108750000D03*
D13*
X166090000Y-107750000D03*
X166090000Y-112250000D03*
D14*
X127700000Y-109332501D03*
X127700000Y-110467501D03*
X127700000Y-124632500D03*
X127700000Y-125767500D03*
D15*
X115667499Y-107700000D03*
X114532499Y-107700000D03*
D12*
X81410000Y-93750000D03*
X81410000Y-94250000D03*
X81410000Y-94750000D03*
X81410000Y-95250000D03*
X81410000Y-95750000D03*
X81410000Y-96250000D03*
D13*
X78910000Y-97250000D03*
X78910000Y-92750000D03*
D14*
X142700000Y-124632500D03*
X142700000Y-125767500D03*
X112700000Y-124632500D03*
X112700000Y-125767500D03*
D16*
X113750000Y-143590000D03*
X114250000Y-143590000D03*
X114750000Y-143590000D03*
X115250000Y-143590000D03*
X115750000Y-143590000D03*
X116250000Y-143590000D03*
D17*
X117250000Y-146090000D03*
X112750000Y-146090000D03*
D18*
X113775000Y-124000000D03*
X113775000Y-124500000D03*
X113775000Y-125000000D03*
X113775000Y-125500000D03*
X113775000Y-126000000D03*
D19*
X114500000Y-126225000D03*
X115000000Y-126225000D03*
X115500000Y-126225000D03*
D18*
X116225000Y-126000000D03*
X116225000Y-125500000D03*
X116225000Y-125000000D03*
X116225000Y-124500000D03*
X116225000Y-124000000D03*
D19*
X115500000Y-123775000D03*
X115000000Y-123775000D03*
X114500000Y-123775000D03*
D20*
X101000000Y-123775000D03*
X100500000Y-123775000D03*
X100000000Y-123775000D03*
X99500000Y-123775000D03*
X99000000Y-123775000D03*
D21*
X98775000Y-124500000D03*
X98775000Y-125000000D03*
X98775000Y-125500000D03*
D20*
X99000000Y-126225000D03*
X99500000Y-126225000D03*
X100000000Y-126225000D03*
X100500000Y-126225000D03*
X101000000Y-126225000D03*
D21*
X101225000Y-125500000D03*
X101225000Y-125000000D03*
X101225000Y-124500000D03*
D22*
X144000000Y-96225000D03*
X144500000Y-96225000D03*
X145000000Y-96225000D03*
X145500000Y-96225000D03*
X146000000Y-96225000D03*
D23*
X146225000Y-95500000D03*
X146225000Y-95000000D03*
X146225000Y-94500000D03*
D22*
X146000000Y-93775000D03*
X145500000Y-93775000D03*
X145000000Y-93775000D03*
X144500000Y-93775000D03*
X144000000Y-93775000D03*
D23*
X143775000Y-94500000D03*
X143775000Y-95000000D03*
X143775000Y-95500000D03*
D18*
X143775000Y-124000000D03*
X143775000Y-124500000D03*
X143775000Y-125000000D03*
X143775000Y-125500000D03*
X143775000Y-126000000D03*
D19*
X144500000Y-126225000D03*
X145000000Y-126225000D03*
X145500000Y-126225000D03*
D18*
X146225000Y-126000000D03*
X146225000Y-125500000D03*
X146225000Y-125000000D03*
X146225000Y-124500000D03*
X146225000Y-124000000D03*
D19*
X145500000Y-123775000D03*
X145000000Y-123775000D03*
X144500000Y-123775000D03*
D16*
X143750000Y-143590000D03*
X144250000Y-143590000D03*
X144750000Y-143590000D03*
X145250000Y-143590000D03*
X145750000Y-143590000D03*
X146250000Y-143590000D03*
D17*
X147250000Y-146090000D03*
X142750000Y-146090000D03*
D15*
X145667499Y-122700000D03*
X144532499Y-122700000D03*
D12*
X81410000Y-123750000D03*
X81410000Y-124250000D03*
X81410000Y-124750000D03*
X81410000Y-125250000D03*
X81410000Y-125750000D03*
X81410000Y-126250000D03*
D13*
X78910000Y-127250000D03*
X78910000Y-122750000D03*
D12*
X163590000Y-96250000D03*
X163590000Y-95750000D03*
X163590000Y-95250000D03*
X163590000Y-94750000D03*
X163590000Y-94250000D03*
X163590000Y-93750000D03*
D13*
X166090000Y-92750000D03*
X166090000Y-97250000D03*
D24*
X117300000Y-95667499D03*
X117300000Y-94532499D03*
D25*
X129332500Y-82300000D03*
X130467500Y-82300000D03*
X144632500Y-82300000D03*
X145767500Y-82300000D03*
X144632500Y-112300000D03*
X145767500Y-112300000D03*
D16*
X131250000Y-61410000D03*
X130750000Y-61410000D03*
X130250000Y-61410000D03*
X129750000Y-61410000D03*
X129250000Y-61410000D03*
X128750000Y-61410000D03*
D17*
X127750000Y-58910000D03*
X132250000Y-58910000D03*
D12*
X163590000Y-81250000D03*
X163590000Y-80750000D03*
X163590000Y-80250000D03*
X163590000Y-79750000D03*
X163590000Y-79250000D03*
X163590000Y-78750000D03*
D13*
X166090000Y-77750000D03*
X166090000Y-82250000D03*
D25*
X129332500Y-97300000D03*
X130467500Y-97300000D03*
D26*
X117250000Y-52287500D03*
X117750000Y-52287500D03*
X118250000Y-52287500D03*
X118750000Y-52287500D03*
X119250000Y-52287500D03*
X119750000Y-52287500D03*
X120250000Y-52287500D03*
X120750000Y-52287500D03*
X121250000Y-52287500D03*
X121750000Y-52287500D03*
X122250000Y-52287500D03*
X122750000Y-52287500D03*
X123250000Y-52287500D03*
X123750000Y-52287500D03*
X124250000Y-52287500D03*
X124750000Y-52287500D03*
X125250000Y-52287500D03*
X125750000Y-52287500D03*
X126250000Y-52287500D03*
X126750000Y-52287500D03*
X127250000Y-52287500D03*
X127750000Y-52287500D03*
D27*
X129450000Y-49607500D03*
X115550000Y-49607500D03*
D22*
X129000000Y-111225000D03*
X129500000Y-111225000D03*
X130000000Y-111225000D03*
X130500000Y-111225000D03*
X131000000Y-111225000D03*
D23*
X131225000Y-110500000D03*
X131225000Y-110000000D03*
X131225000Y-109500000D03*
D22*
X131000000Y-108775000D03*
X130500000Y-108775000D03*
X130000000Y-108775000D03*
X129500000Y-108775000D03*
X129000000Y-108775000D03*
D23*
X128775000Y-109500000D03*
X128775000Y-110000000D03*
X128775000Y-110500000D03*
D14*
X112700000Y-109632500D03*
X112700000Y-110767500D03*
D15*
X115367500Y-92700000D03*
X114232500Y-92700000D03*
X115667499Y-122700000D03*
X114532499Y-122700000D03*
D10*
X131225000Y-81000000D03*
X131225000Y-80500000D03*
X131225000Y-80000000D03*
X131225000Y-79500000D03*
X131225000Y-79000000D03*
D11*
X130500000Y-78775000D03*
X130000000Y-78775000D03*
X129500000Y-78775000D03*
D10*
X128775000Y-79000000D03*
X128775000Y-79500000D03*
X128775000Y-80000000D03*
X128775000Y-80500000D03*
X128775000Y-81000000D03*
D11*
X129500000Y-81225000D03*
X130000000Y-81225000D03*
X130500000Y-81225000D03*
D14*
X142700000Y-79332501D03*
X142700000Y-80467501D03*
D24*
X132300000Y-95367500D03*
X132300000Y-94232500D03*
D25*
X114332500Y-82300000D03*
X115467500Y-82300000D03*
D16*
X101250000Y-61410000D03*
X100750000Y-61410000D03*
X100250000Y-61410000D03*
X99750000Y-61410000D03*
X99250000Y-61410000D03*
X98750000Y-61410000D03*
D17*
X97750000Y-58910000D03*
X102250000Y-58910000D03*
D12*
X163590000Y-126250000D03*
X163590000Y-125750000D03*
X163590000Y-125250000D03*
X163590000Y-124750000D03*
X163590000Y-124250000D03*
X163590000Y-123750000D03*
D13*
X166090000Y-122750000D03*
X166090000Y-127250000D03*
D24*
X102300000Y-80367500D03*
X102300000Y-79232500D03*
X117300000Y-80367500D03*
X117300000Y-79232500D03*
X132300000Y-80367500D03*
X132300000Y-79232500D03*
D20*
X101000000Y-93775000D03*
X100500000Y-93775000D03*
X100000000Y-93775000D03*
X99500000Y-93775000D03*
X99000000Y-93775000D03*
D21*
X98775000Y-94500000D03*
X98775000Y-95000000D03*
X98775000Y-95500000D03*
D20*
X99000000Y-96225000D03*
X99500000Y-96225000D03*
X100000000Y-96225000D03*
X100500000Y-96225000D03*
X101000000Y-96225000D03*
D21*
X101225000Y-95500000D03*
X101225000Y-95000000D03*
X101225000Y-94500000D03*
D20*
X116000000Y-93775000D03*
X115500000Y-93775000D03*
X115000000Y-93775000D03*
X114500000Y-93775000D03*
X114000000Y-93775000D03*
D21*
X113775000Y-94500000D03*
X113775000Y-95000000D03*
X113775000Y-95500000D03*
D20*
X114000000Y-96225000D03*
X114500000Y-96225000D03*
X115000000Y-96225000D03*
X115500000Y-96225000D03*
X116000000Y-96225000D03*
D21*
X116225000Y-95500000D03*
X116225000Y-95000000D03*
X116225000Y-94500000D03*
D16*
X128750000Y-143590000D03*
X129250000Y-143590000D03*
X129750000Y-143590000D03*
X130250000Y-143590000D03*
X130750000Y-143590000D03*
X131250000Y-143590000D03*
D17*
X132250000Y-146090000D03*
X127750000Y-146090000D03*
D24*
X102300000Y-125667499D03*
X102300000Y-124532499D03*
D15*
X100367500Y-122700000D03*
X99232500Y-122700000D03*
D24*
X102300000Y-110667499D03*
X102300000Y-109532499D03*
D18*
X128775000Y-124000000D03*
X128775000Y-124500000D03*
X128775000Y-125000000D03*
X128775000Y-125500000D03*
X128775000Y-126000000D03*
D19*
X129500000Y-126225000D03*
X130000000Y-126225000D03*
X130500000Y-126225000D03*
D18*
X131225000Y-126000000D03*
X131225000Y-125500000D03*
X131225000Y-125000000D03*
X131225000Y-124500000D03*
X131225000Y-124000000D03*
D19*
X130500000Y-123775000D03*
X130000000Y-123775000D03*
X129500000Y-123775000D03*
D22*
X144000000Y-81225000D03*
X144500000Y-81225000D03*
X145000000Y-81225000D03*
X145500000Y-81225000D03*
X146000000Y-81225000D03*
D23*
X146225000Y-80500000D03*
X146225000Y-80000000D03*
X146225000Y-79500000D03*
D22*
X146000000Y-78775000D03*
X145500000Y-78775000D03*
X145000000Y-78775000D03*
X144500000Y-78775000D03*
X144000000Y-78775000D03*
D23*
X143775000Y-79500000D03*
X143775000Y-80000000D03*
X143775000Y-80500000D03*
D16*
X146250000Y-61410000D03*
X145750000Y-61410000D03*
X145250000Y-61410000D03*
X144750000Y-61410000D03*
X144250000Y-61410000D03*
X143750000Y-61410000D03*
D17*
X142750000Y-58910000D03*
X147250000Y-58910000D03*
D16*
X98750000Y-143590000D03*
X99250000Y-143590000D03*
X99750000Y-143590000D03*
X100250000Y-143590000D03*
X100750000Y-143590000D03*
X101250000Y-143590000D03*
D17*
X102250000Y-146090000D03*
X97750000Y-146090000D03*
D15*
X100367500Y-107700000D03*
X99232500Y-107700000D03*
D10*
X116225000Y-81000000D03*
X116225000Y-80500000D03*
X116225000Y-80000000D03*
X116225000Y-79500000D03*
X116225000Y-79000000D03*
D11*
X115500000Y-78775000D03*
X115000000Y-78775000D03*
X114500000Y-78775000D03*
D10*
X113775000Y-79000000D03*
X113775000Y-79500000D03*
X113775000Y-80000000D03*
X113775000Y-80500000D03*
X113775000Y-81000000D03*
D11*
X114500000Y-81225000D03*
X115000000Y-81225000D03*
X115500000Y-81225000D03*
D15*
X100367500Y-92700000D03*
X99232500Y-92700000D03*
D22*
X144000000Y-111225000D03*
X144500000Y-111225000D03*
X145000000Y-111225000D03*
X145500000Y-111225000D03*
X146000000Y-111225000D03*
D23*
X146225000Y-110500000D03*
X146225000Y-110000000D03*
X146225000Y-109500000D03*
D22*
X146000000Y-108775000D03*
X145500000Y-108775000D03*
X145000000Y-108775000D03*
X144500000Y-108775000D03*
X144000000Y-108775000D03*
D23*
X143775000Y-109500000D03*
X143775000Y-110000000D03*
X143775000Y-110500000D03*
D14*
X142700000Y-109332501D03*
X142700000Y-110467501D03*
D18*
X113775000Y-109000000D03*
X113775000Y-109500000D03*
X113775000Y-110000000D03*
X113775000Y-110500000D03*
X113775000Y-111000000D03*
D19*
X114500000Y-111225000D03*
X115000000Y-111225000D03*
X115500000Y-111225000D03*
D18*
X116225000Y-111000000D03*
X116225000Y-110500000D03*
X116225000Y-110000000D03*
X116225000Y-109500000D03*
X116225000Y-109000000D03*
D19*
X115500000Y-108775000D03*
X115000000Y-108775000D03*
X114500000Y-108775000D03*
D20*
X101000000Y-108775000D03*
X100500000Y-108775000D03*
X100000000Y-108775000D03*
X99500000Y-108775000D03*
X99000000Y-108775000D03*
D21*
X98775000Y-109500000D03*
X98775000Y-110000000D03*
X98775000Y-110500000D03*
D20*
X99000000Y-111225000D03*
X99500000Y-111225000D03*
X100000000Y-111225000D03*
X100500000Y-111225000D03*
X101000000Y-111225000D03*
D21*
X101225000Y-110500000D03*
X101225000Y-110000000D03*
X101225000Y-109500000D03*
D12*
X81410000Y-78750000D03*
X81410000Y-79250000D03*
X81410000Y-79750000D03*
X81410000Y-80250000D03*
X81410000Y-80750000D03*
X81410000Y-81250000D03*
D13*
X78910000Y-82250000D03*
X78910000Y-77750000D03*
D25*
X144632500Y-97300000D03*
X145767500Y-97300000D03*
D24*
X102300000Y-95667499D03*
X102300000Y-94532499D03*
D25*
X129632500Y-112300000D03*
X130767500Y-112300000D03*
D14*
X142700000Y-94332501D03*
X142700000Y-95467501D03*
D15*
X130667499Y-122700000D03*
X129532499Y-122700000D03*
D16*
X116250000Y-61410000D03*
X115750000Y-61410000D03*
X115250000Y-61410000D03*
X114750000Y-61410000D03*
X114250000Y-61410000D03*
X113750000Y-61410000D03*
D17*
X112750000Y-58910000D03*
X117250000Y-58910000D03*
D12*
X81410000Y-108750000D03*
X81410000Y-109250000D03*
X81410000Y-109750000D03*
X81410000Y-110250000D03*
X81410000Y-110750000D03*
X81410000Y-111250000D03*
D13*
X78910000Y-112250000D03*
X78910000Y-107750000D03*
D25*
X99332500Y-82300000D03*
X100467500Y-82300000D03*
D10*
X101225000Y-81000000D03*
X101225000Y-80500000D03*
X101225000Y-80000000D03*
X101225000Y-79500000D03*
X101225000Y-79000000D03*
D11*
X100500000Y-78775000D03*
X100000000Y-78775000D03*
X99500000Y-78775000D03*
D10*
X98775000Y-79000000D03*
X98775000Y-79500000D03*
X98775000Y-80000000D03*
X98775000Y-80500000D03*
X98775000Y-81000000D03*
D11*
X99500000Y-81225000D03*
X100000000Y-81225000D03*
X100500000Y-81225000D03*
M02*
