%TF.GenerationSoftware,KiCad,Pcbnew,6.0.8-f2edbf62ab~116~ubuntu22.04.1*%
%TF.CreationDate,2022-10-28T15:12:37+01:00*%
%TF.ProjectId,fsr_array,6673725f-6172-4726-9179-2e6b69636164,3.0*%
%TF.SameCoordinates,Original*%
%TF.FileFunction,Copper,L3,Inr*%
%TF.FilePolarity,Positive*%
%FSLAX46Y46*%
G04 Gerber Fmt 4.6, Leading zero omitted, Abs format (unit mm)*
G04 Created by KiCad (PCBNEW 6.0.8-f2edbf62ab~116~ubuntu22.04.1) date 2022-10-28 15:12:37*
%MOMM*%
%LPD*%
G01*
G04 APERTURE LIST*
G04 Aperture macros list*
%AMOutline5P*
0 Free polygon, 5 corners , with rotation*
0 The origin of the aperture is its center*
0 number of corners: always 5*
0 $1 to $10 corner X, Y*
0 $11 Rotation angle, in degrees counterclockwise*
0 create outline with 5 corners*
4,1,5,$1,$2,$3,$4,$5,$6,$7,$8,$9,$10,$1,$2,$11*%
%AMOutline6P*
0 Free polygon, 6 corners , with rotation*
0 The origin of the aperture is its center*
0 number of corners: always 6*
0 $1 to $12 corner X, Y*
0 $13 Rotation angle, in degrees counterclockwise*
0 create outline with 6 corners*
4,1,6,$1,$2,$3,$4,$5,$6,$7,$8,$9,$10,$11,$12,$1,$2,$13*%
%AMOutline7P*
0 Free polygon, 7 corners , with rotation*
0 The origin of the aperture is its center*
0 number of corners: always 7*
0 $1 to $14 corner X, Y*
0 $15 Rotation angle, in degrees counterclockwise*
0 create outline with 7 corners*
4,1,7,$1,$2,$3,$4,$5,$6,$7,$8,$9,$10,$11,$12,$13,$14,$1,$2,$15*%
%AMOutline8P*
0 Free polygon, 8 corners , with rotation*
0 The origin of the aperture is its center*
0 number of corners: always 8*
0 $1 to $16 corner X, Y*
0 $17 Rotation angle, in degrees counterclockwise*
0 create outline with 8 corners*
4,1,8,$1,$2,$3,$4,$5,$6,$7,$8,$9,$10,$11,$12,$13,$14,$15,$16,$1,$2,$17*%
G04 Aperture macros list end*
%TA.AperFunction,ComponentPad*%
%ADD10Outline8P,-0.762000X0.315631X-0.315631X0.762000X0.315631X0.762000X0.762000X0.315631X0.762000X-0.315631X0.315631X-0.762000X-0.315631X-0.762000X-0.762000X-0.315631X90.000000*%
%TD*%
%TA.AperFunction,ComponentPad*%
%ADD11Outline8P,-0.762000X0.315631X-0.315631X0.762000X0.315631X0.762000X0.762000X0.315631X0.762000X-0.315631X0.315631X-0.762000X-0.315631X-0.762000X-0.762000X-0.315631X270.000000*%
%TD*%
%TA.AperFunction,ComponentPad*%
%ADD12R,1.700000X1.700000*%
%TD*%
%TA.AperFunction,ComponentPad*%
%ADD13O,1.700000X1.700000*%
%TD*%
%TA.AperFunction,ComponentPad*%
%ADD14R,1.000000X1.000000*%
%TD*%
%TA.AperFunction,ComponentPad*%
%ADD15O,1.000000X1.000000*%
%TD*%
%TA.AperFunction,ComponentPad*%
%ADD16C,1.431000*%
%TD*%
%TA.AperFunction,ComponentPad*%
%ADD17C,3.450000*%
%TD*%
%TA.AperFunction,ViaPad*%
%ADD18C,0.604000*%
%TD*%
%TA.AperFunction,ViaPad*%
%ADD19C,0.600000*%
%TD*%
%TA.AperFunction,Conductor*%
%ADD20C,0.250000*%
%TD*%
G04 APERTURE END LIST*
D10*
%TO.N,GND*%
%TO.C,U$61*%
X193793900Y-133996400D03*
%TD*%
%TO.N,GND*%
%TO.C,U$63*%
X168383900Y-133996400D03*
%TD*%
%TO.N,GND*%
%TO.C,U$39*%
X163353900Y-133996400D03*
%TD*%
%TO.N,GND*%
%TO.C,U$45*%
X178613900Y-133996400D03*
%TD*%
D11*
%TO.N,Net-(ADC1-Pad1)*%
%TO.C,U$16*%
X113733900Y-141996400D03*
%TD*%
%TO.N,Net-(ADC2-Pad3)*%
%TO.C,U$44*%
X161913900Y-141996400D03*
%TD*%
%TO.N,Net-(ADC1-Pad3)*%
%TO.C,U$12*%
X118923900Y-141996400D03*
%TD*%
D12*
%TO.N,Net-(ADC1-Pad9)*%
%TO.C,J6*%
X134362800Y-145992800D03*
D13*
%TO.N,Net-(ADC1-Pad10)*%
X136902800Y-145992800D03*
%TO.N,Net-(ADC1-Pad11)*%
X139442800Y-145992800D03*
%TO.N,Net-(ADC1-Pad12)*%
X141982800Y-145992800D03*
%TO.N,Net-(ADC1-Pad13)*%
X144522800Y-145992800D03*
%TO.N,Net-(ADC1-Pad14)*%
X147062800Y-145992800D03*
%TO.N,Net-(ADC1-Pad15)*%
X149602800Y-145992800D03*
%TO.N,Net-(ADC1-Pad16)*%
X152142800Y-145992800D03*
%TD*%
D11*
%TO.N,Net-(ADC2-Pad2)*%
%TO.C,U$46*%
X159363900Y-141996400D03*
%TD*%
D10*
%TO.N,GND*%
%TO.C,U$49*%
X176013900Y-133996400D03*
%TD*%
%TO.N,GND*%
%TO.C,U$51*%
X181103900Y-133996400D03*
%TD*%
D12*
%TO.N,Net-(J4-Pad1)*%
%TO.C,J4*%
X103732800Y-72192800D03*
D13*
%TO.N,Net-(J4-Pad2)*%
X103732800Y-69652800D03*
%TO.N,Net-(J4-Pad3)*%
X103732800Y-67112800D03*
%TO.N,Net-(J4-Pad4)*%
X103732800Y-64572800D03*
%TO.N,Net-(J4-Pad5)*%
X103732800Y-62032800D03*
%TO.N,Net-(J4-Pad6)*%
X103732800Y-59492800D03*
%TO.N,Net-(J4-Pad7)*%
X103732800Y-56952800D03*
%TO.N,Net-(J4-Pad8)*%
X103732800Y-54412800D03*
%TD*%
D10*
%TO.N,GND*%
%TO.C,U$29*%
X155693900Y-133996400D03*
%TD*%
%TO.N,Net-(ADC2-Pad10)*%
%TO.C,U$62*%
X179703900Y-141996400D03*
%TD*%
%TO.N,GND*%
%TO.C,U$1*%
X145763900Y-133996400D03*
%TD*%
%TO.N,GND*%
%TO.C,U$57*%
X183673900Y-133996400D03*
%TD*%
D11*
%TO.N,Net-(ADC2-Pad6)*%
%TO.C,U$38*%
X169523900Y-141996400D03*
%TD*%
%TO.N,Net-(ADC2-Pad5)*%
%TO.C,U$40*%
X167043900Y-141996400D03*
%TD*%
D10*
%TO.N,GND*%
%TO.C,U$43*%
X160813900Y-133996400D03*
%TD*%
%TO.N,GND*%
%TO.C,U$13*%
X153313900Y-133996400D03*
%TD*%
D12*
%TO.N,GND*%
%TO.C,J12*%
X135612800Y-71932800D03*
D13*
%TO.N,unconnected-(J12-Pad2)*%
X138152800Y-71932800D03*
%TO.N,/MISO1*%
X140692800Y-71932800D03*
%TO.N,/S0*%
X143232800Y-71932800D03*
%TO.N,/S1*%
X145772800Y-71932800D03*
%TO.N,/S2*%
X148312800Y-71932800D03*
%TO.N,/S3*%
X150852800Y-71932800D03*
%TO.N,/EN1*%
X153392800Y-71932800D03*
%TO.N,/EN2*%
X155932800Y-71932800D03*
%TO.N,/EOC1*%
X158472800Y-71932800D03*
%TO.N,/CS1*%
X161012800Y-71932800D03*
%TO.N,/CS2*%
X163552800Y-71932800D03*
%TO.N,/MOSI*%
X166092800Y-71932800D03*
%TO.N,/MISO*%
X168632800Y-71932800D03*
%TO.N,+3.3V*%
X171172800Y-71932800D03*
%TO.N,unconnected-(J12-Pad16)*%
X173712800Y-71932800D03*
%TO.N,/EOC2*%
X176252800Y-71932800D03*
%TO.N,/MOSI1*%
X178792800Y-71932800D03*
%TO.N,/SCK1*%
X181332800Y-71932800D03*
%TO.N,unconnected-(J12-Pad20)*%
X183872800Y-71932800D03*
%TO.N,unconnected-(J12-Pad21)*%
X186412800Y-71932800D03*
%TO.N,unconnected-(J12-Pad22)*%
X188952800Y-71932800D03*
%TO.N,unconnected-(J12-Pad23)*%
X191492800Y-71932800D03*
%TO.N,unconnected-(J12-Pad24)*%
X194032800Y-71932800D03*
%TD*%
D11*
%TO.N,Net-(ADC1-Pad12)*%
%TO.C,U$26*%
X141793900Y-141996400D03*
%TD*%
D12*
%TO.N,/EOC1*%
%TO.C,J10*%
X156832800Y-110592800D03*
D13*
%TO.N,/EOC2*%
X156832800Y-113132800D03*
%TO.N,/MISO*%
X156832800Y-115672800D03*
%TO.N,/MOSI*%
X156832800Y-118212800D03*
%TO.N,/SCLK*%
X156832800Y-120752800D03*
%TO.N,/CS1*%
X156832800Y-123292800D03*
%TO.N,/CS2*%
X156832800Y-125832800D03*
%TO.N,+5V*%
X156832800Y-128372800D03*
%TO.N,GND*%
X156832800Y-130912800D03*
%TD*%
D10*
%TO.N,GND*%
%TO.C,U$5*%
X148273900Y-133996400D03*
%TD*%
%TO.N,GND*%
%TO.C,U$7*%
X125473900Y-133996400D03*
%TD*%
D11*
%TO.N,Net-(ADC2-Pad8)*%
%TO.C,U$34*%
X174593900Y-141996400D03*
%TD*%
D12*
%TO.N,Net-(J1-Pad1)*%
%TO.C,J1*%
X103732800Y-135692800D03*
D13*
%TO.N,Net-(J1-Pad2)*%
X103732800Y-133152800D03*
%TO.N,Net-(J1-Pad3)*%
X103732800Y-130612800D03*
%TO.N,Net-(J1-Pad4)*%
X103732800Y-128072800D03*
%TO.N,Net-(J1-Pad5)*%
X103732800Y-125532800D03*
%TO.N,Net-(J1-Pad6)*%
X103732800Y-122992800D03*
%TO.N,Net-(J1-Pad7)*%
X103732800Y-120452800D03*
%TO.N,Net-(J1-Pad8)*%
X103732800Y-117912800D03*
%TD*%
D10*
%TO.N,GND*%
%TO.C,U$27*%
X138093900Y-133996400D03*
%TD*%
D11*
%TO.N,Net-(ADC2-Pad9)*%
%TO.C,U$64*%
X177183900Y-141996400D03*
%TD*%
D10*
%TO.N,GND*%
%TO.C,U$3*%
X122883900Y-133996400D03*
%TD*%
D11*
%TO.N,Net-(ADC1-Pad7)*%
%TO.C,U$4*%
X129073900Y-141996400D03*
%TD*%
%TO.N,Net-(ADC1-Pad15)*%
%TO.C,U$20*%
X149423900Y-141996400D03*
%TD*%
D14*
%TO.N,+3.3V*%
%TO.C,J14*%
X189450000Y-100625000D03*
D15*
%TO.N,/TRIGA*%
X189450000Y-99355000D03*
%TO.N,/MISO1*%
X190720000Y-100625000D03*
%TO.N,/MOSI1*%
X190720000Y-99355000D03*
%TO.N,/SCK1*%
X191990000Y-100625000D03*
%TO.N,/INTA1*%
X191990000Y-99355000D03*
%TO.N,/INTA2*%
X193260000Y-100625000D03*
%TO.N,unconnected-(J14-Pad8)*%
X193260000Y-99355000D03*
%TO.N,/CSA1*%
X194530000Y-100625000D03*
%TO.N,GND*%
X194530000Y-99355000D03*
%TD*%
D11*
%TO.N,Net-(ADC1-Pad8)*%
%TO.C,U$2*%
X131593900Y-141996400D03*
%TD*%
D10*
%TO.N,GND*%
%TO.C,U$11*%
X127943900Y-133996400D03*
%TD*%
D11*
%TO.N,Net-(ADC1-Pad10)*%
%TO.C,U$30*%
X136733900Y-141996400D03*
%TD*%
D10*
%TO.N,GND*%
%TO.C,U$53*%
X165903900Y-133996400D03*
%TD*%
%TO.N,GND*%
%TO.C,U$41*%
X191273900Y-133996400D03*
%TD*%
D12*
%TO.N,Net-(J3-Pad1)*%
%TO.C,J3*%
X103732800Y-92512800D03*
D13*
%TO.N,Net-(J3-Pad2)*%
X103732800Y-89972800D03*
%TO.N,Net-(J3-Pad3)*%
X103732800Y-87432800D03*
%TO.N,Net-(J3-Pad4)*%
X103732800Y-84892800D03*
%TO.N,Net-(J3-Pad5)*%
X103732800Y-82352800D03*
%TO.N,Net-(J3-Pad6)*%
X103732800Y-79812800D03*
%TO.N,Net-(J3-Pad7)*%
X103732800Y-77272800D03*
%TO.N,Net-(J3-Pad8)*%
X103732800Y-74732800D03*
%TD*%
D10*
%TO.N,GND*%
%TO.C,U$55*%
X173423900Y-133996400D03*
%TD*%
D11*
%TO.N,Net-(ADC2-Pad13)*%
%TO.C,U$56*%
X187343900Y-141996400D03*
%TD*%
D14*
%TO.N,+3.3V*%
%TO.C,J13*%
X189450000Y-107625000D03*
D15*
%TO.N,/TRIGA*%
X189450000Y-106355000D03*
%TO.N,/MISO1*%
X190720000Y-107625000D03*
%TO.N,/MOSI1*%
X190720000Y-106355000D03*
%TO.N,/SCK1*%
X191990000Y-107625000D03*
%TO.N,/INTA1*%
X191990000Y-106355000D03*
%TO.N,/INTA2*%
X193260000Y-107625000D03*
%TO.N,unconnected-(J13-Pad8)*%
X193260000Y-106355000D03*
%TO.N,/CSA2*%
X194530000Y-107625000D03*
%TO.N,GND*%
X194530000Y-106355000D03*
%TD*%
D12*
%TO.N,+5V*%
%TO.C,J11*%
X135612800Y-56692800D03*
D13*
%TO.N,GND*%
X138152800Y-56692800D03*
%TO.N,/CSA1*%
X140692800Y-56692800D03*
%TO.N,/CSA2*%
X143232800Y-56692800D03*
%TO.N,unconnected-(J11-Pad5)*%
X145772800Y-56692800D03*
%TO.N,unconnected-(J11-Pad6)*%
X148312800Y-56692800D03*
%TO.N,/CSA3*%
X150852800Y-56692800D03*
%TO.N,/CSA4*%
X153392800Y-56692800D03*
%TO.N,unconnected-(J11-Pad9)*%
X155932800Y-56692800D03*
%TO.N,unconnected-(J11-Pad10)*%
X158472800Y-56692800D03*
%TO.N,unconnected-(J11-Pad11)*%
X161012800Y-56692800D03*
%TO.N,unconnected-(J11-Pad12)*%
X163552800Y-56692800D03*
%TO.N,unconnected-(J11-Pad13)*%
X166092800Y-56692800D03*
%TO.N,/SCK*%
X168632800Y-56692800D03*
%TO.N,GND*%
X171172800Y-56692800D03*
%TO.N,unconnected-(J11-Pad16)*%
X173712800Y-56692800D03*
%TO.N,unconnected-(J11-Pad17)*%
X176252800Y-56692800D03*
%TO.N,unconnected-(J11-Pad18)*%
X178792800Y-56692800D03*
%TO.N,unconnected-(J11-Pad19)*%
X181332800Y-56692800D03*
%TO.N,/INTA1*%
X183872800Y-56692800D03*
%TO.N,/INTA2*%
X186412800Y-56692800D03*
%TO.N,unconnected-(J11-Pad22)*%
X188952800Y-56692800D03*
%TO.N,unconnected-(J11-Pad23)*%
X191492800Y-56692800D03*
%TO.N,/TRIGA*%
X194032800Y-56692800D03*
%TD*%
D12*
%TO.N,/S0*%
%TO.C,J9*%
X114857800Y-95992800D03*
D13*
%TO.N,/S1*%
X117397800Y-95992800D03*
%TO.N,/S2*%
X119937800Y-95992800D03*
%TO.N,/S3*%
X122477800Y-95992800D03*
%TO.N,/EN1*%
X125017800Y-95992800D03*
%TO.N,/EN2*%
X127557800Y-95992800D03*
%TO.N,+5V*%
X130097800Y-95992800D03*
%TO.N,GND*%
X132637800Y-95992800D03*
%TD*%
D12*
%TO.N,Net-(ADC2-Pad1)*%
%TO.C,J7*%
X156982800Y-145992800D03*
D13*
%TO.N,Net-(ADC2-Pad2)*%
X159522800Y-145992800D03*
%TO.N,Net-(ADC2-Pad3)*%
X162062800Y-145992800D03*
%TO.N,Net-(ADC2-Pad4)*%
X164602800Y-145992800D03*
%TO.N,Net-(ADC2-Pad5)*%
X167142800Y-145992800D03*
%TO.N,Net-(ADC2-Pad6)*%
X169682800Y-145992800D03*
%TO.N,Net-(ADC2-Pad7)*%
X172222800Y-145992800D03*
%TO.N,Net-(ADC2-Pad8)*%
X174762800Y-145992800D03*
%TD*%
D11*
%TO.N,Net-(ADC1-Pad5)*%
%TO.C,U$8*%
X123993900Y-141996400D03*
%TD*%
D12*
%TO.N,Net-(ADC2-Pad9)*%
%TO.C,J8*%
X177302800Y-145992800D03*
D13*
%TO.N,Net-(ADC2-Pad10)*%
X179842800Y-145992800D03*
%TO.N,Net-(ADC2-Pad11)*%
X182382800Y-145992800D03*
%TO.N,Net-(ADC2-Pad12)*%
X184922800Y-145992800D03*
%TO.N,Net-(ADC2-Pad13)*%
X187462800Y-145992800D03*
%TO.N,Net-(ADC2-Pad14)*%
X190002800Y-145992800D03*
%TO.N,Net-(ADC2-Pad15)*%
X192542800Y-145992800D03*
%TO.N,Net-(ADC2-Pad16)*%
X195082800Y-145992800D03*
%TD*%
D11*
%TO.N,Net-(ADC2-Pad16)*%
%TO.C,U$50*%
X194923900Y-141996400D03*
%TD*%
D10*
%TO.N,GND*%
%TO.C,U$19*%
X133023900Y-133996400D03*
%TD*%
%TO.N,Net-(ADC2-Pad15)*%
%TO.C,U$52*%
X192393900Y-141996400D03*
%TD*%
%TO.N,Net-(ADC2-Pad4)*%
%TO.C,U$42*%
X164493900Y-141996400D03*
%TD*%
%TO.N,GND*%
%TO.C,U$59*%
X170963900Y-133996400D03*
%TD*%
D11*
%TO.N,Net-(ADC2-Pad11)*%
%TO.C,U$60*%
X182223900Y-141996400D03*
%TD*%
%TO.N,Net-(ADC1-Pad14)*%
%TO.C,U$22*%
X146873900Y-141996400D03*
%TD*%
D10*
%TO.N,GND*%
%TO.C,U$47*%
X186213900Y-133996400D03*
%TD*%
D14*
%TO.N,+3.3V*%
%TO.C,J16*%
X189450000Y-121250000D03*
D15*
%TO.N,/TRIGA*%
X189450000Y-119980000D03*
%TO.N,/MISO1*%
X190720000Y-121250000D03*
%TO.N,/MOSI1*%
X190720000Y-119980000D03*
%TO.N,/SCK1*%
X191990000Y-121250000D03*
%TO.N,/INTA1*%
X191990000Y-119980000D03*
%TO.N,/INTA2*%
X193260000Y-121250000D03*
%TO.N,unconnected-(J16-Pad8)*%
X193260000Y-119980000D03*
%TO.N,/CSA4*%
X194530000Y-121250000D03*
%TO.N,GND*%
X194530000Y-119980000D03*
%TD*%
D10*
%TO.N,GND*%
%TO.C,U$37*%
X188763900Y-133996400D03*
%TD*%
%TO.N,GND*%
%TO.C,U$35*%
X143213900Y-133996400D03*
%TD*%
D14*
%TO.N,+3.3V*%
%TO.C,J15*%
X189450000Y-114625000D03*
D15*
%TO.N,/TRIGA*%
X189450000Y-113355000D03*
%TO.N,/MISO1*%
X190720000Y-114625000D03*
%TO.N,/MOSI1*%
X190720000Y-113355000D03*
%TO.N,/SCK1*%
X191990000Y-114625000D03*
%TO.N,/INTA1*%
X191990000Y-113355000D03*
%TO.N,/INTA2*%
X193260000Y-114625000D03*
%TO.N,unconnected-(J15-Pad8)*%
X193260000Y-113355000D03*
%TO.N,/CSA3*%
X194530000Y-114625000D03*
%TO.N,GND*%
X194530000Y-113355000D03*
%TD*%
D11*
%TO.N,Net-(ADC2-Pad12)*%
%TO.C,U$58*%
X184823900Y-141996400D03*
%TD*%
%TO.N,GND*%
%TO.C,U$21*%
X117753900Y-133996400D03*
%TD*%
%TO.N,Net-(ADC2-Pad7)*%
%TO.C,U$36*%
X172093900Y-141996400D03*
%TD*%
D10*
%TO.N,GND*%
%TO.C,U$23*%
X135583900Y-133996400D03*
%TD*%
D11*
%TO.N,GND*%
%TO.C,U$17*%
X120313900Y-133996400D03*
%TD*%
%TO.N,Net-(ADC1-Pad9)*%
%TO.C,U$32*%
X134193900Y-141996400D03*
%TD*%
%TO.N,Net-(ADC2-Pad1)*%
%TO.C,U$48*%
X156853900Y-141996400D03*
%TD*%
%TO.N,Net-(ADC1-Pad6)*%
%TO.C,U$6*%
X126573900Y-141996400D03*
%TD*%
D10*
%TO.N,GND*%
%TO.C,U$15*%
X130493900Y-133996400D03*
%TD*%
%TO.N,GND*%
%TO.C,U$9*%
X150773900Y-133996400D03*
%TD*%
D11*
%TO.N,Net-(ADC1-Pad13)*%
%TO.C,U$24*%
X144353900Y-141996400D03*
%TD*%
%TO.N,Net-(ADC1-Pad4)*%
%TO.C,U$10*%
X121503900Y-141996400D03*
%TD*%
D12*
%TO.N,Net-(ADC1-Pad1)*%
%TO.C,J5*%
X113957800Y-145992800D03*
D13*
%TO.N,Net-(ADC1-Pad2)*%
X116497800Y-145992800D03*
%TO.N,Net-(ADC1-Pad3)*%
X119037800Y-145992800D03*
%TO.N,Net-(ADC1-Pad4)*%
X121577800Y-145992800D03*
%TO.N,Net-(ADC1-Pad5)*%
X124117800Y-145992800D03*
%TO.N,Net-(ADC1-Pad6)*%
X126657800Y-145992800D03*
%TO.N,Net-(ADC1-Pad7)*%
X129197800Y-145992800D03*
%TO.N,Net-(ADC1-Pad8)*%
X131737800Y-145992800D03*
%TD*%
D11*
%TO.N,Net-(ADC1-Pad16)*%
%TO.C,U$18*%
X151903900Y-141996400D03*
%TD*%
D10*
%TO.N,GND*%
%TO.C,U$31*%
X140603900Y-133996400D03*
%TD*%
D11*
%TO.N,Net-(ADC2-Pad14)*%
%TO.C,U$54*%
X189873900Y-141996400D03*
%TD*%
D16*
%TO.N,/L1*%
%TO.C,J17*%
X116770000Y-59710000D03*
%TO.N,/L2*%
X119270000Y-59710000D03*
%TO.N,/L3*%
X119270000Y-57710000D03*
%TO.N,/L4*%
X116770000Y-57710000D03*
D17*
%TO.N,/M1*%
X124040000Y-55000000D03*
%TO.N,/M2*%
X112000000Y-55000000D03*
%TD*%
D11*
%TO.N,Net-(ADC1-Pad11)*%
%TO.C,U$28*%
X139233900Y-141996400D03*
%TD*%
D10*
%TO.N,GND*%
%TO.C,U$33*%
X158223900Y-133996400D03*
%TD*%
D12*
%TO.N,Net-(J2-Pad1)*%
%TO.C,J2*%
X103732800Y-115372800D03*
D13*
%TO.N,Net-(J2-Pad2)*%
X103732800Y-112832800D03*
%TO.N,Net-(J2-Pad3)*%
X103732800Y-110292800D03*
%TO.N,Net-(J2-Pad4)*%
X103732800Y-107752800D03*
%TO.N,Net-(J2-Pad5)*%
X103732800Y-105212800D03*
%TO.N,Net-(J2-Pad6)*%
X103732800Y-102672800D03*
%TO.N,Net-(J2-Pad7)*%
X103732800Y-100132800D03*
%TO.N,Net-(J2-Pad8)*%
X103732800Y-97592800D03*
%TD*%
D11*
%TO.N,Net-(ADC1-Pad2)*%
%TO.C,U$14*%
X116393900Y-141996400D03*
%TD*%
%TO.N,GND*%
%TO.C,U$25*%
X115233900Y-133996400D03*
%TD*%
D18*
%TO.N,/S0*%
X116733900Y-117996400D03*
%TO.N,/S1*%
X118733900Y-117996400D03*
%TO.N,GND*%
X119733900Y-79996400D03*
D19*
%TO.N,/EOC2*%
X170000000Y-113166400D03*
D18*
%TO.N,+5V*%
X183200000Y-125300000D03*
X111733900Y-73996400D03*
D19*
%TO.N,/MISO*%
X167106400Y-115706400D03*
%TO.N,/INTA1*%
X185000000Y-117000000D03*
X185000000Y-110000000D03*
X185000000Y-96000000D03*
X185000000Y-103000000D03*
%TO.N,/INTA2*%
X197000000Y-122000000D03*
X197000000Y-109000000D03*
X197000000Y-102000000D03*
X197000000Y-116000000D03*
%TO.N,/TRIGA*%
X187000000Y-105000000D03*
X187000000Y-119000000D03*
X187000000Y-112000000D03*
X187000000Y-98000000D03*
%TO.N,/MOSI1*%
X186000000Y-104000000D03*
X186000000Y-97000000D03*
X186000000Y-118000000D03*
X186000000Y-111000000D03*
%TO.N,/SCK1*%
X196000000Y-124000000D03*
X196000000Y-103000000D03*
X196000000Y-117000000D03*
X196000000Y-110000000D03*
%TD*%
D20*
%TO.N,/S0*%
X139165600Y-76000000D02*
X134850600Y-76000000D01*
X143232800Y-71932800D02*
X139165600Y-76000000D01*
X134850600Y-76000000D02*
X114857800Y-95992800D01*
%TO.N,/S1*%
X136000000Y-77000000D02*
X117397800Y-95602200D01*
X145567200Y-71932800D02*
X140500000Y-77000000D01*
X117397800Y-95602200D02*
X117397800Y-95992800D01*
X145772800Y-71932800D02*
X145567200Y-71932800D01*
X140500000Y-77000000D02*
X136000000Y-77000000D01*
%TO.N,/S3*%
X122477800Y-95992800D02*
X139470600Y-79000000D01*
X143785600Y-79000000D02*
X150852800Y-71932800D01*
X139470600Y-79000000D02*
X143785600Y-79000000D01*
%TO.N,/S2*%
X148067200Y-71932800D02*
X142000000Y-78000000D01*
X137930600Y-78000000D02*
X119937800Y-95992800D01*
X148312800Y-71932800D02*
X148067200Y-71932800D01*
X142000000Y-78000000D02*
X137930600Y-78000000D01*
%TO.N,/EN1*%
X141000000Y-80000000D02*
X141000000Y-80010600D01*
X153392800Y-71932800D02*
X150325600Y-75000000D01*
X145325600Y-80000000D02*
X141000000Y-80000000D01*
X141000000Y-80010600D02*
X125017800Y-95992800D01*
X150325600Y-75000000D02*
X145325600Y-80000000D01*
%TO.N,/EN2*%
X142550600Y-81000000D02*
X127557800Y-95992800D01*
X147000000Y-81000000D02*
X142550600Y-81000000D01*
X155932800Y-72067200D02*
X147000000Y-81000000D01*
X155932800Y-71932800D02*
X155932800Y-72067200D01*
%TO.N,/CS1*%
X161012800Y-71932800D02*
X161000000Y-71945600D01*
X161000000Y-119125600D02*
X156832800Y-123292800D01*
X161000000Y-71945600D02*
X161000000Y-119125600D01*
%TO.N,/EOC1*%
X159000000Y-108425600D02*
X156832800Y-110592800D01*
X158472800Y-71932800D02*
X159000000Y-72460000D01*
X159000000Y-72460000D02*
X159000000Y-108425600D01*
%TO.N,/CS2*%
X163000000Y-119800000D02*
X163000000Y-72485600D01*
X156967200Y-125832800D02*
X163000000Y-119800000D01*
X163000000Y-72485600D02*
X163552800Y-71932800D01*
X156832800Y-125832800D02*
X156967200Y-125832800D01*
%TO.N,/EOC2*%
X170000000Y-78185600D02*
X176252800Y-71932800D01*
X170000000Y-113166400D02*
X170000000Y-78185600D01*
%TO.N,/INTA1*%
X185000000Y-117000000D02*
X185000000Y-88100000D01*
X177546000Y-80646000D02*
X177546000Y-63019600D01*
X185000000Y-88100000D02*
X177546000Y-80646000D01*
X177546000Y-63019600D02*
X183872800Y-56692800D01*
%TO.N,/INTA2*%
X188705600Y-54400000D02*
X194500000Y-54400000D01*
X197000000Y-118000000D02*
X197000000Y-122000000D01*
X186412800Y-56692800D02*
X188705600Y-54400000D01*
X197000000Y-56900000D02*
X197000000Y-118000000D01*
X194500000Y-54400000D02*
X197000000Y-56900000D01*
%TO.N,/TRIGA*%
X192200000Y-59200000D02*
X186800000Y-59200000D01*
X194032800Y-57367200D02*
X192200000Y-59200000D01*
X194032800Y-56692800D02*
X194032800Y-57367200D01*
X180086000Y-78786000D02*
X187000000Y-85700000D01*
X187000000Y-85700000D02*
X187000000Y-119000000D01*
X186800000Y-59200000D02*
X180086000Y-65914000D01*
X180086000Y-65914000D02*
X180086000Y-78786000D01*
%TO.N,/MOSI1*%
X178792800Y-71932800D02*
X178792800Y-79592800D01*
X186000000Y-86800000D02*
X186000000Y-118000000D01*
X178792800Y-79592800D02*
X186000000Y-86800000D01*
%TO.N,/SCK1*%
X181332800Y-71932800D02*
X181332800Y-72132800D01*
X196000000Y-120100000D02*
X196000000Y-123000000D01*
X181332800Y-72132800D02*
X196000000Y-86800000D01*
X196000000Y-86800000D02*
X196000000Y-120100000D01*
X196000000Y-123000000D02*
X196000000Y-124000000D01*
%TD*%
M02*
