G04 #@! TF.GenerationSoftware,KiCad,Pcbnew,7.0.2-6a45011f42~172~ubuntu22.04.1*
G04 #@! TF.CreationDate,2023-05-18T14:48:33+01:00*
G04 #@! TF.ProjectId,KX134_array,4b583133-345f-4617-9272-61792e6b6963,rev?*
G04 #@! TF.SameCoordinates,Original*
G04 #@! TF.FileFunction,Soldermask,Top*
G04 #@! TF.FilePolarity,Negative*
%FSLAX46Y46*%
G04 Gerber Fmt 4.6, Leading zero omitted, Abs format (unit mm)*
G04 Created by KiCad (PCBNEW 7.0.2-6a45011f42~172~ubuntu22.04.1) date 2023-05-18 14:48:33*
%MOMM*%
%LPD*%
G01*
G04 APERTURE LIST*
G04 Aperture macros list*
%AMRoundRect*
0 Rectangle with rounded corners*
0 $1 Rounding radius*
0 $2 $3 $4 $5 $6 $7 $8 $9 X,Y pos of 4 corners*
0 Add a 4 corners polygon primitive as box body*
4,1,4,$2,$3,$4,$5,$6,$7,$8,$9,$2,$3,0*
0 Add four circle primitives for the rounded corners*
1,1,$1+$1,$2,$3*
1,1,$1+$1,$4,$5*
1,1,$1+$1,$6,$7*
1,1,$1+$1,$8,$9*
0 Add four rect primitives between the rounded corners*
20,1,$1+$1,$2,$3,$4,$5,0*
20,1,$1+$1,$4,$5,$6,$7,0*
20,1,$1+$1,$6,$7,$8,$9,0*
20,1,$1+$1,$8,$9,$2,$3,0*%
G04 Aperture macros list end*
%ADD10R,1.000000X1.000000*%
%ADD11O,1.000000X1.000000*%
%ADD12RoundRect,0.075000X0.075000X-0.125000X0.075000X0.125000X-0.075000X0.125000X-0.075000X-0.125000X0*%
%ADD13RoundRect,0.075000X-0.075000X0.125000X-0.075000X-0.125000X0.075000X-0.125000X0.075000X0.125000X0*%
%ADD14R,1.700000X1.700000*%
%ADD15O,1.700000X1.700000*%
%ADD16RoundRect,0.075000X0.125000X0.075000X-0.125000X0.075000X-0.125000X-0.075000X0.125000X-0.075000X0*%
%ADD17RoundRect,0.075000X-0.125000X-0.075000X0.125000X-0.075000X0.125000X0.075000X-0.125000X0.075000X0*%
%ADD18R,0.330200X0.304800*%
%ADD19R,0.304800X0.330200*%
G04 APERTURE END LIST*
D10*
X163300000Y-112550000D03*
D11*
X164570000Y-112550000D03*
X165840000Y-112550000D03*
X167110000Y-112550000D03*
X168380000Y-112550000D03*
X169650000Y-112550000D03*
X170920000Y-112550000D03*
X172190000Y-112550000D03*
D10*
X154200000Y-52450000D03*
D11*
X152930000Y-52450000D03*
X151660000Y-52450000D03*
X150390000Y-52450000D03*
X149120000Y-52450000D03*
X147850000Y-52450000D03*
X146580000Y-52450000D03*
X145310000Y-52450000D03*
D10*
X171700000Y-52450000D03*
D11*
X170430000Y-52450000D03*
X169160000Y-52450000D03*
X167890000Y-52450000D03*
X166620000Y-52450000D03*
X165350000Y-52450000D03*
X164080000Y-52450000D03*
X162810000Y-52450000D03*
D10*
X180800000Y-112550000D03*
D11*
X182070000Y-112550000D03*
X183340000Y-112550000D03*
X184610000Y-112550000D03*
X185880000Y-112550000D03*
X187150000Y-112550000D03*
X188420000Y-112550000D03*
X189690000Y-112550000D03*
D10*
X197550000Y-69199999D03*
D11*
X197550000Y-67929999D03*
X197550000Y-66659999D03*
X197550000Y-65389999D03*
X197550000Y-64119999D03*
X197550000Y-62849999D03*
X197550000Y-61579999D03*
X197550000Y-60309999D03*
D10*
X137450000Y-95800000D03*
D11*
X137450000Y-97070000D03*
X137450000Y-98340000D03*
X137450000Y-99610000D03*
X137450000Y-100880000D03*
X137450000Y-102150000D03*
X137450000Y-103420000D03*
X137450000Y-104690000D03*
D10*
X197550000Y-86699999D03*
D11*
X197550000Y-85429999D03*
X197550000Y-84159999D03*
X197550000Y-82889999D03*
X197550000Y-81619999D03*
X197550000Y-80349999D03*
X197550000Y-79079999D03*
X197550000Y-77809999D03*
D10*
X145300000Y-112550000D03*
D11*
X146570000Y-112550000D03*
X147840000Y-112550000D03*
X149110000Y-112550000D03*
X150380000Y-112550000D03*
X151650000Y-112550000D03*
X152920000Y-112550000D03*
X154190000Y-112550000D03*
D10*
X137450000Y-78300000D03*
D11*
X137450000Y-79570000D03*
X137450000Y-80840000D03*
X137450000Y-82110000D03*
X137450000Y-83380000D03*
X137450000Y-84650000D03*
X137450000Y-85920000D03*
X137450000Y-87190000D03*
D12*
X169100000Y-82850000D03*
X169100000Y-82350000D03*
D13*
X148400000Y-64650000D03*
X148400000Y-65150000D03*
D14*
X177660000Y-123500000D03*
D15*
X175120000Y-123500000D03*
X172580000Y-123500000D03*
X170040000Y-123500000D03*
X167500000Y-123500000D03*
X164960000Y-123500000D03*
X162420000Y-123500000D03*
X159880000Y-123500000D03*
X157340000Y-123500000D03*
D16*
X167900000Y-80900000D03*
X167400000Y-80900000D03*
D13*
X183400000Y-82100001D03*
X183400000Y-82600001D03*
D16*
X185400000Y-98400000D03*
X184900000Y-98400000D03*
D12*
X151600000Y-100400000D03*
X151600000Y-99900000D03*
D17*
X149650000Y-84100000D03*
X150150000Y-84100000D03*
D16*
X185349999Y-80900000D03*
X184849999Y-80900000D03*
D18*
X168249300Y-83250001D03*
X168249300Y-82750000D03*
X168249300Y-82250000D03*
X168249300Y-81749999D03*
D19*
X167750000Y-81750700D03*
X167250000Y-81750700D03*
D18*
X166750700Y-81749999D03*
X166750700Y-82250000D03*
X166750700Y-82750000D03*
X166750700Y-83250001D03*
D19*
X167250000Y-83249300D03*
X167750000Y-83249300D03*
X185750001Y-64250700D03*
X185250000Y-64250700D03*
X184750000Y-64250700D03*
X184249999Y-64250700D03*
D18*
X184250700Y-64750000D03*
X184250700Y-65250000D03*
D19*
X184249999Y-65749300D03*
X184750000Y-65749300D03*
X185250000Y-65749300D03*
X185750001Y-65749300D03*
D18*
X185749300Y-65250000D03*
X185749300Y-64750000D03*
D19*
X149249999Y-100749300D03*
X149750000Y-100749300D03*
X150250000Y-100749300D03*
X150750001Y-100749300D03*
D18*
X150749300Y-100250000D03*
X150749300Y-99750000D03*
D19*
X150750001Y-99250700D03*
X150250000Y-99250700D03*
X149750000Y-99250700D03*
X149249999Y-99250700D03*
D18*
X149250700Y-99750000D03*
X149250700Y-100250000D03*
X149250700Y-64249999D03*
X149250700Y-64750000D03*
X149250700Y-65250000D03*
X149250700Y-65750001D03*
D19*
X149750000Y-65749300D03*
X150250000Y-65749300D03*
D18*
X150749300Y-65750001D03*
X150749300Y-65250000D03*
X150749300Y-64750000D03*
X150749300Y-64249999D03*
D19*
X150250000Y-64250700D03*
X149750000Y-64250700D03*
D18*
X185749300Y-100750001D03*
X185749300Y-100250000D03*
X185749300Y-99750000D03*
X185749300Y-99249999D03*
D19*
X185250000Y-99250700D03*
X184750000Y-99250700D03*
D18*
X184250700Y-99249999D03*
X184250700Y-99750000D03*
X184250700Y-100250000D03*
X184250700Y-100750001D03*
D19*
X184750000Y-100749300D03*
X185250000Y-100749300D03*
D17*
X149600000Y-66600000D03*
X150100000Y-66600000D03*
D19*
X149249999Y-83249300D03*
X149750000Y-83249300D03*
X150250000Y-83249300D03*
X150750001Y-83249300D03*
D18*
X150749300Y-82750000D03*
X150749300Y-82250000D03*
D19*
X150750001Y-81750700D03*
X150250000Y-81750700D03*
X149750000Y-81750700D03*
X149249999Y-81750700D03*
D18*
X149250700Y-82250000D03*
X149250700Y-82750000D03*
D12*
X169100000Y-100350000D03*
X169100000Y-99850000D03*
X151600000Y-82900000D03*
X151600000Y-82400000D03*
D14*
X177660000Y-126040000D03*
D15*
X175120000Y-126040000D03*
D12*
X186600000Y-100350000D03*
X186600000Y-99850000D03*
D13*
X183400000Y-64600001D03*
X183400000Y-65100001D03*
X165900000Y-64650000D03*
X165900000Y-65150000D03*
D18*
X166750700Y-64249999D03*
X166750700Y-64750000D03*
X166750700Y-65250000D03*
X166750700Y-65750001D03*
D19*
X167250000Y-65749300D03*
X167750000Y-65749300D03*
D18*
X168249300Y-65750001D03*
X168249300Y-65250000D03*
X168249300Y-64750000D03*
X168249300Y-64249999D03*
D19*
X167750000Y-64250700D03*
X167250000Y-64250700D03*
D14*
X157340000Y-126040000D03*
D15*
X159880000Y-126040000D03*
X162420000Y-126040000D03*
D16*
X185349999Y-63400000D03*
X184849999Y-63400000D03*
D19*
X185750001Y-81750700D03*
X185250000Y-81750700D03*
X184750000Y-81750700D03*
X184249999Y-81750700D03*
D18*
X184250700Y-82250000D03*
X184250700Y-82750000D03*
D19*
X184249999Y-83249300D03*
X184750000Y-83249300D03*
X185250000Y-83249300D03*
X185750001Y-83249300D03*
D18*
X185749300Y-82750000D03*
X185749300Y-82250000D03*
X168249300Y-100750001D03*
X168249300Y-100250000D03*
X168249300Y-99750000D03*
X168249300Y-99249999D03*
D19*
X167750000Y-99250700D03*
X167250000Y-99250700D03*
D18*
X166750700Y-99249999D03*
X166750700Y-99750000D03*
X166750700Y-100250000D03*
X166750700Y-100750001D03*
D19*
X167250000Y-100749300D03*
X167750000Y-100749300D03*
D17*
X149650000Y-101600000D03*
X150150000Y-101600000D03*
X167100000Y-66600000D03*
X167600000Y-66600000D03*
D16*
X167900000Y-98400000D03*
X167400000Y-98400000D03*
M02*
