M48
; DRILL file {KiCad 7.0.2-6a45011f42~172~ubuntu22.04.1} date Thu 18 May 2023 14:49:08 BST
; FORMAT={-:-/ absolute / metric / decimal}
; #@! TF.CreationDate,2023-05-18T14:49:08+01:00
; #@! TF.GenerationSoftware,Kicad,Pcbnew,7.0.2-6a45011f42~172~ubuntu22.04.1
; #@! TF.FileFunction,Plated,1,2,PTH
FMAT,2
METRIC
; #@! TA.AperFunction,Plated,PTH,ViaDrill
T1C0.300
; #@! TA.AperFunction,Plated,PTH,ComponentDrill
T2C0.700
; #@! TA.AperFunction,Plated,PTH,ComponentDrill
T3C1.000
%
G90
G05
T1
X128.0Y-84.0
X128.0Y-101.5
X128.5Y-84.5
X128.5Y-102.0
X129.0Y-85.0
X129.0Y-102.5
X130.5Y-83.5
X131.0Y-101.0
X133.0Y-81.0
X133.0Y-98.5
X147.5Y-44.0
X148.0Y-43.5
X148.0Y-117.0
X148.475Y-63.975
X148.5Y-43.0
X148.65Y-65.8
X148.975Y-84.025
X148.975Y-101.525
X149.0Y-45.0
X149.175Y-66.325
X149.925Y-65.2
X150.0Y-81.4
X150.0Y-98.9
X150.2Y-82.575
X150.2Y-100.075
X150.5Y-118.5
X150.8Y-83.85
X150.8Y-101.35
X151.0Y-122.0
X151.1Y-65.0
X151.325Y-83.325
X151.325Y-100.825
X151.5Y-48.0
X151.5Y-121.5
X152.0Y-121.0
X157.5Y-120.5
X160.0Y-120.0
X162.5Y-119.5
X165.0Y-44.0
X165.0Y-119.0
X165.5Y-43.5
X165.975Y-63.975
X166.0Y-43.0
X166.0Y-117.0
X166.15Y-65.8
X166.4Y-82.5
X166.4Y-100.0
X166.5Y-44.5
X166.675Y-66.325
X167.425Y-65.2
X167.5Y-118.5
X167.575Y-82.3
X167.575Y-99.8
X168.325Y-81.175
X168.325Y-98.675
X168.6Y-65.0
X168.85Y-81.7
X168.85Y-99.2
X169.0Y-48.0
X169.0Y-122.0
X169.025Y-83.525
X169.025Y-101.025
X169.5Y-121.5
X170.0Y-121.0
X175.0Y-120.0
X177.5Y-120.5
X179.5Y-119.0
X181.0Y-118.5
X183.5Y-117.0
X183.675Y-64.175
X183.675Y-81.675
X183.9Y-100.0
X184.2Y-63.65
X184.2Y-81.15
X184.8Y-64.925
X184.8Y-82.425
X185.0Y-66.1
X185.0Y-83.6
X185.075Y-99.8
X185.825Y-98.675
X186.025Y-63.475
X186.025Y-80.975
X186.35Y-99.2
X186.5Y-122.0
X186.525Y-101.025
X187.0Y-121.5
X187.5Y-121.0
X202.0Y-66.5
X202.0Y-84.0
X205.0Y-64.0
X205.5Y-81.5
X206.0Y-62.5
X206.0Y-80.0
X206.5Y-63.0
X206.5Y-80.5
X207.0Y-63.5
X207.0Y-81.0
T2
X137.45Y-78.3
X137.45Y-79.57
X137.45Y-80.84
X137.45Y-82.11
X137.45Y-83.38
X137.45Y-84.65
X137.45Y-85.92
X137.45Y-87.19
X137.45Y-95.8
X137.45Y-97.07
X137.45Y-98.34
X137.45Y-99.61
X137.45Y-100.88
X137.45Y-102.15
X137.45Y-103.42
X137.45Y-104.69
X145.3Y-112.55
X145.31Y-52.45
X146.57Y-112.55
X146.58Y-52.45
X147.84Y-112.55
X147.85Y-52.45
X149.11Y-112.55
X149.12Y-52.45
X150.38Y-112.55
X150.39Y-52.45
X151.65Y-112.55
X151.66Y-52.45
X152.92Y-112.55
X152.93Y-52.45
X154.19Y-112.55
X154.2Y-52.45
X162.81Y-52.45
X163.3Y-112.55
X164.08Y-52.45
X164.57Y-112.55
X165.35Y-52.45
X165.84Y-112.55
X166.62Y-52.45
X167.11Y-112.55
X167.89Y-52.45
X168.38Y-112.55
X169.16Y-52.45
X169.65Y-112.55
X170.43Y-52.45
X170.92Y-112.55
X171.7Y-52.45
X172.19Y-112.55
X180.8Y-112.55
X182.07Y-112.55
X183.34Y-112.55
X184.61Y-112.55
X185.88Y-112.55
X187.15Y-112.55
X188.42Y-112.55
X189.69Y-112.55
X197.55Y-60.31
X197.55Y-61.58
X197.55Y-62.85
X197.55Y-64.12
X197.55Y-65.39
X197.55Y-66.66
X197.55Y-67.93
X197.55Y-69.2
X197.55Y-77.81
X197.55Y-79.08
X197.55Y-80.35
X197.55Y-81.62
X197.55Y-82.89
X197.55Y-84.16
X197.55Y-85.43
X197.55Y-86.7
T3
X157.34Y-123.5
X157.34Y-126.04
X159.88Y-123.5
X159.88Y-126.04
X162.42Y-123.5
X162.42Y-126.04
X164.96Y-123.5
X167.5Y-123.5
X170.04Y-123.5
X172.58Y-123.5
X175.12Y-123.5
X175.12Y-126.04
X177.66Y-123.5
X177.66Y-126.04
T0
M30
