G04 #@! TF.GenerationSoftware,KiCad,Pcbnew,7.0.2-6a45011f42~172~ubuntu22.04.1*
G04 #@! TF.CreationDate,2023-05-18T14:48:33+01:00*
G04 #@! TF.ProjectId,KX134_array,4b583133-345f-4617-9272-61792e6b6963,rev?*
G04 #@! TF.SameCoordinates,Original*
G04 #@! TF.FileFunction,Legend,Bot*
G04 #@! TF.FilePolarity,Positive*
%FSLAX46Y46*%
G04 Gerber Fmt 4.6, Leading zero omitted, Abs format (unit mm)*
G04 Created by KiCad (PCBNEW 7.0.2-6a45011f42~172~ubuntu22.04.1) date 2023-05-18 14:48:33*
%MOMM*%
%LPD*%
G01*
G04 APERTURE LIST*
%ADD10C,0.500000*%
%ADD11R,1.000000X1.000000*%
%ADD12O,1.000000X1.000000*%
%ADD13R,1.700000X1.700000*%
%ADD14O,1.700000X1.700000*%
G04 APERTURE END LIST*
D10*
X201285714Y-119316428D02*
X200857142Y-119459285D01*
X200857142Y-119459285D02*
X200714285Y-119602142D01*
X200714285Y-119602142D02*
X200571428Y-119887857D01*
X200571428Y-119887857D02*
X200571428Y-120316428D01*
X200571428Y-120316428D02*
X200714285Y-120602142D01*
X200714285Y-120602142D02*
X200857142Y-120745000D01*
X200857142Y-120745000D02*
X201142857Y-120887857D01*
X201142857Y-120887857D02*
X202285714Y-120887857D01*
X202285714Y-120887857D02*
X202285714Y-117887857D01*
X202285714Y-117887857D02*
X201285714Y-117887857D01*
X201285714Y-117887857D02*
X201000000Y-118030714D01*
X201000000Y-118030714D02*
X200857142Y-118173571D01*
X200857142Y-118173571D02*
X200714285Y-118459285D01*
X200714285Y-118459285D02*
X200714285Y-118745000D01*
X200714285Y-118745000D02*
X200857142Y-119030714D01*
X200857142Y-119030714D02*
X201000000Y-119173571D01*
X201000000Y-119173571D02*
X201285714Y-119316428D01*
X201285714Y-119316428D02*
X202285714Y-119316428D01*
X199571428Y-118887857D02*
X198857142Y-120887857D01*
X198142857Y-118887857D02*
X198857142Y-120887857D01*
X198857142Y-120887857D02*
X199142857Y-121602142D01*
X199142857Y-121602142D02*
X199285714Y-121745000D01*
X199285714Y-121745000D02*
X199571428Y-121887857D01*
X194857143Y-120030714D02*
X193428572Y-120030714D01*
X195142857Y-120887857D02*
X194142857Y-117887857D01*
X194142857Y-117887857D02*
X193142857Y-120887857D01*
X192142857Y-120887857D02*
X192142857Y-117887857D01*
X192142857Y-117887857D02*
X191428571Y-117887857D01*
X191428571Y-117887857D02*
X191000000Y-118030714D01*
X191000000Y-118030714D02*
X190714285Y-118316428D01*
X190714285Y-118316428D02*
X190571428Y-118602142D01*
X190571428Y-118602142D02*
X190428571Y-119173571D01*
X190428571Y-119173571D02*
X190428571Y-119602142D01*
X190428571Y-119602142D02*
X190571428Y-120173571D01*
X190571428Y-120173571D02*
X190714285Y-120459285D01*
X190714285Y-120459285D02*
X191000000Y-120745000D01*
X191000000Y-120745000D02*
X191428571Y-120887857D01*
X191428571Y-120887857D02*
X192142857Y-120887857D01*
X188000000Y-120745000D02*
X188285714Y-120887857D01*
X188285714Y-120887857D02*
X188857143Y-120887857D01*
X188857143Y-120887857D02*
X189142857Y-120745000D01*
X189142857Y-120745000D02*
X189285714Y-120459285D01*
X189285714Y-120459285D02*
X189285714Y-119316428D01*
X189285714Y-119316428D02*
X189142857Y-119030714D01*
X189142857Y-119030714D02*
X188857143Y-118887857D01*
X188857143Y-118887857D02*
X188285714Y-118887857D01*
X188285714Y-118887857D02*
X188000000Y-119030714D01*
X188000000Y-119030714D02*
X187857143Y-119316428D01*
X187857143Y-119316428D02*
X187857143Y-119602142D01*
X187857143Y-119602142D02*
X189285714Y-119887857D01*
X186857142Y-118887857D02*
X186142856Y-120887857D01*
X186142856Y-120887857D02*
X185428571Y-118887857D01*
%LPC*%
D11*
X163300000Y-112550000D03*
D12*
X164570000Y-112550000D03*
X165840000Y-112550000D03*
X167110000Y-112550000D03*
X168380000Y-112550000D03*
X169650000Y-112550000D03*
X170920000Y-112550000D03*
X172190000Y-112550000D03*
D11*
X154200000Y-52450000D03*
D12*
X152930000Y-52450000D03*
X151660000Y-52450000D03*
X150390000Y-52450000D03*
X149120000Y-52450000D03*
X147850000Y-52450000D03*
X146580000Y-52450000D03*
X145310000Y-52450000D03*
D11*
X171700000Y-52450000D03*
D12*
X170430000Y-52450000D03*
X169160000Y-52450000D03*
X167890000Y-52450000D03*
X166620000Y-52450000D03*
X165350000Y-52450000D03*
X164080000Y-52450000D03*
X162810000Y-52450000D03*
D11*
X180800000Y-112550000D03*
D12*
X182070000Y-112550000D03*
X183340000Y-112550000D03*
X184610000Y-112550000D03*
X185880000Y-112550000D03*
X187150000Y-112550000D03*
X188420000Y-112550000D03*
X189690000Y-112550000D03*
D11*
X197550000Y-69199999D03*
D12*
X197550000Y-67929999D03*
X197550000Y-66659999D03*
X197550000Y-65389999D03*
X197550000Y-64119999D03*
X197550000Y-62849999D03*
X197550000Y-61579999D03*
X197550000Y-60309999D03*
D11*
X137450000Y-95800000D03*
D12*
X137450000Y-97070000D03*
X137450000Y-98340000D03*
X137450000Y-99610000D03*
X137450000Y-100880000D03*
X137450000Y-102150000D03*
X137450000Y-103420000D03*
X137450000Y-104690000D03*
D11*
X197550000Y-86699999D03*
D12*
X197550000Y-85429999D03*
X197550000Y-84159999D03*
X197550000Y-82889999D03*
X197550000Y-81619999D03*
X197550000Y-80349999D03*
X197550000Y-79079999D03*
X197550000Y-77809999D03*
D11*
X145300000Y-112550000D03*
D12*
X146570000Y-112550000D03*
X147840000Y-112550000D03*
X149110000Y-112550000D03*
X150380000Y-112550000D03*
X151650000Y-112550000D03*
X152920000Y-112550000D03*
X154190000Y-112550000D03*
D11*
X137450000Y-78300000D03*
D12*
X137450000Y-79570000D03*
X137450000Y-80840000D03*
X137450000Y-82110000D03*
X137450000Y-83380000D03*
X137450000Y-84650000D03*
X137450000Y-85920000D03*
X137450000Y-87190000D03*
D13*
X177660000Y-123500000D03*
D14*
X175120000Y-123500000D03*
X172580000Y-123500000D03*
X170040000Y-123500000D03*
X167500000Y-123500000D03*
X164960000Y-123500000D03*
X162420000Y-123500000D03*
X159880000Y-123500000D03*
X157340000Y-123500000D03*
D13*
X177660000Y-126040000D03*
D14*
X175120000Y-126040000D03*
D13*
X157340000Y-126040000D03*
D14*
X159880000Y-126040000D03*
X162420000Y-126040000D03*
%LPD*%
M02*
