%TF.GenerationSoftware,KiCad,Pcbnew,7.0.2-6a45011f42~172~ubuntu22.04.1*%
%TF.CreationDate,2023-05-18T14:49:08+01:00*%
%TF.ProjectId,KX134_array,4b583133-345f-4617-9272-61792e6b6963,rev?*%
%TF.SameCoordinates,Original*%
%TF.FileFunction,Drillmap*%
%TF.FilePolarity,Positive*%
%FSLAX45Y45*%
G04 Gerber Fmt 4.5, Leading zero omitted, Abs format (unit mm)*
G04 Created by KiCad (PCBNEW 7.0.2-6a45011f42~172~ubuntu22.04.1) date 2023-05-18 14:49:08*
%MOMM*%
%LPD*%
G01*
G04 APERTURE LIST*
%ADD10C,0.010000*%
%ADD11C,0.200000*%
%ADD12C,0.030000*%
%ADD13C,0.070000*%
%ADD14C,0.100000*%
G04 APERTURE END LIST*
D10*
X16955000Y-9900000D02*
G75*
G03*
X16850000Y-9795000I-105000J0D01*
G01*
X19100000Y-8170000D02*
X19400000Y-8170000D01*
X20487868Y-12412132D02*
X20375736Y-12299764D01*
X19960000Y-7900000D02*
G75*
G03*
X20010000Y-7950000I50000J0D01*
G01*
X18705000Y-9900000D02*
G75*
G03*
X18600000Y-9795000I-105000J0D01*
G01*
X15100000Y-10205000D02*
G75*
G03*
X15205000Y-10100000I0J105000D01*
G01*
X13490000Y-8550000D02*
G75*
G03*
X13440000Y-8600000I0J-50000D01*
G01*
X18295000Y-6550000D02*
G75*
G03*
X18400000Y-6655000I105000J0D01*
G01*
X13124264Y-4200236D02*
X20375500Y-4200000D01*
X13640000Y-4940000D02*
G75*
G03*
X13440000Y-5140000I0J-200000D01*
G01*
X15180000Y-5450000D02*
X15500000Y-5450000D01*
X14875000Y-5945000D02*
G75*
G03*
X14875000Y-6255000I0J-155000D01*
G01*
X13590000Y-7700000D02*
G75*
G03*
X13540000Y-7750000I0J-50000D01*
G01*
X18650000Y-8120000D02*
X18650000Y-8100000D01*
X13490000Y-9700000D02*
G75*
G03*
X13540000Y-9650000I0J50000D01*
G01*
X16700000Y-8045000D02*
X16850000Y-8045000D01*
X16250000Y-11050000D02*
G75*
G03*
X16200000Y-11100000I0J-50000D01*
G01*
X18580000Y-10600000D02*
X18580000Y-10900000D01*
X18850000Y-11460000D02*
G75*
G03*
X18800000Y-11510000I0J-50000D01*
G01*
X13950000Y-9820000D02*
G75*
G03*
X14100000Y-9970000I150000J0D01*
G01*
X16720000Y-10200000D02*
G75*
G03*
X16875000Y-10355000I155000J0D01*
G01*
X17100000Y-11460000D02*
G75*
G03*
X17050000Y-11510000I0J-50000D01*
G01*
X18650000Y-6595000D02*
X18650000Y-6580000D01*
X18945000Y-6375000D02*
G75*
G03*
X18900000Y-6330000I-45000J0D01*
G01*
X16200000Y-5040000D02*
G75*
G03*
X16150000Y-5090000I0J-50000D01*
G01*
X16875000Y-8695000D02*
G75*
G03*
X16765398Y-8740399I0J-155000D01*
G01*
X13540000Y-7750000D02*
X13540000Y-7900000D01*
X12587868Y-11987868D02*
X12700236Y-11875736D01*
X17250000Y-5450000D02*
G75*
G03*
X17300000Y-5400000I0J50000D01*
G01*
X16920000Y-8650000D02*
G75*
G03*
X16875000Y-8605000I-45000J0D01*
G01*
X16670000Y-6300000D02*
G75*
G03*
X16625000Y-6255000I-45000J0D01*
G01*
X15205000Y-8200000D02*
X15205000Y-8350000D01*
X13440000Y-11360000D02*
G75*
G03*
X13640000Y-11560000I200000J0D01*
G01*
X18650000Y-6370000D02*
G75*
G03*
X18700000Y-6420000I50000J0D01*
G01*
X20010000Y-7950000D02*
G75*
G03*
X20060000Y-7900000I0J50000D01*
G01*
X13012132Y-4087868D02*
G75*
G03*
X12587868Y-4512132I-212132J-212132D01*
G01*
X18400000Y-6295000D02*
G75*
G03*
X18295000Y-6400000I0J-105000D01*
G01*
X18650000Y-6350000D02*
G75*
G03*
X18595000Y-6295000I-55000J0D01*
G01*
X16670000Y-5900000D02*
X16670000Y-5600000D01*
X18590000Y-8405052D02*
G75*
G03*
X18650052Y-8345000I0J60052D01*
G01*
X16595000Y-8345000D02*
X16595000Y-8150000D01*
X14920000Y-5600000D02*
G75*
G03*
X14770000Y-5450000I-150000J0D01*
G01*
X13900000Y-10600000D02*
X13590000Y-10600000D01*
X18400000Y-8045000D02*
X18595000Y-8045000D01*
X14850000Y-8155000D02*
X14850000Y-8170000D01*
X16580000Y-6100000D02*
G75*
G03*
X16625000Y-6145000I45000J0D01*
G01*
X15550000Y-5090000D02*
G75*
G03*
X15500000Y-5040000I-50000J0D01*
G01*
X13540000Y-10350000D02*
G75*
G03*
X13490000Y-10300000I-50000J0D01*
G01*
X18470000Y-10600000D02*
X18470000Y-10900000D01*
X15155052Y-6410000D02*
X15155000Y-6600000D01*
X15550000Y-5400000D02*
X15550000Y-5090000D01*
X13950000Y-10230000D02*
X13950000Y-10550000D01*
X15350000Y-4940000D02*
G75*
G03*
X15300000Y-4990000I0J-50000D01*
G01*
X13900000Y-7700000D02*
X13590000Y-7700000D01*
X16920000Y-10400000D02*
G75*
G03*
X16875000Y-10355000I-45000J0D01*
G01*
X14800000Y-9970000D02*
G75*
G03*
X14645000Y-10125000I0J-155000D01*
G01*
X16830000Y-10900000D02*
G75*
G03*
X16980000Y-11050000I150000J0D01*
G01*
X14400000Y-10080000D02*
X14100000Y-10080000D01*
X15000095Y-12299797D02*
X13124500Y-12300000D01*
X14875000Y-6055000D02*
G75*
G03*
X14830000Y-6100000I0J-45000D01*
G01*
X14650000Y-11510000D02*
G75*
G03*
X14600000Y-11460000I-50000J0D01*
G01*
X16595000Y-8345000D02*
G75*
G03*
X16650000Y-8400000I55000J0D01*
G01*
X14555000Y-10125000D02*
G75*
G03*
X14600000Y-10170000I45000J0D01*
G01*
X14770000Y-5450000D02*
X14450000Y-5450000D01*
X17950000Y-11410000D02*
G75*
G03*
X18000000Y-11460000I50000J0D01*
G01*
X15095000Y-6350000D02*
X15080000Y-6350000D01*
X15600109Y-12950000D02*
X17900000Y-12950000D01*
X20060000Y-8600000D02*
G75*
G03*
X20010000Y-8550000I-50000J0D01*
G01*
X20010000Y-6200000D02*
G75*
G03*
X20060000Y-6150000I0J50000D01*
G01*
X19960000Y-6150000D02*
G75*
G03*
X20010000Y-6200000I50000J0D01*
G01*
X14850000Y-6350000D02*
G75*
G03*
X14795000Y-6405000I0J-55000D01*
G01*
X13540000Y-10550000D02*
G75*
G03*
X13590000Y-10600000I50000J0D01*
G01*
X19910000Y-8800000D02*
G75*
G03*
X19960000Y-8750000I0J50000D01*
G01*
X19600000Y-5900000D02*
X19910000Y-5900000D01*
X16700000Y-8045000D02*
G75*
G03*
X16595000Y-8150000I0J-105000D01*
G01*
X19100000Y-11100000D02*
X19100000Y-11410000D01*
X20487868Y-4087868D02*
X20375500Y-4200000D01*
X14910000Y-8094948D02*
X15100000Y-8095000D01*
X13640000Y-11560000D02*
X14600000Y-11560000D01*
X13950000Y-8070000D02*
X13950000Y-7750000D01*
X18344948Y-10090000D02*
X18345000Y-9900000D01*
X13012132Y-4087868D02*
X13124264Y-4200236D01*
X16880000Y-8400000D02*
X16900000Y-8400000D01*
X13950000Y-8070000D02*
G75*
G03*
X14100000Y-8220000I150000J0D01*
G01*
X16830000Y-10600000D02*
X16830000Y-10900000D01*
X16930000Y-5450000D02*
G75*
G03*
X16780000Y-5600000I0J-150000D01*
G01*
X19960000Y-7000000D02*
X19960000Y-6850000D01*
X16900000Y-10150000D02*
G75*
G03*
X16955000Y-10095000I0J55000D01*
G01*
X18344948Y-10090000D02*
G75*
G03*
X18405000Y-10150052I60052J0D01*
G01*
X16150000Y-5400000D02*
G75*
G03*
X16200000Y-5450000I50000J0D01*
G01*
X14100000Y-8330000D02*
G75*
G03*
X13950000Y-8480000I0J-150000D01*
G01*
X16720000Y-10200000D02*
G75*
G03*
X16670000Y-10150000I-50000J0D01*
G01*
X14910000Y-9844948D02*
X15100000Y-9845000D01*
X14910000Y-8094948D02*
G75*
G03*
X14849948Y-8155000I0J-60052D01*
G01*
X14850000Y-10130000D02*
G75*
G03*
X14800000Y-10080000I-50000J0D01*
G01*
X14445000Y-10125000D02*
G75*
G03*
X14400000Y-10080000I-45000J0D01*
G01*
X15072469Y-10797470D02*
G75*
G03*
X15030000Y-10900000I102531J-102530D01*
G01*
X19400000Y-6420000D02*
G75*
G03*
X19550000Y-6270000I0J150000D01*
G01*
X15300110Y-12649891D02*
G75*
G03*
X15600109Y-12950000I300000J-109D01*
G01*
X14795000Y-6600000D02*
X14795000Y-6405000D01*
X18700000Y-8280000D02*
G75*
G03*
X18650000Y-8330000I0J-50000D01*
G01*
X16545000Y-6600000D02*
X16545000Y-6405000D01*
X14920000Y-5900000D02*
X14920000Y-5600000D01*
X14400000Y-5400000D02*
G75*
G03*
X14450000Y-5450000I50000J0D01*
G01*
X16830000Y-10200000D02*
G75*
G03*
X16875000Y-10245000I45000J0D01*
G01*
X18650000Y-8120000D02*
G75*
G03*
X18700000Y-8170000I50000J0D01*
G01*
X18945000Y-8125000D02*
G75*
G03*
X18900000Y-8080000I-45000J0D01*
G01*
X19550000Y-6680000D02*
X19550000Y-7000000D01*
X16843180Y-8818180D02*
X15072470Y-10797470D01*
X20010000Y-8550000D02*
G75*
G03*
X19960000Y-8600000I0J-50000D01*
G01*
X15550000Y-11100000D02*
G75*
G03*
X15500000Y-11050000I-50000J0D01*
G01*
X20060000Y-5140000D02*
G75*
G03*
X19860000Y-4940000I-200000J0D01*
G01*
X18295000Y-6550000D02*
X18295000Y-6400000D01*
X15030000Y-6300000D02*
G75*
G03*
X15080000Y-6350000I50000J0D01*
G01*
X15155052Y-6410000D02*
G75*
G03*
X15095000Y-6349948I-60052J0D01*
G01*
X14600000Y-8420000D02*
G75*
G03*
X14645000Y-8375000I0J45000D01*
G01*
X16955000Y-8150000D02*
X16955000Y-8345000D01*
X16570000Y-11050000D02*
G75*
G03*
X16720000Y-10900000I0J150000D01*
G01*
X18945000Y-6375000D02*
G75*
G03*
X19100000Y-6530000I155000J0D01*
G01*
X19100000Y-8280000D02*
X19400000Y-8280000D01*
X19960000Y-7700000D02*
X19960000Y-7900000D01*
X18580000Y-10900000D02*
G75*
G03*
X18730000Y-11050000I150000J0D01*
G01*
X13490000Y-10300000D02*
G75*
G03*
X13440000Y-10350000I0J-50000D01*
G01*
X17900000Y-12950000D02*
G75*
G03*
X18200000Y-12650000I0J300000D01*
G01*
X15205000Y-9950000D02*
G75*
G03*
X15100000Y-9845000I-105000J0D01*
G01*
X12950000Y-4300000D02*
G75*
G03*
X12950000Y-4300000I-150000J0D01*
G01*
X14555000Y-10125000D02*
G75*
G03*
X14400000Y-9970000I-155000J0D01*
G01*
X13540000Y-10550000D02*
X13540000Y-10350000D01*
X16250000Y-11460000D02*
X16400000Y-11460000D01*
X15250000Y-11510000D02*
G75*
G03*
X15300000Y-11560000I50000J0D01*
G01*
X14800000Y-8330000D02*
G75*
G03*
X14755000Y-8375000I0J-45000D01*
G01*
X18700000Y-6530000D02*
G75*
G03*
X18650000Y-6580000I0J-50000D01*
G01*
X14800000Y-8220000D02*
G75*
G03*
X14850000Y-8170000I0J50000D01*
G01*
X20060000Y-6150000D02*
X20060000Y-5140000D01*
X18850000Y-11560000D02*
X19860000Y-11560000D01*
X18800000Y-11510000D02*
G75*
G03*
X18850000Y-11560000I50000J0D01*
G01*
X13900000Y-8850000D02*
X13590000Y-8850000D01*
X16700000Y-9795000D02*
G75*
G03*
X16595000Y-9900000I0J-105000D01*
G01*
X16655000Y-10150000D02*
X16670000Y-10150000D01*
X14994688Y-10719688D02*
G75*
G03*
X14920000Y-10900000I180312J-180312D01*
G01*
X18450000Y-9795000D02*
G75*
G03*
X18345000Y-9900000I0J-105000D01*
G01*
X14400000Y-11410000D02*
G75*
G03*
X14450000Y-11460000I50000J0D01*
G01*
X14445000Y-8375000D02*
G75*
G03*
X14400000Y-8330000I-45000J0D01*
G01*
X15030000Y-5900000D02*
X15030000Y-5600000D01*
X14850000Y-10130000D02*
X14850000Y-10150000D01*
X16620000Y-6350000D02*
G75*
G03*
X16670000Y-6300000I0J50000D01*
G01*
X15500000Y-11460000D02*
G75*
G03*
X15550000Y-11410000I0J50000D01*
G01*
X14400000Y-8220000D02*
X14100000Y-8220000D01*
X16905052Y-6410000D02*
X16905000Y-6600000D01*
X18320000Y-11050000D02*
G75*
G03*
X18470000Y-10900000I0J150000D01*
G01*
X18700000Y-8170000D02*
G75*
G03*
X18745000Y-8125000I0J45000D01*
G01*
X15050000Y-6705000D02*
G75*
G03*
X15155000Y-6600000I0J105000D01*
G01*
X13950000Y-8480000D02*
X13950000Y-8800000D01*
X18625000Y-10445000D02*
G75*
G03*
X18670000Y-10400000I0J45000D01*
G01*
X19550000Y-6270000D02*
X19550000Y-5950000D01*
X14800000Y-10080000D02*
G75*
G03*
X14755000Y-10125000I0J-45000D01*
G01*
X16520000Y-5450000D02*
X16200000Y-5450000D01*
X19550000Y-8430000D02*
X19550000Y-8750000D01*
X16780000Y-6300000D02*
G75*
G03*
X16830000Y-6350000I50000J0D01*
G01*
X18670000Y-10400000D02*
G75*
G03*
X18625000Y-10355000I-45000J0D01*
G01*
X16880000Y-8400000D02*
G75*
G03*
X16830000Y-8450000I0J-50000D01*
G01*
X16625000Y-6055000D02*
G75*
G03*
X16780000Y-5900000I0J155000D01*
G01*
X14400000Y-8330000D02*
X14100000Y-8330000D01*
X16800000Y-6705000D02*
G75*
G03*
X16905000Y-6600000I0J105000D01*
G01*
X16955000Y-9900000D02*
X16955000Y-10095000D01*
X18590000Y-8405052D02*
X18400000Y-8405000D01*
X19960000Y-5950000D02*
G75*
G03*
X19910000Y-5900000I-50000J0D01*
G01*
X17300000Y-11460000D02*
G75*
G03*
X17350000Y-11410000I0J50000D01*
G01*
X16450000Y-11510000D02*
G75*
G03*
X16400000Y-11460000I-50000J0D01*
G01*
X16625000Y-6055000D02*
G75*
G03*
X16580000Y-6100000I0J-45000D01*
G01*
X14795000Y-6600000D02*
G75*
G03*
X14900000Y-6705000I105000J0D01*
G01*
X14850000Y-8400000D02*
G75*
G03*
X14905000Y-8455000I55000J0D01*
G01*
X16200000Y-11100000D02*
X16200000Y-11410000D01*
X15500000Y-5450000D02*
G75*
G03*
X15550000Y-5400000I0J50000D01*
G01*
X18000000Y-11050000D02*
G75*
G03*
X17950000Y-11100000I0J-50000D01*
G01*
X16880000Y-10150000D02*
X16900000Y-10150000D01*
X17950000Y-11100000D02*
X17950000Y-11410000D01*
X14555000Y-8375000D02*
G75*
G03*
X14400000Y-8220000I-155000J0D01*
G01*
X15180000Y-5450000D02*
G75*
G03*
X15030000Y-5600000I0J-150000D01*
G01*
X12700000Y-4624500D02*
X12700236Y-11875736D01*
X14450000Y-11460000D02*
X14600000Y-11460000D01*
X18650000Y-10150000D02*
G75*
G03*
X18705000Y-10095000I0J55000D01*
G01*
X20060000Y-6850000D02*
G75*
G03*
X20010000Y-6800000I-50000J0D01*
G01*
X15300127Y-12599905D02*
X15300109Y-12649891D01*
X18900000Y-8080000D02*
G75*
G03*
X18855000Y-8125000I0J-45000D01*
G01*
X15030000Y-6300000D02*
G75*
G03*
X14875000Y-6145000I-155000J0D01*
G01*
X13440000Y-10350000D02*
X13440000Y-11360000D01*
X16625000Y-5945000D02*
G75*
G03*
X16625000Y-6255000I0J-155000D01*
G01*
X18625000Y-10555000D02*
G75*
G03*
X18580000Y-10600000I0J-45000D01*
G01*
X20850000Y-12200000D02*
G75*
G03*
X20850000Y-12200000I-150000J0D01*
G01*
X15500000Y-5040000D02*
X15350000Y-5040000D01*
X20060000Y-7900000D02*
X20060000Y-6850000D01*
X18630000Y-10150000D02*
G75*
G03*
X18580000Y-10200000I0J-50000D01*
G01*
X16875000Y-8695000D02*
G75*
G03*
X16920000Y-8650000I0J45000D01*
G01*
X17100000Y-4940000D02*
X19860000Y-4940000D01*
X19100000Y-6420000D02*
X19400000Y-6420000D01*
X16930000Y-5450000D02*
X17250000Y-5450000D01*
X19050000Y-11460000D02*
G75*
G03*
X19100000Y-11410000I0J50000D01*
G01*
X16800000Y-6705000D02*
X16650000Y-6705000D01*
X17300000Y-11460000D02*
X17100000Y-11460000D01*
X17250000Y-5040000D02*
X17100000Y-5040000D01*
X15100000Y-8455000D02*
G75*
G03*
X15205000Y-8350000I0J105000D01*
G01*
X15030000Y-10900000D02*
G75*
G03*
X15180000Y-11050000I150000J0D01*
G01*
X18320000Y-11050000D02*
X18000000Y-11050000D01*
X18590000Y-6655052D02*
G75*
G03*
X18650052Y-6595000I0J60052D01*
G01*
X18650000Y-6370000D02*
X18650000Y-6350000D01*
X19910000Y-7050000D02*
G75*
G03*
X19960000Y-7000000I0J50000D01*
G01*
X18650000Y-8100000D02*
G75*
G03*
X18595000Y-8045000I-55000J0D01*
G01*
X13012132Y-12412132D02*
X13124500Y-12300000D01*
X19600000Y-5900000D02*
G75*
G03*
X19550000Y-5950000I0J-50000D01*
G01*
X14850000Y-8380000D02*
G75*
G03*
X14800000Y-8330000I-50000J0D01*
G01*
X15300123Y-12599905D02*
G75*
G03*
X15000095Y-12299797I-299993J116D01*
G01*
X13540000Y-8800000D02*
G75*
G03*
X13590000Y-8850000I50000J0D01*
G01*
X13440000Y-9650000D02*
G75*
G03*
X13490000Y-9700000I50000J0D01*
G01*
X19600000Y-7050000D02*
X19910000Y-7050000D01*
X13440000Y-7900000D02*
X13440000Y-5140000D01*
X15550000Y-11100000D02*
X15550000Y-11410000D01*
X19100000Y-6530000D02*
X19400000Y-6530000D01*
X18700000Y-6530000D02*
G75*
G03*
X18855000Y-6375000I0J155000D01*
G01*
X16875000Y-10445000D02*
G75*
G03*
X16720000Y-10600000I0J-155000D01*
G01*
X14850000Y-10150000D02*
G75*
G03*
X14905000Y-10205000I55000J0D01*
G01*
X19550000Y-8430000D02*
G75*
G03*
X19400000Y-8280000I-150000J0D01*
G01*
X14600000Y-11560000D02*
G75*
G03*
X14650000Y-11510000I0J50000D01*
G01*
X18630000Y-10150000D02*
X18650000Y-10150000D01*
X14700000Y-4990000D02*
G75*
G03*
X14650000Y-4940000I-50000J0D01*
G01*
X16700000Y-9795000D02*
X16850000Y-9795000D01*
X13440000Y-9650000D02*
X13440000Y-8600000D01*
X16400000Y-11560000D02*
G75*
G03*
X16450000Y-11510000I0J50000D01*
G01*
X15300000Y-4990000D02*
G75*
G03*
X15350000Y-5040000I50000J0D01*
G01*
X18900000Y-6330000D02*
G75*
G03*
X18855000Y-6375000I0J-45000D01*
G01*
X18580000Y-10200000D02*
G75*
G03*
X18625000Y-10245000I45000J0D01*
G01*
X14445000Y-8375000D02*
G75*
G03*
X14755000Y-8375000I155000J0D01*
G01*
X16400000Y-5040000D02*
G75*
G03*
X16450000Y-4990000I0J50000D01*
G01*
X19600000Y-8800000D02*
X19910000Y-8800000D01*
X16845000Y-6350000D02*
X16830000Y-6350000D01*
X19055000Y-8125000D02*
G75*
G03*
X19100000Y-8170000I45000J0D01*
G01*
X18200000Y-11510000D02*
G75*
G03*
X18150000Y-11460000I-50000J0D01*
G01*
X18400000Y-8045000D02*
G75*
G03*
X18295000Y-8150000I0J-105000D01*
G01*
X19550000Y-8750000D02*
G75*
G03*
X19600000Y-8800000I50000J0D01*
G01*
X16600000Y-6350000D02*
G75*
G03*
X16545000Y-6405000I0J-55000D01*
G01*
X13440000Y-7900000D02*
G75*
G03*
X13490000Y-7950000I50000J0D01*
G01*
X17100000Y-4940000D02*
G75*
G03*
X17050000Y-4990000I0J-50000D01*
G01*
X14100000Y-10080000D02*
G75*
G03*
X13950000Y-10230000I0J-150000D01*
G01*
X14650000Y-5040000D02*
G75*
G03*
X14700000Y-4990000I0J50000D01*
G01*
X19960000Y-5950000D02*
X19960000Y-6150000D01*
X17050000Y-4990000D02*
G75*
G03*
X17100000Y-5040000I50000J0D01*
G01*
X14600000Y-10170000D02*
G75*
G03*
X14645000Y-10125000I0J45000D01*
G01*
X16594948Y-10090000D02*
G75*
G03*
X16655000Y-10150052I60052J0D01*
G01*
X20487868Y-12412132D02*
G75*
G03*
X20912132Y-11987868I212132J212132D01*
G01*
X16594948Y-10090000D02*
X16595000Y-9900000D01*
X16625000Y-5945000D02*
G75*
G03*
X16670000Y-5900000I0J45000D01*
G01*
X14800000Y-8220000D02*
G75*
G03*
X14645000Y-8375000I0J-155000D01*
G01*
X17300000Y-5400000D02*
X17300000Y-5090000D01*
X16720000Y-8450000D02*
G75*
G03*
X16670000Y-8400000I-50000J0D01*
G01*
X17100000Y-11560000D02*
X18150000Y-11560000D01*
X16875000Y-10555000D02*
G75*
G03*
X16875000Y-10245000I0J155000D01*
G01*
X19960000Y-8750000D02*
X19960000Y-8600000D01*
X16875000Y-10555000D02*
G75*
G03*
X16830000Y-10600000I0J-45000D01*
G01*
X13950000Y-7750000D02*
G75*
G03*
X13900000Y-7700000I-50000J0D01*
G01*
X16545000Y-6600000D02*
G75*
G03*
X16650000Y-6705000I105000J0D01*
G01*
X18150000Y-11560000D02*
G75*
G03*
X18200000Y-11510000I0J50000D01*
G01*
X16670000Y-5600000D02*
G75*
G03*
X16520000Y-5450000I-150000J0D01*
G01*
X16880000Y-10150000D02*
G75*
G03*
X16830000Y-10200000I0J-50000D01*
G01*
X19055000Y-6375000D02*
G75*
G03*
X18745000Y-6375000I-155000J0D01*
G01*
X18700000Y-8280000D02*
G75*
G03*
X18855000Y-8125000I0J155000D01*
G01*
X14450000Y-11050000D02*
G75*
G03*
X14400000Y-11100000I0J-50000D01*
G01*
X18295000Y-8300000D02*
G75*
G03*
X18400000Y-8405000I105000J0D01*
G01*
X16720000Y-8450000D02*
G75*
G03*
X16875000Y-8605000I155000J0D01*
G01*
X14910000Y-9844948D02*
G75*
G03*
X14849948Y-9905000I0J-60052D01*
G01*
X14800000Y-9970000D02*
G75*
G03*
X14850000Y-9920000I0J50000D01*
G01*
X16905052Y-6410000D02*
G75*
G03*
X16845000Y-6349948I-60052J0D01*
G01*
X14920000Y-6300000D02*
G75*
G03*
X14875000Y-6255000I-45000J0D01*
G01*
X18450000Y-9795000D02*
X18600000Y-9795000D01*
X16150000Y-5400000D02*
X16150000Y-5090000D01*
X14875000Y-6055000D02*
G75*
G03*
X15030000Y-5900000I0J155000D01*
G01*
X15205000Y-9950000D02*
X15205000Y-10100000D01*
X14830000Y-6100000D02*
G75*
G03*
X14875000Y-6145000I45000J0D01*
G01*
X13540000Y-8600000D02*
G75*
G03*
X13490000Y-8550000I-50000J0D01*
G01*
X15500000Y-11460000D02*
X15300000Y-11460000D01*
X18295000Y-8300000D02*
X18295000Y-8150000D01*
X14850000Y-9905000D02*
X14850000Y-9920000D01*
X18730000Y-11050000D02*
X19050000Y-11050000D01*
X18945000Y-8125000D02*
G75*
G03*
X19100000Y-8280000I155000J0D01*
G01*
X18625000Y-10555000D02*
G75*
G03*
X18625000Y-10245000I0J155000D01*
G01*
X14450000Y-5040000D02*
X14650000Y-5040000D01*
X14994688Y-10719688D02*
X16765398Y-8740399D01*
X17350000Y-11410000D02*
X17350000Y-11100000D01*
X20850000Y-4300000D02*
G75*
G03*
X20850000Y-4300000I-150000J0D01*
G01*
X13950000Y-9500000D02*
G75*
G03*
X13900000Y-9450000I-50000J0D01*
G01*
X15100000Y-10205000D02*
X14905000Y-10205000D01*
X18700000Y-6420000D02*
G75*
G03*
X18745000Y-6375000I0J45000D01*
G01*
X14770000Y-11050000D02*
G75*
G03*
X14920000Y-10900000I0J150000D01*
G01*
X12587868Y-11987868D02*
G75*
G03*
X13012132Y-12412132I212132J-212132D01*
G01*
X13540000Y-9500000D02*
X13540000Y-9650000D01*
X18470000Y-10200000D02*
G75*
G03*
X18625000Y-10355000I155000J0D01*
G01*
X16955000Y-8150000D02*
G75*
G03*
X16850000Y-8045000I-105000J0D01*
G01*
X19100000Y-11100000D02*
G75*
G03*
X19050000Y-11050000I-50000J0D01*
G01*
X16650000Y-8400000D02*
X16670000Y-8400000D01*
X15050000Y-6705000D02*
X14900000Y-6705000D01*
X20912132Y-11987868D02*
X20800000Y-11875500D01*
X19055000Y-6375000D02*
G75*
G03*
X19100000Y-6420000I45000J0D01*
G01*
X16875000Y-10445000D02*
G75*
G03*
X16920000Y-10400000I0J45000D01*
G01*
X16980000Y-11050000D02*
X17300000Y-11050000D01*
X19550000Y-7000000D02*
G75*
G03*
X19600000Y-7050000I50000J0D01*
G01*
X18000000Y-11460000D02*
X18150000Y-11460000D01*
X14870000Y-6350000D02*
X14850000Y-6350000D01*
X14850000Y-8380000D02*
X14850000Y-8400000D01*
X17300000Y-5090000D02*
G75*
G03*
X17250000Y-5040000I-50000J0D01*
G01*
X20060000Y-8600000D02*
X20060000Y-11360000D01*
X16450000Y-4990000D02*
G75*
G03*
X16400000Y-4940000I-50000J0D01*
G01*
X14400000Y-9970000D02*
X14100000Y-9970000D01*
X19050000Y-11460000D02*
X18850000Y-11460000D01*
X15300000Y-11460000D02*
G75*
G03*
X15250000Y-11510000I0J-50000D01*
G01*
X16875000Y-8805000D02*
G75*
G03*
X16875000Y-8495000I0J155000D01*
G01*
X13900000Y-9450000D02*
X13590000Y-9450000D01*
X16720000Y-10600000D02*
X16720000Y-10900000D01*
X13900000Y-10600000D02*
G75*
G03*
X13950000Y-10550000I0J50000D01*
G01*
X18400000Y-6295000D02*
X18595000Y-6295000D01*
X19600000Y-7650000D02*
X19910000Y-7650000D01*
X18405000Y-10150000D02*
X18420000Y-10150000D01*
X20799764Y-4624264D02*
X20800000Y-11875500D01*
X18650000Y-8345000D02*
X18650000Y-8330000D01*
X18200000Y-12650000D02*
X18200000Y-12599967D01*
X14555000Y-8375000D02*
G75*
G03*
X14600000Y-8420000I45000J0D01*
G01*
X14400000Y-5400000D02*
X14400000Y-5090000D01*
X19400000Y-8170000D02*
G75*
G03*
X19550000Y-8020000I0J150000D01*
G01*
X14870000Y-6350000D02*
G75*
G03*
X14920000Y-6300000I0J50000D01*
G01*
X15350000Y-4940000D02*
X16400000Y-4940000D01*
X18499968Y-12299970D02*
G75*
G03*
X18200000Y-12599967I33J-300000D01*
G01*
X17050000Y-11510000D02*
G75*
G03*
X17100000Y-11560000I50000J0D01*
G01*
X16875000Y-8805000D02*
G75*
G03*
X16843180Y-8818180I0J-45000D01*
G01*
X20912132Y-4512132D02*
G75*
G03*
X20487868Y-4087868I-212132J212132D01*
G01*
X13900000Y-8850000D02*
G75*
G03*
X13950000Y-8800000I0J50000D01*
G01*
X16570000Y-11050000D02*
X16250000Y-11050000D01*
X18590000Y-6655052D02*
X18400000Y-6655000D01*
X16780000Y-5900000D02*
X16780000Y-5600000D01*
X19960000Y-7700000D02*
G75*
G03*
X19910000Y-7650000I-50000J0D01*
G01*
X16200000Y-5040000D02*
X16400000Y-5040000D01*
X18470000Y-10200000D02*
G75*
G03*
X18420000Y-10150000I-50000J0D01*
G01*
X16200000Y-11410000D02*
G75*
G03*
X16250000Y-11460000I50000J0D01*
G01*
X14650000Y-4940000D02*
X13640000Y-4940000D01*
X14400000Y-11100000D02*
X14400000Y-11410000D01*
X15205000Y-8200000D02*
G75*
G03*
X15100000Y-8095000I-105000J0D01*
G01*
X18705000Y-9900000D02*
X18705000Y-10095000D01*
X19860000Y-11560000D02*
G75*
G03*
X20060000Y-11360000I0J200000D01*
G01*
X16620000Y-6350000D02*
X16600000Y-6350000D01*
X12587868Y-4512132D02*
X12700000Y-4624500D01*
X19600000Y-7650000D02*
G75*
G03*
X19550000Y-7700000I0J-50000D01*
G01*
X16830000Y-8450000D02*
G75*
G03*
X16875000Y-8495000I45000J0D01*
G01*
X19550000Y-8020000D02*
X19550000Y-7700000D01*
X13950000Y-9820000D02*
X13950000Y-9500000D01*
X15180000Y-11050000D02*
X15500000Y-11050000D01*
X18625000Y-10445000D02*
G75*
G03*
X18470000Y-10600000I0J-155000D01*
G01*
X17350000Y-11100000D02*
G75*
G03*
X17300000Y-11050000I-50000J0D01*
G01*
X12950000Y-12200000D02*
G75*
G03*
X12950000Y-12200000I-150000J0D01*
G01*
X14875000Y-5945000D02*
G75*
G03*
X14920000Y-5900000I0J45000D01*
G01*
X20912132Y-4512132D02*
X20799764Y-4624264D01*
X16400000Y-11560000D02*
X15300000Y-11560000D01*
X14445000Y-10125000D02*
G75*
G03*
X14755000Y-10125000I155000J0D01*
G01*
X19550000Y-6680000D02*
G75*
G03*
X19400000Y-6530000I-150000J0D01*
G01*
X20375736Y-12299764D02*
X18499968Y-12299967D01*
X13490000Y-7950000D02*
G75*
G03*
X13540000Y-7900000I0J50000D01*
G01*
X16900000Y-8400000D02*
G75*
G03*
X16955000Y-8345000I0J55000D01*
G01*
X14770000Y-11050000D02*
X14450000Y-11050000D01*
X13540000Y-8800000D02*
X13540000Y-8600000D01*
X13590000Y-9450000D02*
G75*
G03*
X13540000Y-9500000I0J-50000D01*
G01*
X15100000Y-8455000D02*
X14905000Y-8455000D01*
X19055000Y-8125000D02*
G75*
G03*
X18745000Y-8125000I-155000J0D01*
G01*
X16780000Y-6300000D02*
G75*
G03*
X16625000Y-6145000I-155000J0D01*
G01*
X20010000Y-6800000D02*
G75*
G03*
X19960000Y-6850000I0J-50000D01*
G01*
X14450000Y-5040000D02*
G75*
G03*
X14400000Y-5090000I0J-50000D01*
G01*
D11*
D12*
X12785000Y-8385000D02*
X12815000Y-8415000D01*
X12815000Y-8385000D02*
X12785000Y-8415000D01*
X12785000Y-10135000D02*
X12815000Y-10165000D01*
X12815000Y-10135000D02*
X12785000Y-10165000D01*
X12835000Y-8435000D02*
X12865000Y-8465000D01*
X12865000Y-8435000D02*
X12835000Y-8465000D01*
X12835000Y-10185000D02*
X12865000Y-10215000D01*
X12865000Y-10185000D02*
X12835000Y-10215000D01*
X12885000Y-8485000D02*
X12915000Y-8515000D01*
X12915000Y-8485000D02*
X12885000Y-8515000D01*
X12885000Y-10235000D02*
X12915000Y-10265000D01*
X12915000Y-10235000D02*
X12885000Y-10265000D01*
X13035000Y-8335000D02*
X13065000Y-8365000D01*
X13065000Y-8335000D02*
X13035000Y-8365000D01*
X13085000Y-10085000D02*
X13115000Y-10115000D01*
X13115000Y-10085000D02*
X13085000Y-10115000D01*
X13285000Y-8085000D02*
X13315000Y-8115000D01*
X13315000Y-8085000D02*
X13285000Y-8115000D01*
X13285000Y-9835000D02*
X13315000Y-9865000D01*
X13315000Y-9835000D02*
X13285000Y-9865000D01*
X14735000Y-4385000D02*
X14765000Y-4415000D01*
X14765000Y-4385000D02*
X14735000Y-4415000D01*
X14785000Y-4335000D02*
X14815000Y-4365000D01*
X14815000Y-4335000D02*
X14785000Y-4365000D01*
X14785000Y-11685000D02*
X14815000Y-11715000D01*
X14815000Y-11685000D02*
X14785000Y-11715000D01*
X14832500Y-6382500D02*
X14862500Y-6412500D01*
X14862500Y-6382500D02*
X14832500Y-6412500D01*
X14835000Y-4285000D02*
X14865000Y-4315000D01*
X14865000Y-4285000D02*
X14835000Y-4315000D01*
X14850000Y-6565000D02*
X14880000Y-6595000D01*
X14880000Y-6565000D02*
X14850000Y-6595000D01*
X14882500Y-8387500D02*
X14912500Y-8417500D01*
X14912500Y-8387500D02*
X14882500Y-8417500D01*
X14882500Y-10137500D02*
X14912500Y-10167500D01*
X14912500Y-10137500D02*
X14882500Y-10167500D01*
X14885000Y-4485000D02*
X14915000Y-4515000D01*
X14915000Y-4485000D02*
X14885000Y-4515000D01*
X14902500Y-6617500D02*
X14932500Y-6647500D01*
X14932500Y-6617500D02*
X14902500Y-6647500D01*
X14977500Y-6505000D02*
X15007500Y-6535000D01*
X15007500Y-6505000D02*
X14977500Y-6535000D01*
X14985000Y-8125000D02*
X15015000Y-8155000D01*
X15015000Y-8125000D02*
X14985000Y-8155000D01*
X14985000Y-9875000D02*
X15015000Y-9905000D01*
X15015000Y-9875000D02*
X14985000Y-9905000D01*
X15005000Y-8242500D02*
X15035000Y-8272500D01*
X15035000Y-8242500D02*
X15005000Y-8272500D01*
X15005000Y-9992500D02*
X15035000Y-10022500D01*
X15035000Y-9992500D02*
X15005000Y-10022500D01*
X15035000Y-11835000D02*
X15065000Y-11865000D01*
X15065000Y-11835000D02*
X15035000Y-11865000D01*
X15065000Y-8370000D02*
X15095000Y-8400000D01*
X15095000Y-8370000D02*
X15065000Y-8400000D01*
X15065000Y-10120000D02*
X15095000Y-10150000D01*
X15095000Y-10120000D02*
X15065000Y-10150000D01*
X15085000Y-12185000D02*
X15115000Y-12215000D01*
X15115000Y-12185000D02*
X15085000Y-12215000D01*
X15095000Y-6485000D02*
X15125000Y-6515000D01*
X15125000Y-6485000D02*
X15095000Y-6515000D01*
X15117500Y-8317500D02*
X15147500Y-8347500D01*
X15147500Y-8317500D02*
X15117500Y-8347500D01*
X15117500Y-10067500D02*
X15147500Y-10097500D01*
X15147500Y-10067500D02*
X15117500Y-10097500D01*
X15135000Y-4785000D02*
X15165000Y-4815000D01*
X15165000Y-4785000D02*
X15135000Y-4815000D01*
X15135000Y-12135000D02*
X15165000Y-12165000D01*
X15165000Y-12135000D02*
X15135000Y-12165000D01*
X15185000Y-12085000D02*
X15215000Y-12115000D01*
X15215000Y-12085000D02*
X15185000Y-12115000D01*
X15735000Y-12035000D02*
X15765000Y-12065000D01*
X15765000Y-12035000D02*
X15735000Y-12065000D01*
X15985000Y-11985000D02*
X16015000Y-12015000D01*
X16015000Y-11985000D02*
X15985000Y-12015000D01*
X16235000Y-11935000D02*
X16265000Y-11965000D01*
X16265000Y-11935000D02*
X16235000Y-11965000D01*
X16485000Y-4385000D02*
X16515000Y-4415000D01*
X16515000Y-4385000D02*
X16485000Y-4415000D01*
X16485000Y-11885000D02*
X16515000Y-11915000D01*
X16515000Y-11885000D02*
X16485000Y-11915000D01*
X16535000Y-4335000D02*
X16565000Y-4365000D01*
X16565000Y-4335000D02*
X16535000Y-4365000D01*
X16582500Y-6382500D02*
X16612500Y-6412500D01*
X16612500Y-6382500D02*
X16582500Y-6412500D01*
X16585000Y-4285000D02*
X16615000Y-4315000D01*
X16615000Y-4285000D02*
X16585000Y-4315000D01*
X16585000Y-11685000D02*
X16615000Y-11715000D01*
X16615000Y-11685000D02*
X16585000Y-11715000D01*
X16600000Y-6565000D02*
X16630000Y-6595000D01*
X16630000Y-6565000D02*
X16600000Y-6595000D01*
X16625000Y-8235000D02*
X16655000Y-8265000D01*
X16655000Y-8235000D02*
X16625000Y-8265000D01*
X16625000Y-9985000D02*
X16655000Y-10015000D01*
X16655000Y-9985000D02*
X16625000Y-10015000D01*
X16635000Y-4435000D02*
X16665000Y-4465000D01*
X16665000Y-4435000D02*
X16635000Y-4465000D01*
X16652500Y-6617500D02*
X16682500Y-6647500D01*
X16682500Y-6617500D02*
X16652500Y-6647500D01*
X16727500Y-6505000D02*
X16757500Y-6535000D01*
X16757500Y-6505000D02*
X16727500Y-6535000D01*
X16735000Y-11835000D02*
X16765000Y-11865000D01*
X16765000Y-11835000D02*
X16735000Y-11865000D01*
X16742500Y-8215000D02*
X16772500Y-8245000D01*
X16772500Y-8215000D02*
X16742500Y-8245000D01*
X16742500Y-9965000D02*
X16772500Y-9995000D01*
X16772500Y-9965000D02*
X16742500Y-9995000D01*
X16817500Y-8102500D02*
X16847500Y-8132500D01*
X16847500Y-8102500D02*
X16817500Y-8132500D01*
X16817500Y-9852500D02*
X16847500Y-9882500D01*
X16847500Y-9852500D02*
X16817500Y-9882500D01*
X16845000Y-6485000D02*
X16875000Y-6515000D01*
X16875000Y-6485000D02*
X16845000Y-6515000D01*
X16870000Y-8155000D02*
X16900000Y-8185000D01*
X16900000Y-8155000D02*
X16870000Y-8185000D01*
X16870000Y-9905000D02*
X16900000Y-9935000D01*
X16900000Y-9905000D02*
X16870000Y-9935000D01*
X16885000Y-4785000D02*
X16915000Y-4815000D01*
X16915000Y-4785000D02*
X16885000Y-4815000D01*
X16885000Y-12185000D02*
X16915000Y-12215000D01*
X16915000Y-12185000D02*
X16885000Y-12215000D01*
X16887500Y-8337500D02*
X16917500Y-8367500D01*
X16917500Y-8337500D02*
X16887500Y-8367500D01*
X16887500Y-10087500D02*
X16917500Y-10117500D01*
X16917500Y-10087500D02*
X16887500Y-10117500D01*
X16935000Y-12135000D02*
X16965000Y-12165000D01*
X16965000Y-12135000D02*
X16935000Y-12165000D01*
X16985000Y-12085000D02*
X17015000Y-12115000D01*
X17015000Y-12085000D02*
X16985000Y-12115000D01*
X17485000Y-11985000D02*
X17515000Y-12015000D01*
X17515000Y-11985000D02*
X17485000Y-12015000D01*
X17735000Y-12035000D02*
X17765000Y-12065000D01*
X17765000Y-12035000D02*
X17735000Y-12065000D01*
X17935000Y-11885000D02*
X17965000Y-11915000D01*
X17965000Y-11885000D02*
X17935000Y-11915000D01*
X18085000Y-11835000D02*
X18115000Y-11865000D01*
X18115000Y-11835000D02*
X18085000Y-11865000D01*
X18335000Y-11685000D02*
X18365000Y-11715000D01*
X18365000Y-11685000D02*
X18335000Y-11715000D01*
X18352500Y-6402500D02*
X18382500Y-6432500D01*
X18382500Y-6402500D02*
X18352500Y-6432500D01*
X18352500Y-8152500D02*
X18382500Y-8182500D01*
X18382500Y-8152500D02*
X18352500Y-8182500D01*
X18375000Y-9985000D02*
X18405000Y-10015000D01*
X18405000Y-9985000D02*
X18375000Y-10015000D01*
X18405000Y-6350000D02*
X18435000Y-6380000D01*
X18435000Y-6350000D02*
X18405000Y-6380000D01*
X18405000Y-8100000D02*
X18435000Y-8130000D01*
X18435000Y-8100000D02*
X18405000Y-8130000D01*
X18465000Y-6477500D02*
X18495000Y-6507500D01*
X18495000Y-6477500D02*
X18465000Y-6507500D01*
X18465000Y-8227500D02*
X18495000Y-8257500D01*
X18495000Y-8227500D02*
X18465000Y-8257500D01*
X18485000Y-6595000D02*
X18515000Y-6625000D01*
X18515000Y-6595000D02*
X18485000Y-6625000D01*
X18485000Y-8345000D02*
X18515000Y-8375000D01*
X18515000Y-8345000D02*
X18485000Y-8375000D01*
X18492500Y-9965000D02*
X18522500Y-9995000D01*
X18522500Y-9965000D02*
X18492500Y-9995000D01*
X18567500Y-9852500D02*
X18597500Y-9882500D01*
X18597500Y-9852500D02*
X18567500Y-9882500D01*
X18587500Y-6332500D02*
X18617500Y-6362500D01*
X18617500Y-6332500D02*
X18587500Y-6362500D01*
X18587500Y-8082500D02*
X18617500Y-8112500D01*
X18617500Y-8082500D02*
X18587500Y-8112500D01*
X18620000Y-9905000D02*
X18650000Y-9935000D01*
X18650000Y-9905000D02*
X18620000Y-9935000D01*
X18635000Y-12185000D02*
X18665000Y-12215000D01*
X18665000Y-12185000D02*
X18635000Y-12215000D01*
X18637500Y-10087500D02*
X18667500Y-10117500D01*
X18667500Y-10087500D02*
X18637500Y-10117500D01*
X18685000Y-12135000D02*
X18715000Y-12165000D01*
X18715000Y-12135000D02*
X18685000Y-12165000D01*
X18735000Y-12085000D02*
X18765000Y-12115000D01*
X18765000Y-12085000D02*
X18735000Y-12115000D01*
X20185000Y-6635000D02*
X20215000Y-6665000D01*
X20215000Y-6635000D02*
X20185000Y-6665000D01*
X20185000Y-8385000D02*
X20215000Y-8415000D01*
X20215000Y-8385000D02*
X20185000Y-8415000D01*
X20485000Y-6385000D02*
X20515000Y-6415000D01*
X20515000Y-6385000D02*
X20485000Y-6415000D01*
X20535000Y-8135000D02*
X20565000Y-8165000D01*
X20565000Y-8135000D02*
X20535000Y-8165000D01*
X20585000Y-6235000D02*
X20615000Y-6265000D01*
X20615000Y-6235000D02*
X20585000Y-6265000D01*
X20585000Y-7985000D02*
X20615000Y-8015000D01*
X20615000Y-7985000D02*
X20585000Y-8015000D01*
X20635000Y-6285000D02*
X20665000Y-6315000D01*
X20665000Y-6285000D02*
X20635000Y-6315000D01*
X20635000Y-8035000D02*
X20665000Y-8065000D01*
X20665000Y-8035000D02*
X20635000Y-8065000D01*
X20685000Y-6335000D02*
X20715000Y-6365000D01*
X20715000Y-6335000D02*
X20685000Y-6365000D01*
X20685000Y-8085000D02*
X20715000Y-8115000D01*
X20715000Y-8085000D02*
X20685000Y-8115000D01*
D13*
X13780000Y-7830000D02*
G75*
G03*
X13780000Y-7830000I-35000J0D01*
G01*
X13780000Y-7957000D02*
G75*
G03*
X13780000Y-7957000I-35000J0D01*
G01*
X13780000Y-8084000D02*
G75*
G03*
X13780000Y-8084000I-35000J0D01*
G01*
X13780000Y-8211000D02*
G75*
G03*
X13780000Y-8211000I-35000J0D01*
G01*
X13780000Y-8338000D02*
G75*
G03*
X13780000Y-8338000I-35000J0D01*
G01*
X13780000Y-8465000D02*
G75*
G03*
X13780000Y-8465000I-35000J0D01*
G01*
X13780000Y-8592000D02*
G75*
G03*
X13780000Y-8592000I-35000J0D01*
G01*
X13780000Y-8719000D02*
G75*
G03*
X13780000Y-8719000I-35000J0D01*
G01*
X13780000Y-9580000D02*
G75*
G03*
X13780000Y-9580000I-35000J0D01*
G01*
X13780000Y-9707000D02*
G75*
G03*
X13780000Y-9707000I-35000J0D01*
G01*
X13780000Y-9834000D02*
G75*
G03*
X13780000Y-9834000I-35000J0D01*
G01*
X13780000Y-9961000D02*
G75*
G03*
X13780000Y-9961000I-35000J0D01*
G01*
X13780000Y-10088000D02*
G75*
G03*
X13780000Y-10088000I-35000J0D01*
G01*
X13780000Y-10215000D02*
G75*
G03*
X13780000Y-10215000I-35000J0D01*
G01*
X13780000Y-10342000D02*
G75*
G03*
X13780000Y-10342000I-35000J0D01*
G01*
X13780000Y-10469000D02*
G75*
G03*
X13780000Y-10469000I-35000J0D01*
G01*
X14565000Y-11255000D02*
G75*
G03*
X14565000Y-11255000I-35000J0D01*
G01*
X14566000Y-5245000D02*
G75*
G03*
X14566000Y-5245000I-35000J0D01*
G01*
X14692000Y-11255000D02*
G75*
G03*
X14692000Y-11255000I-35000J0D01*
G01*
X14693000Y-5245000D02*
G75*
G03*
X14693000Y-5245000I-35000J0D01*
G01*
X14819000Y-11255000D02*
G75*
G03*
X14819000Y-11255000I-35000J0D01*
G01*
X14820000Y-5245000D02*
G75*
G03*
X14820000Y-5245000I-35000J0D01*
G01*
X14946000Y-11255000D02*
G75*
G03*
X14946000Y-11255000I-35000J0D01*
G01*
X14947000Y-5245000D02*
G75*
G03*
X14947000Y-5245000I-35000J0D01*
G01*
X15073000Y-11255000D02*
G75*
G03*
X15073000Y-11255000I-35000J0D01*
G01*
X15074000Y-5245000D02*
G75*
G03*
X15074000Y-5245000I-35000J0D01*
G01*
X15200000Y-11255000D02*
G75*
G03*
X15200000Y-11255000I-35000J0D01*
G01*
X15201000Y-5245000D02*
G75*
G03*
X15201000Y-5245000I-35000J0D01*
G01*
X15327000Y-11255000D02*
G75*
G03*
X15327000Y-11255000I-35000J0D01*
G01*
X15328000Y-5245000D02*
G75*
G03*
X15328000Y-5245000I-35000J0D01*
G01*
X15454000Y-11255000D02*
G75*
G03*
X15454000Y-11255000I-35000J0D01*
G01*
X15455000Y-5245000D02*
G75*
G03*
X15455000Y-5245000I-35000J0D01*
G01*
X16316000Y-5245000D02*
G75*
G03*
X16316000Y-5245000I-35000J0D01*
G01*
X16365000Y-11255000D02*
G75*
G03*
X16365000Y-11255000I-35000J0D01*
G01*
X16443000Y-5245000D02*
G75*
G03*
X16443000Y-5245000I-35000J0D01*
G01*
X16492000Y-11255000D02*
G75*
G03*
X16492000Y-11255000I-35000J0D01*
G01*
X16570000Y-5245000D02*
G75*
G03*
X16570000Y-5245000I-35000J0D01*
G01*
X16619000Y-11255000D02*
G75*
G03*
X16619000Y-11255000I-35000J0D01*
G01*
X16697000Y-5245000D02*
G75*
G03*
X16697000Y-5245000I-35000J0D01*
G01*
X16746000Y-11255000D02*
G75*
G03*
X16746000Y-11255000I-35000J0D01*
G01*
X16824000Y-5245000D02*
G75*
G03*
X16824000Y-5245000I-35000J0D01*
G01*
X16873000Y-11255000D02*
G75*
G03*
X16873000Y-11255000I-35000J0D01*
G01*
X16951000Y-5245000D02*
G75*
G03*
X16951000Y-5245000I-35000J0D01*
G01*
X17000000Y-11255000D02*
G75*
G03*
X17000000Y-11255000I-35000J0D01*
G01*
X17078000Y-5245000D02*
G75*
G03*
X17078000Y-5245000I-35000J0D01*
G01*
X17127000Y-11255000D02*
G75*
G03*
X17127000Y-11255000I-35000J0D01*
G01*
X17205000Y-5245000D02*
G75*
G03*
X17205000Y-5245000I-35000J0D01*
G01*
X17254000Y-11255000D02*
G75*
G03*
X17254000Y-11255000I-35000J0D01*
G01*
X18115000Y-11255000D02*
G75*
G03*
X18115000Y-11255000I-35000J0D01*
G01*
X18242000Y-11255000D02*
G75*
G03*
X18242000Y-11255000I-35000J0D01*
G01*
X18369000Y-11255000D02*
G75*
G03*
X18369000Y-11255000I-35000J0D01*
G01*
X18496000Y-11255000D02*
G75*
G03*
X18496000Y-11255000I-35000J0D01*
G01*
X18623000Y-11255000D02*
G75*
G03*
X18623000Y-11255000I-35000J0D01*
G01*
X18750000Y-11255000D02*
G75*
G03*
X18750000Y-11255000I-35000J0D01*
G01*
X18877000Y-11255000D02*
G75*
G03*
X18877000Y-11255000I-35000J0D01*
G01*
X19004000Y-11255000D02*
G75*
G03*
X19004000Y-11255000I-35000J0D01*
G01*
X19790000Y-6031000D02*
G75*
G03*
X19790000Y-6031000I-35000J0D01*
G01*
X19790000Y-6158000D02*
G75*
G03*
X19790000Y-6158000I-35000J0D01*
G01*
X19790000Y-6285000D02*
G75*
G03*
X19790000Y-6285000I-35000J0D01*
G01*
X19790000Y-6412000D02*
G75*
G03*
X19790000Y-6412000I-35000J0D01*
G01*
X19790000Y-6539000D02*
G75*
G03*
X19790000Y-6539000I-35000J0D01*
G01*
X19790000Y-6666000D02*
G75*
G03*
X19790000Y-6666000I-35000J0D01*
G01*
X19790000Y-6793000D02*
G75*
G03*
X19790000Y-6793000I-35000J0D01*
G01*
X19790000Y-6920000D02*
G75*
G03*
X19790000Y-6920000I-35000J0D01*
G01*
X19790000Y-7781000D02*
G75*
G03*
X19790000Y-7781000I-35000J0D01*
G01*
X19790000Y-7908000D02*
G75*
G03*
X19790000Y-7908000I-35000J0D01*
G01*
X19790000Y-8035000D02*
G75*
G03*
X19790000Y-8035000I-35000J0D01*
G01*
X19790000Y-8162000D02*
G75*
G03*
X19790000Y-8162000I-35000J0D01*
G01*
X19790000Y-8289000D02*
G75*
G03*
X19790000Y-8289000I-35000J0D01*
G01*
X19790000Y-8416000D02*
G75*
G03*
X19790000Y-8416000I-35000J0D01*
G01*
X19790000Y-8543000D02*
G75*
G03*
X19790000Y-8543000I-35000J0D01*
G01*
X19790000Y-8670000D02*
G75*
G03*
X19790000Y-8670000I-35000J0D01*
G01*
D14*
X15734000Y-12300000D02*
X15734000Y-12400000D01*
X15684000Y-12350000D02*
X15784000Y-12350000D01*
X15734000Y-12554000D02*
X15734000Y-12654000D01*
X15684000Y-12604000D02*
X15784000Y-12604000D01*
X15988000Y-12300000D02*
X15988000Y-12400000D01*
X15938000Y-12350000D02*
X16038000Y-12350000D01*
X15988000Y-12554000D02*
X15988000Y-12654000D01*
X15938000Y-12604000D02*
X16038000Y-12604000D01*
X16242000Y-12300000D02*
X16242000Y-12400000D01*
X16192000Y-12350000D02*
X16292000Y-12350000D01*
X16242000Y-12554000D02*
X16242000Y-12654000D01*
X16192000Y-12604000D02*
X16292000Y-12604000D01*
X16496000Y-12300000D02*
X16496000Y-12400000D01*
X16446000Y-12350000D02*
X16546000Y-12350000D01*
X16750000Y-12300000D02*
X16750000Y-12400000D01*
X16700000Y-12350000D02*
X16800000Y-12350000D01*
X17004000Y-12300000D02*
X17004000Y-12400000D01*
X16954000Y-12350000D02*
X17054000Y-12350000D01*
X17258000Y-12300000D02*
X17258000Y-12400000D01*
X17208000Y-12350000D02*
X17308000Y-12350000D01*
X17512000Y-12300000D02*
X17512000Y-12400000D01*
X17462000Y-12350000D02*
X17562000Y-12350000D01*
X17512000Y-12554000D02*
X17512000Y-12654000D01*
X17462000Y-12604000D02*
X17562000Y-12604000D01*
X17766000Y-12300000D02*
X17766000Y-12400000D01*
X17716000Y-12350000D02*
X17816000Y-12350000D01*
X17766000Y-12554000D02*
X17766000Y-12654000D01*
X17716000Y-12604000D02*
X17816000Y-12604000D01*
D11*
X12747119Y-13263024D02*
X12747119Y-13063024D01*
X12747119Y-13063024D02*
X12794738Y-13063024D01*
X12794738Y-13063024D02*
X12823309Y-13072548D01*
X12823309Y-13072548D02*
X12842357Y-13091595D01*
X12842357Y-13091595D02*
X12851881Y-13110643D01*
X12851881Y-13110643D02*
X12861405Y-13148738D01*
X12861405Y-13148738D02*
X12861405Y-13177309D01*
X12861405Y-13177309D02*
X12851881Y-13215405D01*
X12851881Y-13215405D02*
X12842357Y-13234452D01*
X12842357Y-13234452D02*
X12823309Y-13253500D01*
X12823309Y-13253500D02*
X12794738Y-13263024D01*
X12794738Y-13263024D02*
X12747119Y-13263024D01*
X12947119Y-13263024D02*
X12947119Y-13129690D01*
X12947119Y-13167786D02*
X12956643Y-13148738D01*
X12956643Y-13148738D02*
X12966167Y-13139214D01*
X12966167Y-13139214D02*
X12985214Y-13129690D01*
X12985214Y-13129690D02*
X13004262Y-13129690D01*
X13070928Y-13263024D02*
X13070928Y-13129690D01*
X13070928Y-13063024D02*
X13061405Y-13072548D01*
X13061405Y-13072548D02*
X13070928Y-13082071D01*
X13070928Y-13082071D02*
X13080452Y-13072548D01*
X13080452Y-13072548D02*
X13070928Y-13063024D01*
X13070928Y-13063024D02*
X13070928Y-13082071D01*
X13194738Y-13263024D02*
X13175690Y-13253500D01*
X13175690Y-13253500D02*
X13166167Y-13234452D01*
X13166167Y-13234452D02*
X13166167Y-13063024D01*
X13299500Y-13263024D02*
X13280452Y-13253500D01*
X13280452Y-13253500D02*
X13270928Y-13234452D01*
X13270928Y-13234452D02*
X13270928Y-13063024D01*
X13528071Y-13263024D02*
X13528071Y-13063024D01*
X13528071Y-13063024D02*
X13594738Y-13205881D01*
X13594738Y-13205881D02*
X13661405Y-13063024D01*
X13661405Y-13063024D02*
X13661405Y-13263024D01*
X13842357Y-13263024D02*
X13842357Y-13158262D01*
X13842357Y-13158262D02*
X13832833Y-13139214D01*
X13832833Y-13139214D02*
X13813786Y-13129690D01*
X13813786Y-13129690D02*
X13775690Y-13129690D01*
X13775690Y-13129690D02*
X13756643Y-13139214D01*
X13842357Y-13253500D02*
X13823309Y-13263024D01*
X13823309Y-13263024D02*
X13775690Y-13263024D01*
X13775690Y-13263024D02*
X13756643Y-13253500D01*
X13756643Y-13253500D02*
X13747119Y-13234452D01*
X13747119Y-13234452D02*
X13747119Y-13215405D01*
X13747119Y-13215405D02*
X13756643Y-13196357D01*
X13756643Y-13196357D02*
X13775690Y-13186833D01*
X13775690Y-13186833D02*
X13823309Y-13186833D01*
X13823309Y-13186833D02*
X13842357Y-13177309D01*
X13937595Y-13129690D02*
X13937595Y-13329690D01*
X13937595Y-13139214D02*
X13956643Y-13129690D01*
X13956643Y-13129690D02*
X13994738Y-13129690D01*
X13994738Y-13129690D02*
X14013786Y-13139214D01*
X14013786Y-13139214D02*
X14023309Y-13148738D01*
X14023309Y-13148738D02*
X14032833Y-13167786D01*
X14032833Y-13167786D02*
X14032833Y-13224928D01*
X14032833Y-13224928D02*
X14023309Y-13243976D01*
X14023309Y-13243976D02*
X14013786Y-13253500D01*
X14013786Y-13253500D02*
X13994738Y-13263024D01*
X13994738Y-13263024D02*
X13956643Y-13263024D01*
X13956643Y-13263024D02*
X13937595Y-13253500D01*
X14118548Y-13243976D02*
X14128071Y-13253500D01*
X14128071Y-13253500D02*
X14118548Y-13263024D01*
X14118548Y-13263024D02*
X14109024Y-13253500D01*
X14109024Y-13253500D02*
X14118548Y-13243976D01*
X14118548Y-13243976D02*
X14118548Y-13263024D01*
X14118548Y-13139214D02*
X14128071Y-13148738D01*
X14128071Y-13148738D02*
X14118548Y-13158262D01*
X14118548Y-13158262D02*
X14109024Y-13148738D01*
X14109024Y-13148738D02*
X14118548Y-13139214D01*
X14118548Y-13139214D02*
X14118548Y-13158262D01*
D12*
X12469500Y-13575500D02*
X12499500Y-13605500D01*
X12499500Y-13575500D02*
X12469500Y-13605500D01*
D11*
X12785214Y-13483024D02*
X12804262Y-13483024D01*
X12804262Y-13483024D02*
X12823309Y-13492548D01*
X12823309Y-13492548D02*
X12832833Y-13502071D01*
X12832833Y-13502071D02*
X12842357Y-13521119D01*
X12842357Y-13521119D02*
X12851881Y-13559214D01*
X12851881Y-13559214D02*
X12851881Y-13606833D01*
X12851881Y-13606833D02*
X12842357Y-13644928D01*
X12842357Y-13644928D02*
X12832833Y-13663976D01*
X12832833Y-13663976D02*
X12823309Y-13673500D01*
X12823309Y-13673500D02*
X12804262Y-13683024D01*
X12804262Y-13683024D02*
X12785214Y-13683024D01*
X12785214Y-13683024D02*
X12766167Y-13673500D01*
X12766167Y-13673500D02*
X12756643Y-13663976D01*
X12756643Y-13663976D02*
X12747119Y-13644928D01*
X12747119Y-13644928D02*
X12737595Y-13606833D01*
X12737595Y-13606833D02*
X12737595Y-13559214D01*
X12737595Y-13559214D02*
X12747119Y-13521119D01*
X12747119Y-13521119D02*
X12756643Y-13502071D01*
X12756643Y-13502071D02*
X12766167Y-13492548D01*
X12766167Y-13492548D02*
X12785214Y-13483024D01*
X12937595Y-13663976D02*
X12947119Y-13673500D01*
X12947119Y-13673500D02*
X12937595Y-13683024D01*
X12937595Y-13683024D02*
X12928071Y-13673500D01*
X12928071Y-13673500D02*
X12937595Y-13663976D01*
X12937595Y-13663976D02*
X12937595Y-13683024D01*
X13013786Y-13483024D02*
X13137595Y-13483024D01*
X13137595Y-13483024D02*
X13070928Y-13559214D01*
X13070928Y-13559214D02*
X13099500Y-13559214D01*
X13099500Y-13559214D02*
X13118548Y-13568738D01*
X13118548Y-13568738D02*
X13128071Y-13578262D01*
X13128071Y-13578262D02*
X13137595Y-13597309D01*
X13137595Y-13597309D02*
X13137595Y-13644928D01*
X13137595Y-13644928D02*
X13128071Y-13663976D01*
X13128071Y-13663976D02*
X13118548Y-13673500D01*
X13118548Y-13673500D02*
X13099500Y-13683024D01*
X13099500Y-13683024D02*
X13042357Y-13683024D01*
X13042357Y-13683024D02*
X13023309Y-13673500D01*
X13023309Y-13673500D02*
X13013786Y-13663976D01*
X13261405Y-13483024D02*
X13280452Y-13483024D01*
X13280452Y-13483024D02*
X13299500Y-13492548D01*
X13299500Y-13492548D02*
X13309024Y-13502071D01*
X13309024Y-13502071D02*
X13318548Y-13521119D01*
X13318548Y-13521119D02*
X13328071Y-13559214D01*
X13328071Y-13559214D02*
X13328071Y-13606833D01*
X13328071Y-13606833D02*
X13318548Y-13644928D01*
X13318548Y-13644928D02*
X13309024Y-13663976D01*
X13309024Y-13663976D02*
X13299500Y-13673500D01*
X13299500Y-13673500D02*
X13280452Y-13683024D01*
X13280452Y-13683024D02*
X13261405Y-13683024D01*
X13261405Y-13683024D02*
X13242357Y-13673500D01*
X13242357Y-13673500D02*
X13232833Y-13663976D01*
X13232833Y-13663976D02*
X13223309Y-13644928D01*
X13223309Y-13644928D02*
X13213786Y-13606833D01*
X13213786Y-13606833D02*
X13213786Y-13559214D01*
X13213786Y-13559214D02*
X13223309Y-13521119D01*
X13223309Y-13521119D02*
X13232833Y-13502071D01*
X13232833Y-13502071D02*
X13242357Y-13492548D01*
X13242357Y-13492548D02*
X13261405Y-13483024D01*
X13451881Y-13483024D02*
X13470929Y-13483024D01*
X13470929Y-13483024D02*
X13489976Y-13492548D01*
X13489976Y-13492548D02*
X13499500Y-13502071D01*
X13499500Y-13502071D02*
X13509024Y-13521119D01*
X13509024Y-13521119D02*
X13518548Y-13559214D01*
X13518548Y-13559214D02*
X13518548Y-13606833D01*
X13518548Y-13606833D02*
X13509024Y-13644928D01*
X13509024Y-13644928D02*
X13499500Y-13663976D01*
X13499500Y-13663976D02*
X13489976Y-13673500D01*
X13489976Y-13673500D02*
X13470929Y-13683024D01*
X13470929Y-13683024D02*
X13451881Y-13683024D01*
X13451881Y-13683024D02*
X13432833Y-13673500D01*
X13432833Y-13673500D02*
X13423309Y-13663976D01*
X13423309Y-13663976D02*
X13413786Y-13644928D01*
X13413786Y-13644928D02*
X13404262Y-13606833D01*
X13404262Y-13606833D02*
X13404262Y-13559214D01*
X13404262Y-13559214D02*
X13413786Y-13521119D01*
X13413786Y-13521119D02*
X13423309Y-13502071D01*
X13423309Y-13502071D02*
X13432833Y-13492548D01*
X13432833Y-13492548D02*
X13451881Y-13483024D01*
X13604262Y-13683024D02*
X13604262Y-13549690D01*
X13604262Y-13568738D02*
X13613786Y-13559214D01*
X13613786Y-13559214D02*
X13632833Y-13549690D01*
X13632833Y-13549690D02*
X13661405Y-13549690D01*
X13661405Y-13549690D02*
X13680452Y-13559214D01*
X13680452Y-13559214D02*
X13689976Y-13578262D01*
X13689976Y-13578262D02*
X13689976Y-13683024D01*
X13689976Y-13578262D02*
X13699500Y-13559214D01*
X13699500Y-13559214D02*
X13718548Y-13549690D01*
X13718548Y-13549690D02*
X13747119Y-13549690D01*
X13747119Y-13549690D02*
X13766167Y-13559214D01*
X13766167Y-13559214D02*
X13775690Y-13578262D01*
X13775690Y-13578262D02*
X13775690Y-13683024D01*
X13870929Y-13683024D02*
X13870929Y-13549690D01*
X13870929Y-13568738D02*
X13880452Y-13559214D01*
X13880452Y-13559214D02*
X13899500Y-13549690D01*
X13899500Y-13549690D02*
X13928071Y-13549690D01*
X13928071Y-13549690D02*
X13947119Y-13559214D01*
X13947119Y-13559214D02*
X13956643Y-13578262D01*
X13956643Y-13578262D02*
X13956643Y-13683024D01*
X13956643Y-13578262D02*
X13966167Y-13559214D01*
X13966167Y-13559214D02*
X13985214Y-13549690D01*
X13985214Y-13549690D02*
X14013786Y-13549690D01*
X14013786Y-13549690D02*
X14032833Y-13559214D01*
X14032833Y-13559214D02*
X14042357Y-13578262D01*
X14042357Y-13578262D02*
X14042357Y-13683024D01*
X14432833Y-13473500D02*
X14261405Y-13730643D01*
X14689976Y-13483024D02*
X14709024Y-13483024D01*
X14709024Y-13483024D02*
X14728072Y-13492548D01*
X14728072Y-13492548D02*
X14737595Y-13502071D01*
X14737595Y-13502071D02*
X14747119Y-13521119D01*
X14747119Y-13521119D02*
X14756643Y-13559214D01*
X14756643Y-13559214D02*
X14756643Y-13606833D01*
X14756643Y-13606833D02*
X14747119Y-13644928D01*
X14747119Y-13644928D02*
X14737595Y-13663976D01*
X14737595Y-13663976D02*
X14728072Y-13673500D01*
X14728072Y-13673500D02*
X14709024Y-13683024D01*
X14709024Y-13683024D02*
X14689976Y-13683024D01*
X14689976Y-13683024D02*
X14670929Y-13673500D01*
X14670929Y-13673500D02*
X14661405Y-13663976D01*
X14661405Y-13663976D02*
X14651881Y-13644928D01*
X14651881Y-13644928D02*
X14642357Y-13606833D01*
X14642357Y-13606833D02*
X14642357Y-13559214D01*
X14642357Y-13559214D02*
X14651881Y-13521119D01*
X14651881Y-13521119D02*
X14661405Y-13502071D01*
X14661405Y-13502071D02*
X14670929Y-13492548D01*
X14670929Y-13492548D02*
X14689976Y-13483024D01*
X14842357Y-13663976D02*
X14851881Y-13673500D01*
X14851881Y-13673500D02*
X14842357Y-13683024D01*
X14842357Y-13683024D02*
X14832833Y-13673500D01*
X14832833Y-13673500D02*
X14842357Y-13663976D01*
X14842357Y-13663976D02*
X14842357Y-13683024D01*
X14975691Y-13483024D02*
X14994738Y-13483024D01*
X14994738Y-13483024D02*
X15013786Y-13492548D01*
X15013786Y-13492548D02*
X15023310Y-13502071D01*
X15023310Y-13502071D02*
X15032833Y-13521119D01*
X15032833Y-13521119D02*
X15042357Y-13559214D01*
X15042357Y-13559214D02*
X15042357Y-13606833D01*
X15042357Y-13606833D02*
X15032833Y-13644928D01*
X15032833Y-13644928D02*
X15023310Y-13663976D01*
X15023310Y-13663976D02*
X15013786Y-13673500D01*
X15013786Y-13673500D02*
X14994738Y-13683024D01*
X14994738Y-13683024D02*
X14975691Y-13683024D01*
X14975691Y-13683024D02*
X14956643Y-13673500D01*
X14956643Y-13673500D02*
X14947119Y-13663976D01*
X14947119Y-13663976D02*
X14937595Y-13644928D01*
X14937595Y-13644928D02*
X14928072Y-13606833D01*
X14928072Y-13606833D02*
X14928072Y-13559214D01*
X14928072Y-13559214D02*
X14937595Y-13521119D01*
X14937595Y-13521119D02*
X14947119Y-13502071D01*
X14947119Y-13502071D02*
X14956643Y-13492548D01*
X14956643Y-13492548D02*
X14975691Y-13483024D01*
X15232833Y-13683024D02*
X15118548Y-13683024D01*
X15175691Y-13683024D02*
X15175691Y-13483024D01*
X15175691Y-13483024D02*
X15156643Y-13511595D01*
X15156643Y-13511595D02*
X15137595Y-13530643D01*
X15137595Y-13530643D02*
X15118548Y-13540167D01*
X15423310Y-13683024D02*
X15309024Y-13683024D01*
X15366167Y-13683024D02*
X15366167Y-13483024D01*
X15366167Y-13483024D02*
X15347119Y-13511595D01*
X15347119Y-13511595D02*
X15328072Y-13530643D01*
X15328072Y-13530643D02*
X15309024Y-13540167D01*
X15537595Y-13568738D02*
X15518548Y-13559214D01*
X15518548Y-13559214D02*
X15509024Y-13549690D01*
X15509024Y-13549690D02*
X15499500Y-13530643D01*
X15499500Y-13530643D02*
X15499500Y-13521119D01*
X15499500Y-13521119D02*
X15509024Y-13502071D01*
X15509024Y-13502071D02*
X15518548Y-13492548D01*
X15518548Y-13492548D02*
X15537595Y-13483024D01*
X15537595Y-13483024D02*
X15575691Y-13483024D01*
X15575691Y-13483024D02*
X15594738Y-13492548D01*
X15594738Y-13492548D02*
X15604262Y-13502071D01*
X15604262Y-13502071D02*
X15613786Y-13521119D01*
X15613786Y-13521119D02*
X15613786Y-13530643D01*
X15613786Y-13530643D02*
X15604262Y-13549690D01*
X15604262Y-13549690D02*
X15594738Y-13559214D01*
X15594738Y-13559214D02*
X15575691Y-13568738D01*
X15575691Y-13568738D02*
X15537595Y-13568738D01*
X15537595Y-13568738D02*
X15518548Y-13578262D01*
X15518548Y-13578262D02*
X15509024Y-13587786D01*
X15509024Y-13587786D02*
X15499500Y-13606833D01*
X15499500Y-13606833D02*
X15499500Y-13644928D01*
X15499500Y-13644928D02*
X15509024Y-13663976D01*
X15509024Y-13663976D02*
X15518548Y-13673500D01*
X15518548Y-13673500D02*
X15537595Y-13683024D01*
X15537595Y-13683024D02*
X15575691Y-13683024D01*
X15575691Y-13683024D02*
X15594738Y-13673500D01*
X15594738Y-13673500D02*
X15604262Y-13663976D01*
X15604262Y-13663976D02*
X15613786Y-13644928D01*
X15613786Y-13644928D02*
X15613786Y-13606833D01*
X15613786Y-13606833D02*
X15604262Y-13587786D01*
X15604262Y-13587786D02*
X15594738Y-13578262D01*
X15594738Y-13578262D02*
X15575691Y-13568738D01*
X15689976Y-13483024D02*
X15689976Y-13521119D01*
X15766167Y-13483024D02*
X15766167Y-13521119D01*
X16061405Y-13759214D02*
X16051881Y-13749690D01*
X16051881Y-13749690D02*
X16032834Y-13721119D01*
X16032834Y-13721119D02*
X16023310Y-13702071D01*
X16023310Y-13702071D02*
X16013786Y-13673500D01*
X16013786Y-13673500D02*
X16004262Y-13625881D01*
X16004262Y-13625881D02*
X16004262Y-13587786D01*
X16004262Y-13587786D02*
X16013786Y-13540167D01*
X16013786Y-13540167D02*
X16023310Y-13511595D01*
X16023310Y-13511595D02*
X16032834Y-13492548D01*
X16032834Y-13492548D02*
X16051881Y-13463976D01*
X16051881Y-13463976D02*
X16061405Y-13454452D01*
X16147119Y-13683024D02*
X16185214Y-13683024D01*
X16185214Y-13683024D02*
X16204262Y-13673500D01*
X16204262Y-13673500D02*
X16213786Y-13663976D01*
X16213786Y-13663976D02*
X16232834Y-13635405D01*
X16232834Y-13635405D02*
X16242357Y-13597309D01*
X16242357Y-13597309D02*
X16242357Y-13521119D01*
X16242357Y-13521119D02*
X16232834Y-13502071D01*
X16232834Y-13502071D02*
X16223310Y-13492548D01*
X16223310Y-13492548D02*
X16204262Y-13483024D01*
X16204262Y-13483024D02*
X16166167Y-13483024D01*
X16166167Y-13483024D02*
X16147119Y-13492548D01*
X16147119Y-13492548D02*
X16137595Y-13502071D01*
X16137595Y-13502071D02*
X16128072Y-13521119D01*
X16128072Y-13521119D02*
X16128072Y-13568738D01*
X16128072Y-13568738D02*
X16137595Y-13587786D01*
X16137595Y-13587786D02*
X16147119Y-13597309D01*
X16147119Y-13597309D02*
X16166167Y-13606833D01*
X16166167Y-13606833D02*
X16204262Y-13606833D01*
X16204262Y-13606833D02*
X16223310Y-13597309D01*
X16223310Y-13597309D02*
X16232834Y-13587786D01*
X16232834Y-13587786D02*
X16242357Y-13568738D01*
X16309024Y-13483024D02*
X16442357Y-13483024D01*
X16442357Y-13483024D02*
X16356643Y-13683024D01*
X16670929Y-13683024D02*
X16670929Y-13483024D01*
X16756643Y-13683024D02*
X16756643Y-13578262D01*
X16756643Y-13578262D02*
X16747119Y-13559214D01*
X16747119Y-13559214D02*
X16728072Y-13549690D01*
X16728072Y-13549690D02*
X16699500Y-13549690D01*
X16699500Y-13549690D02*
X16680453Y-13559214D01*
X16680453Y-13559214D02*
X16670929Y-13568738D01*
X16880453Y-13683024D02*
X16861405Y-13673500D01*
X16861405Y-13673500D02*
X16851881Y-13663976D01*
X16851881Y-13663976D02*
X16842358Y-13644928D01*
X16842358Y-13644928D02*
X16842358Y-13587786D01*
X16842358Y-13587786D02*
X16851881Y-13568738D01*
X16851881Y-13568738D02*
X16861405Y-13559214D01*
X16861405Y-13559214D02*
X16880453Y-13549690D01*
X16880453Y-13549690D02*
X16909024Y-13549690D01*
X16909024Y-13549690D02*
X16928072Y-13559214D01*
X16928072Y-13559214D02*
X16937596Y-13568738D01*
X16937596Y-13568738D02*
X16947119Y-13587786D01*
X16947119Y-13587786D02*
X16947119Y-13644928D01*
X16947119Y-13644928D02*
X16937596Y-13663976D01*
X16937596Y-13663976D02*
X16928072Y-13673500D01*
X16928072Y-13673500D02*
X16909024Y-13683024D01*
X16909024Y-13683024D02*
X16880453Y-13683024D01*
X17061405Y-13683024D02*
X17042358Y-13673500D01*
X17042358Y-13673500D02*
X17032834Y-13654452D01*
X17032834Y-13654452D02*
X17032834Y-13483024D01*
X17213786Y-13673500D02*
X17194739Y-13683024D01*
X17194739Y-13683024D02*
X17156643Y-13683024D01*
X17156643Y-13683024D02*
X17137596Y-13673500D01*
X17137596Y-13673500D02*
X17128072Y-13654452D01*
X17128072Y-13654452D02*
X17128072Y-13578262D01*
X17128072Y-13578262D02*
X17137596Y-13559214D01*
X17137596Y-13559214D02*
X17156643Y-13549690D01*
X17156643Y-13549690D02*
X17194739Y-13549690D01*
X17194739Y-13549690D02*
X17213786Y-13559214D01*
X17213786Y-13559214D02*
X17223310Y-13578262D01*
X17223310Y-13578262D02*
X17223310Y-13597309D01*
X17223310Y-13597309D02*
X17128072Y-13616357D01*
X17299500Y-13673500D02*
X17318548Y-13683024D01*
X17318548Y-13683024D02*
X17356643Y-13683024D01*
X17356643Y-13683024D02*
X17375691Y-13673500D01*
X17375691Y-13673500D02*
X17385215Y-13654452D01*
X17385215Y-13654452D02*
X17385215Y-13644928D01*
X17385215Y-13644928D02*
X17375691Y-13625881D01*
X17375691Y-13625881D02*
X17356643Y-13616357D01*
X17356643Y-13616357D02*
X17328072Y-13616357D01*
X17328072Y-13616357D02*
X17309024Y-13606833D01*
X17309024Y-13606833D02*
X17299500Y-13587786D01*
X17299500Y-13587786D02*
X17299500Y-13578262D01*
X17299500Y-13578262D02*
X17309024Y-13559214D01*
X17309024Y-13559214D02*
X17328072Y-13549690D01*
X17328072Y-13549690D02*
X17356643Y-13549690D01*
X17356643Y-13549690D02*
X17375691Y-13559214D01*
X17451881Y-13759214D02*
X17461405Y-13749690D01*
X17461405Y-13749690D02*
X17480453Y-13721119D01*
X17480453Y-13721119D02*
X17489977Y-13702071D01*
X17489977Y-13702071D02*
X17499500Y-13673500D01*
X17499500Y-13673500D02*
X17509024Y-13625881D01*
X17509024Y-13625881D02*
X17509024Y-13587786D01*
X17509024Y-13587786D02*
X17499500Y-13540167D01*
X17499500Y-13540167D02*
X17489977Y-13511595D01*
X17489977Y-13511595D02*
X17480453Y-13492548D01*
X17480453Y-13492548D02*
X17461405Y-13463976D01*
X17461405Y-13463976D02*
X17451881Y-13454452D01*
D13*
X12499500Y-13854500D02*
G75*
G03*
X12499500Y-13854500I-35000J0D01*
G01*
D11*
X12785214Y-13747024D02*
X12804262Y-13747024D01*
X12804262Y-13747024D02*
X12823309Y-13756548D01*
X12823309Y-13756548D02*
X12832833Y-13766071D01*
X12832833Y-13766071D02*
X12842357Y-13785119D01*
X12842357Y-13785119D02*
X12851881Y-13823214D01*
X12851881Y-13823214D02*
X12851881Y-13870833D01*
X12851881Y-13870833D02*
X12842357Y-13908928D01*
X12842357Y-13908928D02*
X12832833Y-13927976D01*
X12832833Y-13927976D02*
X12823309Y-13937500D01*
X12823309Y-13937500D02*
X12804262Y-13947024D01*
X12804262Y-13947024D02*
X12785214Y-13947024D01*
X12785214Y-13947024D02*
X12766167Y-13937500D01*
X12766167Y-13937500D02*
X12756643Y-13927976D01*
X12756643Y-13927976D02*
X12747119Y-13908928D01*
X12747119Y-13908928D02*
X12737595Y-13870833D01*
X12737595Y-13870833D02*
X12737595Y-13823214D01*
X12737595Y-13823214D02*
X12747119Y-13785119D01*
X12747119Y-13785119D02*
X12756643Y-13766071D01*
X12756643Y-13766071D02*
X12766167Y-13756548D01*
X12766167Y-13756548D02*
X12785214Y-13747024D01*
X12937595Y-13927976D02*
X12947119Y-13937500D01*
X12947119Y-13937500D02*
X12937595Y-13947024D01*
X12937595Y-13947024D02*
X12928071Y-13937500D01*
X12928071Y-13937500D02*
X12937595Y-13927976D01*
X12937595Y-13927976D02*
X12937595Y-13947024D01*
X13013786Y-13747024D02*
X13147119Y-13747024D01*
X13147119Y-13747024D02*
X13061405Y-13947024D01*
X13261405Y-13747024D02*
X13280452Y-13747024D01*
X13280452Y-13747024D02*
X13299500Y-13756548D01*
X13299500Y-13756548D02*
X13309024Y-13766071D01*
X13309024Y-13766071D02*
X13318548Y-13785119D01*
X13318548Y-13785119D02*
X13328071Y-13823214D01*
X13328071Y-13823214D02*
X13328071Y-13870833D01*
X13328071Y-13870833D02*
X13318548Y-13908928D01*
X13318548Y-13908928D02*
X13309024Y-13927976D01*
X13309024Y-13927976D02*
X13299500Y-13937500D01*
X13299500Y-13937500D02*
X13280452Y-13947024D01*
X13280452Y-13947024D02*
X13261405Y-13947024D01*
X13261405Y-13947024D02*
X13242357Y-13937500D01*
X13242357Y-13937500D02*
X13232833Y-13927976D01*
X13232833Y-13927976D02*
X13223309Y-13908928D01*
X13223309Y-13908928D02*
X13213786Y-13870833D01*
X13213786Y-13870833D02*
X13213786Y-13823214D01*
X13213786Y-13823214D02*
X13223309Y-13785119D01*
X13223309Y-13785119D02*
X13232833Y-13766071D01*
X13232833Y-13766071D02*
X13242357Y-13756548D01*
X13242357Y-13756548D02*
X13261405Y-13747024D01*
X13451881Y-13747024D02*
X13470929Y-13747024D01*
X13470929Y-13747024D02*
X13489976Y-13756548D01*
X13489976Y-13756548D02*
X13499500Y-13766071D01*
X13499500Y-13766071D02*
X13509024Y-13785119D01*
X13509024Y-13785119D02*
X13518548Y-13823214D01*
X13518548Y-13823214D02*
X13518548Y-13870833D01*
X13518548Y-13870833D02*
X13509024Y-13908928D01*
X13509024Y-13908928D02*
X13499500Y-13927976D01*
X13499500Y-13927976D02*
X13489976Y-13937500D01*
X13489976Y-13937500D02*
X13470929Y-13947024D01*
X13470929Y-13947024D02*
X13451881Y-13947024D01*
X13451881Y-13947024D02*
X13432833Y-13937500D01*
X13432833Y-13937500D02*
X13423309Y-13927976D01*
X13423309Y-13927976D02*
X13413786Y-13908928D01*
X13413786Y-13908928D02*
X13404262Y-13870833D01*
X13404262Y-13870833D02*
X13404262Y-13823214D01*
X13404262Y-13823214D02*
X13413786Y-13785119D01*
X13413786Y-13785119D02*
X13423309Y-13766071D01*
X13423309Y-13766071D02*
X13432833Y-13756548D01*
X13432833Y-13756548D02*
X13451881Y-13747024D01*
X13604262Y-13947024D02*
X13604262Y-13813690D01*
X13604262Y-13832738D02*
X13613786Y-13823214D01*
X13613786Y-13823214D02*
X13632833Y-13813690D01*
X13632833Y-13813690D02*
X13661405Y-13813690D01*
X13661405Y-13813690D02*
X13680452Y-13823214D01*
X13680452Y-13823214D02*
X13689976Y-13842262D01*
X13689976Y-13842262D02*
X13689976Y-13947024D01*
X13689976Y-13842262D02*
X13699500Y-13823214D01*
X13699500Y-13823214D02*
X13718548Y-13813690D01*
X13718548Y-13813690D02*
X13747119Y-13813690D01*
X13747119Y-13813690D02*
X13766167Y-13823214D01*
X13766167Y-13823214D02*
X13775690Y-13842262D01*
X13775690Y-13842262D02*
X13775690Y-13947024D01*
X13870929Y-13947024D02*
X13870929Y-13813690D01*
X13870929Y-13832738D02*
X13880452Y-13823214D01*
X13880452Y-13823214D02*
X13899500Y-13813690D01*
X13899500Y-13813690D02*
X13928071Y-13813690D01*
X13928071Y-13813690D02*
X13947119Y-13823214D01*
X13947119Y-13823214D02*
X13956643Y-13842262D01*
X13956643Y-13842262D02*
X13956643Y-13947024D01*
X13956643Y-13842262D02*
X13966167Y-13823214D01*
X13966167Y-13823214D02*
X13985214Y-13813690D01*
X13985214Y-13813690D02*
X14013786Y-13813690D01*
X14013786Y-13813690D02*
X14032833Y-13823214D01*
X14032833Y-13823214D02*
X14042357Y-13842262D01*
X14042357Y-13842262D02*
X14042357Y-13947024D01*
X14432833Y-13737500D02*
X14261405Y-13994643D01*
X14689976Y-13747024D02*
X14709024Y-13747024D01*
X14709024Y-13747024D02*
X14728072Y-13756548D01*
X14728072Y-13756548D02*
X14737595Y-13766071D01*
X14737595Y-13766071D02*
X14747119Y-13785119D01*
X14747119Y-13785119D02*
X14756643Y-13823214D01*
X14756643Y-13823214D02*
X14756643Y-13870833D01*
X14756643Y-13870833D02*
X14747119Y-13908928D01*
X14747119Y-13908928D02*
X14737595Y-13927976D01*
X14737595Y-13927976D02*
X14728072Y-13937500D01*
X14728072Y-13937500D02*
X14709024Y-13947024D01*
X14709024Y-13947024D02*
X14689976Y-13947024D01*
X14689976Y-13947024D02*
X14670929Y-13937500D01*
X14670929Y-13937500D02*
X14661405Y-13927976D01*
X14661405Y-13927976D02*
X14651881Y-13908928D01*
X14651881Y-13908928D02*
X14642357Y-13870833D01*
X14642357Y-13870833D02*
X14642357Y-13823214D01*
X14642357Y-13823214D02*
X14651881Y-13785119D01*
X14651881Y-13785119D02*
X14661405Y-13766071D01*
X14661405Y-13766071D02*
X14670929Y-13756548D01*
X14670929Y-13756548D02*
X14689976Y-13747024D01*
X14842357Y-13927976D02*
X14851881Y-13937500D01*
X14851881Y-13937500D02*
X14842357Y-13947024D01*
X14842357Y-13947024D02*
X14832833Y-13937500D01*
X14832833Y-13937500D02*
X14842357Y-13927976D01*
X14842357Y-13927976D02*
X14842357Y-13947024D01*
X14975691Y-13747024D02*
X14994738Y-13747024D01*
X14994738Y-13747024D02*
X15013786Y-13756548D01*
X15013786Y-13756548D02*
X15023310Y-13766071D01*
X15023310Y-13766071D02*
X15032833Y-13785119D01*
X15032833Y-13785119D02*
X15042357Y-13823214D01*
X15042357Y-13823214D02*
X15042357Y-13870833D01*
X15042357Y-13870833D02*
X15032833Y-13908928D01*
X15032833Y-13908928D02*
X15023310Y-13927976D01*
X15023310Y-13927976D02*
X15013786Y-13937500D01*
X15013786Y-13937500D02*
X14994738Y-13947024D01*
X14994738Y-13947024D02*
X14975691Y-13947024D01*
X14975691Y-13947024D02*
X14956643Y-13937500D01*
X14956643Y-13937500D02*
X14947119Y-13927976D01*
X14947119Y-13927976D02*
X14937595Y-13908928D01*
X14937595Y-13908928D02*
X14928072Y-13870833D01*
X14928072Y-13870833D02*
X14928072Y-13823214D01*
X14928072Y-13823214D02*
X14937595Y-13785119D01*
X14937595Y-13785119D02*
X14947119Y-13766071D01*
X14947119Y-13766071D02*
X14956643Y-13756548D01*
X14956643Y-13756548D02*
X14975691Y-13747024D01*
X15118548Y-13766071D02*
X15128072Y-13756548D01*
X15128072Y-13756548D02*
X15147119Y-13747024D01*
X15147119Y-13747024D02*
X15194738Y-13747024D01*
X15194738Y-13747024D02*
X15213786Y-13756548D01*
X15213786Y-13756548D02*
X15223310Y-13766071D01*
X15223310Y-13766071D02*
X15232833Y-13785119D01*
X15232833Y-13785119D02*
X15232833Y-13804167D01*
X15232833Y-13804167D02*
X15223310Y-13832738D01*
X15223310Y-13832738D02*
X15109024Y-13947024D01*
X15109024Y-13947024D02*
X15232833Y-13947024D01*
X15299500Y-13747024D02*
X15432833Y-13747024D01*
X15432833Y-13747024D02*
X15347119Y-13947024D01*
X15594738Y-13747024D02*
X15556643Y-13747024D01*
X15556643Y-13747024D02*
X15537595Y-13756548D01*
X15537595Y-13756548D02*
X15528072Y-13766071D01*
X15528072Y-13766071D02*
X15509024Y-13794643D01*
X15509024Y-13794643D02*
X15499500Y-13832738D01*
X15499500Y-13832738D02*
X15499500Y-13908928D01*
X15499500Y-13908928D02*
X15509024Y-13927976D01*
X15509024Y-13927976D02*
X15518548Y-13937500D01*
X15518548Y-13937500D02*
X15537595Y-13947024D01*
X15537595Y-13947024D02*
X15575691Y-13947024D01*
X15575691Y-13947024D02*
X15594738Y-13937500D01*
X15594738Y-13937500D02*
X15604262Y-13927976D01*
X15604262Y-13927976D02*
X15613786Y-13908928D01*
X15613786Y-13908928D02*
X15613786Y-13861309D01*
X15613786Y-13861309D02*
X15604262Y-13842262D01*
X15604262Y-13842262D02*
X15594738Y-13832738D01*
X15594738Y-13832738D02*
X15575691Y-13823214D01*
X15575691Y-13823214D02*
X15537595Y-13823214D01*
X15537595Y-13823214D02*
X15518548Y-13832738D01*
X15518548Y-13832738D02*
X15509024Y-13842262D01*
X15509024Y-13842262D02*
X15499500Y-13861309D01*
X15689976Y-13747024D02*
X15689976Y-13785119D01*
X15766167Y-13747024D02*
X15766167Y-13785119D01*
X16061405Y-14023214D02*
X16051881Y-14013690D01*
X16051881Y-14013690D02*
X16032834Y-13985119D01*
X16032834Y-13985119D02*
X16023310Y-13966071D01*
X16023310Y-13966071D02*
X16013786Y-13937500D01*
X16013786Y-13937500D02*
X16004262Y-13889881D01*
X16004262Y-13889881D02*
X16004262Y-13851786D01*
X16004262Y-13851786D02*
X16013786Y-13804167D01*
X16013786Y-13804167D02*
X16023310Y-13775595D01*
X16023310Y-13775595D02*
X16032834Y-13756548D01*
X16032834Y-13756548D02*
X16051881Y-13727976D01*
X16051881Y-13727976D02*
X16061405Y-13718452D01*
X16118548Y-13747024D02*
X16251881Y-13747024D01*
X16251881Y-13747024D02*
X16166167Y-13947024D01*
X16318548Y-13766071D02*
X16328072Y-13756548D01*
X16328072Y-13756548D02*
X16347119Y-13747024D01*
X16347119Y-13747024D02*
X16394738Y-13747024D01*
X16394738Y-13747024D02*
X16413786Y-13756548D01*
X16413786Y-13756548D02*
X16423310Y-13766071D01*
X16423310Y-13766071D02*
X16432834Y-13785119D01*
X16432834Y-13785119D02*
X16432834Y-13804167D01*
X16432834Y-13804167D02*
X16423310Y-13832738D01*
X16423310Y-13832738D02*
X16309024Y-13947024D01*
X16309024Y-13947024D02*
X16432834Y-13947024D01*
X16670929Y-13947024D02*
X16670929Y-13747024D01*
X16756643Y-13947024D02*
X16756643Y-13842262D01*
X16756643Y-13842262D02*
X16747119Y-13823214D01*
X16747119Y-13823214D02*
X16728072Y-13813690D01*
X16728072Y-13813690D02*
X16699500Y-13813690D01*
X16699500Y-13813690D02*
X16680453Y-13823214D01*
X16680453Y-13823214D02*
X16670929Y-13832738D01*
X16880453Y-13947024D02*
X16861405Y-13937500D01*
X16861405Y-13937500D02*
X16851881Y-13927976D01*
X16851881Y-13927976D02*
X16842358Y-13908928D01*
X16842358Y-13908928D02*
X16842358Y-13851786D01*
X16842358Y-13851786D02*
X16851881Y-13832738D01*
X16851881Y-13832738D02*
X16861405Y-13823214D01*
X16861405Y-13823214D02*
X16880453Y-13813690D01*
X16880453Y-13813690D02*
X16909024Y-13813690D01*
X16909024Y-13813690D02*
X16928072Y-13823214D01*
X16928072Y-13823214D02*
X16937596Y-13832738D01*
X16937596Y-13832738D02*
X16947119Y-13851786D01*
X16947119Y-13851786D02*
X16947119Y-13908928D01*
X16947119Y-13908928D02*
X16937596Y-13927976D01*
X16937596Y-13927976D02*
X16928072Y-13937500D01*
X16928072Y-13937500D02*
X16909024Y-13947024D01*
X16909024Y-13947024D02*
X16880453Y-13947024D01*
X17061405Y-13947024D02*
X17042358Y-13937500D01*
X17042358Y-13937500D02*
X17032834Y-13918452D01*
X17032834Y-13918452D02*
X17032834Y-13747024D01*
X17213786Y-13937500D02*
X17194739Y-13947024D01*
X17194739Y-13947024D02*
X17156643Y-13947024D01*
X17156643Y-13947024D02*
X17137596Y-13937500D01*
X17137596Y-13937500D02*
X17128072Y-13918452D01*
X17128072Y-13918452D02*
X17128072Y-13842262D01*
X17128072Y-13842262D02*
X17137596Y-13823214D01*
X17137596Y-13823214D02*
X17156643Y-13813690D01*
X17156643Y-13813690D02*
X17194739Y-13813690D01*
X17194739Y-13813690D02*
X17213786Y-13823214D01*
X17213786Y-13823214D02*
X17223310Y-13842262D01*
X17223310Y-13842262D02*
X17223310Y-13861309D01*
X17223310Y-13861309D02*
X17128072Y-13880357D01*
X17299500Y-13937500D02*
X17318548Y-13947024D01*
X17318548Y-13947024D02*
X17356643Y-13947024D01*
X17356643Y-13947024D02*
X17375691Y-13937500D01*
X17375691Y-13937500D02*
X17385215Y-13918452D01*
X17385215Y-13918452D02*
X17385215Y-13908928D01*
X17385215Y-13908928D02*
X17375691Y-13889881D01*
X17375691Y-13889881D02*
X17356643Y-13880357D01*
X17356643Y-13880357D02*
X17328072Y-13880357D01*
X17328072Y-13880357D02*
X17309024Y-13870833D01*
X17309024Y-13870833D02*
X17299500Y-13851786D01*
X17299500Y-13851786D02*
X17299500Y-13842262D01*
X17299500Y-13842262D02*
X17309024Y-13823214D01*
X17309024Y-13823214D02*
X17328072Y-13813690D01*
X17328072Y-13813690D02*
X17356643Y-13813690D01*
X17356643Y-13813690D02*
X17375691Y-13823214D01*
X17451881Y-14023214D02*
X17461405Y-14013690D01*
X17461405Y-14013690D02*
X17480453Y-13985119D01*
X17480453Y-13985119D02*
X17489977Y-13966071D01*
X17489977Y-13966071D02*
X17499500Y-13937500D01*
X17499500Y-13937500D02*
X17509024Y-13889881D01*
X17509024Y-13889881D02*
X17509024Y-13851786D01*
X17509024Y-13851786D02*
X17499500Y-13804167D01*
X17499500Y-13804167D02*
X17489977Y-13775595D01*
X17489977Y-13775595D02*
X17480453Y-13756548D01*
X17480453Y-13756548D02*
X17461405Y-13727976D01*
X17461405Y-13727976D02*
X17451881Y-13718452D01*
D14*
X12449500Y-14068500D02*
X12449500Y-14168500D01*
X12399500Y-14118500D02*
X12499500Y-14118500D01*
D11*
X12851881Y-14211024D02*
X12737595Y-14211024D01*
X12794738Y-14211024D02*
X12794738Y-14011024D01*
X12794738Y-14011024D02*
X12775690Y-14039595D01*
X12775690Y-14039595D02*
X12756643Y-14058643D01*
X12756643Y-14058643D02*
X12737595Y-14068167D01*
X12937595Y-14191976D02*
X12947119Y-14201500D01*
X12947119Y-14201500D02*
X12937595Y-14211024D01*
X12937595Y-14211024D02*
X12928071Y-14201500D01*
X12928071Y-14201500D02*
X12937595Y-14191976D01*
X12937595Y-14191976D02*
X12937595Y-14211024D01*
X13070928Y-14011024D02*
X13089976Y-14011024D01*
X13089976Y-14011024D02*
X13109024Y-14020548D01*
X13109024Y-14020548D02*
X13118548Y-14030071D01*
X13118548Y-14030071D02*
X13128071Y-14049119D01*
X13128071Y-14049119D02*
X13137595Y-14087214D01*
X13137595Y-14087214D02*
X13137595Y-14134833D01*
X13137595Y-14134833D02*
X13128071Y-14172928D01*
X13128071Y-14172928D02*
X13118548Y-14191976D01*
X13118548Y-14191976D02*
X13109024Y-14201500D01*
X13109024Y-14201500D02*
X13089976Y-14211024D01*
X13089976Y-14211024D02*
X13070928Y-14211024D01*
X13070928Y-14211024D02*
X13051881Y-14201500D01*
X13051881Y-14201500D02*
X13042357Y-14191976D01*
X13042357Y-14191976D02*
X13032833Y-14172928D01*
X13032833Y-14172928D02*
X13023309Y-14134833D01*
X13023309Y-14134833D02*
X13023309Y-14087214D01*
X13023309Y-14087214D02*
X13032833Y-14049119D01*
X13032833Y-14049119D02*
X13042357Y-14030071D01*
X13042357Y-14030071D02*
X13051881Y-14020548D01*
X13051881Y-14020548D02*
X13070928Y-14011024D01*
X13261405Y-14011024D02*
X13280452Y-14011024D01*
X13280452Y-14011024D02*
X13299500Y-14020548D01*
X13299500Y-14020548D02*
X13309024Y-14030071D01*
X13309024Y-14030071D02*
X13318548Y-14049119D01*
X13318548Y-14049119D02*
X13328071Y-14087214D01*
X13328071Y-14087214D02*
X13328071Y-14134833D01*
X13328071Y-14134833D02*
X13318548Y-14172928D01*
X13318548Y-14172928D02*
X13309024Y-14191976D01*
X13309024Y-14191976D02*
X13299500Y-14201500D01*
X13299500Y-14201500D02*
X13280452Y-14211024D01*
X13280452Y-14211024D02*
X13261405Y-14211024D01*
X13261405Y-14211024D02*
X13242357Y-14201500D01*
X13242357Y-14201500D02*
X13232833Y-14191976D01*
X13232833Y-14191976D02*
X13223309Y-14172928D01*
X13223309Y-14172928D02*
X13213786Y-14134833D01*
X13213786Y-14134833D02*
X13213786Y-14087214D01*
X13213786Y-14087214D02*
X13223309Y-14049119D01*
X13223309Y-14049119D02*
X13232833Y-14030071D01*
X13232833Y-14030071D02*
X13242357Y-14020548D01*
X13242357Y-14020548D02*
X13261405Y-14011024D01*
X13451881Y-14011024D02*
X13470929Y-14011024D01*
X13470929Y-14011024D02*
X13489976Y-14020548D01*
X13489976Y-14020548D02*
X13499500Y-14030071D01*
X13499500Y-14030071D02*
X13509024Y-14049119D01*
X13509024Y-14049119D02*
X13518548Y-14087214D01*
X13518548Y-14087214D02*
X13518548Y-14134833D01*
X13518548Y-14134833D02*
X13509024Y-14172928D01*
X13509024Y-14172928D02*
X13499500Y-14191976D01*
X13499500Y-14191976D02*
X13489976Y-14201500D01*
X13489976Y-14201500D02*
X13470929Y-14211024D01*
X13470929Y-14211024D02*
X13451881Y-14211024D01*
X13451881Y-14211024D02*
X13432833Y-14201500D01*
X13432833Y-14201500D02*
X13423309Y-14191976D01*
X13423309Y-14191976D02*
X13413786Y-14172928D01*
X13413786Y-14172928D02*
X13404262Y-14134833D01*
X13404262Y-14134833D02*
X13404262Y-14087214D01*
X13404262Y-14087214D02*
X13413786Y-14049119D01*
X13413786Y-14049119D02*
X13423309Y-14030071D01*
X13423309Y-14030071D02*
X13432833Y-14020548D01*
X13432833Y-14020548D02*
X13451881Y-14011024D01*
X13604262Y-14211024D02*
X13604262Y-14077690D01*
X13604262Y-14096738D02*
X13613786Y-14087214D01*
X13613786Y-14087214D02*
X13632833Y-14077690D01*
X13632833Y-14077690D02*
X13661405Y-14077690D01*
X13661405Y-14077690D02*
X13680452Y-14087214D01*
X13680452Y-14087214D02*
X13689976Y-14106262D01*
X13689976Y-14106262D02*
X13689976Y-14211024D01*
X13689976Y-14106262D02*
X13699500Y-14087214D01*
X13699500Y-14087214D02*
X13718548Y-14077690D01*
X13718548Y-14077690D02*
X13747119Y-14077690D01*
X13747119Y-14077690D02*
X13766167Y-14087214D01*
X13766167Y-14087214D02*
X13775690Y-14106262D01*
X13775690Y-14106262D02*
X13775690Y-14211024D01*
X13870929Y-14211024D02*
X13870929Y-14077690D01*
X13870929Y-14096738D02*
X13880452Y-14087214D01*
X13880452Y-14087214D02*
X13899500Y-14077690D01*
X13899500Y-14077690D02*
X13928071Y-14077690D01*
X13928071Y-14077690D02*
X13947119Y-14087214D01*
X13947119Y-14087214D02*
X13956643Y-14106262D01*
X13956643Y-14106262D02*
X13956643Y-14211024D01*
X13956643Y-14106262D02*
X13966167Y-14087214D01*
X13966167Y-14087214D02*
X13985214Y-14077690D01*
X13985214Y-14077690D02*
X14013786Y-14077690D01*
X14013786Y-14077690D02*
X14032833Y-14087214D01*
X14032833Y-14087214D02*
X14042357Y-14106262D01*
X14042357Y-14106262D02*
X14042357Y-14211024D01*
X14432833Y-14001500D02*
X14261405Y-14258643D01*
X14689976Y-14011024D02*
X14709024Y-14011024D01*
X14709024Y-14011024D02*
X14728072Y-14020548D01*
X14728072Y-14020548D02*
X14737595Y-14030071D01*
X14737595Y-14030071D02*
X14747119Y-14049119D01*
X14747119Y-14049119D02*
X14756643Y-14087214D01*
X14756643Y-14087214D02*
X14756643Y-14134833D01*
X14756643Y-14134833D02*
X14747119Y-14172928D01*
X14747119Y-14172928D02*
X14737595Y-14191976D01*
X14737595Y-14191976D02*
X14728072Y-14201500D01*
X14728072Y-14201500D02*
X14709024Y-14211024D01*
X14709024Y-14211024D02*
X14689976Y-14211024D01*
X14689976Y-14211024D02*
X14670929Y-14201500D01*
X14670929Y-14201500D02*
X14661405Y-14191976D01*
X14661405Y-14191976D02*
X14651881Y-14172928D01*
X14651881Y-14172928D02*
X14642357Y-14134833D01*
X14642357Y-14134833D02*
X14642357Y-14087214D01*
X14642357Y-14087214D02*
X14651881Y-14049119D01*
X14651881Y-14049119D02*
X14661405Y-14030071D01*
X14661405Y-14030071D02*
X14670929Y-14020548D01*
X14670929Y-14020548D02*
X14689976Y-14011024D01*
X14842357Y-14191976D02*
X14851881Y-14201500D01*
X14851881Y-14201500D02*
X14842357Y-14211024D01*
X14842357Y-14211024D02*
X14832833Y-14201500D01*
X14832833Y-14201500D02*
X14842357Y-14191976D01*
X14842357Y-14191976D02*
X14842357Y-14211024D01*
X14975691Y-14011024D02*
X14994738Y-14011024D01*
X14994738Y-14011024D02*
X15013786Y-14020548D01*
X15013786Y-14020548D02*
X15023310Y-14030071D01*
X15023310Y-14030071D02*
X15032833Y-14049119D01*
X15032833Y-14049119D02*
X15042357Y-14087214D01*
X15042357Y-14087214D02*
X15042357Y-14134833D01*
X15042357Y-14134833D02*
X15032833Y-14172928D01*
X15032833Y-14172928D02*
X15023310Y-14191976D01*
X15023310Y-14191976D02*
X15013786Y-14201500D01*
X15013786Y-14201500D02*
X14994738Y-14211024D01*
X14994738Y-14211024D02*
X14975691Y-14211024D01*
X14975691Y-14211024D02*
X14956643Y-14201500D01*
X14956643Y-14201500D02*
X14947119Y-14191976D01*
X14947119Y-14191976D02*
X14937595Y-14172928D01*
X14937595Y-14172928D02*
X14928072Y-14134833D01*
X14928072Y-14134833D02*
X14928072Y-14087214D01*
X14928072Y-14087214D02*
X14937595Y-14049119D01*
X14937595Y-14049119D02*
X14947119Y-14030071D01*
X14947119Y-14030071D02*
X14956643Y-14020548D01*
X14956643Y-14020548D02*
X14975691Y-14011024D01*
X15109024Y-14011024D02*
X15232833Y-14011024D01*
X15232833Y-14011024D02*
X15166167Y-14087214D01*
X15166167Y-14087214D02*
X15194738Y-14087214D01*
X15194738Y-14087214D02*
X15213786Y-14096738D01*
X15213786Y-14096738D02*
X15223310Y-14106262D01*
X15223310Y-14106262D02*
X15232833Y-14125309D01*
X15232833Y-14125309D02*
X15232833Y-14172928D01*
X15232833Y-14172928D02*
X15223310Y-14191976D01*
X15223310Y-14191976D02*
X15213786Y-14201500D01*
X15213786Y-14201500D02*
X15194738Y-14211024D01*
X15194738Y-14211024D02*
X15137595Y-14211024D01*
X15137595Y-14211024D02*
X15118548Y-14201500D01*
X15118548Y-14201500D02*
X15109024Y-14191976D01*
X15328072Y-14211024D02*
X15366167Y-14211024D01*
X15366167Y-14211024D02*
X15385214Y-14201500D01*
X15385214Y-14201500D02*
X15394738Y-14191976D01*
X15394738Y-14191976D02*
X15413786Y-14163405D01*
X15413786Y-14163405D02*
X15423310Y-14125309D01*
X15423310Y-14125309D02*
X15423310Y-14049119D01*
X15423310Y-14049119D02*
X15413786Y-14030071D01*
X15413786Y-14030071D02*
X15404262Y-14020548D01*
X15404262Y-14020548D02*
X15385214Y-14011024D01*
X15385214Y-14011024D02*
X15347119Y-14011024D01*
X15347119Y-14011024D02*
X15328072Y-14020548D01*
X15328072Y-14020548D02*
X15318548Y-14030071D01*
X15318548Y-14030071D02*
X15309024Y-14049119D01*
X15309024Y-14049119D02*
X15309024Y-14096738D01*
X15309024Y-14096738D02*
X15318548Y-14115786D01*
X15318548Y-14115786D02*
X15328072Y-14125309D01*
X15328072Y-14125309D02*
X15347119Y-14134833D01*
X15347119Y-14134833D02*
X15385214Y-14134833D01*
X15385214Y-14134833D02*
X15404262Y-14125309D01*
X15404262Y-14125309D02*
X15413786Y-14115786D01*
X15413786Y-14115786D02*
X15423310Y-14096738D01*
X15594738Y-14077690D02*
X15594738Y-14211024D01*
X15547119Y-14001500D02*
X15499500Y-14144357D01*
X15499500Y-14144357D02*
X15623310Y-14144357D01*
X15689976Y-14011024D02*
X15689976Y-14049119D01*
X15766167Y-14011024D02*
X15766167Y-14049119D01*
X16061405Y-14287214D02*
X16051881Y-14277690D01*
X16051881Y-14277690D02*
X16032834Y-14249119D01*
X16032834Y-14249119D02*
X16023310Y-14230071D01*
X16023310Y-14230071D02*
X16013786Y-14201500D01*
X16013786Y-14201500D02*
X16004262Y-14153881D01*
X16004262Y-14153881D02*
X16004262Y-14115786D01*
X16004262Y-14115786D02*
X16013786Y-14068167D01*
X16013786Y-14068167D02*
X16023310Y-14039595D01*
X16023310Y-14039595D02*
X16032834Y-14020548D01*
X16032834Y-14020548D02*
X16051881Y-13991976D01*
X16051881Y-13991976D02*
X16061405Y-13982452D01*
X16242357Y-14211024D02*
X16128072Y-14211024D01*
X16185214Y-14211024D02*
X16185214Y-14011024D01*
X16185214Y-14011024D02*
X16166167Y-14039595D01*
X16166167Y-14039595D02*
X16147119Y-14058643D01*
X16147119Y-14058643D02*
X16128072Y-14068167D01*
X16413786Y-14077690D02*
X16413786Y-14211024D01*
X16366167Y-14001500D02*
X16318548Y-14144357D01*
X16318548Y-14144357D02*
X16442357Y-14144357D01*
X16670929Y-14211024D02*
X16670929Y-14011024D01*
X16756643Y-14211024D02*
X16756643Y-14106262D01*
X16756643Y-14106262D02*
X16747119Y-14087214D01*
X16747119Y-14087214D02*
X16728072Y-14077690D01*
X16728072Y-14077690D02*
X16699500Y-14077690D01*
X16699500Y-14077690D02*
X16680453Y-14087214D01*
X16680453Y-14087214D02*
X16670929Y-14096738D01*
X16880453Y-14211024D02*
X16861405Y-14201500D01*
X16861405Y-14201500D02*
X16851881Y-14191976D01*
X16851881Y-14191976D02*
X16842358Y-14172928D01*
X16842358Y-14172928D02*
X16842358Y-14115786D01*
X16842358Y-14115786D02*
X16851881Y-14096738D01*
X16851881Y-14096738D02*
X16861405Y-14087214D01*
X16861405Y-14087214D02*
X16880453Y-14077690D01*
X16880453Y-14077690D02*
X16909024Y-14077690D01*
X16909024Y-14077690D02*
X16928072Y-14087214D01*
X16928072Y-14087214D02*
X16937596Y-14096738D01*
X16937596Y-14096738D02*
X16947119Y-14115786D01*
X16947119Y-14115786D02*
X16947119Y-14172928D01*
X16947119Y-14172928D02*
X16937596Y-14191976D01*
X16937596Y-14191976D02*
X16928072Y-14201500D01*
X16928072Y-14201500D02*
X16909024Y-14211024D01*
X16909024Y-14211024D02*
X16880453Y-14211024D01*
X17061405Y-14211024D02*
X17042358Y-14201500D01*
X17042358Y-14201500D02*
X17032834Y-14182452D01*
X17032834Y-14182452D02*
X17032834Y-14011024D01*
X17213786Y-14201500D02*
X17194739Y-14211024D01*
X17194739Y-14211024D02*
X17156643Y-14211024D01*
X17156643Y-14211024D02*
X17137596Y-14201500D01*
X17137596Y-14201500D02*
X17128072Y-14182452D01*
X17128072Y-14182452D02*
X17128072Y-14106262D01*
X17128072Y-14106262D02*
X17137596Y-14087214D01*
X17137596Y-14087214D02*
X17156643Y-14077690D01*
X17156643Y-14077690D02*
X17194739Y-14077690D01*
X17194739Y-14077690D02*
X17213786Y-14087214D01*
X17213786Y-14087214D02*
X17223310Y-14106262D01*
X17223310Y-14106262D02*
X17223310Y-14125309D01*
X17223310Y-14125309D02*
X17128072Y-14144357D01*
X17299500Y-14201500D02*
X17318548Y-14211024D01*
X17318548Y-14211024D02*
X17356643Y-14211024D01*
X17356643Y-14211024D02*
X17375691Y-14201500D01*
X17375691Y-14201500D02*
X17385215Y-14182452D01*
X17385215Y-14182452D02*
X17385215Y-14172928D01*
X17385215Y-14172928D02*
X17375691Y-14153881D01*
X17375691Y-14153881D02*
X17356643Y-14144357D01*
X17356643Y-14144357D02*
X17328072Y-14144357D01*
X17328072Y-14144357D02*
X17309024Y-14134833D01*
X17309024Y-14134833D02*
X17299500Y-14115786D01*
X17299500Y-14115786D02*
X17299500Y-14106262D01*
X17299500Y-14106262D02*
X17309024Y-14087214D01*
X17309024Y-14087214D02*
X17328072Y-14077690D01*
X17328072Y-14077690D02*
X17356643Y-14077690D01*
X17356643Y-14077690D02*
X17375691Y-14087214D01*
X17451881Y-14287214D02*
X17461405Y-14277690D01*
X17461405Y-14277690D02*
X17480453Y-14249119D01*
X17480453Y-14249119D02*
X17489977Y-14230071D01*
X17489977Y-14230071D02*
X17499500Y-14201500D01*
X17499500Y-14201500D02*
X17509024Y-14153881D01*
X17509024Y-14153881D02*
X17509024Y-14115786D01*
X17509024Y-14115786D02*
X17499500Y-14068167D01*
X17499500Y-14068167D02*
X17489977Y-14039595D01*
X17489977Y-14039595D02*
X17480453Y-14020548D01*
X17480453Y-14020548D02*
X17461405Y-13991976D01*
X17461405Y-13991976D02*
X17451881Y-13982452D01*
M02*
