G04 #@! TF.GenerationSoftware,KiCad,Pcbnew,7.0.2-6a45011f42~172~ubuntu22.04.1*
G04 #@! TF.CreationDate,2023-05-18T14:48:33+01:00*
G04 #@! TF.ProjectId,KX134_array,4b583133-345f-4617-9272-61792e6b6963,rev?*
G04 #@! TF.SameCoordinates,Original*
G04 #@! TF.FileFunction,Soldermask,Bot*
G04 #@! TF.FilePolarity,Negative*
%FSLAX46Y46*%
G04 Gerber Fmt 4.6, Leading zero omitted, Abs format (unit mm)*
G04 Created by KiCad (PCBNEW 7.0.2-6a45011f42~172~ubuntu22.04.1) date 2023-05-18 14:48:33*
%MOMM*%
%LPD*%
G01*
G04 APERTURE LIST*
%ADD10R,1.000000X1.000000*%
%ADD11O,1.000000X1.000000*%
%ADD12R,1.700000X1.700000*%
%ADD13O,1.700000X1.700000*%
G04 APERTURE END LIST*
D10*
X163300000Y-112550000D03*
D11*
X164570000Y-112550000D03*
X165840000Y-112550000D03*
X167110000Y-112550000D03*
X168380000Y-112550000D03*
X169650000Y-112550000D03*
X170920000Y-112550000D03*
X172190000Y-112550000D03*
D10*
X154200000Y-52450000D03*
D11*
X152930000Y-52450000D03*
X151660000Y-52450000D03*
X150390000Y-52450000D03*
X149120000Y-52450000D03*
X147850000Y-52450000D03*
X146580000Y-52450000D03*
X145310000Y-52450000D03*
D10*
X171700000Y-52450000D03*
D11*
X170430000Y-52450000D03*
X169160000Y-52450000D03*
X167890000Y-52450000D03*
X166620000Y-52450000D03*
X165350000Y-52450000D03*
X164080000Y-52450000D03*
X162810000Y-52450000D03*
D10*
X180800000Y-112550000D03*
D11*
X182070000Y-112550000D03*
X183340000Y-112550000D03*
X184610000Y-112550000D03*
X185880000Y-112550000D03*
X187150000Y-112550000D03*
X188420000Y-112550000D03*
X189690000Y-112550000D03*
D10*
X197550000Y-69199999D03*
D11*
X197550000Y-67929999D03*
X197550000Y-66659999D03*
X197550000Y-65389999D03*
X197550000Y-64119999D03*
X197550000Y-62849999D03*
X197550000Y-61579999D03*
X197550000Y-60309999D03*
D10*
X137450000Y-95800000D03*
D11*
X137450000Y-97070000D03*
X137450000Y-98340000D03*
X137450000Y-99610000D03*
X137450000Y-100880000D03*
X137450000Y-102150000D03*
X137450000Y-103420000D03*
X137450000Y-104690000D03*
D10*
X197550000Y-86699999D03*
D11*
X197550000Y-85429999D03*
X197550000Y-84159999D03*
X197550000Y-82889999D03*
X197550000Y-81619999D03*
X197550000Y-80349999D03*
X197550000Y-79079999D03*
X197550000Y-77809999D03*
D10*
X145300000Y-112550000D03*
D11*
X146570000Y-112550000D03*
X147840000Y-112550000D03*
X149110000Y-112550000D03*
X150380000Y-112550000D03*
X151650000Y-112550000D03*
X152920000Y-112550000D03*
X154190000Y-112550000D03*
D10*
X137450000Y-78300000D03*
D11*
X137450000Y-79570000D03*
X137450000Y-80840000D03*
X137450000Y-82110000D03*
X137450000Y-83380000D03*
X137450000Y-84650000D03*
X137450000Y-85920000D03*
X137450000Y-87190000D03*
D12*
X177660000Y-123500000D03*
D13*
X175120000Y-123500000D03*
X172580000Y-123500000D03*
X170040000Y-123500000D03*
X167500000Y-123500000D03*
X164960000Y-123500000D03*
X162420000Y-123500000D03*
X159880000Y-123500000D03*
X157340000Y-123500000D03*
D12*
X177660000Y-126040000D03*
D13*
X175120000Y-126040000D03*
D12*
X157340000Y-126040000D03*
D13*
X159880000Y-126040000D03*
X162420000Y-126040000D03*
M02*
