G04 #@! TF.GenerationSoftware,KiCad,Pcbnew,7.0.2-6a45011f42~172~ubuntu22.04.1*
G04 #@! TF.CreationDate,2023-05-18T14:48:33+01:00*
G04 #@! TF.ProjectId,KX134_array,4b583133-345f-4617-9272-61792e6b6963,rev?*
G04 #@! TF.SameCoordinates,Original*
G04 #@! TF.FileFunction,Other,ECO1*
%FSLAX46Y46*%
G04 Gerber Fmt 4.6, Leading zero omitted, Abs format (unit mm)*
G04 Created by KiCad (PCBNEW 7.0.2-6a45011f42~172~ubuntu22.04.1) date 2023-05-18 14:48:33*
%MOMM*%
%LPD*%
G01*
G04 APERTURE LIST*
G04 APERTURE END LIST*
G36*
X151006070Y-80950597D02*
G01*
X151192687Y-80968976D01*
X151216529Y-80973718D01*
X151390131Y-81026379D01*
X151412590Y-81035682D01*
X151572579Y-81121199D01*
X151592790Y-81134704D01*
X151733022Y-81249789D01*
X151750210Y-81266977D01*
X151865295Y-81407209D01*
X151878800Y-81427420D01*
X151964317Y-81587409D01*
X151973620Y-81609868D01*
X152026281Y-81783470D01*
X152031023Y-81807311D01*
X152049403Y-81993927D01*
X152050000Y-82006081D01*
X152050000Y-83493918D01*
X152049403Y-83506073D01*
X152031022Y-83692691D01*
X152026280Y-83716531D01*
X151973618Y-83890134D01*
X151964315Y-83912592D01*
X151878801Y-84072577D01*
X151865296Y-84092789D01*
X151750209Y-84233022D01*
X151733021Y-84250210D01*
X151592790Y-84365295D01*
X151572579Y-84378800D01*
X151412590Y-84464317D01*
X151390131Y-84473620D01*
X151216530Y-84526281D01*
X151192689Y-84531023D01*
X151006072Y-84549403D01*
X150993918Y-84550000D01*
X149058126Y-84550000D01*
X149041940Y-84548939D01*
X148923833Y-84533389D01*
X148892567Y-84525011D01*
X148790083Y-84482561D01*
X148762049Y-84466376D01*
X148674042Y-84398847D01*
X148651152Y-84375957D01*
X148583623Y-84287950D01*
X148567438Y-84259916D01*
X148524988Y-84157432D01*
X148516610Y-84126165D01*
X148501061Y-84008058D01*
X148500000Y-83991873D01*
X148500000Y-83804053D01*
X148499470Y-83795980D01*
X148482962Y-83670589D01*
X148433013Y-83550000D01*
X148353553Y-83446446D01*
X148250000Y-83366986D01*
X148176547Y-83336561D01*
X148122143Y-83292719D01*
X148100079Y-83226425D01*
X148100000Y-83222000D01*
X148100000Y-82277999D01*
X148119685Y-82210960D01*
X148172489Y-82165205D01*
X148176548Y-82163438D01*
X148249999Y-82133013D01*
X148353553Y-82053553D01*
X148433013Y-81949999D01*
X148482962Y-81829410D01*
X148499456Y-81704128D01*
X148499985Y-81695837D01*
X148499507Y-81558345D01*
X148500567Y-81541727D01*
X148517810Y-81410759D01*
X148526188Y-81379493D01*
X148573685Y-81264824D01*
X148589871Y-81236789D01*
X148665432Y-81138317D01*
X148688320Y-81115428D01*
X148786787Y-81039871D01*
X148814821Y-81023686D01*
X148929492Y-80976188D01*
X148960760Y-80967810D01*
X149087984Y-80951061D01*
X149104169Y-80950000D01*
X150993917Y-80950000D01*
X151006070Y-80950597D01*
G37*
G36*
X139008062Y-94501061D02*
G01*
X139113221Y-94514904D01*
X139144490Y-94523282D01*
X139234918Y-94560739D01*
X139262952Y-94576925D01*
X139340605Y-94636511D01*
X139363494Y-94659400D01*
X139423076Y-94737049D01*
X139439261Y-94765083D01*
X139476716Y-94855508D01*
X139485094Y-94886775D01*
X139498939Y-94991941D01*
X139500000Y-95008126D01*
X139500000Y-98197554D01*
X139500191Y-98202434D01*
X139518467Y-98434653D01*
X139573413Y-98663525D01*
X139663490Y-98880987D01*
X139786473Y-99081677D01*
X139939339Y-99260660D01*
X140118323Y-99413527D01*
X140319012Y-99536510D01*
X140536474Y-99626586D01*
X140765347Y-99681533D01*
X140885728Y-99691007D01*
X140951017Y-99715891D01*
X140992488Y-99772121D01*
X141000000Y-99814625D01*
X141000000Y-100685375D01*
X140980315Y-100752414D01*
X140927511Y-100798169D01*
X140885729Y-100808993D01*
X140765347Y-100818467D01*
X140536474Y-100873414D01*
X140319013Y-100963490D01*
X140118323Y-101086473D01*
X139939340Y-101239340D01*
X139786473Y-101418323D01*
X139663490Y-101619013D01*
X139573414Y-101836474D01*
X139518467Y-102065347D01*
X139500191Y-102297566D01*
X139500000Y-102302446D01*
X139500000Y-105491874D01*
X139498939Y-105508060D01*
X139485093Y-105613224D01*
X139476715Y-105644491D01*
X139439259Y-105734918D01*
X139423074Y-105762951D01*
X139363491Y-105840601D01*
X139340601Y-105863491D01*
X139262951Y-105923074D01*
X139234918Y-105939259D01*
X139144491Y-105976715D01*
X139113224Y-105985093D01*
X139008060Y-105998939D01*
X138991874Y-106000000D01*
X135908117Y-106000000D01*
X135891932Y-105998939D01*
X135786776Y-105985095D01*
X135755508Y-105976717D01*
X135665080Y-105939260D01*
X135637047Y-105923075D01*
X135559397Y-105863492D01*
X135536507Y-105840602D01*
X135476924Y-105762952D01*
X135460739Y-105734918D01*
X135423283Y-105644490D01*
X135414905Y-105613222D01*
X135401061Y-105508059D01*
X135400000Y-105491875D01*
X135400000Y-95008125D01*
X135401061Y-94991940D01*
X135414906Y-94886776D01*
X135423284Y-94855508D01*
X135460740Y-94765081D01*
X135476925Y-94737048D01*
X135536508Y-94659398D01*
X135559398Y-94636508D01*
X135637048Y-94576925D01*
X135665081Y-94560740D01*
X135755508Y-94523284D01*
X135786776Y-94514906D01*
X135891940Y-94501061D01*
X135908125Y-94500000D01*
X138991878Y-94500000D01*
X139008062Y-94501061D01*
G37*
G36*
X185958065Y-62951061D02*
G01*
X186076166Y-62966611D01*
X186107431Y-62974989D01*
X186209915Y-63017439D01*
X186237949Y-63033624D01*
X186325954Y-63101152D01*
X186348844Y-63124041D01*
X186416376Y-63212050D01*
X186432561Y-63240085D01*
X186475010Y-63342567D01*
X186483388Y-63373833D01*
X186498938Y-63491940D01*
X186499999Y-63508126D01*
X186499999Y-63695946D01*
X186500528Y-63704018D01*
X186517037Y-63829410D01*
X186566986Y-63949999D01*
X186646445Y-64053553D01*
X186749999Y-64133012D01*
X186823451Y-64163437D01*
X186877855Y-64207278D01*
X186899920Y-64273572D01*
X186899999Y-64277998D01*
X186899999Y-65222000D01*
X186880314Y-65289039D01*
X186827510Y-65334794D01*
X186823452Y-65336561D01*
X186749998Y-65366986D01*
X186646445Y-65446445D01*
X186566985Y-65550000D01*
X186517036Y-65670589D01*
X186500542Y-65795871D01*
X186500013Y-65804162D01*
X186500491Y-65941657D01*
X186499431Y-65958273D01*
X186482189Y-66089239D01*
X186473811Y-66120506D01*
X186426313Y-66235178D01*
X186410128Y-66263212D01*
X186334570Y-66361681D01*
X186311680Y-66384571D01*
X186213210Y-66460129D01*
X186185176Y-66476314D01*
X186070507Y-66523811D01*
X186039241Y-66532189D01*
X185912016Y-66548939D01*
X185895830Y-66550000D01*
X184006082Y-66550000D01*
X183993928Y-66549403D01*
X183807310Y-66531023D01*
X183783469Y-66526281D01*
X183609865Y-66473619D01*
X183587407Y-66464316D01*
X183427421Y-66378802D01*
X183407209Y-66365297D01*
X183266976Y-66250210D01*
X183249788Y-66233022D01*
X183134703Y-66092790D01*
X183121198Y-66072579D01*
X183035681Y-65912590D01*
X183026378Y-65890131D01*
X182973717Y-65716529D01*
X182968975Y-65692687D01*
X182950596Y-65506061D01*
X182949999Y-65493908D01*
X182949999Y-64006073D01*
X182950596Y-63993918D01*
X182968976Y-63807309D01*
X182973718Y-63783469D01*
X183026379Y-63609868D01*
X183035682Y-63587410D01*
X183121199Y-63427420D01*
X183134704Y-63407208D01*
X183249788Y-63266978D01*
X183266976Y-63249790D01*
X183407208Y-63134705D01*
X183427420Y-63121200D01*
X183587410Y-63035683D01*
X183609868Y-63026380D01*
X183783467Y-62973719D01*
X183807308Y-62968977D01*
X183993927Y-62950597D01*
X184006081Y-62950000D01*
X185941878Y-62950000D01*
X185958065Y-62951061D01*
G37*
G36*
X168506081Y-97950596D02*
G01*
X168692690Y-97968976D01*
X168716530Y-97973718D01*
X168890131Y-98026379D01*
X168912589Y-98035682D01*
X169072579Y-98121199D01*
X169092791Y-98134704D01*
X169233021Y-98249788D01*
X169250209Y-98266976D01*
X169365294Y-98407208D01*
X169378799Y-98427420D01*
X169464316Y-98587410D01*
X169473619Y-98609868D01*
X169526280Y-98783467D01*
X169531022Y-98807307D01*
X169549403Y-98993924D01*
X169550000Y-99006079D01*
X169550000Y-100941877D01*
X169548939Y-100958065D01*
X169533388Y-101076167D01*
X169525010Y-101107431D01*
X169482560Y-101209915D01*
X169466375Y-101237949D01*
X169398847Y-101325954D01*
X169375958Y-101348844D01*
X169287949Y-101416376D01*
X169259914Y-101432561D01*
X169157432Y-101475010D01*
X169126166Y-101483388D01*
X169008060Y-101498938D01*
X168991874Y-101499999D01*
X168804053Y-101499999D01*
X168795981Y-101500528D01*
X168670589Y-101517037D01*
X168550000Y-101566986D01*
X168446446Y-101646445D01*
X168366987Y-101749998D01*
X168336562Y-101823452D01*
X168292720Y-101877856D01*
X168226426Y-101899920D01*
X168222001Y-101899999D01*
X167277999Y-101899999D01*
X167210960Y-101880314D01*
X167165205Y-101827510D01*
X167163438Y-101823451D01*
X167133013Y-101749999D01*
X167053554Y-101646445D01*
X166949999Y-101566985D01*
X166829410Y-101517036D01*
X166704128Y-101500542D01*
X166695837Y-101500013D01*
X166558342Y-101500491D01*
X166541726Y-101499431D01*
X166410760Y-101482189D01*
X166379493Y-101473811D01*
X166264821Y-101426313D01*
X166236787Y-101410128D01*
X166138318Y-101334570D01*
X166115428Y-101311680D01*
X166039870Y-101213210D01*
X166023685Y-101185176D01*
X165976188Y-101070507D01*
X165967810Y-101039240D01*
X165951061Y-100912015D01*
X165950000Y-100895830D01*
X165950000Y-99006081D01*
X165950597Y-98993928D01*
X165968976Y-98807311D01*
X165973718Y-98783469D01*
X166026380Y-98609865D01*
X166035683Y-98587407D01*
X166121197Y-98427421D01*
X166134702Y-98407209D01*
X166249789Y-98266976D01*
X166266977Y-98249788D01*
X166407209Y-98134703D01*
X166427420Y-98121198D01*
X166587409Y-98035681D01*
X166609868Y-98026378D01*
X166783470Y-97973717D01*
X166807312Y-97968975D01*
X166993938Y-97950596D01*
X167006091Y-97949999D01*
X168493926Y-97949999D01*
X168506081Y-97950596D01*
G37*
G36*
X172508059Y-50401061D02*
G01*
X172613223Y-50414906D01*
X172644491Y-50423284D01*
X172734918Y-50460740D01*
X172762951Y-50476925D01*
X172840601Y-50536508D01*
X172863491Y-50559398D01*
X172923074Y-50637048D01*
X172939259Y-50665081D01*
X172976715Y-50755508D01*
X172985093Y-50786776D01*
X172998938Y-50891940D01*
X172999999Y-50908125D01*
X172999999Y-53991878D01*
X172998938Y-54008062D01*
X172985095Y-54113221D01*
X172976717Y-54144490D01*
X172939260Y-54234918D01*
X172923074Y-54262952D01*
X172863488Y-54340605D01*
X172840599Y-54363494D01*
X172762950Y-54423076D01*
X172734916Y-54439261D01*
X172644491Y-54476716D01*
X172613224Y-54485094D01*
X172508058Y-54498939D01*
X172491873Y-54500000D01*
X169302445Y-54500000D01*
X169297565Y-54500191D01*
X169065346Y-54518467D01*
X168836474Y-54573413D01*
X168619012Y-54663490D01*
X168418322Y-54786473D01*
X168239339Y-54939339D01*
X168086472Y-55118323D01*
X167963489Y-55319012D01*
X167873413Y-55536474D01*
X167818466Y-55765347D01*
X167808992Y-55885729D01*
X167784108Y-55951017D01*
X167727877Y-55992488D01*
X167685374Y-56000000D01*
X166814625Y-56000000D01*
X166747586Y-55980315D01*
X166701831Y-55927511D01*
X166691007Y-55885729D01*
X166681532Y-55765347D01*
X166626585Y-55536474D01*
X166536509Y-55319013D01*
X166413526Y-55118323D01*
X166260659Y-54939340D01*
X166081676Y-54786473D01*
X165880986Y-54663490D01*
X165663525Y-54573414D01*
X165434652Y-54518467D01*
X165202433Y-54500191D01*
X165197554Y-54500000D01*
X162008126Y-54500000D01*
X161991940Y-54498939D01*
X161886775Y-54485093D01*
X161855508Y-54476715D01*
X161765081Y-54439259D01*
X161737048Y-54423074D01*
X161659398Y-54363491D01*
X161636508Y-54340601D01*
X161576925Y-54262951D01*
X161560740Y-54234918D01*
X161523284Y-54144491D01*
X161514906Y-54113223D01*
X161501061Y-54008059D01*
X161500000Y-53991874D01*
X161500000Y-50908116D01*
X161501061Y-50891932D01*
X161514904Y-50786777D01*
X161523282Y-50755508D01*
X161560739Y-50665080D01*
X161576924Y-50637047D01*
X161636507Y-50559397D01*
X161659397Y-50536507D01*
X161737047Y-50476924D01*
X161765081Y-50460739D01*
X161855509Y-50423283D01*
X161886777Y-50414905D01*
X161991940Y-50401061D01*
X162008124Y-50400000D01*
X172491874Y-50400000D01*
X172508059Y-50401061D01*
G37*
G36*
X186006081Y-97950596D02*
G01*
X186192690Y-97968976D01*
X186216530Y-97973718D01*
X186390131Y-98026379D01*
X186412589Y-98035682D01*
X186572579Y-98121199D01*
X186592791Y-98134704D01*
X186733021Y-98249788D01*
X186750209Y-98266976D01*
X186865294Y-98407208D01*
X186878799Y-98427420D01*
X186964316Y-98587410D01*
X186973619Y-98609868D01*
X187026280Y-98783467D01*
X187031022Y-98807307D01*
X187049403Y-98993924D01*
X187050000Y-99006079D01*
X187050000Y-100941877D01*
X187048939Y-100958065D01*
X187033388Y-101076167D01*
X187025010Y-101107431D01*
X186982560Y-101209915D01*
X186966375Y-101237949D01*
X186898847Y-101325954D01*
X186875958Y-101348844D01*
X186787949Y-101416376D01*
X186759914Y-101432561D01*
X186657432Y-101475010D01*
X186626166Y-101483388D01*
X186508060Y-101498938D01*
X186491874Y-101499999D01*
X186304053Y-101499999D01*
X186295981Y-101500528D01*
X186170589Y-101517037D01*
X186050000Y-101566986D01*
X185946446Y-101646445D01*
X185866987Y-101749998D01*
X185836562Y-101823452D01*
X185792720Y-101877856D01*
X185726426Y-101899920D01*
X185722001Y-101899999D01*
X184777999Y-101899999D01*
X184710960Y-101880314D01*
X184665205Y-101827510D01*
X184663438Y-101823451D01*
X184633013Y-101749999D01*
X184553554Y-101646445D01*
X184449999Y-101566985D01*
X184329410Y-101517036D01*
X184204128Y-101500542D01*
X184195837Y-101500013D01*
X184058342Y-101500491D01*
X184041726Y-101499431D01*
X183910760Y-101482189D01*
X183879493Y-101473811D01*
X183764821Y-101426313D01*
X183736787Y-101410128D01*
X183638318Y-101334570D01*
X183615428Y-101311680D01*
X183539870Y-101213210D01*
X183523685Y-101185176D01*
X183476188Y-101070507D01*
X183467810Y-101039240D01*
X183451061Y-100912015D01*
X183450000Y-100895830D01*
X183450000Y-99006081D01*
X183450597Y-98993928D01*
X183468976Y-98807311D01*
X183473718Y-98783469D01*
X183526380Y-98609865D01*
X183535683Y-98587407D01*
X183621197Y-98427421D01*
X183634702Y-98407209D01*
X183749789Y-98266976D01*
X183766977Y-98249788D01*
X183907209Y-98134703D01*
X183927420Y-98121198D01*
X184087409Y-98035681D01*
X184109868Y-98026378D01*
X184283470Y-97973717D01*
X184307312Y-97968975D01*
X184493938Y-97950596D01*
X184506091Y-97949999D01*
X185993926Y-97949999D01*
X186006081Y-97950596D01*
G37*
G36*
X150252415Y-109019685D02*
G01*
X150298170Y-109072489D01*
X150308994Y-109114271D01*
X150318468Y-109234651D01*
X150373415Y-109463524D01*
X150463491Y-109680986D01*
X150586474Y-109881675D01*
X150739341Y-110060658D01*
X150918324Y-110213525D01*
X151119013Y-110336508D01*
X151336475Y-110426584D01*
X151565348Y-110481531D01*
X151797567Y-110499807D01*
X151802447Y-110499999D01*
X154991874Y-110499999D01*
X155008060Y-110501060D01*
X155113224Y-110514906D01*
X155144491Y-110523284D01*
X155234918Y-110560740D01*
X155262951Y-110576925D01*
X155340601Y-110636508D01*
X155363491Y-110659398D01*
X155423074Y-110737048D01*
X155439259Y-110765081D01*
X155476715Y-110855508D01*
X155485093Y-110886775D01*
X155498939Y-110991938D01*
X155500000Y-111008124D01*
X155500000Y-114091882D01*
X155498939Y-114108068D01*
X155485094Y-114213224D01*
X155476716Y-114244490D01*
X155439260Y-114334918D01*
X155423075Y-114362952D01*
X155363492Y-114440602D01*
X155340602Y-114463492D01*
X155262952Y-114523075D01*
X155234918Y-114539260D01*
X155144490Y-114576716D01*
X155113223Y-114585094D01*
X155008061Y-114598939D01*
X154991876Y-114600000D01*
X146000016Y-114600000D01*
X145999984Y-114599999D01*
X144508125Y-114599999D01*
X144491940Y-114598938D01*
X144386776Y-114585093D01*
X144355508Y-114576715D01*
X144265081Y-114539259D01*
X144237048Y-114523074D01*
X144159398Y-114463491D01*
X144136508Y-114440601D01*
X144076925Y-114362951D01*
X144060740Y-114334918D01*
X144023284Y-114244491D01*
X144014906Y-114213223D01*
X144001061Y-114108059D01*
X144000000Y-114091874D01*
X144000000Y-111008121D01*
X144001061Y-110991937D01*
X144014904Y-110886778D01*
X144023282Y-110855509D01*
X144060739Y-110765081D01*
X144076925Y-110737047D01*
X144136511Y-110659394D01*
X144159400Y-110636505D01*
X144237049Y-110576923D01*
X144265083Y-110560738D01*
X144355508Y-110523283D01*
X144386775Y-110514905D01*
X144491941Y-110501060D01*
X144508126Y-110499999D01*
X147697554Y-110500000D01*
X147702434Y-110499809D01*
X147934653Y-110481532D01*
X148163525Y-110426586D01*
X148380987Y-110336509D01*
X148581680Y-110213524D01*
X148760661Y-110060661D01*
X148913524Y-109881680D01*
X149036509Y-109680987D01*
X149126586Y-109463525D01*
X149181532Y-109234653D01*
X149191007Y-109114271D01*
X149215891Y-109048983D01*
X149272122Y-109007512D01*
X149314625Y-109000000D01*
X150185376Y-109000000D01*
X150252415Y-109019685D01*
G37*
G36*
X185752415Y-109019685D02*
G01*
X185798170Y-109072489D01*
X185808994Y-109114272D01*
X185818467Y-109234652D01*
X185873414Y-109463525D01*
X185963491Y-109680987D01*
X186086476Y-109881680D01*
X186239339Y-110060661D01*
X186418320Y-110213524D01*
X186619013Y-110336509D01*
X186836475Y-110426585D01*
X187065348Y-110481532D01*
X187297567Y-110499808D01*
X187302447Y-110500000D01*
X190491874Y-110500000D01*
X190508059Y-110501061D01*
X190613223Y-110514906D01*
X190644491Y-110523284D01*
X190734918Y-110560740D01*
X190762951Y-110576925D01*
X190840601Y-110636508D01*
X190863491Y-110659398D01*
X190923074Y-110737048D01*
X190939259Y-110765081D01*
X190976715Y-110855508D01*
X190985093Y-110886775D01*
X190998939Y-110991938D01*
X191000000Y-111008124D01*
X191000000Y-114091882D01*
X190998939Y-114108068D01*
X190985094Y-114213224D01*
X190976716Y-114244490D01*
X190939260Y-114334918D01*
X190923075Y-114362952D01*
X190863492Y-114440602D01*
X190840602Y-114463492D01*
X190762952Y-114523075D01*
X190734918Y-114539260D01*
X190644490Y-114576716D01*
X190613223Y-114585094D01*
X190508061Y-114598939D01*
X190491876Y-114600000D01*
X181500016Y-114600000D01*
X181499984Y-114599999D01*
X180008125Y-114599999D01*
X179991940Y-114598938D01*
X179886776Y-114585093D01*
X179855508Y-114576715D01*
X179765081Y-114539259D01*
X179737048Y-114523074D01*
X179659398Y-114463491D01*
X179636508Y-114440601D01*
X179576925Y-114362951D01*
X179560740Y-114334918D01*
X179523284Y-114244491D01*
X179514906Y-114213223D01*
X179501061Y-114108059D01*
X179500000Y-114091874D01*
X179500000Y-111008121D01*
X179501061Y-110991937D01*
X179514904Y-110886778D01*
X179523282Y-110855509D01*
X179560739Y-110765081D01*
X179576925Y-110737047D01*
X179636511Y-110659394D01*
X179659400Y-110636505D01*
X179737049Y-110576923D01*
X179765083Y-110560738D01*
X179855508Y-110523283D01*
X179886775Y-110514905D01*
X179991941Y-110501060D01*
X180008126Y-110499999D01*
X183197554Y-110499999D01*
X183202434Y-110499808D01*
X183434653Y-110481532D01*
X183663525Y-110426586D01*
X183880987Y-110336509D01*
X184081677Y-110213526D01*
X184260660Y-110060660D01*
X184413527Y-109881676D01*
X184536510Y-109680987D01*
X184626586Y-109463525D01*
X184681533Y-109234652D01*
X184691008Y-109114271D01*
X184715892Y-109048983D01*
X184772123Y-109007512D01*
X184814626Y-109000000D01*
X185685376Y-109000000D01*
X185752415Y-109019685D01*
G37*
G36*
X155008059Y-50401061D02*
G01*
X155113223Y-50414906D01*
X155144491Y-50423284D01*
X155234918Y-50460740D01*
X155262951Y-50476925D01*
X155340601Y-50536508D01*
X155363491Y-50559398D01*
X155423074Y-50637048D01*
X155439259Y-50665081D01*
X155476715Y-50755508D01*
X155485093Y-50786776D01*
X155498938Y-50891940D01*
X155499999Y-50908125D01*
X155499999Y-53991878D01*
X155498938Y-54008062D01*
X155485095Y-54113221D01*
X155476717Y-54144490D01*
X155439260Y-54234918D01*
X155423074Y-54262952D01*
X155363488Y-54340605D01*
X155340599Y-54363494D01*
X155262950Y-54423076D01*
X155234916Y-54439261D01*
X155144491Y-54476716D01*
X155113224Y-54485094D01*
X155008058Y-54498939D01*
X154991873Y-54500000D01*
X151802445Y-54500000D01*
X151797565Y-54500191D01*
X151565346Y-54518467D01*
X151336474Y-54573413D01*
X151119012Y-54663490D01*
X150918322Y-54786473D01*
X150739339Y-54939339D01*
X150586472Y-55118323D01*
X150463489Y-55319012D01*
X150373413Y-55536474D01*
X150318466Y-55765347D01*
X150308992Y-55885729D01*
X150284108Y-55951017D01*
X150227877Y-55992488D01*
X150185374Y-56000000D01*
X149314625Y-56000000D01*
X149247586Y-55980315D01*
X149201831Y-55927511D01*
X149191007Y-55885729D01*
X149181532Y-55765347D01*
X149126585Y-55536474D01*
X149036509Y-55319013D01*
X148913526Y-55118323D01*
X148760659Y-54939340D01*
X148581676Y-54786473D01*
X148380986Y-54663490D01*
X148163525Y-54573414D01*
X147934652Y-54518467D01*
X147702433Y-54500191D01*
X147697554Y-54500000D01*
X144508126Y-54500000D01*
X144491940Y-54498939D01*
X144386775Y-54485093D01*
X144355508Y-54476715D01*
X144265081Y-54439259D01*
X144237048Y-54423074D01*
X144159398Y-54363491D01*
X144136508Y-54340601D01*
X144076925Y-54262951D01*
X144060740Y-54234918D01*
X144023284Y-54144491D01*
X144014906Y-54113223D01*
X144001061Y-54008059D01*
X144000000Y-53991874D01*
X144000000Y-50908116D01*
X144001061Y-50891932D01*
X144014904Y-50786777D01*
X144023282Y-50755508D01*
X144060739Y-50665080D01*
X144076924Y-50637047D01*
X144136507Y-50559397D01*
X144159397Y-50536507D01*
X144237047Y-50476924D01*
X144265081Y-50460739D01*
X144355509Y-50423283D01*
X144386777Y-50414905D01*
X144491940Y-50401061D01*
X144508124Y-50400000D01*
X154991874Y-50400000D01*
X155008059Y-50401061D01*
G37*
G36*
X150289040Y-63119686D02*
G01*
X150334795Y-63172490D01*
X150336562Y-63176549D01*
X150366986Y-63250000D01*
X150446445Y-63353554D01*
X150550000Y-63433014D01*
X150670589Y-63482963D01*
X150795871Y-63499457D01*
X150804162Y-63499986D01*
X150941656Y-63499508D01*
X150958273Y-63500568D01*
X151089239Y-63517810D01*
X151120506Y-63526188D01*
X151235178Y-63573686D01*
X151263212Y-63589871D01*
X151361681Y-63665429D01*
X151384571Y-63688319D01*
X151460129Y-63786789D01*
X151476314Y-63814823D01*
X151523811Y-63929492D01*
X151532189Y-63960758D01*
X151548939Y-64087982D01*
X151550000Y-64104168D01*
X151550000Y-65993917D01*
X151549403Y-66006071D01*
X151531023Y-66192689D01*
X151526281Y-66216530D01*
X151473619Y-66390134D01*
X151464316Y-66412592D01*
X151378802Y-66572578D01*
X151365297Y-66592790D01*
X151250210Y-66733023D01*
X151233022Y-66750211D01*
X151092790Y-66865296D01*
X151072579Y-66878801D01*
X150912590Y-66964318D01*
X150890131Y-66973621D01*
X150716529Y-67026282D01*
X150692687Y-67031024D01*
X150506062Y-67049404D01*
X150493909Y-67050001D01*
X149006083Y-67050001D01*
X148993928Y-67049404D01*
X148807309Y-67031023D01*
X148783469Y-67026281D01*
X148609868Y-66973620D01*
X148587410Y-66964317D01*
X148427420Y-66878800D01*
X148407208Y-66865295D01*
X148266978Y-66750211D01*
X148249790Y-66733023D01*
X148134705Y-66592791D01*
X148121200Y-66572579D01*
X148035683Y-66412589D01*
X148026380Y-66390131D01*
X147973719Y-66216532D01*
X147968977Y-66192691D01*
X147950597Y-66006073D01*
X147950000Y-65993919D01*
X147950000Y-64058128D01*
X147951061Y-64041942D01*
X147966611Y-63923834D01*
X147974989Y-63892568D01*
X148017439Y-63790084D01*
X148033624Y-63762050D01*
X148101152Y-63674045D01*
X148124041Y-63651155D01*
X148212050Y-63583623D01*
X148240085Y-63567438D01*
X148342567Y-63524989D01*
X148373834Y-63516611D01*
X148491941Y-63501062D01*
X148508126Y-63500001D01*
X148695947Y-63500001D01*
X148704018Y-63499471D01*
X148829410Y-63482962D01*
X148949999Y-63433013D01*
X149053553Y-63353554D01*
X149133012Y-63250001D01*
X149163438Y-63176548D01*
X149207280Y-63122144D01*
X149273574Y-63100080D01*
X149277999Y-63100001D01*
X150222001Y-63100001D01*
X150289040Y-63119686D01*
G37*
G36*
X151006071Y-98450597D02*
G01*
X151192688Y-98468976D01*
X151216530Y-98473718D01*
X151390134Y-98526380D01*
X151412592Y-98535683D01*
X151572578Y-98621197D01*
X151592790Y-98634702D01*
X151733023Y-98749789D01*
X151750211Y-98766977D01*
X151865296Y-98907209D01*
X151878801Y-98927420D01*
X151964318Y-99087409D01*
X151973621Y-99109868D01*
X152026282Y-99283470D01*
X152031024Y-99307311D01*
X152049404Y-99493927D01*
X152050001Y-99506081D01*
X152050001Y-100993916D01*
X152049404Y-101006071D01*
X152031022Y-101192691D01*
X152026280Y-101216532D01*
X151973618Y-101390134D01*
X151964315Y-101412591D01*
X151878801Y-101572578D01*
X151865296Y-101592790D01*
X151750210Y-101733022D01*
X151733022Y-101750210D01*
X151592790Y-101865296D01*
X151572578Y-101878801D01*
X151412591Y-101964315D01*
X151390134Y-101973618D01*
X151216532Y-102026280D01*
X151192691Y-102031022D01*
X151006073Y-102049403D01*
X150993918Y-102050000D01*
X149058128Y-102050000D01*
X149041941Y-102048939D01*
X148923833Y-102033388D01*
X148892568Y-102025010D01*
X148790084Y-101982560D01*
X148762050Y-101966375D01*
X148674045Y-101898847D01*
X148651155Y-101875958D01*
X148583623Y-101787949D01*
X148567438Y-101759914D01*
X148524989Y-101657432D01*
X148516611Y-101626165D01*
X148501062Y-101508058D01*
X148500001Y-101491873D01*
X148500001Y-101304053D01*
X148499471Y-101295981D01*
X148482962Y-101170589D01*
X148433013Y-101050000D01*
X148353554Y-100946446D01*
X148250001Y-100866987D01*
X148176548Y-100836562D01*
X148122144Y-100792720D01*
X148100080Y-100726426D01*
X148100001Y-100722001D01*
X148100001Y-99777999D01*
X148119686Y-99710960D01*
X148172490Y-99665205D01*
X148176549Y-99663438D01*
X148250000Y-99633013D01*
X148353554Y-99553554D01*
X148433014Y-99449999D01*
X148482963Y-99329410D01*
X148499457Y-99204128D01*
X148499986Y-99195837D01*
X148499508Y-99058343D01*
X148500568Y-99041726D01*
X148517810Y-98910760D01*
X148526188Y-98879493D01*
X148573686Y-98764821D01*
X148589871Y-98736787D01*
X148665429Y-98638318D01*
X148688319Y-98615428D01*
X148786789Y-98539870D01*
X148814823Y-98523685D01*
X148929492Y-98476188D01*
X148960759Y-98467810D01*
X149087985Y-98451061D01*
X149104170Y-98450000D01*
X150993918Y-98450000D01*
X151006071Y-98450597D01*
G37*
G36*
X199108067Y-76501061D02*
G01*
X199213222Y-76514904D01*
X199244491Y-76523282D01*
X199334919Y-76560739D01*
X199362952Y-76576924D01*
X199440602Y-76636507D01*
X199463492Y-76659397D01*
X199523075Y-76737047D01*
X199539260Y-76765080D01*
X199576717Y-76855508D01*
X199585095Y-76886777D01*
X199598939Y-76991939D01*
X199600000Y-77008123D01*
X199600000Y-85999983D01*
X199599999Y-86000017D01*
X199599999Y-87491874D01*
X199598938Y-87508059D01*
X199585093Y-87613223D01*
X199576715Y-87644491D01*
X199539259Y-87734918D01*
X199523074Y-87762951D01*
X199463491Y-87840601D01*
X199440601Y-87863491D01*
X199362951Y-87923074D01*
X199334918Y-87939259D01*
X199244491Y-87976715D01*
X199213223Y-87985093D01*
X199108059Y-87998938D01*
X199091874Y-87999999D01*
X196008121Y-87999999D01*
X195991937Y-87998938D01*
X195886778Y-87985095D01*
X195855509Y-87976717D01*
X195765081Y-87939260D01*
X195737047Y-87923074D01*
X195659394Y-87863488D01*
X195636505Y-87840599D01*
X195576923Y-87762950D01*
X195560738Y-87734916D01*
X195523283Y-87644491D01*
X195514905Y-87613224D01*
X195501060Y-87508058D01*
X195499999Y-87491873D01*
X195499999Y-84302445D01*
X195499808Y-84297565D01*
X195481532Y-84065346D01*
X195426586Y-83836474D01*
X195336509Y-83619012D01*
X195213526Y-83418322D01*
X195060660Y-83239339D01*
X194881676Y-83086472D01*
X194680987Y-82963489D01*
X194463525Y-82873413D01*
X194234652Y-82818466D01*
X194114270Y-82808991D01*
X194048982Y-82784106D01*
X194007511Y-82727875D01*
X194000000Y-82685373D01*
X194000000Y-81814623D01*
X194019685Y-81747584D01*
X194072489Y-81701829D01*
X194114273Y-81691005D01*
X194234651Y-81681532D01*
X194463525Y-81626585D01*
X194680987Y-81536508D01*
X194881680Y-81413523D01*
X195060661Y-81260660D01*
X195213524Y-81081679D01*
X195336509Y-80880986D01*
X195426585Y-80663524D01*
X195481532Y-80434651D01*
X195499808Y-80202432D01*
X195500000Y-80197552D01*
X195500000Y-77008125D01*
X195501061Y-76991940D01*
X195514906Y-76886776D01*
X195523284Y-76855508D01*
X195560740Y-76765081D01*
X195576925Y-76737048D01*
X195636508Y-76659398D01*
X195659398Y-76636508D01*
X195737048Y-76576925D01*
X195765081Y-76560740D01*
X195855508Y-76523284D01*
X195886776Y-76514906D01*
X195991941Y-76501061D01*
X196008126Y-76500000D01*
X199091883Y-76500000D01*
X199108067Y-76501061D01*
G37*
G36*
X199108067Y-59001061D02*
G01*
X199213222Y-59014904D01*
X199244491Y-59023282D01*
X199334919Y-59060739D01*
X199362952Y-59076924D01*
X199440602Y-59136507D01*
X199463492Y-59159397D01*
X199523075Y-59237047D01*
X199539260Y-59265080D01*
X199576717Y-59355508D01*
X199585095Y-59386777D01*
X199598939Y-59491939D01*
X199600000Y-59508123D01*
X199600000Y-68499983D01*
X199599999Y-68500017D01*
X199599999Y-69991874D01*
X199598938Y-70008059D01*
X199585093Y-70113223D01*
X199576715Y-70144491D01*
X199539259Y-70234918D01*
X199523074Y-70262951D01*
X199463491Y-70340601D01*
X199440601Y-70363491D01*
X199362951Y-70423074D01*
X199334918Y-70439259D01*
X199244491Y-70476715D01*
X199213223Y-70485093D01*
X199108059Y-70498938D01*
X199091874Y-70499999D01*
X196008121Y-70499999D01*
X195991937Y-70498938D01*
X195886778Y-70485095D01*
X195855509Y-70476717D01*
X195765081Y-70439260D01*
X195737047Y-70423074D01*
X195659394Y-70363488D01*
X195636505Y-70340599D01*
X195576923Y-70262950D01*
X195560738Y-70234916D01*
X195523283Y-70144491D01*
X195514905Y-70113224D01*
X195501060Y-70008058D01*
X195499999Y-69991873D01*
X195499999Y-66802445D01*
X195499808Y-66797565D01*
X195481532Y-66565346D01*
X195426586Y-66336474D01*
X195336509Y-66119012D01*
X195213526Y-65918322D01*
X195060660Y-65739339D01*
X194881676Y-65586472D01*
X194680987Y-65463489D01*
X194463525Y-65373413D01*
X194234652Y-65318466D01*
X194114270Y-65308991D01*
X194048982Y-65284106D01*
X194007511Y-65227875D01*
X194000000Y-65185373D01*
X194000000Y-64314623D01*
X194019685Y-64247584D01*
X194072489Y-64201829D01*
X194114273Y-64191005D01*
X194234651Y-64181532D01*
X194463525Y-64126585D01*
X194680987Y-64036508D01*
X194881680Y-63913523D01*
X195060661Y-63760660D01*
X195213524Y-63581679D01*
X195336509Y-63380986D01*
X195426585Y-63163524D01*
X195481532Y-62934651D01*
X195499808Y-62702432D01*
X195500000Y-62697552D01*
X195500000Y-59508125D01*
X195501061Y-59491940D01*
X195514906Y-59386776D01*
X195523284Y-59355508D01*
X195560740Y-59265081D01*
X195576925Y-59237048D01*
X195636508Y-59159398D01*
X195659398Y-59136508D01*
X195737048Y-59076925D01*
X195765081Y-59060740D01*
X195855508Y-59023284D01*
X195886776Y-59014906D01*
X195991941Y-59001061D01*
X196008126Y-59000000D01*
X199091883Y-59000000D01*
X199108067Y-59001061D01*
G37*
G36*
X185958065Y-80451061D02*
G01*
X186076166Y-80466611D01*
X186107431Y-80474989D01*
X186209915Y-80517439D01*
X186237949Y-80533624D01*
X186325954Y-80601152D01*
X186348844Y-80624041D01*
X186416376Y-80712050D01*
X186432561Y-80740085D01*
X186475010Y-80842567D01*
X186483388Y-80873833D01*
X186498938Y-80991940D01*
X186499999Y-81008126D01*
X186499999Y-81195946D01*
X186500528Y-81204018D01*
X186517037Y-81329410D01*
X186566986Y-81449999D01*
X186646445Y-81553553D01*
X186749999Y-81633012D01*
X186823451Y-81663437D01*
X186877855Y-81707278D01*
X186899920Y-81773572D01*
X186899999Y-81777998D01*
X186899999Y-82722000D01*
X186880314Y-82789039D01*
X186827510Y-82834794D01*
X186823452Y-82836561D01*
X186749998Y-82866986D01*
X186646445Y-82946445D01*
X186566985Y-83050000D01*
X186517036Y-83170589D01*
X186500542Y-83295871D01*
X186500013Y-83304162D01*
X186500491Y-83441657D01*
X186499431Y-83458273D01*
X186482189Y-83589239D01*
X186473811Y-83620506D01*
X186426313Y-83735178D01*
X186410128Y-83763212D01*
X186334570Y-83861681D01*
X186311680Y-83884571D01*
X186213210Y-83960129D01*
X186185176Y-83976314D01*
X186070507Y-84023811D01*
X186039241Y-84032189D01*
X185912016Y-84048939D01*
X185895830Y-84050000D01*
X184006082Y-84050000D01*
X183993928Y-84049403D01*
X183807310Y-84031023D01*
X183783469Y-84026281D01*
X183609865Y-83973619D01*
X183587407Y-83964316D01*
X183427421Y-83878802D01*
X183407209Y-83865297D01*
X183266976Y-83750210D01*
X183249788Y-83733022D01*
X183134703Y-83592790D01*
X183121198Y-83572579D01*
X183035681Y-83412590D01*
X183026378Y-83390131D01*
X182973717Y-83216529D01*
X182968975Y-83192687D01*
X182950596Y-83006061D01*
X182949999Y-82993908D01*
X182949999Y-81506073D01*
X182950596Y-81493918D01*
X182968976Y-81307309D01*
X182973718Y-81283469D01*
X183026379Y-81109868D01*
X183035682Y-81087410D01*
X183121199Y-80927420D01*
X183134704Y-80907208D01*
X183249788Y-80766978D01*
X183266976Y-80749790D01*
X183407208Y-80634705D01*
X183427420Y-80621200D01*
X183587410Y-80535683D01*
X183609868Y-80526380D01*
X183783467Y-80473719D01*
X183807308Y-80468977D01*
X183993927Y-80450597D01*
X184006081Y-80450000D01*
X185941878Y-80450000D01*
X185958065Y-80451061D01*
G37*
G36*
X167789040Y-63119686D02*
G01*
X167834795Y-63172490D01*
X167836562Y-63176549D01*
X167866986Y-63250000D01*
X167946445Y-63353554D01*
X168050000Y-63433014D01*
X168170589Y-63482963D01*
X168295871Y-63499457D01*
X168304162Y-63499986D01*
X168441656Y-63499508D01*
X168458273Y-63500568D01*
X168589239Y-63517810D01*
X168620506Y-63526188D01*
X168735178Y-63573686D01*
X168763212Y-63589871D01*
X168861681Y-63665429D01*
X168884571Y-63688319D01*
X168960129Y-63786789D01*
X168976314Y-63814823D01*
X169023811Y-63929492D01*
X169032189Y-63960758D01*
X169048939Y-64087982D01*
X169050000Y-64104168D01*
X169050000Y-65993917D01*
X169049403Y-66006071D01*
X169031023Y-66192689D01*
X169026281Y-66216530D01*
X168973619Y-66390134D01*
X168964316Y-66412592D01*
X168878802Y-66572578D01*
X168865297Y-66592790D01*
X168750210Y-66733023D01*
X168733022Y-66750211D01*
X168592790Y-66865296D01*
X168572579Y-66878801D01*
X168412590Y-66964318D01*
X168390131Y-66973621D01*
X168216529Y-67026282D01*
X168192687Y-67031024D01*
X168006062Y-67049404D01*
X167993909Y-67050001D01*
X166506083Y-67050001D01*
X166493928Y-67049404D01*
X166307309Y-67031023D01*
X166283469Y-67026281D01*
X166109868Y-66973620D01*
X166087410Y-66964317D01*
X165927420Y-66878800D01*
X165907208Y-66865295D01*
X165766978Y-66750211D01*
X165749790Y-66733023D01*
X165634705Y-66592791D01*
X165621200Y-66572579D01*
X165535683Y-66412589D01*
X165526380Y-66390131D01*
X165473719Y-66216532D01*
X165468977Y-66192691D01*
X165450597Y-66006073D01*
X165450000Y-65993919D01*
X165450000Y-64058128D01*
X165451061Y-64041942D01*
X165466611Y-63923834D01*
X165474989Y-63892568D01*
X165517439Y-63790084D01*
X165533624Y-63762050D01*
X165601152Y-63674045D01*
X165624041Y-63651155D01*
X165712050Y-63583623D01*
X165740085Y-63567438D01*
X165842567Y-63524989D01*
X165873834Y-63516611D01*
X165991941Y-63501062D01*
X166008126Y-63500001D01*
X166195947Y-63500001D01*
X166204018Y-63499471D01*
X166329410Y-63482962D01*
X166449999Y-63433013D01*
X166553553Y-63353554D01*
X166633012Y-63250001D01*
X166663438Y-63176548D01*
X166707280Y-63122144D01*
X166773574Y-63100080D01*
X166777999Y-63100001D01*
X167722001Y-63100001D01*
X167789040Y-63119686D01*
G37*
G36*
X139008062Y-77001061D02*
G01*
X139113221Y-77014904D01*
X139144490Y-77023282D01*
X139234918Y-77060739D01*
X139262952Y-77076925D01*
X139340605Y-77136511D01*
X139363494Y-77159400D01*
X139423076Y-77237049D01*
X139439261Y-77265083D01*
X139476716Y-77355508D01*
X139485094Y-77386775D01*
X139498939Y-77491941D01*
X139500000Y-77508126D01*
X139499999Y-80697554D01*
X139500190Y-80702434D01*
X139518467Y-80934653D01*
X139573413Y-81163525D01*
X139663490Y-81380987D01*
X139786475Y-81581680D01*
X139939338Y-81760661D01*
X140118319Y-81913524D01*
X140319012Y-82036509D01*
X140536474Y-82126586D01*
X140765346Y-82181532D01*
X140885729Y-82191007D01*
X140951017Y-82215891D01*
X140992488Y-82272122D01*
X141000000Y-82314625D01*
X141000000Y-83185375D01*
X140980315Y-83252414D01*
X140927511Y-83298169D01*
X140885729Y-83308993D01*
X140765346Y-83318467D01*
X140536474Y-83373413D01*
X140319012Y-83463490D01*
X140118322Y-83586473D01*
X139939339Y-83739339D01*
X139786472Y-83918323D01*
X139663489Y-84119012D01*
X139573413Y-84336474D01*
X139518466Y-84565347D01*
X139500190Y-84797566D01*
X139499999Y-84802446D01*
X139499999Y-87991874D01*
X139498938Y-88008059D01*
X139485093Y-88113223D01*
X139476715Y-88144491D01*
X139439259Y-88234918D01*
X139423074Y-88262951D01*
X139363491Y-88340601D01*
X139340601Y-88363491D01*
X139262951Y-88423074D01*
X139234918Y-88439259D01*
X139144491Y-88476715D01*
X139113224Y-88485093D01*
X139008060Y-88498939D01*
X138991874Y-88500000D01*
X135908117Y-88500000D01*
X135891932Y-88498939D01*
X135786776Y-88485095D01*
X135755508Y-88476717D01*
X135665080Y-88439260D01*
X135637047Y-88423075D01*
X135559397Y-88363492D01*
X135536507Y-88340602D01*
X135476924Y-88262952D01*
X135460739Y-88234918D01*
X135423283Y-88144490D01*
X135414905Y-88113222D01*
X135401061Y-88008059D01*
X135400000Y-87991875D01*
X135400000Y-77508125D01*
X135401061Y-77491940D01*
X135414906Y-77386776D01*
X135423284Y-77355508D01*
X135460740Y-77265081D01*
X135476925Y-77237048D01*
X135536508Y-77159398D01*
X135559398Y-77136508D01*
X135637048Y-77076925D01*
X135665081Y-77060740D01*
X135755508Y-77023284D01*
X135786776Y-77014906D01*
X135891940Y-77001061D01*
X135908125Y-77000000D01*
X138991878Y-77000000D01*
X139008062Y-77001061D01*
G37*
G36*
X168506062Y-80450597D02*
G01*
X168692689Y-80468977D01*
X168716531Y-80473719D01*
X168890134Y-80526381D01*
X168912592Y-80535684D01*
X169072577Y-80621198D01*
X169092789Y-80634703D01*
X169233022Y-80749790D01*
X169250210Y-80766978D01*
X169365295Y-80907209D01*
X169378800Y-80927420D01*
X169464317Y-81087409D01*
X169473620Y-81109868D01*
X169526281Y-81283469D01*
X169531023Y-81307311D01*
X169549402Y-81493938D01*
X169549999Y-81506091D01*
X169549999Y-83441874D01*
X169548938Y-83458059D01*
X169533389Y-83576165D01*
X169525011Y-83607433D01*
X169482561Y-83709916D01*
X169466376Y-83737950D01*
X169398844Y-83825959D01*
X169375954Y-83848848D01*
X169287950Y-83916375D01*
X169259917Y-83932560D01*
X169157431Y-83975011D01*
X169126164Y-83983389D01*
X169008059Y-83998939D01*
X168991873Y-84000000D01*
X168804054Y-84000000D01*
X168795976Y-84000529D01*
X168670590Y-84017035D01*
X168549998Y-84066987D01*
X168446445Y-84146445D01*
X168366985Y-84250000D01*
X168336561Y-84323452D01*
X168292720Y-84377856D01*
X168226426Y-84399921D01*
X168222000Y-84400000D01*
X167278000Y-84400000D01*
X167210961Y-84380315D01*
X167165206Y-84327511D01*
X167163439Y-84323453D01*
X167133013Y-84249998D01*
X167053554Y-84146445D01*
X166950001Y-84066987D01*
X166829409Y-84017036D01*
X166704020Y-84000528D01*
X166695948Y-83999999D01*
X166508127Y-83999999D01*
X166491941Y-83998938D01*
X166373835Y-83983388D01*
X166342568Y-83975010D01*
X166240082Y-83932559D01*
X166212050Y-83916375D01*
X166124044Y-83848847D01*
X166101152Y-83825955D01*
X166033624Y-83737949D01*
X166017440Y-83709917D01*
X165974989Y-83607431D01*
X165966611Y-83576165D01*
X165951061Y-83458065D01*
X165950000Y-83441878D01*
X165950000Y-81506092D01*
X165950597Y-81493939D01*
X165968977Y-81307312D01*
X165973719Y-81283470D01*
X166026381Y-81109867D01*
X166035684Y-81087409D01*
X166121199Y-80927422D01*
X166134704Y-80907210D01*
X166249790Y-80766978D01*
X166266978Y-80749790D01*
X166407210Y-80634704D01*
X166427422Y-80621199D01*
X166587409Y-80535684D01*
X166609867Y-80526381D01*
X166783470Y-80473719D01*
X166807312Y-80468977D01*
X166993939Y-80450597D01*
X167006092Y-80450000D01*
X168493909Y-80450000D01*
X168506062Y-80450597D01*
G37*
G36*
X168252415Y-109019685D02*
G01*
X168298170Y-109072489D01*
X168308994Y-109114272D01*
X168318467Y-109234652D01*
X168373414Y-109463525D01*
X168463491Y-109680987D01*
X168586476Y-109881680D01*
X168739339Y-110060661D01*
X168918320Y-110213524D01*
X169119013Y-110336509D01*
X169336475Y-110426585D01*
X169565348Y-110481532D01*
X169797567Y-110499808D01*
X169802447Y-110500000D01*
X172991874Y-110500000D01*
X173008059Y-110501061D01*
X173113223Y-110514906D01*
X173144491Y-110523284D01*
X173234918Y-110560740D01*
X173262951Y-110576925D01*
X173340601Y-110636508D01*
X173363491Y-110659398D01*
X173423074Y-110737048D01*
X173439259Y-110765081D01*
X173476715Y-110855508D01*
X173485093Y-110886775D01*
X173498939Y-110991939D01*
X173500000Y-111008125D01*
X173500000Y-114091874D01*
X173498939Y-114108060D01*
X173485093Y-114213224D01*
X173476715Y-114244491D01*
X173439259Y-114334918D01*
X173423074Y-114362951D01*
X173363491Y-114440601D01*
X173340601Y-114463491D01*
X173262951Y-114523074D01*
X173234918Y-114539259D01*
X173144491Y-114576715D01*
X173113223Y-114585093D01*
X173008059Y-114598938D01*
X172991874Y-114599999D01*
X171000000Y-114600000D01*
X164000016Y-114600000D01*
X163999984Y-114599999D01*
X162508125Y-114599999D01*
X162491940Y-114598938D01*
X162386776Y-114585093D01*
X162355508Y-114576715D01*
X162265081Y-114539259D01*
X162237048Y-114523074D01*
X162159398Y-114463491D01*
X162136508Y-114440601D01*
X162076925Y-114362951D01*
X162060740Y-114334918D01*
X162023284Y-114244491D01*
X162014906Y-114213223D01*
X162001061Y-114108059D01*
X162000000Y-114091874D01*
X162000000Y-111008121D01*
X162001061Y-110991937D01*
X162014904Y-110886778D01*
X162023282Y-110855509D01*
X162060739Y-110765081D01*
X162076925Y-110737047D01*
X162136511Y-110659394D01*
X162159400Y-110636505D01*
X162237049Y-110576923D01*
X162265083Y-110560738D01*
X162355508Y-110523283D01*
X162386775Y-110514905D01*
X162491941Y-110501060D01*
X162508126Y-110499999D01*
X165697554Y-110499999D01*
X165702434Y-110499808D01*
X165934653Y-110481532D01*
X166163525Y-110426586D01*
X166380987Y-110336509D01*
X166581677Y-110213526D01*
X166760660Y-110060660D01*
X166913527Y-109881676D01*
X167036510Y-109680987D01*
X167126586Y-109463525D01*
X167181533Y-109234652D01*
X167191008Y-109114271D01*
X167215892Y-109048983D01*
X167272123Y-109007512D01*
X167314626Y-109000000D01*
X168185376Y-109000000D01*
X168252415Y-109019685D01*
G37*
G36*
X207094453Y-40001899D02*
G01*
X207427601Y-40031046D01*
X207441869Y-40033136D01*
X207769381Y-40100762D01*
X207783309Y-40104494D01*
X208100762Y-40209686D01*
X208114164Y-40215010D01*
X208417259Y-40356345D01*
X208429951Y-40363189D01*
X208714582Y-40538753D01*
X208726394Y-40547023D01*
X208988720Y-40754443D01*
X208999492Y-40764030D01*
X209235969Y-41000507D01*
X209245556Y-41011279D01*
X209452976Y-41273605D01*
X209461246Y-41285417D01*
X209636810Y-41570048D01*
X209643654Y-41582740D01*
X209784989Y-41885835D01*
X209790313Y-41899237D01*
X209895505Y-42216690D01*
X209899237Y-42230618D01*
X209966863Y-42558130D01*
X209968953Y-42572398D01*
X209998100Y-42905546D01*
X209998520Y-42919959D01*
X209988794Y-43254248D01*
X209987537Y-43268614D01*
X209939067Y-43599507D01*
X209936151Y-43613629D01*
X209849594Y-43936663D01*
X209845058Y-43950350D01*
X209721589Y-44261141D01*
X209715495Y-44274210D01*
X209556777Y-44568571D01*
X209549207Y-44580844D01*
X209357391Y-44854787D01*
X209348447Y-44866099D01*
X209123757Y-45118581D01*
X209118715Y-45123919D01*
X207997640Y-46242638D01*
X207997639Y-46242641D01*
X208000000Y-118755000D01*
X209118812Y-119876167D01*
X209123670Y-119881321D01*
X209348447Y-120133900D01*
X209357391Y-120145212D01*
X209549207Y-120419155D01*
X209556777Y-120431428D01*
X209715495Y-120725789D01*
X209721589Y-120738858D01*
X209845058Y-121049649D01*
X209849594Y-121063336D01*
X209936151Y-121386370D01*
X209939067Y-121400492D01*
X209987537Y-121731385D01*
X209988794Y-121745751D01*
X209998520Y-122080040D01*
X209998100Y-122094453D01*
X209968953Y-122427601D01*
X209966863Y-122441869D01*
X209899237Y-122769381D01*
X209895505Y-122783309D01*
X209790313Y-123100762D01*
X209784989Y-123114164D01*
X209643654Y-123417259D01*
X209636810Y-123429951D01*
X209461246Y-123714582D01*
X209452976Y-123726394D01*
X209245556Y-123988720D01*
X209235969Y-123999492D01*
X208999492Y-124235969D01*
X208988720Y-124245556D01*
X208726394Y-124452976D01*
X208714582Y-124461246D01*
X208429951Y-124636810D01*
X208417259Y-124643654D01*
X208114164Y-124784989D01*
X208100762Y-124790313D01*
X207783309Y-124895505D01*
X207769381Y-124899237D01*
X207441869Y-124966863D01*
X207427601Y-124968953D01*
X207094453Y-124998100D01*
X207080040Y-124998520D01*
X206745751Y-124988794D01*
X206731385Y-124987537D01*
X206400492Y-124939067D01*
X206386370Y-124936151D01*
X206063336Y-124849594D01*
X206049649Y-124845058D01*
X205738858Y-124721589D01*
X205725789Y-124715495D01*
X205431428Y-124556777D01*
X205419155Y-124549207D01*
X205145212Y-124357391D01*
X205133900Y-124348447D01*
X204881418Y-124123757D01*
X204876080Y-124118715D01*
X203757360Y-122997640D01*
X203757358Y-122997639D01*
X185001418Y-122999674D01*
X184997940Y-122999772D01*
X184667274Y-123018401D01*
X184660381Y-123019179D01*
X184335592Y-123074394D01*
X184328835Y-123075937D01*
X184012270Y-123167169D01*
X184005708Y-123169466D01*
X183701369Y-123295555D01*
X183695091Y-123298579D01*
X183406782Y-123457948D01*
X183400896Y-123461647D01*
X183132234Y-123652299D01*
X183126794Y-123656638D01*
X182881174Y-123876162D01*
X182876250Y-123881086D01*
X182656751Y-124126727D01*
X182652411Y-124132170D01*
X182461781Y-124400858D01*
X182458097Y-124406721D01*
X182298745Y-124695068D01*
X182295727Y-124701334D01*
X182169662Y-125005699D01*
X182167370Y-125012252D01*
X182076175Y-125328812D01*
X182074627Y-125335596D01*
X182019444Y-125660382D01*
X182018668Y-125667274D01*
X182000096Y-125997950D01*
X182000000Y-126001403D01*
X182000000Y-126496519D01*
X181999805Y-126503472D01*
X181981527Y-126828941D01*
X181979970Y-126842759D01*
X181925950Y-127160695D01*
X181922856Y-127174252D01*
X181833576Y-127484148D01*
X181828983Y-127497272D01*
X181705572Y-127795215D01*
X181699539Y-127807744D01*
X181543538Y-128090006D01*
X181536139Y-128101780D01*
X181349528Y-128364783D01*
X181340859Y-128375655D01*
X181125960Y-128616127D01*
X181116127Y-128625960D01*
X180875655Y-128840859D01*
X180864783Y-128849528D01*
X180601780Y-129036139D01*
X180590006Y-129043538D01*
X180307744Y-129199539D01*
X180295215Y-129205572D01*
X179997272Y-129328983D01*
X179984148Y-129333576D01*
X179674252Y-129422856D01*
X179660695Y-129425950D01*
X179342759Y-129479970D01*
X179328941Y-129481527D01*
X179003472Y-129499805D01*
X178996519Y-129500000D01*
X156004567Y-129500000D01*
X155997616Y-129499805D01*
X155672073Y-129481528D01*
X155658248Y-129479970D01*
X155340238Y-129425924D01*
X155326678Y-129422828D01*
X155016731Y-129333511D01*
X155003604Y-129328917D01*
X154705590Y-129205443D01*
X154693059Y-129199407D01*
X154410755Y-129043339D01*
X154398979Y-129035937D01*
X154135938Y-128849242D01*
X154125065Y-128840568D01*
X153884574Y-128625578D01*
X153874741Y-128615742D01*
X153659843Y-128375177D01*
X153651174Y-128364301D01*
X153464575Y-128101191D01*
X153457177Y-128089412D01*
X153301212Y-127807048D01*
X153295181Y-127794516D01*
X153171819Y-127496465D01*
X153167229Y-127483335D01*
X153078023Y-127173349D01*
X153074932Y-127159788D01*
X153021002Y-126841750D01*
X153019450Y-126827928D01*
X153001283Y-126502391D01*
X153001090Y-126495437D01*
X153001269Y-126000778D01*
X153001174Y-125997338D01*
X152982681Y-125666518D01*
X152981907Y-125659633D01*
X152926810Y-125334704D01*
X152925263Y-125327917D01*
X152834125Y-125011218D01*
X152831828Y-125004648D01*
X152705791Y-124700144D01*
X152702780Y-124693887D01*
X152543427Y-124405408D01*
X152539729Y-124399520D01*
X152349079Y-124130716D01*
X152344734Y-124125266D01*
X152125180Y-123879510D01*
X152120258Y-123874587D01*
X151874555Y-123654962D01*
X151869113Y-123650621D01*
X151600356Y-123459896D01*
X151594472Y-123456198D01*
X151306035Y-123296768D01*
X151299782Y-123293756D01*
X150995304Y-123167635D01*
X150988736Y-123165337D01*
X150672047Y-123074110D01*
X150665286Y-123072568D01*
X150340377Y-123017384D01*
X150333466Y-123016606D01*
X150002680Y-122998063D01*
X149999202Y-122997966D01*
X131244999Y-123000000D01*
X130123832Y-124118812D01*
X130118678Y-124123670D01*
X129866099Y-124348447D01*
X129854787Y-124357391D01*
X129580844Y-124549207D01*
X129568571Y-124556777D01*
X129274210Y-124715495D01*
X129261141Y-124721589D01*
X128950350Y-124845058D01*
X128936663Y-124849594D01*
X128613629Y-124936151D01*
X128599507Y-124939067D01*
X128268614Y-124987537D01*
X128254248Y-124988794D01*
X127919959Y-124998520D01*
X127905546Y-124998100D01*
X127572398Y-124968953D01*
X127558130Y-124966863D01*
X127230618Y-124899237D01*
X127216690Y-124895505D01*
X126899237Y-124790313D01*
X126885835Y-124784989D01*
X126582740Y-124643654D01*
X126570048Y-124636810D01*
X126285417Y-124461246D01*
X126273605Y-124452976D01*
X126011279Y-124245556D01*
X126000507Y-124235969D01*
X125764030Y-123999492D01*
X125754443Y-123988720D01*
X125547023Y-123726394D01*
X125538753Y-123714582D01*
X125363189Y-123429951D01*
X125356345Y-123417259D01*
X125215010Y-123114164D01*
X125209686Y-123100762D01*
X125104494Y-122783309D01*
X125100762Y-122769381D01*
X125033136Y-122441869D01*
X125031046Y-122427601D01*
X125001899Y-122094453D01*
X125001479Y-122080040D01*
X125003808Y-122000000D01*
X126499999Y-122000000D01*
X126520457Y-122246887D01*
X126581275Y-122487051D01*
X126680789Y-122713923D01*
X126816286Y-122921315D01*
X126984081Y-123103588D01*
X127179572Y-123255746D01*
X127397460Y-123373661D01*
X127631768Y-123454099D01*
X127876132Y-123494877D01*
X128123868Y-123494877D01*
X128368231Y-123454099D01*
X128602539Y-123373661D01*
X128820427Y-123255746D01*
X129015918Y-123103588D01*
X129183713Y-122921315D01*
X129319210Y-122713923D01*
X129418724Y-122487051D01*
X129479542Y-122246887D01*
X129500000Y-122000000D01*
X205499999Y-122000000D01*
X205520457Y-122246887D01*
X205581275Y-122487051D01*
X205680789Y-122713923D01*
X205816286Y-122921315D01*
X205984081Y-123103588D01*
X206179572Y-123255746D01*
X206397460Y-123373661D01*
X206631768Y-123454099D01*
X206876132Y-123494877D01*
X207123868Y-123494877D01*
X207368231Y-123454099D01*
X207602539Y-123373661D01*
X207820427Y-123255746D01*
X208015918Y-123103588D01*
X208183713Y-122921315D01*
X208319210Y-122713923D01*
X208418724Y-122487051D01*
X208479542Y-122246887D01*
X208500000Y-122000000D01*
X208479542Y-121753112D01*
X208418724Y-121512948D01*
X208319210Y-121286076D01*
X208183713Y-121078684D01*
X208015918Y-120896411D01*
X207820427Y-120744253D01*
X207602539Y-120626338D01*
X207368231Y-120545900D01*
X207123868Y-120505123D01*
X206876132Y-120505123D01*
X206631768Y-120545900D01*
X206397460Y-120626338D01*
X206179572Y-120744253D01*
X205984081Y-120896411D01*
X205816286Y-121078684D01*
X205680789Y-121286076D01*
X205581275Y-121512948D01*
X205520457Y-121753112D01*
X205499999Y-122000000D01*
X129500000Y-122000000D01*
X129500000Y-121999999D01*
X129479542Y-121753112D01*
X129418724Y-121512948D01*
X129319210Y-121286076D01*
X129183713Y-121078684D01*
X129015918Y-120896411D01*
X128820427Y-120744253D01*
X128602539Y-120626338D01*
X128368231Y-120545900D01*
X128123868Y-120505123D01*
X127876132Y-120505123D01*
X127631768Y-120545900D01*
X127397460Y-120626338D01*
X127179572Y-120744253D01*
X126984081Y-120896411D01*
X126816286Y-121078684D01*
X126680789Y-121286076D01*
X126581275Y-121512948D01*
X126520457Y-121753112D01*
X126499999Y-122000000D01*
X125003808Y-122000000D01*
X125011205Y-121745751D01*
X125012462Y-121731385D01*
X125060932Y-121400492D01*
X125063848Y-121386370D01*
X125150405Y-121063336D01*
X125154941Y-121049649D01*
X125278410Y-120738858D01*
X125284504Y-120725789D01*
X125443222Y-120431428D01*
X125450792Y-120419155D01*
X125642608Y-120145212D01*
X125651552Y-120133900D01*
X125876242Y-119881418D01*
X125881284Y-119876080D01*
X127002359Y-118757361D01*
X127002360Y-118757358D01*
X127002192Y-113597783D01*
X134399999Y-113597783D01*
X134400157Y-113602207D01*
X134420357Y-113884630D01*
X134481012Y-114163459D01*
X134580738Y-114430832D01*
X134717493Y-114681282D01*
X134888500Y-114909721D01*
X135090275Y-115111496D01*
X135318719Y-115282508D01*
X135569166Y-115419261D01*
X135836539Y-115518987D01*
X136115368Y-115579642D01*
X136397789Y-115599841D01*
X136402215Y-115600000D01*
X198597785Y-115600000D01*
X198602210Y-115599841D01*
X198884631Y-115579642D01*
X199163460Y-115518987D01*
X199430833Y-115419261D01*
X199681280Y-115282508D01*
X199909723Y-115111496D01*
X200111496Y-114909723D01*
X200282508Y-114681280D01*
X200419261Y-114430833D01*
X200518987Y-114163460D01*
X200579642Y-113884631D01*
X200599841Y-113602210D01*
X200600000Y-113597784D01*
X200600000Y-85975338D01*
X200599999Y-85975332D01*
X200599999Y-79017373D01*
X200600000Y-79017360D01*
X200600000Y-68475338D01*
X200599999Y-68475332D01*
X200599999Y-61517373D01*
X200600001Y-61517360D01*
X200600001Y-51402215D01*
X200599842Y-51397791D01*
X200579642Y-51115368D01*
X200518987Y-50836539D01*
X200419261Y-50569167D01*
X200282508Y-50318720D01*
X200111495Y-50090275D01*
X199909724Y-49888503D01*
X199681280Y-49717491D01*
X199430833Y-49580738D01*
X199163461Y-49481012D01*
X198884632Y-49420357D01*
X198602211Y-49400158D01*
X198597786Y-49400000D01*
X164000016Y-49400000D01*
X163999983Y-49399999D01*
X153500000Y-49400000D01*
X146500016Y-49400000D01*
X146499983Y-49399999D01*
X136402215Y-49399999D01*
X136397789Y-49400158D01*
X136115368Y-49420357D01*
X135836539Y-49481012D01*
X135569166Y-49580738D01*
X135318719Y-49717491D01*
X135090276Y-49888503D01*
X134888503Y-50090276D01*
X134717491Y-50318719D01*
X134580738Y-50569166D01*
X134481012Y-50836539D01*
X134420357Y-51115368D01*
X134400158Y-51397789D01*
X134400000Y-51402215D01*
X134400000Y-85999983D01*
X134399999Y-86000017D01*
X134400000Y-94500000D01*
X134400000Y-103499983D01*
X134399999Y-103500017D01*
X134399999Y-113597783D01*
X127002192Y-113597783D01*
X126999999Y-46244999D01*
X125881187Y-45123832D01*
X125876329Y-45118678D01*
X125651552Y-44866099D01*
X125642608Y-44854787D01*
X125450792Y-44580844D01*
X125443222Y-44568571D01*
X125284504Y-44274210D01*
X125278410Y-44261141D01*
X125154941Y-43950350D01*
X125150405Y-43936663D01*
X125063848Y-43613629D01*
X125060932Y-43599507D01*
X125012462Y-43268614D01*
X125011205Y-43254248D01*
X125003808Y-42999999D01*
X126499999Y-42999999D01*
X126520457Y-43246887D01*
X126581275Y-43487051D01*
X126680789Y-43713923D01*
X126816286Y-43921315D01*
X126984081Y-44103588D01*
X127179572Y-44255746D01*
X127397460Y-44373661D01*
X127631768Y-44454099D01*
X127876132Y-44494877D01*
X128123868Y-44494877D01*
X128368231Y-44454099D01*
X128602539Y-44373661D01*
X128820427Y-44255746D01*
X129015918Y-44103588D01*
X129183713Y-43921315D01*
X129319210Y-43713923D01*
X129418724Y-43487051D01*
X129479542Y-43246887D01*
X129500000Y-43000000D01*
X205499999Y-43000000D01*
X205520457Y-43246887D01*
X205581275Y-43487051D01*
X205680789Y-43713923D01*
X205816286Y-43921315D01*
X205984081Y-44103588D01*
X206179572Y-44255746D01*
X206397460Y-44373661D01*
X206631768Y-44454099D01*
X206876132Y-44494877D01*
X207123868Y-44494877D01*
X207368231Y-44454099D01*
X207602539Y-44373661D01*
X207820427Y-44255746D01*
X208015918Y-44103588D01*
X208183713Y-43921315D01*
X208319210Y-43713923D01*
X208418724Y-43487051D01*
X208479542Y-43246887D01*
X208500000Y-43000000D01*
X208479542Y-42753112D01*
X208418724Y-42512948D01*
X208319210Y-42286076D01*
X208183713Y-42078684D01*
X208015918Y-41896411D01*
X207820427Y-41744253D01*
X207602539Y-41626338D01*
X207368231Y-41545900D01*
X207123868Y-41505123D01*
X206876132Y-41505123D01*
X206631768Y-41545900D01*
X206397460Y-41626338D01*
X206179572Y-41744253D01*
X205984081Y-41896411D01*
X205816286Y-42078684D01*
X205680789Y-42286076D01*
X205581275Y-42512948D01*
X205520457Y-42753112D01*
X205499999Y-43000000D01*
X129500000Y-43000000D01*
X129500000Y-42999999D01*
X129479542Y-42753112D01*
X129418724Y-42512948D01*
X129319210Y-42286076D01*
X129183713Y-42078684D01*
X129015918Y-41896411D01*
X128820427Y-41744253D01*
X128602539Y-41626338D01*
X128368231Y-41545900D01*
X128123868Y-41505123D01*
X127876132Y-41505123D01*
X127631768Y-41545900D01*
X127397460Y-41626338D01*
X127179572Y-41744253D01*
X126984081Y-41896411D01*
X126816286Y-42078684D01*
X126680789Y-42286076D01*
X126581275Y-42512948D01*
X126520457Y-42753112D01*
X126499999Y-42999999D01*
X125003808Y-42999999D01*
X125001479Y-42919959D01*
X125001899Y-42905546D01*
X125031046Y-42572398D01*
X125033136Y-42558130D01*
X125100762Y-42230618D01*
X125104494Y-42216690D01*
X125209686Y-41899237D01*
X125215010Y-41885835D01*
X125356345Y-41582740D01*
X125363189Y-41570048D01*
X125538753Y-41285417D01*
X125547023Y-41273605D01*
X125754443Y-41011279D01*
X125764030Y-41000507D01*
X126000507Y-40764030D01*
X126011279Y-40754443D01*
X126273605Y-40547023D01*
X126285417Y-40538753D01*
X126570048Y-40363189D01*
X126582740Y-40356345D01*
X126885835Y-40215010D01*
X126899237Y-40209686D01*
X127216690Y-40104494D01*
X127230618Y-40100762D01*
X127558130Y-40033136D01*
X127572398Y-40031046D01*
X127905546Y-40001899D01*
X127919959Y-40001479D01*
X128254248Y-40011205D01*
X128268614Y-40012462D01*
X128599507Y-40060932D01*
X128613629Y-40063848D01*
X128936663Y-40150405D01*
X128950350Y-40154941D01*
X129261141Y-40278410D01*
X129274210Y-40284504D01*
X129568571Y-40443222D01*
X129580844Y-40450792D01*
X129854787Y-40642608D01*
X129866099Y-40651552D01*
X130118581Y-40876242D01*
X130123919Y-40881284D01*
X131242638Y-42002359D01*
X131242641Y-42002360D01*
X203755000Y-41999999D01*
X204876167Y-40881187D01*
X204881321Y-40876329D01*
X205133900Y-40651552D01*
X205145212Y-40642608D01*
X205419155Y-40450792D01*
X205431428Y-40443222D01*
X205725789Y-40284504D01*
X205738858Y-40278410D01*
X206049649Y-40154941D01*
X206063336Y-40150405D01*
X206386370Y-40063848D01*
X206400492Y-40060932D01*
X206731385Y-40012462D01*
X206745751Y-40011205D01*
X207080040Y-40001479D01*
X207094453Y-40001899D01*
G37*
M02*
