M48
; DRILL file {KiCad 8.0.8-8.0.8-0~ubuntu24.04.1} date 2025-02-27T17:22:47+0000
; FORMAT={-:-/ absolute / inch / decimal}
; #@! TF.CreationDate,2025-02-27T17:22:47+00:00
; #@! TF.GenerationSoftware,Kicad,Pcbnew,8.0.8-8.0.8-0~ubuntu24.04.1
; #@! TF.FileFunction,Plated,1,2,PTH
FMAT,2
INCH
; #@! TA.AperFunction,Plated,PTH,ComponentDrill
T1C0.0394
%
G90
G05
T1
X5.8366Y-3.7677
X5.8366Y-3.8677
X5.8366Y-3.9677
X5.8366Y-4.0677
X5.8366Y-4.1677
X5.8366Y-4.2677
X5.8366Y-4.3677
X5.8366Y-4.4677
X5.8366Y-4.5677
X5.8366Y-4.6677
X5.8366Y-4.7677
X5.8366Y-4.8677
X5.8366Y-4.9677
X5.8366Y-5.0677
X5.8366Y-5.1677
X5.8366Y-5.2677
X5.9941Y-3.7677
X5.9941Y-3.8677
X5.9941Y-3.9677
X5.9941Y-4.0677
X5.9941Y-4.1677
X5.9941Y-4.2677
X5.9941Y-4.3677
X5.9941Y-4.4677
X5.9941Y-4.5677
X5.9941Y-4.6677
X5.9941Y-4.7677
X5.9941Y-4.8677
X5.9941Y-4.9677
X5.9941Y-5.0677
X5.9941Y-5.1677
X5.9941Y-5.2677
M30
