%TF.GenerationSoftware,KiCad,Pcbnew,8.0.8-8.0.8-0~ubuntu24.04.1*%
%TF.CreationDate,2025-02-27T17:22:47+00:00*%
%TF.ProjectId,customSquare16x16mini,63757374-6f6d-4537-9175-617265313678,rev?*%
%TF.SameCoordinates,Original*%
%TF.FileFunction,Legend,Top*%
%TF.FilePolarity,Positive*%
%FSLAX46Y46*%
G04 Gerber Fmt 4.6, Leading zero omitted, Abs format (unit mm)*
G04 Created by KiCad (PCBNEW 8.0.8-8.0.8-0~ubuntu24.04.1) date 2025-02-27 17:22:47*
%MOMM*%
%LPD*%
G01*
G04 APERTURE LIST*
%ADD10C,0.152400*%
%ADD11C,0.250000*%
%ADD12C,0.120000*%
%ADD13R,1.250000X0.300000*%
%ADD14R,2.500000X2.000000*%
%ADD15R,1.700000X1.700000*%
%ADD16O,1.700000X1.700000*%
G04 APERTURE END LIST*
D10*
X124250001Y-116750000D02*
X136750001Y-116750000D01*
X124250001Y-112750000D02*
X136750001Y-112750000D01*
X136750001Y-112750000D02*
X137250001Y-112250000D01*
X136750001Y-116750000D02*
X137250001Y-117250000D01*
X106750001Y-105250000D02*
X124250001Y-105250000D01*
X124250001Y-124250000D01*
X106750001Y-124250000D01*
X106750001Y-105250000D01*
X131501962Y-115305291D02*
X131579372Y-115305291D01*
X131579372Y-115305291D02*
X131656781Y-115343996D01*
X131656781Y-115343996D02*
X131695486Y-115382701D01*
X131695486Y-115382701D02*
X131734191Y-115460110D01*
X131734191Y-115460110D02*
X131772896Y-115614929D01*
X131772896Y-115614929D02*
X131772896Y-115808453D01*
X131772896Y-115808453D02*
X131734191Y-115963272D01*
X131734191Y-115963272D02*
X131695486Y-116040682D01*
X131695486Y-116040682D02*
X131656781Y-116079387D01*
X131656781Y-116079387D02*
X131579372Y-116118091D01*
X131579372Y-116118091D02*
X131501962Y-116118091D01*
X131501962Y-116118091D02*
X131424553Y-116079387D01*
X131424553Y-116079387D02*
X131385848Y-116040682D01*
X131385848Y-116040682D02*
X131347143Y-115963272D01*
X131347143Y-115963272D02*
X131308439Y-115808453D01*
X131308439Y-115808453D02*
X131308439Y-115614929D01*
X131308439Y-115614929D02*
X131347143Y-115460110D01*
X131347143Y-115460110D02*
X131385848Y-115382701D01*
X131385848Y-115382701D02*
X131424553Y-115343996D01*
X131424553Y-115343996D02*
X131501962Y-115305291D01*
X132546991Y-116118091D02*
X132082534Y-116118091D01*
X132314762Y-116118091D02*
X132314762Y-115305291D01*
X132314762Y-115305291D02*
X132237353Y-115421406D01*
X132237353Y-115421406D02*
X132159943Y-115498815D01*
X132159943Y-115498815D02*
X132082534Y-115537520D01*
X133475905Y-115266587D02*
X132779219Y-116311615D01*
X133708134Y-115382701D02*
X133746838Y-115343996D01*
X133746838Y-115343996D02*
X133824248Y-115305291D01*
X133824248Y-115305291D02*
X134017772Y-115305291D01*
X134017772Y-115305291D02*
X134095181Y-115343996D01*
X134095181Y-115343996D02*
X134133886Y-115382701D01*
X134133886Y-115382701D02*
X134172591Y-115460110D01*
X134172591Y-115460110D02*
X134172591Y-115537520D01*
X134172591Y-115537520D02*
X134133886Y-115653634D01*
X134133886Y-115653634D02*
X133669429Y-116118091D01*
X133669429Y-116118091D02*
X134172591Y-116118091D01*
X134907981Y-115305291D02*
X134520933Y-115305291D01*
X134520933Y-115305291D02*
X134482229Y-115692339D01*
X134482229Y-115692339D02*
X134520933Y-115653634D01*
X134520933Y-115653634D02*
X134598343Y-115614929D01*
X134598343Y-115614929D02*
X134791867Y-115614929D01*
X134791867Y-115614929D02*
X134869276Y-115653634D01*
X134869276Y-115653634D02*
X134907981Y-115692339D01*
X134907981Y-115692339D02*
X134946686Y-115769748D01*
X134946686Y-115769748D02*
X134946686Y-115963272D01*
X134946686Y-115963272D02*
X134907981Y-116040682D01*
X134907981Y-116040682D02*
X134869276Y-116079387D01*
X134869276Y-116079387D02*
X134791867Y-116118091D01*
X134791867Y-116118091D02*
X134598343Y-116118091D01*
X134598343Y-116118091D02*
X134520933Y-116079387D01*
X134520933Y-116079387D02*
X134482229Y-116040682D01*
X135798190Y-115731044D02*
X135759485Y-115692339D01*
X135759485Y-115692339D02*
X135682076Y-115653634D01*
X135682076Y-115653634D02*
X135604666Y-115653634D01*
X135604666Y-115653634D02*
X135527257Y-115692339D01*
X135527257Y-115692339D02*
X135488552Y-115731044D01*
X135488552Y-115731044D02*
X135449847Y-115808453D01*
X135449847Y-115808453D02*
X135449847Y-115885863D01*
X135449847Y-115885863D02*
X135488552Y-115963272D01*
X135488552Y-115963272D02*
X135527257Y-116001977D01*
X135527257Y-116001977D02*
X135604666Y-116040682D01*
X135604666Y-116040682D02*
X135682076Y-116040682D01*
X135682076Y-116040682D02*
X135759485Y-116001977D01*
X135759485Y-116001977D02*
X135798190Y-115963272D01*
X135798190Y-115653634D02*
X135798190Y-115963272D01*
X135798190Y-115963272D02*
X135836895Y-116001977D01*
X135836895Y-116001977D02*
X135875600Y-116001977D01*
X135875600Y-116001977D02*
X135953009Y-115963272D01*
X135953009Y-115963272D02*
X135991714Y-115885863D01*
X135991714Y-115885863D02*
X135991714Y-115692339D01*
X135991714Y-115692339D02*
X135914305Y-115576225D01*
X135914305Y-115576225D02*
X135798190Y-115498815D01*
X135798190Y-115498815D02*
X135643371Y-115460110D01*
X135643371Y-115460110D02*
X135488552Y-115498815D01*
X135488552Y-115498815D02*
X135372438Y-115576225D01*
X135372438Y-115576225D02*
X135295028Y-115692339D01*
X135295028Y-115692339D02*
X135256324Y-115847158D01*
X135256324Y-115847158D02*
X135295028Y-116001977D01*
X135295028Y-116001977D02*
X135372438Y-116118091D01*
X135372438Y-116118091D02*
X135488552Y-116195501D01*
X135488552Y-116195501D02*
X135643371Y-116234206D01*
X135643371Y-116234206D02*
X135798190Y-116195501D01*
X135798190Y-116195501D02*
X135914305Y-116118091D01*
X136340057Y-116118091D02*
X136340057Y-115305291D01*
X137191562Y-116040682D02*
X137152858Y-116079387D01*
X137152858Y-116079387D02*
X137036743Y-116118091D01*
X137036743Y-116118091D02*
X136959334Y-116118091D01*
X136959334Y-116118091D02*
X136843220Y-116079387D01*
X136843220Y-116079387D02*
X136765810Y-116001977D01*
X136765810Y-116001977D02*
X136727105Y-115924567D01*
X136727105Y-115924567D02*
X136688401Y-115769748D01*
X136688401Y-115769748D02*
X136688401Y-115653634D01*
X136688401Y-115653634D02*
X136727105Y-115498815D01*
X136727105Y-115498815D02*
X136765810Y-115421406D01*
X136765810Y-115421406D02*
X136843220Y-115343996D01*
X136843220Y-115343996D02*
X136959334Y-115305291D01*
X136959334Y-115305291D02*
X137036743Y-115305291D01*
X137036743Y-115305291D02*
X137152858Y-115343996D01*
X137152858Y-115343996D02*
X137191562Y-115382701D01*
X131231030Y-114118091D02*
X131231030Y-113692339D01*
X131231030Y-113692339D02*
X131192325Y-113614929D01*
X131192325Y-113614929D02*
X131114916Y-113576225D01*
X131114916Y-113576225D02*
X130960097Y-113576225D01*
X130960097Y-113576225D02*
X130882687Y-113614929D01*
X131231030Y-114079387D02*
X131153621Y-114118091D01*
X131153621Y-114118091D02*
X130960097Y-114118091D01*
X130960097Y-114118091D02*
X130882687Y-114079387D01*
X130882687Y-114079387D02*
X130843983Y-114001977D01*
X130843983Y-114001977D02*
X130843983Y-113924567D01*
X130843983Y-113924567D02*
X130882687Y-113847158D01*
X130882687Y-113847158D02*
X130960097Y-113808453D01*
X130960097Y-113808453D02*
X131153621Y-113808453D01*
X131153621Y-113808453D02*
X131231030Y-113769748D01*
X131966420Y-114118091D02*
X131966420Y-113305291D01*
X131966420Y-114079387D02*
X131889011Y-114118091D01*
X131889011Y-114118091D02*
X131734192Y-114118091D01*
X131734192Y-114118091D02*
X131656782Y-114079387D01*
X131656782Y-114079387D02*
X131618077Y-114040682D01*
X131618077Y-114040682D02*
X131579373Y-113963272D01*
X131579373Y-113963272D02*
X131579373Y-113731044D01*
X131579373Y-113731044D02*
X131618077Y-113653634D01*
X131618077Y-113653634D02*
X131656782Y-113614929D01*
X131656782Y-113614929D02*
X131734192Y-113576225D01*
X131734192Y-113576225D02*
X131889011Y-113576225D01*
X131889011Y-113576225D02*
X131966420Y-113614929D01*
X132663105Y-114079387D02*
X132585696Y-114118091D01*
X132585696Y-114118091D02*
X132430877Y-114118091D01*
X132430877Y-114118091D02*
X132353467Y-114079387D01*
X132353467Y-114079387D02*
X132314763Y-114001977D01*
X132314763Y-114001977D02*
X132314763Y-113692339D01*
X132314763Y-113692339D02*
X132353467Y-113614929D01*
X132353467Y-113614929D02*
X132430877Y-113576225D01*
X132430877Y-113576225D02*
X132585696Y-113576225D01*
X132585696Y-113576225D02*
X132663105Y-113614929D01*
X132663105Y-113614929D02*
X132701810Y-113692339D01*
X132701810Y-113692339D02*
X132701810Y-113769748D01*
X132701810Y-113769748D02*
X132314763Y-113847158D01*
X132972744Y-113576225D02*
X133166268Y-114118091D01*
X133166268Y-114118091D02*
X133359791Y-113576225D01*
X134946686Y-114118091D02*
X134907982Y-114118091D01*
X134907982Y-114118091D02*
X134830572Y-114079387D01*
X134830572Y-114079387D02*
X134714458Y-113963272D01*
X134714458Y-113963272D02*
X134520934Y-113731044D01*
X134520934Y-113731044D02*
X134443524Y-113614929D01*
X134443524Y-113614929D02*
X134404820Y-113498815D01*
X134404820Y-113498815D02*
X134404820Y-113421406D01*
X134404820Y-113421406D02*
X134443524Y-113343996D01*
X134443524Y-113343996D02*
X134520934Y-113305291D01*
X134520934Y-113305291D02*
X134559639Y-113305291D01*
X134559639Y-113305291D02*
X134637048Y-113343996D01*
X134637048Y-113343996D02*
X134675753Y-113421406D01*
X134675753Y-113421406D02*
X134675753Y-113460110D01*
X134675753Y-113460110D02*
X134637048Y-113537520D01*
X134637048Y-113537520D02*
X134598343Y-113576225D01*
X134598343Y-113576225D02*
X134366115Y-113731044D01*
X134366115Y-113731044D02*
X134327410Y-113769748D01*
X134327410Y-113769748D02*
X134288705Y-113847158D01*
X134288705Y-113847158D02*
X134288705Y-113963272D01*
X134288705Y-113963272D02*
X134327410Y-114040682D01*
X134327410Y-114040682D02*
X134366115Y-114079387D01*
X134366115Y-114079387D02*
X134443524Y-114118091D01*
X134443524Y-114118091D02*
X134559639Y-114118091D01*
X134559639Y-114118091D02*
X134637048Y-114079387D01*
X134637048Y-114079387D02*
X134675753Y-114040682D01*
X134675753Y-114040682D02*
X134791867Y-113885863D01*
X134791867Y-113885863D02*
X134830572Y-113769748D01*
X134830572Y-113769748D02*
X134830572Y-113692339D01*
X136262648Y-114079387D02*
X136185239Y-114118091D01*
X136185239Y-114118091D02*
X136030420Y-114118091D01*
X136030420Y-114118091D02*
X135953010Y-114079387D01*
X135953010Y-114079387D02*
X135914305Y-114040682D01*
X135914305Y-114040682D02*
X135875601Y-113963272D01*
X135875601Y-113963272D02*
X135875601Y-113731044D01*
X135875601Y-113731044D02*
X135914305Y-113653634D01*
X135914305Y-113653634D02*
X135953010Y-113614929D01*
X135953010Y-113614929D02*
X136030420Y-113576225D01*
X136030420Y-113576225D02*
X136185239Y-113576225D01*
X136185239Y-113576225D02*
X136262648Y-113614929D01*
X136959334Y-113576225D02*
X136959334Y-114389025D01*
X136959334Y-114079387D02*
X136881925Y-114118091D01*
X136881925Y-114118091D02*
X136727106Y-114118091D01*
X136727106Y-114118091D02*
X136649696Y-114079387D01*
X136649696Y-114079387D02*
X136610991Y-114040682D01*
X136610991Y-114040682D02*
X136572287Y-113963272D01*
X136572287Y-113963272D02*
X136572287Y-113731044D01*
X136572287Y-113731044D02*
X136610991Y-113653634D01*
X136610991Y-113653634D02*
X136649696Y-113614929D01*
X136649696Y-113614929D02*
X136727106Y-113576225D01*
X136727106Y-113576225D02*
X136881925Y-113576225D01*
X136881925Y-113576225D02*
X136959334Y-113614929D01*
X137268972Y-113576225D02*
X137694724Y-113576225D01*
X137694724Y-113576225D02*
X137268972Y-114118091D01*
X137268972Y-114118091D02*
X137694724Y-114118091D01*
D11*
%TO.C,FPC2*%
X140230000Y-108550000D02*
X140230000Y-110620000D01*
X140250000Y-120950000D02*
X140250000Y-118890000D01*
X141060000Y-108550000D02*
X140230000Y-108550000D01*
X141060000Y-120950000D02*
X140250000Y-120950000D01*
X145160000Y-108549999D02*
X144020000Y-108550000D01*
X145160000Y-120950001D02*
X144020000Y-120950000D01*
X145160000Y-120950001D02*
X145160000Y-108549999D01*
X139730000Y-119080000D02*
G75*
G02*
X139470000Y-119080000I-130000J0D01*
G01*
X139470000Y-119080000D02*
G75*
G02*
X139730000Y-119080000I130000J0D01*
G01*
D12*
%TO.C,J1*%
X146920000Y-96970000D02*
X146920000Y-135130000D01*
X146920000Y-96970000D02*
X149580000Y-96970000D01*
X146920000Y-135130000D02*
X149580000Y-135130000D01*
X148250000Y-94370000D02*
X149580000Y-94370000D01*
X149580000Y-94370000D02*
X149580000Y-95700000D01*
X149580000Y-96970000D02*
X149580000Y-135130000D01*
%TD*%
%LPC*%
G36*
X107450001Y-107450000D02*
G01*
X122050001Y-107450000D01*
X122050001Y-122050000D01*
X107450001Y-122050000D01*
X107450001Y-107450000D01*
G37*
D13*
%TO.C,FPC2*%
X139960000Y-118500000D03*
X139960000Y-118000000D03*
X139960000Y-117500000D03*
X139960000Y-117000000D03*
X139960000Y-116500000D03*
X139960000Y-116000000D03*
X139960000Y-115500000D03*
X139960000Y-115000000D03*
X139960000Y-114500000D03*
X139960000Y-114000000D03*
X139960000Y-113500000D03*
X139960000Y-113000000D03*
X139960000Y-112500000D03*
X139960000Y-112000000D03*
X139960000Y-111500000D03*
X139960000Y-111000000D03*
D14*
X142540000Y-109310000D03*
X142540000Y-120190000D03*
%TD*%
D15*
%TO.C,J1*%
X148250000Y-95700000D03*
D16*
X148250000Y-98240000D03*
X148250000Y-100780000D03*
X148250000Y-103320000D03*
X148250000Y-105860000D03*
X148250000Y-108400000D03*
X148250000Y-110940000D03*
X148250000Y-113480000D03*
X148250000Y-116020000D03*
X148250000Y-118560000D03*
X148250000Y-121100000D03*
X148250000Y-123640000D03*
X148250000Y-126180000D03*
X148250000Y-128720000D03*
X148250000Y-131260000D03*
X148250000Y-133800000D03*
%TD*%
D15*
%TO.C,J2*%
X152250000Y-133800000D03*
D16*
X152250000Y-131260000D03*
X152250000Y-128720000D03*
X152250000Y-126180000D03*
X152250000Y-123640000D03*
X152250000Y-121100000D03*
X152250000Y-118560000D03*
X152250000Y-116020000D03*
X152250000Y-113480000D03*
X152250000Y-110940000D03*
X152250000Y-108400000D03*
X152250000Y-105860000D03*
X152250000Y-103320000D03*
X152250000Y-100780000D03*
X152250000Y-98240000D03*
X152250000Y-95700000D03*
%TD*%
%LPD*%
M02*
