%TF.GenerationSoftware,KiCad,Pcbnew,8.0.8-8.0.8-0~ubuntu24.04.1*%
%TF.CreationDate,2025-02-27T17:22:47+00:00*%
%TF.ProjectId,customSquare16x16mini,63757374-6f6d-4537-9175-617265313678,rev?*%
%TF.SameCoordinates,Original*%
%TF.FileFunction,Profile,NP*%
%FSLAX46Y46*%
G04 Gerber Fmt 4.6, Leading zero omitted, Abs format (unit mm)*
G04 Created by KiCad (PCBNEW 8.0.8-8.0.8-0~ubuntu24.04.1) date 2025-02-27 17:22:47*
%MOMM*%
%LPD*%
G01*
G04 APERTURE LIST*
%TA.AperFunction,Profile*%
%ADD10C,0.038100*%
%TD*%
G04 APERTURE END LIST*
D10*
X98750000Y-122250000D02*
G75*
G02*
X97250000Y-123750000I-1500000J0D01*
G01*
X152750000Y-93750000D02*
G75*
G02*
X154750000Y-95750000I0J-2000000D01*
G01*
X130750000Y-122250001D02*
X130750000Y-119449998D01*
X98750000Y-110249999D02*
G75*
G02*
X97250000Y-111750000I-1500000J-1D01*
G01*
X138650000Y-119450000D02*
X138650000Y-119750004D01*
X133250001Y-126750000D02*
G75*
G02*
X131249999Y-126750000I-1000001J0D01*
G01*
X131249999Y-126750000D02*
G75*
G02*
X133250001Y-126750000I1000001J0D01*
G01*
X132250000Y-99750000D02*
G75*
G02*
X132250000Y-105750000I0J-3000000D01*
G01*
X97250000Y-117750001D02*
G75*
G02*
X97250000Y-111749999I0J3000001D01*
G01*
X130750000Y-119449998D02*
G75*
G02*
X132750000Y-117450000I2000000J-2D01*
G01*
X147750000Y-135750004D02*
G75*
G02*
X145749996Y-133750004I0J2000004D01*
G01*
X140650000Y-121750004D02*
G75*
G02*
X138649996Y-119750004I0J2000004D01*
G01*
X138650000Y-109750000D02*
G75*
G02*
X140650000Y-107750000I2000000J0D01*
G01*
X132750000Y-112050002D02*
G75*
G02*
X130749998Y-110050002I0J2000002D01*
G01*
X130750000Y-110050002D02*
X130750000Y-107250000D01*
X132249999Y-123750002D02*
G75*
G02*
X132250000Y-129749998I1J-2999998D01*
G01*
X143750000Y-121750004D02*
G75*
G02*
X145749996Y-123750004I0J-1999996D01*
G01*
X97250001Y-99750002D02*
X132250000Y-99750005D01*
X97250000Y-129750000D02*
G75*
G02*
X97250000Y-123750000I0J3000000D01*
G01*
X97250001Y-105750001D02*
G75*
G02*
X97250001Y-99749999I-1J3000001D01*
G01*
X98250001Y-102750003D02*
G75*
G02*
X96249999Y-102750003I-1000001J0D01*
G01*
X96249999Y-102750003D02*
G75*
G02*
X98250001Y-102750003I1000001J0D01*
G01*
X97250001Y-105750001D02*
G75*
G02*
X98749999Y-107250001I-1J-1499999D01*
G01*
X133250000Y-102750001D02*
G75*
G02*
X131250000Y-102750001I-1000000J0D01*
G01*
X131250000Y-102750001D02*
G75*
G02*
X133250000Y-102750001I1000000J0D01*
G01*
X145750000Y-105750000D02*
G75*
G02*
X143750000Y-107750000I-2000000J0D01*
G01*
X98250000Y-126750000D02*
G75*
G02*
X96250000Y-126750000I-1000000J0D01*
G01*
X96250000Y-126750000D02*
G75*
G02*
X98250000Y-126750000I1000000J0D01*
G01*
X154750000Y-95750000D02*
X154750000Y-133750004D01*
X147750000Y-93750000D02*
X152750000Y-93750000D01*
X140650000Y-107750000D02*
X143750000Y-107750000D01*
X98750000Y-110249999D02*
X98750000Y-107250001D01*
X130750000Y-107250000D02*
G75*
G02*
X132250000Y-105750000I1500000J0D01*
G01*
X136650000Y-117450000D02*
G75*
G02*
X138650000Y-119450000I0J-2000000D01*
G01*
X98750000Y-122250000D02*
X98750000Y-119249999D01*
X145750000Y-95750000D02*
G75*
G02*
X147750000Y-93750000I2000000J0D01*
G01*
X145750000Y-123750004D02*
X145750000Y-133750004D01*
X132750000Y-117449998D02*
X136650000Y-117450000D01*
X138650000Y-110050000D02*
G75*
G02*
X136650000Y-112050000I-2000000J0D01*
G01*
X132250000Y-129750003D02*
X97250000Y-129750000D01*
X140650000Y-121750004D02*
X143750000Y-121750004D01*
X145750000Y-105750000D02*
X145750000Y-95750000D01*
X98250001Y-114750000D02*
G75*
G02*
X96249999Y-114750000I-1000001J0D01*
G01*
X96249999Y-114750000D02*
G75*
G02*
X98250001Y-114750000I1000001J0D01*
G01*
X154750000Y-133750004D02*
G75*
G02*
X152750000Y-135750000I-2000000J4D01*
G01*
X132750000Y-112050002D02*
X136650000Y-112050000D01*
X138650000Y-110050000D02*
X138650000Y-109750000D01*
X132249999Y-123750002D02*
G75*
G02*
X130749998Y-122250001I1J1500002D01*
G01*
X97250000Y-117750001D02*
G75*
G02*
X98749999Y-119249999I0J-1499999D01*
G01*
X147750000Y-135750004D02*
X152750000Y-135750004D01*
M02*
