%TF.GenerationSoftware,KiCad,Pcbnew,7.0.2-6a45011f42~172~ubuntu22.04.1*%
%TF.CreationDate,2023-05-18T14:46:19+01:00*%
%TF.ProjectId,KX134_array,4b583133-345f-4617-9272-61792e6b6963,rev?*%
%TF.SameCoordinates,Original*%
%TF.FileFunction,Paste,Top*%
%TF.FilePolarity,Positive*%
%FSLAX46Y46*%
G04 Gerber Fmt 4.6, Leading zero omitted, Abs format (unit mm)*
G04 Created by KiCad (PCBNEW 7.0.2-6a45011f42~172~ubuntu22.04.1) date 2023-05-18 14:46:19*
%MOMM*%
%LPD*%
G01*
G04 APERTURE LIST*
G04 Aperture macros list*
%AMRoundRect*
0 Rectangle with rounded corners*
0 $1 Rounding radius*
0 $2 $3 $4 $5 $6 $7 $8 $9 X,Y pos of 4 corners*
0 Add a 4 corners polygon primitive as box body*
4,1,4,$2,$3,$4,$5,$6,$7,$8,$9,$2,$3,0*
0 Add four circle primitives for the rounded corners*
1,1,$1+$1,$2,$3*
1,1,$1+$1,$4,$5*
1,1,$1+$1,$6,$7*
1,1,$1+$1,$8,$9*
0 Add four rect primitives between the rounded corners*
20,1,$1+$1,$2,$3,$4,$5,0*
20,1,$1+$1,$4,$5,$6,$7,0*
20,1,$1+$1,$6,$7,$8,$9,0*
20,1,$1+$1,$8,$9,$2,$3,0*%
G04 Aperture macros list end*
%ADD10RoundRect,0.067500X0.067500X-0.067500X0.067500X0.067500X-0.067500X0.067500X-0.067500X-0.067500X0*%
%ADD11RoundRect,0.067500X-0.067500X0.067500X-0.067500X-0.067500X0.067500X-0.067500X0.067500X0.067500X0*%
%ADD12RoundRect,0.067500X0.067500X0.067500X-0.067500X0.067500X-0.067500X-0.067500X0.067500X-0.067500X0*%
%ADD13RoundRect,0.067500X-0.067500X-0.067500X0.067500X-0.067500X0.067500X0.067500X-0.067500X0.067500X0*%
%ADD14R,0.330200X0.304800*%
%ADD15R,0.304800X0.330200*%
G04 APERTURE END LIST*
D10*
%TO.C,C10*%
X169100000Y-82875000D03*
X169100000Y-82325000D03*
%TD*%
D11*
%TO.C,C2*%
X148400000Y-64625000D03*
X148400000Y-65175000D03*
%TD*%
D12*
%TO.C,C9*%
X167925000Y-80900000D03*
X167375000Y-80900000D03*
%TD*%
D11*
%TO.C,C7*%
X183400000Y-82075001D03*
X183400000Y-82625001D03*
%TD*%
D12*
%TO.C,C15*%
X185425000Y-98400000D03*
X184875000Y-98400000D03*
%TD*%
D10*
%TO.C,C17*%
X151600000Y-100425000D03*
X151600000Y-99875000D03*
%TD*%
D13*
%TO.C,C12*%
X149625000Y-84100000D03*
X150175000Y-84100000D03*
%TD*%
D12*
%TO.C,C8*%
X185374999Y-80900000D03*
X184824999Y-80900000D03*
%TD*%
D14*
%TO.C,U5*%
X168249300Y-83250001D03*
X168249300Y-82750000D03*
X168249300Y-82250000D03*
X168249300Y-81749999D03*
D15*
X167750000Y-81750700D03*
X167250000Y-81750700D03*
D14*
X166750700Y-81749999D03*
X166750700Y-82250000D03*
X166750700Y-82750000D03*
X166750700Y-83250001D03*
D15*
X167250000Y-83249300D03*
X167750000Y-83249300D03*
%TD*%
%TO.C,U3*%
X185750001Y-64250700D03*
X185250000Y-64250700D03*
X184750000Y-64250700D03*
X184249999Y-64250700D03*
D14*
X184250700Y-64750000D03*
X184250700Y-65250000D03*
D15*
X184249999Y-65749300D03*
X184750000Y-65749300D03*
X185250000Y-65749300D03*
X185750001Y-65749300D03*
D14*
X185749300Y-65250000D03*
X185749300Y-64750000D03*
%TD*%
D15*
%TO.C,U9*%
X149249999Y-100749300D03*
X149750000Y-100749300D03*
X150250000Y-100749300D03*
X150750001Y-100749300D03*
D14*
X150749300Y-100250000D03*
X150749300Y-99750000D03*
D15*
X150750001Y-99250700D03*
X150250000Y-99250700D03*
X149750000Y-99250700D03*
X149249999Y-99250700D03*
D14*
X149250700Y-99750000D03*
X149250700Y-100250000D03*
%TD*%
%TO.C,U1*%
X149250700Y-64249999D03*
X149250700Y-64750000D03*
X149250700Y-65250000D03*
X149250700Y-65750001D03*
D15*
X149750000Y-65749300D03*
X150250000Y-65749300D03*
D14*
X150749300Y-65750001D03*
X150749300Y-65250000D03*
X150749300Y-64750000D03*
X150749300Y-64249999D03*
D15*
X150250000Y-64250700D03*
X149750000Y-64250700D03*
%TD*%
D14*
%TO.C,U8*%
X185749300Y-100750001D03*
X185749300Y-100250000D03*
X185749300Y-99750000D03*
X185749300Y-99249999D03*
D15*
X185250000Y-99250700D03*
X184750000Y-99250700D03*
D14*
X184250700Y-99249999D03*
X184250700Y-99750000D03*
X184250700Y-100250000D03*
X184250700Y-100750001D03*
D15*
X184750000Y-100749300D03*
X185250000Y-100749300D03*
%TD*%
D13*
%TO.C,C1*%
X149575000Y-66600000D03*
X150125000Y-66600000D03*
%TD*%
D15*
%TO.C,U6*%
X149249999Y-83249300D03*
X149750000Y-83249300D03*
X150250000Y-83249300D03*
X150750001Y-83249300D03*
D14*
X150749300Y-82750000D03*
X150749300Y-82250000D03*
D15*
X150750001Y-81750700D03*
X150250000Y-81750700D03*
X149750000Y-81750700D03*
X149249999Y-81750700D03*
D14*
X149250700Y-82250000D03*
X149250700Y-82750000D03*
%TD*%
D10*
%TO.C,C14*%
X169100000Y-100375000D03*
X169100000Y-99825000D03*
%TD*%
%TO.C,C11*%
X151600000Y-82925000D03*
X151600000Y-82375000D03*
%TD*%
%TO.C,C16*%
X186600000Y-100375000D03*
X186600000Y-99825000D03*
%TD*%
D11*
%TO.C,C5*%
X183400000Y-64575001D03*
X183400000Y-65125001D03*
%TD*%
%TO.C,C4*%
X165900000Y-64625000D03*
X165900000Y-65175000D03*
%TD*%
D14*
%TO.C,U2*%
X166750700Y-64249999D03*
X166750700Y-64750000D03*
X166750700Y-65250000D03*
X166750700Y-65750001D03*
D15*
X167250000Y-65749300D03*
X167750000Y-65749300D03*
D14*
X168249300Y-65750001D03*
X168249300Y-65250000D03*
X168249300Y-64750000D03*
X168249300Y-64249999D03*
D15*
X167750000Y-64250700D03*
X167250000Y-64250700D03*
%TD*%
D12*
%TO.C,C6*%
X185374999Y-63400000D03*
X184824999Y-63400000D03*
%TD*%
D15*
%TO.C,U4*%
X185750001Y-81750700D03*
X185250000Y-81750700D03*
X184750000Y-81750700D03*
X184249999Y-81750700D03*
D14*
X184250700Y-82250000D03*
X184250700Y-82750000D03*
D15*
X184249999Y-83249300D03*
X184750000Y-83249300D03*
X185250000Y-83249300D03*
X185750001Y-83249300D03*
D14*
X185749300Y-82750000D03*
X185749300Y-82250000D03*
%TD*%
%TO.C,U7*%
X168249300Y-100750001D03*
X168249300Y-100250000D03*
X168249300Y-99750000D03*
X168249300Y-99249999D03*
D15*
X167750000Y-99250700D03*
X167250000Y-99250700D03*
D14*
X166750700Y-99249999D03*
X166750700Y-99750000D03*
X166750700Y-100250000D03*
X166750700Y-100750001D03*
D15*
X167250000Y-100749300D03*
X167750000Y-100749300D03*
%TD*%
D13*
%TO.C,C18*%
X149625000Y-101600000D03*
X150175000Y-101600000D03*
%TD*%
%TO.C,C3*%
X167075000Y-66600000D03*
X167625000Y-66600000D03*
%TD*%
D12*
%TO.C,C13*%
X167925000Y-98400000D03*
X167375000Y-98400000D03*
%TD*%
M02*
