M48
; DRILL file {KiCad 7.0.2-6a45011f42~172~ubuntu22.04.1} date Thu 18 May 2023 14:46:19 BST
; FORMAT={-:-/ absolute / inch / decimal}
; #@! TF.CreationDate,2023-05-18T14:46:19+01:00
; #@! TF.GenerationSoftware,Kicad,Pcbnew,7.0.2-6a45011f42~172~ubuntu22.04.1
; #@! TF.FileFunction,Plated,1,2,PTH
FMAT,2
INCH
; #@! TA.AperFunction,Plated,PTH,ViaDrill
T1C0.0118
; #@! TA.AperFunction,Plated,PTH,ComponentDrill
T2C0.0276
; #@! TA.AperFunction,Plated,PTH,ComponentDrill
T3C0.0394
%
G90
G05
T1
X5.0394Y-3.3071
X5.0394Y-3.9961
X5.0591Y-3.3268
X5.0591Y-4.0157
X5.0787Y-3.3465
X5.0787Y-4.0354
X5.1378Y-3.2874
X5.1575Y-3.9764
X5.2362Y-3.189
X5.2362Y-3.878
X5.8071Y-1.7323
X5.8268Y-1.7126
X5.8268Y-4.6063
X5.8455Y-2.5187
X5.8465Y-1.6929
X5.8524Y-2.5906
X5.8652Y-3.3081
X5.8652Y-3.997
X5.8661Y-1.7717
X5.873Y-2.6112
X5.9026Y-2.5669
X5.9055Y-3.2047
X5.9055Y-3.8937
X5.9134Y-3.251
X5.9134Y-3.94
X5.9252Y-4.6654
X5.937Y-3.3012
X5.937Y-3.9902
X5.9449Y-4.8031
X5.9488Y-2.5591
X5.9577Y-3.2805
X5.9577Y-3.9695
X5.9646Y-1.8898
X5.9646Y-4.7835
X5.9843Y-4.7638
X6.2008Y-4.7441
X6.2992Y-4.7244
X6.3976Y-4.7047
X6.4961Y-1.7323
X6.4961Y-4.685
X6.5157Y-1.7126
X6.5344Y-2.5187
X6.5354Y-1.6929
X6.5354Y-4.6063
X6.5413Y-2.5906
X6.5512Y-3.248
X6.5512Y-3.937
X6.5551Y-1.752
X6.562Y-2.6112
X6.5915Y-2.5669
X6.5945Y-4.6654
X6.5974Y-3.2402
X6.5974Y-3.9291
X6.627Y-3.1959
X6.627Y-3.8848
X6.6378Y-2.5591
X6.6476Y-3.2165
X6.6476Y-3.9055
X6.6535Y-1.8898
X6.6535Y-4.8031
X6.6545Y-3.2884
X6.6545Y-3.9774
X6.6732Y-4.7835
X6.6929Y-4.7638
X6.8898Y-4.7244
X6.9882Y-4.7441
X7.0669Y-4.685
X7.126Y-4.6654
X7.2244Y-4.6063
X7.2313Y-2.5266
X7.2313Y-3.2156
X7.2402Y-3.937
X7.252Y-2.5059
X7.252Y-3.1949
X7.2756Y-2.5561
X7.2756Y-3.2451
X7.2835Y-2.6024
X7.2835Y-3.2913
X7.2864Y-3.9291
X7.3159Y-3.8848
X7.3238Y-2.499
X7.3238Y-3.188
X7.3366Y-3.9055
X7.3425Y-4.8031
X7.3435Y-3.9774
X7.3622Y-4.7835
X7.3819Y-4.7638
X7.9528Y-2.6181
X7.9528Y-3.3071
X8.0709Y-2.5197
X8.0906Y-3.2087
X8.1102Y-2.4606
X8.1102Y-3.1496
X8.1299Y-2.4803
X8.1299Y-3.1693
X8.1496Y-2.5
X8.1496Y-3.189
T2
X5.4114Y-3.0827
X5.4114Y-3.1327
X5.4114Y-3.1827
X5.4114Y-3.2327
X5.4114Y-3.2827
X5.4114Y-3.3327
X5.4114Y-3.3827
X5.4114Y-3.4327
X5.4114Y-3.7717
X5.4114Y-3.8217
X5.4114Y-3.8717
X5.4114Y-3.9217
X5.4114Y-3.9717
X5.4114Y-4.0217
X5.4114Y-4.0717
X5.4114Y-4.1217
X5.7205Y-4.4311
X5.7209Y-2.065
X5.7705Y-4.4311
X5.7709Y-2.065
X5.8205Y-4.4311
X5.8209Y-2.065
X5.8705Y-4.4311
X5.8709Y-2.065
X5.9205Y-4.4311
X5.9209Y-2.065
X5.9705Y-4.4311
X5.9709Y-2.065
X6.0205Y-4.4311
X6.0209Y-2.065
X6.0705Y-4.4311
X6.0709Y-2.065
X6.4098Y-2.065
X6.4291Y-4.4311
X6.4598Y-2.065
X6.4791Y-4.4311
X6.5098Y-2.065
X6.5291Y-4.4311
X6.5598Y-2.065
X6.5791Y-4.4311
X6.6098Y-2.065
X6.6291Y-4.4311
X6.6598Y-2.065
X6.6791Y-4.4311
X6.7098Y-2.065
X6.7291Y-4.4311
X6.7598Y-2.065
X6.7791Y-4.4311
X7.1181Y-4.4311
X7.1681Y-4.4311
X7.2181Y-4.4311
X7.2681Y-4.4311
X7.3181Y-4.4311
X7.3681Y-4.4311
X7.4181Y-4.4311
X7.4681Y-4.4311
X7.7776Y-2.3744
X7.7776Y-2.4244
X7.7776Y-2.4744
X7.7776Y-2.5244
X7.7776Y-2.5744
X7.7776Y-2.6244
X7.7776Y-2.6744
X7.7776Y-2.7244
X7.7776Y-3.0634
X7.7776Y-3.1134
X7.7776Y-3.1634
X7.7776Y-3.2134
X7.7776Y-3.2634
X7.7776Y-3.3134
X7.7776Y-3.3634
X7.7776Y-3.4134
T3
X6.1945Y-4.8622
X6.1945Y-4.9622
X6.2945Y-4.8622
X6.2945Y-4.9622
X6.3945Y-4.8622
X6.3945Y-4.9622
X6.4945Y-4.8622
X6.5945Y-4.8622
X6.6945Y-4.8622
X6.7945Y-4.8622
X6.8945Y-4.8622
X6.8945Y-4.9622
X6.9945Y-4.8622
X6.9945Y-4.9622
T0
M30
