%TF.GenerationSoftware,KiCad,Pcbnew,7.0.2-6a45011f42~172~ubuntu22.04.1*%
%TF.CreationDate,2023-05-18T14:46:19+01:00*%
%TF.ProjectId,KX134_array,4b583133-345f-4617-9272-61792e6b6963,rev?*%
%TF.SameCoordinates,Original*%
%TF.FileFunction,Profile,NP*%
%FSLAX46Y46*%
G04 Gerber Fmt 4.6, Leading zero omitted, Abs format (unit mm)*
G04 Created by KiCad (PCBNEW 7.0.2-6a45011f42~172~ubuntu22.04.1) date 2023-05-18 14:46:19*
%MOMM*%
%LPD*%
G01*
G04 APERTURE LIST*
%TA.AperFunction,Profile*%
%ADD10C,0.010000*%
%TD*%
G04 APERTURE END LIST*
D10*
X169550003Y-98999998D02*
G75*
G03*
X168500000Y-97949997I-1050003J-2D01*
G01*
X190999999Y-81700000D02*
X193999999Y-81699999D01*
X204878680Y-124121320D02*
X203757360Y-122997640D01*
X199600000Y-79000000D02*
G75*
G03*
X200100001Y-79500000I500000J0D01*
G01*
X187050003Y-98999998D02*
G75*
G03*
X186000000Y-97949997I-1050003J-2D01*
G01*
X151000001Y-102050002D02*
G75*
G03*
X152050002Y-101000001I-1J1050002D01*
G01*
X134899999Y-85499999D02*
G75*
G03*
X134399999Y-86000000I1J-500001D01*
G01*
X182949999Y-65499999D02*
G75*
G03*
X184000000Y-66550001I1050001J-1D01*
G01*
X131242640Y-42002360D02*
X203755000Y-42000000D01*
X136400000Y-49400000D02*
G75*
G03*
X134400000Y-51400000I0J-2000000D01*
G01*
X151800000Y-54500000D02*
X154999999Y-54500001D01*
X148750000Y-59449999D02*
G75*
G03*
X148750000Y-62550001I0J-1550001D01*
G01*
X135900000Y-77000000D02*
G75*
G03*
X135400000Y-77500000I0J-500000D01*
G01*
X186499999Y-81200000D02*
X186499999Y-81000000D01*
X134900000Y-97000000D02*
G75*
G03*
X135400000Y-96500000I0J500000D01*
G01*
X167000000Y-80450000D02*
X168500001Y-80450000D01*
X162500001Y-110500001D02*
G75*
G03*
X162000001Y-110999999I-1J-499999D01*
G01*
X185800000Y-105999999D02*
X185800001Y-108999999D01*
X188500000Y-114600000D02*
G75*
G03*
X188000000Y-115100001I0J-500000D01*
G01*
X139499999Y-98200000D02*
G75*
G03*
X141000001Y-99700001I1500001J0D01*
G01*
X167200001Y-101999998D02*
G75*
G03*
X168750000Y-103549999I1549999J-2D01*
G01*
X171000000Y-114600000D02*
G75*
G03*
X170500000Y-115100000I0J-500000D01*
G01*
X186499999Y-65950000D02*
X186499999Y-65799999D01*
X189450000Y-63750000D02*
G75*
G03*
X188999998Y-63300000I-450000J0D01*
G01*
X161999999Y-50399999D02*
G75*
G03*
X161499999Y-50899999I1J-500001D01*
G01*
X168750000Y-86950001D02*
G75*
G03*
X167653985Y-87403985I0J-1549999D01*
G01*
X135400000Y-77500000D02*
X135400001Y-79000000D01*
X125878680Y-119878680D02*
X127002360Y-118757360D01*
X172499999Y-54499999D02*
G75*
G03*
X172999999Y-54000001I1J499999D01*
G01*
X169200002Y-86499999D02*
G75*
G03*
X168750000Y-86049998I-450002J-1D01*
G01*
X166699999Y-63000001D02*
G75*
G03*
X166250000Y-62550001I-449999J1D01*
G01*
X152050001Y-82000000D02*
X152050001Y-83500001D01*
X134400000Y-113599999D02*
G75*
G03*
X136400000Y-115600000I2000000J-1D01*
G01*
X186500000Y-63700000D02*
G75*
G03*
X186999999Y-64200000I500000J0D01*
G01*
X200100001Y-79500001D02*
G75*
G03*
X200600001Y-79000000I-1J500001D01*
G01*
X130121320Y-40878680D02*
G75*
G03*
X125878680Y-45121320I-2121320J-2121320D01*
G01*
X183999998Y-62949997D02*
G75*
G03*
X182949997Y-64000000I2J-1050003D01*
G01*
X186500001Y-63500000D02*
G75*
G03*
X185949999Y-62949999I-550001J0D01*
G01*
X166700000Y-59000001D02*
X166700000Y-56000001D01*
X185899999Y-84050520D02*
G75*
G03*
X186500520Y-83450000I1J600520D01*
G01*
X165949999Y-83450000D02*
X165950000Y-81500001D01*
X149200000Y-56000001D02*
G75*
G03*
X147699999Y-54500000I-1500000J1D01*
G01*
X139000000Y-106000000D02*
X135899999Y-106000001D01*
X183999998Y-80449999D02*
X185949999Y-80449999D01*
X148500000Y-81550000D02*
X148500000Y-81700001D01*
X165799999Y-61000002D02*
G75*
G03*
X166250000Y-61450001I450001J2D01*
G01*
X155500000Y-50900000D02*
G75*
G03*
X155000000Y-50400000I-500000J0D01*
G01*
X135400000Y-103500000D02*
G75*
G03*
X134899999Y-103000000I-500000J0D01*
G01*
X184700000Y-105999999D02*
X184700002Y-109000000D01*
X151550521Y-64100001D02*
X151550001Y-66000000D01*
X155499999Y-54000001D02*
X155500000Y-50900000D01*
X139500000Y-102300001D02*
X139500001Y-105500000D01*
X153500000Y-49400000D02*
G75*
G03*
X153000000Y-49900000I0J-500000D01*
G01*
X139000001Y-77000001D02*
X135900000Y-77000000D01*
X169200001Y-103999998D02*
G75*
G03*
X168750000Y-103549999I-450001J-2D01*
G01*
X148000002Y-99700001D02*
G75*
G03*
X146450001Y-101250000I-2J-1549999D01*
G01*
X168300000Y-108999999D02*
G75*
G03*
X169800002Y-110500000I1500000J-1D01*
G01*
X144000001Y-100800000D02*
X141000001Y-100800000D01*
X150000946Y-122997966D02*
X131245000Y-123000000D01*
X148750000Y-60550001D02*
G75*
G03*
X148300001Y-61000002I0J-449999D01*
G01*
X146500000Y-115100000D02*
G75*
G03*
X146000000Y-114600000I-500000J0D01*
G01*
X165950001Y-83449999D02*
G75*
G03*
X166500001Y-83999999I549999J-1D01*
G01*
X145550000Y-101250000D02*
G75*
G03*
X146000002Y-101700000I450000J0D01*
G01*
X147699999Y-54500000D02*
X144500000Y-54500001D01*
X179500000Y-114100000D02*
G75*
G03*
X180000000Y-114600000I500000J0D01*
G01*
X150950000Y-63500001D02*
X150799999Y-63500001D01*
X156001089Y-129500000D02*
X179000000Y-129500000D01*
X200600000Y-86000000D02*
G75*
G03*
X200100000Y-85500000I-500000J0D01*
G01*
X200100001Y-62000001D02*
G75*
G03*
X200600001Y-61500000I-1J500001D01*
G01*
X199600000Y-61500000D02*
G75*
G03*
X200100001Y-62000000I500000J0D01*
G01*
X148500000Y-63500000D02*
G75*
G03*
X147950000Y-64050001I0J-550000D01*
G01*
X135399999Y-105500001D02*
G75*
G03*
X135899999Y-106000001I500001J1D01*
G01*
X199100000Y-88000000D02*
G75*
G03*
X199600000Y-87500000I0J500000D01*
G01*
X196000000Y-59000000D02*
X199100001Y-58999999D01*
X167000001Y-80450000D02*
G75*
G03*
X165950000Y-81500001I-1J-1050000D01*
G01*
X191000000Y-111000000D02*
X191000001Y-114100001D01*
X204878680Y-40878680D02*
X203755000Y-42000000D01*
X149100000Y-80949479D02*
X150999999Y-80949999D01*
X136400000Y-115600000D02*
X146000000Y-115600000D01*
X139499999Y-80700000D02*
X139500001Y-77500001D01*
X183449479Y-100899999D02*
X183449999Y-99000000D01*
X130121320Y-40878680D02*
X131242640Y-42002360D01*
X168799999Y-84000000D02*
X168999999Y-84000000D01*
X139499999Y-80700000D02*
G75*
G03*
X141000000Y-82200001I1500001J0D01*
G01*
X168300000Y-105999999D02*
X168300001Y-108999999D01*
X169300000Y-54499999D02*
G75*
G03*
X167799999Y-56000001I0J-1500001D01*
G01*
X199600000Y-70000000D02*
X199599999Y-68500000D01*
X169000000Y-101500001D02*
G75*
G03*
X169550001Y-100949999I0J550001D01*
G01*
X183449480Y-100899999D02*
G75*
G03*
X184050000Y-101500520I600520J-1D01*
G01*
X161500000Y-54000000D02*
G75*
G03*
X162000000Y-54500000I500000J0D01*
G01*
X141000000Y-83299999D02*
G75*
G03*
X139499999Y-84800001I0J-1500001D01*
G01*
X167200001Y-101999998D02*
G75*
G03*
X166700001Y-101499999I-500001J-2D01*
G01*
X149100001Y-98449479D02*
X151000000Y-98449999D01*
X149100000Y-80949479D02*
G75*
G03*
X148499479Y-81550000I0J-600521D01*
G01*
X148500000Y-101300000D02*
G75*
G03*
X148000001Y-100800000I-500000J0D01*
G01*
X144450000Y-101250000D02*
G75*
G03*
X144000001Y-100800000I-450000J0D01*
G01*
X150724695Y-107974696D02*
G75*
G03*
X150300001Y-109000000I1025305J-1025304D01*
G01*
X193999999Y-64200000D02*
G75*
G03*
X195500000Y-62699998I1J1500000D01*
G01*
X153001100Y-126498911D02*
G75*
G03*
X156001089Y-129500000I3000000J-1089D01*
G01*
X147949999Y-66000002D02*
X147950000Y-64050001D01*
X186999998Y-82799999D02*
G75*
G03*
X186499999Y-83299999I2J-500001D01*
G01*
X165449999Y-66000002D02*
X165450000Y-64050001D01*
X149200000Y-59000001D02*
X149200000Y-56000001D01*
X144000000Y-54000000D02*
G75*
G03*
X144500000Y-54500000I500000J0D01*
G01*
X168300001Y-101999999D02*
G75*
G03*
X168750000Y-102449999I449999J-1D01*
G01*
X186500000Y-81200000D02*
G75*
G03*
X186999999Y-81700000I500000J0D01*
G01*
X189450000Y-81250000D02*
G75*
G03*
X188999998Y-80800000I-450000J0D01*
G01*
X195500000Y-66800000D02*
X195499999Y-69999999D01*
X168431801Y-88181801D02*
X150724697Y-107974698D01*
X200100000Y-85500000D02*
G75*
G03*
X199600000Y-86000000I0J-500000D01*
G01*
X155500000Y-111000000D02*
G75*
G03*
X155000000Y-110500000I-500000J0D01*
G01*
X200600000Y-51400000D02*
G75*
G03*
X198600001Y-49400000I-2000000J0D01*
G01*
X182949999Y-65500000D02*
X182949997Y-64000000D01*
X150299999Y-63000002D02*
G75*
G03*
X150799999Y-63500001I500001J2D01*
G01*
X151550520Y-64100001D02*
G75*
G03*
X150950000Y-63499480I-600520J1D01*
G01*
X146000001Y-84200000D02*
G75*
G03*
X146450000Y-83750000I-1J450000D01*
G01*
X169550000Y-81500000D02*
X169549999Y-83450000D01*
X165700000Y-110500001D02*
G75*
G03*
X167200001Y-108999999I0J1500001D01*
G01*
X189450000Y-63750000D02*
G75*
G03*
X190999999Y-65300000I1550000J0D01*
G01*
X190999999Y-82800000D02*
X194000000Y-82799998D01*
X199600000Y-77000000D02*
X199600000Y-79000000D01*
X185800000Y-108999999D02*
G75*
G03*
X187300002Y-110500000I1500000J-1D01*
G01*
X134899999Y-102999999D02*
G75*
G03*
X134399999Y-103500000I1J-500001D01*
G01*
X179000000Y-129500000D02*
G75*
G03*
X182000000Y-126500000I0J3000000D01*
G01*
X152050001Y-99500001D02*
G75*
G03*
X151000000Y-98449999I-1050001J1D01*
G01*
X129500000Y-43000000D02*
G75*
G03*
X129500000Y-43000000I-1500000J0D01*
G01*
X145550000Y-101250000D02*
G75*
G03*
X144000001Y-99700000I-1550000J0D01*
G01*
X135400000Y-105500000D02*
X135400000Y-103500000D01*
X162500000Y-114600000D02*
X164000000Y-114599999D01*
X152499999Y-115100001D02*
G75*
G03*
X153000000Y-115600001I500001J1D01*
G01*
X148000000Y-83300000D02*
G75*
G03*
X147550000Y-83750000I0J-450000D01*
G01*
X186999998Y-65299999D02*
G75*
G03*
X186499999Y-65799999I2J-500001D01*
G01*
X148000001Y-82200000D02*
G75*
G03*
X148500000Y-81700001I-1J500000D01*
G01*
X200600001Y-61500000D02*
X200600001Y-51400000D01*
X188500000Y-115600000D02*
X198600000Y-115600000D01*
X187999999Y-115100001D02*
G75*
G03*
X188500000Y-115600001I500001J1D01*
G01*
X139000000Y-88500000D02*
X135899999Y-88500001D01*
X167000001Y-97949999D02*
G75*
G03*
X165949999Y-99000000I-1J-1050001D01*
G01*
X166550000Y-101499999D02*
X166700001Y-101499999D01*
X149946879Y-107196877D02*
G75*
G03*
X149200001Y-109000000I1803121J-1803123D01*
G01*
X184500001Y-97949999D02*
G75*
G03*
X183449999Y-99000000I-1J-1050001D01*
G01*
X144000000Y-114100000D02*
G75*
G03*
X144500000Y-114600000I500000J0D01*
G01*
X144450000Y-83750000D02*
G75*
G03*
X144000000Y-83300000I-450000J0D01*
G01*
X150300000Y-59000001D02*
X150299998Y-56000001D01*
X148500001Y-101300000D02*
X148500001Y-101500000D01*
X166200000Y-63500000D02*
G75*
G03*
X166700000Y-63000001I0J500000D01*
G01*
X155000001Y-114600001D02*
G75*
G03*
X155500001Y-114100001I-1J500001D01*
G01*
X144000000Y-82200000D02*
X141000000Y-82200002D01*
X169050521Y-64100001D02*
X169050001Y-66000000D01*
X183200000Y-110500001D02*
G75*
G03*
X184700001Y-108999999I0J1500001D01*
G01*
X186999999Y-81699999D02*
G75*
G03*
X187449999Y-81250000I1J449999D01*
G01*
X150499999Y-67050001D02*
G75*
G03*
X151550001Y-66000000I1J1050001D01*
G01*
X139499999Y-84800001D02*
X139500001Y-88000000D01*
X186250000Y-104450000D02*
G75*
G03*
X186700000Y-103999998I0J450000D01*
G01*
X195500000Y-62699998D02*
X195499999Y-59500000D01*
X148000001Y-100800001D02*
G75*
G03*
X147550001Y-101250000I-1J-449999D01*
G01*
X165199999Y-54500000D02*
X162000000Y-54500001D01*
X195500000Y-84300000D02*
X195499999Y-87499999D01*
X167799999Y-63000002D02*
G75*
G03*
X168299999Y-63500001I500001J2D01*
G01*
X186700001Y-103999998D02*
G75*
G03*
X186250000Y-103549999I-450001J-2D01*
G01*
X168799999Y-83999999D02*
G75*
G03*
X168299999Y-84500000I1J-500001D01*
G01*
X166250000Y-60550000D02*
G75*
G03*
X167800000Y-59000001I0J1550000D01*
G01*
X144000000Y-83300000D02*
X141000000Y-83300000D01*
X167999999Y-67050001D02*
G75*
G03*
X169050001Y-66000000I1J1050001D01*
G01*
X169550001Y-98999998D02*
X169550001Y-100949999D01*
X185899999Y-84050521D02*
X184000000Y-84050001D01*
X199600001Y-59499999D02*
G75*
G03*
X199100001Y-58999999I-500001J-1D01*
G01*
X173000000Y-114600000D02*
G75*
G03*
X173500000Y-114100000I0J500000D01*
G01*
X164500000Y-115100000D02*
G75*
G03*
X164000000Y-114600000I-500000J0D01*
G01*
X166250000Y-60550001D02*
G75*
G03*
X165800001Y-61000002I0J-449999D01*
G01*
X147949998Y-66000002D02*
G75*
G03*
X149000000Y-67050002I1050002J2D01*
G01*
X148500000Y-84000000D02*
G75*
G03*
X149050000Y-84550000I550000J0D01*
G01*
X162000001Y-110999999D02*
X162000000Y-114100000D01*
X154999999Y-54499999D02*
G75*
G03*
X155499999Y-54000001I1J499999D01*
G01*
X180000001Y-110500001D02*
G75*
G03*
X179500001Y-110999999I-1J-499999D01*
G01*
X168800000Y-101499999D02*
X169000000Y-101499999D01*
X179500001Y-110999999D02*
X179500000Y-114100000D01*
X145550000Y-83750000D02*
G75*
G03*
X144000000Y-82200000I-1550000J0D01*
G01*
X151800000Y-54499999D02*
G75*
G03*
X150299999Y-56000001I0J-1500001D01*
G01*
X127000000Y-46245000D02*
X127002360Y-118757360D01*
X144500000Y-114600000D02*
X146000000Y-114599999D01*
X186500000Y-101500001D02*
G75*
G03*
X187050001Y-100949999I0J550001D01*
G01*
X200600000Y-68500000D02*
G75*
G03*
X200100000Y-68000000I-500000J0D01*
G01*
X153001270Y-125999055D02*
X153001089Y-126498911D01*
X188999998Y-80799999D02*
G75*
G03*
X188549999Y-81250000I2J-450001D01*
G01*
X150299999Y-63000002D02*
G75*
G03*
X148750000Y-61450001I-1549999J2D01*
G01*
X134399999Y-103500000D02*
X134399999Y-113599999D01*
X166250000Y-59449999D02*
G75*
G03*
X166250000Y-62550001I0J-1550001D01*
G01*
X186250000Y-105550000D02*
G75*
G03*
X185800000Y-105999999I0J-450000D01*
G01*
X208500000Y-122000000D02*
G75*
G03*
X208500000Y-122000000I-1500000J0D01*
G01*
X155000000Y-50400000D02*
X153500000Y-50400001D01*
X200600001Y-79000000D02*
X200600000Y-68500000D01*
X186300000Y-101500000D02*
G75*
G03*
X185800000Y-101999999I0J-500000D01*
G01*
X168750000Y-86950001D02*
G75*
G03*
X169200001Y-86499999I0J450001D01*
G01*
X171000001Y-49400000D02*
X198600001Y-49400000D01*
X190999999Y-64200000D02*
X193999999Y-64199999D01*
X169300000Y-54500000D02*
X172499999Y-54500001D01*
X190500001Y-114600001D02*
G75*
G03*
X191000001Y-114100001I-1J500001D01*
G01*
X168000000Y-67050001D02*
X166500000Y-67050002D01*
X172999999Y-114599999D02*
X170999999Y-114599999D01*
X172500000Y-50400000D02*
X171000000Y-50400001D01*
X151000000Y-84550001D02*
G75*
G03*
X152050001Y-83500001I0J1050001D01*
G01*
X150300001Y-108999998D02*
G75*
G03*
X151800002Y-110499999I1499999J-2D01*
G01*
X183200000Y-110500000D02*
X180000001Y-110499999D01*
X185899999Y-66550520D02*
G75*
G03*
X186500520Y-65950000I1J600520D01*
G01*
X186499999Y-63700000D02*
X186499999Y-63500000D01*
X199100000Y-70500000D02*
G75*
G03*
X199600000Y-70000000I0J500000D01*
G01*
X186500001Y-81000000D02*
G75*
G03*
X185949999Y-80449999I-550001J0D01*
G01*
X130121320Y-124121320D02*
X131245000Y-123000000D01*
X196000000Y-59000000D02*
G75*
G03*
X195500000Y-59500000I0J-500000D01*
G01*
X148500000Y-83800000D02*
G75*
G03*
X148000000Y-83300000I-500000J0D01*
G01*
X153001234Y-125999055D02*
G75*
G03*
X150000946Y-122997966I-2999934J1155D01*
G01*
X135399999Y-88000001D02*
G75*
G03*
X135899999Y-88500001I500001J1D01*
G01*
X134400000Y-96500000D02*
G75*
G03*
X134900000Y-97000000I500000J0D01*
G01*
X195999999Y-70499999D02*
X199100000Y-70500000D01*
X134400000Y-79000000D02*
X134400000Y-51400000D01*
X155500000Y-111000000D02*
X155500001Y-114100001D01*
X190999999Y-65300000D02*
X194000000Y-65299998D01*
X186999998Y-65299999D02*
G75*
G03*
X188549999Y-63750000I2J1549999D01*
G01*
X168750000Y-104450000D02*
G75*
G03*
X167200000Y-105999999I0J-1550000D01*
G01*
X148500000Y-101500000D02*
G75*
G03*
X149050001Y-102050000I550000J0D01*
G01*
X195500001Y-84300000D02*
G75*
G03*
X193999999Y-82799999I-1500001J0D01*
G01*
X146000000Y-115600000D02*
G75*
G03*
X146500000Y-115100000I0J500000D01*
G01*
X186300000Y-101499999D02*
X186500000Y-101499999D01*
X147000001Y-49899999D02*
G75*
G03*
X146500000Y-49399999I-500001J-1D01*
G01*
X167000000Y-97949999D02*
X168500000Y-97949997D01*
X134400000Y-96500000D02*
X134399999Y-86000000D01*
X164000000Y-115600000D02*
G75*
G03*
X164500000Y-115100000I0J500000D01*
G01*
X153000000Y-49900000D02*
G75*
G03*
X153500000Y-50400000I500000J0D01*
G01*
X188999998Y-63299999D02*
G75*
G03*
X188549999Y-63750000I2J-450001D01*
G01*
X185800001Y-101999999D02*
G75*
G03*
X186250000Y-102449999I449999J-1D01*
G01*
X144450000Y-83750000D02*
G75*
G03*
X147550000Y-83750000I1550000J0D01*
G01*
X164000000Y-50400000D02*
G75*
G03*
X164500000Y-49899999I0J500000D01*
G01*
X195999999Y-87999999D02*
X199100000Y-88000000D01*
X168450000Y-63500001D02*
X168299999Y-63500001D01*
X190550000Y-81250000D02*
G75*
G03*
X190999999Y-81700000I450000J0D01*
G01*
X182000000Y-115100000D02*
G75*
G03*
X181500000Y-114600000I-500000J0D01*
G01*
X183999998Y-80449997D02*
G75*
G03*
X182949997Y-81500000I2J-1050003D01*
G01*
X195500001Y-87499999D02*
G75*
G03*
X195999999Y-87999999I499999J-1D01*
G01*
X166000000Y-63500000D02*
G75*
G03*
X165450000Y-64050001I0J-550000D01*
G01*
X134400000Y-79000000D02*
G75*
G03*
X134900000Y-79500000I500000J0D01*
G01*
X171000000Y-49400000D02*
G75*
G03*
X170500000Y-49900000I0J-500000D01*
G01*
X141000001Y-100800000D02*
G75*
G03*
X139500000Y-102300001I-1J-1500000D01*
G01*
X146500000Y-50400000D02*
G75*
G03*
X147000000Y-49899999I0J500000D01*
G01*
X199600000Y-59500000D02*
X199600000Y-61500000D01*
X170500000Y-49900000D02*
G75*
G03*
X171000000Y-50400000I500000J0D01*
G01*
X146000002Y-101700001D02*
G75*
G03*
X146450001Y-101250000I-2J450001D01*
G01*
X165949480Y-100899999D02*
G75*
G03*
X166550000Y-101500520I600520J-1D01*
G01*
X204878680Y-124121320D02*
G75*
G03*
X209121320Y-119878680I2121320J2121320D01*
G01*
X165949479Y-100899999D02*
X165949999Y-99000000D01*
X166250000Y-59450000D02*
G75*
G03*
X166700000Y-59000001I0J450000D01*
G01*
X148000001Y-82200000D02*
G75*
G03*
X146450000Y-83750000I-1J-1550000D01*
G01*
X172999999Y-54000001D02*
X173000000Y-50900000D01*
X167200001Y-84499999D02*
G75*
G03*
X166700001Y-83999999I-500001J-1D01*
G01*
X171000000Y-115600001D02*
X181500000Y-115600000D01*
X168750000Y-105550001D02*
G75*
G03*
X168750000Y-102449999I0J1550001D01*
G01*
X199600000Y-87500000D02*
X199599999Y-86000000D01*
X168750000Y-105550000D02*
G75*
G03*
X168300000Y-105999999I0J-450000D01*
G01*
X139499999Y-77500001D02*
G75*
G03*
X139000001Y-77000001I-499999J1D01*
G01*
X165449998Y-66000002D02*
G75*
G03*
X166500000Y-67050002I1050002J2D01*
G01*
X181500000Y-115600000D02*
G75*
G03*
X182000000Y-115100000I0J500000D01*
G01*
X166700000Y-56000001D02*
G75*
G03*
X165199999Y-54500000I-1500000J1D01*
G01*
X168800000Y-101500000D02*
G75*
G03*
X168300000Y-101999999I0J-500000D01*
G01*
X190549999Y-63750000D02*
G75*
G03*
X187449999Y-63750000I-1550000J0D01*
G01*
X186999998Y-82799999D02*
G75*
G03*
X188549999Y-81250000I2J1549999D01*
G01*
X144500001Y-110500001D02*
G75*
G03*
X144000001Y-110999999I-1J-499999D01*
G01*
X182949999Y-82999999D02*
G75*
G03*
X184000000Y-84050001I1050001J-1D01*
G01*
X167200002Y-84499999D02*
G75*
G03*
X168750000Y-86049998I1549998J-1D01*
G01*
X149100001Y-98449480D02*
G75*
G03*
X148499480Y-99050000I-1J-600520D01*
G01*
X148000002Y-99700001D02*
G75*
G03*
X148500001Y-99200001I-2J500001D01*
G01*
X169050520Y-64100001D02*
G75*
G03*
X168450000Y-63499480I-600520J1D01*
G01*
X149199999Y-63000001D02*
G75*
G03*
X148750000Y-62550001I-449999J1D01*
G01*
X184500000Y-97949999D02*
X186000000Y-97949997D01*
X161500000Y-54000000D02*
X161499999Y-50899999D01*
X148750000Y-60550000D02*
G75*
G03*
X150300000Y-59000001I0J1550000D01*
G01*
X152050002Y-99500000D02*
X152050002Y-101000001D01*
X148299999Y-61000002D02*
G75*
G03*
X148750000Y-61450001I450001J2D01*
G01*
X135400000Y-86000000D02*
G75*
G03*
X134899999Y-85500000I-500000J0D01*
G01*
X155000000Y-114600000D02*
X153000000Y-114600000D01*
X182949999Y-83000000D02*
X182949997Y-81500000D01*
X148500001Y-99050000D02*
X148500001Y-99200001D01*
X187300002Y-110500000D02*
X190500000Y-110499999D01*
X189450000Y-81250000D02*
G75*
G03*
X190999999Y-82800000I1550000J0D01*
G01*
X186250000Y-105550001D02*
G75*
G03*
X186250000Y-102449999I0J1550001D01*
G01*
X144500000Y-50400000D02*
X146500000Y-50400000D01*
X149946879Y-107196877D02*
X167653985Y-87403985D01*
X173500000Y-114100000D02*
X173500000Y-111000000D01*
X208500000Y-43000000D02*
G75*
G03*
X208500000Y-43000000I-1500000J0D01*
G01*
X139499999Y-95000001D02*
G75*
G03*
X139000001Y-94500001I-499999J1D01*
G01*
X151000001Y-102050001D02*
X149050001Y-102050000D01*
X186999999Y-64199999D02*
G75*
G03*
X187449999Y-63750000I1J449999D01*
G01*
X147700000Y-110500001D02*
G75*
G03*
X149200001Y-109000000I0J1500001D01*
G01*
X125878680Y-119878680D02*
G75*
G03*
X130121320Y-124121320I2121320J-2121320D01*
G01*
X135400000Y-95000000D02*
X135400001Y-96500000D01*
X184700001Y-101999998D02*
G75*
G03*
X186250000Y-103549999I1549999J-2D01*
G01*
X169550000Y-81500000D02*
G75*
G03*
X168500001Y-80450000I-1050000J0D01*
G01*
X191000000Y-111000000D02*
G75*
G03*
X190500000Y-110500000I-500000J0D01*
G01*
X166500001Y-83999999D02*
X166700001Y-83999999D01*
X150500000Y-67050001D02*
X149000000Y-67050002D01*
X209121320Y-119878680D02*
X208000000Y-118755000D01*
X190550000Y-63750000D02*
G75*
G03*
X190999999Y-64200000I450000J0D01*
G01*
X168750000Y-104450000D02*
G75*
G03*
X169200000Y-103999998I0J450000D01*
G01*
X169800002Y-110500000D02*
X173000000Y-110499999D01*
X195500001Y-69999999D02*
G75*
G03*
X195999999Y-70499999I499999J-1D01*
G01*
X180000000Y-114600000D02*
X181500000Y-114599999D01*
X148700000Y-63500001D02*
X148500000Y-63500001D01*
X148500000Y-83800000D02*
X148500000Y-84000000D01*
X173000000Y-50900000D02*
G75*
G03*
X172500000Y-50400000I-500000J0D01*
G01*
X200600000Y-86000000D02*
X200600000Y-113600000D01*
X164500001Y-49899999D02*
G75*
G03*
X164000000Y-49399999I-500001J-1D01*
G01*
X144000001Y-99700000D02*
X141000001Y-99700002D01*
X190500000Y-114600000D02*
X188500000Y-114600000D01*
X153000000Y-114600000D02*
G75*
G03*
X152500000Y-115100001I0J-500000D01*
G01*
X168750000Y-88049999D02*
G75*
G03*
X168750000Y-84950001I0J1549999D01*
G01*
X139000001Y-94500001D02*
X135900000Y-94500000D01*
X167200000Y-105999999D02*
X167200002Y-109000000D01*
X139000000Y-106000000D02*
G75*
G03*
X139500000Y-105500000I0J500000D01*
G01*
X183999998Y-62949999D02*
X185949999Y-62949999D01*
X196000000Y-76500000D02*
X199100001Y-76499999D01*
X184050000Y-101499999D02*
X184200001Y-101499999D01*
X207997640Y-46242640D02*
X208000000Y-118755000D01*
X186499999Y-83450000D02*
X186499999Y-83299999D01*
X182000000Y-126500000D02*
X182000000Y-125999675D01*
X145550000Y-83750000D02*
G75*
G03*
X146000001Y-84200000I450000J0D01*
G01*
X144000000Y-54000000D02*
X143999999Y-50899999D01*
X193999999Y-81700000D02*
G75*
G03*
X195500000Y-80199998I1J1500000D01*
G01*
X148700000Y-63500000D02*
G75*
G03*
X149200000Y-63000001I0J500000D01*
G01*
X153500000Y-49400000D02*
X164000000Y-49399999D01*
X184999675Y-122999700D02*
G75*
G03*
X182000000Y-125999675I325J-3000000D01*
G01*
X170499999Y-115100001D02*
G75*
G03*
X171000000Y-115600001I500001J1D01*
G01*
X168750000Y-88049999D02*
G75*
G03*
X168431801Y-88181801I0J-450001D01*
G01*
X209121320Y-45121320D02*
G75*
G03*
X204878680Y-40878680I-2121320J2121320D01*
G01*
X139000000Y-88500000D02*
G75*
G03*
X139500000Y-88000000I0J500000D01*
G01*
X165700000Y-110500000D02*
X162500001Y-110499999D01*
X185899999Y-66550521D02*
X184000000Y-66550001D01*
X167800000Y-59000001D02*
X167799998Y-56000001D01*
X199600001Y-76999999D02*
G75*
G03*
X199100001Y-76499999I-500001J-1D01*
G01*
X162000000Y-50400000D02*
X164000000Y-50400000D01*
X184700001Y-101999998D02*
G75*
G03*
X184200001Y-101499999I-500001J-2D01*
G01*
X162000000Y-114100000D02*
G75*
G03*
X162500000Y-114600000I500000J0D01*
G01*
X146500000Y-49399999D02*
X136400000Y-49400000D01*
X144000001Y-110999999D02*
X144000000Y-114100000D01*
X152050001Y-82000001D02*
G75*
G03*
X150999999Y-80949999I-1050001J1D01*
G01*
X187050001Y-98999998D02*
X187050001Y-100949999D01*
X198600000Y-115600000D02*
G75*
G03*
X200600000Y-113600000I0J2000000D01*
G01*
X166200000Y-63500001D02*
X166000000Y-63500001D01*
X125878680Y-45121320D02*
X127000000Y-46245000D01*
X196000000Y-76500000D02*
G75*
G03*
X195500000Y-77000000I0J-500000D01*
G01*
X168299999Y-84500000D02*
G75*
G03*
X168750000Y-84950001I450001J0D01*
G01*
X195500000Y-80199998D02*
X195499999Y-77000000D01*
X139500000Y-98200000D02*
X139500001Y-95000001D01*
X151800002Y-110499999D02*
X155000000Y-110499999D01*
X186250000Y-104450000D02*
G75*
G03*
X184700000Y-105999999I0J-1550000D01*
G01*
X173500000Y-111000000D02*
G75*
G03*
X173000000Y-110500000I-500000J0D01*
G01*
X129500000Y-122000000D02*
G75*
G03*
X129500000Y-122000000I-1500000J0D01*
G01*
X148750000Y-59450000D02*
G75*
G03*
X149200000Y-59000001I0J450000D01*
G01*
X209121320Y-45121320D02*
X207997640Y-46242640D01*
X164000000Y-115600000D02*
X153000000Y-115600001D01*
X144450001Y-101250000D02*
G75*
G03*
X147550001Y-101250000I1550000J0D01*
G01*
X195500001Y-66800000D02*
G75*
G03*
X193999999Y-65299999I-1500001J0D01*
G01*
X203757360Y-122997640D02*
X184999675Y-122999675D01*
X134900000Y-79500000D02*
G75*
G03*
X135400000Y-79000000I0J500000D01*
G01*
X168999999Y-83999999D02*
G75*
G03*
X169549999Y-83450000I1J549999D01*
G01*
X147700000Y-110500001D02*
X144500001Y-110499999D01*
X135400000Y-88000000D02*
X135400000Y-86000000D01*
X135900000Y-94500000D02*
G75*
G03*
X135400000Y-95000000I0J-500000D01*
G01*
X151000000Y-84550001D02*
X149050000Y-84550000D01*
X190549999Y-81250000D02*
G75*
G03*
X187449999Y-81250000I-1550000J0D01*
G01*
X167799999Y-63000002D02*
G75*
G03*
X166250000Y-61450001I-1549999J2D01*
G01*
X200100000Y-68000000D02*
G75*
G03*
X199600000Y-68500000I0J-500000D01*
G01*
X144499999Y-50399999D02*
G75*
G03*
X143999999Y-50899999I1J-500001D01*
G01*
M02*
