%TF.GenerationSoftware,KiCad,Pcbnew,7.0.2-6a45011f42~172~ubuntu22.04.1*%
%TF.CreationDate,2023-05-18T14:46:19+01:00*%
%TF.ProjectId,KX134_array,4b583133-345f-4617-9272-61792e6b6963,rev?*%
%TF.SameCoordinates,Original*%
%TF.FileFunction,Copper,L2,Bot*%
%TF.FilePolarity,Positive*%
%FSLAX46Y46*%
G04 Gerber Fmt 4.6, Leading zero omitted, Abs format (unit mm)*
G04 Created by KiCad (PCBNEW 7.0.2-6a45011f42~172~ubuntu22.04.1) date 2023-05-18 14:46:19*
%MOMM*%
%LPD*%
G01*
G04 APERTURE LIST*
%TA.AperFunction,ComponentPad*%
%ADD10R,1.000000X1.000000*%
%TD*%
%TA.AperFunction,ComponentPad*%
%ADD11O,1.000000X1.000000*%
%TD*%
%TA.AperFunction,ComponentPad*%
%ADD12R,1.700000X1.700000*%
%TD*%
%TA.AperFunction,ComponentPad*%
%ADD13O,1.700000X1.700000*%
%TD*%
%TA.AperFunction,ViaPad*%
%ADD14C,0.400000*%
%TD*%
%TA.AperFunction,Conductor*%
%ADD15C,0.100000*%
%TD*%
G04 APERTURE END LIST*
D10*
%TO.P,J7,1,Pin_1*%
%TO.N,GND*%
X163300000Y-112550000D03*
D11*
%TO.P,J7,2,Pin_2*%
%TO.N,INT1_7*%
X164570000Y-112550000D03*
%TO.P,J7,3,Pin_3*%
%TO.N,VDD*%
X165840000Y-112550000D03*
%TO.P,J7,4,Pin_4*%
%TO.N,TRIG_7*%
X167110000Y-112550000D03*
%TO.P,J7,5,Pin_5*%
%TO.N,nCS_7*%
X168380000Y-112550000D03*
%TO.P,J7,6,Pin_6*%
%TO.N,SDI*%
X169650000Y-112550000D03*
%TO.P,J7,7,Pin_7*%
%TO.N,Sclk*%
X170920000Y-112550000D03*
%TO.P,J7,8,Pin_8*%
%TO.N,SDO*%
X172190000Y-112550000D03*
%TD*%
D10*
%TO.P,J1,1,Pin_1*%
%TO.N,GND*%
X154200000Y-52450000D03*
D11*
%TO.P,J1,2,Pin_2*%
%TO.N,INT1_1*%
X152930000Y-52450000D03*
%TO.P,J1,3,Pin_3*%
%TO.N,VDD*%
X151660000Y-52450000D03*
%TO.P,J1,4,Pin_4*%
%TO.N,TRIG_1*%
X150390000Y-52450000D03*
%TO.P,J1,5,Pin_5*%
%TO.N,nCS_1*%
X149120000Y-52450000D03*
%TO.P,J1,6,Pin_6*%
%TO.N,SDI*%
X147850000Y-52450000D03*
%TO.P,J1,7,Pin_7*%
%TO.N,Sclk*%
X146580000Y-52450000D03*
%TO.P,J1,8,Pin_8*%
%TO.N,SDO*%
X145310000Y-52450000D03*
%TD*%
D10*
%TO.P,J2,1,Pin_1*%
%TO.N,GND*%
X171700000Y-52450000D03*
D11*
%TO.P,J2,2,Pin_2*%
%TO.N,INT1_2*%
X170430000Y-52450000D03*
%TO.P,J2,3,Pin_3*%
%TO.N,VDD*%
X169160000Y-52450000D03*
%TO.P,J2,4,Pin_4*%
%TO.N,TRIG_2*%
X167890000Y-52450000D03*
%TO.P,J2,5,Pin_5*%
%TO.N,nCS_2*%
X166620000Y-52450000D03*
%TO.P,J2,6,Pin_6*%
%TO.N,SDI*%
X165350000Y-52450000D03*
%TO.P,J2,7,Pin_7*%
%TO.N,Sclk*%
X164080000Y-52450000D03*
%TO.P,J2,8,Pin_8*%
%TO.N,SDO*%
X162810000Y-52450000D03*
%TD*%
D10*
%TO.P,J8,1,Pin_1*%
%TO.N,GND*%
X180800000Y-112550000D03*
D11*
%TO.P,J8,2,Pin_2*%
%TO.N,INT1_8*%
X182070000Y-112550000D03*
%TO.P,J8,3,Pin_3*%
%TO.N,VDD*%
X183340000Y-112550000D03*
%TO.P,J8,4,Pin_4*%
%TO.N,TRIG_8*%
X184610000Y-112550000D03*
%TO.P,J8,5,Pin_5*%
%TO.N,nCS_8*%
X185880000Y-112550000D03*
%TO.P,J8,6,Pin_6*%
%TO.N,SDI*%
X187150000Y-112550000D03*
%TO.P,J8,7,Pin_7*%
%TO.N,Sclk*%
X188420000Y-112550000D03*
%TO.P,J8,8,Pin_8*%
%TO.N,SDO*%
X189690000Y-112550000D03*
%TD*%
D10*
%TO.P,J3,1,Pin_1*%
%TO.N,GND*%
X197550000Y-69199999D03*
D11*
%TO.P,J3,2,Pin_2*%
%TO.N,INT1_3*%
X197550000Y-67929999D03*
%TO.P,J3,3,Pin_3*%
%TO.N,VDD*%
X197550000Y-66659999D03*
%TO.P,J3,4,Pin_4*%
%TO.N,TRIG_3*%
X197550000Y-65389999D03*
%TO.P,J3,5,Pin_5*%
%TO.N,nCS_3*%
X197550000Y-64119999D03*
%TO.P,J3,6,Pin_6*%
%TO.N,SDI*%
X197550000Y-62849999D03*
%TO.P,J3,7,Pin_7*%
%TO.N,Sclk*%
X197550000Y-61579999D03*
%TO.P,J3,8,Pin_8*%
%TO.N,SDO*%
X197550000Y-60309999D03*
%TD*%
D10*
%TO.P,J9,1,Pin_1*%
%TO.N,GND*%
X137450000Y-95800000D03*
D11*
%TO.P,J9,2,Pin_2*%
%TO.N,INT1_9*%
X137450000Y-97070000D03*
%TO.P,J9,3,Pin_3*%
%TO.N,VDD*%
X137450000Y-98340000D03*
%TO.P,J9,4,Pin_4*%
%TO.N,TRIG_9*%
X137450000Y-99610000D03*
%TO.P,J9,5,Pin_5*%
%TO.N,nCS_9*%
X137450000Y-100880000D03*
%TO.P,J9,6,Pin_6*%
%TO.N,SDI*%
X137450000Y-102150000D03*
%TO.P,J9,7,Pin_7*%
%TO.N,Sclk*%
X137450000Y-103420000D03*
%TO.P,J9,8,Pin_8*%
%TO.N,SDO*%
X137450000Y-104690000D03*
%TD*%
D10*
%TO.P,J4,1,Pin_1*%
%TO.N,GND*%
X197550000Y-86699999D03*
D11*
%TO.P,J4,2,Pin_2*%
%TO.N,INT1_4*%
X197550000Y-85429999D03*
%TO.P,J4,3,Pin_3*%
%TO.N,VDD*%
X197550000Y-84159999D03*
%TO.P,J4,4,Pin_4*%
%TO.N,TRIG_4*%
X197550000Y-82889999D03*
%TO.P,J4,5,Pin_5*%
%TO.N,nCS_4*%
X197550000Y-81619999D03*
%TO.P,J4,6,Pin_6*%
%TO.N,SDI*%
X197550000Y-80349999D03*
%TO.P,J4,7,Pin_7*%
%TO.N,Sclk*%
X197550000Y-79079999D03*
%TO.P,J4,8,Pin_8*%
%TO.N,SDO*%
X197550000Y-77809999D03*
%TD*%
D10*
%TO.P,J5,1,Pin_1*%
%TO.N,GND*%
X145300000Y-112550000D03*
D11*
%TO.P,J5,2,Pin_2*%
%TO.N,INT1_5*%
X146570000Y-112550000D03*
%TO.P,J5,3,Pin_3*%
%TO.N,VDD*%
X147840000Y-112550000D03*
%TO.P,J5,4,Pin_4*%
%TO.N,TRIG_5*%
X149110000Y-112550000D03*
%TO.P,J5,5,Pin_5*%
%TO.N,nCS_5*%
X150380000Y-112550000D03*
%TO.P,J5,6,Pin_6*%
%TO.N,SDI*%
X151650000Y-112550000D03*
%TO.P,J5,7,Pin_7*%
%TO.N,Sclk*%
X152920000Y-112550000D03*
%TO.P,J5,8,Pin_8*%
%TO.N,SDO*%
X154190000Y-112550000D03*
%TD*%
D10*
%TO.P,J6,1,Pin_1*%
%TO.N,GND*%
X137450000Y-78300000D03*
D11*
%TO.P,J6,2,Pin_2*%
%TO.N,INT1_6*%
X137450000Y-79570000D03*
%TO.P,J6,3,Pin_3*%
%TO.N,VDD*%
X137450000Y-80840000D03*
%TO.P,J6,4,Pin_4*%
%TO.N,TRIG_6*%
X137450000Y-82110000D03*
%TO.P,J6,5,Pin_5*%
%TO.N,nCS_6*%
X137450000Y-83380000D03*
%TO.P,J6,6,Pin_6*%
%TO.N,SDI*%
X137450000Y-84650000D03*
%TO.P,J6,7,Pin_7*%
%TO.N,Sclk*%
X137450000Y-85920000D03*
%TO.P,J6,8,Pin_8*%
%TO.N,SDO*%
X137450000Y-87190000D03*
%TD*%
D12*
%TO.P,J10,1,Pin_1*%
%TO.N,nCS_4*%
X177660000Y-123500000D03*
D13*
%TO.P,J10,2,Pin_2*%
%TO.N,nCS_3*%
X175120000Y-123500000D03*
%TO.P,J10,3,Pin_3*%
%TO.N,nCS_8*%
X172580000Y-123500000D03*
%TO.P,J10,4,Pin_4*%
%TO.N,nCS_7*%
X170040000Y-123500000D03*
%TO.P,J10,5,Pin_5*%
%TO.N,nCS_5*%
X167500000Y-123500000D03*
%TO.P,J10,6,Pin_6*%
%TO.N,nCS_9*%
X164960000Y-123500000D03*
%TO.P,J10,7,Pin_7*%
%TO.N,nCS_6*%
X162420000Y-123500000D03*
%TO.P,J10,8,Pin_8*%
%TO.N,nCS_1*%
X159880000Y-123500000D03*
%TO.P,J10,9,Pin_9*%
%TO.N,nCS_2*%
X157340000Y-123500000D03*
%TD*%
D12*
%TO.P,J12,1,Pin_1*%
%TO.N,VDD*%
X177660000Y-126040000D03*
D13*
%TO.P,J12,2,Pin_2*%
%TO.N,GND*%
X175120000Y-126040000D03*
%TD*%
D12*
%TO.P,J11,1,Pin_1*%
%TO.N,SDO*%
X157340000Y-126040000D03*
D13*
%TO.P,J11,2,Pin_2*%
%TO.N,Sclk*%
X159880000Y-126040000D03*
%TO.P,J11,3,Pin_3*%
%TO.N,SDI*%
X162420000Y-126040000D03*
%TD*%
D14*
%TO.N,GND*%
X150000000Y-81400000D03*
X148475000Y-63975000D03*
X185000000Y-83600000D03*
X169025000Y-83525000D03*
X183900000Y-100000000D03*
X165975000Y-63975000D03*
X169025000Y-101025000D03*
X181000000Y-118500000D03*
X185000000Y-66100000D03*
X150000000Y-98900000D03*
X148975000Y-84025000D03*
X151100000Y-65000000D03*
X168600000Y-65000000D03*
X166400000Y-100000000D03*
X166400000Y-82500000D03*
X148975000Y-101525000D03*
X186025000Y-80975000D03*
X186025000Y-63475000D03*
X186525000Y-101025000D03*
%TO.N,VDD*%
X183675000Y-81675000D03*
X151325000Y-83325000D03*
X168325000Y-98675000D03*
X168325000Y-81175000D03*
X166675000Y-66325000D03*
X149175000Y-66325000D03*
X133000000Y-81000000D03*
X183675000Y-64175000D03*
X202000000Y-66500000D03*
X151325000Y-100825000D03*
X179500000Y-119000000D03*
X183500000Y-117000000D03*
X202000000Y-84000000D03*
X133000000Y-98500000D03*
X185825000Y-98675000D03*
X169000000Y-48000000D03*
X151500000Y-48000000D03*
X166000000Y-117000000D03*
X148000000Y-117000000D03*
%TO.N,SDO*%
X129000000Y-102500000D03*
X206000000Y-62500000D03*
X147500000Y-44000000D03*
X165000000Y-44000000D03*
X170000000Y-121000000D03*
X152000000Y-121000000D03*
X206000000Y-80000000D03*
X187500000Y-121000000D03*
X129000000Y-85000000D03*
%TO.N,Sclk*%
X187000000Y-121500000D03*
X169500000Y-121500000D03*
X151500000Y-121500000D03*
X128500000Y-102000000D03*
X128500000Y-84500000D03*
X148000000Y-43500000D03*
X206500000Y-63000000D03*
X206500000Y-80500000D03*
X165500000Y-43500000D03*
%TO.N,TRIG_1*%
X148650000Y-65800000D03*
%TO.N,INT1_1*%
X149925000Y-65200000D03*
%TO.N,nCS_1*%
X149000000Y-45000000D03*
X160000000Y-120000000D03*
%TO.N,SDI*%
X128000000Y-101500000D03*
X151000000Y-122000000D03*
X207000000Y-81000000D03*
X186500000Y-122000000D03*
X148500000Y-43000000D03*
X166000000Y-43000000D03*
X169000000Y-122000000D03*
X207000000Y-63500000D03*
X128000000Y-84000000D03*
%TO.N,TRIG_2*%
X166150000Y-65800000D03*
%TO.N,INT1_2*%
X167425000Y-65200000D03*
%TO.N,nCS_2*%
X157500000Y-120500000D03*
X166500000Y-44500000D03*
%TO.N,TRIG_5*%
X168849999Y-81700000D03*
%TO.N,INT1_5*%
X167575000Y-82300000D03*
%TO.N,nCS_5*%
X167500000Y-118500000D03*
X150500000Y-118500000D03*
%TO.N,TRIG_6*%
X150800000Y-83850000D03*
%TO.N,INT1_6*%
X150200000Y-82575000D03*
%TO.N,nCS_6*%
X130500000Y-83500000D03*
X162500000Y-119500000D03*
%TO.N,TRIG_4*%
X184200000Y-81150000D03*
%TO.N,INT1_4*%
X184800000Y-82425000D03*
%TO.N,nCS_4*%
X205500000Y-81500000D03*
X177500000Y-120500000D03*
%TO.N,TRIG_8*%
X186350000Y-99200000D03*
%TO.N,INT1_8*%
X185075000Y-99800000D03*
%TO.N,TRIG_9*%
X150800000Y-101350000D03*
%TO.N,INT1_9*%
X150200000Y-100075000D03*
%TO.N,nCS_9*%
X131000000Y-101000000D03*
X165000000Y-119000000D03*
%TO.N,TRIG_7*%
X168850000Y-99200000D03*
%TO.N,INT1_7*%
X167575000Y-99800000D03*
%TO.N,nCS_3*%
X205000000Y-64000000D03*
X175000000Y-120000000D03*
%TO.N,INT1_3*%
X184800000Y-64925000D03*
%TO.N,TRIG_3*%
X184200000Y-63650000D03*
%TD*%
D15*
%TO.N,GND*%
X168600000Y-65000000D02*
X168600000Y-65900000D01*
X151775000Y-101050000D02*
X151025000Y-101800000D01*
X167450000Y-101700000D02*
X167450000Y-102000000D01*
X185000000Y-66100000D02*
X185650000Y-66100000D01*
X150050000Y-55300000D02*
X151250000Y-54100000D01*
X183900000Y-100650000D02*
X184950000Y-101700000D01*
X166400000Y-83150000D02*
X167450000Y-84200000D01*
X150900000Y-81400000D02*
X151775000Y-82275000D01*
X167550000Y-63300000D02*
X167550000Y-63000000D01*
X140300000Y-99950000D02*
X139100000Y-98750000D01*
X151250000Y-54100000D02*
X152550000Y-54100000D01*
X168550000Y-80725000D02*
X169300000Y-81475000D01*
X168600000Y-65000000D02*
X168600000Y-64350000D01*
X148200000Y-64250000D02*
X148475000Y-63975000D01*
X148300000Y-82450000D02*
X148000000Y-82450000D01*
X151775000Y-83550000D02*
X151025000Y-84300000D01*
X167550000Y-59000000D02*
X167550000Y-55300000D01*
X148300000Y-99950000D02*
X148000000Y-99950000D01*
X168600000Y-64350000D02*
X167550000Y-63300000D01*
X169300000Y-98975000D02*
X169300000Y-100750000D01*
X139100000Y-98750000D02*
X139100000Y-97450000D01*
X151100000Y-64350000D02*
X150050000Y-63300000D01*
X195900000Y-67550000D02*
X197550000Y-69200000D01*
X185750000Y-63200000D02*
X186025000Y-63475000D01*
X166400000Y-99100000D02*
X167275000Y-98225000D01*
X195900000Y-66250000D02*
X195900000Y-67550000D01*
X186700000Y-82550000D02*
X187000000Y-82550000D01*
X167450000Y-84200000D02*
X167450000Y-84500000D01*
X185000000Y-83600000D02*
X185650000Y-83600000D01*
X194700000Y-65050000D02*
X195900000Y-66250000D01*
X168550000Y-98225000D02*
X169300000Y-98975000D01*
X184950000Y-109700000D02*
X183750000Y-110900000D01*
X166400000Y-82500000D02*
X166400000Y-81600000D01*
X184775000Y-98225000D02*
X186050000Y-98225000D01*
X183225000Y-63950000D02*
X183975000Y-63200000D01*
X186800000Y-100750000D02*
X186525000Y-101025000D01*
X140300000Y-82450000D02*
X139100000Y-81250000D01*
X169300000Y-100750000D02*
X169025000Y-101025000D01*
X144000000Y-82450000D02*
X140300000Y-82450000D01*
X148950000Y-66775000D02*
X148200000Y-66025000D01*
X166400000Y-100000000D02*
X166400000Y-100650000D01*
X151100000Y-65900000D02*
X150225000Y-66775000D01*
X167550000Y-55300000D02*
X168750000Y-54100000D01*
X184100000Y-66100000D02*
X183225000Y-65225000D01*
X150000000Y-98900000D02*
X150900000Y-98900000D01*
X150050000Y-59000000D02*
X150050000Y-55300000D01*
X164950000Y-110900000D02*
X163300000Y-112550000D01*
X195900000Y-85050000D02*
X197550000Y-86700000D01*
X184950000Y-106000000D02*
X184950000Y-109700000D01*
X183975000Y-80700000D02*
X185750000Y-80700000D01*
X150000000Y-81400000D02*
X149350000Y-81400000D01*
X149450000Y-109700000D02*
X148250000Y-110900000D01*
X169300000Y-81475000D02*
X169300000Y-83250000D01*
X165700000Y-64250000D02*
X165975000Y-63975000D01*
X182500000Y-116000000D02*
X182500000Y-114250000D01*
X167830761Y-87580761D02*
X150123654Y-107373654D01*
X186800000Y-98975000D02*
X186800000Y-100750000D01*
X195900000Y-83750000D02*
X195900000Y-85050000D01*
X151775000Y-99775000D02*
X151775000Y-101050000D01*
X151100000Y-65000000D02*
X151100000Y-64350000D01*
X183225000Y-65225000D02*
X183225000Y-63950000D01*
X183975000Y-63200000D02*
X185750000Y-63200000D01*
X185650000Y-83600000D02*
X186700000Y-82550000D01*
X166400000Y-82500000D02*
X166400000Y-83150000D01*
X166400000Y-100650000D02*
X167450000Y-101700000D01*
X148200000Y-66025000D02*
X148200000Y-64250000D01*
X150000000Y-98900000D02*
X149350000Y-98900000D01*
X183900000Y-100000000D02*
X183900000Y-99100000D01*
X183225000Y-81450000D02*
X183975000Y-80700000D01*
X168750000Y-54100000D02*
X170050000Y-54100000D01*
X186700000Y-65050000D02*
X187000000Y-65050000D01*
X149350000Y-98900000D02*
X148300000Y-99950000D01*
X151025000Y-101800000D02*
X149250000Y-101800000D01*
X166250000Y-110900000D02*
X164950000Y-110900000D01*
X167275000Y-80725000D02*
X168550000Y-80725000D01*
X194700000Y-82550000D02*
X195900000Y-83750000D01*
X183225000Y-82725000D02*
X183225000Y-81450000D01*
X167450000Y-109700000D02*
X166250000Y-110900000D01*
X149250000Y-101800000D02*
X148975000Y-101525000D01*
X167725000Y-66775000D02*
X166450000Y-66775000D01*
X183900000Y-99100000D02*
X184775000Y-98225000D01*
X149250000Y-84300000D02*
X148975000Y-84025000D01*
X166400000Y-100000000D02*
X166400000Y-99100000D01*
X183750000Y-110900000D02*
X182450000Y-110900000D01*
X184950000Y-101700000D02*
X184950000Y-102000000D01*
X149450000Y-109000000D02*
X149450000Y-109700000D01*
X185750000Y-80700000D02*
X186025000Y-80975000D01*
X181000000Y-117500000D02*
X182500000Y-116000000D01*
X151775000Y-82275000D02*
X151775000Y-83550000D01*
X166400000Y-81600000D02*
X167275000Y-80725000D01*
X167275000Y-98225000D02*
X168550000Y-98225000D01*
X167450000Y-106000000D02*
X167450000Y-109700000D01*
X191000000Y-82550000D02*
X194700000Y-82550000D01*
X166450000Y-66775000D02*
X165700000Y-66025000D01*
X191000000Y-65050000D02*
X194700000Y-65050000D01*
X150900000Y-98900000D02*
X151775000Y-99775000D01*
X169300000Y-83250000D02*
X169025000Y-83525000D01*
X151025000Y-84300000D02*
X149250000Y-84300000D01*
X185000000Y-83600000D02*
X184100000Y-83600000D01*
X168600000Y-65900000D02*
X167725000Y-66775000D01*
X150050000Y-63300000D02*
X150050000Y-63000000D01*
X146950000Y-110900000D02*
X145300000Y-112550000D01*
X139100000Y-79950000D02*
X137450000Y-78300000D01*
X185650000Y-66100000D02*
X186700000Y-65050000D01*
X184100000Y-83600000D02*
X183225000Y-82725000D01*
X152550000Y-54100000D02*
X154200000Y-52450000D01*
X151100000Y-65000000D02*
X151100000Y-65900000D01*
X186050000Y-98225000D02*
X186800000Y-98975000D01*
X149350000Y-81400000D02*
X148300000Y-82450000D01*
X139100000Y-97450000D02*
X137450000Y-95800000D01*
X185000000Y-66100000D02*
X184100000Y-66100000D01*
X165700000Y-66025000D02*
X165700000Y-64250000D01*
X148250000Y-110900000D02*
X146950000Y-110900000D01*
X183900000Y-100000000D02*
X183900000Y-100650000D01*
X150225000Y-66775000D02*
X148950000Y-66775000D01*
X170050000Y-54100000D02*
X171700000Y-52450000D01*
X181000000Y-118500000D02*
X181000000Y-117500000D01*
X144000000Y-99950000D02*
X140300000Y-99950000D01*
X150000000Y-81400000D02*
X150900000Y-81400000D01*
X182450000Y-110900000D02*
X180800000Y-112550000D01*
X139100000Y-81250000D02*
X139100000Y-79950000D01*
X182500000Y-114250000D02*
X180800000Y-112550000D01*
X168750000Y-104700000D02*
G75*
G03*
X167450000Y-106000000I0J-1300000D01*
G01*
X187000000Y-65050000D02*
G75*
G03*
X188300000Y-63750000I0J1300000D01*
G01*
X145300000Y-101250000D02*
G75*
G03*
X144000000Y-99950000I-1300000J0D01*
G01*
X189700000Y-81250000D02*
G75*
G03*
X191000000Y-82550000I1300000J0D01*
G01*
X167450000Y-102000000D02*
G75*
G03*
X168750000Y-103300000I1300000J0D01*
G01*
X189700000Y-81250000D02*
G75*
G03*
X188300000Y-81250000I-700000J0D01*
G01*
X189700000Y-63750000D02*
G75*
G03*
X191000000Y-65050000I1300000J0D01*
G01*
X168750000Y-87200000D02*
G75*
G03*
X168750000Y-85800000I0J700000D01*
G01*
X167550000Y-63000000D02*
G75*
G03*
X166250000Y-61700000I-1300000J0D01*
G01*
X168750000Y-104700000D02*
G75*
G03*
X168750000Y-103300000I0J700000D01*
G01*
X150123654Y-107373654D02*
G75*
G03*
X149450000Y-109000000I1626346J-1626346D01*
G01*
X166250000Y-60300000D02*
G75*
G03*
X167550000Y-59000000I0J1300000D01*
G01*
X148750000Y-60300000D02*
G75*
G03*
X148750000Y-61700000I0J-700000D01*
G01*
X148000000Y-82450000D02*
G75*
G03*
X146700000Y-83750000I0J-1300000D01*
G01*
X184950000Y-102000000D02*
G75*
G03*
X186250000Y-103300000I1300000J0D01*
G01*
X168750000Y-87200000D02*
G75*
G03*
X167830761Y-87580761I0J-1300000D01*
G01*
X148750000Y-60300000D02*
G75*
G03*
X150050000Y-59000000I0J1300000D01*
G01*
X148000000Y-99950000D02*
G75*
G03*
X146700000Y-101250000I0J-1300000D01*
G01*
X186250000Y-104700000D02*
G75*
G03*
X184950000Y-106000000I0J-1300000D01*
G01*
X145300000Y-101250000D02*
G75*
G03*
X146700000Y-101250000I700000J0D01*
G01*
X187000000Y-82550000D02*
G75*
G03*
X188300000Y-81250000I0J1300000D01*
G01*
X189700000Y-63750000D02*
G75*
G03*
X188300000Y-63750000I-700000J0D01*
G01*
X145300000Y-83750000D02*
G75*
G03*
X146700000Y-83750000I700000J0D01*
G01*
X167450000Y-84500000D02*
G75*
G03*
X168750000Y-85800000I1300000J0D01*
G01*
X166250000Y-60300000D02*
G75*
G03*
X166250000Y-61700000I0J-700000D01*
G01*
X186250000Y-104700000D02*
G75*
G03*
X186250000Y-103300000I0J700000D01*
G01*
X145300000Y-83750000D02*
G75*
G03*
X144000000Y-82450000I-1300000J0D01*
G01*
X150050000Y-63000000D02*
G75*
G03*
X148750000Y-61700000I-1300000J0D01*
G01*
%TO.N,VDD*%
X140134316Y-82850000D02*
X138124316Y-80840000D01*
X167150000Y-55134316D02*
X169160000Y-53124316D01*
X166000000Y-117000000D02*
X168500000Y-117000000D01*
X147840000Y-111875684D02*
X147840000Y-112550000D01*
X168325000Y-81175000D02*
X168325000Y-83075000D01*
X151660000Y-53124316D02*
X151660000Y-52450000D01*
X194865684Y-64650000D02*
X196875684Y-66660000D01*
X196875684Y-84160000D02*
X197550000Y-84160000D01*
X167150000Y-59000000D02*
X167150000Y-55134316D01*
X167850000Y-83550000D02*
X167850000Y-84500000D01*
X151500000Y-48000000D02*
X135000000Y-48000000D01*
X151325000Y-100825000D02*
X149425000Y-100825000D01*
X202000000Y-84000000D02*
X202000000Y-66500000D01*
X149175000Y-66325000D02*
X149175000Y-64425000D01*
X135000000Y-117000000D02*
X148000000Y-117000000D01*
X194865684Y-82150000D02*
X196875684Y-84160000D01*
X133000000Y-50000000D02*
X133000000Y-81000000D01*
X151325000Y-83325000D02*
X149425000Y-83325000D01*
X148950000Y-100350000D02*
X148000000Y-100350000D01*
X183500000Y-117000000D02*
X200500000Y-117000000D01*
X149175000Y-64425000D02*
X149650000Y-63950000D01*
X165840000Y-111875684D02*
X165840000Y-112550000D01*
X186050000Y-82150000D02*
X187000000Y-82150000D01*
X169000000Y-48000000D02*
X151500000Y-48000000D01*
X191000000Y-82150000D02*
X194865684Y-82150000D01*
X135000000Y-48000000D02*
X133000000Y-50000000D01*
X183675000Y-81675000D02*
X185575000Y-81675000D01*
X185825000Y-98675000D02*
X185825000Y-100575000D01*
X202000000Y-66500000D02*
X202000000Y-49500000D01*
X181500000Y-119000000D02*
X183500000Y-117000000D01*
X202000000Y-115500000D02*
X202000000Y-84000000D01*
X183340000Y-111875684D02*
X183340000Y-112550000D01*
X170500000Y-119000000D02*
X179500000Y-119000000D01*
X144000000Y-82850000D02*
X140134316Y-82850000D01*
X167850000Y-106000000D02*
X167850000Y-109865684D01*
X166675000Y-66325000D02*
X166675000Y-64425000D01*
X149650000Y-55134316D02*
X151660000Y-53124316D01*
X168325000Y-100575000D02*
X167850000Y-101050000D01*
X149650000Y-63950000D02*
X149650000Y-63000000D01*
X167850000Y-101050000D02*
X167850000Y-102000000D01*
X150406497Y-107656497D02*
X168113604Y-87863604D01*
X168500000Y-117000000D02*
X170500000Y-119000000D01*
X148000000Y-117000000D02*
X166000000Y-117000000D01*
X149650000Y-59000000D02*
X149650000Y-55134316D01*
X133000000Y-81000000D02*
X133000000Y-98500000D01*
X185350000Y-106000000D02*
X185350000Y-109865684D01*
X191000000Y-64650000D02*
X194865684Y-64650000D01*
X185350000Y-101050000D02*
X185350000Y-102000000D01*
X186050000Y-64650000D02*
X187000000Y-64650000D01*
X185825000Y-100575000D02*
X185350000Y-101050000D01*
X168325000Y-83075000D02*
X167850000Y-83550000D01*
X169160000Y-53124316D02*
X169160000Y-52450000D01*
X185575000Y-64175000D02*
X186050000Y-64650000D01*
X149425000Y-100825000D02*
X148950000Y-100350000D01*
X138124316Y-98340000D02*
X137450000Y-98340000D01*
X167850000Y-109865684D02*
X165840000Y-111875684D01*
X166675000Y-64425000D02*
X167150000Y-63950000D01*
X202000000Y-49500000D02*
X200500000Y-48000000D01*
X140134316Y-100350000D02*
X138124316Y-98340000D01*
X200500000Y-48000000D02*
X169000000Y-48000000D01*
X149425000Y-83325000D02*
X148950000Y-82850000D01*
X196875684Y-66660000D02*
X197550000Y-66660000D01*
X149850000Y-109000000D02*
X149850000Y-109865684D01*
X168325000Y-98675000D02*
X168325000Y-100575000D01*
X200500000Y-117000000D02*
X202000000Y-115500000D01*
X148950000Y-82850000D02*
X148000000Y-82850000D01*
X167150000Y-63950000D02*
X167150000Y-63000000D01*
X185350000Y-109865684D02*
X183340000Y-111875684D01*
X133000000Y-98500000D02*
X133000000Y-115000000D01*
X144000000Y-100350000D02*
X140134316Y-100350000D01*
X185575000Y-81675000D02*
X186050000Y-82150000D01*
X183675000Y-64175000D02*
X185575000Y-64175000D01*
X138124316Y-80840000D02*
X137450000Y-80840000D01*
X149850000Y-109865684D02*
X147840000Y-111875684D01*
X133000000Y-115000000D02*
X135000000Y-117000000D01*
X179500000Y-119000000D02*
X181500000Y-119000000D01*
X190100000Y-81250000D02*
G75*
G03*
X187900000Y-81250000I-1100000J0D01*
G01*
X185350000Y-102000000D02*
G75*
G03*
X186250000Y-102900000I900000J0D01*
G01*
X190100000Y-63750000D02*
G75*
G03*
X187900000Y-63750000I-1100000J0D01*
G01*
X168750000Y-87600001D02*
G75*
G03*
X168113605Y-87863605I0J-899999D01*
G01*
X187000000Y-64650000D02*
G75*
G03*
X187900000Y-63750000I0J900000D01*
G01*
X187000000Y-82150000D02*
G75*
G03*
X187900000Y-81250000I0J900000D01*
G01*
X148000000Y-82850000D02*
G75*
G03*
X147100000Y-83750000I0J-900000D01*
G01*
X168750000Y-105100000D02*
G75*
G03*
X167850000Y-106000000I0J-900000D01*
G01*
X167850000Y-84500000D02*
G75*
G03*
X168750000Y-85400000I900000J0D01*
G01*
X190100000Y-63750000D02*
G75*
G03*
X191000000Y-64650000I900000J0D01*
G01*
X149650000Y-63000000D02*
G75*
G03*
X148750000Y-62100000I-900000J0D01*
G01*
X150406497Y-107656497D02*
G75*
G03*
X149850000Y-109000000I1343503J-1343503D01*
G01*
X168750000Y-105100000D02*
G75*
G03*
X168750000Y-102900000I0J1100000D01*
G01*
X144900000Y-101250000D02*
G75*
G03*
X144000000Y-100350000I-900000J0D01*
G01*
X167150000Y-63000000D02*
G75*
G03*
X166250000Y-62100000I-900000J0D01*
G01*
X148000000Y-100350000D02*
G75*
G03*
X147100000Y-101250000I0J-900000D01*
G01*
X166250000Y-59900000D02*
G75*
G03*
X167150000Y-59000000I0J900000D01*
G01*
X144900000Y-83750000D02*
G75*
G03*
X144000000Y-82850000I-900000J0D01*
G01*
X190100000Y-81250000D02*
G75*
G03*
X191000000Y-82150000I900000J0D01*
G01*
X186250000Y-105100000D02*
G75*
G03*
X185350000Y-106000000I0J-900000D01*
G01*
X168750000Y-87600000D02*
G75*
G03*
X168750000Y-85400000I0J1100000D01*
G01*
X186250000Y-105100000D02*
G75*
G03*
X186250000Y-102900000I0J1100000D01*
G01*
X166250000Y-59900000D02*
G75*
G03*
X166250000Y-62100000I0J-1100000D01*
G01*
X144900000Y-101250000D02*
G75*
G03*
X147100000Y-101250000I1100000J0D01*
G01*
X144900000Y-83750000D02*
G75*
G03*
X147100000Y-83750000I1100000J0D01*
G01*
X148750000Y-59900000D02*
G75*
G03*
X148750000Y-62100000I0J-1100000D01*
G01*
X167850000Y-102000000D02*
G75*
G03*
X168750000Y-102900000I900000J0D01*
G01*
X148750000Y-59900000D02*
G75*
G03*
X149650000Y-59000000I0J900000D01*
G01*
%TO.N,SDO*%
X134000000Y-44000000D02*
X129000000Y-49000000D01*
X170000000Y-121000000D02*
X187500000Y-121000000D01*
X206000000Y-80000000D02*
X206000000Y-62500000D01*
X134000000Y-121000000D02*
X152000000Y-121000000D01*
X147500000Y-44000000D02*
X134000000Y-44000000D01*
X206000000Y-115000000D02*
X206000000Y-80000000D01*
X129000000Y-116000000D02*
X134000000Y-121000000D01*
X129000000Y-85000000D02*
X129000000Y-102500000D01*
X200000000Y-121000000D02*
X206000000Y-115000000D01*
X129000000Y-102500000D02*
X129000000Y-116000000D01*
X129000000Y-49000000D02*
X129000000Y-85000000D01*
X187500000Y-121000000D02*
X200000000Y-121000000D01*
X152000000Y-121000000D02*
X170000000Y-121000000D01*
X165000000Y-44000000D02*
X147500000Y-44000000D01*
%TO.N,Sclk*%
X206500000Y-80500000D02*
X206500000Y-63000000D01*
X128500000Y-84500000D02*
X128500000Y-102000000D01*
X128500000Y-102000000D02*
X128500000Y-116500000D01*
X151500000Y-121500000D02*
X169500000Y-121500000D01*
X128500000Y-48500000D02*
X128500000Y-84500000D01*
X148000000Y-43500000D02*
X133500000Y-43500000D01*
X133500000Y-43500000D02*
X128500000Y-48500000D01*
X206500000Y-115500000D02*
X206500000Y-80500000D01*
X133500000Y-121500000D02*
X151500000Y-121500000D01*
X169500000Y-121500000D02*
X187000000Y-121500000D01*
X148000000Y-43500000D02*
X165500000Y-43500000D01*
X128500000Y-116500000D02*
X133500000Y-121500000D01*
X187000000Y-121500000D02*
X200500000Y-121500000D01*
X200500000Y-121500000D02*
X206500000Y-115500000D01*
%TO.N,TRIG_1*%
X149425000Y-59000000D02*
X149425000Y-55050000D01*
X150350000Y-52490000D02*
X150390000Y-52450000D01*
X149425000Y-55050000D02*
X150350000Y-54125000D01*
X149425000Y-63700000D02*
X149425000Y-63000000D01*
X148650000Y-65800000D02*
X148650000Y-64475000D01*
X150350000Y-54125000D02*
X150350000Y-52490000D01*
X148650000Y-64475000D02*
X149425000Y-63700000D01*
X148750000Y-59675000D02*
G75*
G03*
X148750000Y-62325000I0J-1325000D01*
G01*
X148750000Y-59675000D02*
G75*
G03*
X149425000Y-59000000I0J675000D01*
G01*
X149425000Y-63000000D02*
G75*
G03*
X148750000Y-62325000I-675000J0D01*
G01*
%TO.N,INT1_1*%
X151167158Y-53900000D02*
X151700000Y-53900000D01*
X149850000Y-65125000D02*
X149850000Y-63000000D01*
X151700000Y-53900000D02*
X152930000Y-52670000D01*
X149850000Y-55217158D02*
X151167158Y-53900000D01*
X149925000Y-65200000D02*
X149850000Y-65125000D01*
X149850000Y-59000000D02*
X149850000Y-55217158D01*
X152930000Y-52670000D02*
X152930000Y-52450000D01*
X149850000Y-63000000D02*
G75*
G03*
X148750000Y-61900000I-1100000J0D01*
G01*
X148750000Y-60100000D02*
G75*
G03*
X148750000Y-61900000I0J-900000D01*
G01*
X148750000Y-60100000D02*
G75*
G03*
X149850000Y-59000000I0J1100000D01*
G01*
%TO.N,nCS_1*%
X160000000Y-120000000D02*
X135000000Y-120000000D01*
X135000000Y-45000000D02*
X149000000Y-45000000D01*
X135000000Y-120000000D02*
X130000000Y-115000000D01*
X130000000Y-50000000D02*
X135000000Y-45000000D01*
X130000000Y-115000000D02*
X130000000Y-50000000D01*
%TO.N,SDI*%
X169000000Y-122000000D02*
X182500000Y-122000000D01*
X166000000Y-43000000D02*
X148500000Y-43000000D01*
X133000000Y-122000000D02*
X151000000Y-122000000D01*
X133000000Y-43000000D02*
X128000000Y-48000000D01*
X192500000Y-122000000D02*
X201000000Y-122000000D01*
X207000000Y-116000000D02*
X207000000Y-81000000D01*
X207000000Y-81000000D02*
X207000000Y-63500000D01*
X128000000Y-48000000D02*
X128000000Y-84000000D01*
X128000000Y-117000000D02*
X133000000Y-122000000D01*
X151000000Y-122000000D02*
X169000000Y-122000000D01*
X128000000Y-84000000D02*
X128000000Y-101500000D01*
X201000000Y-122000000D02*
X207000000Y-116000000D01*
X128000000Y-101500000D02*
X128000000Y-117000000D01*
X182500000Y-122000000D02*
X186500000Y-122000000D01*
X148500000Y-43000000D02*
X133000000Y-43000000D01*
X186500000Y-122000000D02*
X192500000Y-122000000D01*
%TO.N,TRIG_2*%
X167850000Y-54125000D02*
X167850000Y-52490000D01*
X166925000Y-55050000D02*
X167850000Y-54125000D01*
X166150000Y-65800000D02*
X166150000Y-64475000D01*
X167850000Y-52490000D02*
X167890000Y-52450000D01*
X166925000Y-63700000D02*
X166925000Y-63000000D01*
X166150000Y-64475000D02*
X166925000Y-63700000D01*
X166925000Y-59000000D02*
X166925000Y-55050000D01*
X166250000Y-59675000D02*
G75*
G03*
X166925000Y-59000000I0J675000D01*
G01*
X166925000Y-63000000D02*
G75*
G03*
X166250000Y-62325000I-675000J0D01*
G01*
X166250000Y-59675000D02*
G75*
G03*
X166250000Y-62325000I0J-1325000D01*
G01*
%TO.N,INT1_2*%
X167350000Y-59000000D02*
X167350000Y-55217158D01*
X169200000Y-53900000D02*
X170430000Y-52670000D01*
X167425000Y-65200000D02*
X167350000Y-65125000D01*
X167350000Y-55217158D02*
X168667158Y-53900000D01*
X167350000Y-65125000D02*
X167350000Y-63000000D01*
X170430000Y-52670000D02*
X170430000Y-52450000D01*
X168667158Y-53900000D02*
X169200000Y-53900000D01*
X166250000Y-60100000D02*
G75*
G03*
X167350000Y-59000000I0J1100000D01*
G01*
X166250000Y-60100000D02*
G75*
G03*
X166250000Y-61900000I0J-900000D01*
G01*
X167350000Y-63000000D02*
G75*
G03*
X166250000Y-61900000I-1100000J0D01*
G01*
%TO.N,nCS_2*%
X129500000Y-115500000D02*
X129500000Y-49500000D01*
X134500000Y-120500000D02*
X129500000Y-115500000D01*
X134500000Y-44500000D02*
X166500000Y-44500000D01*
X129500000Y-49500000D02*
X134500000Y-44500000D01*
X157500000Y-120500000D02*
X134500000Y-120500000D01*
%TO.N,TRIG_5*%
X150075000Y-109000001D02*
X150075000Y-109950000D01*
X168850000Y-83025000D02*
X168075000Y-83800000D01*
X149150000Y-112510000D02*
X149110000Y-112550000D01*
X150075000Y-109950000D02*
X149150000Y-110875000D01*
X168272703Y-88022703D02*
X150565596Y-107815596D01*
X149150000Y-110875000D02*
X149150000Y-112510000D01*
X168850000Y-81700000D02*
X168850000Y-83025000D01*
X168075000Y-83800000D02*
X168075000Y-84500000D01*
X168750000Y-87825000D02*
G75*
G03*
X168750000Y-85175000I0J1325000D01*
G01*
X150565596Y-107815596D02*
G75*
G03*
X150075000Y-109000001I1184404J-1184404D01*
G01*
X168075000Y-84500000D02*
G75*
G03*
X168750000Y-85175000I675000J0D01*
G01*
X168750000Y-87825001D02*
G75*
G03*
X168272704Y-88022704I0J-674999D01*
G01*
%TO.N,INT1_5*%
X148332842Y-111100000D02*
X147800000Y-111100000D01*
X149650000Y-109000000D02*
X149650000Y-109782842D01*
X167650000Y-82375000D02*
X167650000Y-84500000D01*
X149650000Y-109782842D02*
X148332842Y-111100000D01*
X150265076Y-107515076D02*
X167972183Y-87722183D01*
X146570000Y-112330000D02*
X146570000Y-112550000D01*
X167575000Y-82300000D02*
X167650000Y-82375000D01*
X147800000Y-111100000D02*
X146570000Y-112330000D01*
X167650000Y-84500000D02*
G75*
G03*
X168750000Y-85600000I1100000J0D01*
G01*
X168750000Y-87400001D02*
G75*
G03*
X167972183Y-87722183I0J-1099999D01*
G01*
X168750000Y-87400000D02*
G75*
G03*
X168750000Y-85600000I0J900000D01*
G01*
X150265076Y-107515076D02*
G75*
G03*
X149650000Y-109000000I1484924J-1484924D01*
G01*
%TO.N,nCS_5*%
X167500000Y-118500000D02*
X150500000Y-118500000D01*
%TO.N,TRIG_6*%
X140050000Y-83075000D02*
X139125000Y-82150000D01*
X150800000Y-83850000D02*
X149475000Y-83850000D01*
X148700000Y-83075000D02*
X148000000Y-83075000D01*
X144000000Y-83075000D02*
X140050000Y-83075000D01*
X149475000Y-83850000D02*
X148700000Y-83075000D01*
X139125000Y-82150000D02*
X137490000Y-82150000D01*
X137490000Y-82150000D02*
X137450000Y-82110000D01*
X148000000Y-83075000D02*
G75*
G03*
X147325000Y-83750000I0J-675000D01*
G01*
X144675000Y-83750000D02*
G75*
G03*
X147325000Y-83750000I1325000J0D01*
G01*
X144675000Y-83750000D02*
G75*
G03*
X144000000Y-83075000I-675000J0D01*
G01*
%TO.N,INT1_6*%
X137670000Y-79570000D02*
X137450000Y-79570000D01*
X140217158Y-82650000D02*
X138900000Y-81332842D01*
X150125000Y-82650000D02*
X148000000Y-82650000D01*
X144000000Y-82650000D02*
X140217158Y-82650000D01*
X138900000Y-80800000D02*
X137670000Y-79570000D01*
X138900000Y-81332842D02*
X138900000Y-80800000D01*
X150200000Y-82575000D02*
X150125000Y-82650000D01*
X145100000Y-83750000D02*
G75*
G03*
X146900000Y-83750000I900000J0D01*
G01*
X148000000Y-82650000D02*
G75*
G03*
X146900000Y-83750000I0J-1100000D01*
G01*
X145100000Y-83750000D02*
G75*
G03*
X144000000Y-82650000I-1100000J0D01*
G01*
%TO.N,nCS_6*%
X162500000Y-119500000D02*
X135500000Y-119500000D01*
X130500000Y-114500000D02*
X130500000Y-83500000D01*
X135500000Y-119500000D02*
X130500000Y-114500000D01*
%TO.N,TRIG_4*%
X191000000Y-81925000D02*
X194950000Y-81925000D01*
X195875000Y-82850000D02*
X197510000Y-82850000D01*
X194950000Y-81925000D02*
X195875000Y-82850000D01*
X197510000Y-82850000D02*
X197550000Y-82890000D01*
X184200000Y-81150000D02*
X185525000Y-81150000D01*
X186300000Y-81925000D02*
X187000000Y-81925000D01*
X185525000Y-81150000D02*
X186300000Y-81925000D01*
X187000000Y-81925000D02*
G75*
G03*
X187675000Y-81250000I0J675000D01*
G01*
X190325000Y-81250000D02*
G75*
G03*
X187675000Y-81250000I-1325000J0D01*
G01*
X190325000Y-81250000D02*
G75*
G03*
X191000000Y-81925000I675000J0D01*
G01*
%TO.N,INT1_4*%
X197330000Y-85430000D02*
X197550000Y-85430000D01*
X184875000Y-82350000D02*
X187000000Y-82350000D01*
X194782842Y-82350000D02*
X196100000Y-83667158D01*
X191000000Y-82350000D02*
X194782842Y-82350000D01*
X184800000Y-82425000D02*
X184875000Y-82350000D01*
X196100000Y-83667158D02*
X196100000Y-84200000D01*
X196100000Y-84200000D02*
X197330000Y-85430000D01*
X189900000Y-81250000D02*
G75*
G03*
X188100000Y-81250000I-900000J0D01*
G01*
X187000000Y-82350000D02*
G75*
G03*
X188100000Y-81250000I0J1100000D01*
G01*
X189900000Y-81250000D02*
G75*
G03*
X191000000Y-82350000I1100000J0D01*
G01*
%TO.N,nCS_4*%
X177500000Y-120500000D02*
X199500000Y-120500000D01*
X199500000Y-120500000D02*
X205500000Y-114500000D01*
X205500000Y-114500000D02*
X205500000Y-81500000D01*
%TO.N,TRIG_8*%
X185575000Y-109950000D02*
X184650000Y-110875000D01*
X186350000Y-100525000D02*
X185575000Y-101300000D01*
X184650000Y-110875000D02*
X184650000Y-112510000D01*
X185575000Y-101300000D02*
X185575000Y-102000000D01*
X185575000Y-106000000D02*
X185575000Y-109950000D01*
X184650000Y-112510000D02*
X184610000Y-112550000D01*
X186350000Y-99200000D02*
X186350000Y-100525000D01*
X186250000Y-105325000D02*
G75*
G03*
X186250000Y-102675000I0J1325000D01*
G01*
X185575000Y-102000000D02*
G75*
G03*
X186250000Y-102675000I675000J0D01*
G01*
X186250000Y-105325000D02*
G75*
G03*
X185575000Y-106000000I0J-675000D01*
G01*
%TO.N,INT1_8*%
X183832842Y-111100000D02*
X183300000Y-111100000D01*
X182070000Y-112330000D02*
X182070000Y-112550000D01*
X183300000Y-111100000D02*
X182070000Y-112330000D01*
X185075000Y-99800000D02*
X185150000Y-99875000D01*
X185150000Y-99875000D02*
X185150000Y-102000000D01*
X185150000Y-106000000D02*
X185150000Y-109782842D01*
X185150000Y-109782842D02*
X183832842Y-111100000D01*
X185150000Y-102000000D02*
G75*
G03*
X186250000Y-103100000I1100000J0D01*
G01*
X186250000Y-104900000D02*
G75*
G03*
X185150000Y-106000000I0J-1100000D01*
G01*
X186250000Y-104900000D02*
G75*
G03*
X186250000Y-103100000I0J900000D01*
G01*
%TO.N,TRIG_9*%
X144000000Y-100575000D02*
X140050000Y-100575000D01*
X137490000Y-99650000D02*
X137450000Y-99610000D01*
X139125000Y-99650000D02*
X137490000Y-99650000D01*
X150800000Y-101350000D02*
X149475000Y-101350000D01*
X149475000Y-101350000D02*
X148700000Y-100575000D01*
X140050000Y-100575000D02*
X139125000Y-99650000D01*
X148700000Y-100575000D02*
X148000000Y-100575000D01*
X148000000Y-100575000D02*
G75*
G03*
X147325000Y-101250000I0J-675000D01*
G01*
X144675000Y-101250000D02*
G75*
G03*
X147325000Y-101250000I1325000J0D01*
G01*
X144675000Y-101250000D02*
G75*
G03*
X144000000Y-100575000I-675000J0D01*
G01*
%TO.N,INT1_9*%
X150125000Y-100150000D02*
X148000000Y-100150000D01*
X138900000Y-98832842D02*
X138900000Y-98300000D01*
X150200000Y-100075000D02*
X150125000Y-100150000D01*
X144000000Y-100150000D02*
X140217158Y-100150000D01*
X138900000Y-98300000D02*
X137670000Y-97070000D01*
X137670000Y-97070000D02*
X137450000Y-97070000D01*
X140217158Y-100150000D02*
X138900000Y-98832842D01*
X145100000Y-101250000D02*
G75*
G03*
X146900000Y-101250000I900000J0D01*
G01*
X145100000Y-101250000D02*
G75*
G03*
X144000000Y-100150000I-1100000J0D01*
G01*
X148000000Y-100150000D02*
G75*
G03*
X146900000Y-101250000I0J-1100000D01*
G01*
%TO.N,nCS_9*%
X131000000Y-114000000D02*
X131000000Y-101000000D01*
X165000000Y-119000000D02*
X136000000Y-119000000D01*
X136000000Y-119000000D02*
X131000000Y-114000000D01*
%TO.N,TRIG_7*%
X168850000Y-100525000D02*
X168075000Y-101300000D01*
X167150000Y-112510000D02*
X167110000Y-112550000D01*
X168075000Y-109950000D02*
X167150000Y-110875000D01*
X167150000Y-110875000D02*
X167150000Y-112510000D01*
X168850000Y-99200000D02*
X168850000Y-100525000D01*
X168075000Y-106000000D02*
X168075000Y-109950000D01*
X168075000Y-101300000D02*
X168075000Y-102000000D01*
X168075000Y-102000000D02*
G75*
G03*
X168750000Y-102675000I675000J0D01*
G01*
X168750000Y-105325000D02*
G75*
G03*
X168075000Y-106000000I0J-675000D01*
G01*
X168750000Y-105325000D02*
G75*
G03*
X168750000Y-102675000I0J1325000D01*
G01*
%TO.N,INT1_7*%
X167650000Y-99875000D02*
X167650000Y-102000000D01*
X166332842Y-111100000D02*
X165800000Y-111100000D01*
X167650000Y-106000000D02*
X167650000Y-109782842D01*
X164570000Y-112330000D02*
X164570000Y-112550000D01*
X165800000Y-111100000D02*
X164570000Y-112330000D01*
X167575000Y-99800000D02*
X167650000Y-99875000D01*
X167650000Y-109782842D02*
X166332842Y-111100000D01*
X168750000Y-104900000D02*
G75*
G03*
X167650000Y-106000000I0J-1100000D01*
G01*
X167650000Y-102000000D02*
G75*
G03*
X168750000Y-103100000I1100000J0D01*
G01*
X168750000Y-104900000D02*
G75*
G03*
X168750000Y-103100000I0J900000D01*
G01*
%TO.N,nCS_3*%
X175000000Y-120000000D02*
X199000000Y-120000000D01*
X199000000Y-120000000D02*
X205000000Y-114000000D01*
X205000000Y-114000000D02*
X205000000Y-64000000D01*
%TO.N,INT1_3*%
X184875000Y-64850000D02*
X187000000Y-64850000D01*
X197330000Y-67930000D02*
X197550000Y-67930000D01*
X196100000Y-66167158D02*
X196100000Y-66700000D01*
X194782842Y-64850000D02*
X196100000Y-66167158D01*
X196100000Y-66700000D02*
X197330000Y-67930000D01*
X191000000Y-64850000D02*
X194782842Y-64850000D01*
X184800000Y-64925000D02*
X184875000Y-64850000D01*
X189900000Y-63750000D02*
G75*
G03*
X191000000Y-64850000I1100000J0D01*
G01*
X187000000Y-64850000D02*
G75*
G03*
X188100000Y-63750000I0J1100000D01*
G01*
X189900000Y-63750000D02*
G75*
G03*
X188100000Y-63750000I-900000J0D01*
G01*
%TO.N,TRIG_3*%
X194950000Y-64425000D02*
X195875000Y-65350000D01*
X191000000Y-64425000D02*
X194950000Y-64425000D01*
X197510000Y-65350000D02*
X197550000Y-65390000D01*
X185525000Y-63650000D02*
X186300000Y-64425000D01*
X184200000Y-63650000D02*
X185525000Y-63650000D01*
X186300000Y-64425000D02*
X187000000Y-64425000D01*
X195875000Y-65350000D02*
X197510000Y-65350000D01*
X187000000Y-64425000D02*
G75*
G03*
X187675000Y-63750000I0J675000D01*
G01*
X190325000Y-63750000D02*
G75*
G03*
X191000000Y-64425000I675000J0D01*
G01*
X190325000Y-63750000D02*
G75*
G03*
X187675000Y-63750000I-1325000J0D01*
G01*
%TD*%
%TA.AperFunction,Conductor*%
%TO.N,GND*%
G36*
X147238651Y-110670184D02*
G01*
X147284406Y-110722988D01*
X147294350Y-110792146D01*
X147265325Y-110855702D01*
X147259293Y-110862180D01*
X146608932Y-111512541D01*
X146547609Y-111546026D01*
X146533405Y-111548263D01*
X146373866Y-111563976D01*
X146185269Y-111621187D01*
X146182654Y-111622585D01*
X146176303Y-111623906D01*
X146173587Y-111624731D01*
X146173513Y-111624487D01*
X146114251Y-111636824D01*
X146049897Y-111612491D01*
X146042091Y-111606647D01*
X145907373Y-111556400D01*
X145851132Y-111550354D01*
X145844518Y-111550000D01*
X145550000Y-111550000D01*
X145550000Y-112301061D01*
X145468885Y-112237928D01*
X145358405Y-112200000D01*
X145270995Y-112200000D01*
X145184784Y-112214386D01*
X145082053Y-112269981D01*
X145050000Y-112304799D01*
X145050000Y-111550000D01*
X144755482Y-111550000D01*
X144748867Y-111550354D01*
X144692628Y-111556400D01*
X144557910Y-111606647D01*
X144442810Y-111692811D01*
X144373767Y-111785042D01*
X144317833Y-111826913D01*
X144248141Y-111831897D01*
X144186818Y-111798412D01*
X144153334Y-111737088D01*
X144150500Y-111710731D01*
X144150500Y-111008127D01*
X144151561Y-110991940D01*
X144160279Y-110925726D01*
X144168657Y-110894460D01*
X144191078Y-110840331D01*
X144207263Y-110812298D01*
X144242930Y-110765815D01*
X144265815Y-110742930D01*
X144312304Y-110707258D01*
X144340331Y-110691078D01*
X144394464Y-110668656D01*
X144425725Y-110660279D01*
X144491958Y-110651559D01*
X144508140Y-110650499D01*
X147171615Y-110650499D01*
X147238651Y-110670184D01*
G37*
%TD.AperFunction*%
%TA.AperFunction,Conductor*%
G36*
X165238652Y-110670184D02*
G01*
X165284407Y-110722988D01*
X165294351Y-110792146D01*
X165265326Y-110855702D01*
X165259294Y-110862180D01*
X164608932Y-111512541D01*
X164547609Y-111546026D01*
X164533405Y-111548263D01*
X164373866Y-111563976D01*
X164185269Y-111621187D01*
X164182654Y-111622585D01*
X164176303Y-111623906D01*
X164173587Y-111624731D01*
X164173513Y-111624487D01*
X164114251Y-111636824D01*
X164049897Y-111612491D01*
X164042091Y-111606647D01*
X163907373Y-111556400D01*
X163851132Y-111550354D01*
X163844518Y-111550000D01*
X163550000Y-111550000D01*
X163550000Y-112301061D01*
X163468885Y-112237928D01*
X163358405Y-112200000D01*
X163270995Y-112200000D01*
X163184784Y-112214386D01*
X163082053Y-112269981D01*
X163050000Y-112304799D01*
X163050000Y-111550000D01*
X162755482Y-111550000D01*
X162748867Y-111550354D01*
X162692628Y-111556400D01*
X162557910Y-111606647D01*
X162442810Y-111692811D01*
X162373767Y-111785042D01*
X162317833Y-111826913D01*
X162248141Y-111831897D01*
X162186818Y-111798412D01*
X162153334Y-111737088D01*
X162150500Y-111710731D01*
X162150500Y-111008127D01*
X162151561Y-110991940D01*
X162160279Y-110925726D01*
X162168657Y-110894460D01*
X162191078Y-110840331D01*
X162207263Y-110812298D01*
X162242930Y-110765815D01*
X162265815Y-110742930D01*
X162312304Y-110707258D01*
X162340331Y-110691078D01*
X162394464Y-110668656D01*
X162425725Y-110660279D01*
X162491958Y-110651559D01*
X162508141Y-110650499D01*
X165171613Y-110650499D01*
X165238652Y-110670184D01*
G37*
%TD.AperFunction*%
%TA.AperFunction,Conductor*%
G36*
X182738652Y-110670184D02*
G01*
X182784407Y-110722988D01*
X182794351Y-110792146D01*
X182765326Y-110855702D01*
X182759294Y-110862180D01*
X182108932Y-111512541D01*
X182047609Y-111546026D01*
X182033405Y-111548263D01*
X181873866Y-111563976D01*
X181685269Y-111621187D01*
X181682654Y-111622585D01*
X181676303Y-111623906D01*
X181673587Y-111624731D01*
X181673513Y-111624487D01*
X181614251Y-111636824D01*
X181549897Y-111612491D01*
X181542091Y-111606647D01*
X181407373Y-111556400D01*
X181351132Y-111550354D01*
X181344518Y-111550000D01*
X181050000Y-111550000D01*
X181050000Y-112301061D01*
X180968885Y-112237928D01*
X180858405Y-112200000D01*
X180770995Y-112200000D01*
X180684784Y-112214386D01*
X180582053Y-112269981D01*
X180550000Y-112304799D01*
X180550000Y-111550000D01*
X180255482Y-111550000D01*
X180248867Y-111550354D01*
X180192628Y-111556400D01*
X180057910Y-111606647D01*
X179942810Y-111692811D01*
X179873767Y-111785042D01*
X179817833Y-111826913D01*
X179748141Y-111831897D01*
X179686818Y-111798412D01*
X179653334Y-111737088D01*
X179650500Y-111710731D01*
X179650500Y-111008127D01*
X179651561Y-110991940D01*
X179660279Y-110925726D01*
X179668657Y-110894460D01*
X179691078Y-110840331D01*
X179707263Y-110812298D01*
X179742930Y-110765815D01*
X179765815Y-110742930D01*
X179812304Y-110707258D01*
X179840331Y-110691078D01*
X179894464Y-110668656D01*
X179925725Y-110660279D01*
X179991958Y-110651559D01*
X180008141Y-110650499D01*
X182671613Y-110650499D01*
X182738652Y-110670184D01*
G37*
%TD.AperFunction*%
%TA.AperFunction,Conductor*%
G36*
X167701155Y-98120182D02*
G01*
X167746910Y-98172986D01*
X167756854Y-98242144D01*
X167736167Y-98294936D01*
X167700181Y-98347070D01*
X167639860Y-98506127D01*
X167619354Y-98675000D01*
X167637510Y-98824516D01*
X167639860Y-98843872D01*
X167668141Y-98918445D01*
X167673104Y-98931529D01*
X167678471Y-99001192D01*
X167645323Y-99062698D01*
X167584185Y-99096520D01*
X167557162Y-99099500D01*
X167489944Y-99099500D01*
X167457284Y-99107549D01*
X167324775Y-99140209D01*
X167174149Y-99219265D01*
X167046815Y-99332072D01*
X166950182Y-99472069D01*
X166889860Y-99631127D01*
X166869354Y-99800000D01*
X166882241Y-99906127D01*
X166889860Y-99968872D01*
X166950182Y-100127930D01*
X167046817Y-100267929D01*
X167057725Y-100277592D01*
X167094853Y-100336781D01*
X167099500Y-100370409D01*
X167099500Y-101273042D01*
X167079815Y-101340081D01*
X167027011Y-101385836D01*
X166957853Y-101395780D01*
X166921700Y-101384763D01*
X166916207Y-101382118D01*
X166773295Y-101349499D01*
X166719815Y-101349499D01*
X166554169Y-101349499D01*
X166537984Y-101348438D01*
X166517635Y-101345759D01*
X166449711Y-101336816D01*
X166418445Y-101328438D01*
X166340074Y-101295976D01*
X166312039Y-101279790D01*
X166244739Y-101228148D01*
X166221851Y-101205260D01*
X166170208Y-101137959D01*
X166154022Y-101109924D01*
X166143562Y-101084672D01*
X166121560Y-101031554D01*
X166113183Y-101000288D01*
X166101042Y-100908064D01*
X166099981Y-100891845D01*
X166099986Y-100875680D01*
X166100485Y-99048813D01*
X166100499Y-99048694D01*
X166100499Y-99006092D01*
X166101096Y-98993938D01*
X166107243Y-98931529D01*
X166116586Y-98836662D01*
X166121328Y-98812829D01*
X166149828Y-98718880D01*
X166165425Y-98667459D01*
X166174720Y-98645016D01*
X166246342Y-98511021D01*
X166259834Y-98490829D01*
X166356213Y-98373391D01*
X166373392Y-98356212D01*
X166490829Y-98259834D01*
X166511029Y-98246337D01*
X166645008Y-98174724D01*
X166667453Y-98165426D01*
X166812839Y-98121325D01*
X166836661Y-98116586D01*
X166993975Y-98101092D01*
X167006078Y-98100497D01*
X167634117Y-98100497D01*
X167701155Y-98120182D01*
G37*
%TD.AperFunction*%
%TA.AperFunction,Conductor*%
G36*
X185201155Y-98120182D02*
G01*
X185246910Y-98172986D01*
X185256854Y-98242144D01*
X185236167Y-98294936D01*
X185200181Y-98347070D01*
X185139860Y-98506127D01*
X185119354Y-98675000D01*
X185137510Y-98824516D01*
X185139860Y-98843872D01*
X185168141Y-98918445D01*
X185173104Y-98931529D01*
X185178471Y-99001192D01*
X185145323Y-99062698D01*
X185084185Y-99096520D01*
X185057162Y-99099500D01*
X184989944Y-99099500D01*
X184957284Y-99107549D01*
X184824775Y-99140209D01*
X184674149Y-99219265D01*
X184546815Y-99332072D01*
X184450182Y-99472069D01*
X184389860Y-99631127D01*
X184369354Y-99799999D01*
X184382241Y-99906127D01*
X184389860Y-99968872D01*
X184450182Y-100127930D01*
X184546817Y-100267929D01*
X184557725Y-100277592D01*
X184594853Y-100336781D01*
X184599500Y-100370409D01*
X184599500Y-101273042D01*
X184579815Y-101340081D01*
X184527011Y-101385836D01*
X184457853Y-101395780D01*
X184421700Y-101384763D01*
X184416207Y-101382118D01*
X184273295Y-101349499D01*
X184219815Y-101349499D01*
X184054169Y-101349499D01*
X184037984Y-101348438D01*
X184017635Y-101345759D01*
X183949711Y-101336816D01*
X183918445Y-101328438D01*
X183840074Y-101295976D01*
X183812039Y-101279790D01*
X183744739Y-101228148D01*
X183721851Y-101205260D01*
X183670208Y-101137959D01*
X183654022Y-101109924D01*
X183643562Y-101084672D01*
X183621560Y-101031554D01*
X183613183Y-101000288D01*
X183601042Y-100908064D01*
X183599981Y-100891845D01*
X183599986Y-100875680D01*
X183600485Y-99048813D01*
X183600499Y-99048694D01*
X183600499Y-99006092D01*
X183601096Y-98993938D01*
X183607243Y-98931529D01*
X183616586Y-98836662D01*
X183621328Y-98812829D01*
X183649828Y-98718880D01*
X183665425Y-98667459D01*
X183674720Y-98645016D01*
X183746342Y-98511021D01*
X183759834Y-98490829D01*
X183856213Y-98373391D01*
X183873392Y-98356212D01*
X183990829Y-98259834D01*
X184011029Y-98246337D01*
X184145008Y-98174724D01*
X184167453Y-98165426D01*
X184312839Y-98121325D01*
X184336661Y-98116586D01*
X184493975Y-98101092D01*
X184506078Y-98100497D01*
X185134117Y-98100497D01*
X185201155Y-98120182D01*
G37*
%TD.AperFunction*%
%TA.AperFunction,Conductor*%
G36*
X150937629Y-98600481D02*
G01*
X150937708Y-98600499D01*
X150965649Y-98600499D01*
X150993907Y-98600499D01*
X151006061Y-98601096D01*
X151163335Y-98616586D01*
X151187170Y-98621328D01*
X151332540Y-98665426D01*
X151354986Y-98674722D01*
X151488973Y-98746339D01*
X151509176Y-98759839D01*
X151626603Y-98856209D01*
X151643791Y-98873397D01*
X151740160Y-98990823D01*
X151753665Y-99011035D01*
X151825272Y-99145002D01*
X151834575Y-99167460D01*
X151878672Y-99312831D01*
X151883414Y-99336671D01*
X151898905Y-99493955D01*
X151899502Y-99506099D01*
X151899502Y-100130283D01*
X151879817Y-100197322D01*
X151827013Y-100243077D01*
X151757855Y-100253021D01*
X151717876Y-100240079D01*
X151575227Y-100165210D01*
X151465112Y-100138070D01*
X151410056Y-100124500D01*
X151239944Y-100124500D01*
X151144693Y-100147977D01*
X151060156Y-100168813D01*
X151059207Y-100164965D01*
X151016596Y-100173489D01*
X150951550Y-100147977D01*
X150910623Y-100091349D01*
X150904421Y-100064923D01*
X150885140Y-99906128D01*
X150824818Y-99747070D01*
X150759642Y-99652647D01*
X150728184Y-99607072D01*
X150719637Y-99599500D01*
X150600852Y-99494266D01*
X150574025Y-99480186D01*
X150450224Y-99415209D01*
X150325765Y-99384533D01*
X150285056Y-99374500D01*
X150114944Y-99374500D01*
X150059887Y-99388069D01*
X149949773Y-99415210D01*
X149799149Y-99494264D01*
X149762186Y-99527011D01*
X149715562Y-99568316D01*
X149652332Y-99598037D01*
X149633337Y-99599500D01*
X148726958Y-99599500D01*
X148659919Y-99579815D01*
X148614164Y-99527011D01*
X148604220Y-99457853D01*
X148615237Y-99421700D01*
X148615859Y-99420407D01*
X148617882Y-99416207D01*
X148650501Y-99273295D01*
X148650501Y-99200001D01*
X148650501Y-99165651D01*
X148650501Y-99165650D01*
X148650501Y-99054166D01*
X148651562Y-99037982D01*
X148652038Y-99034371D01*
X148663183Y-98949711D01*
X148671561Y-98918445D01*
X148704023Y-98840074D01*
X148720209Y-98812039D01*
X148771851Y-98744739D01*
X148794739Y-98721851D01*
X148862040Y-98670208D01*
X148890070Y-98654024D01*
X148968447Y-98621560D01*
X148999708Y-98613183D01*
X149071809Y-98603691D01*
X149091935Y-98601042D01*
X149108150Y-98599981D01*
X150937629Y-98600481D01*
G37*
%TD.AperFunction*%
%TA.AperFunction,Conductor*%
G36*
X138940987Y-94650501D02*
G01*
X138965650Y-94650501D01*
X138991875Y-94650501D01*
X139008059Y-94651562D01*
X139017687Y-94652829D01*
X139074275Y-94660279D01*
X139105536Y-94668655D01*
X139139423Y-94682692D01*
X139159670Y-94691079D01*
X139187701Y-94707263D01*
X139234181Y-94742928D01*
X139257072Y-94765819D01*
X139292738Y-94812301D01*
X139308922Y-94840334D01*
X139331342Y-94894461D01*
X139339720Y-94925728D01*
X139348439Y-94991956D01*
X139349500Y-95008141D01*
X139349500Y-97671613D01*
X139329815Y-97738652D01*
X139277011Y-97784407D01*
X139207853Y-97794351D01*
X139144297Y-97765326D01*
X139137819Y-97759294D01*
X138487458Y-97108933D01*
X138453973Y-97047610D01*
X138451738Y-97033417D01*
X138436024Y-96873868D01*
X138378814Y-96685273D01*
X138377416Y-96682659D01*
X138376096Y-96676315D01*
X138375268Y-96673586D01*
X138375512Y-96673511D01*
X138363175Y-96614257D01*
X138387511Y-96549891D01*
X138393353Y-96542086D01*
X138443599Y-96407373D01*
X138449645Y-96351132D01*
X138450000Y-96344518D01*
X138450000Y-96050000D01*
X137695581Y-96050000D01*
X137747060Y-95994079D01*
X137793982Y-95887108D01*
X137803628Y-95770698D01*
X137774953Y-95657462D01*
X137711064Y-95559673D01*
X137698636Y-95550000D01*
X138450000Y-95550000D01*
X138450000Y-95255481D01*
X138449645Y-95248867D01*
X138443599Y-95192628D01*
X138393352Y-95057910D01*
X138307188Y-94942810D01*
X138214958Y-94873767D01*
X138173087Y-94817833D01*
X138168103Y-94748141D01*
X138201588Y-94686818D01*
X138262912Y-94653334D01*
X138289269Y-94650500D01*
X138940983Y-94650500D01*
X138940987Y-94650501D01*
G37*
%TD.AperFunction*%
%TA.AperFunction,Conductor*%
G36*
X195855702Y-84734673D02*
G01*
X195862180Y-84740705D01*
X196512541Y-85391066D01*
X196546026Y-85452389D01*
X196548263Y-85466593D01*
X196563976Y-85626132D01*
X196621186Y-85814726D01*
X196622583Y-85817340D01*
X196623904Y-85823687D01*
X196624731Y-85826412D01*
X196624487Y-85826485D01*
X196636824Y-85885743D01*
X196612495Y-85950097D01*
X196606648Y-85957907D01*
X196556400Y-86092627D01*
X196550354Y-86148866D01*
X196550000Y-86155480D01*
X196550000Y-86449999D01*
X197304419Y-86449999D01*
X197252940Y-86505920D01*
X197206018Y-86612891D01*
X197196372Y-86729301D01*
X197225047Y-86842537D01*
X197288936Y-86940326D01*
X197301364Y-86949999D01*
X196550000Y-86949999D01*
X196550000Y-87244517D01*
X196550354Y-87251131D01*
X196556400Y-87307370D01*
X196606647Y-87442088D01*
X196692811Y-87557188D01*
X196785042Y-87626232D01*
X196826913Y-87682166D01*
X196831897Y-87751858D01*
X196798412Y-87813181D01*
X196737088Y-87846665D01*
X196710731Y-87849499D01*
X196008125Y-87849499D01*
X195991940Y-87848438D01*
X195925728Y-87839721D01*
X195894458Y-87831342D01*
X195840329Y-87808920D01*
X195812298Y-87792736D01*
X195765818Y-87757071D01*
X195742927Y-87734180D01*
X195707261Y-87687698D01*
X195691077Y-87659665D01*
X195677229Y-87626232D01*
X195668656Y-87605537D01*
X195660279Y-87574271D01*
X195660150Y-87573294D01*
X195651559Y-87508042D01*
X195650499Y-87491858D01*
X195650499Y-84828386D01*
X195670184Y-84761347D01*
X195722988Y-84715592D01*
X195792146Y-84705648D01*
X195855702Y-84734673D01*
G37*
%TD.AperFunction*%
%TA.AperFunction,Conductor*%
G36*
X167701154Y-80620185D02*
G01*
X167746909Y-80672989D01*
X167756853Y-80742147D01*
X167736165Y-80794940D01*
X167700182Y-80847069D01*
X167639860Y-81006127D01*
X167619354Y-81175000D01*
X167633533Y-81291768D01*
X167639860Y-81343872D01*
X167672585Y-81430163D01*
X167673104Y-81431529D01*
X167678471Y-81501192D01*
X167645323Y-81562698D01*
X167584185Y-81596520D01*
X167557162Y-81599500D01*
X167489944Y-81599500D01*
X167457284Y-81607549D01*
X167324775Y-81640209D01*
X167174149Y-81719265D01*
X167046815Y-81832072D01*
X166950182Y-81972069D01*
X166889860Y-82131127D01*
X166869354Y-82300000D01*
X166882241Y-82406127D01*
X166889860Y-82468872D01*
X166950182Y-82627930D01*
X167046817Y-82767929D01*
X167057725Y-82777592D01*
X167094853Y-82836781D01*
X167099500Y-82870409D01*
X167099500Y-83773042D01*
X167079815Y-83840081D01*
X167027011Y-83885836D01*
X166957853Y-83895780D01*
X166921700Y-83884763D01*
X166916207Y-83882118D01*
X166773295Y-83849499D01*
X166719815Y-83849499D01*
X166508127Y-83849499D01*
X166491942Y-83848438D01*
X166473248Y-83845977D01*
X166412788Y-83838017D01*
X166381521Y-83829639D01*
X166315335Y-83802224D01*
X166287301Y-83786038D01*
X166230463Y-83742424D01*
X166207575Y-83719536D01*
X166163961Y-83662698D01*
X166147775Y-83634664D01*
X166145511Y-83629199D01*
X166120360Y-83568478D01*
X166111982Y-83537209D01*
X166101562Y-83458057D01*
X166100501Y-83441873D01*
X166100501Y-83391774D01*
X166100499Y-83391764D01*
X166100499Y-82468872D01*
X166100499Y-81506071D01*
X166101095Y-81493954D01*
X166116587Y-81336661D01*
X166121326Y-81312839D01*
X166165427Y-81167454D01*
X166174723Y-81145013D01*
X166246338Y-81011030D01*
X166259839Y-80990826D01*
X166276401Y-80970645D01*
X166356213Y-80873392D01*
X166373392Y-80856213D01*
X166490828Y-80759837D01*
X166511030Y-80746338D01*
X166645013Y-80674723D01*
X166667454Y-80665427D01*
X166812839Y-80621326D01*
X166836663Y-80616587D01*
X166993939Y-80601097D01*
X167006094Y-80600500D01*
X167034351Y-80600500D01*
X167634115Y-80600500D01*
X167701154Y-80620185D01*
G37*
%TD.AperFunction*%
%TA.AperFunction,Conductor*%
G36*
X183282118Y-82259917D02*
G01*
X183424775Y-82334790D01*
X183589944Y-82375500D01*
X183589945Y-82375500D01*
X183760055Y-82375500D01*
X183760056Y-82375500D01*
X183855990Y-82351854D01*
X183939844Y-82331187D01*
X183940792Y-82335036D01*
X183983354Y-82326505D01*
X184048409Y-82351991D01*
X184089359Y-82408603D01*
X184095579Y-82435081D01*
X184114860Y-82593872D01*
X184175182Y-82752930D01*
X184271815Y-82892927D01*
X184271816Y-82892928D01*
X184271817Y-82892929D01*
X184399148Y-83005734D01*
X184549775Y-83084790D01*
X184714944Y-83125500D01*
X184714945Y-83125500D01*
X184885055Y-83125500D01*
X184885056Y-83125500D01*
X185050225Y-83084790D01*
X185200852Y-83005734D01*
X185284437Y-82931683D01*
X185347668Y-82901963D01*
X185366663Y-82900500D01*
X186273042Y-82900500D01*
X186340081Y-82920185D01*
X186385836Y-82972989D01*
X186395780Y-83042147D01*
X186384763Y-83078300D01*
X186382118Y-83083792D01*
X186349499Y-83226704D01*
X186349499Y-83445831D01*
X186348438Y-83462015D01*
X186347323Y-83470486D01*
X186336816Y-83550288D01*
X186328438Y-83581554D01*
X186295976Y-83659925D01*
X186279790Y-83687960D01*
X186228148Y-83755260D01*
X186205260Y-83778148D01*
X186137959Y-83829791D01*
X186109924Y-83845977D01*
X186031555Y-83878438D01*
X186000288Y-83886816D01*
X185908075Y-83898956D01*
X185891856Y-83900017D01*
X184060968Y-83899517D01*
X184060893Y-83899501D01*
X184034351Y-83899501D01*
X184006093Y-83899501D01*
X183993939Y-83898904D01*
X183836671Y-83883414D01*
X183812829Y-83878671D01*
X183667459Y-83834573D01*
X183645008Y-83825274D01*
X183511028Y-83753661D01*
X183490823Y-83740160D01*
X183373396Y-83643790D01*
X183356208Y-83626602D01*
X183335575Y-83601461D01*
X183259838Y-83509174D01*
X183246334Y-83488964D01*
X183174725Y-83354994D01*
X183165424Y-83332539D01*
X183155553Y-83299998D01*
X183121325Y-83187162D01*
X183116586Y-83163336D01*
X183101093Y-83006039D01*
X183100498Y-82993926D01*
X183100497Y-82369712D01*
X183120181Y-82302676D01*
X183172985Y-82256921D01*
X183242144Y-82246977D01*
X183282118Y-82259917D01*
G37*
%TD.AperFunction*%
%TA.AperFunction,Conductor*%
G36*
X150937629Y-81100481D02*
G01*
X150937708Y-81100499D01*
X150965649Y-81100499D01*
X150993906Y-81100499D01*
X151006060Y-81101096D01*
X151163334Y-81116586D01*
X151187162Y-81121325D01*
X151332543Y-81165425D01*
X151354991Y-81174724D01*
X151485980Y-81244739D01*
X151488964Y-81246334D01*
X151509175Y-81259839D01*
X151626602Y-81356209D01*
X151643790Y-81373397D01*
X151740160Y-81490824D01*
X151753665Y-81511035D01*
X151822710Y-81640209D01*
X151825272Y-81645001D01*
X151834575Y-81667460D01*
X151878672Y-81812831D01*
X151883414Y-81836671D01*
X151897549Y-81980186D01*
X151898904Y-81993937D01*
X151899501Y-82006092D01*
X151899501Y-82630283D01*
X151879816Y-82697322D01*
X151827012Y-82743077D01*
X151757854Y-82753021D01*
X151717875Y-82740079D01*
X151575226Y-82665210D01*
X151492640Y-82644855D01*
X151410056Y-82624500D01*
X151239944Y-82624500D01*
X151144693Y-82647977D01*
X151060156Y-82668813D01*
X151059207Y-82664965D01*
X151016596Y-82673489D01*
X150951550Y-82647977D01*
X150910623Y-82591349D01*
X150904421Y-82564923D01*
X150885140Y-82406128D01*
X150824818Y-82247070D01*
X150752934Y-82142929D01*
X150728184Y-82107072D01*
X150719637Y-82099500D01*
X150600852Y-81994266D01*
X150531474Y-81957853D01*
X150450224Y-81915209D01*
X150325765Y-81884533D01*
X150285056Y-81874500D01*
X150114944Y-81874500D01*
X150059887Y-81888070D01*
X149949773Y-81915210D01*
X149799149Y-81994264D01*
X149762186Y-82027011D01*
X149715562Y-82068316D01*
X149652332Y-82098037D01*
X149633337Y-82099500D01*
X148726957Y-82099500D01*
X148659918Y-82079815D01*
X148614163Y-82027011D01*
X148604219Y-81957853D01*
X148615236Y-81921700D01*
X148615858Y-81920407D01*
X148617881Y-81916207D01*
X148650500Y-81773295D01*
X148650500Y-81700001D01*
X148650500Y-81665651D01*
X148650500Y-81665650D01*
X148650500Y-81554166D01*
X148651561Y-81537982D01*
X148655760Y-81506092D01*
X148663182Y-81449711D01*
X148671560Y-81418444D01*
X148690954Y-81371622D01*
X148704023Y-81340069D01*
X148720205Y-81312042D01*
X148771853Y-81244732D01*
X148794732Y-81221853D01*
X148862042Y-81170205D01*
X148890069Y-81154023D01*
X148968445Y-81121559D01*
X148999709Y-81113182D01*
X149091923Y-81101041D01*
X149108136Y-81099981D01*
X150937629Y-81100481D01*
G37*
%TD.AperFunction*%
%TA.AperFunction,Conductor*%
G36*
X138940987Y-77150501D02*
G01*
X138965650Y-77150501D01*
X138991875Y-77150501D01*
X139008059Y-77151562D01*
X139017687Y-77152829D01*
X139074275Y-77160279D01*
X139105536Y-77168655D01*
X139139423Y-77182692D01*
X139159670Y-77191079D01*
X139187701Y-77207263D01*
X139234181Y-77242928D01*
X139257072Y-77265819D01*
X139292738Y-77312301D01*
X139308922Y-77340334D01*
X139331342Y-77394461D01*
X139339720Y-77425728D01*
X139348439Y-77491955D01*
X139349500Y-77508140D01*
X139349499Y-80171612D01*
X139329814Y-80238652D01*
X139277010Y-80284406D01*
X139207852Y-80294350D01*
X139144296Y-80265325D01*
X139137818Y-80259293D01*
X138487458Y-79608933D01*
X138453973Y-79547610D01*
X138451738Y-79533417D01*
X138436024Y-79373868D01*
X138378814Y-79185273D01*
X138377416Y-79182659D01*
X138376096Y-79176315D01*
X138375268Y-79173586D01*
X138375512Y-79173511D01*
X138363175Y-79114257D01*
X138387511Y-79049891D01*
X138393353Y-79042086D01*
X138443599Y-78907373D01*
X138449645Y-78851132D01*
X138450000Y-78844518D01*
X138450000Y-78550000D01*
X137695581Y-78550000D01*
X137747060Y-78494079D01*
X137793982Y-78387108D01*
X137803628Y-78270698D01*
X137774953Y-78157462D01*
X137711064Y-78059673D01*
X137698636Y-78050000D01*
X138450000Y-78050000D01*
X138450000Y-77755481D01*
X138449645Y-77748867D01*
X138443599Y-77692628D01*
X138393352Y-77557910D01*
X138307188Y-77442810D01*
X138214958Y-77373767D01*
X138173087Y-77317833D01*
X138168103Y-77248141D01*
X138201588Y-77186818D01*
X138262912Y-77153334D01*
X138289269Y-77150500D01*
X138940983Y-77150500D01*
X138940987Y-77150501D01*
G37*
%TD.AperFunction*%
%TA.AperFunction,Conductor*%
G36*
X195855702Y-67234673D02*
G01*
X195862180Y-67240705D01*
X196512541Y-67891066D01*
X196546026Y-67952389D01*
X196548263Y-67966593D01*
X196563976Y-68126132D01*
X196621186Y-68314726D01*
X196622583Y-68317340D01*
X196623904Y-68323687D01*
X196624731Y-68326412D01*
X196624487Y-68326485D01*
X196636824Y-68385743D01*
X196612495Y-68450097D01*
X196606648Y-68457907D01*
X196556400Y-68592627D01*
X196550354Y-68648866D01*
X196550000Y-68655480D01*
X196550000Y-68949999D01*
X197304419Y-68949999D01*
X197252940Y-69005920D01*
X197206018Y-69112891D01*
X197196372Y-69229301D01*
X197225047Y-69342537D01*
X197288936Y-69440326D01*
X197301364Y-69449999D01*
X196550000Y-69449999D01*
X196550000Y-69744517D01*
X196550354Y-69751131D01*
X196556400Y-69807370D01*
X196606647Y-69942088D01*
X196692811Y-70057188D01*
X196785042Y-70126232D01*
X196826913Y-70182166D01*
X196831897Y-70251858D01*
X196798412Y-70313181D01*
X196737088Y-70346665D01*
X196710731Y-70349499D01*
X196008125Y-70349499D01*
X195991940Y-70348438D01*
X195925728Y-70339721D01*
X195894458Y-70331342D01*
X195840329Y-70308920D01*
X195812298Y-70292736D01*
X195765818Y-70257071D01*
X195742927Y-70234180D01*
X195707261Y-70187698D01*
X195691077Y-70159665D01*
X195677229Y-70126232D01*
X195668656Y-70105537D01*
X195660279Y-70074271D01*
X195660150Y-70073294D01*
X195651559Y-70008042D01*
X195650499Y-69991858D01*
X195650499Y-67328386D01*
X195670184Y-67261347D01*
X195722988Y-67215592D01*
X195792146Y-67205648D01*
X195855702Y-67234673D01*
G37*
%TD.AperFunction*%
%TA.AperFunction,Conductor*%
G36*
X150578298Y-63615236D02*
G01*
X150583793Y-63617882D01*
X150726705Y-63650501D01*
X150780185Y-63650501D01*
X150945831Y-63650501D01*
X150962016Y-63651562D01*
X151050287Y-63663183D01*
X151081554Y-63671561D01*
X151159925Y-63704023D01*
X151187960Y-63720209D01*
X151255260Y-63771851D01*
X151278148Y-63794739D01*
X151329791Y-63862040D01*
X151345977Y-63890075D01*
X151378438Y-63968444D01*
X151386816Y-63999711D01*
X151398957Y-64091935D01*
X151400018Y-64108154D01*
X151399516Y-65940193D01*
X151399501Y-65940271D01*
X151399501Y-65993907D01*
X151398904Y-66006062D01*
X151383414Y-66163329D01*
X151378671Y-66187170D01*
X151334573Y-66332540D01*
X151325272Y-66354995D01*
X151257588Y-66481627D01*
X151253666Y-66488964D01*
X151240160Y-66509176D01*
X151143790Y-66626603D01*
X151126602Y-66643791D01*
X151009176Y-66740160D01*
X150988964Y-66753665D01*
X150854997Y-66825272D01*
X150832539Y-66834575D01*
X150687168Y-66878672D01*
X150663328Y-66883414D01*
X150547424Y-66894829D01*
X150506059Y-66898904D01*
X150493906Y-66899501D01*
X149865885Y-66899501D01*
X149798846Y-66879816D01*
X149753091Y-66827012D01*
X149743147Y-66757854D01*
X149763835Y-66705061D01*
X149786545Y-66672159D01*
X149799818Y-66652930D01*
X149860140Y-66493872D01*
X149880645Y-66325000D01*
X149860140Y-66156128D01*
X149826895Y-66068469D01*
X149821529Y-65998808D01*
X149854677Y-65937302D01*
X149915815Y-65903480D01*
X149942838Y-65900500D01*
X150010055Y-65900500D01*
X150010056Y-65900500D01*
X150175225Y-65859790D01*
X150325852Y-65780734D01*
X150453183Y-65667929D01*
X150549818Y-65527930D01*
X150610140Y-65368872D01*
X150630645Y-65200000D01*
X150610140Y-65031128D01*
X150549818Y-64872070D01*
X150453183Y-64732071D01*
X150442271Y-64722404D01*
X150405146Y-64663215D01*
X150400500Y-64629590D01*
X150400500Y-63726957D01*
X150420185Y-63659918D01*
X150472989Y-63614163D01*
X150542147Y-63604219D01*
X150578298Y-63615236D01*
G37*
%TD.AperFunction*%
%TA.AperFunction,Conductor*%
G36*
X168078298Y-63615236D02*
G01*
X168083793Y-63617882D01*
X168226705Y-63650501D01*
X168280185Y-63650501D01*
X168445831Y-63650501D01*
X168462016Y-63651562D01*
X168550287Y-63663183D01*
X168581554Y-63671561D01*
X168659925Y-63704023D01*
X168687960Y-63720209D01*
X168755260Y-63771851D01*
X168778148Y-63794739D01*
X168829791Y-63862040D01*
X168845977Y-63890075D01*
X168878438Y-63968444D01*
X168886816Y-63999711D01*
X168898957Y-64091935D01*
X168900018Y-64108154D01*
X168899516Y-65940193D01*
X168899501Y-65940271D01*
X168899501Y-65993907D01*
X168898904Y-66006062D01*
X168883414Y-66163329D01*
X168878671Y-66187170D01*
X168834573Y-66332540D01*
X168825272Y-66354995D01*
X168757588Y-66481627D01*
X168753666Y-66488964D01*
X168740160Y-66509176D01*
X168643790Y-66626603D01*
X168626602Y-66643791D01*
X168509176Y-66740160D01*
X168488964Y-66753665D01*
X168354997Y-66825272D01*
X168332539Y-66834575D01*
X168187168Y-66878672D01*
X168163328Y-66883414D01*
X168047424Y-66894829D01*
X168006059Y-66898904D01*
X167993906Y-66899501D01*
X167365885Y-66899501D01*
X167298846Y-66879816D01*
X167253091Y-66827012D01*
X167243147Y-66757854D01*
X167263835Y-66705061D01*
X167286545Y-66672159D01*
X167299818Y-66652930D01*
X167360140Y-66493872D01*
X167380645Y-66325000D01*
X167360140Y-66156128D01*
X167326895Y-66068469D01*
X167321529Y-65998808D01*
X167354677Y-65937302D01*
X167415815Y-65903480D01*
X167442838Y-65900500D01*
X167510055Y-65900500D01*
X167510056Y-65900500D01*
X167675225Y-65859790D01*
X167825852Y-65780734D01*
X167953183Y-65667929D01*
X168049818Y-65527930D01*
X168110140Y-65368872D01*
X168130645Y-65200000D01*
X168110140Y-65031128D01*
X168049818Y-64872070D01*
X167953183Y-64732071D01*
X167942271Y-64722404D01*
X167905146Y-64663215D01*
X167900500Y-64629590D01*
X167900500Y-63726957D01*
X167920185Y-63659918D01*
X167972989Y-63614163D01*
X168042147Y-63604219D01*
X168078298Y-63615236D01*
G37*
%TD.AperFunction*%
%TA.AperFunction,Conductor*%
G36*
X183282118Y-64759917D02*
G01*
X183424775Y-64834790D01*
X183589944Y-64875500D01*
X183589945Y-64875500D01*
X183760055Y-64875500D01*
X183760056Y-64875500D01*
X183855990Y-64851854D01*
X183939844Y-64831187D01*
X183940792Y-64835036D01*
X183983354Y-64826505D01*
X184048409Y-64851991D01*
X184089359Y-64908603D01*
X184095579Y-64935081D01*
X184114860Y-65093872D01*
X184175182Y-65252930D01*
X184271815Y-65392927D01*
X184271816Y-65392928D01*
X184271817Y-65392929D01*
X184399148Y-65505734D01*
X184549775Y-65584790D01*
X184714944Y-65625500D01*
X184714945Y-65625500D01*
X184885055Y-65625500D01*
X184885056Y-65625500D01*
X185050225Y-65584790D01*
X185200852Y-65505734D01*
X185284437Y-65431683D01*
X185347668Y-65401963D01*
X185366663Y-65400500D01*
X186273042Y-65400500D01*
X186340081Y-65420185D01*
X186385836Y-65472989D01*
X186395780Y-65542147D01*
X186384763Y-65578300D01*
X186382118Y-65583792D01*
X186349499Y-65726704D01*
X186349499Y-65945831D01*
X186348438Y-65962015D01*
X186347959Y-65965652D01*
X186336816Y-66050288D01*
X186328438Y-66081554D01*
X186295976Y-66159925D01*
X186279790Y-66187960D01*
X186228148Y-66255260D01*
X186205260Y-66278148D01*
X186137959Y-66329791D01*
X186109924Y-66345977D01*
X186031555Y-66378438D01*
X186000288Y-66386816D01*
X185908075Y-66398956D01*
X185891856Y-66400017D01*
X184060968Y-66399517D01*
X184060893Y-66399501D01*
X184034351Y-66399501D01*
X184006093Y-66399501D01*
X183993939Y-66398904D01*
X183836671Y-66383414D01*
X183812829Y-66378671D01*
X183667459Y-66334573D01*
X183645008Y-66325274D01*
X183511028Y-66253661D01*
X183490823Y-66240160D01*
X183373396Y-66143790D01*
X183356208Y-66126602D01*
X183284611Y-66039361D01*
X183259838Y-66009174D01*
X183246334Y-65988964D01*
X183236461Y-65970493D01*
X183174725Y-65854994D01*
X183165424Y-65832539D01*
X183149826Y-65781117D01*
X183121325Y-65687162D01*
X183116586Y-65663336D01*
X183101093Y-65506039D01*
X183100498Y-65493926D01*
X183100497Y-64869712D01*
X183120181Y-64802676D01*
X183172985Y-64756921D01*
X183242144Y-64746977D01*
X183282118Y-64759917D01*
G37*
%TD.AperFunction*%
%TA.AperFunction,Conductor*%
G36*
X154450000Y-53450000D02*
G01*
X154744518Y-53450000D01*
X154751132Y-53449645D01*
X154807371Y-53443599D01*
X154942089Y-53393352D01*
X155057190Y-53307187D01*
X155126232Y-53214959D01*
X155182165Y-53173087D01*
X155251857Y-53168103D01*
X155313180Y-53201588D01*
X155346665Y-53262911D01*
X155349499Y-53289269D01*
X155349499Y-53991875D01*
X155348438Y-54008061D01*
X155339721Y-54074272D01*
X155331342Y-54105541D01*
X155308920Y-54159670D01*
X155292736Y-54187701D01*
X155257071Y-54234181D01*
X155234180Y-54257072D01*
X155187698Y-54292738D01*
X155159665Y-54308922D01*
X155105538Y-54331342D01*
X155074273Y-54339720D01*
X155038528Y-54344426D01*
X155008046Y-54348439D01*
X154991867Y-54349500D01*
X152328386Y-54349500D01*
X152261347Y-54329815D01*
X152215592Y-54277011D01*
X152205648Y-54207853D01*
X152234673Y-54144297D01*
X152240705Y-54137819D01*
X152532912Y-53845612D01*
X152891066Y-53487457D01*
X152952387Y-53453974D01*
X152966588Y-53451737D01*
X153126132Y-53436024D01*
X153314727Y-53378814D01*
X153317337Y-53377418D01*
X153323674Y-53376098D01*
X153326414Y-53375268D01*
X153326488Y-53375512D01*
X153385738Y-53363174D01*
X153450106Y-53387510D01*
X153457910Y-53393352D01*
X153592626Y-53443599D01*
X153648867Y-53449645D01*
X153655482Y-53450000D01*
X153950000Y-53450000D01*
X153950000Y-52698938D01*
X154031115Y-52762072D01*
X154141595Y-52800000D01*
X154229005Y-52800000D01*
X154315216Y-52785614D01*
X154417947Y-52730019D01*
X154450000Y-52695200D01*
X154450000Y-53450000D01*
G37*
%TD.AperFunction*%
%TA.AperFunction,Conductor*%
G36*
X171950000Y-53450000D02*
G01*
X172244518Y-53450000D01*
X172251132Y-53449645D01*
X172307371Y-53443599D01*
X172442089Y-53393352D01*
X172557190Y-53307187D01*
X172626232Y-53214959D01*
X172682165Y-53173087D01*
X172751857Y-53168103D01*
X172813180Y-53201588D01*
X172846665Y-53262911D01*
X172849499Y-53289269D01*
X172849499Y-53991875D01*
X172848438Y-54008061D01*
X172839721Y-54074272D01*
X172831342Y-54105541D01*
X172808920Y-54159670D01*
X172792736Y-54187701D01*
X172757071Y-54234181D01*
X172734180Y-54257072D01*
X172687698Y-54292738D01*
X172659665Y-54308922D01*
X172605538Y-54331342D01*
X172574273Y-54339720D01*
X172538528Y-54344426D01*
X172508046Y-54348439D01*
X172491867Y-54349500D01*
X169828386Y-54349500D01*
X169761347Y-54329815D01*
X169715592Y-54277011D01*
X169705648Y-54207853D01*
X169734673Y-54144297D01*
X169740705Y-54137819D01*
X170032912Y-53845612D01*
X170391066Y-53487457D01*
X170452387Y-53453974D01*
X170466588Y-53451737D01*
X170626132Y-53436024D01*
X170814727Y-53378814D01*
X170817337Y-53377418D01*
X170823674Y-53376098D01*
X170826414Y-53375268D01*
X170826488Y-53375512D01*
X170885738Y-53363174D01*
X170950106Y-53387510D01*
X170957910Y-53393352D01*
X171092626Y-53443599D01*
X171148867Y-53449645D01*
X171155482Y-53450000D01*
X171450000Y-53450000D01*
X171450000Y-52698938D01*
X171531115Y-52762072D01*
X171641595Y-52800000D01*
X171729005Y-52800000D01*
X171815216Y-52785614D01*
X171917947Y-52730019D01*
X171950000Y-52695200D01*
X171950000Y-53450000D01*
G37*
%TD.AperFunction*%
%TA.AperFunction,Conductor*%
G36*
X151085033Y-48570185D02*
G01*
X151098555Y-48580423D01*
X151249773Y-48659789D01*
X151249775Y-48659790D01*
X151414944Y-48700500D01*
X151414945Y-48700500D01*
X151585055Y-48700500D01*
X151585056Y-48700500D01*
X151750225Y-48659790D01*
X151900852Y-48580734D01*
X151900851Y-48580734D01*
X151914184Y-48573737D01*
X151914679Y-48574680D01*
X151963011Y-48551964D01*
X151982006Y-48550500D01*
X168517994Y-48550500D01*
X168585033Y-48570185D01*
X168598555Y-48580423D01*
X168749773Y-48659789D01*
X168749775Y-48659790D01*
X168914944Y-48700500D01*
X168914945Y-48700500D01*
X169085055Y-48700500D01*
X169085056Y-48700500D01*
X169250225Y-48659790D01*
X169400852Y-48580734D01*
X169400851Y-48580734D01*
X169414184Y-48573737D01*
X169414679Y-48574680D01*
X169463011Y-48551964D01*
X169482006Y-48550500D01*
X200220613Y-48550500D01*
X200287652Y-48570185D01*
X200308294Y-48586819D01*
X201413180Y-49691705D01*
X201446665Y-49753028D01*
X201449499Y-49779386D01*
X201449499Y-66025761D01*
X201429814Y-66092800D01*
X201427550Y-66096200D01*
X201375181Y-66172070D01*
X201314860Y-66331127D01*
X201294354Y-66500000D01*
X201314860Y-66668872D01*
X201375182Y-66827930D01*
X201427550Y-66903798D01*
X201449433Y-66970152D01*
X201449500Y-66974238D01*
X201449500Y-83525761D01*
X201429815Y-83592800D01*
X201427550Y-83596201D01*
X201375182Y-83672069D01*
X201314860Y-83831127D01*
X201294354Y-83999999D01*
X201306910Y-84103398D01*
X201314860Y-84168872D01*
X201375182Y-84327930D01*
X201427549Y-84403797D01*
X201449432Y-84470150D01*
X201449499Y-84474236D01*
X201449499Y-115220613D01*
X201429814Y-115287652D01*
X201413180Y-115308294D01*
X200308294Y-116413181D01*
X200246971Y-116446666D01*
X200220613Y-116449500D01*
X183982006Y-116449500D01*
X183914967Y-116429815D01*
X183901444Y-116419576D01*
X183750226Y-116340210D01*
X183667640Y-116319855D01*
X183585056Y-116299500D01*
X183414944Y-116299500D01*
X183392333Y-116305073D01*
X183249775Y-116340209D01*
X183099149Y-116419265D01*
X182971815Y-116532072D01*
X182875182Y-116672069D01*
X182814860Y-116831127D01*
X182809584Y-116874573D01*
X182781960Y-116938751D01*
X182774169Y-116947305D01*
X181308294Y-118413181D01*
X181246971Y-118446666D01*
X181220613Y-118449500D01*
X179982006Y-118449500D01*
X179914967Y-118429815D01*
X179901444Y-118419576D01*
X179750226Y-118340210D01*
X179667640Y-118319855D01*
X179585056Y-118299500D01*
X179414944Y-118299500D01*
X179359887Y-118313070D01*
X179249773Y-118340210D01*
X179085816Y-118426263D01*
X179085320Y-118425319D01*
X179036989Y-118448036D01*
X179017994Y-118449500D01*
X170779386Y-118449500D01*
X170712347Y-118429815D01*
X170691705Y-118413181D01*
X169802216Y-117523692D01*
X168897407Y-116618882D01*
X168894493Y-116615868D01*
X168850680Y-116568956D01*
X168850679Y-116568955D01*
X168850678Y-116568954D01*
X168815574Y-116547607D01*
X168805079Y-116540464D01*
X168794011Y-116532071D01*
X168772342Y-116515639D01*
X168772340Y-116515638D01*
X168755644Y-116509053D01*
X168736714Y-116499650D01*
X168721384Y-116490328D01*
X168690924Y-116481793D01*
X168681814Y-116479240D01*
X168669795Y-116475199D01*
X168631564Y-116460124D01*
X168631563Y-116460123D01*
X168631561Y-116460123D01*
X168613715Y-116458288D01*
X168592952Y-116454342D01*
X168575668Y-116449500D01*
X168575665Y-116449500D01*
X168534582Y-116449500D01*
X168521901Y-116448850D01*
X168481027Y-116444647D01*
X168463344Y-116447697D01*
X168442275Y-116449500D01*
X166482006Y-116449500D01*
X166414967Y-116429815D01*
X166401444Y-116419576D01*
X166250226Y-116340210D01*
X166167640Y-116319855D01*
X166085056Y-116299500D01*
X165914944Y-116299500D01*
X165871759Y-116310144D01*
X165749773Y-116340210D01*
X165585816Y-116426263D01*
X165585320Y-116425319D01*
X165536989Y-116448036D01*
X165517994Y-116449500D01*
X148482006Y-116449500D01*
X148414967Y-116429815D01*
X148401444Y-116419576D01*
X148250226Y-116340210D01*
X148167640Y-116319855D01*
X148085056Y-116299500D01*
X147914944Y-116299500D01*
X147871759Y-116310144D01*
X147749773Y-116340210D01*
X147585816Y-116426263D01*
X147585320Y-116425319D01*
X147536989Y-116448036D01*
X147517994Y-116449500D01*
X135279386Y-116449500D01*
X135212347Y-116429815D01*
X135191705Y-116413181D01*
X134410089Y-115631565D01*
X133586816Y-114808291D01*
X133553333Y-114746971D01*
X133550499Y-114720622D01*
X133550499Y-113639931D01*
X134249499Y-113639931D01*
X134249500Y-113639938D01*
X134249500Y-113730080D01*
X134249950Y-113733787D01*
X134249951Y-113733801D01*
X134280407Y-113984629D01*
X134280409Y-113984639D01*
X134280859Y-113988346D01*
X134281752Y-113991971D01*
X134281754Y-113991979D01*
X134342223Y-114237311D01*
X134342224Y-114237315D01*
X134343120Y-114240949D01*
X134344449Y-114244453D01*
X134434048Y-114480710D01*
X134434051Y-114480717D01*
X134435374Y-114484205D01*
X134437104Y-114487501D01*
X134437108Y-114487510D01*
X134554536Y-114711249D01*
X134556278Y-114714568D01*
X134560451Y-114720613D01*
X134701700Y-114925250D01*
X134704067Y-114928678D01*
X134876587Y-115123412D01*
X135071321Y-115295932D01*
X135074409Y-115298063D01*
X135074411Y-115298065D01*
X135145499Y-115347134D01*
X135285431Y-115443722D01*
X135288749Y-115445463D01*
X135288750Y-115445464D01*
X135315101Y-115459294D01*
X135515794Y-115564625D01*
X135759050Y-115656880D01*
X136011653Y-115719141D01*
X136269919Y-115750500D01*
X136273669Y-115750500D01*
X146073294Y-115750500D01*
X146216206Y-115717881D01*
X146348277Y-115654279D01*
X146462883Y-115562883D01*
X146554279Y-115448277D01*
X146617881Y-115316206D01*
X146650500Y-115173294D01*
X146650500Y-115100000D01*
X146650500Y-115065649D01*
X146650500Y-115026706D01*
X146617881Y-114883794D01*
X146581522Y-114808294D01*
X146554280Y-114751724D01*
X146527291Y-114717881D01*
X146462883Y-114637117D01*
X146369799Y-114562884D01*
X146348275Y-114545719D01*
X146216207Y-114482119D01*
X146073294Y-114449500D01*
X146035083Y-114449500D01*
X146035075Y-114449499D01*
X146019814Y-114449499D01*
X144508123Y-114449499D01*
X144491941Y-114448438D01*
X144462639Y-114444580D01*
X144425726Y-114439721D01*
X144394460Y-114431343D01*
X144340333Y-114408923D01*
X144312300Y-114392739D01*
X144284766Y-114371612D01*
X144265815Y-114357070D01*
X144242929Y-114334184D01*
X144207259Y-114287698D01*
X144191076Y-114259666D01*
X144181816Y-114237311D01*
X144168655Y-114205538D01*
X144160278Y-114174272D01*
X144160149Y-114173295D01*
X144151561Y-114108059D01*
X144150500Y-114091874D01*
X144150500Y-113389268D01*
X144170185Y-113322229D01*
X144222989Y-113276474D01*
X144292147Y-113266530D01*
X144355703Y-113295555D01*
X144373767Y-113314958D01*
X144442809Y-113407187D01*
X144557910Y-113493352D01*
X144692628Y-113543599D01*
X144748867Y-113549645D01*
X144755482Y-113550000D01*
X145050000Y-113550000D01*
X145050000Y-112798938D01*
X145131115Y-112862072D01*
X145241595Y-112900000D01*
X145329005Y-112900000D01*
X145415216Y-112885614D01*
X145517947Y-112830019D01*
X145550000Y-112795200D01*
X145550000Y-113550000D01*
X145844518Y-113550000D01*
X145851132Y-113549645D01*
X145907373Y-113543599D01*
X146042086Y-113493353D01*
X146049891Y-113487511D01*
X146115354Y-113463091D01*
X146173523Y-113475472D01*
X146173586Y-113475268D01*
X146175990Y-113475997D01*
X146182659Y-113477416D01*
X146185273Y-113478814D01*
X146373868Y-113536024D01*
X146570000Y-113555341D01*
X146766132Y-113536024D01*
X146954727Y-113478814D01*
X147088732Y-113407187D01*
X147139310Y-113380153D01*
X147140205Y-113381828D01*
X147190638Y-113360406D01*
X147259506Y-113372193D01*
X147277831Y-113383970D01*
X147425857Y-113463091D01*
X147455273Y-113478814D01*
X147643868Y-113536024D01*
X147840000Y-113555341D01*
X148036132Y-113536024D01*
X148224727Y-113478814D01*
X148358732Y-113407187D01*
X148409310Y-113380153D01*
X148410205Y-113381828D01*
X148460638Y-113360406D01*
X148529506Y-113372193D01*
X148547831Y-113383970D01*
X148695857Y-113463091D01*
X148725273Y-113478814D01*
X148913868Y-113536024D01*
X149110000Y-113555341D01*
X149306132Y-113536024D01*
X149494727Y-113478814D01*
X149628732Y-113407187D01*
X149679310Y-113380153D01*
X149680205Y-113381828D01*
X149730638Y-113360406D01*
X149799506Y-113372193D01*
X149817831Y-113383970D01*
X149965857Y-113463091D01*
X149995273Y-113478814D01*
X150183868Y-113536024D01*
X150380000Y-113555341D01*
X150576132Y-113536024D01*
X150764727Y-113478814D01*
X150898732Y-113407187D01*
X150949310Y-113380153D01*
X150950205Y-113381828D01*
X151000638Y-113360406D01*
X151069506Y-113372193D01*
X151087831Y-113383970D01*
X151235857Y-113463091D01*
X151265273Y-113478814D01*
X151453868Y-113536024D01*
X151650000Y-113555341D01*
X151846132Y-113536024D01*
X152034727Y-113478814D01*
X152168732Y-113407187D01*
X152219310Y-113380153D01*
X152220205Y-113381828D01*
X152270638Y-113360406D01*
X152339506Y-113372193D01*
X152357831Y-113383970D01*
X152505857Y-113463091D01*
X152535273Y-113478814D01*
X152723868Y-113536024D01*
X152920000Y-113555341D01*
X153116132Y-113536024D01*
X153304727Y-113478814D01*
X153438732Y-113407187D01*
X153489310Y-113380153D01*
X153490205Y-113381828D01*
X153540638Y-113360406D01*
X153609506Y-113372193D01*
X153627831Y-113383970D01*
X153775857Y-113463091D01*
X153805273Y-113478814D01*
X153993868Y-113536024D01*
X154190000Y-113555341D01*
X154386132Y-113536024D01*
X154574727Y-113478814D01*
X154748538Y-113385910D01*
X154900883Y-113260883D01*
X155025910Y-113108538D01*
X155116145Y-112939719D01*
X155165104Y-112889880D01*
X155233241Y-112874419D01*
X155298921Y-112898250D01*
X155341290Y-112953808D01*
X155349500Y-112998177D01*
X155349501Y-114065649D01*
X155349501Y-114091875D01*
X155348440Y-114108062D01*
X155339722Y-114174275D01*
X155331344Y-114205540D01*
X155308924Y-114259667D01*
X155292740Y-114287700D01*
X155257074Y-114334182D01*
X155234182Y-114357074D01*
X155187700Y-114392740D01*
X155159667Y-114408924D01*
X155105540Y-114431344D01*
X155074275Y-114439722D01*
X155029313Y-114445641D01*
X155008065Y-114448439D01*
X154991883Y-114449500D01*
X152926706Y-114449500D01*
X152783794Y-114482119D01*
X152651723Y-114545721D01*
X152537116Y-114637117D01*
X152445719Y-114751725D01*
X152382119Y-114883793D01*
X152349500Y-115026706D01*
X152349500Y-115048637D01*
X152349499Y-115048641D01*
X152349499Y-115100001D01*
X152349499Y-115173295D01*
X152382118Y-115316207D01*
X152445720Y-115448278D01*
X152509475Y-115528224D01*
X152537113Y-115562882D01*
X152537116Y-115562885D01*
X152651723Y-115654280D01*
X152783794Y-115717882D01*
X152926706Y-115750501D01*
X153085705Y-115750501D01*
X153085714Y-115750500D01*
X164073294Y-115750500D01*
X164216206Y-115717881D01*
X164348277Y-115654279D01*
X164462883Y-115562883D01*
X164554279Y-115448277D01*
X164617881Y-115316206D01*
X164650500Y-115173294D01*
X164650500Y-115100000D01*
X164650500Y-115065649D01*
X164650500Y-115026706D01*
X164617881Y-114883794D01*
X164581522Y-114808294D01*
X164554280Y-114751724D01*
X164527291Y-114717881D01*
X164462883Y-114637117D01*
X164369799Y-114562884D01*
X164348275Y-114545719D01*
X164216207Y-114482119D01*
X164073294Y-114449500D01*
X164035083Y-114449500D01*
X164035075Y-114449499D01*
X164019814Y-114449499D01*
X162508123Y-114449499D01*
X162491941Y-114448438D01*
X162462639Y-114444580D01*
X162425726Y-114439721D01*
X162394460Y-114431343D01*
X162340333Y-114408923D01*
X162312300Y-114392739D01*
X162284766Y-114371612D01*
X162265815Y-114357070D01*
X162242929Y-114334184D01*
X162207259Y-114287698D01*
X162191076Y-114259666D01*
X162181816Y-114237311D01*
X162168655Y-114205538D01*
X162160278Y-114174272D01*
X162160149Y-114173295D01*
X162151561Y-114108059D01*
X162150500Y-114091874D01*
X162150500Y-113389268D01*
X162170185Y-113322229D01*
X162222989Y-113276474D01*
X162292147Y-113266530D01*
X162355703Y-113295555D01*
X162373767Y-113314958D01*
X162442809Y-113407187D01*
X162557910Y-113493352D01*
X162692628Y-113543599D01*
X162748867Y-113549645D01*
X162755482Y-113550000D01*
X163050000Y-113550000D01*
X163050000Y-112798938D01*
X163131115Y-112862072D01*
X163241595Y-112900000D01*
X163329005Y-112900000D01*
X163415216Y-112885614D01*
X163517947Y-112830019D01*
X163550000Y-112795200D01*
X163550000Y-113550000D01*
X163844518Y-113550000D01*
X163851132Y-113549645D01*
X163907373Y-113543599D01*
X164042086Y-113493353D01*
X164049891Y-113487511D01*
X164115354Y-113463091D01*
X164173523Y-113475472D01*
X164173586Y-113475268D01*
X164175990Y-113475997D01*
X164182659Y-113477416D01*
X164185273Y-113478814D01*
X164373868Y-113536024D01*
X164570000Y-113555341D01*
X164766132Y-113536024D01*
X164954727Y-113478814D01*
X165088732Y-113407187D01*
X165139310Y-113380153D01*
X165140205Y-113381828D01*
X165190638Y-113360406D01*
X165259506Y-113372193D01*
X165277831Y-113383970D01*
X165425857Y-113463091D01*
X165455273Y-113478814D01*
X165643868Y-113536024D01*
X165840000Y-113555341D01*
X166036132Y-113536024D01*
X166224727Y-113478814D01*
X166358732Y-113407187D01*
X166409310Y-113380153D01*
X166410205Y-113381828D01*
X166460638Y-113360406D01*
X166529506Y-113372193D01*
X166547831Y-113383970D01*
X166695857Y-113463091D01*
X166725273Y-113478814D01*
X166913868Y-113536024D01*
X167110000Y-113555341D01*
X167306132Y-113536024D01*
X167494727Y-113478814D01*
X167628732Y-113407187D01*
X167679310Y-113380153D01*
X167680205Y-113381828D01*
X167730638Y-113360406D01*
X167799506Y-113372193D01*
X167817831Y-113383970D01*
X167965857Y-113463091D01*
X167995273Y-113478814D01*
X168183868Y-113536024D01*
X168380000Y-113555341D01*
X168576132Y-113536024D01*
X168764727Y-113478814D01*
X168898732Y-113407187D01*
X168949310Y-113380153D01*
X168950205Y-113381828D01*
X169000638Y-113360406D01*
X169069506Y-113372193D01*
X169087831Y-113383970D01*
X169235857Y-113463091D01*
X169265273Y-113478814D01*
X169453868Y-113536024D01*
X169650000Y-113555341D01*
X169846132Y-113536024D01*
X170034727Y-113478814D01*
X170168732Y-113407187D01*
X170219310Y-113380153D01*
X170220205Y-113381828D01*
X170270638Y-113360406D01*
X170339506Y-113372193D01*
X170357831Y-113383970D01*
X170505857Y-113463091D01*
X170535273Y-113478814D01*
X170723868Y-113536024D01*
X170920000Y-113555341D01*
X171116132Y-113536024D01*
X171304727Y-113478814D01*
X171438732Y-113407187D01*
X171489310Y-113380153D01*
X171490205Y-113381828D01*
X171540638Y-113360406D01*
X171609506Y-113372193D01*
X171627831Y-113383970D01*
X171775857Y-113463091D01*
X171805273Y-113478814D01*
X171993868Y-113536024D01*
X172190000Y-113555341D01*
X172386132Y-113536024D01*
X172574727Y-113478814D01*
X172748538Y-113385910D01*
X172900883Y-113260883D01*
X173025910Y-113108538D01*
X173116143Y-112939723D01*
X173165104Y-112889881D01*
X173233241Y-112874420D01*
X173298921Y-112898251D01*
X173341290Y-112953809D01*
X173349500Y-112998178D01*
X173349500Y-114091874D01*
X173348439Y-114108061D01*
X173339721Y-114174274D01*
X173331343Y-114205539D01*
X173308923Y-114259666D01*
X173292739Y-114287699D01*
X173257073Y-114334181D01*
X173234181Y-114357073D01*
X173187699Y-114392739D01*
X173159666Y-114408923D01*
X173105539Y-114431343D01*
X173074274Y-114439721D01*
X173029312Y-114445640D01*
X173008064Y-114448438D01*
X172991882Y-114449499D01*
X170964924Y-114449499D01*
X170964916Y-114449500D01*
X170926706Y-114449500D01*
X170783792Y-114482119D01*
X170651724Y-114545719D01*
X170537117Y-114637117D01*
X170445719Y-114751724D01*
X170382119Y-114883792D01*
X170349500Y-115026705D01*
X170349500Y-115048638D01*
X170349499Y-115048641D01*
X170349499Y-115100001D01*
X170349499Y-115173295D01*
X170382118Y-115316207D01*
X170445720Y-115448278D01*
X170509475Y-115528224D01*
X170537113Y-115562882D01*
X170537116Y-115562885D01*
X170651723Y-115654280D01*
X170783794Y-115717882D01*
X170926706Y-115750501D01*
X171085705Y-115750501D01*
X171085714Y-115750500D01*
X181573294Y-115750500D01*
X181716206Y-115717881D01*
X181848277Y-115654279D01*
X181962883Y-115562883D01*
X182054279Y-115448277D01*
X182117881Y-115316206D01*
X182150500Y-115173294D01*
X182150500Y-115100000D01*
X182150500Y-115065649D01*
X182150500Y-115065648D01*
X182150500Y-115026706D01*
X182117881Y-114883794D01*
X182081522Y-114808294D01*
X182054280Y-114751724D01*
X182027291Y-114717881D01*
X181962883Y-114637117D01*
X181869799Y-114562884D01*
X181848275Y-114545719D01*
X181716207Y-114482119D01*
X181573294Y-114449500D01*
X181535083Y-114449500D01*
X181535075Y-114449499D01*
X181519814Y-114449499D01*
X180008123Y-114449499D01*
X179991941Y-114448438D01*
X179962639Y-114444580D01*
X179925726Y-114439721D01*
X179894460Y-114431343D01*
X179840333Y-114408923D01*
X179812300Y-114392739D01*
X179784766Y-114371612D01*
X179765815Y-114357070D01*
X179742929Y-114334184D01*
X179707259Y-114287698D01*
X179691076Y-114259666D01*
X179681816Y-114237311D01*
X179668655Y-114205538D01*
X179660278Y-114174272D01*
X179660149Y-114173295D01*
X179651561Y-114108059D01*
X179650500Y-114091874D01*
X179650500Y-113389268D01*
X179670185Y-113322229D01*
X179722989Y-113276474D01*
X179792147Y-113266530D01*
X179855703Y-113295555D01*
X179873767Y-113314958D01*
X179942809Y-113407187D01*
X180057910Y-113493352D01*
X180192628Y-113543599D01*
X180248867Y-113549645D01*
X180255482Y-113550000D01*
X180550000Y-113550000D01*
X180550000Y-112798938D01*
X180631115Y-112862072D01*
X180741595Y-112900000D01*
X180829005Y-112900000D01*
X180915216Y-112885614D01*
X181017947Y-112830019D01*
X181050000Y-112795200D01*
X181050000Y-113550000D01*
X181344518Y-113550000D01*
X181351132Y-113549645D01*
X181407373Y-113543599D01*
X181542086Y-113493353D01*
X181549891Y-113487511D01*
X181615354Y-113463091D01*
X181673523Y-113475472D01*
X181673586Y-113475268D01*
X181675990Y-113475997D01*
X181682659Y-113477416D01*
X181685273Y-113478814D01*
X181873868Y-113536024D01*
X182070000Y-113555341D01*
X182266132Y-113536024D01*
X182454727Y-113478814D01*
X182588732Y-113407187D01*
X182639310Y-113380153D01*
X182640205Y-113381828D01*
X182690638Y-113360406D01*
X182759506Y-113372193D01*
X182777831Y-113383970D01*
X182925857Y-113463091D01*
X182955273Y-113478814D01*
X183143868Y-113536024D01*
X183340000Y-113555341D01*
X183536132Y-113536024D01*
X183724727Y-113478814D01*
X183858732Y-113407187D01*
X183909310Y-113380153D01*
X183910205Y-113381828D01*
X183960638Y-113360406D01*
X184029506Y-113372193D01*
X184047831Y-113383970D01*
X184195857Y-113463091D01*
X184225273Y-113478814D01*
X184413868Y-113536024D01*
X184610000Y-113555341D01*
X184806132Y-113536024D01*
X184994727Y-113478814D01*
X185128732Y-113407187D01*
X185179310Y-113380153D01*
X185180205Y-113381828D01*
X185230638Y-113360406D01*
X185299506Y-113372193D01*
X185317831Y-113383970D01*
X185465857Y-113463091D01*
X185495273Y-113478814D01*
X185683868Y-113536024D01*
X185880000Y-113555341D01*
X186076132Y-113536024D01*
X186264727Y-113478814D01*
X186398732Y-113407187D01*
X186449310Y-113380153D01*
X186450205Y-113381828D01*
X186500638Y-113360406D01*
X186569506Y-113372193D01*
X186587831Y-113383970D01*
X186735857Y-113463091D01*
X186765273Y-113478814D01*
X186953868Y-113536024D01*
X187150000Y-113555341D01*
X187346132Y-113536024D01*
X187534727Y-113478814D01*
X187668732Y-113407187D01*
X187719310Y-113380153D01*
X187720205Y-113381828D01*
X187770638Y-113360406D01*
X187839506Y-113372193D01*
X187857831Y-113383970D01*
X188005857Y-113463091D01*
X188035273Y-113478814D01*
X188223868Y-113536024D01*
X188420000Y-113555341D01*
X188616132Y-113536024D01*
X188804727Y-113478814D01*
X188938732Y-113407187D01*
X188989310Y-113380153D01*
X188990205Y-113381828D01*
X189040638Y-113360406D01*
X189109506Y-113372193D01*
X189127831Y-113383970D01*
X189275857Y-113463091D01*
X189305273Y-113478814D01*
X189493868Y-113536024D01*
X189690000Y-113555341D01*
X189886132Y-113536024D01*
X190074727Y-113478814D01*
X190248538Y-113385910D01*
X190400883Y-113260883D01*
X190525910Y-113108538D01*
X190616145Y-112939719D01*
X190665104Y-112889880D01*
X190733241Y-112874419D01*
X190798921Y-112898250D01*
X190841290Y-112953808D01*
X190849500Y-112998177D01*
X190849501Y-114065649D01*
X190849501Y-114091875D01*
X190848440Y-114108062D01*
X190839722Y-114174275D01*
X190831344Y-114205540D01*
X190808924Y-114259667D01*
X190792740Y-114287700D01*
X190757074Y-114334182D01*
X190734182Y-114357074D01*
X190687700Y-114392740D01*
X190659667Y-114408924D01*
X190605540Y-114431344D01*
X190574275Y-114439722D01*
X190529313Y-114445641D01*
X190508065Y-114448439D01*
X190491883Y-114449500D01*
X188426706Y-114449500D01*
X188283794Y-114482119D01*
X188151723Y-114545721D01*
X188037116Y-114637117D01*
X187945719Y-114751725D01*
X187882119Y-114883793D01*
X187849500Y-115026706D01*
X187849500Y-115048638D01*
X187849499Y-115048641D01*
X187849499Y-115100001D01*
X187849499Y-115173295D01*
X187882118Y-115316207D01*
X187945720Y-115448278D01*
X188009475Y-115528224D01*
X188037113Y-115562882D01*
X188037116Y-115562885D01*
X188151723Y-115654280D01*
X188283794Y-115717882D01*
X188426706Y-115750501D01*
X188548785Y-115750501D01*
X188548793Y-115750500D01*
X198726331Y-115750500D01*
X198730081Y-115750500D01*
X198988347Y-115719141D01*
X199240950Y-115656880D01*
X199484206Y-115564625D01*
X199714569Y-115443722D01*
X199928678Y-115295932D01*
X200123413Y-115123413D01*
X200295932Y-114928678D01*
X200443722Y-114714569D01*
X200564625Y-114484206D01*
X200656880Y-114240950D01*
X200719141Y-113988347D01*
X200750500Y-113730081D01*
X200750500Y-113600000D01*
X200750500Y-113565649D01*
X200750500Y-113565648D01*
X200750500Y-85980186D01*
X200750500Y-85926706D01*
X200748969Y-85920000D01*
X200727625Y-85826485D01*
X200717881Y-85783794D01*
X200680179Y-85705505D01*
X200654280Y-85651724D01*
X200622898Y-85612373D01*
X200562883Y-85537117D01*
X200484050Y-85474249D01*
X200448275Y-85445719D01*
X200316207Y-85382119D01*
X200173294Y-85349500D01*
X200134351Y-85349500D01*
X200100000Y-85349500D01*
X200026706Y-85349500D01*
X199883792Y-85382119D01*
X199751724Y-85445719D01*
X199637117Y-85537117D01*
X199545719Y-85651724D01*
X199482119Y-85783792D01*
X199449500Y-85926705D01*
X199449500Y-85964916D01*
X199449499Y-85964926D01*
X199449500Y-87465648D01*
X199449500Y-87491874D01*
X199448439Y-87508061D01*
X199439721Y-87574274D01*
X199431343Y-87605539D01*
X199408923Y-87659666D01*
X199392739Y-87687699D01*
X199357073Y-87734181D01*
X199334181Y-87757073D01*
X199287699Y-87792739D01*
X199259666Y-87808923D01*
X199205539Y-87831343D01*
X199174273Y-87839721D01*
X199132903Y-87845167D01*
X199108057Y-87848438D01*
X199091876Y-87849499D01*
X198389269Y-87849499D01*
X198322230Y-87829814D01*
X198276475Y-87777010D01*
X198266531Y-87707852D01*
X198295556Y-87644296D01*
X198314958Y-87626232D01*
X198407188Y-87557188D01*
X198493352Y-87442088D01*
X198543599Y-87307370D01*
X198549645Y-87251131D01*
X198550000Y-87244517D01*
X198550000Y-86949999D01*
X197795581Y-86949999D01*
X197847060Y-86894078D01*
X197893982Y-86787107D01*
X197903628Y-86670697D01*
X197874953Y-86557461D01*
X197811064Y-86459672D01*
X197798636Y-86449999D01*
X198550000Y-86449999D01*
X198550000Y-86155480D01*
X198549645Y-86148866D01*
X198543599Y-86092625D01*
X198493352Y-85957909D01*
X198487510Y-85950105D01*
X198463091Y-85884641D01*
X198475473Y-85826475D01*
X198475268Y-85826413D01*
X198476000Y-85823997D01*
X198477419Y-85817335D01*
X198478814Y-85814726D01*
X198536024Y-85626131D01*
X198555341Y-85429999D01*
X198536024Y-85233867D01*
X198478814Y-85045272D01*
X198472318Y-85033119D01*
X198380153Y-84860689D01*
X198381828Y-84859793D01*
X198360406Y-84809361D01*
X198372193Y-84740493D01*
X198383970Y-84722167D01*
X198442562Y-84612548D01*
X198478814Y-84544726D01*
X198536024Y-84356131D01*
X198555341Y-84159999D01*
X198536024Y-83963867D01*
X198478814Y-83775272D01*
X198455946Y-83732489D01*
X198380153Y-83590690D01*
X198381827Y-83589795D01*
X198360405Y-83539353D01*
X198372196Y-83470486D01*
X198383972Y-83452163D01*
X198435908Y-83354997D01*
X198478814Y-83274726D01*
X198536024Y-83086131D01*
X198555341Y-82889999D01*
X198536024Y-82693867D01*
X198478814Y-82505272D01*
X198452214Y-82455507D01*
X198380153Y-82320690D01*
X198381827Y-82319795D01*
X198360405Y-82269353D01*
X198372196Y-82200486D01*
X198383972Y-82182163D01*
X198411251Y-82131127D01*
X198478814Y-82004726D01*
X198536024Y-81816131D01*
X198555341Y-81619999D01*
X198536024Y-81423867D01*
X198478814Y-81235272D01*
X198444036Y-81170207D01*
X198380153Y-81050689D01*
X198381828Y-81049793D01*
X198360406Y-80999361D01*
X198372193Y-80930493D01*
X198383970Y-80912167D01*
X198427286Y-80831128D01*
X198478814Y-80734726D01*
X198536024Y-80546131D01*
X198555341Y-80349999D01*
X198536024Y-80153867D01*
X198478814Y-79965272D01*
X198386067Y-79791754D01*
X198380153Y-79780689D01*
X198381828Y-79779793D01*
X198360406Y-79729361D01*
X198372193Y-79660493D01*
X198383970Y-79642167D01*
X198430947Y-79554279D01*
X198478814Y-79464726D01*
X198536024Y-79276131D01*
X198555341Y-79079999D01*
X198536024Y-78883867D01*
X198478814Y-78695272D01*
X198454616Y-78650000D01*
X198380153Y-78510689D01*
X198381827Y-78509794D01*
X198360405Y-78459352D01*
X198372196Y-78390485D01*
X198383970Y-78372166D01*
X198385910Y-78368537D01*
X198478814Y-78194726D01*
X198536024Y-78006131D01*
X198555341Y-77809999D01*
X198536024Y-77613867D01*
X198478814Y-77425272D01*
X198385910Y-77251461D01*
X198260883Y-77099116D01*
X198108538Y-76974089D01*
X197939726Y-76883857D01*
X197889882Y-76834895D01*
X197874421Y-76766757D01*
X197898253Y-76701078D01*
X197953810Y-76658709D01*
X197998179Y-76650499D01*
X199091875Y-76650499D01*
X199108060Y-76651560D01*
X199174274Y-76660277D01*
X199205540Y-76668655D01*
X199259667Y-76691075D01*
X199287699Y-76707258D01*
X199334185Y-76742928D01*
X199357071Y-76765814D01*
X199357795Y-76766757D01*
X199392740Y-76812299D01*
X199408924Y-76840332D01*
X199431344Y-76894459D01*
X199439722Y-76925724D01*
X199448439Y-76991930D01*
X199449500Y-77008117D01*
X199449500Y-79000000D01*
X199449500Y-79073294D01*
X199482119Y-79216206D01*
X199545721Y-79348277D01*
X199637117Y-79462884D01*
X199751724Y-79554280D01*
X199883795Y-79617881D01*
X200026707Y-79650500D01*
X200048638Y-79650500D01*
X200048641Y-79650501D01*
X200100001Y-79650501D01*
X200173295Y-79650501D01*
X200316207Y-79617882D01*
X200448278Y-79554280D01*
X200562885Y-79462884D01*
X200654280Y-79348277D01*
X200717882Y-79216206D01*
X200750501Y-79073294D01*
X200750501Y-79000000D01*
X200750501Y-78965649D01*
X200750501Y-78940987D01*
X200750500Y-78940981D01*
X200750500Y-68426705D01*
X200727625Y-68326485D01*
X200717881Y-68283794D01*
X200702987Y-68252866D01*
X200654280Y-68151724D01*
X200633867Y-68126128D01*
X200562883Y-68037117D01*
X200486877Y-67976504D01*
X200448275Y-67945719D01*
X200316207Y-67882119D01*
X200173294Y-67849500D01*
X200134351Y-67849500D01*
X200100000Y-67849500D01*
X200026706Y-67849500D01*
X199883792Y-67882119D01*
X199751724Y-67945719D01*
X199637117Y-68037117D01*
X199545719Y-68151724D01*
X199482119Y-68283792D01*
X199449500Y-68426705D01*
X199449500Y-68464916D01*
X199449499Y-68464926D01*
X199449500Y-69965648D01*
X199449500Y-69991874D01*
X199448439Y-70008061D01*
X199439721Y-70074274D01*
X199431343Y-70105539D01*
X199408923Y-70159666D01*
X199392739Y-70187699D01*
X199357073Y-70234181D01*
X199334181Y-70257073D01*
X199287699Y-70292739D01*
X199259666Y-70308923D01*
X199205539Y-70331343D01*
X199174273Y-70339721D01*
X199132903Y-70345167D01*
X199108057Y-70348438D01*
X199091876Y-70349499D01*
X198389269Y-70349499D01*
X198322230Y-70329814D01*
X198276475Y-70277010D01*
X198266531Y-70207852D01*
X198295556Y-70144296D01*
X198314958Y-70126232D01*
X198407188Y-70057188D01*
X198493352Y-69942088D01*
X198543599Y-69807370D01*
X198549645Y-69751131D01*
X198550000Y-69744517D01*
X198550000Y-69449999D01*
X197795581Y-69449999D01*
X197847060Y-69394078D01*
X197893982Y-69287107D01*
X197903628Y-69170697D01*
X197874953Y-69057461D01*
X197811064Y-68959672D01*
X197798636Y-68949999D01*
X198550000Y-68949999D01*
X198550000Y-68655480D01*
X198549645Y-68648866D01*
X198543599Y-68592625D01*
X198493352Y-68457909D01*
X198487510Y-68450105D01*
X198463091Y-68384641D01*
X198475473Y-68326475D01*
X198475268Y-68326413D01*
X198476000Y-68323997D01*
X198477419Y-68317335D01*
X198478814Y-68314726D01*
X198536024Y-68126131D01*
X198555341Y-67929999D01*
X198536024Y-67733867D01*
X198478814Y-67545272D01*
X198380153Y-67360689D01*
X198381828Y-67359793D01*
X198360406Y-67309361D01*
X198372193Y-67240493D01*
X198383970Y-67222167D01*
X198442562Y-67112548D01*
X198478814Y-67044726D01*
X198536024Y-66856131D01*
X198555341Y-66659999D01*
X198536024Y-66463867D01*
X198478814Y-66275272D01*
X198431813Y-66187339D01*
X198380153Y-66090689D01*
X198381828Y-66089793D01*
X198360406Y-66039361D01*
X198372193Y-65970493D01*
X198383970Y-65952167D01*
X198435908Y-65854997D01*
X198478814Y-65774726D01*
X198536024Y-65586131D01*
X198555341Y-65389999D01*
X198536024Y-65193867D01*
X198478814Y-65005272D01*
X198452214Y-64955507D01*
X198380153Y-64820689D01*
X198381828Y-64819793D01*
X198360406Y-64769361D01*
X198372193Y-64700493D01*
X198383970Y-64682167D01*
X198445504Y-64567044D01*
X198478814Y-64504726D01*
X198536024Y-64316131D01*
X198555341Y-64119999D01*
X198536024Y-63923867D01*
X198478814Y-63735272D01*
X198470053Y-63718882D01*
X198380153Y-63550689D01*
X198381827Y-63549794D01*
X198360405Y-63499352D01*
X198372196Y-63430485D01*
X198383970Y-63412166D01*
X198417744Y-63348980D01*
X198478814Y-63234726D01*
X198536024Y-63046131D01*
X198555341Y-62849999D01*
X198536024Y-62653867D01*
X198478814Y-62465272D01*
X198411333Y-62339024D01*
X198380153Y-62280689D01*
X198381828Y-62279793D01*
X198360406Y-62229361D01*
X198372193Y-62160493D01*
X198383970Y-62142167D01*
X198472383Y-61976757D01*
X198478814Y-61964726D01*
X198536024Y-61776131D01*
X198555341Y-61579999D01*
X198536024Y-61383867D01*
X198478814Y-61195272D01*
X198423909Y-61092552D01*
X198380153Y-61010689D01*
X198381828Y-61009793D01*
X198360406Y-60959361D01*
X198372193Y-60890493D01*
X198383970Y-60872167D01*
X198452464Y-60744023D01*
X198478814Y-60694726D01*
X198536024Y-60506131D01*
X198555341Y-60309999D01*
X198536024Y-60113867D01*
X198478814Y-59925272D01*
X198385910Y-59751461D01*
X198260883Y-59599116D01*
X198108538Y-59474089D01*
X197939726Y-59383857D01*
X197889882Y-59334895D01*
X197874421Y-59266757D01*
X197898253Y-59201078D01*
X197953810Y-59158709D01*
X197998179Y-59150499D01*
X199091875Y-59150499D01*
X199108060Y-59151560D01*
X199174274Y-59160277D01*
X199205540Y-59168655D01*
X199259667Y-59191075D01*
X199287699Y-59207258D01*
X199334185Y-59242928D01*
X199357071Y-59265814D01*
X199357795Y-59266757D01*
X199392740Y-59312299D01*
X199408924Y-59340332D01*
X199431344Y-59394459D01*
X199439722Y-59425724D01*
X199448439Y-59491930D01*
X199449500Y-59508117D01*
X199449500Y-61500000D01*
X199449500Y-61573294D01*
X199482119Y-61716206D01*
X199545721Y-61848277D01*
X199637117Y-61962884D01*
X199751724Y-62054280D01*
X199883795Y-62117881D01*
X200026707Y-62150500D01*
X200048638Y-62150500D01*
X200048641Y-62150501D01*
X200100001Y-62150501D01*
X200173295Y-62150501D01*
X200316207Y-62117882D01*
X200448278Y-62054280D01*
X200562885Y-61962884D01*
X200654280Y-61848277D01*
X200717882Y-61716206D01*
X200750501Y-61573294D01*
X200750501Y-61500000D01*
X200750501Y-61465649D01*
X200750501Y-61465648D01*
X200750501Y-51380186D01*
X200750501Y-51364926D01*
X200750500Y-51364916D01*
X200750500Y-51273668D01*
X200750500Y-51273667D01*
X200750500Y-51269919D01*
X200719141Y-51011653D01*
X200656880Y-50759050D01*
X200564625Y-50515794D01*
X200443722Y-50285432D01*
X200295933Y-50071322D01*
X200123413Y-49876588D01*
X200111065Y-49865649D01*
X200067106Y-49826704D01*
X199928679Y-49704068D01*
X199925592Y-49701937D01*
X199925588Y-49701934D01*
X199729120Y-49566323D01*
X199714569Y-49556279D01*
X199484207Y-49435375D01*
X199480709Y-49434048D01*
X199480706Y-49434047D01*
X199247809Y-49345721D01*
X199240951Y-49343120D01*
X199237317Y-49342224D01*
X199237313Y-49342223D01*
X198991981Y-49281754D01*
X198991973Y-49281752D01*
X198988348Y-49280859D01*
X198984641Y-49280409D01*
X198984631Y-49280407D01*
X198733803Y-49249951D01*
X198733789Y-49249950D01*
X198730082Y-49249500D01*
X198619815Y-49249500D01*
X171034351Y-49249500D01*
X171000000Y-49249500D01*
X170926706Y-49249500D01*
X170783792Y-49282119D01*
X170651724Y-49345719D01*
X170537117Y-49437117D01*
X170445719Y-49551724D01*
X170382119Y-49683792D01*
X170349500Y-49826705D01*
X170349500Y-49973294D01*
X170382119Y-50116207D01*
X170445719Y-50248275D01*
X170472709Y-50282119D01*
X170537117Y-50362883D01*
X170630201Y-50437116D01*
X170651724Y-50454280D01*
X170772577Y-50512479D01*
X170783794Y-50517881D01*
X170926706Y-50550500D01*
X170980182Y-50550500D01*
X170980186Y-50550501D01*
X172491874Y-50550500D01*
X172508059Y-50551561D01*
X172574273Y-50560278D01*
X172605538Y-50568655D01*
X172659666Y-50591076D01*
X172687698Y-50607259D01*
X172734184Y-50642929D01*
X172757070Y-50665815D01*
X172770865Y-50683793D01*
X172792739Y-50712300D01*
X172808923Y-50740333D01*
X172831343Y-50794460D01*
X172839721Y-50825726D01*
X172848438Y-50891937D01*
X172849499Y-50908123D01*
X172849499Y-51610730D01*
X172829814Y-51677769D01*
X172777010Y-51723524D01*
X172707852Y-51733468D01*
X172644296Y-51704443D01*
X172626232Y-51685041D01*
X172557188Y-51592811D01*
X172442089Y-51506647D01*
X172307371Y-51456400D01*
X172251132Y-51450354D01*
X172244518Y-51450000D01*
X171950000Y-51450000D01*
X171950000Y-52201061D01*
X171868885Y-52137928D01*
X171758405Y-52100000D01*
X171670995Y-52100000D01*
X171584784Y-52114386D01*
X171482053Y-52169981D01*
X171450000Y-52204799D01*
X171450000Y-51450000D01*
X171155482Y-51450000D01*
X171148867Y-51450354D01*
X171092628Y-51456400D01*
X170957908Y-51506648D01*
X170950098Y-51512495D01*
X170884632Y-51536908D01*
X170826474Y-51524527D01*
X170826413Y-51524731D01*
X170824017Y-51524004D01*
X170817341Y-51522583D01*
X170814727Y-51521186D01*
X170626133Y-51463976D01*
X170484229Y-51450000D01*
X170430000Y-51444659D01*
X170429999Y-51444659D01*
X170233866Y-51463976D01*
X170045273Y-51521185D01*
X169860691Y-51619847D01*
X169859796Y-51618172D01*
X169809354Y-51639595D01*
X169740487Y-51627804D01*
X169722159Y-51616025D01*
X169544726Y-51521185D01*
X169356133Y-51463976D01*
X169160000Y-51444659D01*
X168963866Y-51463976D01*
X168775273Y-51521185D01*
X168590691Y-51619847D01*
X168589796Y-51618172D01*
X168539354Y-51639595D01*
X168470487Y-51627804D01*
X168452159Y-51616025D01*
X168274726Y-51521185D01*
X168086133Y-51463976D01*
X167890000Y-51444659D01*
X167693866Y-51463976D01*
X167505273Y-51521185D01*
X167320691Y-51619847D01*
X167319796Y-51618172D01*
X167269354Y-51639595D01*
X167200487Y-51627804D01*
X167182159Y-51616025D01*
X167004726Y-51521185D01*
X166816133Y-51463976D01*
X166620000Y-51444659D01*
X166423866Y-51463976D01*
X166235273Y-51521185D01*
X166050691Y-51619847D01*
X166049796Y-51618172D01*
X165999354Y-51639595D01*
X165930487Y-51627804D01*
X165912159Y-51616025D01*
X165734726Y-51521185D01*
X165546133Y-51463976D01*
X165404229Y-51450000D01*
X165350000Y-51444659D01*
X165349999Y-51444659D01*
X165153866Y-51463976D01*
X164965273Y-51521185D01*
X164780691Y-51619847D01*
X164779796Y-51618172D01*
X164729354Y-51639595D01*
X164660487Y-51627804D01*
X164642159Y-51616025D01*
X164464726Y-51521185D01*
X164276133Y-51463976D01*
X164080000Y-51444659D01*
X163883866Y-51463976D01*
X163695273Y-51521185D01*
X163510691Y-51619847D01*
X163509796Y-51618173D01*
X163459345Y-51639596D01*
X163390478Y-51627800D01*
X163372161Y-51616026D01*
X163194726Y-51521185D01*
X163006133Y-51463976D01*
X162810000Y-51444659D01*
X162613866Y-51463976D01*
X162425273Y-51521185D01*
X162251463Y-51614089D01*
X162099117Y-51739117D01*
X161974089Y-51891463D01*
X161883857Y-52060276D01*
X161834895Y-52110120D01*
X161766757Y-52125581D01*
X161701078Y-52101749D01*
X161658709Y-52046192D01*
X161650499Y-52001823D01*
X161650499Y-50908125D01*
X161651560Y-50891940D01*
X161660277Y-50825726D01*
X161668655Y-50794460D01*
X161691076Y-50740329D01*
X161707256Y-50712303D01*
X161742931Y-50665810D01*
X161765810Y-50642931D01*
X161812303Y-50607256D01*
X161840329Y-50591076D01*
X161894462Y-50568654D01*
X161925723Y-50560277D01*
X161991932Y-50551560D01*
X162008117Y-50550500D01*
X164073294Y-50550500D01*
X164216206Y-50517881D01*
X164348277Y-50454279D01*
X164462884Y-50362883D01*
X164554280Y-50248276D01*
X164617881Y-50116205D01*
X164650500Y-49973293D01*
X164650500Y-49951361D01*
X164650501Y-49951358D01*
X164650501Y-49826704D01*
X164644014Y-49798286D01*
X164617882Y-49683793D01*
X164554280Y-49551722D01*
X164462884Y-49437115D01*
X164404784Y-49390782D01*
X164348276Y-49345719D01*
X164279806Y-49312746D01*
X164216206Y-49282118D01*
X164073294Y-49249499D01*
X164000000Y-49249499D01*
X163965649Y-49249499D01*
X163965648Y-49249499D01*
X153480186Y-49249500D01*
X153426706Y-49249500D01*
X153283792Y-49282119D01*
X153151724Y-49345719D01*
X153037117Y-49437117D01*
X152945719Y-49551724D01*
X152882119Y-49683792D01*
X152849500Y-49826705D01*
X152849500Y-49973294D01*
X152882119Y-50116207D01*
X152945719Y-50248275D01*
X152972709Y-50282119D01*
X153037117Y-50362883D01*
X153130201Y-50437116D01*
X153151724Y-50454280D01*
X153272577Y-50512479D01*
X153283794Y-50517881D01*
X153426706Y-50550500D01*
X153480182Y-50550500D01*
X153480186Y-50550501D01*
X154991874Y-50550500D01*
X155008059Y-50551561D01*
X155074273Y-50560278D01*
X155105538Y-50568655D01*
X155159666Y-50591076D01*
X155187698Y-50607259D01*
X155234184Y-50642929D01*
X155257070Y-50665815D01*
X155270865Y-50683793D01*
X155292739Y-50712300D01*
X155308923Y-50740333D01*
X155331343Y-50794460D01*
X155339721Y-50825726D01*
X155348438Y-50891937D01*
X155349499Y-50908123D01*
X155349499Y-51610730D01*
X155329814Y-51677769D01*
X155277010Y-51723524D01*
X155207852Y-51733468D01*
X155144296Y-51704443D01*
X155126232Y-51685041D01*
X155057188Y-51592811D01*
X154942089Y-51506647D01*
X154807371Y-51456400D01*
X154751132Y-51450354D01*
X154744518Y-51450000D01*
X154450000Y-51450000D01*
X154450000Y-52201061D01*
X154368885Y-52137928D01*
X154258405Y-52100000D01*
X154170995Y-52100000D01*
X154084784Y-52114386D01*
X153982053Y-52169981D01*
X153950000Y-52204799D01*
X153950000Y-51450000D01*
X153655482Y-51450000D01*
X153648867Y-51450354D01*
X153592628Y-51456400D01*
X153457908Y-51506648D01*
X153450098Y-51512495D01*
X153384632Y-51536908D01*
X153326474Y-51524527D01*
X153326413Y-51524731D01*
X153324017Y-51524004D01*
X153317341Y-51522583D01*
X153314727Y-51521186D01*
X153126133Y-51463976D01*
X152930000Y-51444659D01*
X152733866Y-51463976D01*
X152545273Y-51521185D01*
X152360691Y-51619847D01*
X152359796Y-51618172D01*
X152309354Y-51639595D01*
X152240487Y-51627804D01*
X152222159Y-51616025D01*
X152044726Y-51521185D01*
X151856133Y-51463976D01*
X151660000Y-51444659D01*
X151463866Y-51463976D01*
X151275273Y-51521185D01*
X151090691Y-51619847D01*
X151089796Y-51618172D01*
X151039354Y-51639595D01*
X150970487Y-51627804D01*
X150952159Y-51616025D01*
X150774726Y-51521185D01*
X150586133Y-51463976D01*
X150444229Y-51450000D01*
X150390000Y-51444659D01*
X150389999Y-51444659D01*
X150193866Y-51463976D01*
X150005273Y-51521185D01*
X149820691Y-51619847D01*
X149819796Y-51618172D01*
X149769354Y-51639595D01*
X149700487Y-51627804D01*
X149682159Y-51616025D01*
X149504726Y-51521185D01*
X149316133Y-51463976D01*
X149120000Y-51444659D01*
X148923866Y-51463976D01*
X148735273Y-51521185D01*
X148550691Y-51619847D01*
X148549796Y-51618172D01*
X148499354Y-51639595D01*
X148430487Y-51627804D01*
X148412159Y-51616025D01*
X148234726Y-51521185D01*
X148046133Y-51463976D01*
X147850000Y-51444659D01*
X147653866Y-51463976D01*
X147465273Y-51521185D01*
X147280691Y-51619847D01*
X147279796Y-51618172D01*
X147229354Y-51639595D01*
X147160487Y-51627804D01*
X147142159Y-51616025D01*
X146964726Y-51521185D01*
X146776133Y-51463976D01*
X146580000Y-51444659D01*
X146383866Y-51463976D01*
X146195273Y-51521185D01*
X146010691Y-51619847D01*
X146009796Y-51618172D01*
X145959354Y-51639595D01*
X145890487Y-51627804D01*
X145872159Y-51616025D01*
X145694726Y-51521185D01*
X145506133Y-51463976D01*
X145364229Y-51450000D01*
X145310000Y-51444659D01*
X145309999Y-51444659D01*
X145113866Y-51463976D01*
X144925273Y-51521185D01*
X144751463Y-51614089D01*
X144599117Y-51739117D01*
X144474089Y-51891463D01*
X144383857Y-52060276D01*
X144334895Y-52110120D01*
X144266757Y-52125581D01*
X144201078Y-52101749D01*
X144158709Y-52046192D01*
X144150499Y-52001823D01*
X144150499Y-50908125D01*
X144151560Y-50891940D01*
X144160277Y-50825726D01*
X144168655Y-50794460D01*
X144191076Y-50740329D01*
X144207256Y-50712303D01*
X144242931Y-50665810D01*
X144265810Y-50642931D01*
X144312303Y-50607256D01*
X144340329Y-50591076D01*
X144394462Y-50568654D01*
X144425723Y-50560277D01*
X144491932Y-50551560D01*
X144508117Y-50550500D01*
X146573294Y-50550500D01*
X146716206Y-50517881D01*
X146848277Y-50454279D01*
X146962884Y-50362883D01*
X147054280Y-50248276D01*
X147117881Y-50116205D01*
X147150500Y-49973293D01*
X147150500Y-49951361D01*
X147150501Y-49951357D01*
X147150501Y-49826704D01*
X147144014Y-49798286D01*
X147117882Y-49683793D01*
X147054280Y-49551722D01*
X146962884Y-49437115D01*
X146904784Y-49390782D01*
X146848276Y-49345719D01*
X146779807Y-49312746D01*
X146716206Y-49282118D01*
X146573294Y-49249499D01*
X146500000Y-49249499D01*
X146465649Y-49249499D01*
X146465648Y-49249499D01*
X136380186Y-49249500D01*
X136269919Y-49249500D01*
X136266212Y-49249950D01*
X136266197Y-49249951D01*
X136015369Y-49280407D01*
X136015356Y-49280409D01*
X136011653Y-49280859D01*
X136008030Y-49281751D01*
X136008019Y-49281754D01*
X135762687Y-49342223D01*
X135762678Y-49342225D01*
X135759050Y-49343120D01*
X135755549Y-49344447D01*
X135755545Y-49344449D01*
X135519295Y-49434047D01*
X135519291Y-49434048D01*
X135515794Y-49435375D01*
X135512490Y-49437108D01*
X135512479Y-49437114D01*
X135288750Y-49554535D01*
X135288736Y-49554543D01*
X135285431Y-49556278D01*
X135282358Y-49558399D01*
X135282345Y-49558407D01*
X135074402Y-49701941D01*
X135074391Y-49701949D01*
X135071322Y-49704068D01*
X135068537Y-49706535D01*
X135068522Y-49706547D01*
X134879383Y-49874109D01*
X134879374Y-49874117D01*
X134876587Y-49876587D01*
X134874117Y-49879374D01*
X134874109Y-49879383D01*
X134706547Y-50068522D01*
X134706535Y-50068537D01*
X134704068Y-50071322D01*
X134701949Y-50074391D01*
X134701941Y-50074402D01*
X134558407Y-50282345D01*
X134558402Y-50282354D01*
X134556278Y-50285431D01*
X134554543Y-50288736D01*
X134554535Y-50288750D01*
X134437114Y-50512479D01*
X134437110Y-50512488D01*
X134435375Y-50515794D01*
X134434050Y-50519288D01*
X134434047Y-50519295D01*
X134355939Y-50725250D01*
X134343120Y-50759050D01*
X134342225Y-50762678D01*
X134342223Y-50762687D01*
X134281754Y-51008019D01*
X134281751Y-51008030D01*
X134280859Y-51011653D01*
X134280409Y-51015356D01*
X134280407Y-51015369D01*
X134249951Y-51266197D01*
X134249950Y-51266212D01*
X134249500Y-51269919D01*
X134249500Y-51273667D01*
X134249500Y-51273668D01*
X134249500Y-79073294D01*
X134282119Y-79216207D01*
X134345719Y-79348275D01*
X134345721Y-79348277D01*
X134437117Y-79462883D01*
X134525548Y-79533405D01*
X134551724Y-79554280D01*
X134665213Y-79608933D01*
X134683794Y-79617881D01*
X134826706Y-79650500D01*
X134973294Y-79650500D01*
X135116206Y-79617881D01*
X135248277Y-79554279D01*
X135362883Y-79462883D01*
X135454279Y-79348277D01*
X135517881Y-79216206D01*
X135550500Y-79073294D01*
X135550500Y-79019817D01*
X135550501Y-79019814D01*
X135550500Y-77508125D01*
X135551561Y-77491941D01*
X135560278Y-77425727D01*
X135568656Y-77394461D01*
X135591077Y-77340330D01*
X135607257Y-77312304D01*
X135642932Y-77265811D01*
X135665811Y-77242932D01*
X135712304Y-77207257D01*
X135740330Y-77191077D01*
X135794463Y-77168655D01*
X135825724Y-77160278D01*
X135878473Y-77153334D01*
X135891941Y-77151561D01*
X135908126Y-77150500D01*
X136610731Y-77150500D01*
X136677770Y-77170185D01*
X136723525Y-77222989D01*
X136733469Y-77292147D01*
X136704444Y-77355703D01*
X136685042Y-77373767D01*
X136592811Y-77442810D01*
X136506647Y-77557910D01*
X136456400Y-77692628D01*
X136450354Y-77748867D01*
X136450000Y-77755481D01*
X136450000Y-78050000D01*
X137204419Y-78050000D01*
X137152940Y-78105921D01*
X137106018Y-78212892D01*
X137096372Y-78329302D01*
X137125047Y-78442538D01*
X137188936Y-78540327D01*
X137201364Y-78550000D01*
X136450000Y-78550000D01*
X136450000Y-78844518D01*
X136450354Y-78851132D01*
X136456400Y-78907373D01*
X136506647Y-79042091D01*
X136512491Y-79049897D01*
X136536908Y-79115361D01*
X136524527Y-79173525D01*
X136524731Y-79173587D01*
X136524006Y-79175975D01*
X136522585Y-79182654D01*
X136521187Y-79185269D01*
X136463976Y-79373866D01*
X136444659Y-79569999D01*
X136463976Y-79766133D01*
X136521185Y-79954726D01*
X136619847Y-80139310D01*
X136618172Y-80140205D01*
X136639595Y-80190648D01*
X136627802Y-80259515D01*
X136616026Y-80277838D01*
X136521185Y-80455273D01*
X136463976Y-80643866D01*
X136444659Y-80840000D01*
X136463976Y-81036133D01*
X136521185Y-81224726D01*
X136619847Y-81409309D01*
X136618171Y-81410204D01*
X136639594Y-81460637D01*
X136627807Y-81529505D01*
X136616026Y-81547839D01*
X136521185Y-81725273D01*
X136463976Y-81913866D01*
X136444659Y-82110000D01*
X136463976Y-82306133D01*
X136521185Y-82494726D01*
X136619847Y-82679309D01*
X136618172Y-82680203D01*
X136639595Y-82730646D01*
X136627804Y-82799513D01*
X136616025Y-82817840D01*
X136521185Y-82995273D01*
X136463976Y-83183866D01*
X136445084Y-83375680D01*
X136444659Y-83380000D01*
X136448170Y-83415644D01*
X136463976Y-83576133D01*
X136521185Y-83764726D01*
X136619847Y-83949309D01*
X136618172Y-83950203D01*
X136639595Y-84000646D01*
X136627804Y-84069513D01*
X136616025Y-84087840D01*
X136521185Y-84265273D01*
X136463976Y-84453866D01*
X136448982Y-84606108D01*
X136444659Y-84650000D01*
X136446981Y-84673580D01*
X136463976Y-84846133D01*
X136521185Y-85034726D01*
X136619847Y-85219309D01*
X136618172Y-85220203D01*
X136639595Y-85270646D01*
X136627804Y-85339513D01*
X136616025Y-85357840D01*
X136521185Y-85535273D01*
X136463976Y-85723866D01*
X136444659Y-85920000D01*
X136463976Y-86116133D01*
X136521185Y-86304726D01*
X136619847Y-86489309D01*
X136618172Y-86490203D01*
X136639595Y-86540646D01*
X136627804Y-86609513D01*
X136616025Y-86627840D01*
X136521185Y-86805273D01*
X136463976Y-86993866D01*
X136444659Y-87190000D01*
X136463976Y-87386133D01*
X136521185Y-87574726D01*
X136537655Y-87605539D01*
X136614090Y-87748538D01*
X136739117Y-87900883D01*
X136891462Y-88025910D01*
X136980113Y-88073295D01*
X137060274Y-88116142D01*
X137110118Y-88165104D01*
X137125579Y-88233242D01*
X137101747Y-88298921D01*
X137046190Y-88341290D01*
X137001821Y-88349500D01*
X135908122Y-88349500D01*
X135891940Y-88348439D01*
X135862638Y-88344581D01*
X135825725Y-88339722D01*
X135794459Y-88331344D01*
X135740332Y-88308924D01*
X135712299Y-88292740D01*
X135684408Y-88271339D01*
X135665814Y-88257071D01*
X135642928Y-88234185D01*
X135607258Y-88187699D01*
X135591075Y-88159667D01*
X135573766Y-88117880D01*
X135568654Y-88105539D01*
X135560277Y-88074273D01*
X135553107Y-88019814D01*
X135551561Y-88008067D01*
X135550500Y-87991882D01*
X135550500Y-85926705D01*
X135536369Y-85864796D01*
X135517881Y-85783794D01*
X135454279Y-85651723D01*
X135362883Y-85537116D01*
X135248276Y-85445720D01*
X135248274Y-85445719D01*
X135116206Y-85382119D01*
X134973293Y-85349500D01*
X134951362Y-85349500D01*
X134951359Y-85349499D01*
X134899999Y-85349499D01*
X134826705Y-85349499D01*
X134683793Y-85382118D01*
X134551722Y-85445720D01*
X134437115Y-85537115D01*
X134345719Y-85651723D01*
X134282118Y-85783794D01*
X134249499Y-85926705D01*
X134249499Y-96517006D01*
X134249500Y-96517011D01*
X134249500Y-96573294D01*
X134282119Y-96716207D01*
X134345719Y-96848275D01*
X134345721Y-96848277D01*
X134437117Y-96962883D01*
X134525548Y-97033405D01*
X134551724Y-97054280D01*
X134665213Y-97108933D01*
X134683794Y-97117881D01*
X134826706Y-97150500D01*
X134973294Y-97150500D01*
X135116206Y-97117881D01*
X135248277Y-97054279D01*
X135362883Y-96962883D01*
X135454279Y-96848277D01*
X135517881Y-96716206D01*
X135550500Y-96573294D01*
X135550500Y-96519817D01*
X135550501Y-96519814D01*
X135550500Y-95008125D01*
X135551561Y-94991941D01*
X135560278Y-94925727D01*
X135568656Y-94894461D01*
X135591077Y-94840330D01*
X135607257Y-94812304D01*
X135642932Y-94765811D01*
X135665811Y-94742932D01*
X135712304Y-94707257D01*
X135740330Y-94691077D01*
X135794463Y-94668655D01*
X135825724Y-94660278D01*
X135878473Y-94653334D01*
X135891941Y-94651561D01*
X135908126Y-94650500D01*
X136610731Y-94650500D01*
X136677770Y-94670185D01*
X136723525Y-94722989D01*
X136733469Y-94792147D01*
X136704444Y-94855703D01*
X136685042Y-94873767D01*
X136592811Y-94942810D01*
X136506647Y-95057910D01*
X136456400Y-95192628D01*
X136450354Y-95248867D01*
X136450000Y-95255481D01*
X136450000Y-95550000D01*
X137204419Y-95550000D01*
X137152940Y-95605921D01*
X137106018Y-95712892D01*
X137096372Y-95829302D01*
X137125047Y-95942538D01*
X137188936Y-96040327D01*
X137201364Y-96050000D01*
X136450000Y-96050000D01*
X136450000Y-96344518D01*
X136450354Y-96351132D01*
X136456400Y-96407373D01*
X136506647Y-96542091D01*
X136512491Y-96549897D01*
X136536908Y-96615361D01*
X136524527Y-96673525D01*
X136524731Y-96673587D01*
X136524006Y-96675975D01*
X136522585Y-96682654D01*
X136521187Y-96685269D01*
X136463976Y-96873866D01*
X136444659Y-97070000D01*
X136463976Y-97266133D01*
X136521185Y-97454726D01*
X136619847Y-97639309D01*
X136618172Y-97640203D01*
X136639595Y-97690646D01*
X136627804Y-97759513D01*
X136616025Y-97777840D01*
X136521185Y-97955273D01*
X136463976Y-98143866D01*
X136445736Y-98329060D01*
X136444659Y-98340000D01*
X136447948Y-98373396D01*
X136463976Y-98536133D01*
X136521185Y-98724726D01*
X136619847Y-98909309D01*
X136618171Y-98910204D01*
X136639594Y-98960637D01*
X136627807Y-99029505D01*
X136616026Y-99047839D01*
X136521185Y-99225273D01*
X136463976Y-99413866D01*
X136444659Y-99609999D01*
X136463976Y-99806133D01*
X136521185Y-99994726D01*
X136619847Y-100179309D01*
X136618171Y-100180204D01*
X136639594Y-100230637D01*
X136627807Y-100299505D01*
X136616026Y-100317839D01*
X136521185Y-100495273D01*
X136463976Y-100683866D01*
X136444659Y-100880000D01*
X136463976Y-101076133D01*
X136521185Y-101264726D01*
X136619847Y-101449309D01*
X136618172Y-101450203D01*
X136639595Y-101500646D01*
X136627804Y-101569513D01*
X136616025Y-101587840D01*
X136521185Y-101765273D01*
X136463976Y-101953866D01*
X136444659Y-102150000D01*
X136463976Y-102346133D01*
X136521185Y-102534726D01*
X136619847Y-102719309D01*
X136618172Y-102720203D01*
X136639595Y-102770646D01*
X136627804Y-102839513D01*
X136616025Y-102857840D01*
X136521185Y-103035273D01*
X136463976Y-103223866D01*
X136444659Y-103420000D01*
X136463976Y-103616133D01*
X136521185Y-103804726D01*
X136619847Y-103989309D01*
X136618172Y-103990203D01*
X136639595Y-104040646D01*
X136627804Y-104109513D01*
X136616025Y-104127840D01*
X136521185Y-104305273D01*
X136463976Y-104493866D01*
X136444659Y-104689999D01*
X136463976Y-104886133D01*
X136521185Y-105074726D01*
X136521186Y-105074727D01*
X136614090Y-105248538D01*
X136739117Y-105400883D01*
X136891462Y-105525910D01*
X136980113Y-105573295D01*
X137060274Y-105616142D01*
X137110118Y-105665104D01*
X137125579Y-105733242D01*
X137101747Y-105798921D01*
X137046190Y-105841290D01*
X137001821Y-105849500D01*
X135908122Y-105849500D01*
X135891940Y-105848439D01*
X135862638Y-105844581D01*
X135825725Y-105839722D01*
X135794459Y-105831344D01*
X135740332Y-105808924D01*
X135712299Y-105792740D01*
X135684408Y-105771339D01*
X135665814Y-105757071D01*
X135642928Y-105734185D01*
X135607258Y-105687699D01*
X135591075Y-105659667D01*
X135574153Y-105618814D01*
X135568654Y-105605539D01*
X135560277Y-105574273D01*
X135553107Y-105519814D01*
X135551561Y-105508067D01*
X135550500Y-105491882D01*
X135550500Y-103426705D01*
X135544438Y-103400147D01*
X135517881Y-103283794D01*
X135454279Y-103151723D01*
X135362883Y-103037116D01*
X135248276Y-102945720D01*
X135248274Y-102945719D01*
X135116206Y-102882119D01*
X134973293Y-102849500D01*
X134951362Y-102849500D01*
X134951359Y-102849499D01*
X134899999Y-102849499D01*
X134826705Y-102849499D01*
X134683793Y-102882118D01*
X134551722Y-102945720D01*
X134437115Y-103037115D01*
X134345719Y-103151723D01*
X134282118Y-103283794D01*
X134249499Y-103426705D01*
X134249499Y-113639931D01*
X133550499Y-113639931D01*
X133550499Y-98974236D01*
X133570184Y-98907198D01*
X133572426Y-98903831D01*
X133624818Y-98827930D01*
X133685140Y-98668872D01*
X133705645Y-98500000D01*
X133685140Y-98331128D01*
X133624818Y-98172070D01*
X133575826Y-98101094D01*
X133572449Y-98096201D01*
X133550566Y-98029847D01*
X133550499Y-98025761D01*
X133550499Y-81474237D01*
X133570184Y-81407198D01*
X133572426Y-81403831D01*
X133624818Y-81327930D01*
X133685140Y-81168872D01*
X133705645Y-81000000D01*
X133685140Y-80831128D01*
X133624818Y-80672070D01*
X133594072Y-80627527D01*
X133572450Y-80596201D01*
X133550567Y-80529846D01*
X133550500Y-80525761D01*
X133550500Y-50279386D01*
X133570185Y-50212347D01*
X133586819Y-50191705D01*
X135191705Y-48586819D01*
X135253028Y-48553334D01*
X135279386Y-48550500D01*
X151017994Y-48550500D01*
X151085033Y-48570185D01*
G37*
%TD.AperFunction*%
%TD*%
M02*
